<?xml version="1.0" encoding="UTF-8" standalone="no"?>
<!-- Created with Inkscape (http://www.inkscape.org/) -->

<svg
   xmlns:dc="http://purl.org/dc/elements/1.1/"
   xmlns:cc="http://creativecommons.org/ns#"
   xmlns:rdf="http://www.w3.org/1999/02/22-rdf-syntax-ns#"
   xmlns:svg="http://www.w3.org/2000/svg"
   xmlns="http://www.w3.org/2000/svg"
   xmlns:sodipodi="http://sodipodi.sourceforge.net/DTD/sodipodi-0.dtd"
   xmlns:inkscape="http://www.inkscape.org/namespaces/inkscape"
   width="10.000021mm"
   height="10.50807mm"
   viewBox="0 0 35.433146 37.233318"
   id="svg10209"
   version="1.1"
   inkscape:version="0.91 r13725"
   sodipodi:docname="logo.svg">
  <defs
     id="defs10211">
    <clipPath
       clipPathUnits="userSpaceOnUse"
       id="clipPath9043">
      <rect
         style="opacity:1;fill:#00ff00;fill-opacity:0.52791874;stroke:none;stroke-width:3.76324582;stroke-opacity:1"
         id="rect9045"
         width="332.14285"
         height="305.90634"
         x="201.42857"
         y="329.50507"
         rx="3.692188" />
    </clipPath>
    <clipPath
       clipPathUnits="userSpaceOnUse"
       id="clipPath9043-3">
      <rect
         style="opacity:1;fill:#00ff00;fill-opacity:0.52791874;stroke:none;stroke-width:3.76324582;stroke-opacity:1"
         id="rect9045-6"
         width="332.14285"
         height="305.90634"
         x="201.42857"
         y="329.50507"
         rx="3.692188" />
    </clipPath>
    <inkscape:path-effect
       effect="spiro"
       id="path-effect4162-8"
       is_visible="true" />
    <inkscape:path-effect
       effect="spiro"
       id="path-effect4162"
       is_visible="true" />
    <inkscape:path-effect
       effect="spiro"
       id="path-effect4162-3"
       is_visible="true" />
    <inkscape:path-effect
       effect="spiro"
       id="path-effect4162-8-3"
       is_visible="true" />
    <clipPath
       clipPathUnits="userSpaceOnUse"
       id="clipPath9043-3-7">
      <rect
         style="opacity:1;fill:#00ff00;fill-opacity:0.52791874;stroke:none;stroke-width:3.76324582;stroke-opacity:1"
         id="rect9045-6-5"
         width="332.14285"
         height="305.90634"
         x="201.42857"
         y="329.50507"
         rx="3.692188" />
    </clipPath>
    <inkscape:path-effect
       effect="spiro"
       id="path-effect4162-8-35"
       is_visible="true" />
    <inkscape:path-effect
       effect="spiro"
       id="path-effect4162-6"
       is_visible="true" />
    <inkscape:path-effect
       effect="spiro"
       id="path-effect4162-3-2"
       is_visible="true" />
    <inkscape:path-effect
       effect="spiro"
       id="path-effect4162-8-3-9"
       is_visible="true" />
  </defs>
  <sodipodi:namedview
     id="base"
     pagecolor="#ffffff"
     bordercolor="#666666"
     borderopacity="1.0"
     inkscape:pageopacity="0.0"
     inkscape:pageshadow="2"
     inkscape:zoom="7.9195959"
     inkscape:cx="45.970884"
     inkscape:cy="19.255272"
     inkscape:document-units="px"
     inkscape:current-layer="layer1"
     showgrid="false"
     showguides="false"
     inkscape:window-width="1366"
     inkscape:window-height="754"
     inkscape:window-x="0"
     inkscape:window-y="14"
     inkscape:window-maximized="0"
     fit-margin-top="0"
     fit-margin-left="0"
     fit-margin-right="0"
     fit-margin-bottom="0" />
  <metadata
     id="metadata10214">
    <rdf:RDF>
      <cc:Work
         rdf:about="">
        <dc:format>image/svg+xml</dc:format>
        <dc:type
           rdf:resource="http://purl.org/dc/dcmitype/StillImage" />
        <dc:title />
      </cc:Work>
    </rdf:RDF>
  </metadata>
  <g
     inkscape:groupmode="layer"
     id="layer5"
     inkscape:label="Background"
     style="display:inline"
     transform="translate(-372.43713,-328.52093)"
     sodipodi:insensitive="true">
    <rect
       style="fill:#000000;fill-opacity:1;stroke:none;stroke-width:0.37795275;stroke-miterlimit:4;stroke-dasharray:none"
       id="rect11721"
       width="124.55739"
       height="47.607742"
       x="368.22415"
       y="323.35208" />
  </g>
  <g
     inkscape:label="SilkS"
     inkscape:groupmode="layer"
     id="layer1"
     transform="translate(-372.43713,-328.52093)">
    <path
       style="fill:#ffffff"
       d="m 386.68167,346.66934 c -0.0159,0 -0.10613,0.0845 -0.32131,0.29967 l -0.29995,0.29982 0,3.6693 0,3.66928 -0.0613,-0.0569 -0.0613,-0.0567 -8.7e-4,-3.58971 -8.9e-4,-3.58973 -5.35632,-0.007 c -2.94601,-0.004 -5.37142,-0.005 -5.38989,-0.004 l -0.0337,0.004 -0.002,5.39948 -0.002,5.3995 4.0861,0 4.08626,0 0.005,0.0359 c 0.004,0.0199 0.005,0.0436 0.005,0.0528 8e-5,0.0159 -0.20189,0.0159 -4.10977,0.0159 l -4.10991,0 -0.29179,0.29307 c -0.19914,0.20002 -0.29272,0.30044 -0.29478,0.31658 l -0.004,0.0238 4.41189,0.002 4.41201,0.002 0.04,1.44888 c 0.0222,0.79687 0.0404,1.47905 0.0408,1.51597 l 8.9e-4,0.0672 0.25652,0.0985 c 0.14106,0.0543 0.26978,0.0983 0.2859,0.0983 0.0262,-1.7e-4 0.11199,-0.0866 0.82403,-0.83049 0.4371,-0.45663 0.7957,-0.82909 0.79691,-0.8276 8.9e-4,0.002 0.2063,0.46692 0.45582,1.03423 0.2495,0.56729 0.51249,1.16482 0.58441,1.32786 l 0.13094,0.29636 0.14371,0.0508 c 0.0829,0.0294 0.16195,0.0514 0.18683,0.052 0.0238,5.1e-4 0.0517,0.005 0.0624,0.0106 0.0183,0.009 0.0331,0.007 0.11748,-0.005 0.0206,-0.004 0.49724,-0.2482 1.10676,-0.5685 l 1.07079,-0.56278 0.059,-0.20188 c 0.0324,-0.1111 0.059,-0.21644 0.059,-0.23414 0,-0.0248 -0.15293,-0.30448 -0.66859,-1.22291 -0.36777,-0.65489 -0.67733,-1.20535 -0.68781,-1.2232 l -0.0192,-0.0324 0.0808,0.005 c 0.93267,0.0714 1.66267,0.12138 1.66896,0.11446 0.004,-0.004 0.0486,-0.0998 0.0993,-0.2122 0.0583,-0.12918 0.0923,-0.21649 0.0923,-0.23702 0,-0.018 0.005,-0.0437 0.0106,-0.0575 0.009,-0.0195 0.009,-0.0295 0,-0.0436 -0.007,-0.0106 -0.0124,-0.0259 -0.0124,-0.0352 -1.6e-4,-0.009 -0.44369,-0.45638 -1.01201,-1.01958 l -1.01169,-1.00268 0.20848,-0.005 c 0.22603,-0.005 0.23946,-0.009 0.2912,-0.0639 0.0524,-0.0564 0.0611,-0.0855 0.0611,-0.20474 0,-0.0951 -0.004,-0.11572 -0.021,-0.14974 -0.027,-0.0508 -0.0793,-0.096 -0.12512,-0.10879 -0.0202,-0.005 -0.1304,-0.0106 -0.24976,-0.0106 l -0.2135,-1.5e-4 0,0.24592 c 0,0.21326 -0.002,0.24425 -0.0141,0.23427 -0.0106,-0.009 -0.0142,-0.0616 -0.0159,-0.29135 -0.004,-0.27262 -0.004,-0.28114 -0.0255,-0.32318 -0.029,-0.0553 -0.0733,-0.10225 -0.11854,-0.12563 -0.0326,-0.0178 -0.0586,-0.0183 -0.31918,-0.0183 l -0.28359,0 -0.18943,-0.18683 -0.18925,-0.18683 0.46958,-2.9e-4 c 0.45471,-2.9e-4 0.47074,-8.9e-4 0.51043,-0.0203 0.0491,-0.0238 0.0948,-0.0733 0.12244,-0.13307 0.0195,-0.0418 0.0203,-0.0579 0.0203,-0.39876 l 0,-0.35499 -0.0324,-0.0597 c -0.018,-0.0329 -0.0478,-0.0714 -0.0666,-0.0857 -0.0643,-0.0491 -0.0895,-0.0512 -0.6323,-0.0512 l -0.50155,0 0,0.49627 0,0.4961 -0.048,-0.0471 -0.0478,-0.0473 0,-4.29172 0,-4.29156 -0.0216,0 z m -10.46645,1.20512 c 0.0739,-8.7e-4 0.14778,0.005 0.20561,0.0216 0.30414,0.0813 0.51187,0.33763 0.53121,0.6554 0.007,0.11251 -0.007,0.21392 -0.0461,0.31903 -0.0376,0.10313 -0.0927,0.18423 -0.18224,0.26855 -0.0875,0.0824 -0.21073,0.14831 -0.32233,0.17277 -0.0859,0.0188 -0.28314,0.019 -0.36061,1.4e-4 -0.0663,-0.0159 -0.18128,-0.0679 -0.23888,-0.10774 -0.0579,-0.04 -0.14581,-0.13183 -0.19069,-0.19928 -0.15008,-0.2259 -0.15327,-0.55259 -0.007,-0.79777 0.0471,-0.0794 0.16407,-0.19219 0.24848,-0.23974 0.0393,-0.0222 0.11038,-0.0517 0.15788,-0.0658 0.0577,-0.0178 0.13164,-0.0262 0.20546,-0.0272 z m 7.65171,5.81129 c 0.002,-0.002 1.92753,1.90717 3.93815,3.90429 0.40282,0.40013 0.72815,0.72737 0.72294,0.72737 -0.005,0 -0.24416,-0.0177 -0.53095,-0.0384 -0.28678,-0.0212 -0.57774,-0.0412 -0.64651,-0.0447 l -0.1251,-0.005 -0.12403,0.19573 c -0.0703,0.1111 -0.12545,0.20804 -0.1274,0.22437 -0.002,0.0234 0.1244,0.25565 0.67347,1.23267 0.46032,0.81902 0.67301,1.20591 0.665,1.21015 -0.007,0.004 -0.26662,0.13999 -0.57797,0.30352 -0.31135,0.16356 -0.62863,0.33004 -0.70514,0.37008 l -0.1391,0.0728 -0.55059,-1.25115 c -0.50843,-1.15533 -0.55247,-1.25153 -0.57568,-1.25632 -0.0987,-0.0204 -0.41371,-0.0724 -0.4379,-0.0724 -0.0269,0 -0.0899,0.0627 -0.64808,0.64637 -0.34005,0.35547 -0.61994,0.64498 -0.62198,0.6432 -0.004,-0.004 -0.19297,-6.85775 -0.18928,-6.86155 z"
       id="path10134"
       inkscape:connector-curvature="0" />
    <path
       style="fill:#ffffff"
       d="m 375.17704,360.8177 c -0.0484,-0.0124 -0.1026,-0.0512 -0.13573,-0.0955 -0.0186,-0.0248 -0.0201,-0.0415 -0.0227,-0.26573 l -0.004,-0.23918 0.26431,0 0.26434,0 0,0.23137 c 0,0.21985 -8.9e-4,0.23322 -0.021,0.26851 -0.0525,0.0936 -0.20652,0.13823 -0.34649,0.10046 z"
       id="path10126"
       inkscape:connector-curvature="0" />
    <path
       style="fill:#ffffff"
       d="m 376.66221,360.82261 c -0.081,-0.0225 -0.13273,-0.0616 -0.15949,-0.12032 -0.0159,-0.034 -0.0178,-0.0663 -0.0179,-0.26185 l -2.3e-4,-0.2231 0.26432,0 0.26434,0 -0.004,0.24305 -0.004,0.24305 -0.0262,0.0346 c -0.041,0.0537 -0.11588,0.0854 -0.21101,0.0895 -0.0437,0.002 -0.0923,-2.3e-4 -0.10808,-0.005 z"
       id="path10124"
       inkscape:connector-curvature="0" />
    <path
       style="fill:#ffffff"
       d="m 378.10982,360.81428 c -0.0677,-0.0241 -0.0951,-0.0439 -0.126,-0.0904 l -0.0264,-0.0399 -0.004,-0.23339 -0.004,-0.23341 0.26987,0 0.2699,0 -0.004,0.23427 -0.004,0.23428 -0.0287,0.0417 c -0.0429,0.062 -0.11889,0.0969 -0.2195,0.10118 -0.0577,0.002 -0.0908,-0.002 -0.12722,-0.0142 z"
       id="path10122"
       inkscape:connector-curvature="0" />
    <path
       style="fill:#ffffff"
       d="m 379.59031,360.81823 c -0.0601,-0.0178 -0.11979,-0.0597 -0.14211,-0.10189 -0.0159,-0.03 -0.0177,-0.0579 -0.0177,-0.26625 l 0,-0.23283 0.26385,0 0.26385,0 -2.1e-4,0.22309 c -2.2e-4,0.19566 -0.002,0.22785 -0.018,0.26186 -0.0201,0.0439 -0.0637,0.0843 -0.115,0.1063 -0.048,0.0206 -0.17701,0.0259 -0.23467,0.009 z"
       id="path10120"
       inkscape:connector-curvature="0" />
    <path
       style="fill:#ffffff"
       d="m 381.05965,360.81859 c -0.0595,-0.0177 -0.10614,-0.0497 -0.13645,-0.0967 l -0.0248,-0.0382 0,-0.23317 0,-0.23314 0.26384,0 0.26387,0 0,0.22579 c 0,0.17081 -0.004,0.23331 -0.0124,0.25666 -0.0177,0.0407 -0.0686,0.0885 -0.11624,0.10826 -0.0506,0.0212 -0.17911,0.0269 -0.23691,0.0106 z"
       id="path10118"
       inkscape:connector-curvature="0" />
    <path
       style="fill:#ffffff"
       d="m 382.52675,360.81774 c -0.0484,-0.0124 -0.1026,-0.0512 -0.13572,-0.0955 -0.0186,-0.0248 -0.0201,-0.0415 -0.0227,-0.26569 l -0.004,-0.23921 0.26432,0 0.26433,0 0,0.23315 0,0.23318 -0.0248,0.0382 c -0.0141,0.0211 -0.0397,0.0486 -0.0579,0.0609 -0.0665,0.0456 -0.18899,0.0605 -0.28455,0.0349 z"
       id="path10116"
       inkscape:connector-curvature="0" />
    <path
       style="fill:#ffffff"
       d="m 374.93111,360.17328 c -0.0967,-0.0261 -0.17186,-0.0936 -0.19169,-0.17187 -0.007,-0.028 -0.0106,-0.2116 -0.0106,-0.55117 l 0,-0.50907 0.55172,0 0.5517,0 -2.2e-4,0.52532 c -2.3e-4,0.59748 0.004,0.56865 -0.0813,0.64329 -0.0824,0.0724 -0.1205,0.0789 -0.46872,0.0781 -0.22989,-5e-4 -0.31084,-0.004 -0.35083,-0.0142 z"
       id="path10114"
       inkscape:connector-curvature="0" />
    <path
       style="fill:#ffffff"
       d="m 376.415,360.17837 c -0.0849,-0.0208 -0.15789,-0.0728 -0.19023,-0.13573 -0.0177,-0.0339 -0.0183,-0.0629 -0.0183,-0.56851 l 0,-0.53289 0.54693,0 0.54689,0 0,0.52584 0,0.52583 -0.025,0.0501 c -0.0274,0.0551 -0.0618,0.0855 -0.13379,0.11891 -0.0461,0.0212 -0.0564,0.022 -0.36886,0.0236 -0.17683,8.9e-4 -0.33769,-0.002 -0.35755,-0.007 z"
       id="path10112"
       inkscape:connector-curvature="0" />
    <path
       style="fill:#ffffff"
       d="m 377.87991,360.17794 c -0.0594,-0.0142 -0.13875,-0.066 -0.17153,-0.11252 l -0.0292,-0.0417 -0.002,-0.54131 -0.002,-0.54128 0.54714,0 0.54715,0 0,0.52948 c 0,0.5165 -5.2e-4,0.5305 -0.0201,0.57067 -0.0241,0.0499 -0.0634,0.0845 -0.13361,0.11748 l -0.0528,0.0248 -0.32142,0.002 c -0.17684,8.9e-4 -0.33909,-0.002 -0.36068,-0.007 z"
       id="path10110"
       inkscape:connector-curvature="0" />
    <path
       style="fill:#ffffff"
       d="m 379.35087,360.17837 c -0.0838,-0.0204 -0.15097,-0.0702 -0.18392,-0.13645 l -0.0244,-0.0491 0,-0.52583 0,-0.52584 0.55217,0 0.55215,0 -0.004,0.53011 c -0.004,0.52211 -0.004,0.53072 -0.0236,0.5685 -0.0287,0.0532 -0.0654,0.0854 -0.1329,0.11694 l -0.0576,0.0269 -0.32141,0.002 c -0.17685,8.9e-4 -0.33777,-0.002 -0.35773,-0.007 z"
       id="path10108"
       inkscape:connector-curvature="0" />
    <path
       style="fill:#ffffff"
       d="m 380.79439,360.16852 c -0.0763,-0.0244 -0.15718,-0.0981 -0.1733,-0.15751 -0.007,-0.0255 -0.0106,-0.21171 -0.0106,-0.55412 l -5e-5,-0.51572 0.55169,0 0.55172,0 0,0.50907 c 0,0.35952 -0.004,0.5223 -0.0106,0.55407 -0.0142,0.0588 -0.0893,0.13502 -0.15664,0.16052 -0.0429,0.0159 -0.0817,0.0185 -0.36932,0.0206 -0.3011,0.002 -0.32527,0.002 -0.38223,-0.0177 z"
       id="path10106"
       inkscape:connector-curvature="0" />
    <path
       style="fill:#ffffff"
       d="m 382.28079,360.17331 c -0.0965,-0.026 -0.17186,-0.0935 -0.19165,-0.17186 -0.007,-0.0279 -0.0106,-0.2116 -0.0106,-0.55115 l 0,-0.50908 0.5517,0 0.55171,0 -6e-5,0.51572 c 0,0.34242 -0.004,0.52863 -0.0106,0.55412 -0.0159,0.0613 -0.0971,0.13307 -0.17666,0.15771 -0.0594,0.0185 -0.087,0.0199 -0.36309,0.0193 -0.22988,-5.1e-4 -0.31083,-0.004 -0.35083,-0.0142 z"
       id="path10104"
       inkscape:connector-curvature="0" />
    <path
       style="fill:#ffffff"
       d="m 374.4218,352.70517 0,-6.03583 0.0216,0 c 0.0159,0 0.10401,0.0824 0.31663,0.29509 l 0.29499,0.29511 0,5.44672 0,5.4467 -0.29322,0.29099 c -0.19752,0.196 -0.30087,0.29196 -0.31665,0.29402 l -0.0234,0.004 0,-6.03582 z"
       id="path10102"
       inkscape:connector-curvature="0" />
    <path
       style="fill:#ffffff"
       d="m 373.25635,358.25755 c -0.025,-0.007 -0.0553,-0.0272 -0.0881,-0.0601 -0.041,-0.0411 -0.0537,-0.062 -0.0705,-0.11731 -0.0195,-0.0639 -0.0204,-0.0834 -0.0177,-0.3875 l 0.004,-0.32015 0.0248,-0.0528 c 0.0297,-0.0629 0.0757,-0.11146 0.12847,-0.13556 0.0358,-0.0159 0.0759,-0.0177 0.55911,-0.0177 l 0.52053,-2.3e-4 0,0.55172 0,0.5517 -0.51094,-8.8e-4 c -0.32199,-5e-4 -0.52498,-0.005 -0.54897,-0.0106 z"
       id="path10100"
       inkscape:connector-curvature="0" />
    <path
       style="fill:#ffffff"
       d="m 372.56501,357.96836 c -0.0352,-0.0159 -0.088,-0.0737 -0.10844,-0.12032 -0.0106,-0.0234 -0.0159,-0.0645 -0.0159,-0.13023 -3.5e-4,-0.0866 0.002,-0.10136 0.027,-0.15204 0.0206,-0.042 0.0386,-0.0631 0.0714,-0.084 l 0.0439,-0.0278 0.2332,0 0.23318,0 0,0.26386 0,0.26387 -0.22785,-3.8e-4 c -0.16657,-2.9e-4 -0.23569,-0.004 -0.25685,-0.0124 z"
       id="path10098"
       inkscape:connector-curvature="0" />
    <path
       style="fill:#ffffff"
       d="m 373.23608,356.77835 c -0.051,-0.0222 -0.0962,-0.07 -0.12493,-0.13254 l -0.0278,-0.0603 0,-0.34062 0,-0.34062 0.0248,-0.0528 c 0.0329,-0.0702 0.0675,-0.10933 0.11747,-0.1336 0.0402,-0.0195 0.0543,-0.0201 0.56589,-0.0201 l 0.52467,0 0,0.5469 0,0.54693 -0.52532,-3.7e-4 c -0.41736,-3e-4 -0.53137,-0.004 -0.55485,-0.0124 z"
       id="path10096"
       inkscape:connector-curvature="0" />
    <path
       style="fill:#ffffff"
       d="m 372.57626,356.4997 c -0.0482,-0.0178 -0.0792,-0.0469 -0.11004,-0.10595 -0.0222,-0.0424 -0.0251,-0.0594 -0.0253,-0.1446 -3e-4,-0.0888 0.002,-0.10117 0.0285,-0.15309 0.0193,-0.0378 0.0428,-0.0663 0.0703,-0.0857 l 0.0414,-0.0292 0.23423,-0.004 0.23428,-0.004 0,0.26953 0,0.26953 -0.21828,-4.5e-4 c -0.15965,-3e-4 -0.22819,-0.004 -0.25518,-0.0142 z"
       id="path10094"
       inkscape:connector-curvature="0" />
    <path
       style="fill:#ffffff"
       d="m 373.2206,355.29962 c -0.0503,-0.0262 -0.0831,-0.0643 -0.11535,-0.1345 -0.0211,-0.0459 -0.022,-0.0577 -0.0248,-0.3676 -0.004,-0.29876 -0.002,-0.3244 0.0159,-0.38401 0.0225,-0.0741 0.0698,-0.1352 0.12918,-0.16692 0.0395,-0.0212 0.0438,-0.0212 0.56505,-0.0241 l 0.52533,-0.004 0,0.55217 0,0.55216 -0.52533,-4.3e-4 -0.52531,-4.6e-4 -0.045,-0.0234 z"
       id="path10092"
       inkscape:connector-curvature="0" />
    <path
       style="fill:#ffffff"
       d="m 388.06574,354.90657 0,-0.26386 0.22726,0 c 0.21121,0 0.23018,0.002 0.26885,0.0202 0.0438,0.0213 0.0873,0.0751 0.10684,0.13237 0.0182,0.0537 0.0142,0.18456 -0.009,0.24337 -0.0188,0.0501 -0.0605,0.0996 -0.10259,0.12103 -0.0142,0.007 -0.10153,0.0106 -0.25666,0.0106 l -0.2357,0 0,-0.26385 z"
       id="path10090"
       inkscape:connector-curvature="0" />
    <path
       style="fill:#ffffff"
       d="m 372.55195,355.01969 c -0.0751,-0.037 -0.12225,-0.14956 -0.11358,-0.27095 0.009,-0.11413 0.0499,-0.18766 0.12634,-0.22233 0.034,-0.0159 0.0663,-0.0178 0.26187,-0.0178 l 0.22307,-2.2e-4 0,0.26385 0,0.26385 -0.23267,-2e-4 c -0.19737,-1.4e-4 -0.23759,-0.002 -0.2651,-0.0159 z"
       id="path10088"
       inkscape:connector-curvature="0" />
    <path
       style="fill:#ffffff"
       d="m 386.79923,353.43885 0,-0.55201 0.52182,0 0.52183,0 0.0514,0.0267 c 0.0611,0.032 0.1079,0.0895 0.1281,0.1577 0.0212,0.0707 0.0214,0.66224 5.1e-4,0.73258 -0.019,0.0637 -0.0646,0.1235 -0.11872,0.1554 l -0.0447,0.0262 -0.53012,0.004 -0.5301,0.004 0,-0.55203 z"
       id="path10086"
       inkscape:connector-curvature="0" />
    <path
       style="fill:#ffffff"
       d="m 373.24747,353.84177 c -0.0499,-0.0179 -0.11481,-0.0832 -0.14211,-0.14318 -0.0214,-0.0473 -0.0222,-0.059 -0.0253,-0.36076 -0.004,-0.38936 0.002,-0.42189 0.0868,-0.5144 0.0656,-0.0713 0.0629,-0.0709 0.64257,-0.0709 l 0.50678,0 0,0.55172 0,0.55169 -0.51573,-4.4e-4 c -0.41455,-3.6e-4 -0.52303,-0.004 -0.55304,-0.0142 z"
       id="path10084"
       inkscape:connector-curvature="0" />
    <path
       style="fill:#ffffff"
       d="m 388.06574,353.43855 0,-0.26387 0.23066,0 c 0.21137,0 0.2338,0.002 0.26811,0.0192 0.0768,0.0391 0.11535,0.12102 0.11535,0.24477 0,0.12385 -0.0384,0.20558 -0.11535,0.24475 -0.0344,0.0178 -0.0567,0.0192 -0.26811,0.0192 l -0.23066,0 0,-0.26385 z"
       id="path10082"
       inkscape:connector-curvature="0" />
    <path
       style="fill:#ffffff"
       d="m 372.54877,353.54637 c -0.0791,-0.0478 -0.11888,-0.14387 -0.11056,-0.26589 0.005,-0.0851 0.025,-0.1366 0.0675,-0.18135 0.0531,-0.0558 0.0689,-0.0588 0.31824,-0.0588 l 0.22578,0 0,0.26386 0,0.26386 -0.23268,-6e-5 c -0.22415,-4e-5 -0.23398,-8.9e-4 -0.26827,-0.0216 z"
       id="path10080"
       inkscape:connector-curvature="0" />
    <path
       style="fill:#ffffff"
       d="m 386.79923,351.97085 0,-0.55209 0.52468,0 c 0.51244,0 0.52566,4.5e-4 0.56608,0.0201 0.0534,0.0259 0.10331,0.0847 0.12811,0.15097 0.0188,0.0501 0.0197,0.0693 0.0177,0.39415 l -0.004,0.34147 -0.026,0.0492 c -0.0142,0.027 -0.04,0.0632 -0.0573,0.0806 -0.0637,0.0638 -0.0447,0.0618 -0.62439,0.0649 l -0.52533,0.004 0,-0.55208 z"
       id="path10078"
       inkscape:connector-curvature="0" />
    <path
       style="fill:#ffffff"
       d="m 373.25635,352.37581 c -0.025,-0.007 -0.0553,-0.0272 -0.0881,-0.0601 -0.041,-0.041 -0.0537,-0.062 -0.0705,-0.1173 -0.0195,-0.0639 -0.0204,-0.0834 -0.0177,-0.38751 l 0.004,-0.32014 0.0248,-0.0528 c 0.0297,-0.0629 0.0757,-0.11147 0.12847,-0.13555 0.0358,-0.0159 0.0759,-0.0178 0.55911,-0.0178 l 0.52053,-2.3e-4 0,0.55172 0,0.55171 -0.51094,-8.8e-4 c -0.32199,-5e-4 -0.52498,-0.005 -0.54897,-0.0106 z"
       id="path10076"
       inkscape:connector-curvature="0" />
    <path
       style="fill:#ffffff"
       d="m 388.06574,351.97094 0,-0.26433 0.23557,0 c 0.25505,0 0.2636,0.002 0.31265,0.0543 0.0478,0.0516 0.0599,0.0878 0.0641,0.19319 0.004,0.0955 0.004,0.10086 -0.0267,0.16106 -0.0222,0.0448 -0.0417,0.0696 -0.07,0.0883 l -0.0393,0.026 -0.2382,0.004 -0.23822,0.004 0,-0.26432 z"
       id="path10074"
       inkscape:connector-curvature="0" />
    <path
       style="fill:#ffffff"
       d="m 372.56501,352.08663 c -0.0352,-0.0159 -0.088,-0.0737 -0.10844,-0.12031 -0.0106,-0.0234 -0.0159,-0.0645 -0.0159,-0.13023 -3.5e-4,-0.0866 0.002,-0.10136 0.027,-0.15203 0.0206,-0.042 0.0386,-0.0633 0.0714,-0.084 l 0.0439,-0.0278 0.2332,0 0.23318,0 0,0.26387 0,0.26385 -0.22785,-3.7e-4 c -0.16657,-2.8e-4 -0.23569,-0.004 -0.25685,-0.0124 z"
       id="path10072"
       inkscape:connector-curvature="0" />
    <path
       style="fill:#ffffff"
       d="m 386.79923,350.49764 0,-0.54691 0.52808,0 c 0.50125,0 0.52994,8.9e-4 0.56371,0.0184 0.0452,0.0232 0.0897,0.0703 0.11853,0.12563 0.0223,0.0427 0.0227,0.0471 0.0255,0.38463 0.004,0.33041 0.002,0.34328 -0.018,0.39705 -0.024,0.0641 -0.0733,0.12317 -0.12545,0.14973 -0.0346,0.0178 -0.0618,0.0184 -0.56436,0.0184 l -0.52809,0 0,-0.54692 z"
       id="path10070"
       inkscape:connector-curvature="0" />
    <path
       style="fill:#ffffff"
       d="m 373.23608,350.89663 c -0.051,-0.0222 -0.0962,-0.07 -0.12493,-0.13255 l -0.0278,-0.0603 0,-0.34064 0,-0.34061 0.0248,-0.0528 c 0.0329,-0.0702 0.0675,-0.10931 0.11747,-0.13359 0.0402,-0.0195 0.0543,-0.0201 0.56589,-0.0201 l 0.52467,0 0,0.54692 0,0.54691 -0.52532,-3.7e-4 c -0.41736,-3e-4 -0.53137,-0.004 -0.55485,-0.0124 z"
       id="path10068"
       inkscape:connector-curvature="0" />
    <path
       style="fill:#ffffff"
       d="m 388.06574,350.49764 0,-0.26863 0.21349,4e-5 c 0.11944,2e-5 0.22947,0.005 0.24973,0.0106 0.0457,0.0124 0.0978,0.0581 0.1251,0.1088 0.0181,0.0339 0.0211,0.0545 0.0211,0.14972 0,0.0951 -0.004,0.11571 -0.0211,0.14955 -0.027,0.0508 -0.0792,0.0962 -0.1251,0.1088 -0.0202,0.005 -0.13041,0.0106 -0.24973,0.0106 l -0.21349,6e-5 0,-0.26867 z"
       id="path10066"
       inkscape:connector-curvature="0" />
    <path
       style="fill:#ffffff"
       d="m 372.57626,350.61798 c -0.0482,-0.0178 -0.0792,-0.0469 -0.11004,-0.10596 -0.0222,-0.0424 -0.0251,-0.0594 -0.0253,-0.1446 -3e-4,-0.0888 0.002,-0.10117 0.0285,-0.15308 0.0193,-0.0377 0.0428,-0.0663 0.0703,-0.0857 l 0.0414,-0.0292 0.23423,-0.004 0.23428,-0.004 0,0.26953 0,0.26952 -0.21828,-4.2e-4 c -0.15965,-3.1e-4 -0.22819,-0.004 -0.25518,-0.0142 z"
       id="path10064"
       inkscape:connector-curvature="0" />
    <path
       style="fill:#ffffff"
       d="m 386.79923,349.02484 0,-0.55171 0.50163,0 c 0.54288,0 0.56798,0.002 0.6323,0.051 0.0188,0.0142 0.0487,0.0529 0.0666,0.0859 l 0.0324,0.0597 0,0.35503 c 0,0.34072 -8.8e-4,0.35676 -0.0202,0.39867 -0.0276,0.0597 -0.0733,0.1095 -0.12242,0.13323 -0.0399,0.0193 -0.0549,0.0199 -0.56568,0.0199 l -0.52468,0 0,-0.55171 z"
       id="path10062"
       inkscape:connector-curvature="0" />
    <path
       style="fill:#ffffff"
       d="m 373.22779,349.42258 c -0.0551,-0.0274 -0.0792,-0.0537 -0.11376,-0.12367 l -0.0309,-0.0625 -0.004,-0.32038 c -0.004,-0.29901 -0.002,-0.32467 0.0159,-0.38427 0.0223,-0.0733 0.0703,-0.1359 0.12634,-0.16443 0.0354,-0.0182 0.059,-0.0188 0.56506,-0.0188 l 0.52812,0 0,0.5469 0,0.54692 -0.52533,-3.8e-4 c -0.50276,-3.7e-4 -0.52695,-8.8e-4 -0.56316,-0.0193 z"
       id="path10060"
       inkscape:connector-curvature="0" />
    <path
       style="fill:#ffffff"
       d="m 388.06574,349.02484 0,-0.26386 0.22726,0 c 0.21121,0 0.23018,0.002 0.26885,0.0202 0.0438,0.0213 0.0873,0.0751 0.10684,0.13238 0.0182,0.0537 0.0142,0.18456 -0.009,0.24337 -0.0188,0.0501 -0.0605,0.0995 -0.10259,0.12101 -0.0142,0.007 -0.10153,0.0106 -0.25666,0.0106 l -0.2357,0 0,-0.26386 z"
       id="path10058"
       inkscape:connector-curvature="0" />
    <path
       style="fill:#ffffff"
       d="m 372.55195,349.13795 c -0.0751,-0.037 -0.12225,-0.14955 -0.11358,-0.27095 0.009,-0.11412 0.0499,-0.18766 0.12634,-0.22231 0.034,-0.0159 0.0663,-0.0178 0.26187,-0.018 l 0.22307,-2.3e-4 0,0.26387 0,0.26384 -0.23267,-2.1e-4 c -0.19737,-2e-4 -0.23759,-0.002 -0.2651,-0.0159 z"
       id="path10056"
       inkscape:connector-curvature="0" />
    <path
       style="fill:#ffffff"
       d="m 386.79923,347.55682 0,-0.55171 0.51092,5e-5 c 0.32237,4e-5 0.52412,0.004 0.54667,0.0106 0.0575,0.0159 0.11429,0.0661 0.14654,0.12882 l 0.029,0.0565 0,0.35637 0,0.35637 -0.029,0.0565 c -0.0321,0.0627 -0.0891,0.11287 -0.14654,0.12882 -0.0225,0.007 -0.2243,0.0106 -0.54667,0.0106 l -0.51092,6e-5 0,-0.55171 z"
       id="path10054"
       inkscape:connector-curvature="0" />
    <path
       style="fill:#ffffff"
       d="m 373.24747,347.96004 c -0.0499,-0.018 -0.11481,-0.0831 -0.14211,-0.14318 -0.0214,-0.0473 -0.0222,-0.059 -0.0253,-0.36076 -0.004,-0.38935 0.002,-0.42189 0.0868,-0.51441 0.0656,-0.0713 0.0629,-0.0709 0.64257,-0.0709 l 0.50678,0 0,0.55171 0,0.55171 -0.51573,-4.5e-4 c -0.41455,-3.5e-4 -0.52303,-0.004 -0.55304,-0.0142 z"
       id="path10052"
       inkscape:connector-curvature="0" />
    <path
       style="fill:#ffffff"
       d="m 388.06574,347.55682 0,-0.26387 0.23066,0 c 0.21137,0 0.2338,0.002 0.26811,0.0192 0.0768,0.0391 0.11535,0.12102 0.11535,0.24476 0,0.12386 -0.0384,0.20561 -0.11535,0.24475 -0.0344,0.0178 -0.0567,0.0192 -0.26811,0.0192 l -0.23066,0 0,-0.26387 z"
       id="path10050"
       inkscape:connector-curvature="0" />
    <path
       style="fill:#ffffff"
       d="m 372.54877,347.66471 c -0.0791,-0.0478 -0.11888,-0.14406 -0.11056,-0.2659 0.005,-0.085 0.025,-0.13662 0.0675,-0.18135 0.0531,-0.0558 0.0689,-0.0588 0.31824,-0.0588 l 0.22578,0 0,0.26385 0,0.26387 -0.23268,-6e-5 c -0.22415,-3e-5 -0.23398,-8.9e-4 -0.26827,-0.0216 z"
       id="path10048"
       inkscape:connector-curvature="0" />
    <path
       style="fill:#ffffff"
       d="m 374.82232,346.9115 c -0.2116,-0.21169 -0.29497,-0.30118 -0.29497,-0.31663 l 0,-0.0214 6.03518,0 6.0352,0 0,0.0216 c 0,0.0159 -0.0824,0.10402 -0.2951,0.31665 l -0.2951,0.29498 -5.44511,0 -5.44511,0 -0.29499,-0.29512 z"
       id="path10046"
       inkscape:connector-curvature="0" />
    <path
       style="fill:#ffffff"
       d="m 374.86322,345.95207 c 4e-5,-0.34241 0.004,-0.52862 0.0106,-0.5541 0.007,-0.0257 0.0274,-0.0549 0.0616,-0.0882 0.0412,-0.0405 0.0639,-0.0537 0.11799,-0.0702 0.0634,-0.0192 0.0834,-0.0201 0.38211,-0.0178 0.30142,0.004 0.31772,0.004 0.36948,0.0248 0.0655,0.0262 0.13608,0.0972 0.15133,0.15185 0.007,0.0244 0.0106,0.21391 0.0106,0.55298 l 5e-5,0.51572 -0.5517,0 -0.55172,0 5e-5,-0.51572 z"
       id="path10044"
       inkscape:connector-curvature="0" />
    <path
       style="fill:#ffffff"
       d="m 376.3332,345.93769 c 0.004,-0.52636 0.004,-0.53042 0.0241,-0.56987 0.0318,-0.0594 0.0929,-0.10669 0.16693,-0.12918 0.0595,-0.0181 0.0852,-0.0192 0.38402,-0.0159 0.30564,0.004 0.3222,0.004 0.36556,0.0239 0.0705,0.0326 0.10986,0.0674 0.13644,0.12084 l 0.0244,0.0491 0,0.52583 0,0.52583 -0.5521,0 -0.55207,0 0.004,-0.5301 z"
       id="path10042"
       inkscape:connector-curvature="0" />
    <path
       style="fill:#ffffff"
       d="m 377.80879,345.93833 c 0,-0.51649 5e-4,-0.53049 0.0201,-0.57065 0.0241,-0.0499 0.0633,-0.0845 0.13361,-0.1175 l 0.0528,-0.0248 0.34061,0 0.34064,0 0.0528,0.0248 c 0.0702,0.0329 0.10933,0.0675 0.1336,0.1175 0.0195,0.0402 0.0201,0.0543 0.0201,0.57065 l 0,0.5295 -0.54692,0 -0.5469,0 0,-0.5295 z"
       id="path10040"
       inkscape:connector-curvature="0" />
    <path
       style="fill:#ffffff"
       d="m 379.27682,345.93833 c 0,-0.51649 5e-4,-0.53049 0.0199,-0.57065 0.0242,-0.0499 0.0634,-0.0845 0.1336,-0.1175 l 0.0528,-0.0248 0.34063,0 0.34061,0 0.0528,0.0248 c 0.0702,0.0329 0.11411,0.0716 0.13556,0.11874 0.0159,0.0361 0.0177,0.0752 0.018,0.56889 l 2.2e-4,0.53012 -0.54691,0 -0.54691,0 0,-0.52949 z"
       id="path10038"
       inkscape:connector-curvature="0" />
    <path
       style="fill:#ffffff"
       d="m 380.74483,345.94197 0,-0.52582 0.0244,-0.0491 c 0.0266,-0.0536 0.0659,-0.0883 0.13644,-0.12084 0.0439,-0.0204 0.0562,-0.021 0.38123,-0.021 0.29751,0 0.34141,0.002 0.38484,0.0177 0.0603,0.0212 0.12226,0.0726 0.15043,0.12544 0.0211,0.0395 0.0213,0.0435 0.024,0.56987 l 0.004,0.53013 -0.55201,0 -0.55202,0 0,-0.52584 z"
       id="path10036"
       inkscape:connector-curvature="0" />
    <path
       style="fill:#ffffff"
       d="m 382.21291,345.95209 c 0,-0.3465 0.004,-0.52832 0.0106,-0.5541 0.007,-0.0246 0.0281,-0.056 0.0599,-0.0877 0.0406,-0.0408 0.0614,-0.0532 0.11783,-0.0702 0.0655,-0.0199 0.0831,-0.0206 0.3838,-0.0178 0.3014,0.004 0.31772,0.004 0.36949,0.0248 0.0654,0.0262 0.13608,0.0973 0.15133,0.15184 0.007,0.0244 0.0106,0.21392 0.0106,0.55298 l 6e-5,0.51574 -0.55171,0 -0.5517,0 7e-5,-0.51574 z"
       id="path10034"
       inkscape:connector-curvature="0" />
    <path
       style="fill:#ffffff"
       d="m 383.68289,345.93771 c 0.004,-0.52634 0.004,-0.5304 0.024,-0.56987 0.0318,-0.0594 0.0929,-0.10667 0.16693,-0.12918 0.0595,-0.0181 0.0852,-0.0192 0.384,-0.0159 0.30565,0.004 0.32223,0.004 0.36558,0.0239 0.0705,0.0326 0.10984,0.0674 0.13644,0.12084 l 0.0244,0.0491 0,0.52584 0,0.52583 -0.55209,0 -0.55209,0 0.004,-0.53012 z"
       id="path10032"
       inkscape:connector-curvature="0" />
    <path
       style="fill:#ffffff"
       d="m 385.1585,345.93835 c 0,-0.51647 4.9e-4,-0.53049 0.0199,-0.57066 0.0241,-0.0499 0.0635,-0.0845 0.13358,-0.11749 l 0.0528,-0.0248 0.34062,0 0.34062,0 0.0528,0.0248 c 0.0702,0.0329 0.10932,0.0675 0.1336,0.11749 0.0195,0.0402 0.0201,0.0543 0.0201,0.57066 l 0,0.52949 -0.5469,0 -0.54691,0 0,-0.52949 z"
       id="path10030"
       inkscape:connector-curvature="0" />
    <path
       style="fill:#ffffff"
       d="m 375.15102,344.96589 c 0,-0.25379 0.002,-0.26652 0.0644,-0.32237 0.0536,-0.0482 0.0969,-0.0611 0.20421,-0.0607 0.10207,3.7e-4 0.15559,0.018 0.20523,0.0679 0.0505,0.0506 0.0539,0.0698 0.0539,0.31532 l 0,0.22579 -0.26386,0 -0.26385,0 0,-0.22579 z"
       id="path10028"
       inkscape:connector-curvature="0" />
    <path
       style="fill:#ffffff"
       d="m 376.61904,344.97699 c 0,-0.11802 0.004,-0.22799 0.005,-0.24425 0.009,-0.0408 0.0625,-0.10153 0.11341,-0.12599 0.0895,-0.0434 0.24113,-0.0346 0.32529,0.0188 0.0787,0.0499 0.0832,0.0682 0.0832,0.3355 l 0,0.23065 -0.26385,0 -0.26387,0 0,-0.21468 z"
       id="path10026"
       inkscape:connector-curvature="0" />
    <path
       style="fill:#ffffff"
       d="m 378.08712,344.9782 c 10e-6,-0.11944 0.005,-0.22949 0.0106,-0.24975 0.0142,-0.0484 0.0569,-0.096 0.11233,-0.12297 0.0381,-0.0186 0.0611,-0.0223 0.1421,-0.0227 0.089,-3.5e-4 0.10101,0.002 0.1531,0.0285 0.0377,0.0193 0.0663,0.0427 0.0857,0.0703 l 0.0292,0.0415 0.004,0.23427 0.004,0.23426 -0.26941,0 -0.2694,0 5e-5,-0.21347 z"
       id="path10024"
       inkscape:connector-curvature="0" />
    <path
       style="fill:#ffffff"
       d="m 379.55661,344.9574 0.004,-0.23427 0.0293,-0.0415 c 0.0195,-0.0276 0.0478,-0.051 0.0857,-0.0703 0.0522,-0.0267 0.0639,-0.029 0.15308,-0.0281 0.10473,8.9e-4 0.14212,0.0124 0.19756,0.0585 0.0611,0.0514 0.0665,0.0778 0.0668,0.32698 l 2.3e-4,0.22308 -0.26953,0 -0.26953,0 0.004,-0.23426 z"
       id="path10022"
       inkscape:connector-curvature="0" />
    <path
       style="fill:#ffffff"
       d="m 381.0327,344.95848 0,-0.2332 0.0278,-0.0439 c 0.0208,-0.0328 0.042,-0.0508 0.084,-0.0713 0.0507,-0.0248 0.0654,-0.0274 0.15205,-0.027 0.10648,4.4e-4 0.14245,0.0106 0.19871,0.0607 0.0622,0.0548 0.0653,0.0689 0.0653,0.32163 l 0,0.2264 -0.26386,0 -0.26385,0 0,-0.23318 z"
       id="path10020"
       inkscape:connector-curvature="0" />
    <path
       style="fill:#ffffff"
       d="m 382.50071,344.96589 c 0,-0.25379 0.002,-0.26652 0.0645,-0.32237 0.0534,-0.0482 0.0969,-0.0611 0.20421,-0.0607 0.10206,3.7e-4 0.15557,0.018 0.20525,0.0679 0.0505,0.0506 0.0539,0.07 0.0539,0.31532 l 0,0.22579 -0.26387,0 -0.26386,0 0,-0.22579 z"
       id="path10018"
       inkscape:connector-curvature="0" />
    <path
       style="fill:#ffffff"
       d="m 383.96872,344.96523 c 0,-0.25278 0.004,-0.26696 0.0653,-0.32162 0.0461,-0.0407 0.0884,-0.0567 0.16408,-0.0631 0.12547,-0.0106 0.24012,0.0352 0.27892,0.11127 0.0182,0.0356 0.0197,0.0557 0.0197,0.26915 l 0,0.23066 -0.26386,0 -0.26389,0 0,-0.22643 z"
       id="path10016"
       inkscape:connector-curvature="0" />
    <path
       style="fill:#ffffff"
       d="m 385.43679,344.97817 c 0,-0.11943 0.005,-0.22948 0.0106,-0.24974 0.0142,-0.0486 0.0569,-0.096 0.11233,-0.12315 0.0381,-0.0186 0.0611,-0.0223 0.14212,-0.0225 0.0889,-3.6e-4 0.10117,0.002 0.1531,0.0285 0.0377,0.0193 0.0663,0.0427 0.0857,0.0703 l 0.0293,0.0415 0.004,0.23426 0.004,0.23426 -0.2694,0 -0.26943,0 6e-5,-0.21347 z"
       id="path9750"
       inkscape:connector-curvature="0" />
    <path
       style="fill:#000000"
       d=""
       id="path9748"
       inkscape:connector-curvature="0" />
    <path
       style="fill:#ffffff"
       d=""
       id="path11893"
       inkscape:connector-curvature="0" />
    <path
       style="fill:#ffffff"
       d=""
       id="path11891"
       inkscape:connector-curvature="0" />
    <path
       inkscape:connector-curvature="0"
       style="fill:#ffffff"
       d="m 376.08107,349.15204 c -0.051,-0.0124 -0.13981,-0.0522 -0.18416,-0.083 -0.0447,-0.0309 -0.11235,-0.10153 -0.1469,-0.15362 -0.1157,-0.17418 -0.11818,-0.42608 -0.005,-0.61515 0.0363,-0.0611 0.12651,-0.14812 0.19156,-0.18484 0.0303,-0.0177 0.0852,-0.0398 0.12173,-0.0506 0.0891,-0.0262 0.22767,-0.0281 0.31694,-0.004 0.23451,0.0627 0.39461,0.26024 0.40953,0.50524 0.005,0.0868 -0.005,0.16496 -0.0354,0.24597 -0.029,0.0796 -0.0714,0.14211 -0.14051,0.20705 -0.0675,0.0634 -0.16248,0.11447 -0.2486,0.13325 -0.0663,0.0142 -0.2183,0.0142 -0.27801,6e-5 z"
       id="path10128-6" />
  </g>
</svg>
