<?xml version="1.0" encoding="UTF-8" standalone="no"?>
<!-- Created with Inkscape (http://www.inkscape.org/) -->

<svg
   xmlns:dc="http://purl.org/dc/elements/1.1/"
   xmlns:cc="http://creativecommons.org/ns#"
   xmlns:rdf="http://www.w3.org/1999/02/22-rdf-syntax-ns#"
   xmlns:svg="http://www.w3.org/2000/svg"
   xmlns="http://www.w3.org/2000/svg"
   xmlns:sodipodi="http://sodipodi.sourceforge.net/DTD/sodipodi-0.dtd"
   xmlns:inkscape="http://www.inkscape.org/namespaces/inkscape"
   width="10.000021mm"
   height="10.50807mm"
   viewBox="0 0 35.433146 37.233318"
   id="svg10209"
   version="1.1"
   inkscape:version="0.91 r"
   sodipodi:docname="logo.svg">
  <defs
     id="defs10211">
    <clipPath
       clipPathUnits="userSpaceOnUse"
       id="clipPath9043">
      <rect
         style="opacity:1;fill:#00ff00;fill-opacity:0.52791874;stroke:none;stroke-width:3.76324582;stroke-opacity:1"
         id="rect9045"
         width="332.14285"
         height="305.90634"
         x="201.42857"
         y="329.50507"
         rx="3.692188" />
    </clipPath>
    <clipPath
       clipPathUnits="userSpaceOnUse"
       id="clipPath9043-3">
      <rect
         style="opacity:1;fill:#00ff00;fill-opacity:0.52791874;stroke:none;stroke-width:3.76324582;stroke-opacity:1"
         id="rect9045-6"
         width="332.14285"
         height="305.90634"
         x="201.42857"
         y="329.50507"
         rx="3.692188" />
    </clipPath>
    <inkscape:path-effect
       effect="spiro"
       id="path-effect4162-8"
       is_visible="true" />
    <inkscape:path-effect
       effect="spiro"
       id="path-effect4162"
       is_visible="true" />
    <inkscape:path-effect
       effect="spiro"
       id="path-effect4162-3"
       is_visible="true" />
    <inkscape:path-effect
       effect="spiro"
       id="path-effect4162-8-3"
       is_visible="true" />
    <clipPath
       clipPathUnits="userSpaceOnUse"
       id="clipPath9043-3-7">
      <rect
         style="opacity:1;fill:#00ff00;fill-opacity:0.52791874;stroke:none;stroke-width:3.76324582;stroke-opacity:1"
         id="rect9045-6-5"
         width="332.14285"
         height="305.90634"
         x="201.42857"
         y="329.50507"
         rx="3.692188" />
    </clipPath>
    <inkscape:path-effect
       effect="spiro"
       id="path-effect4162-8-35"
       is_visible="true" />
    <inkscape:path-effect
       effect="spiro"
       id="path-effect4162-6"
       is_visible="true" />
    <inkscape:path-effect
       effect="spiro"
       id="path-effect4162-3-2"
       is_visible="true" />
    <inkscape:path-effect
       effect="spiro"
       id="path-effect4162-8-3-9"
       is_visible="true" />
  </defs>
  <sodipodi:namedview
     id="base"
     pagecolor="#ffffff"
     bordercolor="#666666"
     borderopacity="1.0"
     inkscape:pageopacity="0.0"
     inkscape:pageshadow="2"
     inkscape:zoom="5.6"
     inkscape:cx="63.259375"
     inkscape:cy="28.39839"
     inkscape:document-units="px"
     inkscape:current-layer="layer1"
     showgrid="false"
     showguides="false"
     inkscape:window-width="1366"
     inkscape:window-height="754"
     inkscape:window-x="0"
     inkscape:window-y="14"
     inkscape:window-maximized="0"
     fit-margin-top="0"
     fit-margin-left="0"
     fit-margin-right="0"
     fit-margin-bottom="0" />
  <metadata
     id="metadata10214">
    <rdf:RDF>
      <cc:Work
         rdf:about="">
        <dc:format>image/svg+xml</dc:format>
        <dc:type
           rdf:resource="http://purl.org/dc/dcmitype/StillImage" />
        <dc:title></dc:title>
      </cc:Work>
    </rdf:RDF>
  </metadata>
  <g
     inkscape:groupmode="layer"
     id="layer5"
     inkscape:label="Background"
     style="display:inline"
     transform="translate(-372.43713,-328.52093)"
     sodipodi:insensitive="true">
    <rect
       style="fill:#000000;fill-opacity:1;stroke:none;stroke-width:0.37795275;stroke-miterlimit:4;stroke-dasharray:none"
       id="rect11721"
       width="124.55739"
       height="47.607742"
       x="368.22415"
       y="323.35208" />
  </g>
  <g
     inkscape:label="SilkS"
     inkscape:groupmode="layer"
     id="layer1"
     transform="translate(-372.43713,-328.52093)">
    <path
       style="fill:#ffffff"
       d="m 388.51666,347.09777 c -0.018,0 -0.11981,0.0954 -0.36271,0.33827 l -0.33859,0.33844 0,4.14198 0,4.14196 -0.0692,-0.0642 -0.0692,-0.064 -0.001,-4.05213 -0.001,-4.05216 -6.04632,-0.008 c -3.32551,-0.004 -6.06337,-0.006 -6.08421,-0.004 l -0.038,0.004 -0.002,6.09505 -0.002,6.09505 4.61247,0 4.61265,0 0.006,0.0406 c 0.004,0.0224 0.006,0.0492 0.006,0.0596 10e-5,0.018 -0.2279,0.018 -4.63919,0.018 l -4.63935,0 -0.32937,0.33081 c -0.2248,0.22578 -0.33043,0.33915 -0.33277,0.35737 l -0.004,0.0268 4.98022,0.002 4.98036,0.002 0.0452,1.63553 c 0.025,0.89951 0.0456,1.66958 0.0462,1.71126 l 0.001,0.0758 0.28957,0.11122 c 0.15922,0.0612 0.30453,0.11101 0.32273,0.11101 0.0296,-1.8e-4 0.12641,-0.0978 0.93017,-0.93747 0.49342,-0.51545 0.89822,-0.93589 0.89958,-0.93421 0.001,0.002 0.23288,0.52707 0.51453,1.16745 0.28164,0.64038 0.57851,1.31489 0.6597,1.49892 l 0.14781,0.33455 0.16222,0.0574 c 0.0936,0.0332 0.18282,0.058 0.2109,0.0588 0.0268,5.7e-4 0.0584,0.006 0.0704,0.012 0.0206,0.01 0.0374,0.008 0.13262,-0.006 0.0232,-0.004 0.56129,-0.28018 1.24933,-0.64174 l 1.20873,-0.63528 0.0666,-0.22788 c 0.0366,-0.12541 0.0666,-0.24432 0.0666,-0.2643 0,-0.028 -0.17262,-0.34371 -0.75471,-1.38045 -0.41514,-0.73925 -0.76458,-1.36061 -0.77641,-1.38077 l -0.0216,-0.0366 0.0912,0.006 c 1.05282,0.0806 1.87686,0.13702 1.88396,0.12921 0.004,-0.004 0.0548,-0.1126 0.1122,-0.23953 0.0658,-0.14582 0.10422,-0.24437 0.10422,-0.26755 0,-0.0202 0.006,-0.0494 0.012,-0.065 0.01,-0.022 0.01,-0.0332 0,-0.0492 -0.008,-0.012 -0.014,-0.0292 -0.014,-0.0398 -1.8e-4,-0.01 -0.50084,-0.51517 -1.14237,-1.15093 l -1.14202,-1.13183 0.23534,-0.006 c 0.25515,-0.006 0.27031,-0.01 0.32871,-0.0722 0.0592,-0.0636 0.069,-0.0966 0.069,-0.23112 0,-0.10741 -0.004,-0.13062 -0.0236,-0.16902 -0.0306,-0.0574 -0.0894,-0.10841 -0.14122,-0.12281 -0.0228,-0.006 -0.14721,-0.012 -0.28194,-0.012 l -0.241,-1.5e-4 0,0.27758 c 0,0.24074 -0.002,0.27573 -0.016,0.26446 -0.012,-0.01 -0.016,-0.0696 -0.018,-0.32889 -0.004,-0.30774 -0.004,-0.31734 -0.0288,-0.36481 -0.0326,-0.0624 -0.0828,-0.11541 -0.13382,-0.14181 -0.0368,-0.02 -0.0662,-0.0206 -0.36029,-0.0206 l -0.32013,0 -0.21382,-0.2109 -0.21364,-0.21089 0.53007,-3.3e-4 c 0.51329,-3.3e-4 0.53139,-0.001 0.57619,-0.0228 0.0554,-0.0268 0.10701,-0.0828 0.13821,-0.15021 0.022,-0.0472 0.0228,-0.0654 0.0228,-0.45013 l 0,-0.40073 -0.0366,-0.0674 c -0.0202,-0.0372 -0.054,-0.0806 -0.0752,-0.0968 -0.0726,-0.0554 -0.101,-0.0578 -0.71376,-0.0578 l -0.56617,0 0,0.56018 0,0.56001 -0.0542,-0.0532 -0.054,-0.0534 0,-4.84457 0,-4.84441 -0.0244,0 z m -11.81475,1.36037 c 0.0834,-0.001 0.16682,0.006 0.2321,0.0244 0.34333,0.0918 0.57781,0.38113 0.59965,0.73983 0.008,0.12701 -0.008,0.24148 -0.052,0.36013 -0.0424,0.11641 -0.10461,0.20796 -0.20572,0.30315 -0.0988,0.093 -0.23788,0.16741 -0.36386,0.19502 -0.097,0.0212 -0.31961,0.0214 -0.40705,1.6e-4 -0.0748,-0.018 -0.20464,-0.0766 -0.26965,-0.12162 -0.0654,-0.0452 -0.16461,-0.14881 -0.21526,-0.22495 -0.16942,-0.25501 -0.17302,-0.62377 -0.008,-0.90055 0.0532,-0.0896 0.18521,-0.21694 0.28048,-0.27062 0.0444,-0.025 0.12461,-0.0584 0.17822,-0.0742 0.0652,-0.02 0.14861,-0.0296 0.23194,-0.0308 z m 8.63742,6.55989 c 0.002,-0.002 2.17582,2.15286 4.44545,4.40725 0.45472,0.45168 0.82196,0.82107 0.81606,0.82107 -0.006,0 -0.27561,-0.02 -0.59934,-0.0434 -0.32373,-0.024 -0.65216,-0.0466 -0.72979,-0.0504 l -0.14121,-0.006 -0.14001,0.22094 c -0.0794,0.12541 -0.14161,0.23484 -0.14381,0.25328 -0.002,0.0264 0.14041,0.28859 0.76023,1.39145 0.51962,0.92453 0.7597,1.36127 0.75066,1.36605 -0.008,0.004 -0.30096,0.15802 -0.65242,0.34263 -0.35147,0.18462 -0.70962,0.37254 -0.79599,0.41774 l -0.15701,0.0822 -0.62152,-1.41233 c -0.57392,-1.30416 -0.62364,-1.41276 -0.64984,-1.41816 -0.11141,-0.023 -0.467,-0.0818 -0.49431,-0.0818 -0.0304,0 -0.10141,0.0708 -0.73156,0.72963 -0.38386,0.40127 -0.69981,0.72806 -0.70211,0.72606 -0.004,-0.004 -0.21782,-7.74117 -0.21366,-7.74546 z"
       id="path10134"
       inkscape:connector-curvature="0" />
    <path
       style="fill:#ffffff"
       d="m 375.53,363.06873 c -0.0546,-0.014 -0.11581,-0.0578 -0.15322,-0.1078 -0.021,-0.028 -0.0226,-0.0468 -0.0256,-0.29996 l -0.004,-0.27 0.29836,0 0.29839,0 0,0.26118 c 0,0.24817 -0.001,0.26327 -0.0236,0.30311 -0.0594,0.10561 -0.23313,0.15602 -0.39112,0.11341 z"
       id="path10126"
       inkscape:connector-curvature="0" />
    <path
       style="fill:#ffffff"
       d="m 377.20648,363.07425 c -0.0914,-0.0254 -0.14982,-0.0696 -0.18002,-0.13581 -0.018,-0.0384 -0.02,-0.0748 -0.0202,-0.29558 l -2.6e-4,-0.25183 0.29837,0 0.29839,0 -0.004,0.27435 -0.004,0.27436 -0.0296,0.039 c -0.0462,0.0606 -0.13081,0.0964 -0.2382,0.10101 -0.0492,0.002 -0.10421,-2.6e-4 -0.12201,-0.006 z"
       id="path10124"
       inkscape:connector-curvature="0" />
    <path
       style="fill:#ffffff"
       d="m 378.84057,363.06487 c -0.0764,-0.0272 -0.10741,-0.0496 -0.14222,-0.10201 l -0.0298,-0.045 -0.004,-0.26347 -0.004,-0.26348 0.30464,0 0.30467,0 -0.004,0.26446 -0.004,0.26445 -0.0324,0.047 c -0.0484,0.07 -0.13421,0.10941 -0.24777,0.11421 -0.0652,0.002 -0.1024,-0.002 -0.14361,-0.016 z"
       id="path10122"
       inkscape:connector-curvature="0" />
    <path
       style="fill:#ffffff"
       d="m 380.51178,363.06932 c -0.0678,-0.02 -0.13521,-0.0674 -0.16041,-0.11502 -0.018,-0.0338 -0.02,-0.0654 -0.02,-0.30054 l 0,-0.26283 0.29784,0 0.29785,0 -2.4e-4,0.25182 c -2.6e-4,0.22087 -0.002,0.25721 -0.0202,0.29559 -0.0226,0.0496 -0.072,0.0952 -0.12982,0.12001 -0.0542,0.0232 -0.19981,0.0292 -0.2649,0.01 z"
       id="path10120"
       inkscape:connector-curvature="0" />
    <path
       style="fill:#ffffff"
       d="m 382.1704,363.06973 c -0.0672,-0.02 -0.11981,-0.0562 -0.15402,-0.10921 l -0.028,-0.0432 0,-0.2632 0,-0.26318 0.29784,0 0.29785,0 0,0.25488 c 0,0.19282 -0.004,0.26336 -0.014,0.28972 -0.02,0.046 -0.0774,0.0998 -0.13121,0.12221 -0.0572,0.0238 -0.20218,0.0304 -0.26742,0.012 z"
       id="path10118"
       inkscape:connector-curvature="0" />
    <path
       style="fill:#ffffff"
       d="m 383.82649,363.06877 c -0.0546,-0.014 -0.11581,-0.0578 -0.15321,-0.10781 -0.021,-0.028 -0.0226,-0.0468 -0.0256,-0.29992 l -0.004,-0.27001 0.29837,0 0.29839,0 0,0.26318 0,0.26321 -0.028,0.0432 c -0.016,0.0238 -0.0448,0.0548 -0.0654,0.0688 -0.075,0.0514 -0.21332,0.0684 -0.3212,0.0394 z"
       id="path10116"
       inkscape:connector-curvature="0" />
    <path
       style="fill:#ffffff"
       d="m 375.25239,362.34129 c -0.10921,-0.0294 -0.19401,-0.10561 -0.21638,-0.19402 -0.008,-0.0316 -0.012,-0.23886 -0.012,-0.62216 l 0,-0.57465 0.62278,0 0.62278,0 -2.5e-4,0.59299 c -2.6e-4,0.67444 0.004,0.6419 -0.0918,0.72615 -0.093,0.0818 -0.13602,0.089 -0.52911,0.0882 -0.2595,-5.7e-4 -0.35088,-0.004 -0.39602,-0.016 z"
       id="path10114"
       inkscape:connector-curvature="0" />
    <path
       style="fill:#ffffff"
       d="m 376.92743,362.34703 c -0.0958,-0.0234 -0.17822,-0.0822 -0.21474,-0.15322 -0.02,-0.0382 -0.0206,-0.071 -0.0206,-0.64174 l 0,-0.60153 0.61738,0 0.61735,0 0,0.59357 0,0.59357 -0.0282,0.0566 c -0.031,0.0622 -0.0698,0.0966 -0.15102,0.13422 -0.052,0.024 -0.0636,0.0248 -0.41638,0.0266 -0.19961,0.001 -0.38119,-0.002 -0.40361,-0.008 z"
       id="path10112"
       inkscape:connector-curvature="0" />
    <path
       style="fill:#ffffff"
       d="m 378.58104,362.34655 c -0.067,-0.016 -0.15661,-0.0744 -0.19362,-0.12702 l -0.033,-0.047 -0.002,-0.61104 -0.002,-0.61101 0.61763,0 0.61762,0 0,0.59769 c 0,0.58303 -5.7e-4,0.59884 -0.0226,0.64418 -0.0272,0.0564 -0.0716,0.0954 -0.15081,0.13262 l -0.0596,0.028 -0.36283,0.002 c -0.19962,0.001 -0.38278,-0.002 -0.40714,-0.008 z"
       id="path10110"
       inkscape:connector-curvature="0" />
    <path
       style="fill:#ffffff"
       d="m 380.2415,362.34703 c -0.0946,-0.023 -0.17042,-0.0792 -0.20762,-0.15402 l -0.0276,-0.0554 0,-0.59357 0,-0.59358 0.6233,0 0.62328,0 -0.004,0.5984 c -0.004,0.58937 -0.004,0.59908 -0.0266,0.64174 -0.0324,0.06 -0.0738,0.0964 -0.15002,0.13201 l -0.065,0.0304 -0.36283,0.002 c -0.19962,0.001 -0.38128,-0.002 -0.4038,-0.008 z"
       id="path10108"
       inkscape:connector-curvature="0" />
    <path
       style="fill:#ffffff"
       d="m 381.87097,362.33592 c -0.086,-0.0276 -0.17742,-0.1108 -0.19562,-0.17781 -0.008,-0.0288 -0.012,-0.23898 -0.012,-0.6255 l -6e-5,-0.58215 0.62277,0 0.62278,0 0,0.57465 c 0,0.40582 -0.004,0.58957 -0.012,0.62544 -0.016,0.0664 -0.10081,0.15242 -0.17682,0.18121 -0.0484,0.018 -0.0922,0.0208 -0.4169,0.0232 -0.33989,0.002 -0.36717,0.002 -0.43146,-0.02 z"
       id="path10106"
       inkscape:connector-curvature="0" />
    <path
       style="fill:#ffffff"
       d="m 383.54886,362.34132 c -0.10901,-0.0294 -0.19401,-0.1056 -0.21635,-0.19401 -0.008,-0.0316 -0.012,-0.23885 -0.012,-0.62214 l 0,-0.57465 0.62278,0 0.62278,0 -8e-5,0.58215 c 0,0.38652 -0.004,0.59673 -0.012,0.6255 -0.018,0.0692 -0.10961,0.15021 -0.19942,0.17802 -0.067,0.0208 -0.0982,0.0224 -0.40986,0.0218 -0.2595,-5.7e-4 -0.35087,-0.004 -0.39602,-0.016 z"
       id="path10104"
       inkscape:connector-curvature="0" />
    <path
       style="fill:#ffffff"
       d="m 374.67746,353.91113 0,-6.81336 0.0244,0 c 0.018,0 0.11741,0.093 0.35741,0.33311 l 0.33299,0.33311 0,6.14837 0,6.14835 -0.33099,0.32848 c -0.22296,0.22124 -0.33963,0.32956 -0.35743,0.33188 l -0.0264,0.004 0,-6.81335 z"
       id="path10102"
       inkscape:connector-curvature="0" />
    <path
       style="fill:#ffffff"
       d="m 373.36188,360.17877 c -0.0282,-0.008 -0.0624,-0.0308 -0.0994,-0.0678 -0.0464,-0.0464 -0.0606,-0.07 -0.0796,-0.13241 -0.022,-0.0722 -0.023,-0.0942 -0.02,-0.43741 l 0.004,-0.36139 0.028,-0.0596 c 0.0334,-0.071 0.0854,-0.12582 0.14501,-0.15302 0.0404,-0.018 0.0856,-0.02 0.63114,-0.02 l 0.58758,-2.6e-4 0,0.62278 0,0.62278 -0.57676,-0.001 c -0.36347,-5.6e-4 -0.59261,-0.006 -0.61969,-0.012 z"
       id="path10100"
       inkscape:connector-curvature="0" />
    <path
       style="fill:#ffffff"
       d="m 372.58149,359.85232 c -0.0398,-0.018 -0.0994,-0.0832 -0.12242,-0.13581 -0.012,-0.0264 -0.018,-0.0728 -0.018,-0.14702 -4e-4,-0.0978 0.002,-0.11441 0.0306,-0.17162 0.0232,-0.0474 0.0436,-0.0712 0.0806,-0.0948 l 0.0496,-0.0314 0.26324,0 0.26323,0 0,0.29784 0,0.29786 -0.25722,-4.3e-4 c -0.18802,-3.1e-4 -0.26604,-0.004 -0.28993,-0.014 z"
       id="path10098"
       inkscape:connector-curvature="0" />
    <path
       style="fill:#ffffff"
       d="m 373.339,358.50903 c -0.0576,-0.025 -0.10861,-0.079 -0.14102,-0.14962 l -0.0314,-0.068 0,-0.38449 0,-0.3845 0.028,-0.0596 c 0.0372,-0.0792 0.0762,-0.12341 0.13261,-0.15081 0.0454,-0.022 0.0612,-0.0226 0.63878,-0.0226 l 0.59227,0 0,0.61736 0,0.61737 -0.593,-4.2e-4 c -0.47112,-3.3e-4 -0.59983,-0.004 -0.62633,-0.014 z"
       id="path10096"
       inkscape:connector-curvature="0" />
    <path
       style="fill:#ffffff"
       d="m 372.59419,358.19448 c -0.0544,-0.02 -0.0894,-0.053 -0.12422,-0.11961 -0.025,-0.0478 -0.0284,-0.067 -0.0286,-0.16322 -3.4e-4,-0.1002 0.002,-0.11421 0.0322,-0.17281 0.0218,-0.0426 0.0482,-0.0748 0.0794,-0.0968 l 0.0468,-0.033 0.26441,-0.004 0.26445,-0.004 0,0.30427 0,0.30424 -0.2464,-5e-4 c -0.18022,-3.4e-4 -0.25758,-0.004 -0.28805,-0.016 z"
       id="path10094"
       inkscape:connector-curvature="0" />
    <path
       style="fill:#ffffff"
       d="m 373.32153,356.8398 c -0.0568,-0.0296 -0.0938,-0.0726 -0.13021,-0.15182 -0.0238,-0.0518 -0.0248,-0.0652 -0.028,-0.41496 -0.004,-0.33725 -0.002,-0.36619 0.018,-0.43348 0.0254,-0.0836 0.0788,-0.15261 0.14582,-0.18842 0.0446,-0.0238 0.0494,-0.024 0.63785,-0.0272 l 0.593,-0.004 0,0.6233 0,0.62329 -0.593,-5e-4 -0.59299,-5e-4 -0.0508,-0.0264 z"
       id="path10092"
       inkscape:connector-curvature="0" />
    <path
       style="fill:#ffffff"
       d="m 390.07903,356.39612 0,-0.29785 0.25652,0 c 0.23842,0 0.25984,0.002 0.30349,0.0228 0.0494,0.024 0.0986,0.0848 0.12061,0.14941 0.0206,0.0606 0.016,0.20834 -0.01,0.27473 -0.0212,0.0566 -0.0684,0.11241 -0.11581,0.13661 -0.016,0.008 -0.11461,0.012 -0.28972,0.012 l -0.26607,0 0,-0.29784 z"
       id="path10090"
       inkscape:connector-curvature="0" />
    <path
       style="fill:#ffffff"
       d="m 372.56674,356.52381 c -0.0848,-0.0418 -0.13801,-0.16882 -0.12821,-0.30587 0.01,-0.12881 0.0564,-0.21182 0.14262,-0.25096 0.0384,-0.018 0.0748,-0.02 0.2956,-0.02 l 0.25181,-2.5e-4 0,0.29784 0,0.29785 -0.26265,-2.4e-4 c -0.2228,-1.6e-4 -0.2682,-0.002 -0.29925,-0.018 z"
       id="path10088"
       inkscape:connector-curvature="0" />
    <path
       style="fill:#ffffff"
       d="m 388.64936,354.73932 0,-0.62311 0.58903,0 0.58906,0 0.058,0.0302 c 0.069,0.036 0.12181,0.10102 0.14462,0.17802 0.0238,0.0798 0.0242,0.74755 5.6e-4,0.82696 -0.0214,0.072 -0.073,0.13941 -0.13401,0.17542 l -0.0504,0.0296 -0.59841,0.004 -0.5984,0.004 0,-0.62314 z"
       id="path10086"
       inkscape:connector-curvature="0" />
    <path
       style="fill:#ffffff"
       d="m 373.35185,355.19415 c -0.0564,-0.0202 -0.1296,-0.094 -0.16041,-0.16162 -0.0242,-0.0534 -0.025,-0.0666 -0.0286,-0.40724 -0.004,-0.43952 0.002,-0.47624 0.098,-0.58067 0.074,-0.0804 0.071,-0.08 0.72535,-0.08 l 0.57207,0 0,0.62278 0,0.62277 -0.58217,-5e-4 c -0.46796,-4.2e-4 -0.59041,-0.004 -0.6243,-0.016 z"
       id="path10084"
       inkscape:connector-curvature="0" />
    <path
       style="fill:#ffffff"
       d="m 390.07903,354.73898 0,-0.29785 0.26036,0 c 0.2386,0 0.26393,0.002 0.30265,0.0216 0.0866,0.0442 0.13021,0.13661 0.13021,0.27629 0,0.13981 -0.0434,0.23208 -0.13021,0.27628 -0.0388,0.02 -0.064,0.0216 -0.30265,0.0216 l -0.26036,0 0,-0.29784 z"
       id="path10082"
       inkscape:connector-curvature="0" />
    <path
       style="fill:#ffffff"
       d="m 372.56316,354.86069 c -0.0892,-0.054 -0.13421,-0.16241 -0.12481,-0.30013 0.006,-0.096 0.0282,-0.15421 0.0762,-0.20471 0.06,-0.063 0.0778,-0.0664 0.35923,-0.0664 l 0.25487,0 0,0.29784 0,0.29786 -0.26265,-7e-5 c -0.25302,-4e-5 -0.26412,-0.001 -0.30282,-0.0244 z"
       id="path10080"
       inkscape:connector-curvature="0" />
    <path
       style="fill:#ffffff"
       d="m 388.64936,353.08222 0,-0.62321 0.59227,0 c 0.57846,0 0.59337,5e-4 0.639,0.0226 0.0602,0.0292 0.11661,0.0956 0.14461,0.17042 0.0212,0.0566 0.0222,0.0782 0.02,0.44492 l -0.004,0.38545 -0.0294,0.0556 c -0.016,0.0306 -0.0452,0.0714 -0.0646,0.091 -0.072,0.072 -0.0504,0.0698 -0.70482,0.0732 l -0.593,0.004 0,-0.6232 z"
       id="path10078"
       inkscape:connector-curvature="0" />
    <path
       style="fill:#ffffff"
       d="m 373.36188,353.53935 c -0.0282,-0.008 -0.0624,-0.0308 -0.0994,-0.0678 -0.0464,-0.0464 -0.0606,-0.07 -0.0796,-0.13241 -0.022,-0.0722 -0.023,-0.0942 -0.02,-0.43742 l 0.004,-0.36139 0.028,-0.0596 c 0.0334,-0.071 0.0854,-0.12581 0.14501,-0.15301 0.0404,-0.018 0.0856,-0.02 0.63114,-0.02 l 0.58758,-2.6e-4 0,0.62278 0,0.62279 -0.57676,-0.001 c -0.36347,-5.6e-4 -0.59261,-0.006 -0.61969,-0.012 z"
       id="path10076"
       inkscape:connector-curvature="0" />
    <path
       style="fill:#ffffff"
       d="m 390.07903,353.08231 0,-0.29837 0.2659,0 c 0.28791,0 0.29757,0.002 0.35293,0.0612 0.054,0.0582 0.0676,0.099 0.0724,0.21808 0.004,0.1078 0.004,0.1138 -0.0302,0.18181 -0.025,0.0506 -0.047,0.0786 -0.079,0.0996 l -0.0444,0.0294 -0.26888,0.004 -0.26889,0.004 0,-0.29837 z"
       id="path10074"
       inkscape:connector-curvature="0" />
    <path
       style="fill:#ffffff"
       d="m 372.58149,353.21292 c -0.0398,-0.018 -0.0994,-0.0832 -0.12242,-0.13581 -0.012,-0.0264 -0.018,-0.0728 -0.018,-0.14701 -4e-4,-0.0978 0.002,-0.11442 0.0306,-0.17162 0.0232,-0.0474 0.0436,-0.0714 0.0806,-0.0948 l 0.0496,-0.0314 0.26324,0 0.26323,0 0,0.29785 0,0.29785 -0.25722,-4.2e-4 c -0.18802,-3.2e-4 -0.26604,-0.004 -0.28993,-0.014 z"
       id="path10072"
       inkscape:connector-curvature="0" />
    <path
       style="fill:#ffffff"
       d="m 388.64936,351.41923 0,-0.61736 0.59611,0 c 0.56581,0 0.5982,0.001 0.63632,0.0208 0.051,0.0262 0.10121,0.0794 0.13381,0.14181 0.0252,0.0482 0.0256,0.0532 0.0288,0.43418 0.004,0.37298 0.002,0.3875 -0.0202,0.44821 -0.0272,0.0724 -0.0828,0.13901 -0.14161,0.16901 -0.039,0.02 -0.0698,0.0208 -0.63706,0.0208 l -0.59612,0 0,-0.61738 z"
       id="path10070"
       inkscape:connector-curvature="0" />
    <path
       style="fill:#ffffff"
       d="m 373.339,351.86961 c -0.0576,-0.025 -0.10861,-0.079 -0.14102,-0.14961 l -0.0314,-0.068 0,-0.38451 0,-0.3845 0.028,-0.0596 c 0.0372,-0.0792 0.0762,-0.12341 0.13261,-0.15081 0.0454,-0.022 0.0612,-0.0226 0.63878,-0.0226 l 0.59227,0 0,0.61736 0,0.61738 -0.593,-4.2e-4 c -0.47112,-3.4e-4 -0.59983,-0.004 -0.62633,-0.014 z"
       id="path10068"
       inkscape:connector-curvature="0" />
    <path
       style="fill:#ffffff"
       d="m 390.07903,351.41923 0,-0.30324 0.24098,5e-5 c 0.13482,3e-5 0.25903,0.006 0.28191,0.012 0.0516,0.014 0.11041,0.0656 0.14121,0.12281 0.0204,0.0382 0.0238,0.0614 0.0238,0.16901 0,0.10741 -0.004,0.13061 -0.0238,0.16882 -0.0306,0.0574 -0.0894,0.10861 -0.14121,0.12281 -0.0228,0.006 -0.14722,0.012 -0.28191,0.012 l -0.24098,6e-5 0,-0.30327 z"
       id="path10066"
       inkscape:connector-curvature="0" />
    <path
       style="fill:#ffffff"
       d="m 372.59419,351.55507 c -0.0544,-0.02 -0.0894,-0.053 -0.12422,-0.11961 -0.025,-0.0478 -0.0284,-0.067 -0.0286,-0.16322 -3.4e-4,-0.10021 0.002,-0.11421 0.0322,-0.17281 0.0218,-0.0426 0.0482,-0.0748 0.0794,-0.0968 l 0.0468,-0.033 0.26441,-0.004 0.26445,-0.004 0,0.30425 0,0.30425 -0.2464,-4.8e-4 c -0.18022,-3.5e-4 -0.25758,-0.004 -0.28805,-0.016 z"
       id="path10064"
       inkscape:connector-curvature="0" />
    <path
       style="fill:#ffffff"
       d="m 388.64936,349.7567 0,-0.62278 0.56625,0 c 0.61281,0 0.64114,0.002 0.71376,0.0576 0.0212,0.016 0.055,0.0598 0.0752,0.097 l 0.0366,0.0674 0,0.40076 c 0,0.38462 -0.001,0.40272 -0.0228,0.45002 -0.0312,0.0674 -0.0828,0.12361 -0.13821,0.15041 -0.045,0.0218 -0.062,0.0224 -0.63853,0.0224 l -0.59228,0 0,-0.62278 z"
       id="path10062"
       inkscape:connector-curvature="0" />
    <path
       style="fill:#ffffff"
       d="m 373.32964,350.20568 c -0.0622,-0.031 -0.0894,-0.0606 -0.12842,-0.13961 l -0.0348,-0.0706 -0.004,-0.36165 c -0.004,-0.33753 -0.002,-0.36648 0.018,-0.43376 0.0252,-0.0828 0.0794,-0.15341 0.14261,-0.18562 0.04,-0.0204 0.0666,-0.0212 0.63786,-0.0212 l 0.59614,0 0,0.61737 0,0.61736 -0.593,-4.2e-4 c -0.56753,-4.2e-4 -0.59483,-0.001 -0.6357,-0.0218 z"
       id="path10060"
       inkscape:connector-curvature="0" />
    <path
       style="fill:#ffffff"
       d="m 390.07903,349.7567 0,-0.29785 0.25652,0 c 0.23842,0 0.25984,0.002 0.30349,0.0228 0.0494,0.024 0.0986,0.0848 0.12061,0.14942 0.0206,0.0606 0.016,0.20835 -0.01,0.27472 -0.0212,0.0566 -0.0684,0.11241 -0.11581,0.13661 -0.016,0.008 -0.11461,0.012 -0.28972,0.012 l -0.26607,0 0,-0.29785 z"
       id="path10058"
       inkscape:connector-curvature="0" />
    <path
       style="fill:#ffffff"
       d="m 372.56674,349.88439 c -0.0848,-0.0418 -0.13801,-0.16882 -0.12821,-0.30587 0.01,-0.12881 0.0564,-0.21182 0.14262,-0.25094 0.0384,-0.018 0.0748,-0.02 0.2956,-0.0202 l 0.25181,-2.5e-4 0,0.29785 0,0.29784 -0.26265,-2.4e-4 c -0.2228,-2.4e-4 -0.2682,-0.002 -0.29925,-0.018 z"
       id="path10056"
       inkscape:connector-curvature="0" />
    <path
       style="fill:#ffffff"
       d="m 388.64936,348.09957 0,-0.62278 0.57673,6e-5 c 0.3639,4e-5 0.59164,0.004 0.6171,0.012 0.0648,0.018 0.12901,0.0746 0.16542,0.14541 l 0.0326,0.0638 0,0.40228 0,0.40228 -0.0326,0.0638 c -0.0362,0.0708 -0.10062,0.12741 -0.16542,0.14541 -0.0254,0.008 -0.2532,0.012 -0.6171,0.012 l -0.57673,6e-5 0,-0.62277 z"
       id="path10054"
       inkscape:connector-curvature="0" />
    <path
       style="fill:#ffffff"
       d="m 373.35185,348.55473 c -0.0564,-0.0202 -0.1296,-0.0938 -0.16041,-0.16162 -0.0242,-0.0534 -0.025,-0.0666 -0.0286,-0.40723 -0.004,-0.43952 0.002,-0.47623 0.098,-0.58068 0.074,-0.0804 0.071,-0.08 0.72535,-0.08 l 0.57207,0 0,0.62278 0,0.62278 -0.58217,-5e-4 c -0.46796,-4e-4 -0.59041,-0.004 -0.6243,-0.016 z"
       id="path10052"
       inkscape:connector-curvature="0" />
    <path
       style="fill:#ffffff"
       d="m 390.07903,348.09957 0,-0.29785 0.26036,0 c 0.2386,0 0.26393,0.002 0.30265,0.0216 0.0866,0.0442 0.13021,0.13662 0.13021,0.27629 0,0.13982 -0.0434,0.23209 -0.13021,0.27629 -0.0388,0.02 -0.064,0.0216 -0.30265,0.0216 l -0.26036,0 0,-0.29785 z"
       id="path10050"
       inkscape:connector-curvature="0" />
    <path
       style="fill:#ffffff"
       d="m 372.56316,348.22136 c -0.0892,-0.054 -0.13421,-0.16262 -0.12481,-0.30015 0.006,-0.096 0.0282,-0.15422 0.0762,-0.20472 0.06,-0.063 0.0778,-0.0664 0.35923,-0.0664 l 0.25487,0 0,0.29785 0,0.29785 -0.26265,-6e-5 c -0.25302,-4e-5 -0.26412,-0.001 -0.30282,-0.0244 z"
       id="path10048"
       inkscape:connector-curvature="0" />
    <path
       style="fill:#ffffff"
       d="m 375.12958,347.37112 c -0.23886,-0.23896 -0.33297,-0.33998 -0.33297,-0.35742 l 0,-0.0242 6.81263,0 6.81265,0 0,0.0244 c 0,0.018 -0.093,0.11741 -0.3331,0.35744 l -0.33312,0.33297 -6.14655,0 -6.14655,0 -0.33299,-0.33312 z"
       id="path10046"
       inkscape:connector-curvature="0" />
    <path
       style="fill:#ffffff"
       d="m 375.17575,346.2881 c 4e-5,-0.38652 0.004,-0.59672 0.012,-0.62548 0.008,-0.029 0.031,-0.062 0.0696,-0.0996 0.0466,-0.0456 0.0722,-0.0606 0.13321,-0.0792 0.0714,-0.0216 0.0942,-0.0226 0.43132,-0.02 0.34025,0.004 0.35865,0.004 0.41708,0.028 0.0738,0.0296 0.15361,0.1098 0.17082,0.17141 0.008,0.0276 0.012,0.24146 0.012,0.62422 l 6e-5,0.58215 -0.62278,0 -0.62278,0 6e-5,-0.58215 z"
       id="path10044"
       inkscape:connector-curvature="0" />
    <path
       style="fill:#ffffff"
       d="m 376.8351,346.27186 c 0.004,-0.59416 0.004,-0.59874 0.0272,-0.64328 0.0358,-0.067 0.10481,-0.12042 0.18842,-0.14582 0.0672,-0.0204 0.0962,-0.0216 0.4335,-0.018 0.34501,0.004 0.36371,0.004 0.41265,0.027 0.0796,0.0368 0.12402,0.076 0.15402,0.13641 l 0.0276,0.0554 0,0.59357 0,0.59357 -0.62322,0 -0.62319,0 0.004,-0.59839 z"
       id="path10042"
       inkscape:connector-curvature="0" />
    <path
       style="fill:#ffffff"
       d="m 378.50077,346.27259 c 0,-0.58303 5.7e-4,-0.59883 0.0226,-0.64417 0.0272,-0.0564 0.0716,-0.0954 0.15082,-0.13262 l 0.0596,-0.028 0.38449,0 0.38452,0 0.0596,0.028 c 0.0792,0.0372 0.12341,0.0762 0.15081,0.13262 0.022,0.0454 0.0226,0.0612 0.0226,0.64417 l 0,0.5977 -0.61737,0 -0.61736,0 0,-0.5977 z"
       id="path10040"
       inkscape:connector-curvature="0" />
    <path
       style="fill:#ffffff"
       d="m 380.15791,346.27259 c 0,-0.58303 5.6e-4,-0.59883 0.0224,-0.64417 0.0274,-0.0564 0.0716,-0.0954 0.15081,-0.13262 l 0.0596,-0.028 0.3845,0 0.3845,0 0.0596,0.028 c 0.0792,0.0372 0.12881,0.0808 0.15302,0.13402 0.018,0.0408 0.02,0.085 0.0202,0.64218 l 2.5e-4,0.59841 -0.61736,0 -0.61736,0 0,-0.59769 z"
       id="path10038"
       inkscape:connector-curvature="0" />
    <path
       style="fill:#ffffff"
       d="m 381.81504,346.27671 0,-0.59357 0.0276,-0.0554 c 0.03,-0.0604 0.0744,-0.0996 0.15401,-0.13641 0.0496,-0.023 0.0634,-0.0236 0.43034,-0.0236 0.33585,0 0.38539,0.002 0.43442,0.02 0.068,0.0238 0.13801,0.082 0.16981,0.14161 0.0238,0.0446 0.024,0.049 0.027,0.64328 l 0.004,0.59842 -0.62314,0 -0.62312,0 0,-0.59358 z"
       id="path10036"
       inkscape:connector-curvature="0" />
    <path
       style="fill:#ffffff"
       d="m 383.47224,346.28812 c 0,-0.39114 0.004,-0.59638 0.012,-0.62548 0.008,-0.0278 0.0318,-0.0632 0.0676,-0.099 0.0458,-0.046 0.0694,-0.06 0.13302,-0.0792 0.0738,-0.0224 0.0938,-0.0232 0.43324,-0.02 0.34023,0.004 0.35865,0.004 0.41708,0.028 0.0738,0.0296 0.15361,0.10981 0.17082,0.17141 0.008,0.0276 0.012,0.24147 0.012,0.6242 l 8e-5,0.58218 -0.62278,0 -0.62278,0 8e-5,-0.58218 z"
       id="path10034"
       inkscape:connector-curvature="0" />
    <path
       style="fill:#ffffff"
       d="m 385.13157,346.27188 c 0.004,-0.59414 0.004,-0.59872 0.0272,-0.64328 0.0358,-0.067 0.10481,-0.12041 0.18842,-0.14582 0.0672,-0.0204 0.0962,-0.0216 0.43348,-0.018 0.34501,0.004 0.36373,0.004 0.41266,0.027 0.0796,0.0368 0.124,0.076 0.15401,0.13642 l 0.0276,0.0554 0,0.59357 0,0.59358 -0.62322,0 -0.62322,0 0.004,-0.59842 z"
       id="path10032"
       inkscape:connector-curvature="0" />
    <path
       style="fill:#ffffff"
       d="m 386.79727,346.27262 c 0,-0.58302 5.6e-4,-0.59884 0.0224,-0.64419 0.0272,-0.0564 0.0716,-0.0954 0.15081,-0.13261 l 0.0596,-0.028 0.38449,0 0.3845,0 0.0596,0.028 c 0.0792,0.0372 0.12341,0.0762 0.15081,0.13261 0.022,0.0454 0.0226,0.0612 0.0226,0.64419 l 0,0.59769 -0.61736,0 -0.61736,0 0,-0.59769 z"
       id="path10030"
       inkscape:connector-curvature="0" />
    <path
       style="fill:#ffffff"
       d="m 375.50062,345.17488 c 0,-0.28649 0.002,-0.30085 0.0728,-0.3639 0.0604,-0.0544 0.10942,-0.069 0.23052,-0.0686 0.11522,4.3e-4 0.17562,0.0204 0.23167,0.0766 0.057,0.0572 0.0608,0.0788 0.0608,0.35595 l 0,0.25487 -0.29785,0 -0.29784,0 0,-0.25487 z"
       id="path10028"
       inkscape:connector-curvature="0" />
    <path
       style="fill:#ffffff"
       d="m 377.15775,345.1874 c 0,-0.13322 0.004,-0.25735 0.006,-0.27571 0.01,-0.0462 0.0706,-0.11461 0.12802,-0.14221 0.10101,-0.049 0.2722,-0.039 0.36719,0.0212 0.0888,0.0564 0.094,0.077 0.094,0.37872 l 0,0.26036 -0.29785,0 -0.29785,0 0,-0.24234 z"
       id="path10026"
       inkscape:connector-curvature="0" />
    <path
       style="fill:#ffffff"
       d="m 378.81494,345.18876 c 3e-5,-0.13482 0.006,-0.25903 0.012,-0.28191 0.016,-0.0546 0.0642,-0.10841 0.12681,-0.13881 0.043,-0.021 0.069,-0.0252 0.16041,-0.0256 0.10041,-4e-4 0.11402,0.002 0.17282,0.0322 0.0426,0.0218 0.0748,0.0482 0.0968,0.0794 l 0.033,0.0468 0.004,0.26445 0.004,0.26444 -0.30411,0 -0.30411,0 6e-5,-0.24098 z"
       id="path10024"
       inkscape:connector-curvature="0" />
    <path
       style="fill:#ffffff"
       d="m 380.47374,345.16529 0.004,-0.26444 0.033,-0.0468 c 0.022,-0.0312 0.054,-0.0576 0.0968,-0.0794 0.059,-0.0302 0.0722,-0.0326 0.17282,-0.0318 0.11821,0.001 0.16042,0.014 0.223,0.066 0.069,0.058 0.075,0.0878 0.0754,0.3691 l 2.5e-4,0.25182 -0.30424,0 -0.30425,0 0.004,-0.26444 z"
       id="path10022"
       inkscape:connector-curvature="0" />
    <path
       style="fill:#ffffff"
       d="m 382.13997,345.16651 0,-0.26324 0.0314,-0.0496 c 0.0234,-0.037 0.0474,-0.0574 0.0948,-0.0806 0.0572,-0.028 0.0738,-0.031 0.17162,-0.0306 0.12021,5e-4 0.16081,0.012 0.22432,0.0686 0.0702,0.0618 0.0736,0.0778 0.0736,0.36306 l 0,0.25558 -0.29785,0 -0.29785,0 0,-0.26322 z"
       id="path10020"
       inkscape:connector-curvature="0" />
    <path
       style="fill:#ffffff"
       d="m 383.7971,345.17488 c 0,-0.28649 0.002,-0.30085 0.0728,-0.3639 0.0604,-0.0544 0.10941,-0.069 0.23053,-0.0686 0.1152,4.3e-4 0.17561,0.0204 0.23168,0.0766 0.057,0.0572 0.0608,0.079 0.0608,0.35595 l 0,0.25487 -0.29785,0 -0.29784,0 0,-0.25487 z"
       id="path10018"
       inkscape:connector-curvature="0" />
    <path
       style="fill:#ffffff"
       d="m 385.45422,345.17413 c 0,-0.28534 0.004,-0.30134 0.0736,-0.36305 0.052,-0.0458 0.0998,-0.064 0.18521,-0.0712 0.14162,-0.012 0.27105,0.0398 0.31485,0.12562 0.0206,0.0402 0.0222,0.0628 0.0222,0.30382 l 0,0.26037 -0.29785,0 -0.29787,0 0,-0.25559 z"
       id="path10016"
       inkscape:connector-curvature="0" />
    <path
       style="fill:#ffffff"
       d="m 387.11141,345.18873 c 0,-0.13481 0.006,-0.25902 0.012,-0.2819 0.016,-0.0548 0.0642,-0.10841 0.12681,-0.13901 0.043,-0.021 0.069,-0.0252 0.16041,-0.0254 0.10041,-4e-4 0.11421,0.002 0.17282,0.0322 0.0426,0.0218 0.0748,0.0482 0.0968,0.0794 l 0.033,0.0468 0.004,0.26445 0.004,0.26444 -0.30411,0 -0.30413,0 8e-5,-0.24098 z"
       id="path9750"
       inkscape:connector-curvature="0" />
    <path
       style="fill:#000000"
       d=""
       id="path9748"
       inkscape:connector-curvature="0" />
    <path
       style="fill:#ffffff"
       d=""
       id="path11893"
       inkscape:connector-curvature="0" />
    <path
       style="fill:#ffffff"
       d=""
       id="path11891"
       inkscape:connector-curvature="0" />
    <path
       inkscape:connector-curvature="0"
       style="fill:#ffffff"
       d="m 376.55048,349.90029 c -0.0576,-0.014 -0.15782,-0.059 -0.20788,-0.0936 -0.0504,-0.0348 -0.12682,-0.11461 -0.16582,-0.17341 -0.13061,-0.19662 -0.13341,-0.48096 -0.006,-0.69439 0.041,-0.069 0.14281,-0.16721 0.21624,-0.20864 0.0342,-0.02 0.0962,-0.045 0.13741,-0.0572 0.10061,-0.0296 0.25699,-0.0318 0.35777,-0.004 0.26471,0.0708 0.44544,0.29378 0.46229,0.57033 0.006,0.098 -0.006,0.18621 -0.04,0.27766 -0.0326,0.0898 -0.0806,0.16042 -0.15862,0.23372 -0.0762,0.0716 -0.18341,0.12921 -0.28062,0.15042 -0.0748,0.016 -0.24643,0.016 -0.31383,6e-5 z"
       id="path10128-6" />
  </g>
</svg>
