<?xml version="1.0" encoding="UTF-8" standalone="no"?>
<!-- Created with Inkscape (http://www.inkscape.org/) -->

<svg
   xmlns:dc="http://purl.org/dc/elements/1.1/"
   xmlns:cc="http://creativecommons.org/ns#"
   xmlns:rdf="http://www.w3.org/1999/02/22-rdf-syntax-ns#"
   xmlns:svg="http://www.w3.org/2000/svg"
   xmlns="http://www.w3.org/2000/svg"
   xmlns:sodipodi="http://sodipodi.sourceforge.net/DTD/sodipodi-0.dtd"
   xmlns:inkscape="http://www.inkscape.org/namespaces/inkscape"
   width="210mm"
   height="297mm"
   viewBox="0 0 744.09448819 1052.3622047"
   id="svg2"
   version="1.1"
   inkscape:version="0.91 r13725"
   sodipodi:docname="mercury_switch.svg">
  <defs
     id="defs4">
    <inkscape:path-effect
       effect="spiro"
       id="path-effect4449"
       is_visible="true" />
    <inkscape:path-effect
       effect="spiro"
       id="path-effect4427"
       is_visible="true" />
    <inkscape:path-effect
       effect="spiro"
       id="path-effect4423"
       is_visible="true" />
    <inkscape:path-effect
       effect="spiro"
       id="path-effect4352"
       is_visible="true" />
    <inkscape:path-effect
       effect="spiro"
       id="path-effect4344"
       is_visible="true" />
    <inkscape:path-effect
       effect="spiro"
       id="path-effect4254"
       is_visible="true" />
    <inkscape:path-effect
       effect="spiro"
       id="path-effect4250"
       is_visible="true" />
    <inkscape:path-effect
       effect="spiro"
       id="path-effect4209"
       is_visible="true" />
    <inkscape:path-effect
       effect="spiro"
       id="path-effect4146"
       is_visible="true" />
    <inkscape:path-effect
       effect="spiro"
       id="path-effect4142"
       is_visible="true" />
    <inkscape:path-effect
       effect="spiro"
       id="path-effect4209-3"
       is_visible="true" />
    <inkscape:path-effect
       effect="spiro"
       id="path-effect4209-3-7"
       is_visible="true" />
  </defs>
  <sodipodi:namedview
     id="base"
     pagecolor="#ffffff"
     bordercolor="#666666"
     borderopacity="1.0"
     inkscape:pageopacity="0.0"
     inkscape:pageshadow="2"
     inkscape:zoom="89.6"
     inkscape:cx="132.52636"
     inkscape:cy="650.72918"
     inkscape:document-units="mm"
     inkscape:current-layer="layer1"
     showgrid="false"
     inkscape:window-width="1366"
     inkscape:window-height="754"
     inkscape:window-x="0"
     inkscape:window-y="14"
     inkscape:window-maximized="0" />
  <metadata
     id="metadata7">
    <rdf:RDF>
      <cc:Work
         rdf:about="">
        <dc:format>image/svg+xml</dc:format>
        <dc:type
           rdf:resource="http://purl.org/dc/dcmitype/StillImage" />
        <dc:title></dc:title>
      </cc:Work>
    </rdf:RDF>
  </metadata>
  <g
     inkscape:label="SilkS"
     inkscape:groupmode="layer"
     id="layer1">
    <path
       style="color:#000000;font-style:normal;font-variant:normal;font-weight:normal;font-stretch:normal;font-size:medium;line-height:normal;font-family:sans-serif;text-indent:0;text-align:start;text-decoration:none;text-decoration-line:none;text-decoration-style:solid;text-decoration-color:#000000;letter-spacing:normal;word-spacing:normal;text-transform:none;direction:ltr;block-progression:tb;writing-mode:lr-tb;baseline-shift:baseline;text-anchor:start;white-space:normal;clip-rule:nonzero;display:inline;overflow:visible;visibility:visible;opacity:1;isolation:auto;mix-blend-mode:normal;color-interpolation:sRGB;color-interpolation-filters:linearRGB;solid-color:#000000;solid-opacity:1;fill:#000000;fill-opacity:1;fill-rule:nonzero;stroke:none;stroke-width:0.5;stroke-linecap:round;stroke-linejoin:miter;stroke-miterlimit:4;stroke-dasharray:none;stroke-dashoffset:0;stroke-opacity:1;color-rendering:auto;image-rendering:auto;shape-rendering:auto;text-rendering:auto;enable-background:accumulate"
       d="M 132.42998,389.43802 C 132.38638,389.4439 131.01871,389.44758 130.99566,389.45838 130.99106,389.89039 130.99106,389.89039 130.87617,389.94247 130.9384,389.92561 130.94578,389.91203 130.99106,389.89039 130.99724,389.98771 132.34266,390.09866 132.34266,390.36178 132.34266,390.40748 132.3185,390.00089 132.30731,390.09637 132.2961,390.19185 132.28236,390.29562 132.3119,390.41347 132.37114,390.64991 132.55148,390.79399 132.7102,390.88991 132.86892,390.98582 133.03273,391.0529 133.06867,391.07681 133.34832,391.26279 133.66873,391.88233 133.89285,392.47851 134.30616,393.57805 134.22787,395.54282 134.28042,396.90578 134.2976,397.35118 134.39525,397.7256 134.43056,398.11293 134.63611,400.36864 134.2245,401.29982 133.50067,402.74396 133.46838,402.80839 133.3978,402.86228 133.26783,402.90327 133.13784,402.94426 132.96144,402.96442 132.77608,402.96761 132.40535,402.97402 132.02166,402.91706 131.79718,402.91706 131.532,402.91331 131.532,403.31298 131.79718,403.30923 131.94091,403.30923 132.36889,403.36693 132.7822,403.35978 132.98886,403.35622 133.19691,403.33815 133.38578,403.2786 133.57465,403.21902 133.75619,403.11026 133.85149,402.92013 134.57989,401.46684 135.03214,400.39254 134.82119,398.0777 134.78226,397.65044 134.68779,397.28465 134.6726,396.89047 134.62132,395.56037 134.73093,393.59211 134.26051,392.34064 134.02844,391.72326 133.74487,391.05658 133.28467,390.7505 133.16664,390.67201 133.03253,390.627 132.91242,390.55441 132.79232,390.48184 132.71292,390.40275 132.69182,390.31851 132.68728,390.30038 132.6866,390.22601 132.69641,390.14234 132.70623,390.05865 132.73483,390.46083 132.73483,390.36178 132.73483,390.01586 132.73559,389.83009 132.71338,389.69387 132.70229,389.62575 132.69612,389.54328 132.59236,389.4748 132.54049,389.44057 132.47359,389.43216 132.42998,389.43802 Z"
       id="path4207-6"
       inkscape:connector-curvature="0"
       sodipodi:nodetypes="ccccscccsssccscccccsscscccssccc" />
    <path
       style="color:#000000;font-style:normal;font-variant:normal;font-weight:normal;font-stretch:normal;font-size:medium;line-height:normal;font-family:sans-serif;text-indent:0;text-align:start;text-decoration:none;text-decoration-line:none;text-decoration-style:solid;text-decoration-color:#000000;letter-spacing:normal;word-spacing:normal;text-transform:none;direction:ltr;block-progression:tb;writing-mode:lr-tb;baseline-shift:baseline;text-anchor:start;white-space:normal;clip-rule:nonzero;display:inline;overflow:visible;visibility:visible;opacity:1;isolation:auto;mix-blend-mode:normal;color-interpolation:sRGB;color-interpolation-filters:linearRGB;solid-color:#000000;solid-opacity:1;fill:#000000;fill-opacity:1;fill-rule:nonzero;stroke:none;stroke-width:0.5;stroke-linecap:round;stroke-linejoin:miter;stroke-miterlimit:4;stroke-dasharray:none;stroke-dashoffset:0;stroke-opacity:1;color-rendering:auto;image-rendering:auto;shape-rendering:auto;text-rendering:auto;enable-background:accumulate"
       d="M 130.98996,389.42118 C 130.94568,389.41187 130.86647,389.41696 130.81073,389.45641 130.69925,389.53532 130.70845,389.61232 130.70043,389.67701 130.68441,389.8064 130.68664,389.99085 130.68664,390.33574 130.68664,390.43478 130.69203,390.03262 130.70185,390.1163 130.71166,390.19996 130.71099,390.27282 130.70645,390.29092 130.68534,390.37516 130.60442,390.45427 130.48432,390.52684 130.36421,390.59942 130.23009,390.64597 130.11206,390.72447 129.65186,391.03053 129.36983,391.69722 129.13775,392.3146 128.66733,393.56606 128.77694,395.53434 128.72567,396.86442 128.71048,397.25862 128.61447,397.62286 128.57553,398.05013 128.3646,400.36496 128.81685,401.44079 129.54525,402.89407 129.64376,403.09064 129.83709,403.19521 130.03853,403.25714 130.23995,403.31907 130.46571,403.34248 130.69112,403.35059 131.14194,403.36682 131.60893,403.31842 131.75888,403.31842 132.02405,403.32217 132.02405,402.9225 131.75888,402.92625 131.5406,402.92625 131.11693,402.97325 130.70492,402.95842 130.49891,402.95101 130.30038,402.92701 130.15342,402.88183 130.00645,402.83664 129.92513,402.77592 129.89606,402.7179 129.17223,401.27377 128.76063,400.34107 128.96617,398.08536 129.00148,397.69801 129.10066,397.32515 129.11784,396.87974 129.17039,395.51678 129.0921,393.552 129.50541,392.45247 129.72953,391.85628 130.04994,391.23675 130.32959,391.05076 130.36554,391.02685 130.52935,390.95825 130.68806,390.86234 130.84678,390.76642 131.02712,390.62233 131.08636,390.38591 131.1159,390.26805 131.10216,390.16582 131.09096,390.07033 131.07976,389.97485 131.07882,390.38144 131.07882,390.33574 131.07882,390.08769 131.08285,389.99962 131.08649,389.8976 131.90477,390.26268 131.49151,389.73253 131.07882,389.45641 131.05829,389.44484 131.03426,389.43049 130.98996,389.42118 Z"
       id="path4207-6-5"
       inkscape:connector-curvature="0"
       sodipodi:nodetypes="cccscccssccccccccsccssccccsccc" />
    <path
       style="fill:none;fill-opacity:1;stroke:#000000;stroke-width:0.61658525;stroke-linecap:round;stroke-miterlimit:4;stroke-dasharray:none;stroke-opacity:1"
       d="M 133.20697,400.26075 132.27108,404.88514"
       id="path4350"
       inkscape:path-effect="#path-effect4352"
       inkscape:original-d="M 133.20697,400.26075 C 132.67556,401.41835 133.87417,404.35077 132.27108,404.88514"
       inkscape:connector-curvature="0" />
    <path
       style="color:#000000;font-style:normal;font-variant:normal;font-weight:normal;font-stretch:normal;font-size:medium;line-height:normal;font-family:sans-serif;text-indent:0;text-align:start;text-decoration:none;text-decoration-line:none;text-decoration-style:solid;text-decoration-color:#000000;letter-spacing:normal;word-spacing:normal;text-transform:none;direction:ltr;block-progression:tb;writing-mode:lr-tb;baseline-shift:baseline;text-anchor:start;white-space:normal;clip-rule:nonzero;display:inline;overflow:visible;visibility:visible;opacity:1;isolation:auto;mix-blend-mode:normal;color-interpolation:sRGB;color-interpolation-filters:linearRGB;solid-color:#000000;solid-opacity:1;fill:#ff0000;fill-opacity:0.38999999;fill-rule:evenodd;stroke:none;stroke-width:1.13770139;stroke-linecap:round;stroke-linejoin:miter;stroke-miterlimit:4;stroke-dasharray:none;stroke-dashoffset:0;stroke-opacity:1;color-rendering:auto;image-rendering:auto;shape-rendering:auto;text-rendering:auto;enable-background:accumulate"
       d="M 130.89149,392.14067 C 130.84443,392.14286 130.79824,392.14694 130.75301,392.15286 130.70779,392.15879 130.66352,392.16655 130.62029,392.17609 130.57706,392.18563 130.53487,392.19695 130.49379,392.20998 130.45271,392.22302 130.41274,392.23777 130.37397,392.25417 130.33519,392.27058 130.2976,392.28863 130.26128,392.30829 130.22496,392.32793 130.18992,392.34917 130.1562,392.37194 130.1225,392.39471 130.09013,392.41901 130.05919,392.44477 130.02825,392.47054 129.99873,392.49777 129.97071,392.52641 129.91466,392.58368 129.86455,392.64496 129.81989,392.70983 129.77523,392.7747 129.73602,392.84316 129.70176,392.9148 129.66749,392.98644 129.63818,393.06125 129.61333,393.13883 129.58848,393.2164 129.56808,393.29674 129.55166,393.37944 129.53522,393.46213 129.52276,393.54716 129.51376,393.63414 129.50477,393.72111 129.49924,393.81002 129.4967,393.90044 129.49415,393.99088 129.49458,394.08282 129.49749,394.17587 129.50041,394.26893 129.5058,394.36309 129.51319,394.45795 129.52796,394.64765 129.55163,394.84173 129.58236,395.03744 129.61309,395.23315 129.65088,395.43049 129.69391,395.62672 129.73694,395.82296 129.78519,396.01809 129.83684,396.20938 129.88849,396.40067 129.94353,396.58811 130.00013,396.76898 130.05674,396.94985 130.1149,397.12413 130.17279,397.2891 130.23068,397.45407 130.2883,397.60972 130.34381,397.75331 130.39931,397.89691 130.45272,398.02845 130.50217,398.1452 130.55163,398.26195 130.59715,398.3639 130.63689,398.44833 130.64957,398.47527 130.66157,398.50687 130.67283,398.5427 130.68409,398.57855 130.69459,398.61864 130.70429,398.66258 130.71398,398.70653 130.72287,398.75432 130.73087,398.80557 130.73888,398.85682 130.746,398.91152 130.75218,398.96928 130.75836,399.02704 130.76358,399.08785 130.7678,399.15132 130.77202,399.21479 130.77523,399.28092 130.77735,399.34931 130.77948,399.41769 130.78053,399.48834 130.78043,399.56085 130.78033,399.63336 130.77908,399.70773 130.77663,399.78356 130.77417,399.85939 130.77076,399.93684 130.76648,400.01562 130.76219,400.09441 130.75704,400.17453 130.75109,400.25574 130.74513,400.33694 130.73839,400.41921 130.73094,400.50229 130.72348,400.58537 130.71531,400.66926 130.70651,400.75369 130.6977,400.83811 130.68827,400.92307 130.67828,401.0083 130.66829,401.09353 130.65775,401.17903 130.64674,401.26453 130.63573,401.35003 130.62424,401.43554 130.61236,401.52077 130.60048,401.606 130.58821,401.69097 130.57563,401.7754 130.56305,401.85984 130.55017,401.94375 130.53706,402.02688 130.52396,402.11001 130.51064,402.19236 130.49717,402.27369 130.48371,402.35501 130.4701,402.4353 130.45644,402.5143 130.44277,402.59331 130.42905,402.67102 130.41534,402.7472 130.40163,402.82338 130.38795,402.89801 130.37436,402.97085 130.36077,403.04369 130.34728,403.11473 130.33397,403.18372 130.32066,403.25272 130.30753,403.31965 130.29466,403.38429 130.28178,403.44893 130.26917,403.51126 130.2569,403.57103 130.25076,403.60091 130.2447,403.63017 130.23875,403.65877 130.23278,403.68736 130.22692,403.7153 130.22115,403.74253 130.21539,403.76977 130.20974,403.7963 130.2042,403.8221 130.19867,403.8479 130.19325,403.87296 130.18796,403.89725 130.18267,403.92154 130.17751,403.94505 130.17249,403.96775 130.16748,403.99045 130.1626,404.01234 130.15789,404.03338 130.15317,404.05442 130.1486,404.07462 130.1442,404.09392 130.1398,404.11323 130.13557,404.13165 130.13151,404.14915 130.12948,404.1579 130.1275,404.16642 130.12556,404.1747 130.12362,404.18298 130.12173,404.19103 130.11989,404.19884 130.11804,404.20664 130.11624,404.21421 130.1145,404.22152 130.11275,404.22883 130.11105,404.2359 130.10941,404.24272 130.10776,404.24953 130.10617,404.25609 130.10463,404.26238 130.10309,404.26868 130.1016,404.27472 130.10017,404.28049 130.09874,404.28626 130.09737,404.29176 130.09605,404.297 130.09473,404.30223 130.09347,404.30719 130.09227,404.31187 130.09166,404.3142 130.09107,404.31647 130.09048,404.31866 130.08989,404.32085 130.08932,404.32296 130.08875,404.32499 130.08818,404.32702 130.08762,404.32897 130.08709,404.33084 130.08655,404.3327 130.08603,404.33449 130.08553,404.33618 130.08503,404.33787 130.08455,404.33948 130.0841,404.341 130.08364,404.34251 130.08321,404.34393 130.08281,404.34526 130.08241,404.34659 130.08204,404.34782 130.08169,404.34896 130.08136,404.3501 130.08105,404.35113 130.08078,404.35207 130.06286,404.39426 130.055,404.43463 130.05528,404.47232 130.05555,404.51001 130.06396,404.54503 130.07856,404.57651 130.09316,404.60799 130.11395,404.63594 130.13898,404.65951 130.16402,404.68307 130.19331,404.70225 130.22491,404.71618 130.25651,404.73011 130.29042,404.7388 130.32471,404.74139 130.35899,404.74398 130.39365,404.74048 130.42674,404.73002 130.45983,404.71956 130.49135,404.70215 130.51936,404.67693 130.54738,404.65172 130.57189,404.61868 130.59094,404.577 130.59457,404.56974 130.59762,404.56346 130.60019,404.55801 130.60276,404.55255 130.60484,404.54791 130.60655,404.54392 130.60825,404.53993 130.60957,404.5366 130.61061,404.53375 130.61164,404.5309 130.61239,404.52854 130.61295,404.5265 130.61351,404.52447 130.61387,404.52276 130.61415,404.52121 130.61443,404.51965 130.61461,404.51826 130.61481,404.51686 130.615,404.51547 130.61519,404.51407 130.61549,404.5125 130.61579,404.51093 130.61619,404.50919 130.61679,404.50712 130.61738,404.50505 130.61799,404.50296 130.61859,404.50085 130.61919,404.49874 130.61979,404.4966 130.62041,404.49442 130.62101,404.49225 130.62163,404.49005 130.62224,404.48781 130.62286,404.48557 130.62348,404.48329 130.62411,404.48098 130.62474,404.47865 130.62538,404.47629 130.62602,404.47388 130.62667,404.47146 130.62732,404.469 130.62798,404.46648 130.62865,404.46396 130.62932,404.46139 130.63001,404.45875 130.63069,404.45612 130.63139,404.45342 130.6321,404.45065 130.63352,404.44512 130.63498,404.43936 130.63648,404.43337 130.63798,404.42738 130.63952,404.42116 130.6411,404.41472 130.64268,404.40827 130.6443,404.4016 130.64596,404.3947 130.64763,404.38781 130.64934,404.38068 130.65109,404.37333 130.65283,404.36599 130.65462,404.35842 130.65646,404.35063 130.6583,404.34284 130.66018,404.33483 130.6621,404.32659 130.66403,404.31835 130.666,404.3099 130.66802,404.30122 130.67004,404.29255 130.6721,404.28365 130.67422,404.27454 130.67844,404.25631 130.68283,404.23721 130.68738,404.21727 130.69193,404.19733 130.69664,404.17654 130.70149,404.15495 130.70634,404.13335 130.71134,404.11093 130.71648,404.08773 130.72162,404.06453 130.72689,404.04053 130.73229,404.01578 130.73769,403.99103 130.74321,403.96551 130.74885,403.93927 130.75449,403.91302 130.76025,403.88604 130.76611,403.85835 130.77198,403.83066 130.77794,403.80227 130.78401,403.7732 130.79007,403.74413 130.79623,403.71438 130.80248,403.68397 130.81496,403.62316 130.8278,403.55978 130.84089,403.49408 130.85399,403.42837 130.86735,403.36034 130.88089,403.29024 130.89443,403.22013 130.90816,403.14795 130.92199,403.07394 130.93581,402.99992 130.94974,402.92408 130.96369,402.84666 130.97764,402.76924 130.99162,402.69025 131.00553,402.60991 131.01944,402.52958 131.0333,402.44792 131.04701,402.36518 131.06072,402.28243 131.07429,402.19861 131.08764,402.11395 131.10099,402.02929 131.11412,401.94379 131.12695,401.85772 131.13978,401.77164 131.15231,401.68498 131.16445,401.59798 131.17659,401.51097 131.18834,401.42363 131.19963,401.33617 131.21091,401.24872 131.22173,401.16116 131.23199,401.07374 131.24224,400.98631 131.25195,400.89901 131.26101,400.81208 131.27008,400.72515 131.2785,400.63859 131.28621,400.55263 131.29391,400.46667 131.30088,400.38132 131.30705,400.29681 131.31322,400.2123 131.31859,400.12863 131.32306,400.04604 131.32752,399.96345 131.3311,399.88194 131.33369,399.80175 131.33629,399.72155 131.33819,399.64282 131.33914,399.56566 131.3401,399.4885 131.34012,399.41291 131.33897,399.33898 131.33783,399.26506 131.3355,399.19281 131.33178,399.12233 131.32805,399.05185 131.32292,398.98314 131.31616,398.91631 131.30938,398.84948 131.30098,398.78453 131.2907,398.72155 131.28042,398.65857 131.26827,398.59758 131.25401,398.53866 131.23975,398.47975 131.22338,398.42291 131.20468,398.36826 131.18597,398.3136 131.16493,398.26114 131.14131,398.21096 131.10575,398.13541 131.06399,398.04099 131.01794,397.9309 130.97188,397.82082 130.92152,397.69506 130.86875,397.55683 130.81598,397.41861 130.76081,397.26793 130.70512,397.10797 130.64943,396.94803 130.59324,396.77882 130.53842,396.60356 130.48361,396.4283 130.43017,396.24698 130.38002,396.06281 130.32987,395.87864 130.28299,395.69163 130.24129,395.50496 130.19959,395.3183 130.16307,395.13199 130.13361,394.94924 130.10415,394.76649 130.08176,394.5873 130.06834,394.41487 130.06162,394.32866 130.0574,394.24456 130.05562,394.16288 130.05385,394.0812 130.05454,394.00196 130.05765,393.92546 130.06075,393.84897 130.06629,393.77523 130.07422,393.70457 130.08215,393.63391 130.09247,393.56633 130.10515,393.50215 130.11784,393.43797 130.13289,393.37719 130.15027,393.32013 130.16765,393.26308 130.18737,393.20975 130.20939,393.16047 130.2314,393.11119 130.25573,393.06596 130.28232,393.0251 130.30891,392.98424 130.33778,392.94776 130.36888,392.91597 130.38444,392.90008 130.40054,392.88493 130.41734,392.87059 130.43414,392.85624 130.45163,392.84268 130.46994,392.82995 130.48825,392.81722 130.50738,392.80531 130.52748,392.79427 130.54756,392.78323 130.56861,392.77304 130.59075,392.76376 130.61289,392.75448 130.63612,392.74609 130.66057,392.73864 130.68503,392.73119 130.71071,392.72467 130.73774,392.71912 130.76478,392.71357 130.79317,392.70899 130.82306,392.70541 130.85295,392.70184 130.88433,392.69927 130.91733,392.69774 130.95034,392.69621 130.98493,392.69592 131.02112,392.69694 131.0573,392.69797 131.09509,392.70031 131.13447,392.70404 131.17387,392.70778 131.21486,392.71291 131.25747,392.71951 131.30008,392.72612 131.3443,392.7342 131.39015,392.74383 131.43601,392.75345 131.48348,392.76464 131.53259,392.77745 131.58171,392.79027 131.63245,392.80471 131.68484,392.82087 131.73724,392.83702 131.79127,392.85489 131.84697,392.87454 131.90266,392.89419 131.96001,392.91564 132.01902,392.93894 132.06225,392.95601 132.10328,392.96283 132.1413,392.96145 132.17932,392.96007 132.21434,392.95047 132.24556,392.93469 132.27677,392.9189 132.30419,392.89693 132.32699,392.87081 132.3498,392.84468 132.36801,392.81438 132.38081,392.78196 132.39361,392.74954 132.40101,392.71499 132.40221,392.68032 132.4034,392.64566 132.39839,392.61089 132.38638,392.57804 132.37436,392.54518 132.35535,392.51425 132.32852,392.48726 132.3017,392.46027 132.26708,392.43723 132.22385,392.42016 132.15884,392.39448 132.09515,392.37059 132.03272,392.34846 131.9703,392.32633 131.90914,392.30597 131.84921,392.28738 131.78927,392.26878 131.73055,392.25194 131.67301,392.23685 131.61546,392.22177 131.55909,392.20844 131.50384,392.19684 131.44859,392.18525 131.39445,392.1754 131.34139,392.16727 131.28833,392.15915 131.23635,392.15276 131.18539,392.14809 131.13442,392.14343 131.08448,392.14048 131.03552,392.13925 130.98655,392.13801 130.93856,392.13849 130.89149,392.14067 Z"
       id="path4365"
       inkscape:connector-curvature="0"
       sodipodi:nodetypes="sssssssssssssssssssssssssssssssssssssssssssssssscssssssscssssssscssssssscssssssscssssssscssssssssssssssscssssssssssssssssssssssssssssssssssssssssssssssssssssssssssssssscssssssscssssssss" />
    <path
       style="color:#000000;font-style:normal;font-variant:normal;font-weight:normal;font-stretch:normal;font-size:medium;line-height:normal;font-family:sans-serif;text-indent:0;text-align:start;text-decoration:none;text-decoration-line:none;text-decoration-style:solid;text-decoration-color:#000000;letter-spacing:normal;word-spacing:normal;text-transform:none;direction:ltr;block-progression:tb;writing-mode:lr-tb;baseline-shift:baseline;text-anchor:start;white-space:normal;clip-rule:nonzero;display:inline;overflow:visible;visibility:visible;opacity:1;isolation:auto;mix-blend-mode:normal;color-interpolation:sRGB;color-interpolation-filters:linearRGB;solid-color:#000000;solid-opacity:1;fill:#000000;fill-opacity:1;fill-rule:evenodd;stroke:none;stroke-width:0.67934096px;stroke-linecap:round;stroke-linejoin:miter;stroke-miterlimit:4;stroke-dasharray:none;stroke-dashoffset:0;stroke-opacity:1;color-rendering:auto;image-rendering:auto;shape-rendering:auto;text-rendering:auto;enable-background:accumulate"
       d="M 113.59961,390.04297 C 113.5745,390.04324 113.5501,390.04621 113.52668,390.0516 113.50325,390.05698 113.4808,390.06478 113.45957,390.0747 113.43835,390.08462 113.41835,390.09666 113.39984,390.11054 113.38133,390.12441 113.3643,390.14012 113.34902,390.15737 113.33373,390.17462 113.32019,390.19342 113.30864,390.21347 113.2971,390.23351 113.28755,390.25482 113.28026,390.27708 113.27297,390.29935 113.26793,390.32258 113.2654,390.34648 113.26288,390.37038 113.26287,390.39496 113.26562,390.41992 113.27615,390.5295 113.29364,390.64094 113.31756,390.75402 113.34149,390.8671 113.37185,390.9818 113.40813,391.0979 113.44441,391.21399 113.48662,391.33147 113.53423,391.4501 113.58184,391.56872 113.63487,391.68849 113.69279,391.80917 113.7507,391.92984 113.81351,392.05142 113.88071,392.17366 113.9479,392.2959 114.01947,392.4188 114.09491,392.54213 114.17035,392.66545 114.24966,392.78919 114.33232,392.91311 114.41498,393.03703 114.50099,393.16113 114.58984,393.28516 114.67869,393.40919 114.77054,393.53296 114.86497,393.65604 114.95939,393.77912 115.0564,393.90152 115.15556,394.02283 115.25471,394.14414 115.35603,394.26435 115.45908,394.38307 115.56212,394.50179 115.66691,394.619 115.773,394.73431 115.87909,394.84961 115.98649,394.96301 116.09479,395.07408 116.20308,395.18515 116.31226,395.2939 116.42191,395.39992 116.53156,395.50595 116.64167,395.60924 116.75183,395.70939 116.862,395.80953 116.9722,395.90654 117.08203,396 117.19186,396.09346 117.30074,396.18372 117.40862,396.27022 117.5165,396.35672 117.62339,396.43947 117.72924,396.51789 117.83509,396.59631 117.9399,396.67042 118.04364,396.73964 118.14738,396.80886 118.25003,396.87321 118.35157,396.93211 118.45311,396.99101 118.55354,397.04447 118.65279,397.09192 118.75205,397.13938 118.85015,397.18083 118.94705,397.21572 119.04395,397.25061 119.13964,397.27894 119.23409,397.30014 119.32854,397.32134 119.42175,397.33541 119.51367,397.3418 119.55963,397.34499 119.60602,397.34507 119.65235,397.34208 119.69868,397.33908 119.74496,397.33302 119.7907,397.32393 119.83644,397.31485 119.88166,397.30273 119.92585,397.28765 119.97005,397.27256 120.01324,397.25449 120.05494,397.23349 120.09663,397.21249 120.13684,397.18856 120.17508,397.16175 120.21332,397.13493 120.24958,397.10523 120.2834,397.07269 120.31722,397.04015 120.3486,397.00477 120.37704,396.9666 120.40549,396.92843 120.43101,396.88746 120.45312,396.84375 120.47523,396.80004 120.49469,396.75489 120.5116,396.70821 120.52852,396.66153 120.54289,396.61331 120.55484,396.56345 120.56678,396.51359 120.5763,396.4621 120.58351,396.40886 120.59073,396.35562 120.59563,396.30063 120.59834,396.24381 120.60106,396.18698 120.60158,396.12831 120.60003,396.0677 120.59847,396.00708 120.59485,395.94451 120.58926,395.8799 120.58368,395.81529 120.57613,395.74862 120.56675,395.67981 120.55737,395.61099 120.54615,395.54002 120.5332,395.4668 120.522,395.40346 120.51303,395.34323 120.50606,395.28603 120.4991,395.22882 120.49415,395.17464 120.49099,395.1234 120.48784,395.07217 120.48648,395.02387 120.4867,394.97842 120.48692,394.93297 120.48873,394.89038 120.49191,394.85055 120.49508,394.81073 120.49963,394.77367 120.50533,394.73929 120.51103,394.70492 120.51788,394.67322 120.52568,394.64412 120.53347,394.61503 120.54221,394.58852 120.55167,394.56453 120.56114,394.54054 120.57133,394.51906 120.58203,394.5 120.59273,394.48094 120.60387,394.46326 120.61564,394.44686 120.62742,394.43046 120.63983,394.41534 120.65308,394.40143 120.66634,394.38751 120.68043,394.3748 120.69558,394.36319 120.71073,394.35159 120.72693,394.3411 120.74438,394.33163 120.76184,394.32217 120.78055,394.31373 120.80072,394.30623 120.8209,394.29872 120.84253,394.29216 120.86584,394.28645 120.88914,394.28074 120.91412,394.27588 120.94097,394.27179 120.96781,394.2677 120.99654,394.26437 121.02734,394.26172 121.08895,394.25642 121.15709,394.2565 121.23098,394.2616 121.30487,394.2667 121.38451,394.27683 121.46911,394.29162 121.55372,394.30642 121.64329,394.32589 121.73704,394.34968 121.8308,394.37346 121.92874,394.40157 122.03008,394.43364 122.13142,394.46571 122.23616,394.50175 122.34352,394.5414 122.45088,394.58106 122.56087,394.62432 122.67268,394.67085 122.7845,394.71738 122.89816,394.76717 123.01287,394.81986 123.12758,394.87256 123.24334,394.92817 123.35938,394.98633 123.59145,395.10265 123.82557,395.22774 124.05758,395.35758 124.2896,395.48741 124.51952,395.622 124.74321,395.75734 124.9669,395.89268 125.18436,396.02876 125.39145,396.16158 125.59853,396.29439 125.79526,396.42395 125.97747,396.54624 126.15969,396.66852 126.3274,396.78354 126.47647,396.88728 126.62554,396.99101 126.75597,397.08347 126.86362,397.16065 126.97127,397.23782 127.05615,397.29971 127.11411,397.3423 127.17207,397.3849 127.20312,397.4082 127.20312,397.4082 127.24856,397.44364 127.29486,397.46596 127.34035,397.47737 127.38584,397.48877 127.43053,397.48925 127.47277,397.48101 127.51501,397.47277 127.5548,397.4558 127.59048,397.43231 127.62616,397.40882 127.65774,397.37881 127.68356,397.34447 127.70938,397.31012 127.72944,397.27145 127.74209,397.23065 127.75475,397.18985 127.75999,397.14691 127.75618,397.10405 127.75236,397.06118 127.73948,397.01838 127.71589,396.97785 127.6923,396.93731 127.658,396.89904 127.61133,396.86523 127.61133,396.86523 127.58,396.84159 127.52137,396.79832 127.46274,396.75505 127.37682,396.69214 127.26765,396.61362 127.15847,396.53509 127.02605,396.44095 126.87441,396.33519 126.72277,396.22942 126.55192,396.11205 126.3659,395.98707 126.17988,395.86209 125.97869,395.72951 125.76637,395.59333 125.55404,395.45716 125.33059,395.31738 125.10005,395.17803 124.86951,395.03867 124.63188,394.89972 124.3912,394.7652 124.15052,394.63068 123.9068,394.50058 123.66406,394.37891 123.54269,394.31807 123.42183,394.25897 123.30172,394.20225 123.1816,394.14553 123.06222,394.09119 122.94382,394.03988 122.82542,393.98857 122.70799,393.94029 122.59178,393.8957 122.47557,393.8511 122.36056,393.81018 122.24701,393.7736 122.13345,393.73701 122.02134,393.70476 121.91091,393.67748 121.80048,393.6502 121.69173,393.62791 121.58489,393.61124 121.47806,393.59457 121.37314,393.58353 121.27037,393.57877 121.1676,393.57401 121.06698,393.57553 120.96875,393.58398 120.91963,393.58821 120.87067,393.59484 120.82219,393.60392 120.77371,393.613 120.72571,393.62452 120.67854,393.63852 120.63137,393.65252 120.58502,393.66901 120.53982,393.688 120.49462,393.707 120.45058,393.72851 120.40802,393.75258 120.36547,393.77664 120.3244,393.80325 120.28516,393.83245 120.24592,393.86165 120.2085,393.89344 120.17324,393.92784 120.13798,393.96225 120.10487,393.99928 120.07426,394.03896 120.04365,394.07865 120.01553,394.12099 119.99023,394.16602 119.96494,394.21105 119.94238,394.25773 119.92247,394.3061 119.90256,394.35447 119.88531,394.40453 119.87062,394.45632 119.85593,394.50811 119.8438,394.56163 119.83416,394.61692 119.82452,394.67221 119.81737,394.72927 119.81261,394.78814 119.80785,394.84701 119.80549,394.90768 119.80544,394.97021 119.8054,395.03274 119.80766,395.09712 119.81216,395.16338 119.81666,395.22965 119.82339,395.29781 119.83226,395.36789 119.84113,395.43798 119.85215,395.50999 119.86523,395.58398 119.87656,395.64808 119.88577,395.70911 119.89308,395.76708 119.90039,395.82505 119.90581,395.87996 119.90956,395.93181 119.91331,395.98366 119.9154,396.03245 119.91606,396.07821 119.91672,396.12396 119.91595,396.16666 119.91398,396.20633 119.91201,396.246 119.90884,396.28263 119.90471,396.31623 119.90057,396.34983 119.89547,396.38041 119.88963,396.40796 119.8838,396.43551 119.87723,396.46005 119.87015,396.48157 119.86308,396.50309 119.8555,396.5216 119.84766,396.53711 119.83981,396.55262 119.83243,396.56644 119.82515,396.57873 119.81787,396.59102 119.81069,396.60178 119.80324,396.61116 119.79579,396.62053 119.78807,396.62853 119.77972,396.63531 119.77136,396.64208 119.76237,396.64763 119.75237,396.6521 119.74237,396.65657 119.73136,396.65997 119.71898,396.66245 119.70661,396.66493 119.69285,396.66649 119.67736,396.66729 119.66187,396.66808 119.64463,396.6681 119.62529,396.66751 119.60594,396.66693 119.58448,396.66572 119.56055,396.66406 119.51268,396.66073 119.4579,396.65082 119.39707,396.63465 119.33623,396.61847 119.26934,396.59603 119.19724,396.56764 119.12515,396.53925 119.04785,396.50491 118.96619,396.46493 118.88454,396.42496 118.79853,396.37935 118.70903,396.32843 118.61952,396.2775 118.52651,396.22126 118.43086,396.16002 118.3352,396.09878 118.2369,396.03254 118.1368,395.96162 118.0367,395.8907 117.93481,395.81509 117.83197,395.73512 117.72913,395.65515 117.62535,395.57081 117.52148,395.48242 117.41761,395.39403 117.31307,395.30196 117.20835,395.20666 117.10362,395.11136 116.99871,395.01285 116.89407,394.91157 116.78944,394.81029 116.68508,394.70625 116.58147,394.59992 116.47787,394.49359 116.37502,394.38496 116.27338,394.2745 116.17175,394.16403 116.07134,394.05174 115.97262,393.93807 115.87391,393.82441 115.77688,393.70938 115.68202,393.59344 115.58716,393.47749 115.49446,393.36065 115.4044,393.24336 115.31433,393.12607 115.2269,393.00833 115.14258,392.89062 115.05826,392.77291 114.97721,392.65499 114.89981,392.53751 114.82241,392.42003 114.74866,392.303 114.67894,392.18704 114.60922,392.07108 114.54354,391.95621 114.48226,391.84306 114.42099,391.7299 114.36412,391.61848 114.31205,391.50942 114.25998,391.40036 114.21269,391.29367 114.17058,391.18999 114.12847,391.0863 114.09153,390.98563 114.06013,390.88861 114.02874,390.79159 114.0029,390.69823 113.98298,390.60915 113.96307,390.52008 113.94908,390.43531 113.94141,390.35547 113.93963,390.33325 113.93573,390.31168 113.92994,390.29095 113.92414,390.27021 113.91645,390.25031 113.90706,390.23143 113.89766,390.21255 113.88658,390.19469 113.874,390.17805 113.86143,390.16141 113.84736,390.14598 113.83202,390.13195 113.81667,390.11792 113.80004,390.10529 113.78234,390.09425 113.76464,390.08321 113.74587,390.07377 113.72622,390.0661 113.70658,390.05843 113.68607,390.05255 113.6649,390.04863 113.64373,390.04471 113.6219,390.04276 113.59961,390.04297 Z"
       id="path4388"
       inkscape:connector-curvature="0"
       sodipodi:nodetypes="cssssssscssssssssssssssssssssssscssssssscssssssssssssssssssssssscssssssssssssssscssssssscssssssscssssssscssssssssssssssscssssssscssssssscssssssssssssssssssssssscsssssssc" />
    <path
       style="fill:#000000;fill-opacity:1;stroke:none;stroke-width:0.26913491;stroke-linecap:round;stroke-miterlimit:4;stroke-dasharray:none;stroke-opacity:1"
       d="M 133.63984,396.44861 C 133.63984,396.76712 133.51073,397.05548 133.302,397.26421 133.09327,397.47294 132.80491,397.60204 132.4864,397.60204 132.16789,397.60204 131.87953,397.47294 131.6708,397.26421 131.46207,397.05548 131.33297,396.76712 131.33297,396.44861 131.33297,396.1301 131.46207,395.84174 131.6708,395.63301 131.87953,395.42428 132.16789,395.29517 132.4864,395.29517 132.80491,395.29517 133.09327,395.42427 133.30201,395.633 133.51074,395.84174 133.63984,396.1301 133.63984,396.44861 Z"
       id="path4414"
       inkscape:connector-curvature="0"
       sodipodi:nodetypes="sssssssss" />
  </g>
  <g
     inkscape:groupmode="layer"
     id="layer2"
     inkscape:label="Layer 1"
     style="display:none" />
</svg>
