<?xml version="1.0" encoding="UTF-8" standalone="no"?>
<!-- Created with Inkscape (http://www.inkscape.org/) -->

<svg
   xmlns:dc="http://purl.org/dc/elements/1.1/"
   xmlns:cc="http://creativecommons.org/ns#"
   xmlns:rdf="http://www.w3.org/1999/02/22-rdf-syntax-ns#"
   xmlns:svg="http://www.w3.org/2000/svg"
   xmlns="http://www.w3.org/2000/svg"
   xmlns:sodipodi="http://sodipodi.sourceforge.net/DTD/sodipodi-0.dtd"
   xmlns:inkscape="http://www.inkscape.org/namespaces/inkscape"
   width="210mm"
   height="297mm"
   viewBox="0 0 744.09448819 1052.3622047"
   id="svg13688"
   version="1.1"
   inkscape:version="0.91 r13725"
   sodipodi:docname="name.svg">
  <defs
     id="defs13690" />
  <sodipodi:namedview
     id="base"
     pagecolor="#ffffff"
     bordercolor="#666666"
     borderopacity="1.0"
     inkscape:pageopacity="0.0"
     inkscape:pageshadow="2"
     inkscape:zoom="5.6"
     inkscape:cx="237.77981"
     inkscape:cy="590.30693"
     inkscape:document-units="px"
     inkscape:current-layer="text9055"
     showgrid="false"
     inkscape:window-width="1366"
     inkscape:window-height="754"
     inkscape:window-x="0"
     inkscape:window-y="14"
     inkscape:window-maximized="0" />
  <metadata
     id="metadata13693">
    <rdf:RDF>
      <cc:Work
         rdf:about="">
        <dc:format>image/svg+xml</dc:format>
        <dc:type
           rdf:resource="http://purl.org/dc/dcmitype/StillImage" />
        <dc:title />
      </cc:Work>
    </rdf:RDF>
  </metadata>
  <g
     inkscape:label="SilkS"
     inkscape:groupmode="layer"
     id="layer1">
    <g
       transform="translate(-188.483,114.56391)"
       style="font-style:normal;font-weight:normal;font-size:11.52333355px;line-height:125%;font-family:Sans;letter-spacing:-0.51443452px;word-spacing:0px;display:inline;fill:#000000;fill-opacity:1;stroke:none"
       id="text9055">
      <g
         style="font-style:normal;font-weight:normal;font-size:11.05550098px;line-height:1000%;font-family:sans-serif;letter-spacing:0px;word-spacing:0px;display:inline;fill:#000000;fill-opacity:1;stroke:#000000;stroke-width:0.27638754px;stroke-linecap:butt;stroke-linejoin:miter;stroke-opacity:1"
         id="text5292"
         transform="matrix(0.70912212,0,0,0.70912212,118.2162,103.46383)">
        <path
           d="M 407.53945,345.39687 407.53945,350.18943 407.79373,350.18943 Q 407.90428,350.18943 407.97614,350.16179 408.05353,350.12862 408.13645,350.03465 L 409.90533,348.13863 Q 409.98271,348.04466 410.06563,347.99491 410.15407,347.93963 410.2978,347.93963 L 411.18776,347.93963 409.12591,350.13415 Q 408.97666,350.32209 408.8053,350.42712 408.9048,350.49346 408.98219,350.5819 409.06511,350.66482 409.13697,350.77537 L 411.32596,353.53925 410.44705,353.53925 Q 410.31991,353.53925 410.22594,353.50055 410.13749,353.45633 410.07116,353.34577 L 408.23042,351.05176 Q 408.1475,350.93568 408.06459,350.90251 407.9872,350.86381 407.82136,350.86381 L 407.53945,350.86381 407.53945,353.53925 406.54998,353.53925 406.54998,345.39687 407.53945,345.39687 Z"
           style="font-style:normal;font-variant:normal;font-weight:normal;font-stretch:normal;font-family:Lato;-inkscape-font-specification:Lato;fill:#000000;stroke-width:0.27638754px"
           id="path5335"
           inkscape:connector-curvature="0" />
        <path
           d="M 413.20332,347.93963 413.20332,353.53925 412.21938,353.53925 412.21938,347.93963 413.20332,347.93963 Z M 413.41337,346.18181 Q 413.41337,346.32553 413.35257,346.45267 413.29729,346.57428 413.19779,346.67378 413.10382,346.76775 412.97115,346.82303 412.84402,346.87831 412.70029,346.87831 412.55657,346.87831 412.42944,346.82303 412.30782,346.76775 412.21385,346.67378 412.11988,346.57428 412.0646,346.45267 412.00933,346.32553 412.00933,346.18181 412.00933,346.03809 412.0646,345.91095 412.11988,345.77828 412.21385,345.68431 412.30782,345.58481 412.42944,345.52954 412.55657,345.47426 412.70029,345.47426 412.84402,345.47426 412.97115,345.52954 413.10382,345.58481 413.19779,345.68431 413.29729,345.77828 413.35257,345.91095 413.41337,346.03809 413.41337,346.18181 Z"
           style="font-style:normal;font-variant:normal;font-weight:normal;font-stretch:normal;font-family:Lato;-inkscape-font-specification:Lato;fill:#000000;stroke-width:0.27638754px"
           id="path5337"
           inkscape:connector-curvature="0" />
        <path
           d="M 416.53914,353.62769 Q 415.87581,353.62769 415.51651,353.25733 415.16274,352.88697 415.16274,352.19047 L 415.16274,348.76327 414.48835,348.76327 Q 414.39991,348.76327 414.3391,348.71352 414.2783,348.65824 414.2783,348.54769 L 414.2783,348.15522 415.1959,348.03913 415.42254,346.30895 Q 415.43912,346.22603 415.4944,346.17628 415.55521,346.121 415.64918,346.121 L 416.14667,346.121 416.14667,348.05019 417.76631,348.05019 417.76631,348.76327 416.14667,348.76327 416.14667,352.12414 Q 416.14667,352.47792 416.31803,352.64928 416.4894,352.82064 416.76025,352.82064 416.91503,352.82064 417.02559,352.78194 417.14167,352.73772 417.22459,352.68797 417.3075,352.63822 417.36278,352.59953 417.42359,352.55531 417.46781,352.55531 417.5452,352.55531 417.606,352.64928 L 417.89344,353.11914 Q 417.63917,353.35683 417.27986,353.49502 416.92056,353.62769 416.53914,353.62769 Z"
           style="font-style:normal;font-variant:normal;font-weight:normal;font-stretch:normal;font-family:Lato;-inkscape-font-specification:Lato;fill:#000000;stroke-width:0.27638754px"
           id="path5339"
           inkscape:connector-curvature="0" />
        <path
           d="M 422.05446,348.86277 Q 421.98812,348.98438 421.84993,348.98438 421.76701,348.98438 421.66199,348.92357 421.55696,348.86277 421.40218,348.79091 421.25293,348.71352 421.04288,348.65271 420.83282,348.58638 420.54538,348.58638 420.29663,348.58638 420.09763,348.65271 419.89863,348.71352 419.75491,348.82407 419.61672,348.93463 419.53933,349.08388 419.46747,349.2276 419.46747,349.39896 419.46747,349.61454 419.58908,349.75826 419.71622,349.90199 419.92075,350.00701 420.12527,350.11204 420.38508,350.19496 420.64488,350.27235 420.91574,350.36632 421.19213,350.45476 421.45193,350.56532 421.71174,350.67587 421.91626,350.8417 422.12079,351.00754 422.2424,351.25076 422.36954,351.48845 422.36954,351.82564 422.36954,352.21259 422.23135,352.54425 422.09315,352.87039 421.82229,353.11361 421.55143,353.3513 421.15896,353.4895 420.76649,353.62769 420.25241,353.62769 419.66647,353.62769 419.19108,353.43975 418.7157,353.24627 418.38403,352.94778 L 418.6162,352.57189 Q 418.66042,352.50003 418.72122,352.46133 418.78203,352.42264 418.876,352.42264 418.9755,352.42264 419.08606,352.50003 419.19661,352.57742 419.35139,352.67139 419.51169,352.76536 419.73833,352.84275 419.96497,352.92014 420.30216,352.92014 420.5896,352.92014 420.80519,352.84828 421.02077,352.77089 421.16449,352.64375 421.30821,352.51661 421.37454,352.35078 421.4464,352.18495 421.4464,351.997 421.4464,351.76484 421.31927,351.61559 421.19766,351.46081 420.99313,351.35578 420.7886,351.24523 420.52327,351.16784 420.26347,351.08492 419.98708,350.99648 419.71622,350.90804 419.45089,350.79748 419.19108,350.6814 418.98656,350.51004 418.78203,350.33868 418.65489,350.08993 418.53328,349.83565 418.53328,349.47635 418.53328,349.15574 418.66595,348.86277 418.79861,348.56427 419.05289,348.34316 419.30717,348.11652 419.67752,347.98386 420.04788,347.85119 420.52327,347.85119 421.07605,347.85119 421.51274,348.02808 421.95496,348.19944 422.27557,348.50346 L 422.05446,348.86277 Z"
           style="font-style:normal;font-variant:normal;font-weight:normal;font-stretch:normal;font-family:Lato;-inkscape-font-specification:Lato;fill:#000000;stroke-width:0.27638754px"
           id="path5341"
           inkscape:connector-curvature="0" />
        <path
           d="M 423.58668,355.43526 423.58668,347.93963 424.17815,347.93963 Q 424.3882,347.93963 424.43795,348.14416 L 424.52087,348.80749 Q 424.88017,348.3708 425.34451,348.10547 425.80884,347.84013 426.40583,347.84013 426.89228,347.84013 427.28475,348.02808 427.67722,348.21049 427.9536,348.57533 428.22999,348.93463 428.37924,349.47082 428.52849,350.00701 428.52849,350.70351 428.52849,351.32262 428.36266,351.85881 428.19682,352.38947 427.88174,352.78194 427.57219,353.16889 427.11891,353.39552 426.67117,353.61663 426.10734,353.61663 425.59325,353.61663 425.2229,353.44527 424.85806,353.27391 424.57615,352.95883 L 424.57615,355.43526 423.58668,355.43526 Z M 426.08522,348.63613 Q 425.60431,348.63613 425.23948,348.85724 424.88017,349.07835 424.57615,349.48188 L 424.57615,352.19047 Q 424.84148,352.55531 425.16209,352.70456 425.48823,352.8538 425.88623,352.8538 426.67117,352.8538 427.09127,352.2955 427.51138,351.7372 427.51138,350.70351 427.51138,350.15626 427.41188,349.76379 427.31791,349.37132 427.1355,349.12257 426.95308,348.8683 426.68775,348.75221 426.42242,348.63613 426.08522,348.63613 Z"
           style="font-style:normal;font-variant:normal;font-weight:normal;font-stretch:normal;font-family:Lato;-inkscape-font-specification:Lato;fill:#000000;stroke-width:0.27638754px"
           id="path5343"
           inkscape:connector-curvature="0" />
        <path
           d="M 433.34368,353.53925 Q 433.19996,353.53925 433.12257,353.49502 433.04518,353.44527 433.00096,353.30708 L 432.8904,352.78194 Q 432.66929,352.98094 432.45371,353.14125 432.24366,353.29602 432.01149,353.40658 431.78485,353.51161 431.51952,353.56688 431.25972,353.62769 430.93911,353.62769 430.61297,353.62769 430.32553,353.53925 430.03808,353.44527 429.8225,353.26286 429.61245,353.08044 429.48531,352.80405 429.3637,352.52214 429.3637,352.14072 429.3637,351.80906 429.54611,351.50503 429.72853,351.19548 430.13758,350.95779 430.54664,350.72009 431.20444,350.57084 431.86224,350.41607 432.81854,350.39396 L 432.81854,349.95726 Q 432.81854,349.30499 432.53663,348.97332 432.25471,348.63613 431.71299,348.63613 431.34816,348.63613 431.09941,348.7301 430.85619,348.81855 430.67378,348.93463 430.49689,349.04518 430.36422,349.13916 430.23708,349.2276 430.10994,349.2276 430.01045,349.2276 429.93858,349.17785 429.86672,349.12257 429.81697,349.04518 L 429.64009,348.7301 Q 430.10442,348.28235 430.64061,348.06124 431.1768,347.84013 431.82908,347.84013 432.29893,347.84013 432.66377,347.99491 433.0286,348.14969 433.27735,348.42608 433.52609,348.70246 433.65323,349.09493 433.78037,349.4874 433.78037,349.95726 L 433.78037,353.53925 433.34368,353.53925 Z M 431.23208,352.93672 Q 431.49188,352.93672 431.70746,352.88697 431.92305,352.83169 432.11099,352.73772 432.30446,352.63822 432.47582,352.50003 432.65271,352.35631 432.81854,352.17942 L 432.81854,351.01859 Q 432.13863,351.0407 431.65771,351.12915 431.18233,351.21206 430.8783,351.35026 430.5798,351.48845 430.44161,351.67639 430.30894,351.86434 430.30894,352.0965 430.30894,352.31761 430.3808,352.47792 430.45267,352.63822 430.57428,352.74325 430.70141,352.84275 430.86725,352.8925 431.03861,352.93672 431.23208,352.93672 Z"
           style="font-style:normal;font-variant:normal;font-weight:normal;font-stretch:normal;font-family:Lato;-inkscape-font-specification:Lato;fill:#000000;stroke-width:0.27638754px"
           id="path5345"
           inkscape:connector-curvature="0" />
        <path
           d="M 439.16544,348.93463 Q 439.12122,348.99543 439.07699,349.0286 439.03277,349.06177 438.95538,349.06177 438.87247,349.06177 438.77297,348.99543 438.67347,348.92357 438.52422,348.84066 438.3805,348.75774 438.16491,348.69141 437.95486,348.61955 437.64531,348.61955 437.23072,348.61955 436.91564,348.7688 436.60056,348.91252 436.38498,349.18891 436.17492,349.46529 436.06437,349.85776 435.95934,350.25023 435.95934,350.73668 435.95934,351.24523 436.07542,351.64323 436.19151,352.0357 436.40156,352.30656 436.61714,352.57189 436.91564,352.71561 437.21967,352.8538 437.59556,352.8538 437.95486,352.8538 438.18703,352.77089 438.41919,352.68244 438.56844,352.57742 438.72322,352.47239 438.82272,352.38947 438.92774,352.30103 439.02724,352.30103 439.14885,352.30103 439.21519,352.395 L 439.49157,352.75431 Q 439.30916,352.98094 439.07699,353.14125 438.84483,353.30155 438.57397,353.41211 438.30864,353.51713 438.01567,353.56688 437.72269,353.61663 437.41867,353.61663 436.89353,353.61663 436.44026,353.42316 435.99251,353.22969 435.66084,352.86486 435.32918,352.4945 435.14123,351.95831 434.95329,351.42212 434.95329,350.73668 434.95329,350.11204 435.12465,349.58138 435.30154,349.05071 435.6332,348.6693 435.9704,348.28235 436.45684,348.06677 436.94881,347.85119 437.5845,347.85119 438.17597,347.85119 438.62372,348.04466 439.07699,348.23261 439.42524,348.58085 L 439.16544,348.93463 Z"
           style="font-style:normal;font-variant:normal;font-weight:normal;font-stretch:normal;font-family:Lato;-inkscape-font-specification:Lato;fill:#000000;stroke-width:0.27638754px"
           id="path5347"
           inkscape:connector-curvature="0" />
        <path
           d="M 442.72306,347.85119 Q 443.22609,347.85119 443.65172,348.02255 444.08289,348.18838 444.39244,348.50899 444.70752,348.82407 444.88441,349.29393 445.0613,349.75826 445.0613,350.35526 445.0613,350.58743 445.01155,350.66482 444.9618,350.7422 444.82361,350.7422 L 441.08132,350.7422 Q 441.09237,351.27287 441.22504,351.66534 441.35771,352.05781 441.58987,352.32314 441.82204,352.58294 442.14265,352.71561 442.46326,352.84275 442.86125,352.84275 443.23161,352.84275 443.49695,352.75983 443.76781,352.67139 443.96128,352.57189 444.15475,352.47239 444.28189,352.38947 444.41455,352.30103 444.50852,352.30103 444.63013,352.30103 444.69647,352.395 L 444.97286,352.75431 Q 444.79044,352.97542 444.53616,353.14125 444.28189,353.30155 443.98892,353.40658 443.70147,353.51161 443.39192,353.56136 443.08236,353.61663 442.77834,353.61663 442.19792,353.61663 441.70595,353.42316 441.21951,353.22416 440.86021,352.84828 440.50643,352.46686 440.30743,351.90856 440.10843,351.35026 440.10843,350.62612 440.10843,350.04018 440.28532,349.53163 440.46774,349.02307 440.80493,348.65271 441.14212,348.27683 441.62857,348.06677 442.11501,347.85119 442.72306,347.85119 Z M 442.74517,348.57533 Q 442.03209,348.57533 441.62304,348.98991 441.21398,349.39896 441.11449,350.12862 L 444.17686,350.12862 Q 444.17686,349.7859 444.07736,349.50399 443.98339,349.21654 443.79544,349.01202 443.61303,348.80196 443.3477,348.69141 443.08236,348.57533 442.74517,348.57533 Z"
           style="font-style:normal;font-variant:normal;font-weight:normal;font-stretch:normal;font-family:Lato;-inkscape-font-specification:Lato;fill:#000000;stroke-width:0.27638754px"
           id="path5349"
           inkscape:connector-curvature="0" />
        <path
           d="M 446.09326,352.93119 Q 446.09326,352.78747 446.14301,352.66033 446.19829,352.5332 446.28673,352.43922 446.38071,352.34525 446.50784,352.28997 446.63498,352.2347 446.7787,352.2347 446.92243,352.2347 447.04956,352.28997 447.1767,352.34525 447.27067,352.43922 447.36465,352.5332 447.41992,352.66033 447.4752,352.78747 447.4752,352.93119 447.4752,353.08044 447.41992,353.20758 447.36465,353.32919 447.27067,353.42316 447.1767,353.51713 447.04956,353.56688 446.92243,353.62216 446.7787,353.62216 446.63498,353.62216 446.50784,353.56688 446.38071,353.51713 446.28673,353.42316 446.19829,353.32919 446.14301,353.20758 446.09326,353.08044 446.09326,352.93119 Z"
           style="font-style:normal;font-variant:normal;font-weight:normal;font-stretch:normal;font-family:Lato;-inkscape-font-specification:Lato;fill:#000000;stroke-width:0.27638754px"
           id="path5351"
           inkscape:connector-curvature="0" />
        <path
           d="M 451.23217,347.85119 Q 451.84575,347.85119 452.33772,348.05572 452.82969,348.26024 453.17794,348.63613 453.52619,349.01202 453.7086,349.54821 453.89655,350.07887 453.89655,350.73668 453.89655,351.40001 453.7086,351.93067 453.52619,352.46133 453.17794,352.83722 452.82969,353.21311 452.33772,353.41764 451.84575,353.61663 451.23217,353.61663 450.61306,353.61663 450.11556,353.41764 449.62359,353.21311 449.27535,352.83722 448.9271,352.46133 448.73915,351.93067 448.55674,351.40001 448.55674,350.73668 448.55674,350.07887 448.73915,349.54821 448.9271,349.01202 449.27535,348.63613 449.62359,348.26024 450.11556,348.05572 450.61306,347.85119 451.23217,347.85119 Z M 451.23217,352.84828 Q 452.06133,352.84828 452.47039,352.2955 452.87944,351.7372 452.87944,350.7422 452.87944,349.74168 452.47039,349.18338 452.06133,348.62508 451.23217,348.62508 450.81206,348.62508 450.49698,348.7688 450.18742,348.91252 449.97737,349.18338 449.77284,349.45424 449.66782,349.85224 449.56832,350.24471 449.56832,350.7422 449.56832,351.7372 449.97737,352.2955 450.39195,352.84828 451.23217,352.84828 Z"
           style="font-style:normal;font-variant:normal;font-weight:normal;font-stretch:normal;font-family:Lato;-inkscape-font-specification:Lato;fill:#000000;stroke-width:0.27638754px"
           id="path5353"
           inkscape:connector-curvature="0" />
        <path
           d="M 455.13373,353.53925 455.13373,347.93963 455.69756,347.93963 Q 455.85786,347.93963 455.91867,348.00044 455.97947,348.06124 456.00158,348.21049 L 456.06239,349.06177 Q 456.32772,348.48688 456.71466,348.16627 457.10713,347.84013 457.66544,347.84013 457.84232,347.84013 458.00263,347.87883 458.16846,347.91752 458.2956,348.00044 L 458.22374,348.73563 Q 458.19057,348.87382 458.05791,348.87382 457.98052,348.87382 457.83127,348.84066 457.68202,348.80749 457.49408,348.80749 457.22874,348.80749 457.01869,348.89041 456.80863,348.9678 456.6428,349.12257 456.4825,349.27182 456.35536,349.49293 456.22822,349.71404 456.12319,350.00149 L 456.12319,353.53925 455.13373,353.53925 Z"
           style="font-style:normal;font-variant:normal;font-weight:normal;font-stretch:normal;font-family:Lato;-inkscape-font-specification:Lato;fill:#000000;stroke-width:0.27638754px"
           id="path5355"
           inkscape:connector-curvature="0" />
        <path
           d="M 460.95013,347.84566 Q 461.31496,347.84566 461.63004,347.92858 461.94513,348.00597 462.20493,348.16074 L 463.72506,348.16074 463.72506,348.52558 Q 463.72506,348.70799 463.4929,348.75774 L 462.8572,348.84619 Q 463.04515,349.20549 463.04515,349.64771 463.04515,350.05676 462.88484,350.39396 462.73007,350.72562 462.45368,350.96331 462.17729,351.20101 461.79035,351.32815 461.40341,351.45528 460.95013,351.45528 460.55213,351.45528 460.20388,351.36131 460.027,351.47187 459.93302,351.59901 459.84458,351.72614 459.84458,351.84775 459.84458,352.04675 460.00488,352.15178 460.17072,352.25128 460.43605,352.2955 460.70138,352.33972 461.03857,352.35078 461.38129,352.36183 461.73507,352.38947 462.09437,352.41158 462.43157,352.47239 462.77429,352.5332 463.03962,352.67139 463.30495,352.80958 463.46526,353.0528 463.63109,353.29602 463.63109,353.68297 463.63109,354.04227 463.44867,354.37946 463.27179,354.71666 462.93459,354.97646 462.5974,355.24179 462.10543,355.39657 461.61899,355.55687 461.00541,355.55687 460.39183,355.55687 459.93302,355.43526 459.47422,355.31365 459.17019,355.10913 458.86617,354.9046 458.71139,354.63374 458.56214,354.36841 458.56214,354.07544 458.56214,353.66086 458.82195,353.37341 459.08175,353.08597 459.5295,352.91461 459.28075,352.80405 459.13703,352.62164 458.99331,352.4337 458.99331,352.11861 458.99331,351.997 459.03753,351.86986 459.08175,351.7372 459.17019,351.61006 459.26417,351.48292 459.39683,351.36684 459.5295,351.25076 459.70639,351.16231 459.2918,350.93015 459.05964,350.5432 458.82747,350.15626 458.82747,349.64771 458.82747,349.23866 458.98225,348.90699 459.14256,348.5698 459.42447,348.33763 459.70639,348.09994 460.09333,347.9728 460.4858,347.84566 460.95013,347.84566 Z M 462.72454,353.84327 Q 462.72454,353.63875 462.60846,353.51161 462.49237,353.38447 462.29337,353.31261 462.0999,353.24075 461.8401,353.21311 461.58029,353.17994 461.28732,353.16336 460.99988,353.14678 460.70138,353.13019 460.40288,353.11361 460.1265,353.07491 459.81694,353.21864 459.61794,353.43422 459.42447,353.6498 459.42447,353.9483 459.42447,354.13624 459.51844,354.29655 459.61794,354.46238 459.81694,354.57846 460.01594,354.70007 460.31444,354.76641 460.61847,354.83827 461.02752,354.83827 461.42552,354.83827 461.7406,354.76641 462.05568,354.69455 462.27126,354.56188 462.49237,354.42921 462.60846,354.2468 462.72454,354.06438 462.72454,353.84327 Z M 460.95013,350.80301 Q 461.24863,350.80301 461.47527,350.72009 461.7019,350.63718 461.85668,350.48793 462.01146,350.33868 462.08885,350.13415 462.16624,349.9241 462.16624,349.67535 462.16624,349.16127 461.85115,348.85724 461.5416,348.55321 460.95013,348.55321 460.35313,348.55321 460.03805,348.85724 459.7285,349.16127 459.7285,349.67535 459.7285,349.9241 459.80589,350.13415 459.8888,350.33868 460.04358,350.48793 460.19836,350.63718 460.42499,350.72009 460.65163,350.80301 460.95013,350.80301 Z"
           style="font-style:normal;font-variant:normal;font-weight:normal;font-stretch:normal;font-family:Lato;-inkscape-font-specification:Lato;fill:#000000;stroke-width:0.27638754px"
           id="path5357"
           inkscape:connector-curvature="0" />
        <path
           d="M 465.28423,353.65533 Q 465.21237,353.8488 465.05759,353.94277 464.90834,354.03674 464.74804,354.03674 L 464.33346,354.03674 467.65563,345.7617 Q 467.72197,345.58481 467.85463,345.49084 467.99283,345.39687 468.16971,345.39687 L 468.58982,345.39687 465.28423,353.65533 Z"
           style="font-style:normal;font-variant:normal;font-weight:normal;font-stretch:normal;font-family:Lato;-inkscape-font-specification:Lato;fill:#000000;stroke-width:0.27638754px"
           id="path5359"
           inkscape:connector-curvature="0" />
        <path
           d="M 470.76966,347.93963 470.76966,353.95383 Q 470.76966,354.29102 470.68122,354.57846 470.59277,354.87143 470.3993,355.08702 470.20583,355.3026 469.9018,355.42421 469.60331,355.55135 469.1832,355.55135 469.00631,355.55135 468.85706,355.52371 468.70781,355.49607 468.55856,355.44079 L 468.59725,354.91013 Q 468.60831,354.86038 468.63595,354.83274 468.65806,354.81063 468.70228,354.8051 468.7465,354.79957 468.81836,354.79957 468.8847,354.8051 468.98972,354.8051 469.42089,354.8051 469.60331,354.60057 469.78572,354.40157 469.78572,353.95383 L 469.78572,347.93963 470.76966,347.93963 Z M 470.97419,346.18181 Q 470.97419,346.32553 470.91338,346.45267 470.8581,346.57428 470.75861,346.67378 470.66463,346.76775 470.5375,346.82303 470.41036,346.87831 470.26664,346.87831 470.12291,346.87831 469.99578,346.82303 469.87417,346.76775 469.78019,346.67378 469.68622,346.57428 469.63094,346.45267 469.57567,346.32553 469.57567,346.18181 469.57567,346.03809 469.63094,345.91095 469.68622,345.77828 469.78019,345.68431 469.87417,345.58481 469.99578,345.52954 470.12291,345.47426 470.26664,345.47426 470.41036,345.47426 470.5375,345.52954 470.66463,345.58481 470.75861,345.68431 470.8581,345.77828 470.91338,345.91095 470.97419,346.03809 470.97419,346.18181 Z"
           style="font-style:normal;font-variant:normal;font-weight:normal;font-stretch:normal;font-family:Lato;-inkscape-font-specification:Lato;fill:#000000;stroke-width:0.27638754px"
           id="path5361"
           inkscape:connector-curvature="0" />
        <path
           d="M 474.68037,347.85119 Q 475.1834,347.85119 475.60903,348.02255 476.0402,348.18838 476.34975,348.50899 476.66483,348.82407 476.84172,349.29393 477.01861,349.75826 477.01861,350.35526 477.01861,350.58743 476.96886,350.66482 476.91911,350.7422 476.78092,350.7422 L 473.03863,350.7422 Q 473.04968,351.27287 473.18235,351.66534 473.31502,352.05781 473.54718,352.32314 473.77935,352.58294 474.09996,352.71561 474.42057,352.84275 474.81856,352.84275 475.18892,352.84275 475.45426,352.75983 475.72512,352.67139 475.91859,352.57189 476.11206,352.47239 476.2392,352.38947 476.37186,352.30103 476.46583,352.30103 476.58744,352.30103 476.65378,352.395 L 476.93016,352.75431 Q 476.74775,352.97542 476.49347,353.14125 476.2392,353.30155 475.94623,353.40658 475.65878,353.51161 475.34923,353.56136 475.03967,353.61663 474.73565,353.61663 474.15523,353.61663 473.66326,353.42316 473.17682,353.22416 472.81752,352.84828 472.46374,352.46686 472.26474,351.90856 472.06574,351.35026 472.06574,350.62612 472.06574,350.04018 472.24263,349.53163 472.42505,349.02307 472.76224,348.65271 473.09943,348.27683 473.58588,348.06677 474.07232,347.85119 474.68037,347.85119 Z M 474.70248,348.57533 Q 473.9894,348.57533 473.58035,348.98991 473.17129,349.39896 473.0718,350.12862 L 476.13417,350.12862 Q 476.13417,349.7859 476.03467,349.50399 475.9407,349.21654 475.75275,349.01202 475.57034,348.80196 475.30501,348.69141 475.03967,348.57533 474.70248,348.57533 Z"
           style="font-style:normal;font-variant:normal;font-weight:normal;font-stretch:normal;font-family:Lato;-inkscape-font-specification:Lato;fill:#000000;stroke-width:0.27638754px"
           id="path5363"
           inkscape:connector-curvature="0" />
        <path
           d="M 479.23351,345.39687 479.23351,353.53925 478.24957,353.53925 478.24957,345.39687 479.23351,345.39687 Z"
           style="font-style:normal;font-variant:normal;font-weight:normal;font-stretch:normal;font-family:Lato;-inkscape-font-specification:Lato;fill:#000000;stroke-width:0.27638754px"
           id="path5365"
           inkscape:connector-curvature="0" />
        <path
           d="M 481.84623,345.39687 481.84623,353.53925 480.86229,353.53925 480.86229,345.39687 481.84623,345.39687 Z"
           style="font-style:normal;font-variant:normal;font-weight:normal;font-stretch:normal;font-family:Lato;-inkscape-font-specification:Lato;fill:#000000;stroke-width:0.27638754px"
           id="path5367"
           inkscape:connector-curvature="0" />
        <path
           d="M 485.14993,355.19204 Q 485.10018,355.3026 485.02279,355.36893 484.95093,355.43526 484.79616,355.43526 L 484.06649,355.43526 485.08913,353.21311 482.77853,347.93963 483.6298,347.93963 Q 483.75694,347.93963 483.8288,348.00597 483.90619,348.06677 483.93383,348.14416 L 485.43185,351.67087 Q 485.47607,351.798 485.51476,351.91961 485.55346,352.0357 485.5811,352.16284 485.65296,351.91409 485.74693,351.66534 L 487.20073,348.14416 Q 487.23389,348.05572 487.31128,348.00044 487.3942,347.93963 487.4937,347.93963 L 488.27311,347.93963 485.14993,355.19204 Z"
           style="font-style:normal;font-variant:normal;font-weight:normal;font-stretch:normal;font-family:Lato;-inkscape-font-specification:Lato;fill:#000000;stroke-width:0.27638754px"
           id="path5369"
           inkscape:connector-curvature="0" />
      </g>
    </g>
  </g>
</svg>
