<?xml version="1.0" encoding="UTF-8" standalone="no"?>
<!-- Created with Inkscape (http://www.inkscape.org/) -->

<svg
   xmlns:dc="http://purl.org/dc/elements/1.1/"
   xmlns:cc="http://creativecommons.org/ns#"
   xmlns:rdf="http://www.w3.org/1999/02/22-rdf-syntax-ns#"
   xmlns:svg="http://www.w3.org/2000/svg"
   xmlns="http://www.w3.org/2000/svg"
   xmlns:sodipodi="http://sodipodi.sourceforge.net/DTD/sodipodi-0.dtd"
   xmlns:inkscape="http://www.inkscape.org/namespaces/inkscape"
   width="210mm"
   height="297mm"
   viewBox="0 0 744.09448819 1052.3622047"
   id="svg13688"
   version="1.1"
   inkscape:version="0.91 r13725"
   sodipodi:docname="name.svg">
  <defs
     id="defs13690" />
  <sodipodi:namedview
     id="base"
     pagecolor="#ffffff"
     bordercolor="#666666"
     borderopacity="1.0"
     inkscape:pageopacity="0.0"
     inkscape:pageshadow="2"
     inkscape:zoom="7.9195959"
     inkscape:cx="259.1119"
     inkscape:cy="589.66313"
     inkscape:document-units="px"
     inkscape:current-layer="text9055"
     showgrid="false"
     inkscape:window-width="1366"
     inkscape:window-height="754"
     inkscape:window-x="0"
     inkscape:window-y="14"
     inkscape:window-maximized="0" />
  <metadata
     id="metadata13693">
    <rdf:RDF>
      <cc:Work
         rdf:about="">
        <dc:format>image/svg+xml</dc:format>
        <dc:type
           rdf:resource="http://purl.org/dc/dcmitype/StillImage" />
        <dc:title />
      </cc:Work>
    </rdf:RDF>
  </metadata>
  <g
     inkscape:label="SilkS"
     inkscape:groupmode="layer"
     id="layer1">
    <g
       transform="translate(-188.483,114.56391)"
       style="font-style:normal;font-weight:normal;font-size:11.52333355px;line-height:125%;font-family:Sans;letter-spacing:-0.51443452px;word-spacing:0px;display:inline;fill:#000000;fill-opacity:1;stroke:none"
       id="text9055">
      <path
         style="font-style:normal;font-variant:normal;font-weight:bold;font-stretch:normal;font-size:11.52333355px;font-family:'Noto Sans';-inkscape-font-specification:'Noto Sans Bold';letter-spacing:0px;fill:#000000"
         d="M 396.52536,355.14371 397.27371,354.18718 399.03484,352.27413 400.9704,352.27413 398.47218,355.00304 401.12232,358.5647 399.14175,358.5647 397.32997,356.01583 396.59288,356.60663 396.59288,358.5647 394.87676,358.5647 394.87676,349.80966 396.59288,349.80966 396.59288,353.71454 396.50288,355.14371 396.52538,355.14371 Z"
         id="path13152" />
      <path
         style="font-style:normal;font-variant:normal;font-weight:bold;font-stretch:normal;font-size:11.52333355px;font-family:'Noto Sans';-inkscape-font-specification:'Noto Sans Bold';letter-spacing:0px;fill:#000000"
         d="M 401.96069,350.64803 Q 401.96069,349.80966 402.89471,349.80966 403.82873,349.80966 403.82873,350.64803 403.82873,351.04752 403.59241,351.27259 403.36172,351.49203 402.89471,351.49203 401.96069,351.49203 401.96069,350.64803 Z"
         id="path9360" />
      <path
         style="font-style:normal;font-variant:normal;font-weight:bold;font-stretch:normal;font-size:11.52333355px;font-family:'Noto Sans';-inkscape-font-specification:'Noto Sans Bold';letter-spacing:0px;fill:#000000"
         d="M 403.74995,358.5647 402.03383,358.5647 402.03383,352.27413 403.74995,352.27413 403.74995,358.5647 Z"
         id="path13154" />
      <path
         style="font-style:normal;font-variant:normal;font-weight:bold;font-stretch:normal;font-size:11.52333355px;font-family:'Noto Sans';-inkscape-font-specification:'Noto Sans Bold';letter-spacing:0px;fill:#000000"
         d="M 408.19499,357.30996 Q 408.64512,357.30996 409.2753,357.11303 L 409.2753,358.39027 Q 408.63387,358.67723 407.69985,358.67723 406.67017,358.67723 406.19754,358.15958 405.73053,357.6363 405.73053,356.59538 L 405.73053,353.56263 404.90904,353.56263 404.90904,352.83679 405.85431,352.26287 406.34946,350.93499 407.44665,350.93499 407.44665,352.27413 409.20778,352.27413 409.20778,353.56263 407.44665,353.56263 407.44665,356.59538 Q 407.44665,356.96111 407.64921,357.13553 407.85739,357.30996 408.19499,357.30996 Z"
         id="path13156" />
      <path
         style="font-style:normal;font-variant:normal;font-weight:bold;font-stretch:normal;font-size:11.52333355px;font-family:'Noto Sans';-inkscape-font-specification:'Noto Sans Bold';letter-spacing:0px;fill:#000000"
         d="M 416.34797,358.5647 414.63185,358.5647 414.63185,354.89051 Q 414.63185,354.20969 414.38991,353.87209 414.14796,353.52887 413.61906,353.52887 412.89885,353.52887 412.57813,354.01276 412.25742,354.49102 412.25742,355.60509 L 412.25742,358.5647 410.54129,358.5647 410.54129,352.27413 411.8523,352.27413 412.08299,353.07874 412.17859,353.07874 Q 412.46555,352.62298 412.96632,352.39229 413.47272,352.15597 414.11415,352.15597 415.21134,352.15597 415.77963,352.75239 416.34792,353.34319 416.34792,354.46289 L 416.34792,358.5647 Z"
         id="path13158" />
      <path
         style="font-style:normal;font-variant:normal;font-weight:bold;font-stretch:normal;font-size:11.52333355px;font-family:'Noto Sans';-inkscape-font-specification:'Noto Sans Bold';letter-spacing:0px;fill:#000000"
         d="M 418.05284,350.64803 Q 418.05284,349.80966 418.98686,349.80966 419.92088,349.80966 419.92088,350.64803 419.92088,351.04752 419.68456,351.27259 419.45387,351.49203 418.98686,351.49203 418.05284,351.49203 418.05284,350.64803 Z"
         id="path9352" />
      <path
         style="font-style:normal;font-variant:normal;font-weight:bold;font-stretch:normal;font-size:11.52333355px;font-family:'Noto Sans';-inkscape-font-specification:'Noto Sans Bold';letter-spacing:0px;fill:#000000"
         d="M 419.84211,358.5647 418.12599,358.5647 418.12599,352.27413 419.84211,352.27413 419.84211,358.5647 Z"
         id="path13160" />
      <path
         style="font-style:normal;font-variant:normal;font-weight:bold;font-stretch:normal;font-size:11.52333355px;font-family:'Noto Sans';-inkscape-font-specification:'Noto Sans Bold';letter-spacing:0px;fill:#000000"
         d="M 424.19149,358.67723 Q 421.25439,358.67723 421.25439,355.45317 421.25439,353.84958 422.05337,353.00559 422.85236,352.15597 424.34341,352.15597 425.43498,352.15597 426.30148,352.58359 L 425.79508,353.91148 Q 425.38997,353.7483 425.04111,353.64702 424.69226,353.54012 424.34341,353.54012 423.00427,353.54012 423.00427,355.44192 423.00427,357.28745 424.34341,357.28745 424.83856,357.28745 425.26055,357.15804 425.68255,357.023 426.10455,356.74167 L 426.10455,358.21022 Q 425.68818,358.47467 425.26055,358.57595 424.83856,358.67723 424.19149,358.67723 Z"
         id="path13162" />
      <path
         style="font-style:normal;font-variant:normal;font-weight:bold;font-stretch:normal;font-size:11.52333355px;font-family:'Noto Sans';-inkscape-font-specification:'Noto Sans Bold';letter-spacing:0px;fill:#000000"
         d="M 427.31427,357.76009 Q 427.31427,357.49564 427.38737,357.31559 427.46617,357.12991 427.60118,357.01737 427.73622,356.90484 427.91627,356.8542 428.09632,356.8036 428.30451,356.8036 428.50144,356.8036 428.67587,356.8542 428.85592,356.9048 428.99096,357.01737 429.126,357.12991 429.20477,357.31559 429.28357,357.49564 429.28357,357.76009 429.28357,358.01329 429.20477,358.19334 429.12597,358.37339 428.99096,358.49155 428.85592,358.60971 428.67587,358.66035 428.50144,358.71665 428.30451,358.71665 428.09632,358.71665 427.91627,358.66035 427.73622,358.60975 427.60118,358.49155 427.46614,358.37339 427.38737,358.19334 427.31427,358.01329 427.31427,357.76009 Z"
         id="path13164" />
      <path
         style="font-style:normal;font-variant:normal;font-weight:bold;font-stretch:normal;font-size:11.52333355px;font-family:'Noto Sans';-inkscape-font-specification:'Noto Sans Bold';letter-spacing:0px;fill:#000000"
         d="M 430.76902,350.64803 Q 430.76902,349.80966 431.70304,349.80966 432.63706,349.80966 432.63706,350.64803 432.63706,351.04752 432.40074,351.27259 432.17005,351.49203 431.70304,351.49203 430.76902,351.49203 430.76902,350.64803 Z"
         id="path9344" />
      <path
         style="font-style:normal;font-variant:normal;font-weight:bold;font-stretch:normal;font-size:11.52333355px;font-family:'Noto Sans';-inkscape-font-specification:'Noto Sans Bold';letter-spacing:0px;fill:#000000"
         d="M 432.55829,358.5647 430.84217,358.5647 430.84217,352.27413 432.55829,352.27413 432.55829,358.5647 Z"
         id="path13166" />
      <path
         style="font-style:normal;font-variant:normal;font-weight:bold;font-stretch:normal;font-size:11.52333355px;font-family:'Noto Sans';-inkscape-font-specification:'Noto Sans Bold';letter-spacing:0px;fill:#000000"
         d="M 437.00332,357.30996 Q 437.45346,357.30996 438.08364,357.11303 L 438.08364,358.39027 Q 437.4422,358.67723 436.50818,358.67723 435.47851,358.67723 435.00587,358.15958 434.53886,357.6363 434.53886,356.59538 L 434.53886,353.56263 433.71737,353.56263 433.71737,352.83679 434.66265,352.26287 435.15779,350.93499 436.25498,350.93499 436.25498,352.27413 438.01612,352.27413 438.01612,353.56263 436.25498,353.56263 436.25498,356.59538 Q 436.25498,356.96111 436.45754,357.13553 436.66573,357.30996 437.00332,357.30996 Z"
         id="path13168" />
      <path
         style="font-style:normal;font-variant:normal;font-weight:bold;font-stretch:normal;font-size:11.52333355px;font-family:'Noto Sans';-inkscape-font-specification:'Noto Sans Bold';letter-spacing:0px;fill:#000000"
         d="M 443.47957,348.9713 440.32866,360.47212 438.85448,360.47212 442.0054,348.9713 443.47957,348.9713 Z"
         id="path9338" />
      <path
         style="font-style:normal;font-variant:normal;font-weight:bold;font-stretch:normal;font-size:11.52333355px;font-family:'Noto Sans';-inkscape-font-specification:'Noto Sans Bold';letter-spacing:0px;fill:#000000"
         d="M 440.99823,351.39637 440.99823,351.39637 Z"
         id="path9336" />
      <path
         style="font-style:normal;font-variant:normal;font-weight:bold;font-stretch:normal;font-size:11.52333355px;font-family:'Noto Sans';-inkscape-font-specification:'Noto Sans Bold';letter-spacing:0px;fill:#000000"
         d="M 440.97013,348.23421 440.97013,348.23421 Z"
         id="path9334" />
      <path
         style="font-style:normal;font-variant:normal;font-weight:bold;font-stretch:normal;font-size:11.52333355px;font-family:'Noto Sans';-inkscape-font-specification:'Noto Sans Bold';letter-spacing:0px;fill:#000000"
         d="M 441.14455,361.64809 441.14455,361.64809 Z"
         id="path13170" />
      <path
         style="font-style:normal;font-variant:normal;font-weight:bold;font-stretch:normal;font-size:11.52333355px;font-family:'Noto Sans';-inkscape-font-specification:'Noto Sans Bold';letter-spacing:0px;fill:#000000"
         d="M 444.28981,361.333 Q 443.63149,361.333 443.15885,361.19233 L 443.15885,359.84194 Q 443.55272,359.94885 443.96346,359.94885 444.39671,359.94885 444.59364,359.7069 444.7962,359.46496 444.7962,358.99232 L 444.7962,352.27413 446.51232,352.27413 446.51232,359.24552 Q 446.51232,360.24706 445.93278,360.78722 445.35324,361.333 444.28981,361.333 Z"
         id="path9330" />
      <path
         style="font-style:normal;font-variant:normal;font-weight:bold;font-stretch:normal;font-size:11.52333355px;font-family:'Noto Sans';-inkscape-font-specification:'Noto Sans Bold';letter-spacing:0px;fill:#000000"
         d="M 444.72306,350.64803 Q 444.72306,349.80966 445.65708,349.80966 446.5911,349.80966 446.5911,350.64803 446.5911,351.04752 446.35478,351.27259 446.12409,351.49203 445.65708,351.49203 444.72306,351.49203 444.72306,350.64803 Z"
         id="path13172" />
      <path
         inkscape:connector-curvature="0"
         d="m 450.91235,353.37695 q -0.54578,0 -0.85525,0.34885 -0.30946,0.34322 -0.35448,0.97903 l 2.4082,0 q -0.0112,-0.63581 -0.33197,-0.97903 -0.32072,-0.34885 -0.8665,-0.34885 z m 0.24194,5.30028 q -1.51919,0 -2.37443,-0.83837 -0.85525,-0.83837 -0.85525,-2.37443 0,-1.58109 0.78773,-2.44196 0.79335,-0.8665 2.18876,-0.8665 1.33351,0 2.07622,0.75959 0.74272,0.7596 0.74272,2.09874 l 0,0.83274 -4.0568,0 q 0.0281,0.73146 0.43325,1.1422 0.40511,0.41075 1.13658,0.41075 0.56829,0 1.07468,-0.11816 0.5064,-0.11816 1.05781,-0.37699 l 0,1.32789 q -0.45013,0.22506 -0.96216,0.33197 -0.51202,0.11253 -1.24911,0.11253 z"
         style="font-style:normal;font-variant:normal;font-weight:bold;font-stretch:normal;font-size:11.52333355px;font-family:'Noto Sans';-inkscape-font-specification:'Noto Sans Bold';letter-spacing:0px;fill:#000000"
         id="path13174" />
      <path
         style="font-style:normal;font-variant:normal;font-weight:bold;font-stretch:normal;font-size:11.52333355px;font-family:'Noto Sans';-inkscape-font-specification:'Noto Sans Bold';letter-spacing:0px;fill:#000000"
         d="M 456.84281,358.5647 455.12669,358.5647 455.12669,349.80966 456.84281,349.80966 456.84281,358.5647 Z"
         id="path13176" />
      <path
         style="font-style:normal;font-variant:normal;font-weight:bold;font-stretch:normal;font-size:11.52333355px;font-family:'Noto Sans';-inkscape-font-specification:'Noto Sans Bold';letter-spacing:0px;fill:#000000"
         d="M 460.35383,358.5647 458.63771,358.5647 458.63771,349.80966 460.35383,349.80966 460.35383,358.5647 Z"
         id="path13178" />
      <path
         style="font-style:normal;font-variant:normal;font-weight:bold;font-stretch:normal;font-size:11.52333355px;font-family:'Noto Sans';-inkscape-font-specification:'Noto Sans Bold';letter-spacing:0px;fill:#000000"
         d="M 461.24846,352.27413 463.12775,352.27413 464.31497,355.81328 Q 464.46689,356.27466 464.52316,356.90484 L 464.55696,356.90484 Q 464.61886,356.3253 464.7989,355.81328 L 465.96361,352.27413 467.80352,352.27413 465.14213,359.36931 Q 464.77639,360.35396 464.09557,360.84348 463.42038,361.333 462.51449,361.333 462.06999,361.333 461.64236,361.2373 L 461.64236,359.87565 Q 461.95183,359.94875 462.31756,359.94875 462.77331,359.94875 463.11091,359.66742 463.45414,359.39171 463.64544,358.82905 L 463.74672,358.51958 461.2485,352.27403 Z"
         id="path13180" />
    </g>
  </g>
</svg>
