<?xml version="1.0" encoding="UTF-8" standalone="no"?>
<!-- Created with Inkscape (http://www.inkscape.org/) -->

<svg
   xmlns:dc="http://purl.org/dc/elements/1.1/"
   xmlns:cc="http://creativecommons.org/ns#"
   xmlns:rdf="http://www.w3.org/1999/02/22-rdf-syntax-ns#"
   xmlns:svg="http://www.w3.org/2000/svg"
   xmlns="http://www.w3.org/2000/svg"
   xmlns:sodipodi="http://sodipodi.sourceforge.net/DTD/sodipodi-0.dtd"
   xmlns:inkscape="http://www.inkscape.org/namespaces/inkscape"
   width="210mm"
   height="297mm"
   viewBox="0 0 744.09448819 1052.3622047"
   id="svg13688"
   version="1.1"
   inkscape:version="0.91 r13725"
   sodipodi:docname="name.svg">
  <defs
     id="defs13690" />
  <sodipodi:namedview
     id="base"
     pagecolor="#ffffff"
     bordercolor="#666666"
     borderopacity="1.0"
     inkscape:pageopacity="0.0"
     inkscape:pageshadow="2"
     inkscape:zoom="15.839192"
     inkscape:cx="227.90964"
     inkscape:cy="593.22555"
     inkscape:document-units="px"
     inkscape:current-layer="text9055"
     showgrid="false"
     inkscape:window-width="1366"
     inkscape:window-height="754"
     inkscape:window-x="0"
     inkscape:window-y="14"
     inkscape:window-maximized="0" />
  <metadata
     id="metadata13693">
    <rdf:RDF>
      <cc:Work
         rdf:about="">
        <dc:format>image/svg+xml</dc:format>
        <dc:type
           rdf:resource="http://purl.org/dc/dcmitype/StillImage" />
        <dc:title />
      </cc:Work>
    </rdf:RDF>
  </metadata>
  <g
     inkscape:label="SilkS"
     inkscape:groupmode="layer"
     id="layer1">
    <g
       transform="translate(-188.483,114.56391)"
       style="font-style:normal;font-weight:normal;font-size:11.52333355px;line-height:125%;font-family:Sans;letter-spacing:-0.51443452px;word-spacing:0px;display:inline;fill:#000000;fill-opacity:1;stroke:none"
       id="text9055">
      <path
         inkscape:connector-curvature="0"
         id="path5335"
         style="font-style:normal;font-variant:normal;font-weight:normal;font-stretch:normal;font-size:medium;line-height:1000%;font-family:Lato;-inkscape-font-specification:Lato;letter-spacing:0px;word-spacing:0px;fill:#000000;fill-opacity:1;stroke:#000000;stroke-width:0.16064993px;stroke-linecap:butt;stroke-linejoin:miter;stroke-opacity:1"
         d="M 407.06723,349.70926 407.06723,352.49493 407.21503,352.49493 Q 407.27929,352.49493 407.32105,352.47886 407.36604,352.45958 407.41424,352.40496 L 408.4424,351.3029 Q 408.48737,351.24829 408.53557,351.21937 408.58698,351.18724 408.67052,351.18724 L 409.18781,351.18724 407.98936,352.4628 Q 407.90261,352.57204 407.80301,352.63309 407.86084,352.67164 407.90582,352.72305 407.95402,352.77125 407.99579,352.83551 L 409.26814,354.44201 408.75727,354.44201 Q 408.68337,354.44201 408.62876,354.41951 408.57734,354.39381 408.53879,354.32954 L 407.46886,352.99615 Q 407.42066,352.92868 407.37247,352.90941 407.32749,352.88691 407.2311,352.88691 L 407.06723,352.88691 407.06723,354.44201 406.4921,354.44201 406.4921,349.70926 407.06723,349.70926 Z" />
      <path
         style="font-style:normal;font-variant:normal;font-weight:normal;font-stretch:normal;font-size:medium;line-height:1000%;font-family:Lato;-inkscape-font-specification:Lato;letter-spacing:0px;word-spacing:0px;fill:#000000;fill-opacity:1;stroke:#000000;stroke-width:0.16064993px;stroke-linecap:butt;stroke-linejoin:miter;stroke-opacity:1"
         d="M 410.35935,351.18724 410.35935,354.44201 409.78744,354.44201 409.78744,351.18724 410.35935,351.18724 Z"
         id="path4185"
         inkscape:connector-curvature="0" />
      <path
         style="font-style:normal;font-variant:normal;font-weight:normal;font-stretch:normal;font-size:medium;line-height:1000%;font-family:Lato;-inkscape-font-specification:Lato;letter-spacing:0px;word-spacing:0px;fill:#000000;fill-opacity:1;stroke:#000000;stroke-width:0.16064993px;stroke-linecap:butt;stroke-linejoin:miter;stroke-opacity:1"
         d="M 410.48144,350.1655 Q 410.48144,350.24904 410.4461,350.32294 410.41397,350.39363 410.35613,350.45146 410.30152,350.50608 410.22441,350.53821 410.15051,350.57035 410.06697,350.57035 409.98343,350.57035 409.90953,350.53821 409.83884,350.50608 409.78423,350.45146 409.7296,350.39363 409.69747,350.32294 409.66534,350.24904 409.66534,350.1655 409.66534,350.08197 409.69747,350.00806 409.7296,349.93095 409.78423,349.87634 409.83884,349.8185 409.90953,349.78637 409.98343,349.75424 410.06697,349.75424 410.15051,349.75424 410.22441,349.78637 410.30152,349.8185 410.35613,349.87634 410.41397,349.93095 410.4461,350.00806 410.48144,350.08197 410.48144,350.1655 Z"
         id="path5337"
         inkscape:connector-curvature="0" />
      <path
         inkscape:connector-curvature="0"
         id="path5339"
         style="font-style:normal;font-variant:normal;font-weight:normal;font-stretch:normal;font-size:medium;line-height:1000%;font-family:Lato;-inkscape-font-specification:Lato;letter-spacing:0px;word-spacing:0px;fill:#000000;fill-opacity:1;stroke:#000000;stroke-width:0.16064993px;stroke-linecap:butt;stroke-linejoin:miter;stroke-opacity:1"
         d="M 412.29829,354.49341 Q 411.91273,354.49341 411.70389,354.27814 411.49826,354.06286 411.49826,353.65803 L 411.49826,351.66598 411.10628,351.66598 Q 411.05487,351.66598 411.01952,351.63706 410.98418,351.60493 410.98418,351.54067 L 410.98418,351.31254 411.51754,351.24506 411.64927,350.2394 Q 411.65891,350.19121 411.69104,350.16229 411.72639,350.13016 411.781,350.13016 L 412.07017,350.13016 412.07017,351.2515 413.01158,351.2515 413.01158,351.66598 412.07017,351.66598 412.07017,353.61948 Q 412.07017,353.82511 412.16978,353.92471 412.26938,354.02431 412.42681,354.02431 412.51678,354.02431 412.58104,354.00182 412.64851,353.97612 412.69671,353.9472 412.7449,353.91828 412.77703,353.8958 412.81238,353.87009 412.83808,353.87009 412.88306,353.87009 412.9184,353.92471 L 413.08548,354.19781 Q 412.93769,354.33597 412.72884,354.4163 412.52,354.49341 412.29829,354.49341 Z" />
      <path
         inkscape:connector-curvature="0"
         id="path5341"
         style="font-style:normal;font-variant:normal;font-weight:normal;font-stretch:normal;font-size:medium;line-height:1000%;font-family:Lato;-inkscape-font-specification:Lato;letter-spacing:0px;word-spacing:0px;fill:#000000;fill-opacity:1;stroke:#000000;stroke-width:0.16064993px;stroke-linecap:butt;stroke-linejoin:miter;stroke-opacity:1"
         d="M 415.50407,351.7238 Q 415.4655,351.79449 415.38518,351.79449 415.33699,351.79449 415.27594,351.75914 415.21489,351.7238 415.12493,351.68204 415.03818,351.63706 414.91608,351.60171 414.79399,351.56316 414.62691,351.56316 414.48233,351.56316 414.36666,351.60171 414.25099,351.63706 414.16746,351.70132 414.08713,351.76558 414.04215,351.85233 414.00038,351.93587 414.00038,352.03546 414.00038,352.16077 414.07107,352.24431 414.14497,352.32785 414.26385,352.3889 414.38273,352.44995 414.53374,352.49814 414.68475,352.54312 414.84218,352.59775 415.00284,352.64915 415.15384,352.71341 415.30486,352.77767 415.42373,352.87406 415.54262,352.97046 415.61331,353.11183 415.68721,353.24998 415.68721,353.44598 415.68721,353.67089 415.60689,353.86367 415.52655,354.05323 415.36912,354.1946 415.21168,354.33276 414.98355,354.41309 414.75544,354.49341 414.45663,354.49341 414.11605,354.49341 413.83973,354.38417 413.56341,354.27172 413.37063,354.09821 L 413.50558,353.87973 Q 413.53128,353.83796 413.56662,353.81546 413.60197,353.79298 413.65659,353.79298 413.71442,353.79298 413.77868,353.83796 413.84294,353.88294 413.93291,353.93757 414.02609,353.99218 414.15781,354.03717 414.28955,354.08215 414.48554,354.08215 414.65262,354.08215 414.77792,354.04038 414.90323,353.9954 414.98678,353.92149 415.07031,353.8476 415.10886,353.75121 415.15063,353.65483 415.15063,353.54557 415.15063,353.41063 415.07674,353.32388 415.00605,353.23391 414.88717,353.17287 414.76828,353.10861 414.61407,353.06362 414.46305,353.01543 414.30241,352.96402 414.14497,352.91262 413.99075,352.84835 413.83973,352.78088 413.72086,352.68128 413.60197,352.58168 413.52807,352.43709 413.45738,352.28929 413.45738,352.08045 413.45738,351.89409 413.5345,351.7238 413.61161,351.5503 413.75941,351.42179 413.90721,351.29005 414.12247,351.21294 414.33775,351.13583 414.61407,351.13583 414.93537,351.13583 415.18919,351.23864 415.44623,351.33825 415.63258,351.51496 L 415.50407,351.7238 Z" />
      <path
         inkscape:connector-curvature="0"
         id="path5343"
         style="font-style:normal;font-variant:normal;font-weight:normal;font-stretch:normal;font-size:medium;line-height:1000%;font-family:Lato;-inkscape-font-specification:Lato;letter-spacing:0px;word-spacing:0px;fill:#000000;fill-opacity:1;stroke:#000000;stroke-width:0.16064993px;stroke-linecap:butt;stroke-linejoin:miter;stroke-opacity:1"
         d="M 416.39466,355.54406 416.39466,351.18724 416.73846,351.18724 Q 416.86055,351.18724 416.88947,351.30611 L 416.93766,351.69167 Q 417.1465,351.43785 417.4164,351.28363 417.6863,351.1294 418.03329,351.1294 418.31604,351.1294 418.54417,351.23864 418.77229,351.34467 418.93293,351.55673 419.09359,351.76558 419.18033,352.07724 419.26709,352.3889 419.26709,352.79374 419.26709,353.15359 419.1707,353.46525 419.0743,353.7737 418.89117,354.00182 418.71124,354.22673 418.44777,354.35846 418.18752,354.48698 417.8598,354.48698 417.56098,354.48698 417.34572,354.38738 417.13366,354.28778 416.96979,354.10464 L 416.96979,355.54406 416.39466,355.54406 Z M 417.84694,351.59208 Q 417.56741,351.59208 417.35535,351.72059 417.1465,351.84911 416.96979,352.08367 L 416.96979,353.65803 Q 417.12402,353.87009 417.31037,353.95684 417.49994,354.04359 417.73128,354.04359 418.18752,354.04359 418.43171,353.71907 418.6759,353.39457 418.6759,352.79374 418.6759,352.47564 418.61806,352.24753 418.56344,352.0194 418.45741,351.87482 418.35138,351.72702 418.19716,351.65954 418.04293,351.59208 417.84694,351.59208 Z" />
      <path
         inkscape:connector-curvature="0"
         id="path5345"
         style="font-style:normal;font-variant:normal;font-weight:normal;font-stretch:normal;font-size:medium;line-height:1000%;font-family:Lato;-inkscape-font-specification:Lato;letter-spacing:0px;word-spacing:0px;fill:#000000;fill-opacity:1;stroke:#000000;stroke-width:0.16064993px;stroke-linecap:butt;stroke-linejoin:miter;stroke-opacity:1"
         d="M 422.06591,354.44201 Q 421.98238,354.44201 421.9374,354.4163 421.89241,354.38738 421.8667,354.30706 L 421.80245,354.00182 Q 421.67392,354.11749 421.54861,354.21067 421.42653,354.30062 421.29158,354.36489 421.15984,354.42594 421.00562,354.45807 420.85461,354.49341 420.66826,354.49341 420.47869,354.49341 420.31161,354.44201 420.14453,354.38738 420.01923,354.28136 419.89714,354.17533 419.82324,354.01467 419.75255,353.85081 419.75255,353.62911 419.75255,353.43633 419.85858,353.25962 419.96461,353.07969 420.20237,352.94154 420.44014,352.80337 420.82248,352.71662 421.20482,352.62667 421.76067,352.61381 L 421.76067,352.35998 Q 421.76067,351.98085 421.59682,351.78806 421.43295,351.59208 421.11808,351.59208 420.90602,351.59208 420.76143,351.64669 420.62006,351.69811 420.51403,351.76558 420.41122,351.82983 420.3341,351.88446 420.26021,351.93587 420.18631,351.93587 420.12848,351.93587 420.0867,351.90695 420.04493,351.87482 420.01602,351.82983 L 419.91321,351.64669 Q 420.18309,351.38644 420.49476,351.25792 420.80642,351.1294 421.18556,351.1294 421.45866,351.1294 421.67072,351.21937 421.88277,351.30933 422.02736,351.46998 422.17193,351.63063 422.24584,351.85875 422.31974,352.08687 422.31974,352.35998 L 422.31974,354.44201 422.06591,354.44201 Z M 420.83855,354.09178 Q 420.98956,354.09178 421.11486,354.06286 421.24017,354.03074 421.34941,353.97612 421.46187,353.91828 421.56147,353.83796 421.66429,353.75442 421.76067,353.6516 L 421.76067,352.97688 Q 421.36548,352.98972 421.08595,353.04114 420.80963,353.08933 420.63292,353.16965 420.45941,353.24998 420.37908,353.35922 420.30197,353.46847 420.30197,353.60341 420.30197,353.73193 420.34374,353.82511 420.38551,353.91828 420.4562,353.97933 420.5301,354.03717 420.62649,354.06609 420.72609,354.09178 420.83855,354.09178 Z" />
      <path
         inkscape:connector-curvature="0"
         id="path5347"
         style="font-style:normal;font-variant:normal;font-weight:normal;font-stretch:normal;font-size:medium;line-height:1000%;font-family:Lato;-inkscape-font-specification:Lato;letter-spacing:0px;word-spacing:0px;fill:#000000;fill-opacity:1;stroke:#000000;stroke-width:0.16064993px;stroke-linecap:butt;stroke-linejoin:miter;stroke-opacity:1"
         d="M 425.44981,351.76558 Q 425.4241,351.80092 425.39839,351.82019 425.37268,351.83948 425.3277,351.83948 425.27952,351.83948 425.22168,351.80092 425.16384,351.75914 425.0771,351.71096 424.99355,351.66276 424.86825,351.6242 424.74615,351.58243 424.56623,351.58243 424.32525,351.58243 424.14211,351.66919 423.95897,351.75272 423.83367,351.91338 423.71157,352.07403 423.64731,352.30214 423.58626,352.53027 423.58626,352.81301 423.58626,353.10861 423.65373,353.33994 423.72121,353.56807 423.8433,353.72551 423.9686,353.87973 424.14211,353.96327 424.31883,354.04359 424.53731,354.04359 424.74615,354.04359 424.8811,353.9954 425.01605,353.94399 425.10279,353.88294 425.19276,353.82189 425.2506,353.7737 425.31164,353.7223 425.36947,353.7223 425.44016,353.7223 425.47872,353.77691 L 425.63936,353.98576 Q 425.53334,354.11749 425.39839,354.21067 425.26345,354.30384 425.10602,354.3681 424.95179,354.42915 424.7815,354.45807 424.6112,354.48698 424.43449,354.48698 424.12926,354.48698 423.86579,354.37453 423.60554,354.26207 423.41275,354.05002 423.21998,353.83475 423.11073,353.52309 423.00149,353.21143 423.00149,352.81301 423.00149,352.44995 423.1011,352.1415 423.20391,351.83305 423.39669,351.61135 423.59269,351.38644 423.87543,351.26113 424.16139,351.13583 424.53088,351.13583 424.87468,351.13583 425.13492,351.24829 425.39839,351.35753 425.60081,351.55995 L 425.44981,351.76558 Z" />
      <path
         inkscape:connector-curvature="0"
         id="path5349"
         style="font-style:normal;font-variant:normal;font-weight:normal;font-stretch:normal;font-size:medium;line-height:1000%;font-family:Lato;-inkscape-font-specification:Lato;letter-spacing:0px;word-spacing:0px;fill:#000000;fill-opacity:1;stroke:#000000;stroke-width:0.16064993px;stroke-linecap:butt;stroke-linejoin:miter;stroke-opacity:1"
         d="M 427.51767,351.13583 Q 427.81005,351.13583 428.05744,351.23543 428.30807,351.33182 428.48799,351.51817 428.67113,351.70132 428.77394,351.97442 428.87676,352.24431 428.87676,352.59132 428.87676,352.72627 428.84784,352.77125 428.81893,352.81622 428.7386,352.81622 L 426.56341,352.81622 Q 426.56983,353.12467 426.64694,353.3528 426.72406,353.58092 426.859,353.73514 426.99394,353.88615 427.1803,353.96327 427.36665,354.03717 427.59799,354.03717 427.81326,354.03717 427.96749,353.98897 428.12492,353.93757 428.23738,353.87973 428.34983,353.82189 428.42373,353.7737 428.50084,353.7223 428.55546,353.7223 428.62615,353.7223 428.66471,353.77691 L 428.82536,353.98576 Q 428.71933,354.11428 428.57152,354.21067 428.42373,354.30384 428.25344,354.36489 428.08636,354.42594 427.90644,354.45486 427.72651,354.48698 427.5498,354.48698 427.21243,354.48698 426.92647,354.37453 426.64373,354.25886 426.43488,354.04038 426.22925,353.81868 426.11358,353.49417 425.99791,353.16965 425.99791,352.74875 425.99791,352.40817 426.10073,352.11259 426.20676,351.81698 426.40275,351.60171 426.59875,351.38323 426.88149,351.26113 427.16423,351.13583 427.51767,351.13583 Z M 427.53052,351.55673 Q 427.11604,351.55673 426.87828,351.79771 426.64051,352.03546 426.58268,352.45958 L 428.36268,352.45958 Q 428.36268,352.26038 428.30485,352.09651 428.25023,351.92943 428.14099,351.81056 428.03496,351.68846 427.88073,351.6242 427.72651,351.55673 427.53052,351.55673 Z" />
      <path
         inkscape:connector-curvature="0"
         id="path5351"
         style="font-style:normal;font-variant:normal;font-weight:normal;font-stretch:normal;font-size:medium;line-height:1000%;font-family:Lato;-inkscape-font-specification:Lato;letter-spacing:0px;word-spacing:0px;fill:#000000;fill-opacity:1;stroke:#000000;stroke-width:0.16064993px;stroke-linecap:butt;stroke-linejoin:miter;stroke-opacity:1"
         d="M 429.47658,354.08857 Q 429.47658,354.00504 429.5055,353.93114 429.53764,353.85724 429.58905,353.80262 429.64367,353.74799 429.71756,353.71586 429.79147,353.68373 429.875,353.68373 429.95854,353.68373 430.03244,353.71586 430.10634,353.74799 430.16095,353.80262 430.21558,353.85724 430.24771,353.93114 430.27984,354.00504 430.27984,354.08857 430.27984,354.17533 430.24771,354.24922 430.21558,354.31991 430.16095,354.37453 430.10634,354.42915 430.03244,354.45807 429.95854,354.4902 429.875,354.4902 429.79147,354.4902 429.71756,354.45807 429.64367,354.42915 429.58905,354.37453 429.53764,354.31991 429.5055,354.24922 429.47658,354.17533 429.47658,354.08857 Z" />
      <path
         inkscape:connector-curvature="0"
         id="path5353"
         style="font-style:normal;font-variant:normal;font-weight:normal;font-stretch:normal;font-size:medium;line-height:1000%;font-family:Lato;-inkscape-font-specification:Lato;letter-spacing:0px;word-spacing:0px;fill:#000000;fill-opacity:1;stroke:#000000;stroke-width:0.16064993px;stroke-linecap:butt;stroke-linejoin:miter;stroke-opacity:1"
         d="M 432.46358,351.13583 Q 432.82022,351.13583 433.10617,351.25471 433.39213,351.37359 433.59455,351.59208 433.79697,351.81056 433.90299,352.12222 434.01225,352.43066 434.01225,352.81301 434.01225,353.19857 433.90299,353.50702 433.79697,353.81546 433.59455,354.03396 433.39213,354.25244 433.10617,354.37132 432.82022,354.48698 432.46358,354.48698 432.10372,354.48698 431.81455,354.37132 431.52859,354.25244 431.32617,354.03396 431.12376,353.81546 431.01451,353.50702 430.90848,353.19857 430.90848,352.81301 430.90848,352.43066 431.01451,352.12222 431.12376,351.81056 431.32617,351.59208 431.52859,351.37359 431.81455,351.25471 432.10372,351.13583 432.46358,351.13583 Z M 432.46358,354.04038 Q 432.94553,354.04038 433.18329,353.71907 433.42104,353.39457 433.42104,352.81622 433.42104,352.23467 433.18329,351.91016 432.94553,351.58565 432.46358,351.58565 432.21938,351.58565 432.03624,351.66919 431.85632,351.75272 431.73422,351.91016 431.61534,352.0676 431.5543,352.29894 431.49646,352.52706 431.49646,352.81622 431.49646,353.39457 431.73422,353.71907 431.97519,354.04038 432.46358,354.04038 Z" />
      <path
         inkscape:connector-curvature="0"
         id="path5355"
         style="font-style:normal;font-variant:normal;font-weight:normal;font-stretch:normal;font-size:medium;line-height:1000%;font-family:Lato;-inkscape-font-specification:Lato;letter-spacing:0px;word-spacing:0px;fill:#000000;fill-opacity:1;stroke:#000000;stroke-width:0.16064993px;stroke-linecap:butt;stroke-linejoin:miter;stroke-opacity:1"
         d="M 434.73135,354.44201 434.73135,351.18724 435.05907,351.18724 Q 435.15225,351.18724 435.1876,351.22258 435.22293,351.25792 435.23579,351.34467 L 435.27114,351.83948 Q 435.42536,351.50532 435.65027,351.31897 435.87838,351.1294 436.20291,351.1294 436.30572,351.1294 436.39889,351.1519 436.49528,351.17438 436.56918,351.22258 L 436.52741,351.64991 Q 436.50814,351.73024 436.43102,351.73024 436.38604,351.73024 436.29929,351.71096 436.21254,351.69167 436.1033,351.69167 435.94907,351.69167 435.82698,351.73988 435.70488,351.78486 435.60849,351.87482 435.51533,351.96156 435.44143,352.09009 435.36752,352.21861 435.30648,352.38569 L 435.30648,354.44201 434.73135,354.44201 Z" />
      <path
         inkscape:connector-curvature="0"
         id="path5357"
         style="font-style:normal;font-variant:normal;font-weight:normal;font-stretch:normal;font-size:medium;line-height:1000%;font-family:Lato;-inkscape-font-specification:Lato;letter-spacing:0px;word-spacing:0px;fill:#000000;fill-opacity:1;stroke:#000000;stroke-width:0.16064993px;stroke-linecap:butt;stroke-linejoin:miter;stroke-opacity:1"
         d="M 438.11213,351.13261 Q 438.32419,351.13261 438.50732,351.18082 438.69046,351.2258 438.84148,351.31575 L 439.72505,351.31575 439.72505,351.52782 Q 439.72505,351.63384 439.59011,351.66276 L 439.22061,351.71417 Q 439.32985,351.92301 439.32985,352.18006 439.32985,352.41782 439.23667,352.61381 439.14672,352.80659 438.98606,352.94474 438.82541,353.08291 438.6005,353.15681 438.37559,353.2307 438.11213,353.2307 437.88079,353.2307 437.67837,353.17608 437.57556,353.24035 437.52093,353.31425 437.46953,353.38814 437.46953,353.45882 437.46953,353.57449 437.5627,353.63554 437.65909,353.69338 437.81332,353.71907 437.96754,353.74478 438.16353,353.75121 438.36274,353.75764 438.56837,353.7737 438.77721,353.78654 438.97321,353.82189 439.17242,353.85724 439.32664,353.93757 439.48087,354.01788 439.57404,354.15925 439.67043,354.30062 439.67043,354.52554 439.67043,354.73439 439.5644,354.93038 439.46159,355.12637 439.26559,355.27738 439.0696,355.4316 438.78364,355.52157 438.5009,355.61475 438.14426,355.61475 437.78761,355.61475 437.52093,355.54406 437.25426,355.47338 437.07754,355.3545 436.90082,355.23562 436.81086,355.07818 436.72411,354.92396 436.72411,354.75367 436.72411,354.5127 436.87513,354.34561 437.02613,354.17854 437.28639,354.07894 437.1418,354.01467 437.05826,353.90865 436.97473,353.79941 436.97473,353.61626 436.97473,353.54557 437.00043,353.47167 437.02613,353.39457 437.07754,353.32067 437.13216,353.24677 437.20927,353.1793 437.28639,353.11183 437.38921,353.06041 437.14823,352.92547 437.01328,352.70056 436.87834,352.47564 436.87834,352.18006 436.87834,351.9423 436.9683,351.74951 437.06148,351.55352 437.22534,351.41857 437.38921,351.28041 437.61411,351.20651 437.84224,351.13261 438.11213,351.13261 Z M 439.1435,354.61872 Q 439.1435,354.49984 439.07603,354.42594 439.00855,354.35204 438.89288,354.31028 438.78043,354.2685 438.62942,354.25244 438.4784,354.23315 438.30811,354.22352 438.14104,354.21388 437.96754,354.20424 437.79403,354.1946 437.6334,354.17211 437.45346,354.25565 437.33779,354.38096 437.22534,354.50626 437.22534,354.67976 437.22534,354.78901 437.27995,354.88218 437.33779,354.97857 437.45346,355.04604 437.56913,355.11673 437.74263,355.15529 437.91935,355.19706 438.15711,355.19706 438.38845,355.19706 438.57159,355.15529 438.75472,355.11352 438.88003,355.03641 439.00855,354.9593 439.07603,354.85326 439.1435,354.74723 439.1435,354.61872 Z M 438.11213,352.85157 Q 438.28563,352.85157 438.41737,352.80337 438.54909,352.75518 438.63906,352.66843 438.72903,352.58168 438.77401,352.4628 438.81899,352.3407 438.81899,352.19612 438.81899,351.89731 438.63584,351.72059 438.45592,351.54388 438.11213,351.54388 437.76513,351.54388 437.58198,351.72059 437.40206,351.89731 437.40206,352.19612 437.40206,352.3407 437.44704,352.4628 437.49523,352.58168 437.58519,352.66843 437.67516,352.75518 437.80689,352.80337 437.93863,352.85157 438.11213,352.85157 Z" />
      <path
         inkscape:connector-curvature="0"
         id="path5359"
         style="font-style:normal;font-variant:normal;font-weight:normal;font-stretch:normal;font-size:medium;line-height:1000%;font-family:Lato;-inkscape-font-specification:Lato;letter-spacing:0px;word-spacing:0px;fill:#000000;fill-opacity:1;stroke:#000000;stroke-width:0.16064993px;stroke-linecap:butt;stroke-linejoin:miter;stroke-opacity:1"
         d="M 440.63131,354.50947 Q 440.58955,354.62193 440.49958,354.67655 440.41283,354.73117 440.31966,354.73117 L 440.07868,354.73117 442.00969,349.92132 Q 442.04825,349.8185 442.12536,349.76387 442.20569,349.70926 442.3085,349.70926 L 442.55268,349.70926 440.63131,354.50947 Z" />
      <path
         style="font-style:normal;font-variant:normal;font-weight:normal;font-stretch:normal;font-size:medium;line-height:1000%;font-family:Lato;-inkscape-font-specification:Lato;letter-spacing:0px;word-spacing:0px;fill:#000000;fill-opacity:1;stroke:#000000;stroke-width:0.16064993px;stroke-linecap:butt;stroke-linejoin:miter;stroke-opacity:1"
         d="M 443.81972,351.18724 443.81972,354.68298 Q 443.81972,354.87897 443.76831,355.04604 443.7169,355.21633 443.60445,355.34165 443.49199,355.46695 443.31527,355.53763 443.14177,355.61154 442.89759,355.61154 442.79477,355.61154 442.70802,355.59547 442.62127,355.57941 442.53452,355.54728 L 442.557,355.23883 Q 442.56343,355.20991 442.5795,355.19384 442.59235,355.18099 442.61805,355.17778 442.64376,355.17457 442.68553,355.17457 442.72408,355.17778 442.78513,355.17778 443.03574,355.17778 443.14177,355.05889 443.2478,354.94323 443.2478,354.68298 L 443.2478,351.18724 443.81972,351.18724 Z"
         id="path4181"
         inkscape:connector-curvature="0" />
      <path
         style="font-style:normal;font-variant:normal;font-weight:normal;font-stretch:normal;font-size:medium;line-height:1000%;font-family:Lato;-inkscape-font-specification:Lato;letter-spacing:0px;word-spacing:0px;fill:#000000;fill-opacity:1;stroke:#000000;stroke-width:0.16064993px;stroke-linecap:butt;stroke-linejoin:miter;stroke-opacity:1"
         d="M 443.93859,350.1655 Q 443.93859,350.24904 443.90325,350.32294 443.87112,350.39363 443.8133,350.45146 443.75867,350.50608 443.68477,350.53821 443.61087,350.57035 443.52733,350.57035 443.44379,350.57035 443.3699,350.53821 443.29922,350.50608 443.24459,350.45146 443.18997,350.39363 443.15784,350.32294 443.12571,350.24904 443.12571,350.1655 443.12571,350.08197 443.15784,350.00806 443.18997,349.93095 443.24459,349.87634 443.29922,349.8185 443.3699,349.78637 443.44379,349.75424 443.52733,349.75424 443.61087,349.75424 443.68477,349.78637 443.75867,349.8185 443.8133,349.87634 443.87112,349.93095 443.90325,350.00806 443.93859,350.08197 443.93859,350.1655 Z"
         id="path5361"
         inkscape:connector-curvature="0" />
      <path
         inkscape:connector-curvature="0"
         id="path5363"
         style="font-style:normal;font-variant:normal;font-weight:normal;font-stretch:normal;font-size:medium;line-height:1000%;font-family:Lato;-inkscape-font-specification:Lato;letter-spacing:0px;word-spacing:0px;fill:#000000;fill-opacity:1;stroke:#000000;stroke-width:0.16064993px;stroke-linecap:butt;stroke-linejoin:miter;stroke-opacity:1"
         d="M 446.09282,351.13583 Q 446.3852,351.13583 446.63259,351.23543 446.88322,351.33182 447.06314,351.51817 447.24628,351.70132 447.34909,351.97442 447.45191,352.24431 447.45191,352.59132 447.45191,352.72627 447.42299,352.77125 447.39407,352.81622 447.31375,352.81622 L 445.13855,352.81622 Q 445.14498,353.12467 445.22209,353.3528 445.2992,353.58092 445.43414,353.73514 445.56909,353.88615 445.75545,353.96327 445.9418,354.03717 446.17314,354.03717 446.3884,354.03717 446.54264,353.98897 446.70007,353.93757 446.81252,353.87973 446.92498,353.82189 446.99888,353.7737 447.07599,353.7223 447.13061,353.7223 447.2013,353.7223 447.23985,353.77691 L 447.4005,353.98576 Q 447.29448,354.11428 447.14667,354.21067 446.99888,354.30384 446.82859,354.36489 446.66151,354.42594 446.48159,354.45486 446.30166,354.48698 446.12494,354.48698 445.78758,354.48698 445.50161,354.37453 445.21887,354.25886 445.01003,354.04038 444.8044,353.81868 444.68873,353.49417 444.57306,353.16965 444.57306,352.74875 444.57306,352.40817 444.67588,352.11259 444.78191,351.81698 444.9779,351.60171 445.17389,351.38323 445.45664,351.26113 445.73938,351.13583 446.09282,351.13583 Z M 446.10566,351.55673 Q 445.69119,351.55673 445.45343,351.79771 445.21566,352.03546 445.15783,352.45958 L 446.93783,352.45958 Q 446.93783,352.26038 446.87999,352.09651 446.82538,351.92943 446.71613,351.81056 446.61011,351.68846 446.45588,351.6242 446.30166,351.55673 446.10566,351.55673 Z" />
      <path
         inkscape:connector-curvature="0"
         id="path5365"
         style="font-style:normal;font-variant:normal;font-weight:normal;font-stretch:normal;font-size:medium;line-height:1000%;font-family:Lato;-inkscape-font-specification:Lato;letter-spacing:0px;word-spacing:0px;fill:#000000;fill-opacity:1;stroke:#000000;stroke-width:0.16064993px;stroke-linecap:butt;stroke-linejoin:miter;stroke-opacity:1"
         d="M 448.73932,349.70926 448.73932,354.44201 448.16741,354.44201 448.16741,349.70926 448.73932,349.70926 Z" />
      <path
         inkscape:connector-curvature="0"
         id="path5367"
         style="font-style:normal;font-variant:normal;font-weight:normal;font-stretch:normal;font-size:medium;line-height:1000%;font-family:Lato;-inkscape-font-specification:Lato;letter-spacing:0px;word-spacing:0px;fill:#000000;fill-opacity:1;stroke:#000000;stroke-width:0.16064993px;stroke-linecap:butt;stroke-linejoin:miter;stroke-opacity:1"
         d="M 450.25796,349.70926 450.25796,354.44201 449.68604,354.44201 449.68604,349.70926 450.25796,349.70926 Z" />
      <path
         inkscape:connector-curvature="0"
         id="path5369"
         style="font-style:normal;font-variant:normal;font-weight:normal;font-stretch:normal;font-size:medium;line-height:1000%;font-family:Lato;-inkscape-font-specification:Lato;letter-spacing:0px;word-spacing:0px;fill:#000000;fill-opacity:1;stroke:#000000;stroke-width:0.16064993px;stroke-linecap:butt;stroke-linejoin:miter;stroke-opacity:1"
         d="M 452.17823,355.40269 Q 452.14931,355.46695 452.10433,355.5055 452.06256,355.54406 451.9726,355.54406 L 451.54848,355.54406 452.14289,354.25244 450.79986,351.18724 451.29466,351.18724 Q 451.36856,351.18724 451.41032,351.2258 451.45531,351.26113 451.47137,351.30611 L 452.34209,353.35601 Q 452.3678,353.42991 452.39029,353.50059 452.41279,353.56807 452.42885,353.64197 452.47061,353.49738 452.52524,353.3528 L 453.37025,351.30611 Q 453.38953,351.25471 453.43451,351.22258 453.48271,351.18724 453.54054,351.18724 L 453.99358,351.18724 452.17823,355.40269 Z" />
      <g
         style="font-size:3.14060402px;line-height:1000%;font-family:sans-serif;letter-spacing:0px;word-spacing:0px;fill:#000000;stroke:#000000;stroke-width:0.0785151px;stroke-linecap:butt;stroke-linejoin:miter;stroke-opacity:1"
         id="text4187"
         transform="translate(-19.697975,-0.69447987)">
        <path
           d="M 425.84287,357.58751 426.1419,357.58751 426.67863,359.02899 427.21535,357.58751 427.51438,357.58751 426.87032,359.30502 426.48694,359.30502 425.84287,357.58751 Z"
           style="fill:#000000;stroke-width:0.0785151px"
           id="path4192"
           inkscape:connector-curvature="0" />
        <path
           d="M 428.21059,359.04433 429.29171,359.04433 429.29171,359.30502 427.83795,359.30502 427.83795,359.04433 Q 428.01431,358.86184 428.31794,358.55514 428.6231,358.24691 428.70131,358.15797 428.85006,357.99082 428.90833,357.8758 428.96814,357.75926 428.96814,357.64731 428.96814,357.46483 428.83933,357.34981 428.71205,357.2348 428.50656,357.2348 428.36088,357.2348 428.19833,357.28541 428.03731,357.33601 427.85329,357.43876 L 427.85329,357.12592 Q 428.04037,357.05078 428.20293,357.01244 428.36548,356.97411 428.50042,356.97411 428.8562,356.97411 429.06782,357.15199 429.27944,357.32988 429.27944,357.62738 429.27944,357.76846 429.22577,357.89574 429.17363,358.02149 429.03408,358.19324 428.99574,358.23771 428.79026,358.45086 428.58477,358.66249 428.21059,359.04433 Z"
           style="fill:#000000;stroke-width:0.0785151px"
           id="path4194"
           inkscape:connector-curvature="0" />
        <path
           d="M 432.13942,357.65345 432.13942,357.91721 Q 432.0198,357.85127 431.89866,357.81906 431.77904,357.78533 431.65636,357.78533 431.38187,357.78533 431.23005,357.96015 431.07823,358.13343 431.07823,358.4478 431.07823,358.76216 431.23005,358.93698 431.38187,359.11027 431.65636,359.11027 431.77904,359.11027 431.89866,359.07807 432.0198,359.04433 432.13942,358.97839 L 432.13942,359.23908 Q 432.02134,359.29429 431.89406,359.32189 431.76831,359.34949 431.62569,359.34949 431.23772,359.34949 431.00923,359.10567 430.78074,358.86184 430.78074,358.4478 430.78074,358.02762 431.01076,357.78686 431.24232,357.5461 431.6441,357.5461 431.77444,357.5461 431.89866,357.5737 432.02287,357.59977 432.13942,357.65345 Z"
           style="fill:#000000;stroke-width:0.0785151px"
           id="path4196"
           inkscape:connector-curvature="0" />
        <path
           d="M 433.8692,357.65345 433.8692,357.91721 Q 433.74959,357.85127 433.62844,357.81906 433.50883,357.78533 433.38615,357.78533 433.11165,357.78533 432.95984,357.96015 432.80802,358.13343 432.80802,358.4478 432.80802,358.76216 432.95984,358.93698 433.11165,359.11027 433.38615,359.11027 433.50883,359.11027 433.62844,359.07807 433.74959,359.04433 433.8692,358.97839 L 433.8692,359.23908 Q 433.75112,359.29429 433.62384,359.32189 433.49809,359.34949 433.35548,359.34949 432.9675,359.34949 432.73901,359.10567 432.51052,358.86184 432.51052,358.4478 432.51052,358.02762 432.74055,357.78686 432.9721,357.5461 433.37388,357.5461 433.50423,357.5461 433.62844,357.5737 433.75266,357.59977 433.8692,357.65345 Z"
           style="fill:#000000;stroke-width:0.0785151px"
           id="path4198"
           inkscape:connector-curvature="0" />
        <path
           d="M 434.22037,358.31898 435.04693,358.31898 435.04693,358.57048 434.22037,358.57048 434.22037,358.31898 Z"
           style="fill:#000000;stroke-width:0.0785151px"
           id="path4200"
           inkscape:connector-curvature="0" />
        <path
           d="M 436.73071,358.4478 Q 436.73071,358.1365 436.60189,357.96015 436.47461,357.78226 436.25072,357.78226 436.02683,357.78226 435.89802,357.96015 435.77074,358.1365 435.77074,358.4478 435.77074,358.7591 435.89802,358.93698 436.02683,359.11334 436.25072,359.11334 436.47461,359.11334 436.60189,358.93698 436.73071,358.7591 436.73071,358.4478 Z M 435.77074,357.8482 Q 435.85968,357.69485 435.99463,357.62124 436.13111,357.5461 436.31973,357.5461 436.63256,357.5461 436.82732,357.79453 437.02361,358.04295 437.02361,358.4478 437.02361,358.85264 436.82732,359.10107 436.63256,359.34949 436.31973,359.34949 436.13111,359.34949 435.99463,359.27589 435.85968,359.20075 435.77074,359.0474 L 435.77074,359.30502 435.48704,359.30502 435.48704,356.9189 435.77074,356.9189 435.77074,357.8482 Z"
           style="fill:#000000;stroke-width:0.0785151px"
           id="path4202"
           inkscape:connector-curvature="0" />
        <path
           d="M 438.20593,359.46451 Q 438.08632,359.77121 437.97284,359.86475 437.85936,359.95829 437.66921,359.95829 L 437.44378,359.95829 437.44378,359.72213 437.6094,359.72213 Q 437.72595,359.72213 437.79036,359.66693 437.85476,359.61172 437.93297,359.40623 L 437.98358,359.27742 437.2889,357.58751 437.58793,357.58751 438.12466,358.93085 438.66138,357.58751 438.96041,357.58751 438.20593,359.46451 Z"
           style="fill:#000000;stroke-width:0.0785151px"
           id="path4204"
           inkscape:connector-curvature="0" />
        <path
           d="M 439.1521,358.31898 439.97866,358.31898 439.97866,358.57048 439.1521,358.57048 439.1521,358.31898 Z"
           style="fill:#000000;stroke-width:0.0785151px"
           id="path4206"
           inkscape:connector-curvature="0" />
        <path
           d="M 441.52442,357.63811 441.52442,357.90494 Q 441.40481,357.8436 441.276,357.81293 441.14718,357.78226 441.00917,357.78226 440.79908,357.78226 440.69327,357.84667 440.58899,357.91107 440.58899,358.03989 440.58899,358.13803 440.66413,358.19477 440.73927,358.24998 440.96623,358.30058 L 441.06284,358.32205 Q 441.36341,358.38646 441.48915,358.50454 441.61643,358.62108 441.61643,358.83117 441.61643,359.0704 441.42628,359.20995 441.23766,359.34949 440.90642,359.34949 440.76841,359.34949 440.61813,359.32189 440.46938,359.29582 440.30376,359.24215 L 440.30376,358.95079 Q 440.46018,359.03206 440.61199,359.07346 440.76381,359.11334 440.91256,359.11334 441.11191,359.11334 441.21926,359.04586 441.3266,358.97685 441.3266,358.85264 441.3266,358.73763 441.24839,358.67629 441.17172,358.61495 440.90949,358.55821 L 440.81135,358.53521 Q 440.54912,358.48 440.43257,358.36652 440.31603,358.25151 440.31603,358.05216 440.31603,357.80986 440.48778,357.67798 440.65953,357.5461 440.97543,357.5461 441.13185,357.5461 441.26986,357.5691 441.40788,357.59211 441.52442,357.63811 Z"
           style="fill:#000000;stroke-width:0.0785151px"
           id="path4208"
           inkscape:connector-curvature="0" />
        <path
           d="M 442.84783,358.44166 Q 442.50586,358.44166 442.37398,358.51987 442.2421,358.59808 442.2421,358.7867 442.2421,358.93698 442.34024,359.02593 442.43992,359.11334 442.61014,359.11334 442.84477,359.11334 442.98585,358.94772 443.12846,358.78057 443.12846,358.50454 L 443.12846,358.44166 442.84783,358.44166 Z M 443.41063,358.32512 443.41063,359.30502 443.12846,359.30502 443.12846,359.04433 Q 443.03185,359.20075 442.8877,359.27589 442.74355,359.34949 442.535,359.34949 442.27124,359.34949 442.11482,359.20228 441.95994,359.05353 441.95994,358.8051 441.95994,358.51527 442.15316,358.36806 442.34791,358.22084 442.73282,358.22084 L 443.12846,358.22084 443.12846,358.19324 Q 443.12846,357.99848 442.99965,357.89267 442.87237,357.78533 442.64081,357.78533 442.49359,357.78533 442.35405,357.8206 442.2145,357.85587 442.08568,357.92641 L 442.08568,357.66571 Q 442.24057,357.60591 442.38625,357.57677 442.53193,357.5461 442.66995,357.5461 443.04259,357.5461 443.22661,357.73932 443.41063,357.93254 443.41063,358.32512 Z"
           style="fill:#000000;stroke-width:0.0785151px"
           id="path4210"
           inkscape:connector-curvature="0" />
        <path
           d="M 445.2999,359.04433 446.38101,359.04433 446.38101,359.30502 444.92726,359.30502 444.92726,359.04433 Q 445.10361,358.86184 445.40724,358.55514 445.71241,358.24691 445.79062,358.15797 445.93936,357.99082 445.99764,357.8758 446.05744,357.75926 446.05744,357.64731 446.05744,357.46483 445.92863,357.34981 445.80135,357.2348 445.59586,357.2348 445.45018,357.2348 445.28763,357.28541 445.12661,357.33601 444.94259,357.43876 L 444.94259,357.12592 Q 445.12968,357.05078 445.29223,357.01244 445.45478,356.97411 445.58973,356.97411 445.9455,356.97411 446.15712,357.15199 446.36874,357.32988 446.36874,357.62738 446.36874,357.76846 446.31507,357.89574 446.26293,358.02149 446.12338,358.19324 446.08505,358.23771 445.87956,358.45086 445.67407,358.66249 445.2999,359.04433 Z"
           style="fill:#000000;stroke-width:0.0785151px"
           id="path4212"
           inkscape:connector-curvature="0" />
        <path
           d="M 447.69522,357.21947 Q 447.45599,357.21947 447.33485,357.45562 447.21524,357.69025 447.21524,358.16257 447.21524,358.63335 447.33485,358.86951 447.45599,359.10413 447.69522,359.10413 447.93598,359.10413 448.05559,358.86951 448.17674,358.63335 448.17674,358.16257 448.17674,357.69025 448.05559,357.45562 447.93598,357.21947 447.69522,357.21947 Z M 447.69522,356.97411 Q 448.08013,356.97411 448.28255,357.27927 448.4865,357.5829 448.4865,358.16257 448.4865,358.7407 448.28255,359.04586 448.08013,359.34949 447.69522,359.34949 447.31031,359.34949 447.10636,359.04586 446.90394,358.7407 446.90394,358.16257 446.90394,357.5829 447.10636,357.27927 447.31031,356.97411 447.69522,356.97411 Z"
           style="fill:#000000;stroke-width:0.0785151px"
           id="path4214"
           inkscape:connector-curvature="0" />
        <path
           d="M 449.0861,359.04433 449.59216,359.04433 449.59216,357.29767 449.04163,357.40809 449.04163,357.12592 449.58909,357.01551 449.89886,357.01551 449.89886,359.04433 450.40491,359.04433 450.40491,359.30502 449.0861,359.30502 449.0861,359.04433 Z"
           style="fill:#000000;stroke-width:0.0785151px"
           id="path4216"
           inkscape:connector-curvature="0" />
        <path
           d="M 450.9539,357.01551 452.42606,357.01551 452.42606,357.14739 451.59491,359.30502 451.27134,359.30502 452.05342,357.27621 450.9539,357.27621 450.9539,357.01551 Z"
           style="fill:#000000;stroke-width:0.0785151px"
           id="path4218"
           inkscape:connector-curvature="0" />
      </g>
    </g>
  </g>
</svg>
