<?xml version="1.0" encoding="UTF-8" standalone="no"?>
<!-- Created with Inkscape (http://www.inkscape.org/) -->

<svg
   xmlns:dc="http://purl.org/dc/elements/1.1/"
   xmlns:cc="http://creativecommons.org/ns#"
   xmlns:rdf="http://www.w3.org/1999/02/22-rdf-syntax-ns#"
   xmlns:svg="http://www.w3.org/2000/svg"
   xmlns="http://www.w3.org/2000/svg"
   xmlns:sodipodi="http://sodipodi.sourceforge.net/DTD/sodipodi-0.dtd"
   xmlns:inkscape="http://www.inkscape.org/namespaces/inkscape"
   width="210mm"
   height="297mm"
   viewBox="0 0 744.09448819 1052.3622047"
   id="svg2"
   version="1.1"
   inkscape:version="0.91 r13725"
   sodipodi:docname="page_motor_image.svg">
  <defs
     id="defs4">
    <inkscape:path-effect
       effect="spiro"
       id="path-effect4259"
       is_visible="true" />
    <inkscape:path-effect
       effect="spiro"
       id="path-effect4168"
       is_visible="true" />
    <inkscape:path-effect
       effect="spiro"
       id="path-effect4164"
       is_visible="true" />
    <inkscape:path-effect
       effect="spiro"
       id="path-effect4150"
       is_visible="true" />
    <inkscape:path-effect
       effect="spiro"
       id="path-effect4168-7"
       is_visible="true" />
    <inkscape:path-effect
       effect="spiro"
       id="path-effect4164-5"
       is_visible="true" />
    <inkscape:path-effect
       effect="spiro"
       id="path-effect4164-5-3"
       is_visible="true" />
    <inkscape:path-effect
       effect="spiro"
       id="path-effect4168-7-5"
       is_visible="true" />
  </defs>
  <sodipodi:namedview
     id="base"
     pagecolor="#ffffff"
     bordercolor="#666666"
     borderopacity="1.0"
     inkscape:pageopacity="0.0"
     inkscape:pageshadow="2"
     inkscape:zoom="15.839192"
     inkscape:cx="101.81278"
     inkscape:cy="609.79866"
     inkscape:document-units="mm"
     inkscape:current-layer="layer1"
     showgrid="false"
     inkscape:window-width="1366"
     inkscape:window-height="754"
     inkscape:window-x="0"
     inkscape:window-y="14"
     inkscape:window-maximized="0" />
  <metadata
     id="metadata7">
    <rdf:RDF>
      <cc:Work
         rdf:about="">
        <dc:format>image/svg+xml</dc:format>
        <dc:type
           rdf:resource="http://purl.org/dc/dcmitype/StillImage" />
        <dc:title></dc:title>
      </cc:Work>
    </rdf:RDF>
  </metadata>
  <g
     inkscape:label="SilkS"
     inkscape:groupmode="layer"
     id="layer1">
    <path
       style="color:#000000;font-style:normal;font-variant:normal;font-weight:normal;font-stretch:normal;font-size:medium;line-height:normal;font-family:sans-serif;text-indent:0;text-align:start;text-decoration:none;text-decoration-line:none;text-decoration-style:solid;text-decoration-color:#000000;letter-spacing:normal;word-spacing:normal;text-transform:none;direction:ltr;block-progression:tb;writing-mode:lr-tb;baseline-shift:baseline;text-anchor:start;white-space:normal;clip-rule:nonzero;display:inline;overflow:visible;visibility:visible;opacity:1;isolation:auto;mix-blend-mode:normal;color-interpolation:sRGB;color-interpolation-filters:linearRGB;solid-color:#000000;solid-opacity:1;fill:#00ffff;fill-opacity:1;fill-rule:nonzero;stroke:none;stroke-width:0.82096076;stroke-linecap:round;stroke-linejoin:miter;stroke-miterlimit:4;stroke-dasharray:none;stroke-dashoffset:0;stroke-opacity:1;color-rendering:auto;image-rendering:auto;shape-rendering:auto;text-rendering:auto;enable-background:accumulate"
       d="M 97.824219,441.88086 C 96.737442,441.8431 95.625882,442.21113 94.799037,442.92133 94.556222,443.21746 94.920756,443.5553 95.111095,443.77376 95.559334,444.34219 96.006115,444.9118 96.458984,445.47656 96.175241,445.76882 95.7849,445.92669 95.508236,446.22331 95.303893,446.5558 95.789158,446.73253 95.911474,447.00821 96.334863,447.57839 96.758252,448.14857 97.181641,448.71875 97.530816,448.41749 97.884752,448.12174 98.230469,447.81641 98.827497,448.54685 99.380973,449.32066 100.00215,450.02717 100.42003,450.27518 100.78696,449.84086 101.03711,449.55469 102.52571,448.01249 102.65353,445.37918 101.32947,443.69476 100.51046,442.60665 99.181154,441.93404 97.824219,441.88086 Z M 97.84375,442.60156 C 99.20909,442.64618 100.51304,443.47395 101.11383,444.70415 101.75643,445.92805 101.6643,447.50023 100.85122,448.62362 100.68603,448.85516 100.4982,449.09283 100.28711,449.27148 99.703576,448.53401 99.131817,447.78717 98.537109,447.05859 98.250999,446.84898 97.933053,447.04345 97.763136,447.28972 97.621387,447.40994 97.479639,447.53017 97.337891,447.65039 97.016927,447.2474 96.695964,446.8444 96.375,446.44141 96.671917,446.11195 97.255501,446.01382 97.330051,445.51596 97.260669,445.08994 96.783424,444.88226 96.585203,444.49716 96.252991,444.07517 95.923231,443.65115 95.582031,443.23633 96.224678,442.76613 97.052756,442.57072 97.84375,442.60156 Z"
       id="path4166-2"
       inkscape:connector-curvature="0" />
    <path
       style="color:#000000;font-style:normal;font-variant:normal;font-weight:normal;font-stretch:normal;font-size:medium;line-height:normal;font-family:sans-serif;text-indent:0;text-align:start;text-decoration:none;text-decoration-line:none;text-decoration-style:solid;text-decoration-color:#000000;letter-spacing:normal;word-spacing:normal;text-transform:none;direction:ltr;block-progression:tb;writing-mode:lr-tb;baseline-shift:baseline;text-anchor:start;white-space:normal;clip-rule:nonzero;display:inline;overflow:visible;visibility:visible;opacity:1;isolation:auto;mix-blend-mode:normal;color-interpolation:sRGB;color-interpolation-filters:linearRGB;solid-color:#000000;solid-opacity:1;fill:#00ffff;fill-opacity:1;fill-rule:nonzero;stroke:none;stroke-width:0.5;stroke-linecap:round;stroke-linejoin:miter;stroke-miterlimit:4;stroke-dasharray:none;stroke-dashoffset:0;stroke-opacity:1;color-rendering:auto;image-rendering:auto;shape-rendering:auto;text-rendering:auto;enable-background:accumulate"
       d="M 97.621094,440.19531 C 94.190935,440.19531 91.40625,442.98195 91.40625,446.41211 91.40625,449.84227 94.190935,452.62891 97.621094,452.62891 101.05125,452.62891 103.83789,449.84227 103.83789,446.41211 103.83789,442.98195 101.05125,440.19531 97.621094,440.19531 Z M 97.621094,440.69531 C 100.78103,440.69531 103.33789,443.25217 103.33789,446.41211 103.33789,449.57205 100.78103,452.12891 97.621094,452.12891 94.461155,452.12891 91.90625,449.57205 91.90625,446.41211 91.90625,443.25217 94.461155,440.69531 97.621094,440.69531 Z"
       id="path4239"
       inkscape:connector-curvature="0" />
    <path
       style="color:#000000;font-style:normal;font-variant:normal;font-weight:normal;font-stretch:normal;font-size:medium;line-height:normal;font-family:sans-serif;text-indent:0;text-align:start;text-decoration:none;text-decoration-line:none;text-decoration-style:solid;text-decoration-color:#000000;letter-spacing:normal;word-spacing:normal;text-transform:none;direction:ltr;block-progression:tb;writing-mode:lr-tb;baseline-shift:baseline;text-anchor:start;white-space:normal;clip-rule:nonzero;display:inline;overflow:visible;visibility:visible;opacity:1;isolation:auto;mix-blend-mode:normal;color-interpolation:sRGB;color-interpolation-filters:linearRGB;solid-color:#000000;solid-opacity:1;fill:#00ffff;fill-opacity:1;fill-rule:nonzero;stroke:none;stroke-width:0.5;stroke-linecap:round;stroke-linejoin:miter;stroke-miterlimit:4;stroke-dasharray:none;stroke-dashoffset:0;stroke-opacity:1;color-rendering:auto;image-rendering:auto;shape-rendering:auto;text-rendering:auto;enable-background:accumulate"
       d="M 99.449183,439.66567 C 99.444074,439.67184 99.438726,439.6777 99.433161,439.68326 99.427597,439.68882 99.421817,439.69407 99.415845,439.699 99.409872,439.70394 99.403708,439.70857 99.397376,439.71289 99.391044,439.7172 99.384544,439.7212 99.377899,439.72488 99.371255,439.72856 99.364467,439.73193 99.357558,439.73497 99.350649,439.73801 99.34362,439.74073 99.336495,439.74313 99.32937,439.74553 99.322148,439.7476 99.314855,439.74934 99.307561,439.75108 99.300194,439.7525 99.29278,439.75358 99.285365,439.75467 99.277902,439.75542 99.270414,439.75584 99.262926,439.75625 99.255414,439.75633 99.247901,439.75608 99.240388,439.75582 99.232874,439.75522 99.225383,439.75428 99.217893,439.75334 99.210426,439.75206 99.203006,439.75044 99.195586,439.74881 99.188213,439.74684 99.180911,439.74452 99.173609,439.7422 99.166379,439.73952 99.159243,439.7365 99.152107,439.73348 99.145067,439.7301 99.138145,439.72637 99.131223,439.72264 99.12442,439.71855 99.11776,439.7141 99.069421,439.68282 99.020244,439.65339 98.970328,439.62579 98.920412,439.5982 98.869757,439.57244 98.81846,439.54854 98.767162,439.52463 98.715223,439.50257 98.66274,439.48235 98.610257,439.46214 98.55723,439.44378 98.503757,439.42726 98.450283,439.41075 98.396363,439.39608 98.342095,439.38328 98.287826,439.37047 98.233209,439.35951 98.178341,439.35042 98.123473,439.34132 98.068355,439.33408 98.013083,439.3287 97.957811,439.32332 97.902386,439.3198 97.846905,439.31814 97.791425,439.31649 97.735889,439.31669 97.680395,439.31877 97.624901,439.32084 97.56945,439.32478 97.514139,439.33059 97.458828,439.3364 97.403656,439.34408 97.348723,439.35363 97.293789,439.36318 97.239094,439.3746 97.184733,439.3879 97.130373,439.4012 97.076348,439.41637 97.022757,439.43342 96.969165,439.45047 96.916007,439.4694 96.86338,439.49021 96.810752,439.51103 96.758656,439.53372 96.707188,439.55829 96.655721,439.58287 96.604882,439.60933 96.554769,439.63768 96.536104,439.64994 96.517557,439.65956 96.499265,439.66679 96.480972,439.67403 96.462935,439.67887 96.445288,439.68157 96.427642,439.68427 96.410388,439.68482 96.393662,439.68348 96.376936,439.68213 96.360739,439.67888 96.345208,439.67397 96.329676,439.66907 96.31481,439.6625 96.300747,439.65452 96.286685,439.64655 96.273424,439.63716 96.261104,439.62659 96.248783,439.61603 96.237402,439.6043 96.227098,439.59165 96.216794,439.57899 96.207567,439.56541 96.199554,439.55114 96.19154,439.53688 96.184741,439.52193 96.179292,439.50655 96.173843,439.49117 96.169745,439.47535 96.167135,439.45933 96.164524,439.44331 96.163402,439.4271 96.163905,439.41094 96.164407,439.39478 96.166534,439.37867 96.170424,439.36286 96.174313,439.34704 96.179964,439.33152 96.187514,439.31653 96.195064,439.30154 96.204513,439.2871 96.215997,439.27343 96.227482,439.25976 96.241003,439.24688 96.256696,439.23502 96.27239,439.22316 96.290256,439.21232 96.310433,439.20276 96.370618,439.16871 96.431679,439.13693 96.493498,439.10741 96.555316,439.0779 96.617892,439.05064 96.681109,439.02564 96.744325,439.00065 96.808181,438.97791 96.87256,438.95742 96.936938,438.93694 97.001839,438.91871 97.067144,438.90274 97.132449,438.88676 97.198159,438.87303 97.264155,438.86156 97.330151,438.85008 97.396435,438.84085 97.462887,438.83387 97.529338,438.82689 97.595959,438.82215 97.662632,438.81965 97.729304,438.81715 97.796027,438.8169 97.862684,438.81888 97.92934,438.82086 97.995931,438.82508 98.062337,438.83153 98.128742,438.83799 98.194964,438.84667 98.260883,438.85759 98.326803,438.86851 98.39242,438.88166 98.457618,438.89704 98.522815,438.91241 98.587593,438.93002 98.651833,438.94985 98.716073,438.96967 98.779776,438.99173 98.842823,439.016 98.90587,439.04027 98.968262,439.06676 99.02988,439.09547 99.091499,439.12418 99.152345,439.15511 99.212299,439.18825 99.272254,439.22138 99.331318,439.25674 99.389373,439.2943 99.397379,439.29932 99.404995,439.3047 99.412215,439.31042 99.419434,439.31613 99.426257,439.32218 99.432678,439.32852 99.439098,439.33487 99.445116,439.3415 99.450726,439.3484 99.456335,439.35529 99.461536,439.36244 99.466323,439.36981 99.471109,439.37718 99.475481,439.38477 99.479432,439.39255 99.483384,439.40032 99.486914,439.40828 99.490019,439.41638 99.493123,439.42448 99.495801,439.43272 99.498046,439.44108 99.500291,439.44943 99.502104,439.45789 99.503478,439.46642 99.504852,439.47496 99.505788,439.48356 99.506279,439.4922 99.50677,439.50083 99.506816,439.5095 99.506412,439.51817 99.506008,439.52683 99.505154,439.53549 99.503843,439.54412 99.502531,439.55274 99.500764,439.56132 99.498533,439.56982 99.496303,439.57832 99.49361,439.58674 99.490449,439.59505 99.487288,439.60335 99.483658,439.61154 99.479553,439.61958 99.475449,439.62762 99.470869,439.6355 99.46581,439.6432 99.46075,439.65089 99.45521,439.65839 99.449183,439.66567 Z"
       id="path4261-7-2"
       inkscape:connector-curvature="0"
       sodipodi:nodetypes="cssssssssssssssscssssssssssssssscssssssssssssssscssssssssssssssscsssssssssssssssc" />
    <path
       style="color:#000000;font-style:normal;font-variant:normal;font-weight:normal;font-stretch:normal;font-size:medium;line-height:normal;font-family:sans-serif;text-indent:0;text-align:start;text-decoration:none;text-decoration-line:none;text-decoration-style:solid;text-decoration-color:#000000;letter-spacing:normal;word-spacing:normal;text-transform:none;direction:ltr;block-progression:tb;writing-mode:lr-tb;baseline-shift:baseline;text-anchor:start;white-space:normal;clip-rule:nonzero;display:inline;overflow:visible;visibility:visible;opacity:1;isolation:auto;mix-blend-mode:normal;color-interpolation:sRGB;color-interpolation-filters:linearRGB;solid-color:#000000;solid-opacity:1;fill:#00ffff;fill-opacity:1;fill-rule:nonzero;stroke:none;stroke-width:0.76995718;stroke-linecap:round;stroke-linejoin:miter;stroke-miterlimit:4;stroke-dasharray:none;stroke-dashoffset:0;stroke-opacity:1;color-rendering:auto;image-rendering:auto;shape-rendering:auto;text-rendering:auto;enable-background:accumulate"
       d="M 100.38972,438.48529 C 100.38233,438.49632 100.37447,438.50685 100.36618,438.51687 100.35789,438.52689 100.34918,438.53639 100.34008,438.54537 100.33099,438.55435 100.32151,438.56281 100.3117,438.57074 100.30188,438.57867 100.29173,438.58606 100.28128,438.59292 100.27084,438.59978 100.2601,438.60609 100.24911,438.61186 100.23813,438.61763 100.22689,438.62285 100.21545,438.62751 100.20402,438.63217 100.19237,438.63627 100.18057,438.63981 100.16877,438.64335 100.15681,438.64632 100.14474,438.64872 100.13267,438.65111 100.12048,438.65293 100.10822,438.65417 100.09597,438.6554 100.08364,438.65606 100.07129,438.65612 100.05894,438.65617 100.04656,438.65564 100.03421,438.6545 100.02185,438.65337 100.00951,438.65163 99.99724,438.64928 99.984968,438.64693 99.97276,438.64397 99.960662,438.64039 99.948563,438.63681 99.936574,438.63262 99.924738,438.62779 99.912902,438.62296 99.90122,438.6175 99.889736,438.61141 99.878253,438.60532 99.866967,438.59859 99.855925,438.59121 99.781487,438.54305 99.705773,438.49771 99.628931,438.45522 99.552089,438.41272 99.474121,438.37306 99.395174,438.33624 99.316226,438.29941 99.236301,438.26543 99.155546,438.2343 99.07479,438.20316 98.993206,438.17487 98.91094,438.14943 98.828675,438.12399 98.745729,438.10139 98.662251,438.08166 98.578773,438.06192 98.494763,438.04504 98.41037,438.03102 98.325977,438.01699 98.241202,438.00583 98.156192,437.99753 98.071181,437.98923 97.985937,437.9838 97.900608,437.98123 97.815278,437.97867 97.729863,437.97897 97.644512,437.98215 97.559161,437.98533 97.473873,437.99139 97.388797,438.00032 97.303722,438.00925 97.218859,438.02106 97.134357,438.03575 97.049855,438.05045 96.965715,438.06803 96.882084,438.0885 96.798453,438.10896 96.715333,438.13232 96.632871,438.15857 96.55041,438.18482 96.468607,438.21396 96.387612,438.246 96.306617,438.27804 96.22643,438.31298 96.147199,438.35083 96.067969,438.38867 95.989695,438.42942 95.912526,438.47307 95.884618,438.48894 95.856966,438.5012 95.829757,438.51018 95.802548,438.51916 95.775781,438.52485 95.749643,438.5276 95.723505,438.53034 95.697996,438.53013 95.673301,438.52729 95.648605,438.52446 95.624725,438.51899 95.601845,438.51123 95.578965,438.50346 95.557085,438.4934 95.536392,438.48136 95.515699,438.46933 95.496192,438.45532 95.478057,438.43966 95.459923,438.424 95.443161,438.4067 95.427957,438.38808 95.412753,438.36946 95.399107,438.34952 95.387206,438.32859 95.375305,438.30766 95.365148,438.28574 95.356921,438.26315 95.348694,438.24056 95.342398,438.21731 95.338218,438.19372 95.334037,438.17013 95.331973,438.1462 95.332211,438.12226 95.332449,438.09832 95.334989,438.07437 95.340017,438.05074 95.345046,438.02711 95.352562,438.00379 95.362752,437.98112 95.372943,437.95845 95.385807,437.93642 95.401532,437.91536 95.417256,437.8943 95.43584,437.87421 95.457471,437.85542 95.479101,437.83663 95.503778,437.81914 95.531686,437.80327 95.624366,437.75084 95.718398,437.70191 95.813601,437.65646 95.908803,437.61101 96.005175,437.56905 96.102536,437.53056 96.199897,437.49208 96.298246,437.45708 96.397401,437.42555 96.496557,437.39403 96.596519,437.36598 96.697106,437.3414 96.797693,437.31681 96.898904,437.2957 97.000558,437.27805 97.102213,437.2604 97.20431,437.24622 97.306669,437.23549 97.409027,437.22476 97.511647,437.21749 97.614346,437.21367 97.717044,437.20985 97.819823,437.20949 97.922498,437.21256 98.025174,437.21564 98.127747,437.22217 98.230036,437.23213 98.332325,437.2421 98.43433,437.25551 98.535868,437.27235 98.637407,437.28919 98.738479,437.30946 98.838904,437.33316 98.939328,437.35687 99.039105,437.384 99.138052,437.41455 99.236999,437.44511 99.335116,437.47908 99.432222,437.51648 99.529328,437.55387 99.625422,437.59468 99.720323,437.63891 99.815224,437.68313 99.908932,437.73076 100.00126,437.7818 100.0936,437.83284 100.18455,437.88729 100.27396,437.94513 100.28545,437.95233 100.29644,437.96004 100.30689,437.9682 100.31735,437.97637 100.32729,437.98499 100.33669,437.99402 100.34609,438.00305 100.35496,438.0125 100.36328,438.0223 100.3716,438.03211 100.37938,438.04228 100.38661,438.05276 100.39383,438.06325 100.4005,438.07405 100.40661,438.08512 100.41271,438.09619 100.41825,438.10753 100.42322,438.11909 100.42818,438.13065 100.43257,438.14243 100.43638,438.15439 100.44019,438.16634 100.44341,438.17848 100.44604,438.19074 100.44867,438.203 100.4507,438.21538 100.45213,438.22785 100.45355,438.24032 100.45438,438.25286 100.45458,438.26544 100.45479,438.27802 100.45438,438.29064 100.45335,438.30324 100.45232,438.31584 100.45066,438.32842 100.44837,438.34095 100.44608,438.35347 100.44315,438.36594 100.43958,438.37829 100.436,438.39065 100.43178,438.40289 100.42691,438.41498 100.42204,438.42708 100.41651,438.43901 100.41031,438.45075 100.40412,438.46248 100.39726,438.47401 100.38972,438.48529 Z"
       id="path4261-9-0-0"
       inkscape:connector-curvature="0"
       sodipodi:nodetypes="cssssssssssssssscssssssssssssssscssssssssssssssscssssssssssssssscsssssssssssssssc" />
    <path
       style="color:#000000;font-style:normal;font-variant:normal;font-weight:normal;font-stretch:normal;font-size:medium;line-height:normal;font-family:sans-serif;text-indent:0;text-align:start;text-decoration:none;text-decoration-line:none;text-decoration-style:solid;text-decoration-color:#000000;letter-spacing:normal;word-spacing:normal;text-transform:none;direction:ltr;block-progression:tb;writing-mode:lr-tb;baseline-shift:baseline;text-anchor:start;white-space:normal;clip-rule:nonzero;display:inline;overflow:visible;visibility:visible;opacity:1;isolation:auto;mix-blend-mode:normal;color-interpolation:sRGB;color-interpolation-filters:linearRGB;solid-color:#000000;solid-opacity:1;fill:#00ffff;fill-opacity:1;fill-rule:nonzero;stroke:none;stroke-width:1.22609174;stroke-linecap:round;stroke-linejoin:miter;stroke-miterlimit:4;stroke-dasharray:none;stroke-dashoffset:0;stroke-opacity:1;color-rendering:auto;image-rendering:auto;shape-rendering:auto;text-rendering:auto;enable-background:accumulate"
       d="M 101.78351,437.33064 C 101.77176,437.3482 101.75926,437.36495 101.74608,437.38089 101.7329,437.39683 101.71904,437.41196 101.70457,437.42625 101.69011,437.44055 101.67503,437.45401 101.65942,437.46663 101.64381,437.47926 101.62767,437.49103 101.61105,437.50195 101.59444,437.51287 101.57736,437.52293 101.55988,437.53212 101.54241,437.54131 101.52454,437.54963 101.50635,437.55706 101.48815,437.56449 101.46963,437.57103 101.45086,437.57668 101.43209,437.58232 101.41307,437.58707 101.39386,437.59089 101.37465,437.59472 101.35526,437.59764 101.33576,437.59962 101.31626,437.60161 101.29665,437.60267 101.277,437.60278 101.25735,437.60289 101.23765,437.60206 101.21799,437.60028 101.19833,437.59849 101.1787,437.59575 101.15917,437.59204 101.13964,437.58832 101.12021,437.58364 101.10095,437.57797 101.08169,437.5723 101.06261,437.56564 101.04377,437.55799 101.02492,437.55033 101.00633,437.54168 100.98804,437.53201 100.96976,437.52234 100.95179,437.51166 100.9342,437.49995 100.81566,437.42326 100.69509,437.35107 100.57272,437.2834 100.45035,437.21573 100.32618,437.15257 100.20045,437.09394 100.07473,437.03531 99.947436,436.9812 99.818824,436.93162 99.690212,436.88204 99.560277,436.837 99.429257,436.79649 99.298236,436.75598 99.16613,436.72001 99.033175,436.68859 98.900221,436.65717 98.766418,436.63029 98.632005,436.60797 98.497591,436.58564 98.362567,436.56787 98.22717,436.55467 98.091772,436.54146 97.956001,436.53281 97.820095,436.52874 97.684188,436.52466 97.548145,436.52515 97.412204,436.53022 97.276263,436.53529 97.140423,436.54493 97.004923,436.55916 96.869422,436.57339 96.734261,436.5922 96.599676,436.61561 96.46509,436.63902 96.331082,436.66701 96.197887,436.69961 96.064692,436.73221 95.932311,436.7694 95.800981,436.81121 95.669652,436.85301 95.539373,436.89942 95.410384,436.95045 95.281394,437.00147 95.153693,437.05711 95.027518,437.11738 94.901343,437.17764 94.776695,437.24252 94.65381,437.31204 94.608493,437.34072 94.563488,437.36315 94.519122,437.37993 94.474755,437.39671 94.431026,437.40782 94.38826,437.41384 94.345493,437.41986 94.303689,437.4208 94.263173,437.41721 94.222657,437.41363 94.183429,437.40553 94.145813,437.39348 94.108197,437.38144 94.072193,437.36545 94.038127,437.34609 94.004061,437.32673 93.971933,437.304 93.942067,437.27847 93.912201,437.25294 93.884597,437.22462 93.859581,437.19407 93.834565,437.16352 93.812136,437.13075 93.79262,437.09632 93.773103,437.0619 93.756499,437.02582 93.743132,436.98867 93.729765,436.95151 93.719635,436.91328 93.713068,436.87455 93.7065,436.83581 93.703495,436.79657 93.704377,436.7574 93.705259,436.71822 93.710028,436.67912 93.719009,436.64066 93.727991,436.60219 93.741184,436.56437 93.758914,436.52777 93.776645,436.49116 93.798912,436.45577 93.826041,436.42216 93.853171,436.38856 93.885162,436.35674 93.92234,436.32729 93.959519,436.29783 94.001884,436.27074 94.049761,436.24658 94.197346,436.16309 94.34708,436.08516 94.498674,436.01277 94.650269,435.94038 94.803723,435.87353 94.958749,435.81222 95.113775,435.75091 95.270372,435.69513 95.428251,435.64489 95.58613,435.59464 95.745291,435.54992 95.905445,435.51072 96.065599,435.47152 96.226746,435.43784 96.388598,435.40968 96.550449,435.38151 96.713004,435.35885 96.875974,435.3417 97.038944,435.32455 97.202329,435.3129 97.36584,435.30675 97.529351,435.3006 97.692988,435.29994 97.856462,435.30477 98.019935,435.3096 98.183246,435.31992 98.346104,435.33572 98.508962,435.35152 98.671368,435.37279 98.833033,435.39954 98.994697,435.42629 99.155621,435.45851 99.315514,435.49619 99.475407,435.53387 99.634269,435.57702 99.791812,435.62562 99.949355,435.67422 100.10558,435.72828 100.26019,435.78778 100.41481,435.84728 100.56782,435.91223 100.71893,435.98262 100.87004,436.05301 101.01925,436.12883 101.16627,436.21009 101.3133,436.29135 101.45814,436.37804 101.6005,436.47015 101.61879,436.48165 101.63626,436.49395 101.6529,436.50697 101.66954,436.52 101.68534,436.53375 101.70029,436.54816 101.71524,436.56257 101.72934,436.57763 101.74257,436.59326 101.7558,436.6089 101.76816,436.62511 101.77964,436.64183 101.79111,436.65854 101.80171,436.67576 101.8114,436.6934 101.8211,436.71105 101.8299,436.72912 101.83778,436.74754 101.84566,436.76597 101.85262,436.78474 101.85865,436.80379 101.86469,436.82284 101.86979,436.84217 101.87394,436.8617 101.87809,436.88123 101.8813,436.90096 101.88354,436.92082 101.88578,436.94068 101.88706,436.96066 101.88736,436.9807 101.88766,437.00073 101.88698,437.02082 101.88531,437.04088 101.88363,437.06094 101.88096,437.08098 101.87728,437.10092 101.87359,437.12086 101.8689,437.1407 101.86318,437.16037 101.85746,437.18004 101.85071,437.19953 101.84291,437.21877 101.83512,437.23802 101.82629,437.25701 101.81639,437.27568 101.8065,437.29435 101.79554,437.31269 101.78351,437.33064 Z"
       id="path4261-9-1-9-2"
       inkscape:connector-curvature="0"
       sodipodi:nodetypes="cssssssssssssssscssssssssssssssscssssssssssssssscssssssssssssssscsssssssssssssssc" />
    <path
       style="color:#000000;font-style:normal;font-variant:normal;font-weight:normal;font-stretch:normal;font-size:medium;line-height:normal;font-family:sans-serif;text-indent:0;text-align:start;text-decoration:none;text-decoration-line:none;text-decoration-style:solid;text-decoration-color:#000000;letter-spacing:normal;word-spacing:normal;text-transform:none;direction:ltr;block-progression:tb;writing-mode:lr-tb;baseline-shift:baseline;text-anchor:start;white-space:normal;clip-rule:nonzero;display:inline;overflow:visible;visibility:visible;opacity:1;isolation:auto;mix-blend-mode:normal;color-interpolation:sRGB;color-interpolation-filters:linearRGB;solid-color:#000000;solid-opacity:1;fill:#00ffff;fill-opacity:1;fill-rule:nonzero;stroke:none;stroke-width:0.5;stroke-linecap:round;stroke-linejoin:miter;stroke-miterlimit:4;stroke-dasharray:none;stroke-dashoffset:0;stroke-opacity:1;color-rendering:auto;image-rendering:auto;shape-rendering:auto;text-rendering:auto;enable-background:accumulate"
       d="M 99.47088,453.60013 C 99.466079,453.59296 99.460972,453.58611 99.455587,453.5796 99.450202,453.57309 99.44454,453.56692 99.438629,453.56108 99.432718,453.55525 99.426559,453.54975 99.42018,453.5446 99.413802,453.53945 99.407204,453.53464 99.400415,453.53019 99.393627,453.52573 99.386648,453.52163 99.379508,453.51788 99.372368,453.51413 99.365067,453.51074 99.357634,453.50772 99.3502,453.50469 99.342635,453.50202 99.334966,453.49973 99.327297,453.49743 99.319525,453.4955 99.311679,453.49395 99.303833,453.49239 99.295913,453.49122 99.287948,453.49042 99.279983,453.48962 99.271973,453.4892 99.263946,453.48916 99.25592,453.48913 99.247878,453.48948 99.239849,453.49022 99.23182,453.49096 99.223804,453.4921 99.21583,453.49363 99.207856,453.49516 99.199924,453.49709 99.192064,453.49942 99.184203,453.50175 99.176414,453.50449 99.168725,453.50763 99.161036,453.51077 99.153447,453.51433 99.145988,453.51829 99.138528,453.52226 99.131198,453.52664 99.124026,453.53144 99.075687,453.56272 99.026517,453.59215 98.976613,453.61974 98.926709,453.64732 98.876071,453.67306 98.824796,453.69696 98.773522,453.72085 98.72161,453.74289 98.669158,453.76309 98.616706,453.78328 98.563714,453.80162 98.510279,453.81811 98.456844,453.8346 98.402966,453.84924 98.348741,453.86202 98.294517,453.8748 98.239946,453.88572 98.185126,453.89479 98.130306,453.90386 98.075237,453.91106 98.020015,453.91641 97.964794,453.92176 97.90942,453.92524 97.853991,453.92687 97.798561,453.92849 97.743076,453.92825 97.687633,453.92614 97.63219,453.92404 97.576788,453.92007 97.521525,453.91423 97.466261,453.90839 97.411137,453.90068 97.356247,453.8911 97.301358,453.88152 97.246703,453.87007 97.192382,453.85675 97.13806,453.84342 97.08407,453.82823 97.03051,453.81116 96.97695,453.79408 96.923818,453.77514 96.871213,453.75431 96.818609,453.73349 96.76653,453.71078 96.715074,453.6862 96.663618,453.66161 96.612786,453.63515 96.562673,453.6068 96.544485,453.59647 96.52647,453.5885 96.508747,453.58267 96.491025,453.57683 96.473596,453.57314 96.45658,453.57138 96.439565,453.56961 96.422963,453.56977 96.406896,453.57165 96.390829,453.57352 96.375297,453.57711 96.36042,453.58219 96.345543,453.58728 96.331321,453.59387 96.317876,453.60173 96.304431,453.6096 96.291762,453.61876 96.27999,453.62898 96.268217,453.6392 96.257342,453.6505 96.247485,453.66265 96.237627,453.6748 96.228788,453.68781 96.221087,453.70146 96.213385,453.71511 96.206823,453.7294 96.201519,453.74412 96.196216,453.75884 96.192172,453.77399 96.189508,453.78935 96.186844,453.80471 96.18556,453.82029 96.185777,453.83587 96.185994,453.85145 96.187712,453.86702 96.191051,453.88239 96.194391,453.89775 96.199352,453.9129 96.206055,453.92762 96.212759,453.94234 96.221204,453.95664 96.231513,453.97029 96.241822,453.98394 96.253995,453.99695 96.268151,454.0091 96.282307,454.02126 96.298447,454.03255 96.316692,454.04278 96.376877,454.07683 96.437938,454.10861 96.499757,454.13813 96.561575,454.16764 96.624151,454.1949 96.687368,454.2199 96.750584,454.24489 96.81444,454.26763 96.878819,454.28812 96.943198,454.3086 97.008098,454.32683 97.073404,454.3428 97.138709,454.35878 97.204419,454.37251 97.270415,454.38398 97.336412,454.39546 97.402695,454.40469 97.469147,454.41167 97.5356,454.41865 97.602221,454.42339 97.668893,454.42589 97.735565,454.42839 97.802289,454.42864 97.868946,454.42666 97.935603,454.42468 98.002193,454.42046 98.0686,454.41401 98.135006,454.40755 98.201227,454.39886 98.267147,454.38795 98.333067,454.37703 98.398684,454.36388 98.463882,454.3485 98.52908,454.33312 98.593858,454.31552 98.658098,454.29569 98.722339,454.27586 98.786041,454.25381 98.849089,454.22954 98.912136,454.20526 98.974528,454.17877 99.036147,454.15006 99.097766,454.12135 99.158611,454.09043 99.218566,454.05729 99.278521,454.02415 99.337585,453.98879 99.39564,453.95123 99.40312,453.94655 99.410266,453.94155 99.417072,453.93625 99.423877,453.93094 99.430341,453.92534 99.436457,453.91947 99.442573,453.91361 99.448342,453.90747 99.453757,453.9011 99.459171,453.89473 99.464232,453.88812 99.468931,453.8813 99.473631,453.87449 99.47797,453.86747 99.481941,453.86027 99.485913,453.85307 99.489517,453.8457 99.492747,453.83819 99.495977,453.83067 99.498833,453.82301 99.501309,453.81524 99.503784,453.80747 99.50588,453.79958 99.507588,453.79161 99.509296,453.78364 99.510616,453.77558 99.511544,453.76748 99.512471,453.75937 99.513004,453.75122 99.513137,453.74304 99.513271,453.73486 99.513003,453.72666 99.512329,453.71847 99.511655,453.71027 99.510575,453.70209 99.50908,453.69395 99.507586,453.68581 99.505678,453.67771 99.50335,453.66967 99.501022,453.66164 99.498274,453.65368 99.4951,453.64582 99.491925,453.63796 99.488324,453.63021 99.48429,453.62258 99.480255,453.61495 99.475787,453.60746 99.47088,453.60013 Z"
       id="path4261-7-2-7"
       inkscape:connector-curvature="0"
       sodipodi:nodetypes="cssssssssssssssscssssssssssssssscssssssssssssssscssssssssssssssscsssssssssssssssc" />
    <path
       style="color:#000000;font-style:normal;font-variant:normal;font-weight:normal;font-stretch:normal;font-size:medium;line-height:normal;font-family:sans-serif;text-indent:0;text-align:start;text-decoration:none;text-decoration-line:none;text-decoration-style:solid;text-decoration-color:#000000;letter-spacing:normal;word-spacing:normal;text-transform:none;direction:ltr;block-progression:tb;writing-mode:lr-tb;baseline-shift:baseline;text-anchor:start;white-space:normal;clip-rule:nonzero;display:inline;overflow:visible;visibility:visible;opacity:1;isolation:auto;mix-blend-mode:normal;color-interpolation:sRGB;color-interpolation-filters:linearRGB;solid-color:#000000;solid-opacity:1;fill:#00ffff;fill-opacity:1;fill-rule:nonzero;stroke:none;stroke-width:0.76995718;stroke-linecap:round;stroke-linejoin:miter;stroke-miterlimit:4;stroke-dasharray:none;stroke-dashoffset:0;stroke-opacity:1;color-rendering:auto;image-rendering:auto;shape-rendering:auto;text-rendering:auto;enable-background:accumulate"
       d="M 100.39598,454.76025 C 100.38859,454.74922 100.38073,454.73869 100.37244,454.72867 100.36416,454.71865 100.35544,454.70915 100.34635,454.70017 100.33725,454.69119 100.32777,454.68273 100.31796,454.6748 100.30814,454.66687 100.29799,454.65948 100.28755,454.65262 100.2771,454.64576 100.26636,454.63944 100.25538,454.63368 100.24439,454.62791 100.23315,454.62269 100.22172,454.61803 100.21028,454.61337 100.19864,454.60926 100.18684,454.60572 100.17504,454.60219 100.16308,454.59922 100.151,454.59682 100.13893,454.59442 100.12674,454.5926 100.11448,454.59137 100.10223,454.59013 100.0899,454.58948 100.07755,454.58942 100.0652,454.58936 100.05282,454.5899 100.04047,454.59103 100.02811,454.59217 100.01577,454.59391 100.0035,454.59626 99.991228,454.5986 99.97902,454.60156 99.966921,454.60514 99.954822,454.60872 99.942832,454.61292 99.930997,454.61775 99.919161,454.62258 99.907478,454.62803 99.895995,454.63413 99.884511,454.64022 99.873225,454.64695 99.862183,454.65433 99.787745,454.70249 99.712027,454.74782 99.635178,454.7903 99.55833,454.83279 99.48035,454.87243 99.401388,454.90923 99.322427,454.94603 99.242484,454.97998 99.161709,455.01109 99.080934,455.04219 98.999327,455.07045 98.917037,455.09585 98.834747,455.12125 98.751774,455.1438 98.668267,455.1635 98.584761,455.18319 98.500721,455.20002 98.416298,455.214 98.331874,455.22797 98.247066,455.23909 98.162023,455.24733 98.07698,455.25558 97.991703,455.26097 97.90634,455.26348 97.820978,455.26599 97.73553,455.26564 97.650146,455.26241 97.564762,455.25918 97.479442,455.25308 97.394335,455.2441 97.309228,455.23512 97.224335,455.22326 97.139805,455.20852 97.055274,455.19378 96.971106,455.17616 96.887451,455.15566 96.803795,455.13515 96.720652,455.11176 96.63817,455.08548 96.555688,455.0592 96.473867,455.03003 96.392858,454.99797 96.311848,454.96591 96.231649,454.93095 96.152411,454.8931 96.073172,454.85524 95.994894,454.81449 95.917725,454.77084 95.889417,454.75369 95.861338,454.74035 95.833685,454.73046 95.806031,454.72057 95.778804,454.71413 95.752198,454.7108 95.725592,454.70747 95.699608,454.70724 95.674443,454.70977 95.649278,454.71231 95.624931,454.71759 95.601599,454.72529 95.578268,454.73299 95.555951,454.7431 95.534845,454.75526 95.51374,454.76743 95.493846,454.78166 95.47536,454.7976 95.456873,454.81354 95.439795,454.83119 95.424321,454.85021 95.408847,454.86922 95.394977,454.8896 95.382908,454.911 95.370839,454.93239 95.360571,454.95481 95.3523,454.97789 95.344029,455.00097 95.337756,455.02471 95.333676,455.04878 95.329596,455.07284 95.327709,455.09723 95.328213,455.12159 95.328717,455.14594 95.331611,455.17027 95.337092,455.19422 95.342572,455.21817 95.35064,455.24174 95.36149,455.26459 95.37234,455.28743 95.385974,455.30956 95.402587,455.3306 95.419199,455.35165 95.438792,455.37162 95.46156,455.39017 95.484329,455.40872 95.510273,455.42585 95.53959,455.44121 95.63227,455.49364 95.726295,455.54258 95.821485,455.58803 95.916675,455.63349 96.01303,455.67546 96.110368,455.71396 96.207706,455.75246 96.306028,455.78747 96.405152,455.81902 96.504276,455.85057 96.604203,455.87864 96.704751,455.90325 96.8053,455.92785 96.906469,455.94899 97.00808,455.96667 97.10969,455.98435 97.211741,455.99856 97.314051,456.00932 97.416362,456.02008 97.518932,456.02738 97.62158,456.03124 97.724229,456.03509 97.826956,456.03549 97.92958,456.03244 98.032204,456.0294 98.134726,456.02291 98.236965,456.01297 98.339203,456.00304 98.441158,455.98967 98.542649,455.97286 98.644139,455.95605 98.745165,455.93581 98.845546,455.91213 98.945926,455.88846 99.045661,455.86135 99.14457,455.83083 99.243478,455.8003 99.34156,455.76634 99.438634,455.72897 99.535709,455.6916 99.631775,455.6508 99.726654,455.60659 99.821532,455.56239 99.915222,455.51477 100.00754,455.46373 100.09986,455.4127 100.19081,455.35826 100.28021,455.30042 100.29171,455.29322 100.30269,455.28551 100.31315,455.27735 100.32361,455.26918 100.33355,455.26056 100.34295,455.25153 100.35235,455.2425 100.36122,455.23306 100.36954,455.22325 100.37786,455.21344 100.38564,455.20327 100.39287,455.19279 100.40009,455.1823 100.40676,455.1715 100.41286,455.16043 100.41897,455.14936 100.42451,455.13802 100.42948,455.12646 100.43444,455.1149 100.43884,455.10312 100.44264,455.09116 100.44645,455.0792 100.44967,455.06707 100.4523,455.05481 100.45493,455.04255 100.45696,455.03016 100.45839,455.0177 100.45982,455.00523 100.46064,454.99268 100.46085,454.9801 100.46105,454.96752 100.46065,454.95491 100.45961,454.94231 100.45858,454.92971 100.45692,454.91712 100.45463,454.9046 100.45234,454.89207 100.44941,454.87961 100.44584,454.86725 100.44226,454.8549 100.43805,454.84265 100.43317,454.83056 100.4283,454.81847 100.42277,454.80653 100.41657,454.7948 100.41038,454.78306 100.40352,454.77153 100.39598,454.76025 Z"
       id="path4261-9-0-0-5"
       inkscape:connector-curvature="0"
       sodipodi:nodetypes="cssssssssssssssscssssssssssssssscssssssssssssssscssssssssssssssscsssssssssssssssc" />
    <path
       style="color:#000000;font-style:normal;font-variant:normal;font-weight:normal;font-stretch:normal;font-size:medium;line-height:normal;font-family:sans-serif;text-indent:0;text-align:start;text-decoration:none;text-decoration-line:none;text-decoration-style:solid;text-decoration-color:#000000;letter-spacing:normal;word-spacing:normal;text-transform:none;direction:ltr;block-progression:tb;writing-mode:lr-tb;baseline-shift:baseline;text-anchor:start;white-space:normal;clip-rule:nonzero;display:inline;overflow:visible;visibility:visible;opacity:1;isolation:auto;mix-blend-mode:normal;color-interpolation:sRGB;color-interpolation-filters:linearRGB;solid-color:#000000;solid-opacity:1;fill:#00ffff;fill-opacity:1;fill-rule:nonzero;stroke:none;stroke-width:1.22609174;stroke-linecap:round;stroke-linejoin:miter;stroke-miterlimit:4;stroke-dasharray:none;stroke-dashoffset:0;stroke-opacity:1;color-rendering:auto;image-rendering:auto;shape-rendering:auto;text-rendering:auto;enable-background:accumulate"
       d="M 101.7914,455.91384 C 101.77962,455.89624 101.76709,455.87945 101.75388,455.86348 101.74067,455.8475 101.72678,455.83235 101.71228,455.81803 101.69777,455.80371 101.68266,455.79023 101.66701,455.77759 101.65136,455.76495 101.63517,455.75316 101.61852,455.74223 101.60186,455.7313 101.58474,455.72124 101.56722,455.71205 101.5497,455.70286 101.53178,455.69454 101.51355,455.68712 101.49531,455.6797 101.47674,455.67316 101.45793,455.66753 101.43911,455.66191 101.42004,455.65718 101.40079,455.65337 101.38154,455.64957 101.36211,455.64668 101.34257,455.64472 101.32302,455.64277 101.30337,455.64175 101.28368,455.64167 101.26399,455.64159 101.24426,455.64247 101.22456,455.6443 101.20486,455.64613 101.1852,455.64892 101.16563,455.65269 101.14607,455.65645 101.12661,455.6612 101.10733,455.66693 101.08805,455.67266 101.06894,455.67938 101.05008,455.6871 101.03122,455.69482 101.01261,455.70355 100.99431,455.71329 100.97602,455.72304 100.95804,455.7338 100.94045,455.74559 100.82191,455.82228 100.70134,455.89447 100.57896,455.96212 100.45658,456.02978 100.3324,456.09292 100.20666,456.15153 100.08092,456.21014 99.953616,456.26422 99.824984,456.31377 99.696352,456.36331 99.566394,456.40833 99.435349,456.44879 99.304303,456.48926 99.17217,456.52519 99.039188,456.55657 98.906205,456.58795 98.772372,456.61478 98.637928,456.63706 98.503483,456.65933 98.368427,456.67705 98.232997,456.69021 98.097567,456.70337 97.961763,456.71196 97.825823,456.71599 97.689883,456.72001 97.553808,456.71947 97.417834,456.71435 97.28186,456.70923 97.145989,456.69954 97.010457,456.68526 96.874925,456.67098 96.739734,456.65212 96.60512,456.62867 96.470507,456.60522 96.336471,456.57718 96.203251,456.54455 96.070032,456.51191 95.937628,456.47468 95.806278,456.43285 95.674928,456.39101 95.544632,456.34458 95.415628,456.29353 95.286624,456.24248 95.158912,456.18682 95.032729,456.12655 94.906547,456.06628 94.781894,456.00138 94.659009,455.93187 94.613974,455.90462 94.569301,455.88341 94.525304,455.8677 94.481308,455.85198 94.437986,455.84175 94.395652,455.83646 94.353319,455.83117 94.311973,455.83081 94.271928,455.83483 94.231883,455.83886 94.193138,455.84727 94.156006,455.85951 94.118874,455.87175 94.083355,455.88781 94.049761,455.90716 94.016167,455.9265 93.984499,455.94913 93.955069,455.97447 93.925638,455.99982 93.898446,456.02789 93.873804,456.05813 93.849162,456.08837 93.82707,456.12078 93.807842,456.15481 93.788613,456.18884 93.772247,456.22448 93.759057,456.2612 93.745866,456.29791 93.735851,456.33568 93.729324,456.37397 93.722797,456.41226 93.719757,456.45106 93.720519,456.48982 93.72128,456.52857 93.725841,456.56729 93.734516,456.60541 93.74319,456.64354 93.755977,456.68106 93.77319,456.71744 93.790403,456.75383 93.812041,456.78906 93.838417,456.82259 93.864793,456.85612 93.895906,456.88796 93.932071,456.91754 93.968235,456.94712 94.00945,456.97444 94.056027,456.99896 94.203612,457.08245 94.353342,457.16038 94.504929,457.23276 94.656515,457.30513 94.809958,457.37196 94.96497,457.43325 95.119981,457.49454 95.27656,457.55029 95.434419,457.6005 95.592278,457.65072 95.751416,457.6954 95.911546,457.73456 96.071675,457.77372 96.232795,457.80736 96.394618,457.83548 96.556441,457.86361 96.718966,457.88621 96.881905,457.90332 97.044844,457.92042 97.208197,457.93202 97.371675,457.93812 97.535153,457.94422 97.698757,457.94483 97.862197,457.93995 98.025638,457.93507 98.188915,457.9247 98.35174,457.90885 98.514565,457.893 98.676939,457.87167 98.838572,457.84488 99.000206,457.81808 99.161099,457.78582 99.320963,457.74809 99.480827,457.71036 99.639662,457.66718 99.79718,457.61854 99.954698,457.5699 100.1109,457.51581 100.26549,457.45627 100.42008,457.39674 100.57307,457.33176 100.72417,457.26135 100.87526,457.19094 101.02446,457.1151 101.17148,457.03383 101.31849,456.95256 101.46333,456.86586 101.60569,456.77375 101.62402,456.76231 101.64153,456.75007 101.65821,456.73709 101.67488,456.72412 101.69073,456.71041 101.70572,456.69605 101.72072,456.68169 101.73486,456.66668 101.74814,456.65108 101.76142,456.63549 101.77383,456.61932 101.78536,456.60264 101.79689,456.58596 101.80754,456.56877 101.81729,456.55116 101.82704,456.53355 101.8359,456.5155 101.84383,456.4971 101.85177,456.47871 101.8588,456.45995 101.86489,456.44092 101.87098,456.42189 101.87614,456.40258 101.88036,456.38306 101.88457,456.36354 101.88784,456.34382 101.89015,456.32397 101.89245,456.30412 101.89379,456.28414 101.89415,456.26411 101.89452,456.24407 101.8939,456.22398 101.89229,456.20392 101.89067,456.18385 101.88807,456.1638 101.88445,456.14385 101.88082,456.1239 101.87619,456.10404 101.87053,456.08436 101.86487,456.06468 101.85819,456.04516 101.85045,456.02589 101.84272,456.00663 101.83394,455.9876 101.82411,455.9689 101.81427,455.9502 101.80337,455.93182 101.7914,455.91384 Z"
       id="path4261-9-1-9-2-9"
       inkscape:connector-curvature="0"
       sodipodi:nodetypes="cssssssssssssssscssssssssssssssscssssssssssssssscssssssssssssssscsssssssssssssssc" />
    <path
       style="color:#000000;font-style:normal;font-variant:normal;font-weight:normal;font-stretch:normal;font-size:medium;line-height:normal;font-family:sans-serif;text-indent:0;text-align:start;text-decoration:none;text-decoration-line:none;text-decoration-style:solid;text-decoration-color:#000000;letter-spacing:normal;word-spacing:normal;text-transform:none;direction:ltr;block-progression:tb;writing-mode:lr-tb;baseline-shift:baseline;text-anchor:start;white-space:normal;clip-rule:nonzero;display:inline;overflow:visible;visibility:visible;opacity:1;isolation:auto;mix-blend-mode:normal;color-interpolation:sRGB;color-interpolation-filters:linearRGB;solid-color:#000000;solid-opacity:1;fill:#00ffff;fill-opacity:1;fill-rule:nonzero;stroke:none;stroke-width:0.5;stroke-linecap:round;stroke-linejoin:miter;stroke-miterlimit:4;stroke-dasharray:none;stroke-dashoffset:0;stroke-opacity:1;color-rendering:auto;image-rendering:auto;shape-rendering:auto;text-rendering:auto;enable-background:accumulate"
       d="M 104.63039,447.90607 C 104.62322,447.90127 104.61637,447.89616 104.60986,447.89078 104.60335,447.88539 104.59718,447.87973 104.59134,447.87382 104.5855,447.86791 104.58001,447.86175 104.57486,447.85537 104.5697,447.84899 104.5649,447.84239 104.56044,447.8356 104.55599,447.82882 104.55188,447.82184 104.54814,447.8147 104.54439,447.80756 104.541,447.80026 104.53797,447.79282 104.53495,447.78539 104.53228,447.77782 104.52998,447.77015 104.52769,447.76248 104.52576,447.75471 104.52421,447.74687 104.52265,447.73902 104.52147,447.7311 104.52067,447.72313 104.51987,447.71517 104.51945,447.70716 104.51942,447.69913 104.51938,447.69111 104.51974,447.68306 104.52048,447.67503 104.52122,447.66701 104.52236,447.65899 104.52389,447.65102 104.52542,447.64304 104.52735,447.63511 104.52968,447.62725 104.53201,447.61939 104.53475,447.6116 104.53789,447.60391 104.54103,447.59622 104.54459,447.58863 104.54855,447.58117 104.55252,447.57371 104.5569,447.56638 104.5617,447.55921 104.59298,447.51087 104.62241,447.4617 104.65,447.4118 104.67758,447.36189 104.70332,447.31126 104.72722,447.25998 104.75111,447.20871 104.77315,447.1568 104.79335,447.10434 104.81354,447.05189 104.83188,446.9989 104.84837,446.94547 104.86486,446.89203 104.8795,446.83815 104.89228,446.78393 104.90506,446.7297 104.91598,446.67513 104.92505,446.62031 104.93411,446.56549 104.94132,446.51042 104.94667,446.4552 104.95201,446.39998 104.9555,446.34461 104.95712,446.28918 104.95874,446.23375 104.9585,446.17826 104.9564,446.12282 104.95429,446.06738 104.95032,446.01197 104.94448,445.95671 104.93864,445.90145 104.93093,445.84632 104.92135,445.79143 104.91177,445.73654 104.90032,445.68189 104.887,445.62757 104.87367,445.57325 104.85848,445.51926 104.84141,445.4657 104.82433,445.41214 104.80539,445.359 104.78456,445.3064 104.76374,445.2538 104.74103,445.20172 104.71645,445.15026 104.69186,445.09881 104.6654,445.04797 104.63705,444.99786 104.6268,444.97969 104.6189,444.9617 104.61312,444.944 104.60735,444.92631 104.6037,444.90891 104.60198,444.89192 104.60025,444.87493 104.60044,444.85836 104.60234,444.84232 104.60424,444.82628 104.60784,444.81078 104.61293,444.79593 104.61802,444.78108 104.62461,444.76689 104.63248,444.75347 104.64034,444.74005 104.64949,444.72741 104.6597,444.71566 104.66991,444.70391 104.68118,444.69306 104.69332,444.68322 104.70545,444.67338 104.71843,444.66456 104.73206,444.65688 104.74568,444.64919 104.75995,444.64264 104.77464,444.63734 104.78933,444.63204 104.80445,444.628 104.81979,444.62534 104.83512,444.62267 104.85067,444.62139 104.86622,444.62159 104.88178,444.6218 104.89733,444.6235 104.91267,444.62682 104.92802,444.63014 104.94315,444.63507 104.95786,444.64174 104.97257,444.64841 104.98685,444.65682 105.0005,444.66708 105.01415,444.67734 105.02716,444.68946 105.03932,444.70355 105.05148,444.71764 105.06279,444.73371 105.07304,444.75188 105.10709,444.81207 105.13887,444.87313 105.16838,444.93495 105.1979,444.99676 105.22516,445.05934 105.25015,445.12256 105.27515,445.18577 105.29789,445.24963 105.31837,445.31401 105.33886,445.37839 105.35708,445.44329 105.37306,445.50859 105.38904,445.5739 105.40276,445.63961 105.41424,445.70561 105.42571,445.7716 105.43494,445.83788 105.44193,445.90434 105.44891,445.97079 105.45365,446.03741 105.45615,446.10408 105.45864,446.17075 105.4589,446.23748 105.45692,446.30414 105.45494,446.37079 105.45072,446.43738 105.44426,446.50379 105.43781,446.57019 105.42912,446.63642 105.4182,446.70234 105.40728,446.76826 105.39413,446.83387 105.37876,446.89907 105.36338,446.96427 105.34578,447.02905 105.32595,447.09329 105.30612,447.15753 105.28407,447.22123 105.2598,447.28428 105.23552,447.34732 105.20903,447.40972 105.18032,447.47134 105.15161,447.53295 105.12069,447.5938 105.08755,447.65376 105.05441,447.71371 105.01905,447.77277 104.98149,447.83083 104.97681,447.83831 104.97181,447.84546 104.96651,447.85226 104.9612,447.85907 104.9556,447.86553 104.94973,447.87165 104.94387,447.87776 104.93773,447.88353 104.93136,447.88895 104.92499,447.89436 104.91838,447.89942 104.91156,447.90412 104.90475,447.90882 104.89773,447.91316 104.89053,447.91713 104.88333,447.9211 104.87596,447.92471 104.86845,447.92794 104.86093,447.93117 104.85327,447.93402 104.8455,447.9365 104.83773,447.93897 104.82984,447.94107 104.82187,447.94278 104.8139,447.94449 104.80584,447.94581 104.79774,447.94673 104.78963,447.94766 104.78148,447.94819 104.7733,447.94833 104.76512,447.94846 104.75692,447.94819 104.74873,447.94752 104.74053,447.94685 104.73235,447.94576 104.72421,447.94427 104.71607,447.94278 104.70797,447.94087 104.69993,447.93854 104.6919,447.93621 104.68394,447.93346 104.67608,447.93029 104.66822,447.92712 104.66047,447.92351 104.65284,447.91948 104.64521,447.91545 104.63772,447.91098 104.63039,447.90607 Z"
       id="path4261-7-2-2"
       inkscape:connector-curvature="0"
       sodipodi:nodetypes="cssssssssssssssscssssssssssssssscssssssssssssssscssssssssssssssscsssssssssssssssc" />
    <path
       style="color:#000000;font-style:normal;font-variant:normal;font-weight:normal;font-stretch:normal;font-size:medium;line-height:normal;font-family:sans-serif;text-indent:0;text-align:start;text-decoration:none;text-decoration-line:none;text-decoration-style:solid;text-decoration-color:#000000;letter-spacing:normal;word-spacing:normal;text-transform:none;direction:ltr;block-progression:tb;writing-mode:lr-tb;baseline-shift:baseline;text-anchor:start;white-space:normal;clip-rule:nonzero;display:inline;overflow:visible;visibility:visible;opacity:1;isolation:auto;mix-blend-mode:normal;color-interpolation:sRGB;color-interpolation-filters:linearRGB;solid-color:#000000;solid-opacity:1;fill:#00ffff;fill-opacity:1;fill-rule:nonzero;stroke:none;stroke-width:0.76995718;stroke-linecap:round;stroke-linejoin:miter;stroke-miterlimit:4;stroke-dasharray:none;stroke-dashoffset:0;stroke-opacity:1;color-rendering:auto;image-rendering:auto;shape-rendering:auto;text-rendering:auto;enable-background:accumulate"
       d="M 105.79051,448.83117 C 105.77948,448.82378 105.76895,448.81592 105.75893,448.80763 105.74891,448.79935 105.73941,448.79063 105.73043,448.78154 105.72145,448.77244 105.71299,448.76296 105.70506,448.75315 105.69713,448.74333 105.68974,448.73318 105.68288,448.72273 105.67602,448.71229 105.6697,448.70155 105.66394,448.69056 105.65817,448.67958 105.65295,448.66834 105.64829,448.6569 105.64363,448.64547 105.63952,448.63382 105.63598,448.62202 105.63245,448.61022 105.62948,448.59826 105.62708,448.58619 105.62468,448.57412 105.62286,448.56193 105.62163,448.54967 105.62039,448.53742 105.61974,448.52509 105.61968,448.51274 105.61962,448.50039 105.62016,448.48801 105.62129,448.47565 105.62243,448.4633 105.62417,448.45096 105.62652,448.43869 105.62886,448.42641 105.63182,448.41421 105.6354,448.40211 105.63898,448.39001 105.64318,448.37802 105.64801,448.36618 105.65284,448.35435 105.65829,448.34267 105.66439,448.33118 105.67048,448.3197 105.67721,448.30841 105.68459,448.29737 105.73275,448.22293 105.77808,448.14721 105.82056,448.07037 105.86305,447.99352 105.90269,447.91554 105.93949,447.83658 105.97629,447.75761 106.01024,447.67767 106.04135,447.5969 106.07245,447.51612 106.10071,447.43451 106.12611,447.35222 106.15151,447.26993 106.17406,447.18696 106.19376,447.10346 106.21345,447.01995 106.23028,446.93591 106.24426,446.85149 106.25823,446.76706 106.26935,446.68225 106.27759,446.59721 106.28584,446.51217 106.29122,446.42689 106.29374,446.34153 106.29625,446.25616 106.2959,446.17072 106.29267,446.08533 106.28944,445.99995 106.28333,445.91463 106.27435,445.82952 106.26537,445.74441 106.25352,445.65952 106.23878,445.57499 106.22404,445.49046 106.20642,445.40629 106.18592,445.32264 106.16541,445.23898 106.14202,445.15584 106.11574,445.07336 106.08946,444.99087 106.06029,444.90905 106.02823,444.82804 105.99616,444.74703 105.9612,444.66683 105.92335,444.5876 105.8855,444.50836 105.84474,444.43008 105.80109,444.35291 105.78396,444.3246 105.77062,444.29653 105.76074,444.26888 105.75086,444.24123 105.74443,444.21401 105.7411,444.1874 105.73778,444.1608 105.73756,444.13482 105.74009,444.10966 105.74263,444.0845 105.74792,444.06016 105.75562,444.03683 105.76332,444.0135 105.77342,443.99119 105.78559,443.97009 105.79776,443.94899 105.81198,443.9291 105.82792,443.91061 105.84386,443.89213 105.86151,443.87506 105.88052,443.85959 105.89954,443.84412 105.91991,443.83025 105.94131,443.81818 105.9627,443.80612 105.98511,443.79585 106.00818,443.78758 106.03126,443.77931 106.055,443.77304 106.07906,443.76896 106.10313,443.76488 106.12751,443.76299 106.15186,443.76349 106.17621,443.764 106.20054,443.76689 106.22448,443.77237 106.24843,443.77784 106.272,443.78591 106.29484,443.79675 106.31769,443.8076 106.33981,443.82123 106.36085,443.83783 106.3819,443.85444 106.40187,443.87402 106.42043,443.89678 106.43898,443.91954 106.45611,443.94547 106.47147,443.97478 106.5239,444.06746 106.57284,444.16149 106.61829,444.25668 106.66375,444.35187 106.70572,444.44822 106.74422,444.54556 106.78271,444.6429 106.81773,444.74122 106.84928,444.84034 106.88082,444.93947 106.9089,445.03939 106.9335,445.13994 106.95811,445.24049 106.97925,445.34166 106.99693,445.44327 107.0146,445.54488 107.02882,445.64693 107.03958,445.74924 107.05034,445.85155 107.05764,445.95412 107.06149,446.05677 107.06534,446.15942 107.06574,446.26215 107.0627,446.36477 107.05965,446.46739 107.05316,446.56992 107.04323,446.67215 107.0333,446.77439 107.01992,446.87635 107.00311,446.97784 106.98631,447.07933 106.96606,447.18035 106.94239,447.28073 106.91871,447.38112 106.89161,447.48085 106.86108,447.57976 106.83055,447.67867 106.7966,447.77675 106.75923,447.87382 106.72185,447.9709 106.68106,448.06696 106.63685,448.16184 106.59264,448.25672 106.54502,448.35041 106.49399,448.44273 106.44296,448.53505 106.38852,448.626 106.33068,448.7154 106.32348,448.7269 106.31577,448.73788 106.30761,448.74834 106.29944,448.7588 106.29082,448.76874 106.28179,448.77814 106.27276,448.78754 106.26332,448.79641 106.25351,448.80473 106.2437,448.81305 106.23353,448.82083 106.22305,448.82806 106.21256,448.83528 106.20176,448.84195 106.19069,448.84805 106.17962,448.85416 106.16828,448.8597 106.15672,448.86467 106.14516,448.86963 106.13338,448.87403 106.12142,448.87783 106.10946,448.88164 106.09733,448.88486 106.08507,448.88749 106.07281,448.89012 106.06042,448.89215 106.04796,448.89358 106.03549,448.89501 106.02294,448.89583 106.01036,448.89604 105.99778,448.89624 105.98517,448.89584 105.97257,448.8948 105.95997,448.89377 105.94738,448.89211 105.93486,448.88982 105.92233,448.88753 105.90987,448.8846 105.89751,448.88103 105.88516,448.87745 105.87291,448.87324 105.86082,448.86836 105.84873,448.86349 105.83679,448.85796 105.82506,448.85176 105.81332,448.84557 105.80179,448.83871 105.79051,448.83117 Z"
       id="path4261-9-0-0-8"
       inkscape:connector-curvature="0"
       sodipodi:nodetypes="cssssssssssssssscssssssssssssssscssssssssssssssscssssssssssssssscsssssssssssssssc" />
    <path
       style="color:#000000;font-style:normal;font-variant:normal;font-weight:normal;font-stretch:normal;font-size:medium;line-height:normal;font-family:sans-serif;text-indent:0;text-align:start;text-decoration:none;text-decoration-line:none;text-decoration-style:solid;text-decoration-color:#000000;letter-spacing:normal;word-spacing:normal;text-transform:none;direction:ltr;block-progression:tb;writing-mode:lr-tb;baseline-shift:baseline;text-anchor:start;white-space:normal;clip-rule:nonzero;display:inline;overflow:visible;visibility:visible;opacity:1;isolation:auto;mix-blend-mode:normal;color-interpolation:sRGB;color-interpolation-filters:linearRGB;solid-color:#000000;solid-opacity:1;fill:#00ffff;fill-opacity:1;fill-rule:nonzero;stroke:none;stroke-width:1.22609174;stroke-linecap:round;stroke-linejoin:miter;stroke-miterlimit:4;stroke-dasharray:none;stroke-dashoffset:0;stroke-opacity:1;color-rendering:auto;image-rendering:auto;shape-rendering:auto;text-rendering:auto;enable-background:accumulate"
       d="M 106.94409,450.22659 C 106.92653,450.21484 106.90978,450.20234 106.89384,450.18916 106.8779,450.17598 106.86277,450.16212 106.84848,450.14765 106.83418,450.13319 106.82072,450.11811 106.8081,450.1025 106.79548,450.08689 106.7837,450.07075 106.77278,450.05413 106.76186,450.03752 106.7518,450.02044 106.74261,450.00297 106.73342,449.98549 106.72511,449.96762 106.71768,449.94943 106.71025,449.93124 106.7037,449.91272 106.69806,449.89395 106.69241,449.87518 106.68767,449.85615 106.68384,449.83695 106.68001,449.81774 106.6771,449.79835 106.67511,449.77885 106.67313,449.75935 106.67207,449.73974 106.67196,449.72009 106.67184,449.70043 106.67267,449.68074 106.67446,449.66108 106.67624,449.64142 106.67898,449.62179 106.6827,449.60225 106.68641,449.58272 106.6911,449.5633 106.69677,449.54404 106.70244,449.52478 106.70909,449.5057 106.71675,449.48685 106.7244,449.46801 106.73306,449.44941 106.74272,449.43113 106.75239,449.41285 106.76307,449.39488 106.77478,449.37729 106.85148,449.25875 106.92366,449.13818 106.99132,449.0158 107.05898,448.89342 107.12211,448.76924 107.18072,448.6435 107.23933,448.51776 107.29341,448.39045 107.34296,448.26182 107.39251,448.13319 107.43752,448.00323 107.47799,447.87219 107.51846,447.74114 107.55439,447.60901 107.58577,447.47602 107.61714,447.34304 107.64398,447.20921 107.66625,447.07476 107.68853,446.94032 107.70624,446.80526 107.7194,446.66983 107.73256,446.5344 107.74115,446.3986 107.74518,446.26266 107.74921,446.12672 107.74866,445.99064 107.74354,445.85467 107.73842,445.71869 107.72873,445.58282 107.71445,445.44729 107.70017,445.31176 107.68131,445.17657 107.65787,445.04195 107.63442,444.90734 107.60638,444.7733 107.57374,444.64008 107.54111,444.50686 107.50387,444.37446 107.46204,444.24311 107.4202,444.11176 107.37377,443.98146 107.32272,443.85246 107.27167,443.72346 107.21601,443.59574 107.15574,443.46956 107.09547,443.34338 107.03057,443.21872 106.96106,443.09584 106.93587,443.05133 106.91642,443.00725 106.9022,442.96387 106.88798,442.9205 106.87899,442.87785 106.87469,442.8362 106.8704,442.79455 106.87082,442.75392 106.87541,442.71459 106.88001,442.67526 106.88879,442.63723 106.90122,442.60081 106.91366,442.56438 106.92976,442.52956 106.949,442.49663 106.96824,442.4637 106.99062,442.43267 107.01561,442.40383 107.04061,442.37499 107.06822,442.34834 107.09793,442.32418 107.12764,442.30002 107.15945,442.27834 107.19283,442.25945 107.22621,442.24055 107.26116,442.22444 107.29717,442.2114 107.33317,442.19837 107.37024,442.18841 107.40783,442.18182 107.44542,442.17523 107.48354,442.17202 107.52168,442.17247 107.55981,442.17292 107.59795,442.17704 107.63558,442.18512 107.67322,442.19321 107.71034,442.20525 107.74642,442.22155 107.78251,442.23786 107.81756,442.25842 107.85106,442.28353 107.88456,442.30864 107.9165,442.33831 107.94637,442.37283 107.97624,442.40734 108.00403,442.4467 108.02922,442.49121 108.11271,442.6388 108.19064,442.78854 108.26302,442.94014 108.3354,443.09175 108.40224,443.24522 108.46353,443.40027 108.52483,443.55532 108.58059,443.71194 108.63081,443.86985 108.68104,444.02776 108.72573,444.18696 108.76491,444.34715 108.80408,444.50734 108.83773,444.66853 108.86587,444.83043 108.89401,444.99232 108.91664,445.15492 108.93376,445.31794 108.95088,445.48096 108.96249,445.6444 108.96861,445.80796 108.97473,445.97152 108.97536,446.13521 108.97049,446.29873 108.96563,446.46226 108.95528,446.62562 108.93945,446.78853 108.92362,446.95143 108.90231,447.11389 108.87553,447.2756 108.84875,447.43732 108.8165,447.59829 108.77879,447.75822 108.74108,447.91816 108.69791,448.07706 108.64928,448.23465 108.60066,448.39223 108.54658,448.54849 108.48705,448.70313 108.42753,448.85778 108.36256,449.01081 108.29216,449.16195 108.22176,449.31308 108.14592,449.46231 108.06465,449.60934 107.98339,449.75638 107.89669,449.90123 107.80458,450.04359 107.79308,450.06188 107.78078,450.07935 107.76776,450.09599 107.75473,450.11263 107.74098,450.12843 107.72657,450.14338 107.71216,450.15833 107.6971,450.17242 107.68147,450.18565 107.66583,450.19888 107.64962,450.21125 107.6329,450.22272 107.61619,450.2342 107.59897,450.2448 107.58132,450.25449 107.56368,450.26419 107.54561,450.27298 107.52719,450.28086 107.50876,450.28874 107.48999,450.29571 107.47094,450.30174 107.45188,450.30777 107.43256,450.31287 107.41303,450.31702 107.3935,450.32118 107.37377,450.32438 107.35391,450.32663 107.33405,450.32887 107.31407,450.33015 107.29403,450.33045 107.274,450.33075 107.25391,450.33007 107.23385,450.32839 107.21378,450.32671 107.19375,450.32404 107.17381,450.32036 107.15387,450.31668 107.13403,450.31198 107.11436,450.30626 107.09469,450.30054 107.0752,450.29379 107.05596,450.286 107.03671,450.2782 107.01772,450.26937 106.99905,450.25947 106.98038,450.24958 106.96204,450.23862 106.94409,450.22659 Z"
       id="path4261-9-1-9-2-97"
       inkscape:connector-curvature="0"
       sodipodi:nodetypes="cssssssssssssssscssssssssssssssscssssssssssssssscssssssssssssssscsssssssssssssssc" />
    <path
       style="color:#000000;font-style:normal;font-variant:normal;font-weight:normal;font-stretch:normal;font-size:medium;line-height:normal;font-family:sans-serif;text-indent:0;text-align:start;text-decoration:none;text-decoration-line:none;text-decoration-style:solid;text-decoration-color:#000000;letter-spacing:normal;word-spacing:normal;text-transform:none;direction:ltr;block-progression:tb;writing-mode:lr-tb;baseline-shift:baseline;text-anchor:start;white-space:normal;clip-rule:nonzero;display:inline;overflow:visible;visibility:visible;opacity:1;isolation:auto;mix-blend-mode:normal;color-interpolation:sRGB;color-interpolation-filters:linearRGB;solid-color:#000000;solid-opacity:1;fill:#00ffff;fill-opacity:1;fill-rule:nonzero;stroke:none;stroke-width:0.5;stroke-linecap:round;stroke-linejoin:miter;stroke-miterlimit:4;stroke-dasharray:none;stroke-dashoffset:0;stroke-opacity:1;color-rendering:auto;image-rendering:auto;shape-rendering:auto;text-rendering:auto;enable-background:accumulate"
       d="M 90.674624,447.84826 C 90.681797,447.84346 90.688641,447.83835 90.695151,447.83297 90.701662,447.82758 90.707838,447.82192 90.713675,447.81601 90.719512,447.8101 90.725009,447.80394 90.730161,447.79756 90.735313,447.79118 90.74012,447.78458 90.744575,447.77779 90.74903,447.771 90.753134,447.76403 90.756881,447.75689 90.760628,447.74974 90.764019,447.74244 90.767046,447.73501 90.770074,447.72758 90.772739,447.72001 90.775035,447.71234 90.777332,447.70467 90.77926,447.6969 90.780814,447.68905 90.782367,447.68121 90.783547,447.67329 90.784347,447.66532 90.785147,447.65735 90.785566,447.64934 90.7856,447.64132 90.785634,447.63329 90.785283,447.62525 90.78454,447.61722 90.783797,447.60919 90.782662,447.60117 90.78113,447.5932 90.779599,447.58522 90.77767,447.57729 90.775338,447.56943 90.773006,447.56157 90.770271,447.55378 90.767127,447.54609 90.763984,447.5384 90.760431,447.53081 90.756465,447.52335 90.752498,447.51589 90.748117,447.50856 90.743315,447.50139 90.712039,447.45305 90.682606,447.40388 90.655019,447.35398 90.627432,447.30407 90.601691,447.25344 90.577798,447.20216 90.553905,447.15089 90.531861,447.09898 90.511667,447.04653 90.491473,446.99407 90.473131,446.94108 90.456641,446.88765 90.440152,446.83421 90.425516,446.78033 90.412735,446.72611 90.399955,446.67189 90.389031,446.61732 90.379965,446.5625 90.370899,446.50768 90.363691,446.45261 90.358344,446.39739 90.352997,446.34217 90.34951,446.28679 90.347887,446.23136 90.346264,446.17593 90.346505,446.12045 90.348611,446.06501 90.350717,446.00956 90.354689,445.95416 90.360529,445.8989 90.366369,445.84364 90.374077,445.78851 90.383656,445.73362 90.393235,445.67873 90.404685,445.62408 90.418008,445.56976 90.431331,445.51543 90.446527,445.46145 90.463599,445.40789 90.48067,445.35433 90.499618,445.30119 90.520444,445.24859 90.541269,445.19598 90.563973,445.14391 90.588558,445.09245 90.613142,445.041 90.639608,444.99016 90.667956,444.94005 90.678158,444.9219 90.686024,444.90392 90.691765,444.88624 90.697505,444.86856 90.701121,444.85117 90.702824,444.8342 90.704528,444.81723 90.704318,444.80067 90.702409,444.78465 90.700499,444.76863 90.696889,444.75315 90.69179,444.73832 90.686692,444.72348 90.680105,444.70931 90.672242,444.69591 90.664379,444.6825 90.655241,444.66988 90.645038,444.65814 90.634835,444.64641 90.623569,444.63557 90.61145,444.62574 90.599332,444.61592 90.586362,444.60711 90.572753,444.59943 90.559143,444.59175 90.544894,444.5852 90.530218,444.57991 90.515541,444.57462 90.500438,444.57058 90.485119,444.56792 90.4698,444.56525 90.454266,444.56396 90.438729,444.56416 90.423192,444.56436 90.407652,444.56605 90.392321,444.56936 90.376991,444.57266 90.361869,444.57758 90.347169,444.58423 90.332469,444.59088 90.31819,444.59926 90.304545,444.60949 90.2909,444.61972 90.277888,444.63181 90.265722,444.64587 90.253556,444.65992 90.242236,444.67595 90.231974,444.69407 90.197928,444.75425 90.166147,444.81532 90.136629,444.87713 90.107111,444.93895 90.079855,445.00153 90.054858,445.06474 90.02986,445.12796 90.007122,445.19182 89.986639,445.25619 89.966155,445.32057 89.947927,445.38547 89.931951,445.45078 89.915974,445.51608 89.90225,445.58179 89.890773,445.64779 89.879297,445.71378 89.870069,445.78007 89.863085,445.84652 89.856102,445.91297 89.851363,445.97959 89.848866,446.04626 89.846369,446.11294 89.846113,446.17966 89.848094,446.24632 89.850076,446.31297 89.854296,446.37956 89.860749,446.44597 89.867203,446.51237 89.875891,446.5786 89.88681,446.64452 89.897729,446.71044 89.910879,446.77605 89.926256,446.84125 89.941632,446.90645 89.959237,446.97123 89.979065,447.03547 89.998893,447.09971 90.020945,447.16341 90.045217,447.22646 90.069489,447.2895 90.095982,447.3519 90.124691,447.41352 90.153401,447.47513 90.184327,447.53598 90.217467,447.59594 90.250606,447.65589 90.285959,447.71495 90.323522,447.77301 90.328198,447.78049 90.333202,447.78764 90.338505,447.79444 90.343808,447.80125 90.349409,447.80771 90.355277,447.81383 90.361145,447.81995 90.367281,447.82571 90.373653,447.83113 90.380025,447.83654 90.386634,447.8416 90.393449,447.8463 90.400263,447.851 90.407284,447.85534 90.41448,447.85932 90.421676,447.86329 90.429047,447.86689 90.436562,447.87012 90.444078,447.87335 90.451738,447.87621 90.459511,447.87868 90.467285,447.88116 90.475172,447.88326 90.483142,447.88496 90.491113,447.88667 90.499166,447.88799 90.507271,447.88892 90.515377,447.88985 90.523535,447.89038 90.531714,447.89052 90.539893,447.89065 90.548094,447.89038 90.556285,447.88971 90.564477,447.88903 90.572659,447.88795 90.580801,447.88646 90.588944,447.88496 90.597046,447.88306 90.605078,447.88073 90.613109,447.8784 90.62107,447.87565 90.62893,447.87248 90.636789,447.8693 90.644547,447.8657 90.652173,447.86167 90.659799,447.85764 90.667293,447.85317 90.674624,447.84826 Z"
       id="path4261-7-2-7-6"
       inkscape:connector-curvature="0"
       sodipodi:nodetypes="cssssssssssssssscssssssssssssssscssssssssssssssscssssssssssssssscsssssssssssssssc" />
    <path
       style="color:#000000;font-style:normal;font-variant:normal;font-weight:normal;font-stretch:normal;font-size:medium;line-height:normal;font-family:sans-serif;text-indent:0;text-align:start;text-decoration:none;text-decoration-line:none;text-decoration-style:solid;text-decoration-color:#000000;letter-spacing:normal;word-spacing:normal;text-transform:none;direction:ltr;block-progression:tb;writing-mode:lr-tb;baseline-shift:baseline;text-anchor:start;white-space:normal;clip-rule:nonzero;display:inline;overflow:visible;visibility:visible;opacity:1;isolation:auto;mix-blend-mode:normal;color-interpolation:sRGB;color-interpolation-filters:linearRGB;solid-color:#000000;solid-opacity:1;fill:#00ffff;fill-opacity:1;fill-rule:nonzero;stroke:none;stroke-width:0.76995718;stroke-linecap:round;stroke-linejoin:miter;stroke-miterlimit:4;stroke-dasharray:none;stroke-dashoffset:0;stroke-opacity:1;color-rendering:auto;image-rendering:auto;shape-rendering:auto;text-rendering:auto;enable-background:accumulate"
       d="M 89.515563,448.775 C 89.526598,448.76761 89.537129,448.75975 89.547146,448.75146 89.557163,448.74318 89.566667,448.73446 89.575648,448.72537 89.58463,448.71627 89.593089,448.70679 89.601017,448.69698 89.608946,448.68716 89.616343,448.67701 89.6232,448.66656 89.630057,448.65612 89.636374,448.64538 89.642143,448.63439 89.647911,448.62341 89.653131,448.61217 89.657793,448.60073 89.662455,448.58929 89.666559,448.57765 89.670097,448.56585 89.673635,448.55405 89.676606,448.54209 89.679002,448.53002 89.681398,448.51794 89.683218,448.50576 89.684454,448.4935 89.68569,448.48124 89.686342,448.46891 89.686401,448.45656 89.68646,448.44421 89.685926,448.43183 89.684789,448.41948 89.683653,448.40712 89.681915,448.39478 89.679566,448.38251 89.677217,448.37024 89.674257,448.35803 89.670677,448.34593 89.667097,448.33383 89.662898,448.32184 89.65807,448.31001 89.653242,448.29817 89.647786,448.28649 89.641692,448.275 89.635598,448.26352 89.628867,448.25223 89.621489,448.24119 89.573326,448.16675 89.527994,448.09104 89.485497,448.0142 89.443,447.93735 89.403338,447.85939 89.366516,447.78044 89.329695,447.70149 89.295713,447.62157 89.264577,447.54081 89.233441,447.46006 89.20515,447.37847 89.179708,447.29621 89.154267,447.21394 89.131676,447.131 89.111939,447.04752 89.092202,446.96404 89.07532,446.88003 89.061298,446.79564 89.047275,446.71125 89.036112,446.62647 89.027814,446.54146 89.019515,446.45645 89.014081,446.37121 89.011516,446.28588 89.008952,446.20055 89.009256,446.11513 89.012434,446.02978 89.015613,445.94443 89.021666,445.85915 89.030597,445.77407 89.039529,445.68899 89.051339,445.60413 89.066033,445.51963 89.080728,445.43513 89.098306,445.35099 89.118772,445.26736 89.139239,445.18373 89.162594,445.10061 89.188843,445.01815 89.215091,444.93568 89.244234,444.85388 89.276274,444.77289 89.308314,444.69189 89.343253,444.6117 89.381095,444.53247 89.418937,444.45324 89.459682,444.37497 89.503335,444.2978 89.519203,444.26989 89.531464,444.24224 89.540443,444.21503 89.549422,444.18782 89.55512,444.16106 89.557864,444.13492 89.560608,444.10878 89.560398,444.08327 89.557561,444.05858 89.554724,444.03388 89.54926,444.01 89.541496,443.98712 89.533732,443.96424 89.523668,443.94237 89.511631,443.92167 89.499595,443.90098 89.485585,443.88147 89.46993,443.86334 89.454274,443.8452 89.436973,443.82844 89.418352,443.81324 89.399732,443.79803 89.379793,443.78439 89.358862,443.77249 89.337932,443.76059 89.316009,443.75043 89.293422,443.7422 89.270835,443.73398 89.247583,443.72768 89.223993,443.7235 89.200403,443.71932 89.176476,443.71725 89.152538,443.71749 89.1286,443.71773 89.104651,443.72027 89.081019,443.7253 89.057387,443.73032 89.034071,443.73784 89.011398,443.74803 88.988726,443.75822 88.966697,443.77108 88.945639,443.78681 88.92458,443.80253 88.904492,443.82112 88.885702,443.84275 88.866911,443.86438 88.849418,443.88905 88.83355,443.91696 88.781122,444.00964 88.732186,444.10367 88.686737,444.19888 88.641288,444.29408 88.599325,444.39045 88.560843,444.48781 88.522361,444.58517 88.48736,444.68352 88.455834,444.78268 88.424308,444.88183 88.396257,444.9818 88.371675,445.08238 88.347093,445.18297 88.325981,445.28418 88.308331,445.38584 88.290682,445.48749 88.276496,445.58959 88.265768,445.69195 88.255039,445.79431 88.247768,445.89693 88.243949,445.99963 88.24013,446.10232 88.239763,446.2051 88.242842,446.30778 88.245921,446.41045 88.252445,446.51303 88.26241,446.61532 88.272375,446.71761 88.28578,446.81961 88.30262,446.92115 88.31946,447.02269 88.339733,447.12376 88.363436,447.22418 88.387138,447.32461 88.41427,447.42438 88.444824,447.52333 88.475377,447.62228 88.509354,447.7204 88.546748,447.8175 88.584142,447.91461 88.624952,448.0107 88.669174,448.1056 88.713396,448.2005 88.761029,448.29421 88.812068,448.38654 88.863106,448.47887 88.91755,448.56983 88.975394,448.65923 88.982596,448.67073 88.990302,448.68171 88.998466,448.69217 89.00663,448.70263 89.015252,448.71257 89.024284,448.72197 89.033316,448.73137 89.042759,448.74024 89.052564,448.74856 89.06237,448.75688 89.072539,448.76466 89.083024,448.77188 89.09351,448.77911 89.104311,448.78578 89.115381,448.79188 89.126451,448.79799 89.137791,448.80353 89.149352,448.8085 89.160913,448.81346 89.172696,448.81786 89.184653,448.82166 89.19661,448.82547 89.208743,448.82869 89.221002,448.83132 89.233262,448.83395 89.245649,448.83598 89.258116,448.83741 89.270584,448.83883 89.283131,448.83966 89.295712,448.83987 89.308293,448.84007 89.320907,448.83967 89.333507,448.83863 89.346107,448.8376 89.358693,448.83594 89.371218,448.83365 89.383743,448.83136 89.396207,448.82843 89.408562,448.82486 89.420917,448.82128 89.433164,448.81707 89.445256,448.81219 89.457348,448.80732 89.469284,448.80179 89.481017,448.79559 89.492751,448.7894 89.504282,448.78254 89.515563,448.775 Z"
       id="path4261-9-0-0-5-1"
       inkscape:connector-curvature="0"
       sodipodi:nodetypes="cssssssssssssssscssssssssssssssscssssssssssssssscssssssssssssssscsssssssssssssssc" />
    <path
       style="color:#000000;font-style:normal;font-variant:normal;font-weight:normal;font-stretch:normal;font-size:medium;line-height:normal;font-family:sans-serif;text-indent:0;text-align:start;text-decoration:none;text-decoration-line:none;text-decoration-style:solid;text-decoration-color:#000000;letter-spacing:normal;word-spacing:normal;text-transform:none;direction:ltr;block-progression:tb;writing-mode:lr-tb;baseline-shift:baseline;text-anchor:start;white-space:normal;clip-rule:nonzero;display:inline;overflow:visible;visibility:visible;opacity:1;isolation:auto;mix-blend-mode:normal;color-interpolation:sRGB;color-interpolation-filters:linearRGB;solid-color:#000000;solid-opacity:1;fill:#00ffff;fill-opacity:1;fill-rule:nonzero;stroke:none;stroke-width:1.22609174;stroke-linecap:round;stroke-linejoin:miter;stroke-miterlimit:4;stroke-dasharray:none;stroke-dashoffset:0;stroke-opacity:1;color-rendering:auto;image-rendering:auto;shape-rendering:auto;text-rendering:auto;enable-background:accumulate"
       d="M 88.360919,450.16877 C 88.378476,450.15702 88.395231,450.14452 88.411171,450.13134 88.427111,450.11816 88.442235,450.1043 88.45653,450.08983 88.470824,450.07537 88.484289,450.06029 88.49691,450.04468 88.509531,450.02907 88.521308,450.01293 88.532227,449.99631 88.543146,449.9797 88.553207,449.96262 88.562395,449.94514 88.571584,449.92767 88.579901,449.9098 88.587331,449.89161 88.594762,449.87341 88.601306,449.8549 88.60695,449.83613 88.612593,449.81735 88.617337,449.79833 88.621165,449.77912 88.624994,449.75992 88.627908,449.74053 88.629894,449.72103 88.631879,449.70153 88.632936,449.68192 88.63305,449.66226 88.633164,449.64261 88.632335,449.62292 88.630549,449.60326 88.628764,449.5836 88.626021,449.56396 88.622307,449.54443 88.618593,449.5249 88.613908,449.50547 88.608238,449.48622 88.602568,449.46696 88.595913,449.44788 88.588258,449.42903 88.580603,449.41019 88.571949,449.39159 88.562281,449.37331 88.552614,449.35503 88.541933,449.33706 88.530224,449.31947 88.453529,449.20093 88.381348,449.08036 88.313689,448.95798 88.24603,448.8356 88.182892,448.71142 88.124282,448.58568 88.065672,448.45994 88.011591,448.33263 87.962044,448.204 87.912498,448.07537 87.867487,447.94541 87.827017,447.81437 87.786547,447.68332 87.75062,447.55119 87.71924,447.4182 87.687861,447.28522 87.661031,447.15139 87.638756,447.01694 87.616481,446.8825 87.598761,446.74744 87.585604,446.61201 87.572446,446.47658 87.563851,446.34078 87.559825,446.20484 87.555799,446.0689 87.556342,445.93282 87.561461,445.79685 87.56658,445.66088 87.576275,445.525 87.590552,445.38947 87.60483,445.25394 87.62369,445.11875 87.647139,444.98414 87.670589,444.84952 87.698628,444.71549 87.731263,444.58227 87.763899,444.44905 87.801131,444.31664 87.842965,444.1853 87.8848,444.05395 87.931238,443.92365 87.982286,443.79465 88.033334,443.66564 88.088992,443.53793 88.149266,443.41175 88.209541,443.28557 88.274432,443.16091 88.343947,443.03803 88.371172,442.993 88.392359,442.94833 88.408059,442.90434 88.42376,442.86035 88.433975,442.81704 88.439256,442.77472 88.444538,442.73239 88.444886,442.69105 88.440853,442.65101 88.436821,442.61098 88.428408,442.57224 88.416167,442.53512 88.403926,442.49799 88.387857,442.46248 88.368513,442.4289 88.349169,442.39531 88.32655,442.36365 88.301208,442.33423 88.275866,442.3048 88.247802,442.27762 88.217567,442.25298 88.187333,442.22834 88.154929,442.20626 88.120907,442.18703 88.086886,442.16781 88.051247,442.15144 88.014544,442.13826 87.97784,442.12507 87.940073,442.11505 87.901793,442.10853 87.863513,442.102 87.824721,442.09896 87.78597,442.09972 87.747219,442.10047 87.708509,442.10503 87.670393,442.1137 87.632276,442.12237 87.594753,442.13515 87.558375,442.15235 87.521998,442.16955 87.486767,442.19118 87.453235,442.21754 87.419703,442.2439 87.387869,442.275 87.358287,442.31115 87.328705,442.34729 87.301374,442.38849 87.276848,442.43504 87.193361,442.58262 87.115426,442.73236 87.043036,442.88395 86.970645,443.03555 86.903799,443.189 86.842489,443.34403 86.781178,443.49905 86.725404,443.65565 86.675158,443.81353 86.624912,443.97141 86.580193,444.13057 86.540995,444.29073 86.501796,444.45088 86.468118,444.61203 86.439951,444.77388 86.411784,444.93573 86.389129,445.09829 86.371977,445.26126 86.354826,445.42423 86.343178,445.58761 86.337025,445.75112 86.330873,445.91463 86.330216,446.07827 86.335047,446.24174 86.339878,446.40522 86.350196,446.56853 86.365993,446.73139 86.381791,446.89424 86.403067,447.05665 86.429815,447.21831 86.456563,447.37998 86.488783,447.5409 86.526465,447.70079 86.564147,447.86069 86.607293,448.01955 86.655893,448.17709 86.704494,448.33463 86.758549,448.49086 86.818052,448.64547 86.877554,448.80009 86.942504,448.95309 87.012892,449.1042 87.08328,449.25531 87.159107,449.40452 87.240365,449.55155 87.321622,449.69857 87.408311,449.84341 87.500422,449.98577 87.511919,450.00406 87.524219,450.02153 87.537246,450.03817 87.550273,450.05481 87.564027,450.07061 87.578434,450.08556 87.592841,450.10051 87.6079,450.11461 87.623536,450.12784 87.639172,450.14107 87.655386,450.15343 87.672101,450.16491 87.688817,450.17638 87.706035,450.18698 87.723679,450.19667 87.741324,450.20637 87.759395,450.21516 87.777818,450.22304 87.796242,450.23092 87.815017,450.23789 87.834068,450.24392 87.85312,450.24995 87.872448,450.25506 87.891978,450.25921 87.911508,450.26336 87.931239,450.26657 87.951097,450.26881 87.970955,450.27105 87.990939,450.27233 88.010974,450.27263 88.03101,450.27293 88.051096,450.27225 88.071159,450.27057 88.091222,450.2689 88.111261,450.26622 88.131201,450.26254 88.151141,450.25886 88.170982,450.25416 88.190648,450.24844 88.210315,450.24272 88.229808,450.23597 88.249051,450.22818 88.268295,450.22038 88.287289,450.21155 88.305958,450.20165 88.324628,450.19176 88.342973,450.1808 88.360919,450.16877 Z"
       id="path4261-9-1-9-2-9-2"
       inkscape:connector-curvature="0"
       sodipodi:nodetypes="cssssssssssssssscssssssssssssssscssssssssssssssscssssssssssssssscsssssssssssssssc" />
    <path
       style="color:#000000;font-style:normal;font-variant:normal;font-weight:normal;font-stretch:normal;font-size:medium;line-height:normal;font-family:sans-serif;text-indent:0;text-align:start;text-decoration:none;text-decoration-line:none;text-decoration-style:solid;text-decoration-color:#000000;letter-spacing:normal;word-spacing:normal;text-transform:none;direction:ltr;block-progression:tb;writing-mode:lr-tb;baseline-shift:baseline;text-anchor:start;white-space:normal;clip-rule:nonzero;display:inline;overflow:visible;visibility:visible;opacity:1;isolation:auto;mix-blend-mode:normal;color-interpolation:sRGB;color-interpolation-filters:linearRGB;solid-color:#000000;solid-opacity:1;fill:#00ffff;fill-opacity:1;fill-rule:evenodd;stroke:none;stroke-width:0.49960631;stroke-linecap:round;stroke-linejoin:miter;stroke-miterlimit:4;stroke-dasharray:none;stroke-dashoffset:0;stroke-opacity:1;color-rendering:auto;image-rendering:auto;shape-rendering:auto;text-rendering:auto;enable-background:accumulate"
       d="M 97.673828,425.2793 A 0.24982814,0.24982814 0 0 0 97.539062,425.32422 C 97.539062,425.32422 96.413552,426.06173 95.761719,426.9707 95.435802,427.42519 95.203725,427.95845 95.390625,428.47852 95.577525,428.99859 96.14609,429.38341 97.177734,429.61523 98.13237,429.82976 98.539348,430.15849 98.679688,430.4707 98.820027,430.78292 98.732545,431.16441 98.503906,431.57031 98.046628,432.38211 97.078125,433.14648 97.078125,433.14648 A 0.24984521,0.24984521 0 0 0 97.384766,433.54102 C 97.384766,433.54102 98.403427,432.76605 98.939453,431.81445 99.207466,431.33865 99.368868,430.78209 99.136719,430.26562 98.904569,429.74916 98.319082,429.35886 97.287109,429.12695 96.332147,428.91236 95.963211,428.59405 95.861328,428.31055 95.759445,428.02705 95.885626,427.65544 96.167969,427.26172 96.732653,426.47427 97.816406,425.74023 97.816406,425.74023 A 0.24982814,0.24982814 0 0 0 97.673828,425.2793 Z"
       id="path4739"
       inkscape:connector-curvature="0" />
  </g>
</svg>
