<?xml version="1.0" encoding="UTF-8" standalone="no"?>
<!-- Created with Inkscape (http://www.inkscape.org/) -->

<svg
   xmlns:dc="http://purl.org/dc/elements/1.1/"
   xmlns:cc="http://creativecommons.org/ns#"
   xmlns:rdf="http://www.w3.org/1999/02/22-rdf-syntax-ns#"
   xmlns:svg="http://www.w3.org/2000/svg"
   xmlns="http://www.w3.org/2000/svg"
   xmlns:sodipodi="http://sodipodi.sourceforge.net/DTD/sodipodi-0.dtd"
   xmlns:inkscape="http://www.inkscape.org/namespaces/inkscape"
   width="744.09448819"
   height="1052.3622047"
   id="svg4043"
   version="1.1"
   inkscape:version="0.48.4 r9939"
   sodipodi:docname="silkscreen.svg">
  <defs
     id="defs4045" />
  <sodipodi:namedview
     id="base"
     pagecolor="#ffffff"
     bordercolor="#666666"
     borderopacity="1.0"
     inkscape:pageopacity="0.0"
     inkscape:pageshadow="2"
     inkscape:zoom="2.8"
     inkscape:cx="526.32446"
     inkscape:cy="493.14324"
     inkscape:document-units="px"
     inkscape:current-layer="layer1"
     showgrid="false"
     inkscape:window-width="454"
     inkscape:window-height="752"
     inkscape:window-x="0"
     inkscape:window-y="14"
     inkscape:window-maximized="0" />
  <metadata
     id="metadata4048">
    <rdf:RDF>
      <cc:Work
         rdf:about="">
        <dc:format>image/svg+xml</dc:format>
        <dc:type
           rdf:resource="http://purl.org/dc/dcmitype/StillImage" />
        <dc:title></dc:title>
      </cc:Work>
    </rdf:RDF>
  </metadata>
  <g
     inkscape:label="SilkS"
     inkscape:groupmode="layer"
     id="layer1">
    <path
       style="fill:#00ffff;stroke:#00ffff;stroke-width:0.99999994;display:inline"
       d="m 504.59375,455.90625 c 0.14056,1.13909 1.93754,0.99989 0,0 z m -4.03125,0.28125 c -2.38721,-0.11153 -3.84304,4.41616 -0.93856,1.32905 4.33065,-0.72808 6.72686,4.30411 7.00106,8.0459 0.15905,2.20563 -0.82732,5.72879 -3.64915,4.75909 -2.7765,-0.8654 -3.79351,-3.79654 -6.16335,-5.19659 0.30238,2.02963 1.67645,4.52494 3.34481,5.93833 2.60798,2.62633 9.28608,1.95635 8.79597,-2.63142 -1.07825,-3.0075 -2.36521,-6.17983 -3.83565,-9.10238 -0.91714,-1.60584 -2.6519,-3.0614 -4.55513,-3.14198 z m 5.125,1.125 c 0.93033,1.99693 2.17446,4.40761 3.4687,5.87505 -1.01218,-2.04159 -2.3168,-3.91429 -3.4687,-5.87505 z m 2.59375,2.15625 c -0.80819,0.54857 1.06473,0.30419 0,0 z m -11.25,0.84375 c -0.76237,2.91048 -0.0586,4.22758 -0.0156,0.41802 l 0.0155,-0.41802 10e-5,0 z m 14.125,4.09375 c -0.46911,0.69712 0.86757,0.49838 0,0 z m -0.9375,1.0625 c -0.51596,0.84586 1.23725,-0.17078 0,0 z m 0.46875,1.25 c 0.46481,2.14101 2.38789,0.74952 0,0 z m 2.46875,0.21875 c -0.8978,0.606 0.95377,0.47633 0,0 z m 15.375,0.125 c -1.26439,0.14171 0.82246,1.00567 0,0 z m 17.5625,0.1875 c -0.89313,0.6117 0.83485,0.33151 0,0 z m -3.125,0.375 c -1.00242,0.26253 0.5715,0.94516 0,0 z m 5.375,0.28125 c -0.54586,1.52457 1.81327,0.1212 0,0 z m -13.4375,0.0937 c 0.1272,0.90513 1.56018,0.33826 0,0 z m -21.0625,0.125 c -1.12711,1.79408 2.58309,-0.002 0,0 z m 27.9375,0 c -0.87995,0.59216 0.84841,0.27271 0,0 z m -13.71875,0.0937 c -1.37639,0.006 -6.16904,2.51856 -4.50005,2.5625 6.08368,-2.67019 12.93709,-0.23744 18.9375,1.59375 2.77275,0.78808 -2.2796,2.76142 -2.59106,4.58212 -2.48699,1.23722 0.19685,7.16403 0.79535,3.96251 0.56297,-4.27741 8.13889,-3.99072 7.29576,-8.85713 -1.24771,-3.86395 -5.76191,-3.37153 -8.9375,-2.625 -2.87638,0.79555 -5.76487,0.1121 -8.375,-0.9999 -0.87414,-0.0593 -1.7442,-0.23544 -2.625,-0.21885 z m -12.375,2.03125 c -0.8205,1.08442 1.58828,0.52577 0,0 z m 34.1875,0 c -1.14764,2.61126 -1.63668,5.87335 -0.93745,8.5625 0.46632,-2.8195 0.66762,-5.71175 0.93745,-8.5625 z m -30.125,0.59375 c -0.92546,0.0127 0.6956,0.33886 0,0 z m -1.15625,0.28125 c -0.93654,0.0438 0.6982,0.34842 0,0 z m 0,0.59375 c -0.92546,0.0127 0.6956,0.33886 0,0 z m 10.375,0 c -5.55498,2.47656 -7.84528,9.82325 -14.12767,10.80977 -2.71945,0.62214 -5.03155,-2.17409 -7.66614,-0.48101 -8.70453,2.18465 -17.73545,2.40402 -26.64369,3.07744 -6.5378,-1.30474 -9.30721,-9.65931 -16.34375,-9.5625 -3.2193,1.20427 -7.02627,1.30367 -9.14387,4.43256 -2.50055,3.437 1.36769,-1.04737 2.87732,-1.66492 6.14869,-4.00225 13.77065,0.41016 17.64581,5.61057 1.8132,2.22574 5.3698,1.7528 8.01501,1.882 5.89194,-0.31777 11.69572,-1.8443 17.61173,-1.70066 6.88061,-2.26503 15.28188,1.10875 21.17551,-4.03743 2.63238,-2.07816 2.91068,-6.93895 7.00599,-6.80322 4.33831,0.86548 6.49693,5.47782 6.58707,9.52115 0.70156,4.41175 5.39747,5.92228 9.32195,5.78523 4.62328,-0.12093 9.40472,0.5746 12.96272,3.79377 7.20402,5.46971 7.96529,15.19271 10.44076,23.24355 -0.35782,2.82428 -3.07569,3.84141 -5.59375,3.125 -3.71592,-0.73794 -8.32606,-2.96706 -11.56636,-0.10848 -4.72646,8.83594 -15.48318,11.93185 -24.90239,11.38978 -3.37988,0.89032 -7.00886,-1.11832 -7.50437,-4.70062 -0.84471,-3.48884 -0.38012,-7.61621 -3.65275,-9.97507 -3.2654,-3.39462 -9.50012,-6.09364 -13.40444,-2.29435 -2.94011,2.80018 -2.73843,6.99635 -1.31836,10.49945 0.79874,2.39809 2.24168,6.58382 -1.23009,7.37376 -3.45495,0.60215 -7.12129,-1.30647 -10.25047,0.96376 -4.65226,2.21587 -8.64986,8.09098 -14.35876,6.31317 -3.29913,-1.2207 -6.34429,-3.95128 -10.17115,-3.19298 -4.01223,0.17007 -7.15018,3.4502 -8.20336,7.16913 -5.93281,5.27878 -14.86155,7.50321 -22.44087,5.34298 -3.06186,-1.69719 -4.15282,-5.90716 -1.80487,-8.64623 3.03587,-4.89204 8.74585,-6.69355 13.70137,-8.90411 5.03415,-2.54251 5.1046,-11.34265 -0.37465,-13.385 -4.28559,-1.17373 -8.00165,2.12 -11.79973,3.59236 -1.10727,1.6749 4.27064,0.1774 5.1008,-1.3387 3.26957,-2.22914 9.34575,-1.67713 9.71165,3.08875 0.24536,5.09725 -4.15554,8.54349 -8.59844,9.95505 -4.50748,1.63072 -9.76013,4.14581 -10.30095,9.52095 0.01,3.47933 2.28658,6.7564 5.79652,7.5276 6.57887,1.32539 13.81753,-0.54524 19.30199,-4.27407 3.2901,-4.0476 7.1888,-9.417 13.01963,-8.97948 3.00313,0.55716 3.64712,4.33401 6.71962,4.5318 5.9504,1.45215 10.36449,-4.15493 15.42315,-6.27112 3.52033,-2.034 7.46189,-0.0511 11.20541,-1.10585 11.47803,-1.467 23.03657,-2.71547 34.62057,-1.93613 8.62673,-1.35818 13.76473,-10.01975 22.3125,-11.53125 3.76418,1.58202 8.30491,3.20986 12.26662,1.67107 2.87132,-2.15781 -0.30336,-5.70069 -1.01662,-8.29607 -2.20035,-6.55516 -3.20071,-13.97918 -8.48665,-18.9449 -2.62807,-5.56394 -9.25953,-6.32881 -14.7203,-6.43581 -3.89055,-0.14742 -8.83041,-0.87743 -9.90314,-5.34068 -1.23557,-3.46826 -0.82178,-9.17428 -5.35421,-10.04802 -0.64723,-0.0874 -1.29502,-0.1744 -1.9419,-0.26199 z m -7.375,0.28125 c -1.95024,2.04381 1.12742,3.36778 0,0 z m -5.53125,0.125 c -3.1407,-1.49404 0.52096,1.16958 0,0 z m 2.8125,0.1875 c -1.9838,1.96778 0.27991,2.52654 0,0 z m -53.34375,0.0937 c -3.1407,-1.49404 0.52096,1.16958 0,0 z m -1.1875,0.6875 c -2.42867,-0.27719 0.0489,1.03247 0,0 z m -1.96875,0.75 c -3.27126,0.46195 -0.0578,0.98432 0,0 z m 58.46875,0.90625 c -1.54871,1.67307 0.60411,1.7405 0,0 z m -61.71875,0.0625 c -1.20959,0.43725 1.37105,0.53939 0,0 z m 1.03125,0.5625 c -0.57935,0.46309 1.69709,-0.035 0,0 z m -3.84375,0.625 c -1.00198,-0.005 0.59335,0.3994 0,0 z m -10.375,0.875 c -3.08728,0.9966 1.68116,0.79161 0,0 z m 7.5,0.0312 c -3.62058,-0.39512 -0.71196,1.85779 0,0 z m -2.9375,0.875 c -4.84565,1.26967 1.2119,2.42949 0,0 z m -3.625,0.0312 c -0.66639,1.4155 1.64989,0.16433 0,0 z m 5.6875,1.34375 c -0.93654,0.0438 0.6982,0.34842 0,0 z m -6.53125,0.3125 c -1.4311,0.0513 0.12513,1.44607 0,0 z m 68.53125,0.34375 c -1.18768,0.17848 1.30004,0.12656 0,0 z m 0.90625,0.0625 c -0.8309,0.2022 0.52374,0.61229 0,0 z m 27.28125,0.4375 c -1.45109,1.69225 1.03772,1.46379 0,0 z m -51.84375,0.53125 c -0.86315,0.46678 0.91109,0.70084 0,0 z m -2.375,0.1875 c -0.50737,0.6159 0.9464,0.1578 0,0 z m 6.9375,0.28125 c 0.50694,1.22629 2.27247,-0.0918 0,0 z m -46.8125,0.8125 c -1.43436,0.49445 -1.71957,2.37639 0,0 z m 98.4375,0 c -0.96272,0.91288 -6.19276,1.40147 -2.875,2.1875 4.59927,0.89993 9.18612,2.05829 13.46875,4 -2.15139,-2.4878 -5.59743,-3.17632 -8.125,-5.125 4.26938,0.41647 2.30529,-0.6 -0.73436,-1.00518 -0.57611,-0.0567 -1.15654,-0.0607 -1.73439,-0.0573 z m 5.9375,0.5 c 1.18521,1.82632 2.7239,1.22442 0,0 z M 448.9375,482.8435 c -0.98753,0.21055 0.54843,0.92856 0,0 z m 0.6875,0.59375 c -1.44523,0.0745 -0.35026,1.58941 0,0 z m 103.875,0.75 c 1.50191,1.60208 2.42395,0.34205 0,0 z m 2.5625,0.375 c -0.82736,0.53815 0.94474,0.67582 0,0 z M 450.03125,484.906 c -0.15949,1.4058 1.3426,0.27207 0,0 z M 556.6875,485.5 c -1.04039,1.32165 1.80619,1.09019 0,0 z m 1.40625,1.125 c -1.70642,1.38556 1.85804,0.93395 0,0 z m 0.8125,1.03125 c -1.09955,0.94309 1.09015,0.96988 0,0 z M 452.75,487.8125 c -1.05131,1.17126 1.16865,1.11818 0,0 z m 105,0.5625 c 0.0298,0.21756 0.25083,0.0786 0,0 z m -105.9375,0.5 c -0.42994,2.38144 1.41089,2.89279 0.18755,0.43755 -0.0439,-0.15421 -0.14362,-0.28336 -0.18755,-0.43755 z m 107.625,0.9375 c 6.34553,6.61499 11.03501,14.68898 14.40605,23.12924 4.18716,3.24031 3.53124,11.18542 -1.85885,12.66139 -4.47795,0.67814 -8.48205,-2.92092 -13.06532,-2.15205 -6.22202,0.13887 -11.53729,3.91374 -16.3554,7.3922 -4.19888,1.34789 -8.71597,0.76273 -13.00153,1.56297 1.62586,1.0286 4.87397,0.5139 7.12505,0.40625 7.1384,-1.03835 13.34515,-5.1881 20.01531,-7.39756 6.42052,0.25604 13.3128,3.48247 19.42721,0.4299 2.37331,-1.56016 3.52731,-4.62406 2.42588,-7.26659 -0.45909,-4.01109 -4.9e-4,-10.09825 4.78785,-11.1095 3.70516,-0.40878 1.4863,3.59576 3.59774,5.28132 1.73592,2.33388 5.16073,-0.23332 6.6657,1.74998 0.96449,0.70006 3.15355,6.20956 2.67401,3.5937 -0.62417,-3.48896 -4.01165,-5.49884 -5.77202,-8.44952 -2.2653,-2.69329 -5.24774,-6.52575 -9.22798,-5.26923 -1.48612,2.73515 -2.62415,7.12862 -6.1875,7.46875 -2.5089,-2.83896 -2.90899,-7.05703 -5.19942,-10.14927 -2.65701,-4.60343 -6.2632,-8.62596 -10.45678,-11.88198 z m -106.09375,0.15625 c -0.54177,0.48459 0.57919,0.6458 0,0 z m 109,0.9375 c 1.40922,1.57549 2.99215,3.67687 4.71865,4.68745 -2.19823,-2.44855 -0.27297,-1.64511 -2.87505,-3.46875 -0.60005,-0.42009 -1.17774,-0.91631 -1.8436,-1.2187 z M 453.375,491.3125 c -0.47468,0.68796 0.41332,1.14895 0,0 z m -0.96875,0.71875 c -1.04037,0.16511 0.53283,0.98793 0,0 z m 0.0937,1.59375 c -0.89449,1.1478 0.24816,0.47615 0,0 z m -0.25,1.5625 c -0.99315,0.24904 0.53864,0.9473 0,0 z m 115.75,0.375 c 0.28806,1.7369 1.49554,0.4291 0,0 z M 451.9062,496.75 c -0.82367,0.25387 0.35069,0.70038 0,0 z m 116.875,0.96875 c -0.23923,1.6635 2.06488,0.20481 0,0 z m -117.40625,0.0625 c -0.98753,0.21055 0.54843,0.92856 0,0 z m 119.4375,0.375 c 0.11393,1.93087 2.0596,1.9566 0,0 z m -119.71875,0.625 c -1.71615,2.04473 -0.25087,0.18944 0,0 z m 119,0.625 c -0.50605,1.0595 1.35017,0.28823 0,0 z m -118.0625,0.40625 c -3.02599,1.63236 -2.69525,4.15931 -0.35533,0.49748 l 0.24613,-0.34458 0.10925,-0.15295 -5e-5,5e-5 z m 118.1875,0.625 c 0.6783,1.88161 2.20256,1.13085 0,0 z m -131.75,0.0625 c -1.64859,1.32448 1.3252,0.77874 0,0 z m 134.6875,0.0625 c 1.8289,2.57464 5.11285,1.06878 0.9219,0.19755 -0.3073,-0.0658 -0.6146,-0.1317 -0.9219,-0.19755 z m -123.5625,0.0312 c -0.44228,0.52125 0.53294,0.59217 0,0 z m -8.375,0.15625 c -2.93226,0.65542 3.12914,1.38014 0.12505,5e-5 l -0.125,0 -5e-5,-5e-5 z m -6.65625,0.0625 c -2.56328,-0.0987 -1.49534,0.34385 0.34375,0.1248 l -0.34375,-0.125 0,2e-4 z m 14.4375,0.125 c -1.26445,0.1415 0.82242,1.00589 0,0 z m -0.78125,0.46875 c -0.90209,0.16718 -0.0267,1.05733 0,0 z m -17.28125,0.0625 c -0.5302,0.47902 0.5636,0.63478 0,0 z m 152.0625,0.0625 c -0.4308,0.57801 0.80391,0.0149 0,0 z m -136.375,0.21875 c -3.5032,-0.32293 -0.29388,0.96109 0,0 z m -9.40625,0.0312 c -0.8751,0.52571 0.92211,0.69995 0,0 z m 147.0625,0.125 c -1.69828,0.59907 1.91001,0.12593 0,0 z M 434.5625,502 c -0.22329,1.03329 1.17772,0.0711 0,0 z m -4.6875,0.0937 c -2.61111,1.38743 -3.59516,4.59627 -3.96875,7.34375 0.48212,-2.38874 1.58361,-4.44774 3.40625,-6.09375 0.26646,-0.38364 0.43758,-0.80259 0.5625,-1.25 z m 12.5625,0.28125 c -1.40535,0.16425 1.08271,0.90739 0,0 z m -9,0.0625 c -4.22918,0.85184 -6.87124,4.87819 -6.73035,9.07137 -0.11744,4.65182 1.85759,9.05012 2.8241,13.42863 -0.41173,2.38623 -1.31284,4.6537 -2.09375,6.9375 0.62663,-1.20024 3.35259,-5.16333 4.10084,-2.70224 -0.79542,3.81136 -3.07907,7.24378 -3.38625,11.24541 -0.80569,1.35924 0.0448,7.54285 0.22296,3.63804 -0.24887,-6.27573 3.20381,-14.04594 10.28125,-14.43121 2.5076,0.8257 5.10362,0.32564 6.39994,-2.19005 1.59845,-2.90906 -1.89981,2.02488 -3.47582,1.55892 -2.6362,0.83689 -7.6677,-0.85099 -6.38265,-4.23202 2.86178,-3.17373 1.66771,-1.65368 -1.75017,-1.87621 -5.33723,-1.53394 -6.7079,-8.23523 -6.12511,-13.10871 0.39996,-3.01999 2.11839,-5.93129 5.17761,-6.80818 0.32231,-0.15931 0.63119,-0.34417 0.9374,-0.53125 z m -6,29.4375 c -1.29585,3.00833 -0.94059,3.28464 0,0 z m -0.90625,2.75 c -0.81937,2.22968 0.19985,2.32612 0,0 z m 159.625,-32.15625 c -2.13328,1.73555 2.42217,0.93152 0,0 z m -142.1875,0.34375 c -1.54672,0.6928 2.28229,-0.0874 0,0 z m 3.09375,0.125 c -4.30879,-0.009 1.83266,0.59286 0,0 z m 125.625,0.0312 c 1.24666,1.79957 4.68196,1.89459 5.84375,0.28125 -2.18779,0.30787 -3.73669,0.6753 -5.84375,-0.28125 z m -122.28125,0.78125 c -2.20352,0.23684 -3.14949,1.4478 -0.5625,0.25 0.18446,-0.0897 0.37314,-0.17119 0.5625,-0.25 z m 137.09375,0 c -1.20155,1.25758 1.53355,1.1567 0,0 z m -152.09375,0.0937 c -2.66478,-0.10707 -5.16991,2.69596 -1.11993,1.06047 2.47113,-0.90304 5.45205,-0.19296 7.86993,-0.52917 -2.23862,-0.38903 -4.47666,-0.62663 -6.75,-0.5313 z m 152.9375,0.65625 c -0.86994,1.06623 0.73891,1.23903 0,0 z m -141.3125,0.0937 c -2.88999,0.35285 0.49507,0.7845 0.0938,0 l -0.0937,0 -1.5e-4,0 z m -16.84375,2 c -3.84292,2.17878 -1.98711,7.34541 -0.53125,10.53125 1.48704,1.155 -1.42949,-3.61734 -0.84375,-5.06565 -0.014,-1.90178 0.55989,-3.76314 1.375,-5.4656 z m 145.15625,4.625 c -0.54177,0.48459 0.57919,0.6458 0,0 z m -68.03125,0.84375 c 6.45445,-0.0101 11.28609,8.1219 7.90615,13.6875 -4.37483,4.03905 -12.02881,1.09707 -13.54681,-4.42415 -1.67227,-3.57671 0.38552,-8.28616 4.42067,-8.95009 0.39619,-0.20833 0.79445,-0.27162 1.21999,-0.31326 z M 425.5,512.90605 c -0.89313,0.6117 0.83485,0.33151 0,0 z m 0.3125,1.15625 c -0.50636,0.6067 0.5474,0.81785 0,0 z m 82,0.625 c -2.50066,0.30271 -5.28888,2.30198 -3.37501,4.94871 1.88535,2.42924 5.93649,4.94924 8.53126,2.14504 0.96192,-2.37198 0.41459,-5.0629 -2.05429,-6.21161 -0.92421,-0.5758 -2.01509,-0.87566 -3.10196,-0.88214 z m 89.375,0.53125 c 0.89911,6.18428 1.71851,13.46264 -2.29141,18.72199 -3.20083,4.40576 -9.03665,1.80222 -13.48984,3.30946 -4.17326,1.46756 2.27342,-0.0171 3.70767,0.58571 6.29726,1.26338 14.06342,-3.2057 13.61803,-10.19885 -0.1025,-4.19 0.22161,-8.48053 -1.54445,-12.41831 z m -14.21875,0.8125 c 0.002,4.117 2.03027,9.593 -1.78125,12.5625 -3.34945,0.85408 -6.79428,-0.84071 -10.18089,0.35576 -5.33943,1.06371 -11.23204,3.47125 -16.41286,0.55049 -6.17713,1.59914 -12.16556,4.00797 -18.5,4.9375 8.04392,0.6519 16.35121,-4.84897 24.03125,-0.56245 7.32105,-4.01094 15.97616,-4.29676 24.03837,-3.27936 1.27168,-0.2202 2.7752,-1.14051 3.39903,-1.59564 -0.0769,-1.0909 1.22915,-3.2463 0.41076,-4.85143 -0.86088,-2.4179 -2.0904,-5.09029 1.67511,-4.25437 5.33868,0.97755 6.36583,10.42189 0.53576,11.38357 -7.20914,1.50417 -15.98717,-1.06086 -21.85652,4.62739 -2.36761,2.54861 -4.12621,7.65623 -8.42148,6.74532 -5.28148,-1.2683 -9.06091,-7.00204 -14.98558,-6.15058 -1.25646,-0.40479 -6.70666,1.0336 -3.67933,1.92435 4.4121,-0.1936 9.46388,-0.27462 12.57153,3.482 -2.88767,1.53333 0.36342,4.85062 2.43755,5.375 -2.57101,-2.0951 1.44721,-3.98071 1.88149,-0.78497 0.32784,3.08319 2.17387,4.25676 3.44876,0.95738 5.86933,-3.99144 8.00504,-13.06644 15.84628,-14.02187 5.35764,-0.63614 11.93165,1.13602 16.17197,-3.07273 1.9927,-3.00058 2.10788,-7.56267 0.1833,-10.61272 -2.58404,-2.99604 -7.45939,-2.07882 -10.81325,-3.71514 z m -156.875,0.40625 c -0.22855,2.35316 1.69007,1.2565 0,0 z m 81.0625,0.0625 c 2.4563,-0.15062 5.56986,2.60037 1.7713,3.45304 -2.86156,0.92662 -3.12447,-1.50978 -1.7713,-3.45304 z m -63.9375,2.28125 c -3.99493,0.66852 -1.62913,1.492 1,1.78125 2.76084,2.25208 2.58671,-0.16943 0.34375,-1.59375 -0.43618,-0.15581 -0.88583,-0.18221 -1.34375,-0.1875 z m 3.25,3.15625 c -0.54333,3.46457 0.59436,2.99677 2e-4,0 l -2e-4,0 z m -19.40625,-2.40625 c -0.19421,1.16922 1.30765,1.47027 0,0 z m 0.96875,2.0625 c -1.52041,0.87523 1.13718,1.11779 0,0 z m 15.125,0.21875 c -3.61894,1.27535 0.93332,4.53179 1.54364,1.81055 -0.0856,-0.84676 -1.06953,-1.19313 -1.54364,-1.81055 z m 153.46875,0.84375 c -1.30974,2.21087 1.16885,4.70716 0.2501,1.0002 -0.0822,-0.33262 -0.18606,-0.66255 -0.2501,-1.0002 z m -168.28125,0.0937 c -0.8014,0.6752 0.7495,0.91258 0,0 z m 14.15625,0 c 0.98753,0.21055 -0.54843,0.92856 0,0 z m 135,0.0312 c 0.17536,1.93771 -1.46734,0.0977 0,0 z m -149.25,1.5 c -1.40535,0.16425 1.08271,0.90739 0,0 z m 12.96875,0.0312 c -0.54565,0.72488 1.04057,0.23275 0,0 z m 155.75,3.0625 c -1.10816,2.00146 -0.0336,2.33258 -2e-4,0.125 l 0,-0.125 2e-4,0 z m -88.03125,0.53125 c 1.33848,0.4391 0.17679,0.78899 0,0 z m 4.15625,0.59375 c 0.86315,0.46678 -0.91109,0.70084 0,0 z m 1.34375,1.6875 c 0.35813,0.34131 -1.5511,0.39324 0,0 z m 1.90625,0.3125 c 0.37078,0.41365 -1.1885,0.0166 0,0 z m -2,0.34375 c 1.17248,0.21572 -1.97851,0.15328 0,0 z m 81.34375,0.125 c -3.00577,1.30909 -1.12218,4.12062 -0.15321,0.38301 l 0.15321,-0.38301 z m -72.34375,1.65625 c -6.90489,2.13937 -13.74305,7.54156 -21.28125,4.7813 -7.31963,-2.86657 -14.24553,1.93251 -20.7437,4.70161 -3.99897,2.1623 -8.48764,0.64493 -11.9208,-1.86533 -2.39624,-1.8701 -6.4809,-3.0534 -8.33868,0.1242 -3.07661,5.3183 -8.70871,8.58783 -14.75645,9.22848 -5.31461,0.47467 -11.01586,1.62131 -15.99037,-0.93896 -0.0162,2.69536 3.66604,2.79708 5.88056,2.76852 7.45209,0.14151 15.36099,-1.40364 21.4445,-5.85079 2.61016,-3.70659 8.08202,-7.96473 12.44841,-4.49341 1.41006,2.11752 3.37921,3.43082 6.05452,3.31889 7.96669,0.0107 14.73215,-7.59067 22.87444,-4.8654 7.30544,2.88992 15.69118,0.37877 21.20335,-4.93824 0.98272,-0.74382 1.97431,-1.50362 3.12547,-1.97087 z m -97.625,0.46875 c -0.5575,1.12008 1.12156,-0.0226 0,0 z m 99.90625,0.71875 c -6.34717,1.23564 -7.99529,9.86871 -14.60782,10.32363 -3.22522,-0.93571 -5.93281,1.76719 -9.20468,1.58262 -7.52119,0.42248 -15.78485,-2.99157 -22.7122,1.12507 -2.40747,1.76655 3.3406,-0.57987 4.56203,0.4672 1.80543,2.07466 4.36209,0.19211 6.76285,1.43523 3.26942,0.76712 6.83595,4.04872 10.13109,2.15062 0.85267,-2.45308 5.26405,-1.17857 3.50623,1.35318 1.44435,-1.72748 3.7383,-2.65296 5.70516,-1.25453 3.39978,1.27383 1.71937,5.99137 2.2e-4,8.13345 -1.28599,1.81989 -3.44843,3.56007 -5.79913,2.71483 2.95338,-2.86444 -2.18415,0.53041 -3.36198,1.09233 -4.06138,2.07578 0.23287,-2.94784 0.009,-2.60238 -1.4887,0.65713 -5.26881,3.28753 -2.50672,4.45462 2.05414,-0.28025 4.31428,-0.94069 4.54744,2.39918 0.16619,4.67749 3.94917,-0.33496 4.36552,1.93442 1.70807,2.4968 4.67753,-2.29349 6.81267,-0.0763 2.23045,2.01831 5.74731,1.77782 8.54989,2.70306 3.29183,0.44523 7.39735,1.22514 10.14692,-0.99872 -1.56933,-0.44041 -6.4678,0.842 -2.78125,-1.3437 5.25822,-0.81388 10.275,-6.8976 7.28271,-12.04429 -2.16059,-3.42699 -6.49443,-4.78187 -8.81024,-8.18585 -1.09387,-1.62087 -3.4103,-3.38849 -3.55553,-5.0723 3.06892,-1.72059 -1.77483,-3.74071 1.14556,-4.79127 2.33477,-1.11661 5.15061,-0.65906 7.43755,-1.59379 -3.27883,-2.9885 -8.82346,-1.25343 -10.00026,2.96185 -1.64146,3.2021 0.0225,7.73614 3.90651,8.03815 -0.89138,2.813 1.23532,5.11101 3.96769,5.4355 3.32678,0.39542 5.06852,3.36912 5.246,6.47409 1.37688,4.77722 -4.07882,7.52028 -8.06363,7.87326 -4.79418,0.35833 -10.28629,1.60885 -14.53535,-1.27567 -3.53546,-2.12661 -3.06599,-7.06502 -0.33346,-9.66343 2.6693,-3.18104 1.28184,-8.02402 -2.42963,-9.65928 -2.06425,-1.35196 -6.77346,-1.30205 -2.00088,-2.2144 4.43422,-0.90136 10.6953,-1.80917 11.52883,-7.2459 0.41152,-3.401 4.99984,-3.18157 7.64239,-3.79647 4.21318,-0.28949 0.61354,-0.72447 -1.55326,-0.7711 -0.33425,0.008 -0.66631,-0.0685 -1,-0.0629 z m -21.5625,18.4375 c -1.45944,1.171 -1.50461,2.34359 0,0 z m 87.96875,-18.1875 c -3.65959,0.34168 -1.72227,1.76613 0.65625,0 -0.21875,0 -0.4375,0 -0.65625,0 z m -166.375,0.25 c -1.5661,1.5348 0.82954,1.27917 0,0 z m 161.75,0.46875 c -0.5302,0.47902 0.5636,0.63478 0,0 z m -3.25,0.3125 c -0.99315,0.24904 0.53864,0.9473 0,0 z m -158.6875,0.875 c -1.26439,0.14171 0.82246,1.00567 0,0 z m -0.15625,0.84375 c -1.27097,0.21632 0.84118,0.99988 0,0 z m 144.625,0.34375 c 0.77836,0.0255 -0.69663,0.59034 0,0 z m -33.59375,0.40625 c -3.46823,0.45641 2.91501,0.26066 0,0 z m 42.3125,0.40625 c -0.0601,0.89077 0.98132,-0.0776 0,0 z m -0.0312,0.15625 c -3.92186,0.23606 -4.38154,5.37488 -4.03992,8.43841 0.89014,0.29889 0.78239,-3.88494 1.44617,-5.28216 0.37246,-1.34736 1.14226,-2.77084 2.59375,-3.15625 z m -43.5625,0.125 c -0.99315,0.24904 0.53864,0.9473 0,0 z m 1.5,0 c -1.27097,0.21632 0.84118,0.99988 0,0 z m -111.5,0.0312 c -1.11116,-0.0144 0.37083,0.99394 0,0 z m 113.4375,0.15625 c -0.60829,0.56938 0.93311,0.26201 0,0 z m 4.09375,0.4375 c 0.0932,1.18657 1.60123,-0.19558 0,0 z m -117.75,0.21875 c -1.38671,1.0762 0.37454,1.55165 0,0 z m 1.09375,0.25 c -1.52593,1.67327 0.152,3.3088 0,0 z m 110.28125,0.34375 c -0.99315,0.24904 0.53864,0.9473 0,0 z m 10.6875,0 c -0.92155,0.85226 1.3333,0.54622 0,0 z m -9.28125,0.0312 c -0.64739,0.70685 1.29439,0.0607 0,0 z m -4.28125,0.21875 c -3.96714,0.51093 -4.30639,6.05984 -2.6563,8.875 0.2019,-0.66509 -1.69524,-4.03571 0.28125,-5.6562 0.26197,-1.07987 3.18378,-2.81409 2.50005,-3.2187 l -0.0625,0 -0.0625,0 0,-10e-5 z M 472.625,540 c 0.0565,0.84953 1.03866,-0.13599 0,0 z m 67.84375,0 c -0.47582,0.24826 -0.14476,0.0332 0,0 z m 8.21875,0.0312 c -1.35774,1.37185 3.02272,0.55524 0.0626,-10e-5 l -0.0625,0 -10e-5,10e-5 z m -21.15625,0.0937 c -0.88038,0.4675 1.07597,0.36453 0,0 z m 14.375,0.1875 c 2.05863,0.31235 4.86467,1.64505 6.21875,2.15625 -1.92643,-1.10085 -3.90892,-2.29625 -6.21875,-2.15625 z m -117.375,0.25 c -0.98753,0.21055 0.54843,0.92856 0,0 z m 104.6875,0.125 c -2.46957,0.83604 -1.37423,3.31211 0,0 z m -104.75,0.78125 c -1.0035,1.16595 0.80784,2.01957 0,0 z m 61.96875,0.28125 c -1.00578,0.0415 0.93885,0.2849 0,0 z m -21.65625,2.09375 c -1.44889,-0.0782 -5.65413,2.35372 -3.67357,3.19748 1.59089,-1.23112 5.29398,-0.17069 5.81656,-1.72646 -0.6235,-0.60839 -1.41051,-1.00767 -2.14299,-1.47102 z m 89.1875,0.6875 c 1.11254,-0.01 -0.18942,1.17457 0,0 z m -2.5,0.1875 c -2.2614,0.40524 1.45246,1.86347 0,0 z M 425.875,544.875 c -0.17423,2.76944 1.52914,1.95461 0,0 z m 127.0625,2.0625 c -0.21957,1.40174 0.85304,5.64552 1.64236,4.79771 -0.15951,-1.71955 -1.01123,-3.22759 -1.64236,-4.79771 z m -84.625,0.21875 c -0.98753,0.21055 0.54843,0.92856 0,0 z m -41.09375,0.0312 c -0.094,1.44972 1.79503,1.27787 0,0 z m 32.5625,0.28125 c -1.13046,1.12412 1.67242,3.06202 1.04428,1.23163 -0.66916,-0.43231 -1.2729,-0.33894 -1.04428,-1.23163 z m 10.15625,0.375 c -0.67715,0.74037 1.06709,0.27454 0,0 z m -6.21875,0.34375 c -3.97354,-0.0728 1.26465,1.31162 0,0 z m -36.65625,0.25 c -0.29388,0.91299 0.88945,-0.0148 0,0 z m 147.6875,0.375 c -0.70323,0.54962 1.16822,0.16263 0,0 z m -94.71875,0.0625 c -1.29842,0.12491 0.75088,1.06133 0,0 z m 2.8125,0.21875 c -0.39499,0.33237 -0.21948,0.14122 0,0 z M 456.9375,549.5 c -1.82313,0.20312 1.54962,0.43804 0,0 z m 100.90625,0.125 c -0.0534,2.62097 0.24867,5.42112 1.37505,7.78125 0.0399,-2.61911 -0.40497,-5.33542 -1.37505,-7.78125 z m -69.75,0.125 c -1.26825,1.69543 2.71962,-0.25404 0,0 z M 476,550 c -2.86487,0.15045 2.01633,0.61301 0,0 z m 85.15625,0.125 c -1.26066,3.03383 2.39128,2.69147 0,0 z m -109,0.15625 c -5.60169,5.52823 -14.18285,0.25516 -20.3125,4.37505 8.2785,1.06255 16.53979,-1.05537 24.63688,-2.53772 3.46052,-0.66755 3.55888,-1.42564 0.0194,-1.39978 -1.03504,-0.49039 -5.01642,1.33469 -4.34375,-0.43755 z m 80.5,0.375 c -0.92546,0.0127 0.6956,0.33886 0,0 z M 574,550.75 c -0.62052,0.83095 1.36998,-0.0873 0,0 z m -88.75,0.28125 c -2.4273,1.86396 3.19941,0.16138 0,0 z m 74.3125,0.125 c -1.09249,1.45692 1.39548,1.17837 0,0 z m -77.3125,0.0312 c -0.7698,0.43405 3.97592,-10e-4 0.19955,0.008 l -0.19955,-0.008 z m -19.4375,0.0937 c 0.90304,1.28652 6.88887,1.97823 3.34375,0.65625 -1.11121,-0.2366 -2.22594,-0.458 -3.34375,-0.65625 z M 480,551.34365 c -2.87187,-0.1148 -1.02502,1.08909 0.094,0.0626 -0.0129,-0.0655 -0.0812,0.003 -0.094,-0.0626 z m -49.4375,0.0625 c 0.0664,0.82081 1.87749,-0.002 0,0 z m 102.5,0.0625 c 1.56469,1.48569 2.4503,1.55841 0,0 z m -57,0.15625 c -1.94652,-0.33245 -5.71071,1.7092 -1.80241,0.7985 0.75735,-0.24124 4.83067,-0.93088 1.80241,-0.7985 z m 95.65625,0.0312 c 0.50316,2.05055 2.64968,-0.0804 0,0 z m -132.84375,0.125 c -2.2508,-0.54697 1.177,1.23913 0,0 z m -10.65625,0.125 c 0.13167,3.15703 3.11695,0.41317 0,0 z m 78.3125,0.125 c -0.92346,3.70974 -4.88089,5.20081 -7.5625,7.4375 3.81267,-0.0149 7.65767,-3.53039 7.5625,-7.4375 z m -69.46875,0.0625 c 0.33676,0.27311 0.90324,-0.004 0,0 z m 137.84375,0.15625 c -3.06675,0.51037 -2.19948,2.38801 0.1563,0.5313 0.86132,-0.54645 0.77061,-0.53444 -0.1563,-0.5313 z m -66.03125,0.3125 c -2.29636,1.61906 0.16289,2.28578 0,0 z m 55.0625,0.0937 c -0.92884,0.0652 1.01834,0.24542 0,0 z m -29.21875,0.0937 c 1.12844,3.16698 5.879,3.51387 6.4062,6.84375 -1.61433,0.65028 -1.2154,6.17647 0.4375,4.68755 1.84057,-3.34915 0.22965,-7.29845 -3.0074,-9.04915 -1.25053,-0.8708 -2.56421,-1.64425 -3.8363,-2.48215 z m -22.625,0.0312 c 0.8978,0.606 -0.95377,0.47633 0,0 z m -22.5,0.0312 c 5.64279,4.69072 2.14163,14.51724 9.01504,18.23184 3.48786,2.30533 0.48734,-0.71552 -0.95438,-1.93269 -4.92616,-3.53792 -1.24236,-10.69666 -5.23353,-14.75308 -0.78118,-0.82033 -1.80428,-1.13525 -2.82713,-1.54607 z m 70.25,0.0937 c -0.67027,0.87354 1.07285,0.75111 0,0 z m 2.09375,0.34375 c -0.92546,0.0127 0.6956,0.33886 0,0 z m -41.3125,0.1875 c -3.63246,1.38188 -6.02802,5.44617 -4.68294,9.23697 0.7487,4.36939 6.00702,7.43562 10.00448,5.0722 3.23335,-0.91024 7.59287,-3.42588 6.05841,-7.39955 -1.68232,-4.56218 -6.9107,-6.47496 -11.37995,-6.90962 z m 43.75,0.0312 c 0.17306,2.8058 6.22855,1.48329 2.42597,0.26779 -0.8028,-0.11342 -1.61864,-0.17475 -2.42597,-0.26779 z M 555,553.562 c -1.108,1.49614 0.42145,2.10439 0,0 z m 5.21875,0.46875 c -1.33898,0.84714 0.98042,1.1444 0,0 z m -50.125,0.0625 c -1.6557,1.26193 -2.08163,6.00622 -0.49145,2.02929 0.17952,-0.67146 0.32489,-1.35385 0.49145,-2.02929 z m 52.40625,0.0312 c 0.27904,1.68073 1.73202,2.37618 0,0 z m 11.125,0.4375 c -0.54177,0.48459 0.57919,0.6458 0,0 z m -52.34375,0.34375 c 4.26729,-0.0349 9.49514,2.9807 9.59393,7.59172 -0.42763,3.5509 -4.95909,4.38669 -7.85568,4.96524 -5.25458,0.10386 -9.05956,-7.04219 -5.08205,-10.93196 1.12208,-0.46397 2.14173,-1.47781 3.3438,-1.625 z m 50.59375,0.1875 c -2.76798,0.58233 -5.80403,2.24307 -8.53125,0.625 0.38406,2.81832 -0.54723,7.83048 -4.4195,6.68668 -2.08599,0.0424 3.62912,2.62683 4.86778,0.38344 3.16951,-2.0545 5.04854,-5.51875 8.08297,-7.69512 z m -11.34375,0.25 c -0.80819,0.54857 1.06473,0.30419 0,0 z m 15,0.0937 c -3.13177,0.28156 -0.25763,1.05136 0,0 z m -19.84375,0.28125 c -2.33707,0.33131 0.11949,1.3841 0,0 z m -42.8125,0.71875 c 0.56511,1.02169 -1.41462,1.13219 0,0 z M 507,556.4681 c -3.32372,1.97418 1.39962,2.80321 0,0 z m 3.53125,0 c -1.63348,1.18296 0.86949,1.45353 0,0 z m 44.96875,0.375 c -0.38108,0.93897 1.45184,-0.0261 0,0 z m 5.28125,0.34375 c 1.61917,1.52009 2.20471,0.79022 0,0 z m -1.375,0.0312 c -0.31264,0.40518 0.6523,0.0317 0,0 z m -37.53125,0.4375 c -2.41408,0.63315 -4.66063,3.2966 -2.40288,5.43827 1.7927,2.33385 6.76246,3.41697 7.74831,-0.0763 1.88346,-3.83309 -2.48226,-5.00391 -5.34543,-5.362 z m -16.25,0.125 c -1.88247,0.25533 -2.14762,1.78403 0,0 z m 50.21875,0.1875 c -0.19639,2.54308 2.59842,1.50835 0,0 z m -46.34375,0.5 c -2.00166,0.95961 0.11118,1.79795 0,0 z m 12.46875,1.34375 c 3.66847,0.62141 2.12045,3.76832 -0.87611,2.36801 -1.56278,-0.56448 0.27114,-1.83623 0.87611,-2.36801 z m 35.4375,0.84375 c -3.56707,-0.59227 1.20951,0.97142 0,0 z M 520.5,562.46805 c 1.37684,0.72097 -0.8488,1.58195 0,0 z m 18.375,4.4375 c -0.4426,0.51453 0.54314,0.61124 0,0 z m -39.5,0.6875 c 0.23542,2.21042 2.99272,1.08929 0,0 z m 38.59375,0.46875 c -2.61409,0.16889 -1.47996,1.40524 10e-5,0.0628 -0.005,-0.0203 0.005,-0.0425 -10e-5,-0.0628 z m -2.375,1.09375 c -3.1407,-1.49404 0.52096,1.16958 0,0 z m -32,2.0625 c -3.68079,2.61326 3.84564,2.00404 0.0321,0.0211 l -0.0321,-0.0211 0,5e-5 z m 8.4375,0.71875 c -1.21604,-0.40946 -6.70843,1.01945 -3.15625,0.7499 0.93945,-0.81946 6.5523,0.004 3.2989,-0.71779 l -0.14265,-0.0322 0,10e-5 z m 4.8125,0.1875 c 1.74684,0.67206 2.00653,-0.058 -5e-5,1e-4 l 5e-5,-1e-4 z"
       id="path3750"
       inkscape:connector-curvature="0" />
  </g>
</svg>
