G04 #@! TF.FileFunction,Soldermask,Bot*
%FSLAX46Y46*%
G04 Gerber Fmt 4.6, Leading zero omitted, Abs format (unit mm)*
G04 Created by KiCad (PCBNEW 4.0.7-e2-6376~58~ubuntu16.04.1) date Tue Nov 28 18:51:49 2017*
%MOMM*%
%LPD*%
G01*
G04 APERTURE LIST*
%ADD10C,0.100000*%
%ADD11C,0.800000*%
%ADD12C,1.400000*%
%ADD13C,3.000000*%
%ADD14R,2.000000X1.900000*%
%ADD15C,1.900000*%
%ADD16C,4.000000*%
%ADD17C,2.499360*%
%ADD18C,2.000000*%
%ADD19O,1.500000X0.900000*%
%ADD20R,1.500000X0.900000*%
%ADD21R,1.200000X1.700000*%
%ADD22O,1.200000X1.700000*%
G04 APERTURE END LIST*
D10*
G36*
X176909340Y-89037402D02*
X177030608Y-89037402D01*
X177030608Y-88408328D01*
X177030608Y-88344938D01*
X177029225Y-88278103D01*
X177027165Y-88214024D01*
X177025104Y-88159592D01*
X177045774Y-88180951D01*
X177064378Y-88198177D01*
X177083671Y-88216091D01*
X177108476Y-88237451D01*
X177210450Y-88320822D01*
X177276596Y-88236073D01*
X177012702Y-88030056D01*
X176909349Y-88030056D01*
X176909349Y-89037402D01*
X176909340Y-89037402D01*
X176909340Y-89037402D01*
G37*
G36*
X177829181Y-89037402D02*
X178115813Y-88280859D01*
X177982832Y-88280859D01*
X177822291Y-88726654D01*
X177783361Y-88843960D01*
X177761657Y-88927159D01*
X177756145Y-88927159D01*
X177751322Y-88907177D01*
X177743741Y-88882373D01*
X177728927Y-88836553D01*
X177692754Y-88726654D01*
X177531524Y-88280859D01*
X177399232Y-88280859D01*
X177686553Y-89037402D01*
X177829180Y-89037402D01*
X177829181Y-89037402D01*
X177829181Y-89037402D01*
G37*
G36*
X171412003Y-88649040D02*
X171193621Y-88574009D01*
X171250962Y-88611220D01*
X171288172Y-88663070D01*
X171300982Y-88721631D01*
X171290001Y-88803372D01*
X171256450Y-88875963D01*
X171200329Y-88929034D01*
X171122248Y-88949164D01*
X171122251Y-88949164D01*
X171055761Y-88936964D01*
X171003300Y-88899143D01*
X170969749Y-88835092D01*
X170957549Y-88742981D01*
X170967918Y-88666730D01*
X170997808Y-88608779D01*
X171048439Y-88572179D01*
X171118590Y-88559369D01*
X171193621Y-88574009D01*
X171412003Y-88649040D01*
X171410479Y-88585142D01*
X171405905Y-88521548D01*
X171396907Y-88459480D01*
X171383335Y-88400157D01*
X171363967Y-88343731D01*
X171338805Y-88291575D01*
X171306931Y-88244910D01*
X171267434Y-88204954D01*
X171219853Y-88171861D01*
X171163732Y-88147003D01*
X171098156Y-88130991D01*
X171022211Y-88125653D01*
X170996590Y-88126263D01*
X170968529Y-88128704D01*
X170941077Y-88132364D01*
X170917286Y-88137244D01*
X170917286Y-88231795D01*
X170965477Y-88220815D01*
X171018547Y-88217155D01*
X171115539Y-88230575D01*
X171187520Y-88267176D01*
X171238760Y-88323907D01*
X171271701Y-88397108D01*
X171290612Y-88481899D01*
X171298543Y-88575840D01*
X171291222Y-88575840D01*
X171261942Y-88534969D01*
X171221071Y-88502029D01*
X171169220Y-88480069D01*
X171103950Y-88472138D01*
X170999028Y-88490439D01*
X170919117Y-88542899D01*
X170868487Y-88628300D01*
X170854762Y-88681981D01*
X170850187Y-88742982D01*
X170854915Y-88809015D01*
X170869099Y-88868033D01*
X170923390Y-88962585D01*
X171008791Y-89021755D01*
X171061862Y-89037311D01*
X171121032Y-89042496D01*
X171180203Y-89036548D01*
X171235714Y-89018704D01*
X171285277Y-88988661D01*
X171327825Y-88946114D01*
X171362748Y-88891060D01*
X171389436Y-88823502D01*
X171406363Y-88742981D01*
X171412005Y-88649040D01*
X171412003Y-88649040D01*
X171412003Y-88649040D01*
G37*
G36*
X171735308Y-89030295D02*
X171842669Y-89030295D01*
X171842669Y-88473358D01*
X171842669Y-88417237D01*
X171841455Y-88358066D01*
X171839621Y-88301335D01*
X171837786Y-88253145D01*
X171856086Y-88272055D01*
X171872556Y-88287305D01*
X171889636Y-88303166D01*
X171911596Y-88322076D01*
X172001877Y-88395887D01*
X172060438Y-88320856D01*
X171826805Y-88138464D01*
X171735304Y-88138464D01*
X171735304Y-89030295D01*
X171735308Y-89030295D01*
X171735308Y-89030295D01*
G37*
G36*
X172227584Y-88583159D02*
X172380086Y-88857663D01*
X172361786Y-88806727D01*
X172349586Y-88744201D01*
X172342267Y-88669475D01*
X172339827Y-88583159D01*
X172342267Y-88497453D01*
X172349586Y-88423337D01*
X172361786Y-88360811D01*
X172380086Y-88309876D01*
X172433767Y-88242165D01*
X172513678Y-88219595D01*
X172593589Y-88242165D01*
X172646050Y-88309876D01*
X172663436Y-88360811D01*
X172675330Y-88423337D01*
X172682193Y-88497453D01*
X172684480Y-88583159D01*
X172682193Y-88668865D01*
X172675330Y-88742981D01*
X172663435Y-88805659D01*
X172646050Y-88857053D01*
X172593589Y-88925374D01*
X172513678Y-88947944D01*
X172433767Y-88925374D01*
X172380086Y-88857663D01*
X172227584Y-88583159D01*
X172231549Y-88685488D01*
X172243445Y-88776532D01*
X172263576Y-88855375D01*
X172293465Y-88921103D01*
X172332658Y-88973259D01*
X172381917Y-89011385D01*
X172442002Y-89034718D01*
X172513678Y-89042495D01*
X172581084Y-89034718D01*
X172639340Y-89011385D01*
X172687988Y-88973259D01*
X172727791Y-88921103D01*
X172758291Y-88855375D01*
X172780252Y-88776532D01*
X172793062Y-88685488D01*
X172797332Y-88583159D01*
X172793519Y-88480830D01*
X172782081Y-88389787D01*
X172761797Y-88311096D01*
X172732670Y-88245825D01*
X172693629Y-88193669D01*
X172644829Y-88155544D01*
X172584896Y-88132211D01*
X172513677Y-88124433D01*
X172445814Y-88132211D01*
X172387405Y-88155544D01*
X172338300Y-88193212D01*
X172298344Y-88245215D01*
X172267386Y-88310486D01*
X172245274Y-88389177D01*
X172232006Y-88480373D01*
X172227584Y-88583159D01*
X172227584Y-88583159D01*
G37*
G36*
X172930313Y-89030295D02*
X173486640Y-89030295D01*
X173486640Y-88935134D01*
X173273137Y-88702721D01*
X173229827Y-88655445D01*
X173191396Y-88612439D01*
X173130396Y-88532528D01*
X173091355Y-88454447D01*
X173077936Y-88368436D01*
X173088304Y-88304995D01*
X173118195Y-88258635D01*
X173163335Y-88229355D01*
X173221896Y-88219594D01*
X173326818Y-88243385D01*
X173415269Y-88303165D01*
X173477490Y-88230574D01*
X173425029Y-88189704D01*
X173364638Y-88156154D01*
X173296317Y-88134193D01*
X173220676Y-88125653D01*
X173115145Y-88142123D01*
X173034624Y-88189704D01*
X172983993Y-88264735D01*
X172965694Y-88364166D01*
X172982164Y-88462988D01*
X173026695Y-88555709D01*
X173057653Y-88601002D01*
X173094406Y-88646600D01*
X173135124Y-88693266D01*
X173179197Y-88741761D01*
X173350609Y-88924154D01*
X173350609Y-88929034D01*
X172930314Y-88929034D01*
X172930314Y-89030295D01*
X172930313Y-89030295D01*
X172930313Y-89030295D01*
G37*
G36*
X174476121Y-88247179D02*
X174453670Y-88178967D01*
X174386287Y-88156216D01*
X174318913Y-88178952D01*
X174296472Y-88247179D01*
X174318928Y-88314538D01*
X174386287Y-88336994D01*
X174453655Y-88314538D01*
X174476121Y-88247179D01*
X174476121Y-88247179D01*
G37*
G36*
X174212401Y-88412984D02*
X174212401Y-88676665D01*
X174286074Y-88676665D01*
X174286074Y-88989857D01*
X174486459Y-88989857D01*
X174486459Y-88676685D01*
X174560132Y-88676685D01*
X174560132Y-88412984D01*
X174548062Y-88383624D01*
X174518701Y-88371533D01*
X174253832Y-88371533D01*
X174225056Y-88383624D01*
X174212401Y-88412984D01*
X174212401Y-88412984D01*
G37*
G36*
X174387555Y-87928219D02*
X174385269Y-88044521D01*
X174279862Y-88054184D01*
X174182462Y-88083155D01*
X174093125Y-88131411D01*
X174011907Y-88198927D01*
X173944443Y-88280188D01*
X173896284Y-88369637D01*
X173867406Y-88467285D01*
X173857786Y-88573142D01*
X173867261Y-88679982D01*
X173895706Y-88777125D01*
X173943153Y-88864622D01*
X174009632Y-88942523D01*
X174093155Y-89011568D01*
X174183637Y-89060886D01*
X174281026Y-89090477D01*
X174385269Y-89100341D01*
X174489767Y-89090589D01*
X174586778Y-89061302D01*
X174676303Y-89012436D01*
X174758346Y-88943945D01*
X174826820Y-88862067D01*
X174875689Y-88772962D01*
X174904985Y-88676647D01*
X174914743Y-88573142D01*
X174904876Y-88469878D01*
X174875280Y-88373090D01*
X174825961Y-88282775D01*
X174756925Y-88198927D01*
X174676719Y-88131411D01*
X174588077Y-88083155D01*
X174490945Y-88054184D01*
X174385269Y-88044521D01*
X174387555Y-87928219D01*
X174491181Y-87935677D01*
X174588332Y-87958055D01*
X174679024Y-87995358D01*
X174763276Y-88047590D01*
X174841106Y-88114758D01*
X174909494Y-88195005D01*
X174962682Y-88280978D01*
X175000669Y-88372666D01*
X175023460Y-88470058D01*
X175031057Y-88573142D01*
X175023460Y-88676071D01*
X175000669Y-88772988D01*
X174962682Y-88863909D01*
X174909494Y-88948851D01*
X174841106Y-89027830D01*
X174761446Y-89096227D01*
X174676276Y-89149415D01*
X174585581Y-89187400D01*
X174489346Y-89210187D01*
X174387555Y-89217781D01*
X174283968Y-89210099D01*
X174185988Y-89187046D01*
X174093621Y-89148611D01*
X174006875Y-89094785D01*
X173925758Y-89025555D01*
X173859423Y-88949624D01*
X173807829Y-88866428D01*
X173770976Y-88775956D01*
X173748865Y-88678198D01*
X173741494Y-88573142D01*
X173749003Y-88468212D01*
X173771527Y-88369901D01*
X173809065Y-88278216D01*
X173861614Y-88193165D01*
X173929170Y-88114758D01*
X174007214Y-88047598D01*
X174092089Y-87995366D01*
X174183779Y-87958061D01*
X174282273Y-87935679D01*
X174387555Y-87928219D01*
X174387555Y-87928219D01*
G37*
G36*
X175485760Y-88465991D02*
X175570981Y-88510909D01*
X175604958Y-88470606D01*
X175643528Y-88459099D01*
X175708313Y-88487593D01*
X175729918Y-88573097D01*
X175708035Y-88655980D01*
X175643529Y-88687095D01*
X175564112Y-88631819D01*
X175483505Y-88672122D01*
X175554862Y-88746401D01*
X175652739Y-88773465D01*
X175731471Y-88760230D01*
X175792611Y-88720486D01*
X175831947Y-88657162D01*
X175845046Y-88573117D01*
X175831663Y-88490498D01*
X175791483Y-88426876D01*
X175730909Y-88386286D01*
X175656205Y-88372749D01*
X175553701Y-88396034D01*
X175485762Y-88465991D01*
X175485760Y-88465991D01*
X175485760Y-88465991D01*
G37*
G36*
X175857699Y-88465991D02*
X175944089Y-88510909D01*
X175978045Y-88470606D01*
X176015487Y-88459099D01*
X176080255Y-88487593D01*
X176101857Y-88573097D01*
X176079993Y-88655980D01*
X176015488Y-88687095D01*
X175936010Y-88631819D01*
X175856572Y-88672122D01*
X175926821Y-88746401D01*
X176025846Y-88773465D01*
X176103871Y-88760230D01*
X176165195Y-88720486D01*
X176204913Y-88657162D01*
X176218153Y-88573117D01*
X176204765Y-88490498D01*
X176164610Y-88426876D01*
X176104017Y-88386286D01*
X176029292Y-88372749D01*
X175926508Y-88396034D01*
X175857701Y-88465991D01*
X175857699Y-88465991D01*
X175857699Y-88465991D01*
G37*
G36*
X175851997Y-87928219D02*
X175849711Y-88044521D01*
X175744245Y-88054251D01*
X175646653Y-88083428D01*
X175556965Y-88132038D01*
X175475212Y-88200065D01*
X175409416Y-88280061D01*
X175361469Y-88370395D01*
X175332062Y-88468890D01*
X175322228Y-88573142D01*
X175331635Y-88679604D01*
X175359874Y-88776701D01*
X175406967Y-88864434D01*
X175472937Y-88942807D01*
X175556066Y-89009868D01*
X175648670Y-89059110D01*
X175747642Y-89089237D01*
X175849711Y-89099204D01*
X175952118Y-89089371D01*
X176049900Y-89059678D01*
X176140687Y-89011013D01*
X176221651Y-88944513D01*
X176288868Y-88863837D01*
X176338523Y-88772761D01*
X176369228Y-88674841D01*
X176379470Y-88573142D01*
X176369228Y-88470460D01*
X176338523Y-88372101D01*
X176288875Y-88280769D01*
X176221651Y-88198927D01*
X176141831Y-88131410D01*
X176053236Y-88083154D01*
X175955863Y-88054183D01*
X175849711Y-88044521D01*
X175851997Y-87928219D01*
X175955942Y-87935727D01*
X176053144Y-87958252D01*
X176143614Y-87995789D01*
X176227366Y-88048338D01*
X176304411Y-88115895D01*
X176361652Y-88180823D01*
X176409043Y-88251242D01*
X176446589Y-88327173D01*
X176473770Y-88406979D01*
X176490069Y-88488983D01*
X176495499Y-88573142D01*
X176490131Y-88657675D01*
X176474021Y-88739354D01*
X176447158Y-88818259D01*
X176409996Y-88893178D01*
X176362987Y-88962848D01*
X176306117Y-89027262D01*
X176241627Y-89084190D01*
X176171769Y-89131397D01*
X176096545Y-89168872D01*
X176017443Y-89196070D01*
X175935949Y-89212360D01*
X175851997Y-89217781D01*
X175767656Y-89212289D01*
X175685076Y-89195801D01*
X175604322Y-89168303D01*
X175527300Y-89130439D01*
X175455937Y-89082859D01*
X175390200Y-89025555D01*
X175334488Y-88963423D01*
X175288602Y-88895259D01*
X175252571Y-88821102D01*
X175226679Y-88742159D01*
X175211126Y-88659528D01*
X175205937Y-88573142D01*
X175211184Y-88487202D01*
X175226921Y-88404443D01*
X175253140Y-88324898D01*
X175289488Y-88249857D01*
X175335563Y-88180560D01*
X175391338Y-88117032D01*
X175470565Y-88049055D01*
X175556255Y-87996187D01*
X175648398Y-87958426D01*
X175746983Y-87935770D01*
X175851997Y-87928219D01*
X175851997Y-87928219D01*
G37*
D11*
G36*
X147307514Y-96666017D02*
X135325054Y-89029355D01*
X135423894Y-89018558D01*
X135523360Y-89007589D01*
X135623446Y-88996449D01*
X135724147Y-88985139D01*
X135825456Y-88973661D01*
X135927366Y-88962015D01*
X136029873Y-88950202D01*
X136132969Y-88938224D01*
X136236648Y-88926082D01*
X136340905Y-88913778D01*
X136445733Y-88901311D01*
X136551127Y-88888683D01*
X136657079Y-88875896D01*
X136763585Y-88862950D01*
X136870637Y-88849847D01*
X136978230Y-88836587D01*
X137086357Y-88823173D01*
X137195013Y-88809604D01*
X137304192Y-88795883D01*
X137413887Y-88782010D01*
X137524092Y-88767986D01*
X137634801Y-88753813D01*
X137746007Y-88739491D01*
X137857706Y-88725022D01*
X137969890Y-88710408D01*
X138082554Y-88695648D01*
X138195692Y-88680744D01*
X138309296Y-88665698D01*
X138423362Y-88650510D01*
X138537884Y-88635181D01*
X138652854Y-88619714D01*
X138768267Y-88604108D01*
X138884116Y-88588365D01*
X139000397Y-88572486D01*
X139117102Y-88556472D01*
X139234225Y-88540325D01*
X139351761Y-88524045D01*
X139469703Y-88507634D01*
X139588045Y-88491093D01*
X139706780Y-88474422D01*
X139825904Y-88457623D01*
X139945410Y-88440698D01*
X140065291Y-88423647D01*
X140185542Y-88406471D01*
X140306156Y-88389171D01*
X140427127Y-88371750D01*
X140548449Y-88354207D01*
X140670117Y-88336544D01*
X140792123Y-88318762D01*
X140914463Y-88300862D01*
X141037129Y-88282845D01*
X141160115Y-88264713D01*
X141283416Y-88246466D01*
X141407025Y-88228106D01*
X141530937Y-88209634D01*
X141655145Y-88191051D01*
X141779643Y-88172358D01*
X141904424Y-88153556D01*
X142029484Y-88134647D01*
X142154815Y-88115630D01*
X142280411Y-88096509D01*
X142406268Y-88077283D01*
X142532377Y-88057954D01*
X142658734Y-88038523D01*
X142785331Y-88018991D01*
X142912164Y-87999359D01*
X143039226Y-87979629D01*
X143166510Y-87959801D01*
X143294011Y-87939877D01*
X143421722Y-87919858D01*
X143549638Y-87899744D01*
X143677752Y-87879538D01*
X143806058Y-87859239D01*
X143934551Y-87838850D01*
X144063223Y-87818372D01*
X144192069Y-87797804D01*
X144321083Y-87777150D01*
X144450258Y-87756409D01*
X144579589Y-87735583D01*
X144709070Y-87714674D01*
X144838693Y-87693681D01*
X144968454Y-87672607D01*
X145098346Y-87651452D01*
X145228362Y-87630218D01*
X145358498Y-87608906D01*
X145488746Y-87587516D01*
X145619100Y-87566050D01*
X145749555Y-87544510D01*
X145880105Y-87522895D01*
X146010742Y-87501208D01*
X146141462Y-87479450D01*
X146272258Y-87457621D01*
X146403123Y-87435723D01*
X146534053Y-87413756D01*
X146665040Y-87391723D01*
X146796078Y-87369624D01*
X146927162Y-87347460D01*
X147058285Y-87325233D01*
X147189442Y-87302943D01*
X147320625Y-87280591D01*
X147451829Y-87258180D01*
X147583049Y-87235709D01*
X147714277Y-87213180D01*
X147845507Y-87190595D01*
X147976734Y-87167954D01*
X148107952Y-87145258D01*
X148239153Y-87122509D01*
X148370333Y-87099708D01*
X148501485Y-87076855D01*
X148632603Y-87053952D01*
X148763681Y-87031001D01*
X148894712Y-87008001D01*
X149025691Y-86984955D01*
X149156611Y-86961864D01*
X149287467Y-86938728D01*
X149418252Y-86915549D01*
X149548960Y-86892327D01*
X149679585Y-86869065D01*
X149810120Y-86845763D01*
X149940561Y-86822422D01*
X150070900Y-86799043D01*
X150201132Y-86775628D01*
X150331250Y-86752178D01*
X150461249Y-86728693D01*
X150591122Y-86705175D01*
X150720862Y-86681625D01*
X150850465Y-86658045D01*
X150979924Y-86634434D01*
X151109232Y-86610795D01*
X151238384Y-86587129D01*
X151367374Y-86563436D01*
X151496195Y-86539719D01*
X151624841Y-86515977D01*
X151753306Y-86492212D01*
X151881584Y-86468425D01*
X152009670Y-86444618D01*
X152137556Y-86420791D01*
X152265236Y-86396946D01*
X152392706Y-86373083D01*
X152519958Y-86349204D01*
X152646986Y-86325311D01*
X152773784Y-86301403D01*
X152900347Y-86277483D01*
X153026667Y-86253551D01*
X153152740Y-86229608D01*
X153278558Y-86205656D01*
X153404116Y-86181696D01*
X153529407Y-86157729D01*
X153654426Y-86133756D01*
X153779166Y-86109777D01*
X153903621Y-86085796D01*
X154027786Y-86061811D01*
X154151653Y-86037825D01*
X154275217Y-86013839D01*
X154398472Y-85989854D01*
X154521412Y-85965870D01*
X154644030Y-85941890D01*
X154766321Y-85917914D01*
X154888278Y-85893943D01*
X155009895Y-85869978D01*
X155131166Y-85846021D01*
X155252085Y-85822073D01*
X155372645Y-85798135D01*
X155492842Y-85774207D01*
X155612668Y-85750292D01*
X155732117Y-85726390D01*
X155851184Y-85702502D01*
X155969863Y-85678630D01*
X156088146Y-85654774D01*
X156206028Y-85630936D01*
X156323503Y-85607117D01*
X156440565Y-85583318D01*
X156557208Y-85559540D01*
X156673425Y-85535785D01*
X156789211Y-85512053D01*
X156904559Y-85488345D01*
X157019463Y-85464663D01*
X157133918Y-85441008D01*
X157247916Y-85417380D01*
X157361452Y-85393782D01*
X157474520Y-85370214D01*
X157587114Y-85346677D01*
X157699227Y-85323173D01*
X157810853Y-85299702D01*
X157921987Y-85276266D01*
X158032622Y-85252865D01*
X158142752Y-85229502D01*
X158252371Y-85206177D01*
X158361473Y-85182891D01*
X158470051Y-85159645D01*
X158578100Y-85136441D01*
X158685614Y-85113279D01*
X158792586Y-85090161D01*
X158899010Y-85067088D01*
X159004880Y-85044061D01*
X159110191Y-85021081D01*
X159214935Y-84998149D01*
X159319107Y-84975267D01*
X159422701Y-84952435D01*
X159525710Y-84929655D01*
X159628129Y-84906927D01*
X159729951Y-84884254D01*
X159831170Y-84861636D01*
X159931781Y-84839073D01*
X160031776Y-84816568D01*
X160131151Y-84794122D01*
X160229898Y-84771735D01*
X160328011Y-84749408D01*
X160425486Y-84727144D01*
X160522314Y-84704942D01*
X160618491Y-84682804D01*
X160714011Y-84660732D01*
X160808866Y-84638726D01*
X160903051Y-84616787D01*
X160996560Y-84594917D01*
X161089387Y-84573117D01*
X161181525Y-84551388D01*
X161272969Y-84529730D01*
X161363712Y-84508146D01*
X161453749Y-84486636D01*
X161543072Y-84465201D01*
X161631677Y-84443843D01*
X161719557Y-84422562D01*
X161806705Y-84401361D01*
X161893116Y-84380239D01*
X161978784Y-84359198D01*
X162063702Y-84338239D01*
X162147865Y-84317363D01*
X162231265Y-84296572D01*
X162313898Y-84275867D01*
X162395757Y-84255248D01*
X162476836Y-84234717D01*
X162557128Y-84214275D01*
X162636629Y-84193922D01*
X162715330Y-84173661D01*
X162793227Y-84153493D01*
X162870314Y-84133418D01*
X162946583Y-84113437D01*
X163022030Y-84093552D01*
X163096648Y-84073764D01*
X163170430Y-84054074D01*
X163243372Y-84034483D01*
X163315466Y-84014992D01*
X163386706Y-83995603D01*
X163457087Y-83976316D01*
X163526602Y-83957133D01*
X163595245Y-83938054D01*
X163663010Y-83919081D01*
X163729892Y-83900216D01*
X163795883Y-83881458D01*
X163860977Y-83862810D01*
X163925170Y-83844272D01*
X163988453Y-83825846D01*
X164050823Y-83807532D01*
X164112271Y-83789332D01*
X164172792Y-83771247D01*
X164232381Y-83753278D01*
X164291030Y-83735426D01*
X164348735Y-83717693D01*
X164405487Y-83700078D01*
X164461283Y-83682585D01*
X164516115Y-83665213D01*
X164569977Y-83647964D01*
X164622863Y-83630839D01*
X164674768Y-83613839D01*
X164725684Y-83596965D01*
X164885702Y-83543255D01*
X165035179Y-83492227D01*
X165174773Y-83443493D01*
X165305143Y-83396666D01*
X165426946Y-83351357D01*
X165540842Y-83307179D01*
X165647488Y-83263744D01*
X165747542Y-83220663D01*
X165841664Y-83177549D01*
X165930510Y-83134014D01*
X166014740Y-83089669D01*
X166095011Y-83044128D01*
X166171983Y-82997002D01*
X166246312Y-82947902D01*
X166318658Y-82896442D01*
X166389678Y-82842233D01*
X166460032Y-82784888D01*
X166530377Y-82724018D01*
X166601371Y-82659235D01*
X166673673Y-82590151D01*
X166747941Y-82516380D01*
X166824833Y-82437532D01*
X166905008Y-82353219D01*
X166989123Y-82263054D01*
X167034520Y-82175038D01*
X167079215Y-82089958D01*
X167123211Y-82007771D01*
X167166511Y-81928432D01*
X167209119Y-81851898D01*
X167251037Y-81778123D01*
X167292268Y-81707065D01*
X167332816Y-81638678D01*
X167372683Y-81572919D01*
X167411872Y-81509744D01*
X167450387Y-81449109D01*
X167488231Y-81390968D01*
X167525405Y-81335279D01*
X167561915Y-81281997D01*
X167597761Y-81231078D01*
X167632949Y-81182477D01*
X167667479Y-81136152D01*
X167701357Y-81092057D01*
X167734583Y-81050148D01*
X167767163Y-81010381D01*
X167799098Y-80972713D01*
X167830391Y-80937099D01*
X167861047Y-80903494D01*
X167891066Y-80871856D01*
X167920454Y-80842138D01*
X167949212Y-80814299D01*
X167977344Y-80788293D01*
X168004852Y-80764075D01*
X168031740Y-80741604D01*
X168058011Y-80720832D01*
X168083668Y-80701718D01*
X168108713Y-80684217D01*
X168133150Y-80668284D01*
X168156982Y-80653875D01*
X168180212Y-80640947D01*
X168202843Y-80629455D01*
X168224877Y-80619355D01*
X168246318Y-80610602D01*
X168267169Y-80603154D01*
X168287433Y-80596965D01*
X168307113Y-80591992D01*
X168326212Y-80588190D01*
X168344733Y-80585515D01*
X168362679Y-80583923D01*
X168380052Y-80583370D01*
X168396857Y-80583813D01*
X168413096Y-80585205D01*
X168428771Y-80587505D01*
X168443887Y-80590666D01*
X168458446Y-80594646D01*
X168472451Y-80599401D01*
X168485905Y-80604885D01*
X168498811Y-80611055D01*
X168511172Y-80617867D01*
X168522991Y-80625276D01*
X168534272Y-80633239D01*
X168545016Y-80641711D01*
X168555228Y-80650649D01*
X168564910Y-80660008D01*
X168574065Y-80669743D01*
X168582697Y-80679812D01*
X168590807Y-80690169D01*
X168598400Y-80700771D01*
X168605479Y-80711573D01*
X168612045Y-80722531D01*
X168618103Y-80733602D01*
X168623655Y-80744741D01*
X168628705Y-80755903D01*
X168633254Y-80767045D01*
X168637308Y-80778123D01*
X168640867Y-80789093D01*
X168643936Y-80799910D01*
X168646518Y-80810530D01*
X168648615Y-80820909D01*
X168650230Y-80831003D01*
X168651367Y-80840768D01*
X168652028Y-80850160D01*
X168652217Y-80859134D01*
X168651936Y-80867647D01*
X168651189Y-80875654D01*
X168649979Y-80883111D01*
X168648308Y-80889974D01*
X168646179Y-80896199D01*
X168643596Y-80901742D01*
X168640562Y-80906559D01*
X168637080Y-80910605D01*
X168633152Y-80913836D01*
X168628782Y-80916209D01*
X168623972Y-80917678D01*
X168618726Y-80918201D01*
X168613047Y-80917733D01*
X168606938Y-80916229D01*
X168600401Y-80913646D01*
X168593440Y-80909939D01*
X168586058Y-80905065D01*
X168578258Y-80898979D01*
X168570043Y-80891637D01*
X168561415Y-80882995D01*
X168552378Y-80873008D01*
X168542935Y-80861633D01*
X168533089Y-80848826D01*
X168522843Y-80834542D01*
X168512200Y-80818738D01*
X168501163Y-80801368D01*
X168489734Y-80782390D01*
X168477918Y-80761758D01*
X168465717Y-80739429D01*
X168453133Y-80715359D01*
X168440171Y-80689503D01*
X168426833Y-80661817D01*
X168413121Y-80632258D01*
X168399040Y-80600781D01*
X168384592Y-80567341D01*
X168369780Y-80531896D01*
X168354607Y-80494400D01*
X168339076Y-80454809D01*
X168323190Y-80413080D01*
X168306953Y-80369169D01*
X168290366Y-80323030D01*
X168273434Y-80274620D01*
X168256159Y-80223896D01*
X168238545Y-80170812D01*
X168220593Y-80115324D01*
X168202308Y-80057389D01*
X168183692Y-79996963D01*
X168164748Y-79934000D01*
X168145480Y-79868458D01*
X168125890Y-79800291D01*
X168105981Y-79729457D01*
X168085757Y-79655910D01*
X168065220Y-79579606D01*
X168044373Y-79500502D01*
X168023220Y-79418553D01*
X168001763Y-79333716D01*
X167980006Y-79245945D01*
X167957951Y-79155197D01*
X167935602Y-79061428D01*
X167912961Y-78964594D01*
X167890031Y-78864650D01*
X167866817Y-78761552D01*
X167843319Y-78655257D01*
X167819542Y-78545719D01*
X167795640Y-78463973D01*
X167770734Y-78382256D01*
X167744829Y-78300572D01*
X167717931Y-78218924D01*
X167690043Y-78137317D01*
X167661170Y-78055754D01*
X167631316Y-77974240D01*
X167600486Y-77892777D01*
X167568684Y-77811369D01*
X167535915Y-77730021D01*
X167502182Y-77648735D01*
X167467492Y-77567516D01*
X167431847Y-77486368D01*
X167395252Y-77405294D01*
X167357712Y-77324297D01*
X167319231Y-77243382D01*
X167279814Y-77162553D01*
X167239466Y-77081813D01*
X167198189Y-77001165D01*
X167155990Y-76920614D01*
X167112872Y-76840164D01*
X167068840Y-76759817D01*
X167023898Y-76679578D01*
X166978051Y-76599451D01*
X166931303Y-76519439D01*
X166883659Y-76439546D01*
X166835122Y-76359776D01*
X166785699Y-76280132D01*
X166735392Y-76200619D01*
X166684206Y-76121239D01*
X166632147Y-76041997D01*
X166579217Y-75962897D01*
X166525423Y-75883942D01*
X166470767Y-75805135D01*
X166415255Y-75726482D01*
X166358891Y-75647985D01*
X166301680Y-75569647D01*
X166243625Y-75491474D01*
X166184732Y-75413469D01*
X166125004Y-75335634D01*
X166064447Y-75257975D01*
X166003064Y-75180495D01*
X165940860Y-75103197D01*
X165877840Y-75026085D01*
X165814008Y-74949164D01*
X165749368Y-74872436D01*
X165683925Y-74795906D01*
X165617683Y-74719577D01*
X165550647Y-74643453D01*
X165482822Y-74567538D01*
X165414210Y-74491836D01*
X165344818Y-74416349D01*
X165274649Y-74341083D01*
X165203709Y-74266040D01*
X165132000Y-74191225D01*
X165059529Y-74116640D01*
X164986298Y-74042291D01*
X164912313Y-73968180D01*
X164837579Y-73894312D01*
X164762099Y-73820690D01*
X164685877Y-73747318D01*
X164608920Y-73674199D01*
X164531230Y-73601338D01*
X164452812Y-73528738D01*
X164373672Y-73456402D01*
X164293812Y-73384335D01*
X164213238Y-73312541D01*
X164131954Y-73241022D01*
X164049965Y-73169784D01*
X163967274Y-73098828D01*
X163883887Y-73028160D01*
X163799808Y-72957783D01*
X163715041Y-72887701D01*
X163629590Y-72817917D01*
X163543461Y-72748436D01*
X163456657Y-72679260D01*
X163369184Y-72610394D01*
X163281045Y-72541842D01*
X163192244Y-72473607D01*
X163102787Y-72405692D01*
X163012678Y-72338102D01*
X162921921Y-72270841D01*
X162830521Y-72203912D01*
X162738482Y-72137318D01*
X162645808Y-72071064D01*
X162552504Y-72005154D01*
X162458575Y-71939591D01*
X162364025Y-71874378D01*
X162268857Y-71809520D01*
X162173078Y-71745020D01*
X162076691Y-71680882D01*
X161979700Y-71617111D01*
X161882110Y-71553708D01*
X161783926Y-71490679D01*
X161685152Y-71428027D01*
X161585792Y-71365755D01*
X161485851Y-71303868D01*
X161385333Y-71242369D01*
X161284243Y-71181263D01*
X161182585Y-71120551D01*
X161080363Y-71060240D01*
X160977582Y-71000331D01*
X160874247Y-70940829D01*
X160770362Y-70881738D01*
X160665931Y-70823061D01*
X160560959Y-70764803D01*
X160455450Y-70706966D01*
X160349409Y-70649555D01*
X160242839Y-70592573D01*
X160135747Y-70536024D01*
X160028135Y-70479912D01*
X159920008Y-70424241D01*
X159811372Y-70369014D01*
X159702229Y-70314235D01*
X159592586Y-70259907D01*
X159482445Y-70206036D01*
X159371812Y-70152623D01*
X159260691Y-70099673D01*
X159149087Y-70047191D01*
X159037004Y-69995178D01*
X158924445Y-69943640D01*
X158811417Y-69892580D01*
X158697923Y-69842001D01*
X158583967Y-69791908D01*
X158469555Y-69742304D01*
X158354690Y-69693193D01*
X158239377Y-69644578D01*
X158123620Y-69596464D01*
X158007425Y-69548854D01*
X157890794Y-69501752D01*
X157773734Y-69455161D01*
X157656247Y-69409086D01*
X157538339Y-69363529D01*
X157420015Y-69318496D01*
X157301277Y-69273989D01*
X157182132Y-69230012D01*
X157062583Y-69186570D01*
X156942635Y-69143665D01*
X156822292Y-69101301D01*
X156701558Y-69059483D01*
X156580439Y-69018214D01*
X156458939Y-68977498D01*
X156340873Y-68938379D01*
X156225922Y-68900546D01*
X156113921Y-68863974D01*
X156004710Y-68828637D01*
X155898125Y-68794511D01*
X155794005Y-68761571D01*
X155692187Y-68729792D01*
X155592509Y-68699149D01*
X155494810Y-68669617D01*
X155398926Y-68641172D01*
X155304696Y-68613788D01*
X155211957Y-68587441D01*
X155120548Y-68562106D01*
X155030305Y-68537757D01*
X154941067Y-68514370D01*
X154852672Y-68491920D01*
X154764958Y-68470383D01*
X154677761Y-68449732D01*
X154590921Y-68429944D01*
X154504274Y-68410994D01*
X154417659Y-68392856D01*
X154330914Y-68375505D01*
X154243875Y-68358918D01*
X154156382Y-68343068D01*
X154068272Y-68327931D01*
X153979382Y-68313483D01*
X153889550Y-68299698D01*
X153798615Y-68286551D01*
X153706414Y-68274017D01*
X153612785Y-68262072D01*
X153517566Y-68250691D01*
X153420594Y-68239848D01*
X153321707Y-68229520D01*
X153220743Y-68219680D01*
X153117540Y-68210304D01*
X153011936Y-68201368D01*
X152903768Y-68192846D01*
X152792875Y-68184713D01*
X152679094Y-68176945D01*
X152562262Y-68169517D01*
X152442218Y-68162403D01*
X152318800Y-68155579D01*
X152191845Y-68149020D01*
X152061191Y-68142702D01*
X151926676Y-68136598D01*
X151788138Y-68130685D01*
X151645414Y-68124937D01*
X151498342Y-68119330D01*
X151346761Y-68113838D01*
X151190507Y-68108437D01*
X151029420Y-68103102D01*
X150863335Y-68097808D01*
X150692092Y-68092530D01*
X150578215Y-68089194D01*
X150462723Y-68086047D01*
X150345683Y-68083089D01*
X150227164Y-68080319D01*
X150107234Y-68077733D01*
X149985961Y-68075332D01*
X149863413Y-68073113D01*
X149739657Y-68071075D01*
X149614762Y-68069217D01*
X149488796Y-68067538D01*
X149361827Y-68066034D01*
X149233922Y-68064706D01*
X149105150Y-68063552D01*
X148975580Y-68062570D01*
X148845277Y-68061758D01*
X148714312Y-68061116D01*
X148582751Y-68060642D01*
X148450663Y-68060334D01*
X148318116Y-68060191D01*
X148185178Y-68060211D01*
X148051917Y-68060393D01*
X147918400Y-68060736D01*
X147784696Y-68061237D01*
X147650872Y-68061896D01*
X147516998Y-68062711D01*
X147383140Y-68063681D01*
X147249367Y-68064803D01*
X147115747Y-68066077D01*
X146982348Y-68067501D01*
X146849237Y-68069074D01*
X146716483Y-68070794D01*
X146584154Y-68072660D01*
X146452317Y-68074670D01*
X146321042Y-68076822D01*
X146190395Y-68079116D01*
X146060444Y-68081549D01*
X145931259Y-68084121D01*
X145802906Y-68086830D01*
X145675454Y-68089674D01*
X145548971Y-68092651D01*
X145423524Y-68095762D01*
X145299183Y-68099003D01*
X145176014Y-68102373D01*
X145054085Y-68105872D01*
X144933466Y-68109497D01*
X144814223Y-68113246D01*
X144696425Y-68117120D01*
X144580139Y-68121115D01*
X144465435Y-68125231D01*
X144352379Y-68129467D01*
X144241039Y-68133819D01*
X144131485Y-68138288D01*
X144023783Y-68142872D01*
X143918002Y-68147569D01*
X143814210Y-68152377D01*
X143712474Y-68157296D01*
X143612863Y-68162324D01*
X143515445Y-68167458D01*
X143420287Y-68172699D01*
X143327458Y-68178044D01*
X143237026Y-68183492D01*
X143149059Y-68189041D01*
X143063624Y-68194690D01*
X142980790Y-68200438D01*
X142900625Y-68206282D01*
X142823196Y-68212222D01*
X142748572Y-68218256D01*
X142676821Y-68224383D01*
X142608011Y-68230600D01*
X142542209Y-68236907D01*
X142479484Y-68243302D01*
X142419903Y-68249784D01*
X142363536Y-68256351D01*
X142310448Y-68263002D01*
X142260710Y-68269735D01*
X142214388Y-68276549D01*
X142118114Y-68291641D01*
X142021207Y-68307418D01*
X141923683Y-68323875D01*
X141825559Y-68341006D01*
X141726848Y-68358805D01*
X141627568Y-68377267D01*
X141527733Y-68396385D01*
X141427359Y-68416154D01*
X141326462Y-68436568D01*
X141225058Y-68457622D01*
X141123160Y-68479309D01*
X141020787Y-68501625D01*
X140917952Y-68524562D01*
X140814672Y-68548117D01*
X140710962Y-68572282D01*
X140606837Y-68597052D01*
X140502314Y-68622421D01*
X140397407Y-68648384D01*
X140292133Y-68674935D01*
X140186507Y-68702068D01*
X140080544Y-68729777D01*
X139974260Y-68758057D01*
X139867671Y-68786902D01*
X139760792Y-68816306D01*
X139653639Y-68846264D01*
X139546227Y-68876770D01*
X139438572Y-68907817D01*
X139330689Y-68939401D01*
X139222594Y-68971515D01*
X139114303Y-69004154D01*
X139005831Y-69037312D01*
X138897194Y-69070983D01*
X138788407Y-69105162D01*
X138679486Y-69139843D01*
X138570446Y-69175020D01*
X138461303Y-69210688D01*
X138352073Y-69246840D01*
X138242771Y-69283471D01*
X138133413Y-69320575D01*
X138024013Y-69358147D01*
X137914589Y-69396181D01*
X137805155Y-69434670D01*
X137695727Y-69473610D01*
X137586320Y-69512995D01*
X137476951Y-69552818D01*
X137367634Y-69593074D01*
X137258385Y-69633758D01*
X137149220Y-69674863D01*
X137040155Y-69716384D01*
X136931204Y-69758316D01*
X136822384Y-69800651D01*
X136713710Y-69843386D01*
X136605198Y-69886513D01*
X136496862Y-69930028D01*
X136388720Y-69973924D01*
X136280785Y-70018196D01*
X136173075Y-70062838D01*
X136065604Y-70107844D01*
X135958388Y-70153209D01*
X135851443Y-70198926D01*
X135744784Y-70244991D01*
X135638426Y-70291397D01*
X135532386Y-70338139D01*
X135426679Y-70385210D01*
X135321320Y-70432606D01*
X135216325Y-70480320D01*
X135111709Y-70528347D01*
X135007489Y-70576681D01*
X134903679Y-70625316D01*
X134800296Y-70674247D01*
X134697354Y-70723467D01*
X134594870Y-70772972D01*
X134492859Y-70822754D01*
X134391336Y-70872810D01*
X134290317Y-70923132D01*
X134189818Y-70973715D01*
X134089855Y-71024554D01*
X133990442Y-71075642D01*
X133891595Y-71126974D01*
X133793330Y-71178544D01*
X133695663Y-71230347D01*
X133598609Y-71282377D01*
X133502183Y-71334627D01*
X133406402Y-71387093D01*
X133311280Y-71439768D01*
X133216834Y-71492647D01*
X133123078Y-71545724D01*
X133030029Y-71598994D01*
X132937702Y-71652450D01*
X132846113Y-71706087D01*
X132755276Y-71759899D01*
X132653920Y-71820698D01*
X132552829Y-71882149D01*
X132452014Y-71944242D01*
X132351482Y-72006968D01*
X132251241Y-72070319D01*
X132151300Y-72134286D01*
X132051668Y-72198859D01*
X131952353Y-72264032D01*
X131853363Y-72329793D01*
X131754707Y-72396136D01*
X131656393Y-72463050D01*
X131558430Y-72530528D01*
X131460826Y-72598560D01*
X131363589Y-72667138D01*
X131266729Y-72736253D01*
X131170253Y-72805896D01*
X131074169Y-72876059D01*
X130978488Y-72946732D01*
X130883216Y-73017907D01*
X130788362Y-73089575D01*
X130693934Y-73161727D01*
X130599942Y-73234355D01*
X130506393Y-73307450D01*
X130413296Y-73381003D01*
X130320660Y-73455005D01*
X130228492Y-73529447D01*
X130136802Y-73604322D01*
X130045597Y-73679619D01*
X129954887Y-73755331D01*
X129864679Y-73831447D01*
X129774982Y-73907961D01*
X129685804Y-73984862D01*
X129597154Y-74062143D01*
X129509041Y-74139794D01*
X129421472Y-74217806D01*
X129334457Y-74296172D01*
X129248003Y-74374881D01*
X129162119Y-74453926D01*
X129076814Y-74533297D01*
X128992095Y-74612986D01*
X128907972Y-74692984D01*
X128824453Y-74773282D01*
X128741546Y-74853872D01*
X128659260Y-74934744D01*
X128577602Y-75015890D01*
X128496583Y-75097301D01*
X128416209Y-75178969D01*
X128336490Y-75260884D01*
X128257434Y-75343038D01*
X128179049Y-75425422D01*
X128101343Y-75508028D01*
X128024326Y-75590846D01*
X127948006Y-75673868D01*
X127872390Y-75757084D01*
X127797488Y-75840487D01*
X127723308Y-75924068D01*
X127649859Y-76007817D01*
X127577148Y-76091726D01*
X127505184Y-76175786D01*
X127433976Y-76259989D01*
X127363533Y-76344325D01*
X127293861Y-76428786D01*
X127224971Y-76513363D01*
X127156870Y-76598048D01*
X127089567Y-76682831D01*
X127023071Y-76767703D01*
X126957389Y-76852657D01*
X126892530Y-76937683D01*
X126828503Y-77022773D01*
X126765316Y-77107917D01*
X126702977Y-77193107D01*
X126641495Y-77278334D01*
X126580879Y-77363590D01*
X126521137Y-77448865D01*
X126462276Y-77534152D01*
X126404307Y-77619440D01*
X126347236Y-77704722D01*
X126291074Y-77789988D01*
X126235827Y-77875230D01*
X126181504Y-77960439D01*
X126128115Y-78045606D01*
X126075666Y-78130723D01*
X126024168Y-78215780D01*
X125973627Y-78300770D01*
X125924054Y-78385683D01*
X125875455Y-78470510D01*
X125827840Y-78555242D01*
X125781216Y-78639872D01*
X125735593Y-78724390D01*
X125690979Y-78808787D01*
X125647382Y-78893054D01*
X125604811Y-78977184D01*
X125563274Y-79061166D01*
X125522779Y-79144993D01*
X125483336Y-79228656D01*
X125444952Y-79312145D01*
X125407635Y-79395452D01*
X125356468Y-79512500D01*
X125307322Y-79627590D01*
X125260166Y-79740855D01*
X125214972Y-79852430D01*
X125171710Y-79962446D01*
X125130351Y-80071037D01*
X125090865Y-80178337D01*
X125053224Y-80284479D01*
X125017399Y-80389596D01*
X124983359Y-80493822D01*
X124951075Y-80597289D01*
X124920519Y-80700131D01*
X124891660Y-80802482D01*
X124864470Y-80904474D01*
X124838920Y-81006241D01*
X124814979Y-81107916D01*
X124792619Y-81209632D01*
X124771810Y-81311523D01*
X124752524Y-81413723D01*
X124734730Y-81516363D01*
X124718400Y-81619578D01*
X124703504Y-81723501D01*
X124690013Y-81828265D01*
X124677897Y-81934003D01*
X124667128Y-82040849D01*
X124657676Y-82148936D01*
X124649511Y-82258398D01*
X124642605Y-82369367D01*
X124636928Y-82481976D01*
X124632451Y-82596360D01*
X124629144Y-82712652D01*
X124626979Y-82830984D01*
X124625925Y-82951490D01*
X124625913Y-83091503D01*
X124627116Y-83226487D01*
X124629605Y-83356737D01*
X124633452Y-83482547D01*
X124638729Y-83604211D01*
X124645507Y-83722022D01*
X124653858Y-83836275D01*
X124663855Y-83947264D01*
X124675568Y-84055283D01*
X124689070Y-84160625D01*
X124704432Y-84263585D01*
X124721726Y-84364457D01*
X124741024Y-84463535D01*
X124762397Y-84561112D01*
X124785918Y-84657484D01*
X124811658Y-84752943D01*
X124839689Y-84847784D01*
X124870082Y-84942301D01*
X124902909Y-85036788D01*
X124938243Y-85131539D01*
X124976155Y-85226848D01*
X125016716Y-85323009D01*
X125059998Y-85420316D01*
X125106074Y-85519063D01*
X125155015Y-85619544D01*
X125206892Y-85722053D01*
X125261777Y-85826884D01*
X125319743Y-85934332D01*
X125380861Y-86044689D01*
X125420787Y-86112928D01*
X125465777Y-86184339D01*
X125515567Y-86258664D01*
X125569893Y-86335644D01*
X125628491Y-86415023D01*
X125691098Y-86496543D01*
X125757449Y-86579945D01*
X125827280Y-86664974D01*
X125900329Y-86751370D01*
X125976330Y-86838876D01*
X126055020Y-86927235D01*
X126136136Y-87016189D01*
X126219413Y-87105480D01*
X126304587Y-87194851D01*
X126391395Y-87284044D01*
X126479573Y-87372801D01*
X126568856Y-87460865D01*
X126658982Y-87547979D01*
X126749685Y-87633883D01*
X126840704Y-87718322D01*
X126931772Y-87801037D01*
X127022627Y-87881770D01*
X127113005Y-87960264D01*
X127202641Y-88036262D01*
X127291273Y-88109505D01*
X127378636Y-88179737D01*
X127464466Y-88246699D01*
X127548499Y-88310133D01*
X127630473Y-88369783D01*
X127710121Y-88425390D01*
X127787182Y-88476697D01*
X127861391Y-88523446D01*
X127932483Y-88565380D01*
X128000196Y-88602241D01*
X128079220Y-88641916D01*
X128162796Y-88681287D01*
X128250601Y-88720262D01*
X128342309Y-88758751D01*
X128437597Y-88796662D01*
X128536140Y-88833904D01*
X128637613Y-88870385D01*
X128741692Y-88906014D01*
X128848052Y-88940699D01*
X128956369Y-88974351D01*
X129066318Y-89006876D01*
X129177576Y-89038184D01*
X129289817Y-89068184D01*
X129402716Y-89096784D01*
X129515951Y-89123893D01*
X129629195Y-89149420D01*
X129742125Y-89173272D01*
X129854416Y-89195360D01*
X129965744Y-89215592D01*
X130075784Y-89233876D01*
X130184211Y-89250120D01*
X130290701Y-89264235D01*
X130394931Y-89276128D01*
X130446368Y-89280946D01*
X130502626Y-89285179D01*
X130563563Y-89288834D01*
X130629035Y-89291918D01*
X130698899Y-89294439D01*
X130773013Y-89296403D01*
X130851233Y-89297817D01*
X130933416Y-89298689D01*
X131019419Y-89299027D01*
X131109099Y-89298836D01*
X131202314Y-89298124D01*
X131298920Y-89296899D01*
X131398774Y-89295168D01*
X131501733Y-89292937D01*
X131607655Y-89290214D01*
X131716395Y-89287006D01*
X131827812Y-89283321D01*
X131941762Y-89279164D01*
X132058102Y-89274544D01*
X132176688Y-89269468D01*
X132297379Y-89263943D01*
X132420031Y-89257976D01*
X132544501Y-89251574D01*
X132670646Y-89244744D01*
X132798323Y-89237493D01*
X132927389Y-89229830D01*
X133057701Y-89221760D01*
X133189116Y-89213290D01*
X133321491Y-89204430D01*
X133454682Y-89195184D01*
X133588548Y-89185561D01*
X133722944Y-89175567D01*
X133857729Y-89165210D01*
X133992758Y-89154497D01*
X134127889Y-89143435D01*
X134262979Y-89132031D01*
X134397885Y-89120292D01*
X134532463Y-89108226D01*
X134666571Y-89095840D01*
X134800066Y-89083141D01*
X134932805Y-89070135D01*
X135064644Y-89056831D01*
X135195442Y-89043235D01*
X135325054Y-89029355D01*
X147307514Y-96666017D01*
X147194729Y-96640739D01*
X147081625Y-96615694D01*
X146968209Y-96590883D01*
X146854487Y-96566307D01*
X146740467Y-96541966D01*
X146626157Y-96517862D01*
X146511562Y-96493996D01*
X146396691Y-96470369D01*
X146281551Y-96446981D01*
X146166148Y-96423835D01*
X146050490Y-96400930D01*
X145934583Y-96378268D01*
X145818436Y-96355850D01*
X145702055Y-96333677D01*
X145585447Y-96311750D01*
X145468619Y-96290070D01*
X145351579Y-96268637D01*
X145234334Y-96247454D01*
X145116890Y-96226520D01*
X144999255Y-96205838D01*
X144881436Y-96185408D01*
X144763441Y-96165230D01*
X144645275Y-96145307D01*
X144526947Y-96125639D01*
X144408464Y-96106227D01*
X144289832Y-96087072D01*
X144171058Y-96068175D01*
X144052151Y-96049537D01*
X143933117Y-96031159D01*
X143813962Y-96013043D01*
X143694695Y-95995188D01*
X143575323Y-95977597D01*
X143455852Y-95960270D01*
X143336289Y-95943209D01*
X143216643Y-95926413D01*
X143096919Y-95909885D01*
X142977125Y-95893625D01*
X142857268Y-95877635D01*
X142737356Y-95861914D01*
X142617395Y-95846465D01*
X142497392Y-95831289D01*
X142377356Y-95816385D01*
X142257291Y-95801756D01*
X142137207Y-95787403D01*
X142017110Y-95773326D01*
X141897007Y-95759526D01*
X141776905Y-95746005D01*
X141656812Y-95732763D01*
X141536734Y-95719802D01*
X141416679Y-95707122D01*
X141296653Y-95694725D01*
X141176665Y-95682611D01*
X141056720Y-95670781D01*
X140936827Y-95659238D01*
X140816992Y-95647981D01*
X140697222Y-95637011D01*
X140577525Y-95626330D01*
X140457907Y-95615939D01*
X140338377Y-95605838D01*
X140218940Y-95596029D01*
X140099604Y-95586513D01*
X139980376Y-95577290D01*
X139861264Y-95568362D01*
X139742274Y-95559730D01*
X139623413Y-95551394D01*
X139504690Y-95543356D01*
X139386110Y-95535617D01*
X139267681Y-95528178D01*
X139149410Y-95521039D01*
X139031304Y-95514203D01*
X138913370Y-95507669D01*
X138795616Y-95501439D01*
X138678048Y-95495514D01*
X138560674Y-95489895D01*
X138443501Y-95484582D01*
X138326536Y-95479578D01*
X138209785Y-95474882D01*
X138093257Y-95470497D01*
X137976959Y-95466422D01*
X137860896Y-95462660D01*
X137745077Y-95459210D01*
X137629509Y-95456074D01*
X137514199Y-95453254D01*
X137399154Y-95450749D01*
X137284380Y-95448562D01*
X137169886Y-95446693D01*
X137055678Y-95445142D01*
X136941764Y-95443912D01*
X136828150Y-95443003D01*
X136714843Y-95442416D01*
X136601852Y-95442152D01*
X136489182Y-95442213D01*
X136376842Y-95442598D01*
X136264838Y-95443310D01*
X136153177Y-95444349D01*
X136041866Y-95445716D01*
X135930913Y-95447413D01*
X135820325Y-95449440D01*
X135710109Y-95451798D01*
X135600271Y-95454488D01*
X135490819Y-95457512D01*
X135381761Y-95460870D01*
X135273103Y-95464563D01*
X135164853Y-95468593D01*
X135057017Y-95472960D01*
X134949602Y-95477666D01*
X134842617Y-95482711D01*
X134736067Y-95488096D01*
X134629961Y-95493823D01*
X134524305Y-95499892D01*
X134419106Y-95506305D01*
X134314371Y-95513063D01*
X134210108Y-95520165D01*
X134106324Y-95527615D01*
X134003026Y-95535412D01*
X133900220Y-95543557D01*
X133797915Y-95552052D01*
X133696117Y-95560898D01*
X133594833Y-95570095D01*
X133494070Y-95579645D01*
X133393837Y-95589549D01*
X133294139Y-95599807D01*
X133194983Y-95610421D01*
X133096378Y-95621391D01*
X132998330Y-95632720D01*
X132900846Y-95644407D01*
X132803933Y-95656453D01*
X132707599Y-95668861D01*
X132611850Y-95681630D01*
X132516694Y-95694762D01*
X132422138Y-95708258D01*
X132328189Y-95722119D01*
X132234854Y-95736346D01*
X132142140Y-95750939D01*
X132050054Y-95765901D01*
X131958604Y-95781231D01*
X131867797Y-95796931D01*
X131777639Y-95813002D01*
X131688138Y-95829445D01*
X131599301Y-95846261D01*
X131511135Y-95863451D01*
X131423648Y-95881016D01*
X131336846Y-95898957D01*
X131250736Y-95917275D01*
X131165326Y-95935971D01*
X131080622Y-95955046D01*
X130996632Y-95974501D01*
X130913364Y-95994337D01*
X130830823Y-96014555D01*
X130749018Y-96035157D01*
X130597734Y-96073656D01*
X130449923Y-96110749D01*
X130305472Y-96146447D01*
X130164271Y-96180766D01*
X130026209Y-96213718D01*
X129891173Y-96245317D01*
X129759054Y-96275575D01*
X129629739Y-96304508D01*
X129503118Y-96332127D01*
X129379078Y-96358446D01*
X129257509Y-96383479D01*
X129138300Y-96407240D01*
X129021339Y-96429741D01*
X128906515Y-96450995D01*
X128793716Y-96471018D01*
X128682832Y-96489821D01*
X128573751Y-96507418D01*
X128466362Y-96523823D01*
X128360553Y-96539049D01*
X128256214Y-96553110D01*
X128153233Y-96566018D01*
X128051498Y-96577788D01*
X127950899Y-96588432D01*
X127851324Y-96597965D01*
X127752662Y-96606399D01*
X127654801Y-96613748D01*
X127557631Y-96620026D01*
X127461040Y-96625245D01*
X127364917Y-96629419D01*
X127269151Y-96632562D01*
X127173629Y-96634687D01*
X127078242Y-96635808D01*
X126982877Y-96635937D01*
X126887424Y-96635089D01*
X126791771Y-96633276D01*
X126695806Y-96630513D01*
X126599420Y-96626811D01*
X126502499Y-96622186D01*
X126404934Y-96616651D01*
X126306612Y-96610217D01*
X126207423Y-96602901D01*
X126107256Y-96594713D01*
X125962231Y-96581060D01*
X125823536Y-96565411D01*
X125690915Y-96547659D01*
X125564111Y-96527701D01*
X125442870Y-96505431D01*
X125326935Y-96480744D01*
X125216050Y-96453534D01*
X125109961Y-96423697D01*
X125008410Y-96391126D01*
X124911143Y-96355718D01*
X124817904Y-96317367D01*
X124728436Y-96275967D01*
X124642485Y-96231414D01*
X124559794Y-96183601D01*
X124480107Y-96132425D01*
X124403170Y-96077780D01*
X124328726Y-96019560D01*
X124256519Y-95957661D01*
X124186293Y-95891977D01*
X124117794Y-95822403D01*
X124050765Y-95748834D01*
X123974968Y-95659621D01*
X123904427Y-95570601D01*
X123839144Y-95481743D01*
X123779118Y-95393015D01*
X123724351Y-95304386D01*
X123674844Y-95215825D01*
X123630599Y-95127300D01*
X123591616Y-95038781D01*
X123557897Y-94950234D01*
X123529442Y-94861630D01*
X123506254Y-94772937D01*
X123488331Y-94684124D01*
X123475677Y-94595158D01*
X123468292Y-94506009D01*
X123466177Y-94416645D01*
X123469334Y-94327035D01*
X123477762Y-94237148D01*
X123491465Y-94146951D01*
X123510441Y-94056415D01*
X123534694Y-93965507D01*
X123564223Y-93874196D01*
X123599030Y-93782450D01*
X123639116Y-93690239D01*
X123684483Y-93597531D01*
X123735130Y-93504294D01*
X123791060Y-93410497D01*
X123852273Y-93316109D01*
X123918771Y-93221098D01*
X123990554Y-93125434D01*
X124067625Y-93029084D01*
X124149983Y-92932017D01*
X124216368Y-92849139D01*
X124277531Y-92759189D01*
X124333204Y-92663236D01*
X124383115Y-92562352D01*
X124426997Y-92457604D01*
X124464580Y-92350063D01*
X124495594Y-92240798D01*
X124519770Y-92130879D01*
X124536838Y-92021376D01*
X124546531Y-91913358D01*
X124548577Y-91807895D01*
X124542708Y-91706056D01*
X124528654Y-91608912D01*
X124506147Y-91517532D01*
X124475950Y-91432157D01*
X124437457Y-91346328D01*
X124391199Y-91260439D01*
X124337705Y-91174885D01*
X124277503Y-91090058D01*
X124211124Y-91006353D01*
X124139096Y-90924164D01*
X124061949Y-90843884D01*
X123980212Y-90765908D01*
X123894415Y-90690629D01*
X123805087Y-90618442D01*
X123712757Y-90549739D01*
X123617954Y-90484915D01*
X123521209Y-90424364D01*
X123423049Y-90368480D01*
X123324005Y-90317656D01*
X123224606Y-90272287D01*
X123125381Y-90232765D01*
X123026860Y-90199486D01*
X122929571Y-90172843D01*
X122834044Y-90153230D01*
X122740809Y-90141041D01*
X122650395Y-90136669D01*
X122599023Y-90131926D01*
X122532376Y-90118488D01*
X122452469Y-90097092D01*
X122361316Y-90068473D01*
X122260932Y-90033368D01*
X122153333Y-89992514D01*
X122040531Y-89946646D01*
X121924542Y-89896502D01*
X121807381Y-89842817D01*
X121691062Y-89786328D01*
X121591621Y-89734893D01*
X121493616Y-89680824D01*
X121397111Y-89624188D01*
X121302173Y-89565051D01*
X121208867Y-89503479D01*
X121117258Y-89439537D01*
X121027411Y-89373293D01*
X120939394Y-89304813D01*
X120853270Y-89234161D01*
X120769105Y-89161406D01*
X120686965Y-89086612D01*
X120606915Y-89009845D01*
X120529021Y-88931173D01*
X120453347Y-88850661D01*
X120379961Y-88768374D01*
X120308926Y-88684381D01*
X120240310Y-88598745D01*
X120174176Y-88511534D01*
X120110590Y-88422814D01*
X120049619Y-88332650D01*
X119991327Y-88241110D01*
X119935780Y-88148258D01*
X119883043Y-88054162D01*
X119833182Y-87958887D01*
X119786263Y-87862499D01*
X119746692Y-87777071D01*
X119711226Y-87697646D01*
X119679651Y-87622634D01*
X119651749Y-87550442D01*
X119627304Y-87479481D01*
X119606101Y-87408158D01*
X119587923Y-87334882D01*
X119572554Y-87258063D01*
X119559778Y-87176110D01*
X119549378Y-87087430D01*
X119541140Y-86990432D01*
X119534846Y-86883527D01*
X119530280Y-86765121D01*
X119527227Y-86633625D01*
X119525470Y-86487447D01*
X119524792Y-86324996D01*
X119524979Y-86144680D01*
X119525814Y-85944908D01*
X119526729Y-85836335D01*
X119528351Y-85728252D01*
X119530686Y-85620632D01*
X119533740Y-85513452D01*
X119537516Y-85406686D01*
X119542022Y-85300308D01*
X119547262Y-85194294D01*
X119553242Y-85088618D01*
X119559966Y-84983255D01*
X119567442Y-84878180D01*
X119575673Y-84773367D01*
X119584665Y-84668792D01*
X119594424Y-84564429D01*
X119604955Y-84460253D01*
X119616264Y-84356239D01*
X119628355Y-84252362D01*
X119641235Y-84148596D01*
X119654909Y-84044916D01*
X119669381Y-83941297D01*
X119684658Y-83837714D01*
X119700745Y-83734142D01*
X119717647Y-83630555D01*
X119735370Y-83526928D01*
X119753919Y-83423236D01*
X119773299Y-83319454D01*
X119793516Y-83215557D01*
X119814576Y-83111519D01*
X119836483Y-83007315D01*
X119859243Y-82902920D01*
X119882861Y-82798309D01*
X119907344Y-82693456D01*
X119932695Y-82588337D01*
X119958921Y-82482926D01*
X119986028Y-82377197D01*
X120014019Y-82271127D01*
X120042902Y-82164689D01*
X120072680Y-82057859D01*
X120103361Y-81950610D01*
X120134948Y-81842919D01*
X120167448Y-81734759D01*
X120200865Y-81626106D01*
X120235206Y-81516934D01*
X120270475Y-81407218D01*
X120306678Y-81296934D01*
X120343821Y-81186054D01*
X120381908Y-81074556D01*
X120420946Y-80962413D01*
X120460939Y-80849599D01*
X120501894Y-80736091D01*
X120543814Y-80621862D01*
X120586706Y-80506888D01*
X120630576Y-80391144D01*
X120675428Y-80274603D01*
X120721268Y-80157241D01*
X120768101Y-80039033D01*
X120815934Y-79919953D01*
X120853408Y-79828100D01*
X120891521Y-79736306D01*
X120930269Y-79644573D01*
X120969651Y-79552903D01*
X121009664Y-79461298D01*
X121050306Y-79369762D01*
X121091575Y-79278297D01*
X121133469Y-79186905D01*
X121175986Y-79095588D01*
X121219123Y-79004349D01*
X121262878Y-78913190D01*
X121307249Y-78822115D01*
X121352234Y-78731124D01*
X121397831Y-78640222D01*
X121444037Y-78549409D01*
X121490851Y-78458689D01*
X121538269Y-78368064D01*
X121586291Y-78277537D01*
X121634914Y-78187109D01*
X121684135Y-78096783D01*
X121733952Y-78006563D01*
X121784364Y-77916449D01*
X121835368Y-77826445D01*
X121886961Y-77736553D01*
X121939143Y-77646776D01*
X121991909Y-77557115D01*
X122045260Y-77467574D01*
X122099191Y-77378154D01*
X122153701Y-77288859D01*
X122208788Y-77199690D01*
X122264450Y-77110651D01*
X122320684Y-77021743D01*
X122377488Y-76932968D01*
X122434861Y-76844330D01*
X122492799Y-76755831D01*
X122551301Y-76667474D01*
X122610364Y-76579259D01*
X122669987Y-76491191D01*
X122730167Y-76403272D01*
X122790902Y-76315503D01*
X122852189Y-76227888D01*
X122914027Y-76140429D01*
X122976414Y-76053128D01*
X123039347Y-75965987D01*
X123102824Y-75879010D01*
X123166843Y-75792198D01*
X123231401Y-75705554D01*
X123296497Y-75619081D01*
X123362129Y-75532781D01*
X123428293Y-75446656D01*
X123494989Y-75360708D01*
X123562213Y-75274941D01*
X123629964Y-75189356D01*
X123698239Y-75103957D01*
X123767037Y-75018745D01*
X123836354Y-74933722D01*
X123906190Y-74848892D01*
X123976541Y-74764257D01*
X124047406Y-74679819D01*
X124118782Y-74595581D01*
X124190667Y-74511545D01*
X124263059Y-74427713D01*
X124335956Y-74344088D01*
X124409355Y-74260673D01*
X124483255Y-74177469D01*
X124557653Y-74094480D01*
X124632548Y-74011707D01*
X124707936Y-73929153D01*
X124783816Y-73846821D01*
X124860185Y-73764713D01*
X124937042Y-73682831D01*
X125014383Y-73601178D01*
X125092208Y-73519756D01*
X125170514Y-73438569D01*
X125249298Y-73357617D01*
X125328559Y-73276903D01*
X125408294Y-73196431D01*
X125488500Y-73116202D01*
X125569177Y-73036219D01*
X125650322Y-72956485D01*
X125731932Y-72877001D01*
X125814005Y-72797770D01*
X125896540Y-72718795D01*
X125979533Y-72640078D01*
X126062983Y-72561621D01*
X126146888Y-72483427D01*
X126231246Y-72405499D01*
X126316053Y-72327838D01*
X126401309Y-72250448D01*
X126487010Y-72173330D01*
X126573156Y-72096487D01*
X126659742Y-72019922D01*
X126746769Y-71943637D01*
X126834232Y-71867634D01*
X126922130Y-71791916D01*
X127010461Y-71716485D01*
X127099223Y-71641344D01*
X127188413Y-71566495D01*
X127278029Y-71491940D01*
X127368069Y-71417683D01*
X127458532Y-71343725D01*
X127549414Y-71270068D01*
X127640713Y-71196716D01*
X127732428Y-71123671D01*
X127824556Y-71050935D01*
X127917095Y-70978510D01*
X128010043Y-70906399D01*
X128103397Y-70834605D01*
X128197156Y-70763130D01*
X128291317Y-70691976D01*
X128385878Y-70621146D01*
X128480837Y-70550641D01*
X128576192Y-70480466D01*
X128671940Y-70410621D01*
X128768080Y-70341111D01*
X128864609Y-70271935D01*
X128961524Y-70203099D01*
X129058825Y-70134603D01*
X129156508Y-70066450D01*
X129254572Y-69998643D01*
X129353014Y-69931184D01*
X129451832Y-69864075D01*
X129551023Y-69797320D01*
X129650587Y-69730920D01*
X129750520Y-69664877D01*
X129850820Y-69599195D01*
X129951486Y-69533876D01*
X130052515Y-69468921D01*
X130153904Y-69404335D01*
X130255652Y-69340118D01*
X130357756Y-69276273D01*
X130445043Y-69222168D01*
X130532584Y-69168343D01*
X130620380Y-69114797D01*
X130708428Y-69061532D01*
X130796727Y-69008546D01*
X130885277Y-68955841D01*
X130974076Y-68903417D01*
X131063122Y-68851273D01*
X131152414Y-68799410D01*
X131241951Y-68747828D01*
X131331732Y-68696527D01*
X131421755Y-68645508D01*
X131512018Y-68594770D01*
X131602522Y-68544314D01*
X131693264Y-68494141D01*
X131784243Y-68444249D01*
X131875457Y-68394640D01*
X131966907Y-68345313D01*
X132058589Y-68296269D01*
X132150503Y-68247507D01*
X132242647Y-68199029D01*
X132335021Y-68150834D01*
X132427623Y-68102923D01*
X132520451Y-68055295D01*
X132613505Y-68007951D01*
X132706782Y-67960891D01*
X132800282Y-67914115D01*
X132894004Y-67867623D01*
X132987946Y-67821416D01*
X133082106Y-67775494D01*
X133176484Y-67729857D01*
X133271078Y-67684504D01*
X133365887Y-67639437D01*
X133460909Y-67594656D01*
X133556144Y-67550160D01*
X133651590Y-67505950D01*
X133747245Y-67462025D01*
X133843108Y-67418387D01*
X133939179Y-67375036D01*
X134035455Y-67331970D01*
X134131936Y-67289192D01*
X134228619Y-67246700D01*
X134325505Y-67204496D01*
X134422591Y-67162579D01*
X134519876Y-67120949D01*
X134617359Y-67079607D01*
X134715039Y-67038552D01*
X134812914Y-66997786D01*
X134910983Y-66957308D01*
X135009244Y-66917118D01*
X135107697Y-66877217D01*
X135206340Y-66837604D01*
X135305171Y-66798281D01*
X135404190Y-66759246D01*
X135503396Y-66720501D01*
X135602786Y-66682045D01*
X135702359Y-66643879D01*
X135802115Y-66606002D01*
X135902051Y-66568416D01*
X136002167Y-66531120D01*
X136102462Y-66494114D01*
X136202933Y-66457399D01*
X136303580Y-66420974D01*
X136404402Y-66384840D01*
X136505396Y-66348998D01*
X136606563Y-66313446D01*
X136707899Y-66278186D01*
X136809405Y-66243218D01*
X136911079Y-66208542D01*
X137012919Y-66174157D01*
X137114925Y-66140065D01*
X137217094Y-66106265D01*
X137319426Y-66072758D01*
X137421919Y-66039543D01*
X137524573Y-66006622D01*
X137627385Y-65973993D01*
X137730354Y-65941658D01*
X137833480Y-65909616D01*
X137936760Y-65877868D01*
X138040194Y-65846413D01*
X138143780Y-65815253D01*
X138247517Y-65784386D01*
X138351403Y-65753815D01*
X138455438Y-65723537D01*
X138559619Y-65693555D01*
X138663946Y-65663867D01*
X138768418Y-65634474D01*
X138873032Y-65605377D01*
X138977789Y-65576575D01*
X139082685Y-65548069D01*
X139187721Y-65519859D01*
X139292895Y-65491944D01*
X139398205Y-65464326D01*
X139503650Y-65437005D01*
X139609230Y-65409979D01*
X139714942Y-65383251D01*
X139820785Y-65356819D01*
X139926758Y-65330685D01*
X140032859Y-65304848D01*
X140139089Y-65279308D01*
X140245444Y-65254066D01*
X140351924Y-65229121D01*
X140458527Y-65204475D01*
X140565252Y-65180127D01*
X140672099Y-65156077D01*
X140779065Y-65132326D01*
X140886149Y-65108874D01*
X140993350Y-65085720D01*
X141100666Y-65062866D01*
X141208097Y-65040311D01*
X141315641Y-65018055D01*
X141423297Y-64996100D01*
X141531063Y-64974443D01*
X141638938Y-64953087D01*
X141746921Y-64932031D01*
X141855010Y-64911276D01*
X141963205Y-64890821D01*
X142071503Y-64870667D01*
X142179904Y-64850813D01*
X142288406Y-64831261D01*
X142397008Y-64812010D01*
X142505709Y-64793061D01*
X142614507Y-64774413D01*
X142723401Y-64756067D01*
X142832390Y-64738023D01*
X142941472Y-64720282D01*
X143050646Y-64702842D01*
X143159911Y-64685706D01*
X143269266Y-64668872D01*
X143378709Y-64652340D01*
X143488238Y-64636113D01*
X143597854Y-64620188D01*
X143707553Y-64604567D01*
X143817336Y-64589249D01*
X143927200Y-64574235D01*
X144037144Y-64559526D01*
X144147168Y-64545120D01*
X144257269Y-64531019D01*
X144367447Y-64517223D01*
X144477700Y-64503731D01*
X144588027Y-64490544D01*
X144698426Y-64477662D01*
X144808896Y-64465086D01*
X144919437Y-64452815D01*
X145030046Y-64440850D01*
X145140722Y-64429190D01*
X145251464Y-64417837D01*
X145362271Y-64406790D01*
X145473142Y-64396049D01*
X145584074Y-64385615D01*
X145695067Y-64375487D01*
X145806120Y-64365667D01*
X145917231Y-64356154D01*
X146028398Y-64346947D01*
X146139622Y-64338049D01*
X146250899Y-64329458D01*
X146362229Y-64321175D01*
X146473611Y-64313200D01*
X146585044Y-64305533D01*
X146696525Y-64298174D01*
X146808054Y-64291125D01*
X146919630Y-64284383D01*
X147031250Y-64277951D01*
X147142915Y-64271828D01*
X147254621Y-64266014D01*
X147366370Y-64260510D01*
X147478157Y-64255316D01*
X147589984Y-64250431D01*
X147701848Y-64245856D01*
X147813747Y-64241592D01*
X147925682Y-64237638D01*
X148037650Y-64233994D01*
X148149649Y-64230661D01*
X148261680Y-64227640D01*
X148373740Y-64224929D01*
X148485828Y-64222530D01*
X148597943Y-64220442D01*
X148710083Y-64218666D01*
X148822248Y-64217201D01*
X148934435Y-64216049D01*
X149046644Y-64215209D01*
X149158874Y-64214681D01*
X149271122Y-64214466D01*
X149383388Y-64214564D01*
X149495671Y-64214975D01*
X149607968Y-64215698D01*
X149720280Y-64216736D01*
X149832603Y-64218086D01*
X149944938Y-64219750D01*
X150057283Y-64221729D01*
X150169636Y-64224021D01*
X150281997Y-64226627D01*
X150394363Y-64229548D01*
X150506734Y-64232783D01*
X150619109Y-64236334D01*
X150731485Y-64240199D01*
X150843862Y-64244379D01*
X150956239Y-64248875D01*
X151068614Y-64253686D01*
X151180985Y-64258812D01*
X151293352Y-64264255D01*
X151405713Y-64270014D01*
X151518067Y-64276089D01*
X151630412Y-64282480D01*
X151742748Y-64289188D01*
X151855073Y-64296213D01*
X151967385Y-64303554D01*
X152079684Y-64311213D01*
X152191968Y-64319189D01*
X152304235Y-64327483D01*
X152416485Y-64336094D01*
X152528716Y-64345023D01*
X152640927Y-64354271D01*
X152753116Y-64363836D01*
X152865283Y-64373720D01*
X152977425Y-64383922D01*
X153089542Y-64394444D01*
X153201633Y-64405284D01*
X153313695Y-64416443D01*
X153425728Y-64427922D01*
X153537730Y-64439720D01*
X153649701Y-64451838D01*
X153761638Y-64464276D01*
X153873541Y-64477034D01*
X153985407Y-64490112D01*
X154097237Y-64503510D01*
X154209028Y-64517229D01*
X154320780Y-64531269D01*
X154432490Y-64545630D01*
X154544158Y-64560312D01*
X154655782Y-64575315D01*
X154767361Y-64590640D01*
X154878894Y-64606287D01*
X154990380Y-64622255D01*
X155101816Y-64638545D01*
X155213202Y-64655158D01*
X155324537Y-64672093D01*
X155435819Y-64689351D01*
X155547047Y-64706931D01*
X155658219Y-64724835D01*
X155769334Y-64743062D01*
X155880392Y-64761612D01*
X155991390Y-64780485D01*
X156102328Y-64799682D01*
X156213203Y-64819203D01*
X156324015Y-64839048D01*
X156434763Y-64859218D01*
X156545445Y-64879712D01*
X156656059Y-64900530D01*
X156766605Y-64921673D01*
X156877082Y-64943141D01*
X156987487Y-64964935D01*
X157097820Y-64987053D01*
X157208079Y-65009498D01*
X157318263Y-65032268D01*
X157428370Y-65055363D01*
X157538400Y-65078785D01*
X157648352Y-65102533D01*
X157758222Y-65126608D01*
X157868012Y-65151009D01*
X157977718Y-65175737D01*
X158087340Y-65200792D01*
X158196877Y-65226174D01*
X158306327Y-65251883D01*
X158415689Y-65277920D01*
X158524962Y-65304285D01*
X158634144Y-65330978D01*
X158752621Y-65360343D01*
X158870885Y-65390078D01*
X158988936Y-65420179D01*
X159106771Y-65450647D01*
X159224390Y-65481481D01*
X159341790Y-65512679D01*
X159458972Y-65544241D01*
X159575933Y-65576166D01*
X159692673Y-65608453D01*
X159809190Y-65641101D01*
X159925482Y-65674110D01*
X160041550Y-65707477D01*
X160157390Y-65741203D01*
X160273003Y-65775286D01*
X160388387Y-65809726D01*
X160503540Y-65844521D01*
X160618462Y-65879671D01*
X160733151Y-65915175D01*
X160847605Y-65951031D01*
X160961825Y-65987240D01*
X161075807Y-66023800D01*
X161189552Y-66060710D01*
X161303058Y-66097969D01*
X161416323Y-66135577D01*
X161529346Y-66173532D01*
X161642127Y-66211833D01*
X161754663Y-66250480D01*
X161866954Y-66289472D01*
X161978999Y-66328808D01*
X162090795Y-66368486D01*
X162202342Y-66408507D01*
X162313639Y-66448868D01*
X162424684Y-66489570D01*
X162535476Y-66530611D01*
X162646014Y-66571991D01*
X162756297Y-66613708D01*
X162866323Y-66655761D01*
X162976091Y-66698150D01*
X163085599Y-66740874D01*
X163194847Y-66783932D01*
X163303834Y-66827322D01*
X163412557Y-66871045D01*
X163521017Y-66915099D01*
X163629210Y-66959483D01*
X163737137Y-67004196D01*
X163844796Y-67049237D01*
X163952186Y-67094606D01*
X164059305Y-67140302D01*
X164166153Y-67186323D01*
X164272728Y-67232669D01*
X164379028Y-67279339D01*
X164485053Y-67326332D01*
X164590801Y-67373646D01*
X164696271Y-67421282D01*
X164801461Y-67469238D01*
X164906371Y-67517514D01*
X165011000Y-67566107D01*
X165115345Y-67615019D01*
X165219406Y-67664247D01*
X165323182Y-67713790D01*
X165426671Y-67763648D01*
X165529871Y-67813820D01*
X165632783Y-67864306D01*
X165735404Y-67915103D01*
X165837733Y-67966211D01*
X165939769Y-68017629D01*
X166041510Y-68069357D01*
X166142956Y-68121393D01*
X166244106Y-68173737D01*
X166344957Y-68226387D01*
X166445509Y-68279343D01*
X166545760Y-68332604D01*
X166645709Y-68386168D01*
X166745356Y-68440036D01*
X166844698Y-68494206D01*
X166943734Y-68548676D01*
X167042463Y-68603447D01*
X167140885Y-68658518D01*
X167238997Y-68713886D01*
X167336798Y-68769552D01*
X167434288Y-68825515D01*
X167531464Y-68881774D01*
X167628326Y-68938327D01*
X167724873Y-68995174D01*
X167821102Y-69052315D01*
X167917014Y-69109747D01*
X168012606Y-69167470D01*
X168107877Y-69225484D01*
X168202827Y-69283787D01*
X168297453Y-69342378D01*
X168391755Y-69401257D01*
X168485731Y-69460423D01*
X168579380Y-69519874D01*
X168672702Y-69579610D01*
X168765693Y-69639630D01*
X168858354Y-69699933D01*
X168950683Y-69760518D01*
X169042679Y-69821384D01*
X169134341Y-69882531D01*
X169225667Y-69943957D01*
X169316656Y-70005661D01*
X169407306Y-70067643D01*
X169497618Y-70129901D01*
X169587588Y-70192435D01*
X169677217Y-70255244D01*
X169766502Y-70318327D01*
X169855443Y-70381683D01*
X169944038Y-70445311D01*
X170032286Y-70509210D01*
X170120186Y-70573380D01*
X170207737Y-70637818D01*
X170294936Y-70702526D01*
X170381784Y-70767501D01*
X170468279Y-70832742D01*
X170554419Y-70898249D01*
X170640203Y-70964021D01*
X170725630Y-71030057D01*
X170810699Y-71096356D01*
X170895409Y-71162917D01*
X170979757Y-71229740D01*
X171063744Y-71296822D01*
X171147367Y-71364164D01*
X171230626Y-71431765D01*
X171313520Y-71499623D01*
X171396046Y-71567737D01*
X171478203Y-71636108D01*
X171559992Y-71704733D01*
X171641409Y-71773612D01*
X171722455Y-71842745D01*
X171803127Y-71912129D01*
X171883424Y-71981764D01*
X171963346Y-72051650D01*
X172042891Y-72121786D01*
X172122057Y-72192169D01*
X172200844Y-72262801D01*
X172279250Y-72333679D01*
X172357274Y-72404803D01*
X172434914Y-72476171D01*
X172512170Y-72547784D01*
X172589040Y-72619639D01*
X172665523Y-72691737D01*
X172741618Y-72764076D01*
X172817323Y-72836656D01*
X172892637Y-72909474D01*
X172967559Y-72982532D01*
X173042088Y-73055826D01*
X173116222Y-73129358D01*
X173189961Y-73203125D01*
X173263302Y-73277127D01*
X173336244Y-73351364D01*
X173408788Y-73425833D01*
X173480930Y-73500534D01*
X173552670Y-73575467D01*
X173624007Y-73650630D01*
X173694939Y-73726022D01*
X173765465Y-73801643D01*
X173835584Y-73877491D01*
X173905295Y-73953567D01*
X173974596Y-74029868D01*
X174043486Y-74106393D01*
X174111963Y-74183143D01*
X174180028Y-74260116D01*
X174247678Y-74337311D01*
X174314911Y-74414728D01*
X174381728Y-74492364D01*
X174448126Y-74570220D01*
X174514105Y-74648295D01*
X174579662Y-74726587D01*
X174644798Y-74805096D01*
X174709510Y-74883821D01*
X174773797Y-74962761D01*
X174837658Y-75041915D01*
X174901092Y-75121281D01*
X174964098Y-75200860D01*
X175026674Y-75280651D01*
X175088819Y-75360651D01*
X175150531Y-75440861D01*
X175211811Y-75521280D01*
X175272655Y-75601906D01*
X175333063Y-75682739D01*
X175393035Y-75763778D01*
X175452567Y-75845022D01*
X175511660Y-75926469D01*
X175570312Y-76008120D01*
X175628522Y-76089973D01*
X175686288Y-76172027D01*
X175743610Y-76254282D01*
X175800485Y-76336736D01*
X175856913Y-76419389D01*
X175912893Y-76502239D01*
X175968423Y-76585286D01*
X176023501Y-76668529D01*
X176078128Y-76751967D01*
X176132301Y-76835599D01*
X176186019Y-76919424D01*
X176239281Y-77003441D01*
X176292086Y-77087650D01*
X176344432Y-77172049D01*
X176396319Y-77256637D01*
X176447744Y-77341414D01*
X176498707Y-77426378D01*
X176549207Y-77511530D01*
X176599241Y-77596867D01*
X176648810Y-77682389D01*
X176697911Y-77768095D01*
X176746544Y-77853985D01*
X176794706Y-77940056D01*
X176842398Y-78026309D01*
X176889618Y-78112742D01*
X176936363Y-78199355D01*
X176982634Y-78286146D01*
X177028429Y-78373115D01*
X177073747Y-78460261D01*
X177118585Y-78547583D01*
X177162944Y-78635080D01*
X177206822Y-78722750D01*
X177250218Y-78810594D01*
X177300999Y-78914889D01*
X177351116Y-79019476D01*
X177400567Y-79124344D01*
X177449348Y-79229485D01*
X177497459Y-79334890D01*
X177544896Y-79440548D01*
X177591658Y-79546451D01*
X177637741Y-79652588D01*
X177683143Y-79758952D01*
X177727862Y-79865532D01*
X177771896Y-79972320D01*
X177815243Y-80079305D01*
X177857899Y-80186479D01*
X177899863Y-80293832D01*
X177941131Y-80401355D01*
X177981703Y-80509038D01*
X178021575Y-80616872D01*
X178060745Y-80724848D01*
X178099211Y-80832957D01*
X178136970Y-80941188D01*
X178174021Y-81049534D01*
X178210359Y-81157983D01*
X178245984Y-81266528D01*
X178280893Y-81375159D01*
X178315083Y-81483866D01*
X178348553Y-81592640D01*
X178381299Y-81701471D01*
X178413319Y-81810351D01*
X178444612Y-81919270D01*
X178475174Y-82028219D01*
X178505004Y-82137188D01*
X178534098Y-82246168D01*
X178562455Y-82355150D01*
X178590072Y-82464124D01*
X178616947Y-82573080D01*
X178643077Y-82682011D01*
X178668461Y-82790906D01*
X178693095Y-82899755D01*
X178716978Y-83008551D01*
X178740106Y-83117282D01*
X178762478Y-83225941D01*
X178784091Y-83334517D01*
X178804944Y-83443001D01*
X178825032Y-83551384D01*
X178844355Y-83659657D01*
X178862910Y-83767810D01*
X178880694Y-83875833D01*
X178897705Y-83983719D01*
X178913940Y-84091456D01*
X178929398Y-84199036D01*
X178944076Y-84306450D01*
X178957972Y-84413688D01*
X178971082Y-84520740D01*
X178983406Y-84627598D01*
X178994940Y-84734252D01*
X179005682Y-84840693D01*
X179015630Y-84946912D01*
X179024781Y-85052898D01*
X179033133Y-85158643D01*
X179040683Y-85264138D01*
X179047430Y-85369373D01*
X179053371Y-85474338D01*
X179058504Y-85579025D01*
X179062825Y-85683423D01*
X179066333Y-85787525D01*
X179069026Y-85891320D01*
X179070901Y-85994799D01*
X179073300Y-86181506D01*
X179074755Y-86349344D01*
X179075018Y-86500035D01*
X179073841Y-86635304D01*
X179070979Y-86756873D01*
X179066182Y-86866467D01*
X179059205Y-86965807D01*
X179049799Y-87056619D01*
X179037718Y-87140625D01*
X179022714Y-87219548D01*
X179004540Y-87295113D01*
X178982948Y-87369042D01*
X178957692Y-87443059D01*
X178928524Y-87518887D01*
X178895197Y-87598250D01*
X178857463Y-87682872D01*
X178815075Y-87774475D01*
X178771400Y-87864648D01*
X178722837Y-87959437D01*
X178670326Y-88057282D01*
X178614805Y-88156622D01*
X178557210Y-88255899D01*
X178498480Y-88353553D01*
X178439553Y-88448025D01*
X178381366Y-88537754D01*
X178324858Y-88621182D01*
X178270967Y-88696750D01*
X178220630Y-88762897D01*
X178163488Y-88831225D01*
X178098784Y-88901728D01*
X178027209Y-88973939D01*
X177949454Y-89047388D01*
X177866211Y-89121607D01*
X177778169Y-89196126D01*
X177686020Y-89270477D01*
X177590455Y-89344191D01*
X177492164Y-89416799D01*
X177391839Y-89487833D01*
X177290170Y-89556823D01*
X177187849Y-89623301D01*
X177085565Y-89686797D01*
X176984010Y-89746844D01*
X176883875Y-89802973D01*
X176785851Y-89854713D01*
X176690628Y-89901598D01*
X176598897Y-89943157D01*
X176511350Y-89978923D01*
X176428677Y-90008426D01*
X176351568Y-90031197D01*
X176270065Y-90052282D01*
X176175063Y-90076708D01*
X176069997Y-90103600D01*
X175958303Y-90132084D01*
X175843417Y-90161286D01*
X175728773Y-90190329D01*
X175617809Y-90218341D01*
X175513958Y-90244445D01*
X175419891Y-90271127D01*
X175325241Y-90304085D01*
X175230294Y-90343158D01*
X175135338Y-90388182D01*
X175040659Y-90438994D01*
X174946543Y-90495432D01*
X174853278Y-90557333D01*
X174761151Y-90624534D01*
X174670447Y-90696871D01*
X174581454Y-90774183D01*
X174475293Y-90872468D01*
X174385937Y-90960715D01*
X174311727Y-91041807D01*
X174251003Y-91118629D01*
X174202107Y-91194065D01*
X174163382Y-91271000D01*
X174133167Y-91352318D01*
X174109805Y-91440902D01*
X174091637Y-91539639D01*
X174077004Y-91651411D01*
X174064683Y-91773965D01*
X174056728Y-91887098D01*
X174053549Y-91992079D01*
X174055555Y-92090179D01*
X174063154Y-92182665D01*
X174076757Y-92270809D01*
X174096772Y-92355880D01*
X174123609Y-92439146D01*
X174157677Y-92521879D01*
X174199385Y-92605347D01*
X174249142Y-92690819D01*
X174307358Y-92779567D01*
X174374441Y-92872858D01*
X174450802Y-92971963D01*
X174536849Y-93078151D01*
X174612845Y-93173177D01*
X174683344Y-93267695D01*
X174748348Y-93361744D01*
X174807858Y-93455366D01*
X174861877Y-93548600D01*
X174910407Y-93641487D01*
X174953450Y-93734067D01*
X174991008Y-93826381D01*
X175023082Y-93918468D01*
X175049676Y-94010369D01*
X175070791Y-94102125D01*
X175086429Y-94193776D01*
X175096592Y-94285361D01*
X175101283Y-94376922D01*
X175100502Y-94468498D01*
X175094254Y-94560130D01*
X175082539Y-94651859D01*
X175065359Y-94743724D01*
X175042717Y-94835766D01*
X175014615Y-94928025D01*
X174981054Y-95020542D01*
X174942038Y-95113356D01*
X174897567Y-95206508D01*
X174847644Y-95300039D01*
X174792271Y-95393989D01*
X174731450Y-95488397D01*
X174665184Y-95583305D01*
X174623671Y-95638409D01*
X174580077Y-95692071D01*
X174534414Y-95744287D01*
X174486692Y-95795059D01*
X174436924Y-95844384D01*
X174385121Y-95892261D01*
X174331294Y-95938691D01*
X174275456Y-95983671D01*
X174217619Y-96027202D01*
X174157793Y-96069281D01*
X174095990Y-96109908D01*
X174032222Y-96149082D01*
X173966501Y-96186802D01*
X173898839Y-96223068D01*
X173829246Y-96257877D01*
X173757735Y-96291229D01*
X173684317Y-96323124D01*
X173609004Y-96353560D01*
X173531808Y-96382536D01*
X173452740Y-96410052D01*
X173371812Y-96436105D01*
X173289036Y-96460696D01*
X173204423Y-96483824D01*
X173117984Y-96505487D01*
X173029733Y-96525685D01*
X172939679Y-96544416D01*
X172847835Y-96561679D01*
X172754213Y-96577475D01*
X172658823Y-96591801D01*
X172561679Y-96604656D01*
X172462791Y-96616041D01*
X172362171Y-96625953D01*
X172259830Y-96634392D01*
X172155781Y-96641357D01*
X172050035Y-96646846D01*
X171942604Y-96650860D01*
X171833499Y-96653396D01*
X171722732Y-96654455D01*
X171610315Y-96654035D01*
X171496259Y-96652134D01*
X171380575Y-96648753D01*
X171263277Y-96643890D01*
X171144375Y-96637544D01*
X171023880Y-96629715D01*
X170901805Y-96620401D01*
X170778162Y-96609601D01*
X170652961Y-96597314D01*
X170526214Y-96583540D01*
X170397934Y-96568277D01*
X170268132Y-96551525D01*
X170136819Y-96533282D01*
X170004007Y-96513548D01*
X169869708Y-96492321D01*
X169733933Y-96469602D01*
X169596694Y-96445387D01*
X169458003Y-96419678D01*
X169317871Y-96392472D01*
X169176311Y-96363769D01*
X169033333Y-96333568D01*
X168888949Y-96301867D01*
X168743171Y-96268667D01*
X168596011Y-96233966D01*
X168447480Y-96197762D01*
X168297590Y-96160056D01*
X168146353Y-96120845D01*
X167948841Y-96068882D01*
X167759600Y-96019109D01*
X167578343Y-95971477D01*
X167404782Y-95925941D01*
X167238629Y-95882452D01*
X167079597Y-95840964D01*
X166927399Y-95801430D01*
X166781747Y-95763803D01*
X166642354Y-95728035D01*
X166508932Y-95694079D01*
X166381193Y-95661888D01*
X166258851Y-95631416D01*
X166141618Y-95602615D01*
X166029205Y-95575437D01*
X165921327Y-95549836D01*
X165817694Y-95525765D01*
X165718021Y-95503177D01*
X165622019Y-95482023D01*
X165529400Y-95462259D01*
X165439878Y-95443835D01*
X165353165Y-95426705D01*
X165268973Y-95410822D01*
X165187015Y-95396139D01*
X165107004Y-95382609D01*
X165028651Y-95370184D01*
X164951670Y-95358818D01*
X164875773Y-95348463D01*
X164800672Y-95339073D01*
X164726081Y-95330599D01*
X164651710Y-95322996D01*
X164577274Y-95316215D01*
X164502485Y-95310210D01*
X164427054Y-95304934D01*
X164350695Y-95300339D01*
X164273121Y-95296379D01*
X164194042Y-95293006D01*
X164113173Y-95290173D01*
X164030226Y-95287834D01*
X163944913Y-95285940D01*
X163856946Y-95284445D01*
X163766039Y-95283302D01*
X163671904Y-95282463D01*
X163574253Y-95281882D01*
X163472798Y-95281511D01*
X163367253Y-95281303D01*
X163257330Y-95281212D01*
X163142741Y-95281190D01*
X163023198Y-95281189D01*
X162919806Y-95281411D01*
X162814471Y-95282081D01*
X162707353Y-95283189D01*
X162598610Y-95284729D01*
X162488403Y-95286691D01*
X162376890Y-95289066D01*
X162264230Y-95291848D01*
X162150584Y-95295027D01*
X162036110Y-95298595D01*
X161920967Y-95302544D01*
X161805315Y-95306866D01*
X161689313Y-95311551D01*
X161573121Y-95316593D01*
X161456897Y-95321981D01*
X161340802Y-95327709D01*
X161224993Y-95333768D01*
X161109631Y-95340149D01*
X160994875Y-95346844D01*
X160880884Y-95353845D01*
X160767818Y-95361143D01*
X160655835Y-95368730D01*
X160545095Y-95376599D01*
X160435758Y-95384739D01*
X160327982Y-95393144D01*
X160221927Y-95401805D01*
X160117752Y-95410713D01*
X160015616Y-95419860D01*
X159915679Y-95429238D01*
X159818100Y-95438838D01*
X159723038Y-95448653D01*
X159630653Y-95458673D01*
X159539444Y-95468897D01*
X159445810Y-95479550D01*
X159349830Y-95490620D01*
X159251580Y-95502096D01*
X159151137Y-95513967D01*
X159048578Y-95526222D01*
X158943980Y-95538849D01*
X158837420Y-95551838D01*
X158728974Y-95565178D01*
X158618721Y-95578857D01*
X158506736Y-95592865D01*
X158393096Y-95607190D01*
X158277879Y-95621820D01*
X158161162Y-95636746D01*
X158043021Y-95651956D01*
X157923533Y-95667439D01*
X157802775Y-95683183D01*
X157680825Y-95699178D01*
X157557759Y-95715413D01*
X157433653Y-95731876D01*
X157308586Y-95748556D01*
X157182634Y-95765442D01*
X157055873Y-95782523D01*
X156928381Y-95799789D01*
X156800235Y-95817227D01*
X156671512Y-95834827D01*
X156542288Y-95852578D01*
X156412641Y-95870468D01*
X156282647Y-95888487D01*
X156152383Y-95906623D01*
X156021927Y-95924865D01*
X155891355Y-95943203D01*
X155760744Y-95961624D01*
X155630171Y-95980119D01*
X155499713Y-95998675D01*
X155369447Y-96017282D01*
X155239450Y-96035928D01*
X155109799Y-96054603D01*
X154980570Y-96073296D01*
X154851841Y-96091995D01*
X154723689Y-96110689D01*
X154596190Y-96129367D01*
X154469422Y-96148018D01*
X154343461Y-96166631D01*
X154218385Y-96185195D01*
X154094269Y-96203698D01*
X153971192Y-96222130D01*
X153849230Y-96240480D01*
X153728460Y-96258735D01*
X153608959Y-96276887D01*
X153490804Y-96294922D01*
X153374072Y-96312830D01*
X153258840Y-96330600D01*
X153145184Y-96348221D01*
X153033182Y-96365682D01*
X152922911Y-96382972D01*
X152814447Y-96400079D01*
X152707867Y-96416992D01*
X152603249Y-96433701D01*
X152500670Y-96450194D01*
X152400205Y-96466460D01*
X152301933Y-96482488D01*
X152205929Y-96498267D01*
X152112272Y-96513785D01*
X152021038Y-96529033D01*
X151932303Y-96543998D01*
X151846146Y-96558669D01*
X151762642Y-96573036D01*
X151681868Y-96587087D01*
X151603903Y-96600811D01*
X151528822Y-96614198D01*
X151456702Y-96627235D01*
X151387621Y-96639912D01*
X151321655Y-96652218D01*
X151258882Y-96664141D01*
X151199378Y-96675671D01*
X151073962Y-96699838D01*
X150951468Y-96722613D01*
X150831726Y-96743996D01*
X150714565Y-96763987D01*
X150599814Y-96782585D01*
X150487304Y-96799790D01*
X150376862Y-96815601D01*
X150268319Y-96830019D01*
X150161504Y-96843042D01*
X150056247Y-96854670D01*
X149952377Y-96864902D01*
X149849723Y-96873739D01*
X149748116Y-96881180D01*
X149647383Y-96887225D01*
X149547356Y-96891872D01*
X149447862Y-96895122D01*
X149348733Y-96896974D01*
X149249796Y-96897428D01*
X149150882Y-96896484D01*
X149051820Y-96894140D01*
X148952439Y-96890397D01*
X148852569Y-96885253D01*
X148752040Y-96878710D01*
X148650680Y-96870765D01*
X148548319Y-96861420D01*
X148444787Y-96850673D01*
X148339913Y-96838524D01*
X148233526Y-96824972D01*
X148125456Y-96810017D01*
X148015533Y-96793660D01*
X147903585Y-96775898D01*
X147789443Y-96756732D01*
X147672935Y-96736162D01*
X147553892Y-96714187D01*
X147432141Y-96690806D01*
X147307514Y-96666019D01*
X147307514Y-96666022D01*
X147307514Y-96666017D01*
X147307514Y-96666017D01*
G37*
X147307514Y-96666017D02*
X135325054Y-89029355D01*
X135423894Y-89018558D01*
X135523360Y-89007589D01*
X135623446Y-88996449D01*
X135724147Y-88985139D01*
X135825456Y-88973661D01*
X135927366Y-88962015D01*
X136029873Y-88950202D01*
X136132969Y-88938224D01*
X136236648Y-88926082D01*
X136340905Y-88913778D01*
X136445733Y-88901311D01*
X136551127Y-88888683D01*
X136657079Y-88875896D01*
X136763585Y-88862950D01*
X136870637Y-88849847D01*
X136978230Y-88836587D01*
X137086357Y-88823173D01*
X137195013Y-88809604D01*
X137304192Y-88795883D01*
X137413887Y-88782010D01*
X137524092Y-88767986D01*
X137634801Y-88753813D01*
X137746007Y-88739491D01*
X137857706Y-88725022D01*
X137969890Y-88710408D01*
X138082554Y-88695648D01*
X138195692Y-88680744D01*
X138309296Y-88665698D01*
X138423362Y-88650510D01*
X138537884Y-88635181D01*
X138652854Y-88619714D01*
X138768267Y-88604108D01*
X138884116Y-88588365D01*
X139000397Y-88572486D01*
X139117102Y-88556472D01*
X139234225Y-88540325D01*
X139351761Y-88524045D01*
X139469703Y-88507634D01*
X139588045Y-88491093D01*
X139706780Y-88474422D01*
X139825904Y-88457623D01*
X139945410Y-88440698D01*
X140065291Y-88423647D01*
X140185542Y-88406471D01*
X140306156Y-88389171D01*
X140427127Y-88371750D01*
X140548449Y-88354207D01*
X140670117Y-88336544D01*
X140792123Y-88318762D01*
X140914463Y-88300862D01*
X141037129Y-88282845D01*
X141160115Y-88264713D01*
X141283416Y-88246466D01*
X141407025Y-88228106D01*
X141530937Y-88209634D01*
X141655145Y-88191051D01*
X141779643Y-88172358D01*
X141904424Y-88153556D01*
X142029484Y-88134647D01*
X142154815Y-88115630D01*
X142280411Y-88096509D01*
X142406268Y-88077283D01*
X142532377Y-88057954D01*
X142658734Y-88038523D01*
X142785331Y-88018991D01*
X142912164Y-87999359D01*
X143039226Y-87979629D01*
X143166510Y-87959801D01*
X143294011Y-87939877D01*
X143421722Y-87919858D01*
X143549638Y-87899744D01*
X143677752Y-87879538D01*
X143806058Y-87859239D01*
X143934551Y-87838850D01*
X144063223Y-87818372D01*
X144192069Y-87797804D01*
X144321083Y-87777150D01*
X144450258Y-87756409D01*
X144579589Y-87735583D01*
X144709070Y-87714674D01*
X144838693Y-87693681D01*
X144968454Y-87672607D01*
X145098346Y-87651452D01*
X145228362Y-87630218D01*
X145358498Y-87608906D01*
X145488746Y-87587516D01*
X145619100Y-87566050D01*
X145749555Y-87544510D01*
X145880105Y-87522895D01*
X146010742Y-87501208D01*
X146141462Y-87479450D01*
X146272258Y-87457621D01*
X146403123Y-87435723D01*
X146534053Y-87413756D01*
X146665040Y-87391723D01*
X146796078Y-87369624D01*
X146927162Y-87347460D01*
X147058285Y-87325233D01*
X147189442Y-87302943D01*
X147320625Y-87280591D01*
X147451829Y-87258180D01*
X147583049Y-87235709D01*
X147714277Y-87213180D01*
X147845507Y-87190595D01*
X147976734Y-87167954D01*
X148107952Y-87145258D01*
X148239153Y-87122509D01*
X148370333Y-87099708D01*
X148501485Y-87076855D01*
X148632603Y-87053952D01*
X148763681Y-87031001D01*
X148894712Y-87008001D01*
X149025691Y-86984955D01*
X149156611Y-86961864D01*
X149287467Y-86938728D01*
X149418252Y-86915549D01*
X149548960Y-86892327D01*
X149679585Y-86869065D01*
X149810120Y-86845763D01*
X149940561Y-86822422D01*
X150070900Y-86799043D01*
X150201132Y-86775628D01*
X150331250Y-86752178D01*
X150461249Y-86728693D01*
X150591122Y-86705175D01*
X150720862Y-86681625D01*
X150850465Y-86658045D01*
X150979924Y-86634434D01*
X151109232Y-86610795D01*
X151238384Y-86587129D01*
X151367374Y-86563436D01*
X151496195Y-86539719D01*
X151624841Y-86515977D01*
X151753306Y-86492212D01*
X151881584Y-86468425D01*
X152009670Y-86444618D01*
X152137556Y-86420791D01*
X152265236Y-86396946D01*
X152392706Y-86373083D01*
X152519958Y-86349204D01*
X152646986Y-86325311D01*
X152773784Y-86301403D01*
X152900347Y-86277483D01*
X153026667Y-86253551D01*
X153152740Y-86229608D01*
X153278558Y-86205656D01*
X153404116Y-86181696D01*
X153529407Y-86157729D01*
X153654426Y-86133756D01*
X153779166Y-86109777D01*
X153903621Y-86085796D01*
X154027786Y-86061811D01*
X154151653Y-86037825D01*
X154275217Y-86013839D01*
X154398472Y-85989854D01*
X154521412Y-85965870D01*
X154644030Y-85941890D01*
X154766321Y-85917914D01*
X154888278Y-85893943D01*
X155009895Y-85869978D01*
X155131166Y-85846021D01*
X155252085Y-85822073D01*
X155372645Y-85798135D01*
X155492842Y-85774207D01*
X155612668Y-85750292D01*
X155732117Y-85726390D01*
X155851184Y-85702502D01*
X155969863Y-85678630D01*
X156088146Y-85654774D01*
X156206028Y-85630936D01*
X156323503Y-85607117D01*
X156440565Y-85583318D01*
X156557208Y-85559540D01*
X156673425Y-85535785D01*
X156789211Y-85512053D01*
X156904559Y-85488345D01*
X157019463Y-85464663D01*
X157133918Y-85441008D01*
X157247916Y-85417380D01*
X157361452Y-85393782D01*
X157474520Y-85370214D01*
X157587114Y-85346677D01*
X157699227Y-85323173D01*
X157810853Y-85299702D01*
X157921987Y-85276266D01*
X158032622Y-85252865D01*
X158142752Y-85229502D01*
X158252371Y-85206177D01*
X158361473Y-85182891D01*
X158470051Y-85159645D01*
X158578100Y-85136441D01*
X158685614Y-85113279D01*
X158792586Y-85090161D01*
X158899010Y-85067088D01*
X159004880Y-85044061D01*
X159110191Y-85021081D01*
X159214935Y-84998149D01*
X159319107Y-84975267D01*
X159422701Y-84952435D01*
X159525710Y-84929655D01*
X159628129Y-84906927D01*
X159729951Y-84884254D01*
X159831170Y-84861636D01*
X159931781Y-84839073D01*
X160031776Y-84816568D01*
X160131151Y-84794122D01*
X160229898Y-84771735D01*
X160328011Y-84749408D01*
X160425486Y-84727144D01*
X160522314Y-84704942D01*
X160618491Y-84682804D01*
X160714011Y-84660732D01*
X160808866Y-84638726D01*
X160903051Y-84616787D01*
X160996560Y-84594917D01*
X161089387Y-84573117D01*
X161181525Y-84551388D01*
X161272969Y-84529730D01*
X161363712Y-84508146D01*
X161453749Y-84486636D01*
X161543072Y-84465201D01*
X161631677Y-84443843D01*
X161719557Y-84422562D01*
X161806705Y-84401361D01*
X161893116Y-84380239D01*
X161978784Y-84359198D01*
X162063702Y-84338239D01*
X162147865Y-84317363D01*
X162231265Y-84296572D01*
X162313898Y-84275867D01*
X162395757Y-84255248D01*
X162476836Y-84234717D01*
X162557128Y-84214275D01*
X162636629Y-84193922D01*
X162715330Y-84173661D01*
X162793227Y-84153493D01*
X162870314Y-84133418D01*
X162946583Y-84113437D01*
X163022030Y-84093552D01*
X163096648Y-84073764D01*
X163170430Y-84054074D01*
X163243372Y-84034483D01*
X163315466Y-84014992D01*
X163386706Y-83995603D01*
X163457087Y-83976316D01*
X163526602Y-83957133D01*
X163595245Y-83938054D01*
X163663010Y-83919081D01*
X163729892Y-83900216D01*
X163795883Y-83881458D01*
X163860977Y-83862810D01*
X163925170Y-83844272D01*
X163988453Y-83825846D01*
X164050823Y-83807532D01*
X164112271Y-83789332D01*
X164172792Y-83771247D01*
X164232381Y-83753278D01*
X164291030Y-83735426D01*
X164348735Y-83717693D01*
X164405487Y-83700078D01*
X164461283Y-83682585D01*
X164516115Y-83665213D01*
X164569977Y-83647964D01*
X164622863Y-83630839D01*
X164674768Y-83613839D01*
X164725684Y-83596965D01*
X164885702Y-83543255D01*
X165035179Y-83492227D01*
X165174773Y-83443493D01*
X165305143Y-83396666D01*
X165426946Y-83351357D01*
X165540842Y-83307179D01*
X165647488Y-83263744D01*
X165747542Y-83220663D01*
X165841664Y-83177549D01*
X165930510Y-83134014D01*
X166014740Y-83089669D01*
X166095011Y-83044128D01*
X166171983Y-82997002D01*
X166246312Y-82947902D01*
X166318658Y-82896442D01*
X166389678Y-82842233D01*
X166460032Y-82784888D01*
X166530377Y-82724018D01*
X166601371Y-82659235D01*
X166673673Y-82590151D01*
X166747941Y-82516380D01*
X166824833Y-82437532D01*
X166905008Y-82353219D01*
X166989123Y-82263054D01*
X167034520Y-82175038D01*
X167079215Y-82089958D01*
X167123211Y-82007771D01*
X167166511Y-81928432D01*
X167209119Y-81851898D01*
X167251037Y-81778123D01*
X167292268Y-81707065D01*
X167332816Y-81638678D01*
X167372683Y-81572919D01*
X167411872Y-81509744D01*
X167450387Y-81449109D01*
X167488231Y-81390968D01*
X167525405Y-81335279D01*
X167561915Y-81281997D01*
X167597761Y-81231078D01*
X167632949Y-81182477D01*
X167667479Y-81136152D01*
X167701357Y-81092057D01*
X167734583Y-81050148D01*
X167767163Y-81010381D01*
X167799098Y-80972713D01*
X167830391Y-80937099D01*
X167861047Y-80903494D01*
X167891066Y-80871856D01*
X167920454Y-80842138D01*
X167949212Y-80814299D01*
X167977344Y-80788293D01*
X168004852Y-80764075D01*
X168031740Y-80741604D01*
X168058011Y-80720832D01*
X168083668Y-80701718D01*
X168108713Y-80684217D01*
X168133150Y-80668284D01*
X168156982Y-80653875D01*
X168180212Y-80640947D01*
X168202843Y-80629455D01*
X168224877Y-80619355D01*
X168246318Y-80610602D01*
X168267169Y-80603154D01*
X168287433Y-80596965D01*
X168307113Y-80591992D01*
X168326212Y-80588190D01*
X168344733Y-80585515D01*
X168362679Y-80583923D01*
X168380052Y-80583370D01*
X168396857Y-80583813D01*
X168413096Y-80585205D01*
X168428771Y-80587505D01*
X168443887Y-80590666D01*
X168458446Y-80594646D01*
X168472451Y-80599401D01*
X168485905Y-80604885D01*
X168498811Y-80611055D01*
X168511172Y-80617867D01*
X168522991Y-80625276D01*
X168534272Y-80633239D01*
X168545016Y-80641711D01*
X168555228Y-80650649D01*
X168564910Y-80660008D01*
X168574065Y-80669743D01*
X168582697Y-80679812D01*
X168590807Y-80690169D01*
X168598400Y-80700771D01*
X168605479Y-80711573D01*
X168612045Y-80722531D01*
X168618103Y-80733602D01*
X168623655Y-80744741D01*
X168628705Y-80755903D01*
X168633254Y-80767045D01*
X168637308Y-80778123D01*
X168640867Y-80789093D01*
X168643936Y-80799910D01*
X168646518Y-80810530D01*
X168648615Y-80820909D01*
X168650230Y-80831003D01*
X168651367Y-80840768D01*
X168652028Y-80850160D01*
X168652217Y-80859134D01*
X168651936Y-80867647D01*
X168651189Y-80875654D01*
X168649979Y-80883111D01*
X168648308Y-80889974D01*
X168646179Y-80896199D01*
X168643596Y-80901742D01*
X168640562Y-80906559D01*
X168637080Y-80910605D01*
X168633152Y-80913836D01*
X168628782Y-80916209D01*
X168623972Y-80917678D01*
X168618726Y-80918201D01*
X168613047Y-80917733D01*
X168606938Y-80916229D01*
X168600401Y-80913646D01*
X168593440Y-80909939D01*
X168586058Y-80905065D01*
X168578258Y-80898979D01*
X168570043Y-80891637D01*
X168561415Y-80882995D01*
X168552378Y-80873008D01*
X168542935Y-80861633D01*
X168533089Y-80848826D01*
X168522843Y-80834542D01*
X168512200Y-80818738D01*
X168501163Y-80801368D01*
X168489734Y-80782390D01*
X168477918Y-80761758D01*
X168465717Y-80739429D01*
X168453133Y-80715359D01*
X168440171Y-80689503D01*
X168426833Y-80661817D01*
X168413121Y-80632258D01*
X168399040Y-80600781D01*
X168384592Y-80567341D01*
X168369780Y-80531896D01*
X168354607Y-80494400D01*
X168339076Y-80454809D01*
X168323190Y-80413080D01*
X168306953Y-80369169D01*
X168290366Y-80323030D01*
X168273434Y-80274620D01*
X168256159Y-80223896D01*
X168238545Y-80170812D01*
X168220593Y-80115324D01*
X168202308Y-80057389D01*
X168183692Y-79996963D01*
X168164748Y-79934000D01*
X168145480Y-79868458D01*
X168125890Y-79800291D01*
X168105981Y-79729457D01*
X168085757Y-79655910D01*
X168065220Y-79579606D01*
X168044373Y-79500502D01*
X168023220Y-79418553D01*
X168001763Y-79333716D01*
X167980006Y-79245945D01*
X167957951Y-79155197D01*
X167935602Y-79061428D01*
X167912961Y-78964594D01*
X167890031Y-78864650D01*
X167866817Y-78761552D01*
X167843319Y-78655257D01*
X167819542Y-78545719D01*
X167795640Y-78463973D01*
X167770734Y-78382256D01*
X167744829Y-78300572D01*
X167717931Y-78218924D01*
X167690043Y-78137317D01*
X167661170Y-78055754D01*
X167631316Y-77974240D01*
X167600486Y-77892777D01*
X167568684Y-77811369D01*
X167535915Y-77730021D01*
X167502182Y-77648735D01*
X167467492Y-77567516D01*
X167431847Y-77486368D01*
X167395252Y-77405294D01*
X167357712Y-77324297D01*
X167319231Y-77243382D01*
X167279814Y-77162553D01*
X167239466Y-77081813D01*
X167198189Y-77001165D01*
X167155990Y-76920614D01*
X167112872Y-76840164D01*
X167068840Y-76759817D01*
X167023898Y-76679578D01*
X166978051Y-76599451D01*
X166931303Y-76519439D01*
X166883659Y-76439546D01*
X166835122Y-76359776D01*
X166785699Y-76280132D01*
X166735392Y-76200619D01*
X166684206Y-76121239D01*
X166632147Y-76041997D01*
X166579217Y-75962897D01*
X166525423Y-75883942D01*
X166470767Y-75805135D01*
X166415255Y-75726482D01*
X166358891Y-75647985D01*
X166301680Y-75569647D01*
X166243625Y-75491474D01*
X166184732Y-75413469D01*
X166125004Y-75335634D01*
X166064447Y-75257975D01*
X166003064Y-75180495D01*
X165940860Y-75103197D01*
X165877840Y-75026085D01*
X165814008Y-74949164D01*
X165749368Y-74872436D01*
X165683925Y-74795906D01*
X165617683Y-74719577D01*
X165550647Y-74643453D01*
X165482822Y-74567538D01*
X165414210Y-74491836D01*
X165344818Y-74416349D01*
X165274649Y-74341083D01*
X165203709Y-74266040D01*
X165132000Y-74191225D01*
X165059529Y-74116640D01*
X164986298Y-74042291D01*
X164912313Y-73968180D01*
X164837579Y-73894312D01*
X164762099Y-73820690D01*
X164685877Y-73747318D01*
X164608920Y-73674199D01*
X164531230Y-73601338D01*
X164452812Y-73528738D01*
X164373672Y-73456402D01*
X164293812Y-73384335D01*
X164213238Y-73312541D01*
X164131954Y-73241022D01*
X164049965Y-73169784D01*
X163967274Y-73098828D01*
X163883887Y-73028160D01*
X163799808Y-72957783D01*
X163715041Y-72887701D01*
X163629590Y-72817917D01*
X163543461Y-72748436D01*
X163456657Y-72679260D01*
X163369184Y-72610394D01*
X163281045Y-72541842D01*
X163192244Y-72473607D01*
X163102787Y-72405692D01*
X163012678Y-72338102D01*
X162921921Y-72270841D01*
X162830521Y-72203912D01*
X162738482Y-72137318D01*
X162645808Y-72071064D01*
X162552504Y-72005154D01*
X162458575Y-71939591D01*
X162364025Y-71874378D01*
X162268857Y-71809520D01*
X162173078Y-71745020D01*
X162076691Y-71680882D01*
X161979700Y-71617111D01*
X161882110Y-71553708D01*
X161783926Y-71490679D01*
X161685152Y-71428027D01*
X161585792Y-71365755D01*
X161485851Y-71303868D01*
X161385333Y-71242369D01*
X161284243Y-71181263D01*
X161182585Y-71120551D01*
X161080363Y-71060240D01*
X160977582Y-71000331D01*
X160874247Y-70940829D01*
X160770362Y-70881738D01*
X160665931Y-70823061D01*
X160560959Y-70764803D01*
X160455450Y-70706966D01*
X160349409Y-70649555D01*
X160242839Y-70592573D01*
X160135747Y-70536024D01*
X160028135Y-70479912D01*
X159920008Y-70424241D01*
X159811372Y-70369014D01*
X159702229Y-70314235D01*
X159592586Y-70259907D01*
X159482445Y-70206036D01*
X159371812Y-70152623D01*
X159260691Y-70099673D01*
X159149087Y-70047191D01*
X159037004Y-69995178D01*
X158924445Y-69943640D01*
X158811417Y-69892580D01*
X158697923Y-69842001D01*
X158583967Y-69791908D01*
X158469555Y-69742304D01*
X158354690Y-69693193D01*
X158239377Y-69644578D01*
X158123620Y-69596464D01*
X158007425Y-69548854D01*
X157890794Y-69501752D01*
X157773734Y-69455161D01*
X157656247Y-69409086D01*
X157538339Y-69363529D01*
X157420015Y-69318496D01*
X157301277Y-69273989D01*
X157182132Y-69230012D01*
X157062583Y-69186570D01*
X156942635Y-69143665D01*
X156822292Y-69101301D01*
X156701558Y-69059483D01*
X156580439Y-69018214D01*
X156458939Y-68977498D01*
X156340873Y-68938379D01*
X156225922Y-68900546D01*
X156113921Y-68863974D01*
X156004710Y-68828637D01*
X155898125Y-68794511D01*
X155794005Y-68761571D01*
X155692187Y-68729792D01*
X155592509Y-68699149D01*
X155494810Y-68669617D01*
X155398926Y-68641172D01*
X155304696Y-68613788D01*
X155211957Y-68587441D01*
X155120548Y-68562106D01*
X155030305Y-68537757D01*
X154941067Y-68514370D01*
X154852672Y-68491920D01*
X154764958Y-68470383D01*
X154677761Y-68449732D01*
X154590921Y-68429944D01*
X154504274Y-68410994D01*
X154417659Y-68392856D01*
X154330914Y-68375505D01*
X154243875Y-68358918D01*
X154156382Y-68343068D01*
X154068272Y-68327931D01*
X153979382Y-68313483D01*
X153889550Y-68299698D01*
X153798615Y-68286551D01*
X153706414Y-68274017D01*
X153612785Y-68262072D01*
X153517566Y-68250691D01*
X153420594Y-68239848D01*
X153321707Y-68229520D01*
X153220743Y-68219680D01*
X153117540Y-68210304D01*
X153011936Y-68201368D01*
X152903768Y-68192846D01*
X152792875Y-68184713D01*
X152679094Y-68176945D01*
X152562262Y-68169517D01*
X152442218Y-68162403D01*
X152318800Y-68155579D01*
X152191845Y-68149020D01*
X152061191Y-68142702D01*
X151926676Y-68136598D01*
X151788138Y-68130685D01*
X151645414Y-68124937D01*
X151498342Y-68119330D01*
X151346761Y-68113838D01*
X151190507Y-68108437D01*
X151029420Y-68103102D01*
X150863335Y-68097808D01*
X150692092Y-68092530D01*
X150578215Y-68089194D01*
X150462723Y-68086047D01*
X150345683Y-68083089D01*
X150227164Y-68080319D01*
X150107234Y-68077733D01*
X149985961Y-68075332D01*
X149863413Y-68073113D01*
X149739657Y-68071075D01*
X149614762Y-68069217D01*
X149488796Y-68067538D01*
X149361827Y-68066034D01*
X149233922Y-68064706D01*
X149105150Y-68063552D01*
X148975580Y-68062570D01*
X148845277Y-68061758D01*
X148714312Y-68061116D01*
X148582751Y-68060642D01*
X148450663Y-68060334D01*
X148318116Y-68060191D01*
X148185178Y-68060211D01*
X148051917Y-68060393D01*
X147918400Y-68060736D01*
X147784696Y-68061237D01*
X147650872Y-68061896D01*
X147516998Y-68062711D01*
X147383140Y-68063681D01*
X147249367Y-68064803D01*
X147115747Y-68066077D01*
X146982348Y-68067501D01*
X146849237Y-68069074D01*
X146716483Y-68070794D01*
X146584154Y-68072660D01*
X146452317Y-68074670D01*
X146321042Y-68076822D01*
X146190395Y-68079116D01*
X146060444Y-68081549D01*
X145931259Y-68084121D01*
X145802906Y-68086830D01*
X145675454Y-68089674D01*
X145548971Y-68092651D01*
X145423524Y-68095762D01*
X145299183Y-68099003D01*
X145176014Y-68102373D01*
X145054085Y-68105872D01*
X144933466Y-68109497D01*
X144814223Y-68113246D01*
X144696425Y-68117120D01*
X144580139Y-68121115D01*
X144465435Y-68125231D01*
X144352379Y-68129467D01*
X144241039Y-68133819D01*
X144131485Y-68138288D01*
X144023783Y-68142872D01*
X143918002Y-68147569D01*
X143814210Y-68152377D01*
X143712474Y-68157296D01*
X143612863Y-68162324D01*
X143515445Y-68167458D01*
X143420287Y-68172699D01*
X143327458Y-68178044D01*
X143237026Y-68183492D01*
X143149059Y-68189041D01*
X143063624Y-68194690D01*
X142980790Y-68200438D01*
X142900625Y-68206282D01*
X142823196Y-68212222D01*
X142748572Y-68218256D01*
X142676821Y-68224383D01*
X142608011Y-68230600D01*
X142542209Y-68236907D01*
X142479484Y-68243302D01*
X142419903Y-68249784D01*
X142363536Y-68256351D01*
X142310448Y-68263002D01*
X142260710Y-68269735D01*
X142214388Y-68276549D01*
X142118114Y-68291641D01*
X142021207Y-68307418D01*
X141923683Y-68323875D01*
X141825559Y-68341006D01*
X141726848Y-68358805D01*
X141627568Y-68377267D01*
X141527733Y-68396385D01*
X141427359Y-68416154D01*
X141326462Y-68436568D01*
X141225058Y-68457622D01*
X141123160Y-68479309D01*
X141020787Y-68501625D01*
X140917952Y-68524562D01*
X140814672Y-68548117D01*
X140710962Y-68572282D01*
X140606837Y-68597052D01*
X140502314Y-68622421D01*
X140397407Y-68648384D01*
X140292133Y-68674935D01*
X140186507Y-68702068D01*
X140080544Y-68729777D01*
X139974260Y-68758057D01*
X139867671Y-68786902D01*
X139760792Y-68816306D01*
X139653639Y-68846264D01*
X139546227Y-68876770D01*
X139438572Y-68907817D01*
X139330689Y-68939401D01*
X139222594Y-68971515D01*
X139114303Y-69004154D01*
X139005831Y-69037312D01*
X138897194Y-69070983D01*
X138788407Y-69105162D01*
X138679486Y-69139843D01*
X138570446Y-69175020D01*
X138461303Y-69210688D01*
X138352073Y-69246840D01*
X138242771Y-69283471D01*
X138133413Y-69320575D01*
X138024013Y-69358147D01*
X137914589Y-69396181D01*
X137805155Y-69434670D01*
X137695727Y-69473610D01*
X137586320Y-69512995D01*
X137476951Y-69552818D01*
X137367634Y-69593074D01*
X137258385Y-69633758D01*
X137149220Y-69674863D01*
X137040155Y-69716384D01*
X136931204Y-69758316D01*
X136822384Y-69800651D01*
X136713710Y-69843386D01*
X136605198Y-69886513D01*
X136496862Y-69930028D01*
X136388720Y-69973924D01*
X136280785Y-70018196D01*
X136173075Y-70062838D01*
X136065604Y-70107844D01*
X135958388Y-70153209D01*
X135851443Y-70198926D01*
X135744784Y-70244991D01*
X135638426Y-70291397D01*
X135532386Y-70338139D01*
X135426679Y-70385210D01*
X135321320Y-70432606D01*
X135216325Y-70480320D01*
X135111709Y-70528347D01*
X135007489Y-70576681D01*
X134903679Y-70625316D01*
X134800296Y-70674247D01*
X134697354Y-70723467D01*
X134594870Y-70772972D01*
X134492859Y-70822754D01*
X134391336Y-70872810D01*
X134290317Y-70923132D01*
X134189818Y-70973715D01*
X134089855Y-71024554D01*
X133990442Y-71075642D01*
X133891595Y-71126974D01*
X133793330Y-71178544D01*
X133695663Y-71230347D01*
X133598609Y-71282377D01*
X133502183Y-71334627D01*
X133406402Y-71387093D01*
X133311280Y-71439768D01*
X133216834Y-71492647D01*
X133123078Y-71545724D01*
X133030029Y-71598994D01*
X132937702Y-71652450D01*
X132846113Y-71706087D01*
X132755276Y-71759899D01*
X132653920Y-71820698D01*
X132552829Y-71882149D01*
X132452014Y-71944242D01*
X132351482Y-72006968D01*
X132251241Y-72070319D01*
X132151300Y-72134286D01*
X132051668Y-72198859D01*
X131952353Y-72264032D01*
X131853363Y-72329793D01*
X131754707Y-72396136D01*
X131656393Y-72463050D01*
X131558430Y-72530528D01*
X131460826Y-72598560D01*
X131363589Y-72667138D01*
X131266729Y-72736253D01*
X131170253Y-72805896D01*
X131074169Y-72876059D01*
X130978488Y-72946732D01*
X130883216Y-73017907D01*
X130788362Y-73089575D01*
X130693934Y-73161727D01*
X130599942Y-73234355D01*
X130506393Y-73307450D01*
X130413296Y-73381003D01*
X130320660Y-73455005D01*
X130228492Y-73529447D01*
X130136802Y-73604322D01*
X130045597Y-73679619D01*
X129954887Y-73755331D01*
X129864679Y-73831447D01*
X129774982Y-73907961D01*
X129685804Y-73984862D01*
X129597154Y-74062143D01*
X129509041Y-74139794D01*
X129421472Y-74217806D01*
X129334457Y-74296172D01*
X129248003Y-74374881D01*
X129162119Y-74453926D01*
X129076814Y-74533297D01*
X128992095Y-74612986D01*
X128907972Y-74692984D01*
X128824453Y-74773282D01*
X128741546Y-74853872D01*
X128659260Y-74934744D01*
X128577602Y-75015890D01*
X128496583Y-75097301D01*
X128416209Y-75178969D01*
X128336490Y-75260884D01*
X128257434Y-75343038D01*
X128179049Y-75425422D01*
X128101343Y-75508028D01*
X128024326Y-75590846D01*
X127948006Y-75673868D01*
X127872390Y-75757084D01*
X127797488Y-75840487D01*
X127723308Y-75924068D01*
X127649859Y-76007817D01*
X127577148Y-76091726D01*
X127505184Y-76175786D01*
X127433976Y-76259989D01*
X127363533Y-76344325D01*
X127293861Y-76428786D01*
X127224971Y-76513363D01*
X127156870Y-76598048D01*
X127089567Y-76682831D01*
X127023071Y-76767703D01*
X126957389Y-76852657D01*
X126892530Y-76937683D01*
X126828503Y-77022773D01*
X126765316Y-77107917D01*
X126702977Y-77193107D01*
X126641495Y-77278334D01*
X126580879Y-77363590D01*
X126521137Y-77448865D01*
X126462276Y-77534152D01*
X126404307Y-77619440D01*
X126347236Y-77704722D01*
X126291074Y-77789988D01*
X126235827Y-77875230D01*
X126181504Y-77960439D01*
X126128115Y-78045606D01*
X126075666Y-78130723D01*
X126024168Y-78215780D01*
X125973627Y-78300770D01*
X125924054Y-78385683D01*
X125875455Y-78470510D01*
X125827840Y-78555242D01*
X125781216Y-78639872D01*
X125735593Y-78724390D01*
X125690979Y-78808787D01*
X125647382Y-78893054D01*
X125604811Y-78977184D01*
X125563274Y-79061166D01*
X125522779Y-79144993D01*
X125483336Y-79228656D01*
X125444952Y-79312145D01*
X125407635Y-79395452D01*
X125356468Y-79512500D01*
X125307322Y-79627590D01*
X125260166Y-79740855D01*
X125214972Y-79852430D01*
X125171710Y-79962446D01*
X125130351Y-80071037D01*
X125090865Y-80178337D01*
X125053224Y-80284479D01*
X125017399Y-80389596D01*
X124983359Y-80493822D01*
X124951075Y-80597289D01*
X124920519Y-80700131D01*
X124891660Y-80802482D01*
X124864470Y-80904474D01*
X124838920Y-81006241D01*
X124814979Y-81107916D01*
X124792619Y-81209632D01*
X124771810Y-81311523D01*
X124752524Y-81413723D01*
X124734730Y-81516363D01*
X124718400Y-81619578D01*
X124703504Y-81723501D01*
X124690013Y-81828265D01*
X124677897Y-81934003D01*
X124667128Y-82040849D01*
X124657676Y-82148936D01*
X124649511Y-82258398D01*
X124642605Y-82369367D01*
X124636928Y-82481976D01*
X124632451Y-82596360D01*
X124629144Y-82712652D01*
X124626979Y-82830984D01*
X124625925Y-82951490D01*
X124625913Y-83091503D01*
X124627116Y-83226487D01*
X124629605Y-83356737D01*
X124633452Y-83482547D01*
X124638729Y-83604211D01*
X124645507Y-83722022D01*
X124653858Y-83836275D01*
X124663855Y-83947264D01*
X124675568Y-84055283D01*
X124689070Y-84160625D01*
X124704432Y-84263585D01*
X124721726Y-84364457D01*
X124741024Y-84463535D01*
X124762397Y-84561112D01*
X124785918Y-84657484D01*
X124811658Y-84752943D01*
X124839689Y-84847784D01*
X124870082Y-84942301D01*
X124902909Y-85036788D01*
X124938243Y-85131539D01*
X124976155Y-85226848D01*
X125016716Y-85323009D01*
X125059998Y-85420316D01*
X125106074Y-85519063D01*
X125155015Y-85619544D01*
X125206892Y-85722053D01*
X125261777Y-85826884D01*
X125319743Y-85934332D01*
X125380861Y-86044689D01*
X125420787Y-86112928D01*
X125465777Y-86184339D01*
X125515567Y-86258664D01*
X125569893Y-86335644D01*
X125628491Y-86415023D01*
X125691098Y-86496543D01*
X125757449Y-86579945D01*
X125827280Y-86664974D01*
X125900329Y-86751370D01*
X125976330Y-86838876D01*
X126055020Y-86927235D01*
X126136136Y-87016189D01*
X126219413Y-87105480D01*
X126304587Y-87194851D01*
X126391395Y-87284044D01*
X126479573Y-87372801D01*
X126568856Y-87460865D01*
X126658982Y-87547979D01*
X126749685Y-87633883D01*
X126840704Y-87718322D01*
X126931772Y-87801037D01*
X127022627Y-87881770D01*
X127113005Y-87960264D01*
X127202641Y-88036262D01*
X127291273Y-88109505D01*
X127378636Y-88179737D01*
X127464466Y-88246699D01*
X127548499Y-88310133D01*
X127630473Y-88369783D01*
X127710121Y-88425390D01*
X127787182Y-88476697D01*
X127861391Y-88523446D01*
X127932483Y-88565380D01*
X128000196Y-88602241D01*
X128079220Y-88641916D01*
X128162796Y-88681287D01*
X128250601Y-88720262D01*
X128342309Y-88758751D01*
X128437597Y-88796662D01*
X128536140Y-88833904D01*
X128637613Y-88870385D01*
X128741692Y-88906014D01*
X128848052Y-88940699D01*
X128956369Y-88974351D01*
X129066318Y-89006876D01*
X129177576Y-89038184D01*
X129289817Y-89068184D01*
X129402716Y-89096784D01*
X129515951Y-89123893D01*
X129629195Y-89149420D01*
X129742125Y-89173272D01*
X129854416Y-89195360D01*
X129965744Y-89215592D01*
X130075784Y-89233876D01*
X130184211Y-89250120D01*
X130290701Y-89264235D01*
X130394931Y-89276128D01*
X130446368Y-89280946D01*
X130502626Y-89285179D01*
X130563563Y-89288834D01*
X130629035Y-89291918D01*
X130698899Y-89294439D01*
X130773013Y-89296403D01*
X130851233Y-89297817D01*
X130933416Y-89298689D01*
X131019419Y-89299027D01*
X131109099Y-89298836D01*
X131202314Y-89298124D01*
X131298920Y-89296899D01*
X131398774Y-89295168D01*
X131501733Y-89292937D01*
X131607655Y-89290214D01*
X131716395Y-89287006D01*
X131827812Y-89283321D01*
X131941762Y-89279164D01*
X132058102Y-89274544D01*
X132176688Y-89269468D01*
X132297379Y-89263943D01*
X132420031Y-89257976D01*
X132544501Y-89251574D01*
X132670646Y-89244744D01*
X132798323Y-89237493D01*
X132927389Y-89229830D01*
X133057701Y-89221760D01*
X133189116Y-89213290D01*
X133321491Y-89204430D01*
X133454682Y-89195184D01*
X133588548Y-89185561D01*
X133722944Y-89175567D01*
X133857729Y-89165210D01*
X133992758Y-89154497D01*
X134127889Y-89143435D01*
X134262979Y-89132031D01*
X134397885Y-89120292D01*
X134532463Y-89108226D01*
X134666571Y-89095840D01*
X134800066Y-89083141D01*
X134932805Y-89070135D01*
X135064644Y-89056831D01*
X135195442Y-89043235D01*
X135325054Y-89029355D01*
X147307514Y-96666017D01*
X147194729Y-96640739D01*
X147081625Y-96615694D01*
X146968209Y-96590883D01*
X146854487Y-96566307D01*
X146740467Y-96541966D01*
X146626157Y-96517862D01*
X146511562Y-96493996D01*
X146396691Y-96470369D01*
X146281551Y-96446981D01*
X146166148Y-96423835D01*
X146050490Y-96400930D01*
X145934583Y-96378268D01*
X145818436Y-96355850D01*
X145702055Y-96333677D01*
X145585447Y-96311750D01*
X145468619Y-96290070D01*
X145351579Y-96268637D01*
X145234334Y-96247454D01*
X145116890Y-96226520D01*
X144999255Y-96205838D01*
X144881436Y-96185408D01*
X144763441Y-96165230D01*
X144645275Y-96145307D01*
X144526947Y-96125639D01*
X144408464Y-96106227D01*
X144289832Y-96087072D01*
X144171058Y-96068175D01*
X144052151Y-96049537D01*
X143933117Y-96031159D01*
X143813962Y-96013043D01*
X143694695Y-95995188D01*
X143575323Y-95977597D01*
X143455852Y-95960270D01*
X143336289Y-95943209D01*
X143216643Y-95926413D01*
X143096919Y-95909885D01*
X142977125Y-95893625D01*
X142857268Y-95877635D01*
X142737356Y-95861914D01*
X142617395Y-95846465D01*
X142497392Y-95831289D01*
X142377356Y-95816385D01*
X142257291Y-95801756D01*
X142137207Y-95787403D01*
X142017110Y-95773326D01*
X141897007Y-95759526D01*
X141776905Y-95746005D01*
X141656812Y-95732763D01*
X141536734Y-95719802D01*
X141416679Y-95707122D01*
X141296653Y-95694725D01*
X141176665Y-95682611D01*
X141056720Y-95670781D01*
X140936827Y-95659238D01*
X140816992Y-95647981D01*
X140697222Y-95637011D01*
X140577525Y-95626330D01*
X140457907Y-95615939D01*
X140338377Y-95605838D01*
X140218940Y-95596029D01*
X140099604Y-95586513D01*
X139980376Y-95577290D01*
X139861264Y-95568362D01*
X139742274Y-95559730D01*
X139623413Y-95551394D01*
X139504690Y-95543356D01*
X139386110Y-95535617D01*
X139267681Y-95528178D01*
X139149410Y-95521039D01*
X139031304Y-95514203D01*
X138913370Y-95507669D01*
X138795616Y-95501439D01*
X138678048Y-95495514D01*
X138560674Y-95489895D01*
X138443501Y-95484582D01*
X138326536Y-95479578D01*
X138209785Y-95474882D01*
X138093257Y-95470497D01*
X137976959Y-95466422D01*
X137860896Y-95462660D01*
X137745077Y-95459210D01*
X137629509Y-95456074D01*
X137514199Y-95453254D01*
X137399154Y-95450749D01*
X137284380Y-95448562D01*
X137169886Y-95446693D01*
X137055678Y-95445142D01*
X136941764Y-95443912D01*
X136828150Y-95443003D01*
X136714843Y-95442416D01*
X136601852Y-95442152D01*
X136489182Y-95442213D01*
X136376842Y-95442598D01*
X136264838Y-95443310D01*
X136153177Y-95444349D01*
X136041866Y-95445716D01*
X135930913Y-95447413D01*
X135820325Y-95449440D01*
X135710109Y-95451798D01*
X135600271Y-95454488D01*
X135490819Y-95457512D01*
X135381761Y-95460870D01*
X135273103Y-95464563D01*
X135164853Y-95468593D01*
X135057017Y-95472960D01*
X134949602Y-95477666D01*
X134842617Y-95482711D01*
X134736067Y-95488096D01*
X134629961Y-95493823D01*
X134524305Y-95499892D01*
X134419106Y-95506305D01*
X134314371Y-95513063D01*
X134210108Y-95520165D01*
X134106324Y-95527615D01*
X134003026Y-95535412D01*
X133900220Y-95543557D01*
X133797915Y-95552052D01*
X133696117Y-95560898D01*
X133594833Y-95570095D01*
X133494070Y-95579645D01*
X133393837Y-95589549D01*
X133294139Y-95599807D01*
X133194983Y-95610421D01*
X133096378Y-95621391D01*
X132998330Y-95632720D01*
X132900846Y-95644407D01*
X132803933Y-95656453D01*
X132707599Y-95668861D01*
X132611850Y-95681630D01*
X132516694Y-95694762D01*
X132422138Y-95708258D01*
X132328189Y-95722119D01*
X132234854Y-95736346D01*
X132142140Y-95750939D01*
X132050054Y-95765901D01*
X131958604Y-95781231D01*
X131867797Y-95796931D01*
X131777639Y-95813002D01*
X131688138Y-95829445D01*
X131599301Y-95846261D01*
X131511135Y-95863451D01*
X131423648Y-95881016D01*
X131336846Y-95898957D01*
X131250736Y-95917275D01*
X131165326Y-95935971D01*
X131080622Y-95955046D01*
X130996632Y-95974501D01*
X130913364Y-95994337D01*
X130830823Y-96014555D01*
X130749018Y-96035157D01*
X130597734Y-96073656D01*
X130449923Y-96110749D01*
X130305472Y-96146447D01*
X130164271Y-96180766D01*
X130026209Y-96213718D01*
X129891173Y-96245317D01*
X129759054Y-96275575D01*
X129629739Y-96304508D01*
X129503118Y-96332127D01*
X129379078Y-96358446D01*
X129257509Y-96383479D01*
X129138300Y-96407240D01*
X129021339Y-96429741D01*
X128906515Y-96450995D01*
X128793716Y-96471018D01*
X128682832Y-96489821D01*
X128573751Y-96507418D01*
X128466362Y-96523823D01*
X128360553Y-96539049D01*
X128256214Y-96553110D01*
X128153233Y-96566018D01*
X128051498Y-96577788D01*
X127950899Y-96588432D01*
X127851324Y-96597965D01*
X127752662Y-96606399D01*
X127654801Y-96613748D01*
X127557631Y-96620026D01*
X127461040Y-96625245D01*
X127364917Y-96629419D01*
X127269151Y-96632562D01*
X127173629Y-96634687D01*
X127078242Y-96635808D01*
X126982877Y-96635937D01*
X126887424Y-96635089D01*
X126791771Y-96633276D01*
X126695806Y-96630513D01*
X126599420Y-96626811D01*
X126502499Y-96622186D01*
X126404934Y-96616651D01*
X126306612Y-96610217D01*
X126207423Y-96602901D01*
X126107256Y-96594713D01*
X125962231Y-96581060D01*
X125823536Y-96565411D01*
X125690915Y-96547659D01*
X125564111Y-96527701D01*
X125442870Y-96505431D01*
X125326935Y-96480744D01*
X125216050Y-96453534D01*
X125109961Y-96423697D01*
X125008410Y-96391126D01*
X124911143Y-96355718D01*
X124817904Y-96317367D01*
X124728436Y-96275967D01*
X124642485Y-96231414D01*
X124559794Y-96183601D01*
X124480107Y-96132425D01*
X124403170Y-96077780D01*
X124328726Y-96019560D01*
X124256519Y-95957661D01*
X124186293Y-95891977D01*
X124117794Y-95822403D01*
X124050765Y-95748834D01*
X123974968Y-95659621D01*
X123904427Y-95570601D01*
X123839144Y-95481743D01*
X123779118Y-95393015D01*
X123724351Y-95304386D01*
X123674844Y-95215825D01*
X123630599Y-95127300D01*
X123591616Y-95038781D01*
X123557897Y-94950234D01*
X123529442Y-94861630D01*
X123506254Y-94772937D01*
X123488331Y-94684124D01*
X123475677Y-94595158D01*
X123468292Y-94506009D01*
X123466177Y-94416645D01*
X123469334Y-94327035D01*
X123477762Y-94237148D01*
X123491465Y-94146951D01*
X123510441Y-94056415D01*
X123534694Y-93965507D01*
X123564223Y-93874196D01*
X123599030Y-93782450D01*
X123639116Y-93690239D01*
X123684483Y-93597531D01*
X123735130Y-93504294D01*
X123791060Y-93410497D01*
X123852273Y-93316109D01*
X123918771Y-93221098D01*
X123990554Y-93125434D01*
X124067625Y-93029084D01*
X124149983Y-92932017D01*
X124216368Y-92849139D01*
X124277531Y-92759189D01*
X124333204Y-92663236D01*
X124383115Y-92562352D01*
X124426997Y-92457604D01*
X124464580Y-92350063D01*
X124495594Y-92240798D01*
X124519770Y-92130879D01*
X124536838Y-92021376D01*
X124546531Y-91913358D01*
X124548577Y-91807895D01*
X124542708Y-91706056D01*
X124528654Y-91608912D01*
X124506147Y-91517532D01*
X124475950Y-91432157D01*
X124437457Y-91346328D01*
X124391199Y-91260439D01*
X124337705Y-91174885D01*
X124277503Y-91090058D01*
X124211124Y-91006353D01*
X124139096Y-90924164D01*
X124061949Y-90843884D01*
X123980212Y-90765908D01*
X123894415Y-90690629D01*
X123805087Y-90618442D01*
X123712757Y-90549739D01*
X123617954Y-90484915D01*
X123521209Y-90424364D01*
X123423049Y-90368480D01*
X123324005Y-90317656D01*
X123224606Y-90272287D01*
X123125381Y-90232765D01*
X123026860Y-90199486D01*
X122929571Y-90172843D01*
X122834044Y-90153230D01*
X122740809Y-90141041D01*
X122650395Y-90136669D01*
X122599023Y-90131926D01*
X122532376Y-90118488D01*
X122452469Y-90097092D01*
X122361316Y-90068473D01*
X122260932Y-90033368D01*
X122153333Y-89992514D01*
X122040531Y-89946646D01*
X121924542Y-89896502D01*
X121807381Y-89842817D01*
X121691062Y-89786328D01*
X121591621Y-89734893D01*
X121493616Y-89680824D01*
X121397111Y-89624188D01*
X121302173Y-89565051D01*
X121208867Y-89503479D01*
X121117258Y-89439537D01*
X121027411Y-89373293D01*
X120939394Y-89304813D01*
X120853270Y-89234161D01*
X120769105Y-89161406D01*
X120686965Y-89086612D01*
X120606915Y-89009845D01*
X120529021Y-88931173D01*
X120453347Y-88850661D01*
X120379961Y-88768374D01*
X120308926Y-88684381D01*
X120240310Y-88598745D01*
X120174176Y-88511534D01*
X120110590Y-88422814D01*
X120049619Y-88332650D01*
X119991327Y-88241110D01*
X119935780Y-88148258D01*
X119883043Y-88054162D01*
X119833182Y-87958887D01*
X119786263Y-87862499D01*
X119746692Y-87777071D01*
X119711226Y-87697646D01*
X119679651Y-87622634D01*
X119651749Y-87550442D01*
X119627304Y-87479481D01*
X119606101Y-87408158D01*
X119587923Y-87334882D01*
X119572554Y-87258063D01*
X119559778Y-87176110D01*
X119549378Y-87087430D01*
X119541140Y-86990432D01*
X119534846Y-86883527D01*
X119530280Y-86765121D01*
X119527227Y-86633625D01*
X119525470Y-86487447D01*
X119524792Y-86324996D01*
X119524979Y-86144680D01*
X119525814Y-85944908D01*
X119526729Y-85836335D01*
X119528351Y-85728252D01*
X119530686Y-85620632D01*
X119533740Y-85513452D01*
X119537516Y-85406686D01*
X119542022Y-85300308D01*
X119547262Y-85194294D01*
X119553242Y-85088618D01*
X119559966Y-84983255D01*
X119567442Y-84878180D01*
X119575673Y-84773367D01*
X119584665Y-84668792D01*
X119594424Y-84564429D01*
X119604955Y-84460253D01*
X119616264Y-84356239D01*
X119628355Y-84252362D01*
X119641235Y-84148596D01*
X119654909Y-84044916D01*
X119669381Y-83941297D01*
X119684658Y-83837714D01*
X119700745Y-83734142D01*
X119717647Y-83630555D01*
X119735370Y-83526928D01*
X119753919Y-83423236D01*
X119773299Y-83319454D01*
X119793516Y-83215557D01*
X119814576Y-83111519D01*
X119836483Y-83007315D01*
X119859243Y-82902920D01*
X119882861Y-82798309D01*
X119907344Y-82693456D01*
X119932695Y-82588337D01*
X119958921Y-82482926D01*
X119986028Y-82377197D01*
X120014019Y-82271127D01*
X120042902Y-82164689D01*
X120072680Y-82057859D01*
X120103361Y-81950610D01*
X120134948Y-81842919D01*
X120167448Y-81734759D01*
X120200865Y-81626106D01*
X120235206Y-81516934D01*
X120270475Y-81407218D01*
X120306678Y-81296934D01*
X120343821Y-81186054D01*
X120381908Y-81074556D01*
X120420946Y-80962413D01*
X120460939Y-80849599D01*
X120501894Y-80736091D01*
X120543814Y-80621862D01*
X120586706Y-80506888D01*
X120630576Y-80391144D01*
X120675428Y-80274603D01*
X120721268Y-80157241D01*
X120768101Y-80039033D01*
X120815934Y-79919953D01*
X120853408Y-79828100D01*
X120891521Y-79736306D01*
X120930269Y-79644573D01*
X120969651Y-79552903D01*
X121009664Y-79461298D01*
X121050306Y-79369762D01*
X121091575Y-79278297D01*
X121133469Y-79186905D01*
X121175986Y-79095588D01*
X121219123Y-79004349D01*
X121262878Y-78913190D01*
X121307249Y-78822115D01*
X121352234Y-78731124D01*
X121397831Y-78640222D01*
X121444037Y-78549409D01*
X121490851Y-78458689D01*
X121538269Y-78368064D01*
X121586291Y-78277537D01*
X121634914Y-78187109D01*
X121684135Y-78096783D01*
X121733952Y-78006563D01*
X121784364Y-77916449D01*
X121835368Y-77826445D01*
X121886961Y-77736553D01*
X121939143Y-77646776D01*
X121991909Y-77557115D01*
X122045260Y-77467574D01*
X122099191Y-77378154D01*
X122153701Y-77288859D01*
X122208788Y-77199690D01*
X122264450Y-77110651D01*
X122320684Y-77021743D01*
X122377488Y-76932968D01*
X122434861Y-76844330D01*
X122492799Y-76755831D01*
X122551301Y-76667474D01*
X122610364Y-76579259D01*
X122669987Y-76491191D01*
X122730167Y-76403272D01*
X122790902Y-76315503D01*
X122852189Y-76227888D01*
X122914027Y-76140429D01*
X122976414Y-76053128D01*
X123039347Y-75965987D01*
X123102824Y-75879010D01*
X123166843Y-75792198D01*
X123231401Y-75705554D01*
X123296497Y-75619081D01*
X123362129Y-75532781D01*
X123428293Y-75446656D01*
X123494989Y-75360708D01*
X123562213Y-75274941D01*
X123629964Y-75189356D01*
X123698239Y-75103957D01*
X123767037Y-75018745D01*
X123836354Y-74933722D01*
X123906190Y-74848892D01*
X123976541Y-74764257D01*
X124047406Y-74679819D01*
X124118782Y-74595581D01*
X124190667Y-74511545D01*
X124263059Y-74427713D01*
X124335956Y-74344088D01*
X124409355Y-74260673D01*
X124483255Y-74177469D01*
X124557653Y-74094480D01*
X124632548Y-74011707D01*
X124707936Y-73929153D01*
X124783816Y-73846821D01*
X124860185Y-73764713D01*
X124937042Y-73682831D01*
X125014383Y-73601178D01*
X125092208Y-73519756D01*
X125170514Y-73438569D01*
X125249298Y-73357617D01*
X125328559Y-73276903D01*
X125408294Y-73196431D01*
X125488500Y-73116202D01*
X125569177Y-73036219D01*
X125650322Y-72956485D01*
X125731932Y-72877001D01*
X125814005Y-72797770D01*
X125896540Y-72718795D01*
X125979533Y-72640078D01*
X126062983Y-72561621D01*
X126146888Y-72483427D01*
X126231246Y-72405499D01*
X126316053Y-72327838D01*
X126401309Y-72250448D01*
X126487010Y-72173330D01*
X126573156Y-72096487D01*
X126659742Y-72019922D01*
X126746769Y-71943637D01*
X126834232Y-71867634D01*
X126922130Y-71791916D01*
X127010461Y-71716485D01*
X127099223Y-71641344D01*
X127188413Y-71566495D01*
X127278029Y-71491940D01*
X127368069Y-71417683D01*
X127458532Y-71343725D01*
X127549414Y-71270068D01*
X127640713Y-71196716D01*
X127732428Y-71123671D01*
X127824556Y-71050935D01*
X127917095Y-70978510D01*
X128010043Y-70906399D01*
X128103397Y-70834605D01*
X128197156Y-70763130D01*
X128291317Y-70691976D01*
X128385878Y-70621146D01*
X128480837Y-70550641D01*
X128576192Y-70480466D01*
X128671940Y-70410621D01*
X128768080Y-70341111D01*
X128864609Y-70271935D01*
X128961524Y-70203099D01*
X129058825Y-70134603D01*
X129156508Y-70066450D01*
X129254572Y-69998643D01*
X129353014Y-69931184D01*
X129451832Y-69864075D01*
X129551023Y-69797320D01*
X129650587Y-69730920D01*
X129750520Y-69664877D01*
X129850820Y-69599195D01*
X129951486Y-69533876D01*
X130052515Y-69468921D01*
X130153904Y-69404335D01*
X130255652Y-69340118D01*
X130357756Y-69276273D01*
X130445043Y-69222168D01*
X130532584Y-69168343D01*
X130620380Y-69114797D01*
X130708428Y-69061532D01*
X130796727Y-69008546D01*
X130885277Y-68955841D01*
X130974076Y-68903417D01*
X131063122Y-68851273D01*
X131152414Y-68799410D01*
X131241951Y-68747828D01*
X131331732Y-68696527D01*
X131421755Y-68645508D01*
X131512018Y-68594770D01*
X131602522Y-68544314D01*
X131693264Y-68494141D01*
X131784243Y-68444249D01*
X131875457Y-68394640D01*
X131966907Y-68345313D01*
X132058589Y-68296269D01*
X132150503Y-68247507D01*
X132242647Y-68199029D01*
X132335021Y-68150834D01*
X132427623Y-68102923D01*
X132520451Y-68055295D01*
X132613505Y-68007951D01*
X132706782Y-67960891D01*
X132800282Y-67914115D01*
X132894004Y-67867623D01*
X132987946Y-67821416D01*
X133082106Y-67775494D01*
X133176484Y-67729857D01*
X133271078Y-67684504D01*
X133365887Y-67639437D01*
X133460909Y-67594656D01*
X133556144Y-67550160D01*
X133651590Y-67505950D01*
X133747245Y-67462025D01*
X133843108Y-67418387D01*
X133939179Y-67375036D01*
X134035455Y-67331970D01*
X134131936Y-67289192D01*
X134228619Y-67246700D01*
X134325505Y-67204496D01*
X134422591Y-67162579D01*
X134519876Y-67120949D01*
X134617359Y-67079607D01*
X134715039Y-67038552D01*
X134812914Y-66997786D01*
X134910983Y-66957308D01*
X135009244Y-66917118D01*
X135107697Y-66877217D01*
X135206340Y-66837604D01*
X135305171Y-66798281D01*
X135404190Y-66759246D01*
X135503396Y-66720501D01*
X135602786Y-66682045D01*
X135702359Y-66643879D01*
X135802115Y-66606002D01*
X135902051Y-66568416D01*
X136002167Y-66531120D01*
X136102462Y-66494114D01*
X136202933Y-66457399D01*
X136303580Y-66420974D01*
X136404402Y-66384840D01*
X136505396Y-66348998D01*
X136606563Y-66313446D01*
X136707899Y-66278186D01*
X136809405Y-66243218D01*
X136911079Y-66208542D01*
X137012919Y-66174157D01*
X137114925Y-66140065D01*
X137217094Y-66106265D01*
X137319426Y-66072758D01*
X137421919Y-66039543D01*
X137524573Y-66006622D01*
X137627385Y-65973993D01*
X137730354Y-65941658D01*
X137833480Y-65909616D01*
X137936760Y-65877868D01*
X138040194Y-65846413D01*
X138143780Y-65815253D01*
X138247517Y-65784386D01*
X138351403Y-65753815D01*
X138455438Y-65723537D01*
X138559619Y-65693555D01*
X138663946Y-65663867D01*
X138768418Y-65634474D01*
X138873032Y-65605377D01*
X138977789Y-65576575D01*
X139082685Y-65548069D01*
X139187721Y-65519859D01*
X139292895Y-65491944D01*
X139398205Y-65464326D01*
X139503650Y-65437005D01*
X139609230Y-65409979D01*
X139714942Y-65383251D01*
X139820785Y-65356819D01*
X139926758Y-65330685D01*
X140032859Y-65304848D01*
X140139089Y-65279308D01*
X140245444Y-65254066D01*
X140351924Y-65229121D01*
X140458527Y-65204475D01*
X140565252Y-65180127D01*
X140672099Y-65156077D01*
X140779065Y-65132326D01*
X140886149Y-65108874D01*
X140993350Y-65085720D01*
X141100666Y-65062866D01*
X141208097Y-65040311D01*
X141315641Y-65018055D01*
X141423297Y-64996100D01*
X141531063Y-64974443D01*
X141638938Y-64953087D01*
X141746921Y-64932031D01*
X141855010Y-64911276D01*
X141963205Y-64890821D01*
X142071503Y-64870667D01*
X142179904Y-64850813D01*
X142288406Y-64831261D01*
X142397008Y-64812010D01*
X142505709Y-64793061D01*
X142614507Y-64774413D01*
X142723401Y-64756067D01*
X142832390Y-64738023D01*
X142941472Y-64720282D01*
X143050646Y-64702842D01*
X143159911Y-64685706D01*
X143269266Y-64668872D01*
X143378709Y-64652340D01*
X143488238Y-64636113D01*
X143597854Y-64620188D01*
X143707553Y-64604567D01*
X143817336Y-64589249D01*
X143927200Y-64574235D01*
X144037144Y-64559526D01*
X144147168Y-64545120D01*
X144257269Y-64531019D01*
X144367447Y-64517223D01*
X144477700Y-64503731D01*
X144588027Y-64490544D01*
X144698426Y-64477662D01*
X144808896Y-64465086D01*
X144919437Y-64452815D01*
X145030046Y-64440850D01*
X145140722Y-64429190D01*
X145251464Y-64417837D01*
X145362271Y-64406790D01*
X145473142Y-64396049D01*
X145584074Y-64385615D01*
X145695067Y-64375487D01*
X145806120Y-64365667D01*
X145917231Y-64356154D01*
X146028398Y-64346947D01*
X146139622Y-64338049D01*
X146250899Y-64329458D01*
X146362229Y-64321175D01*
X146473611Y-64313200D01*
X146585044Y-64305533D01*
X146696525Y-64298174D01*
X146808054Y-64291125D01*
X146919630Y-64284383D01*
X147031250Y-64277951D01*
X147142915Y-64271828D01*
X147254621Y-64266014D01*
X147366370Y-64260510D01*
X147478157Y-64255316D01*
X147589984Y-64250431D01*
X147701848Y-64245856D01*
X147813747Y-64241592D01*
X147925682Y-64237638D01*
X148037650Y-64233994D01*
X148149649Y-64230661D01*
X148261680Y-64227640D01*
X148373740Y-64224929D01*
X148485828Y-64222530D01*
X148597943Y-64220442D01*
X148710083Y-64218666D01*
X148822248Y-64217201D01*
X148934435Y-64216049D01*
X149046644Y-64215209D01*
X149158874Y-64214681D01*
X149271122Y-64214466D01*
X149383388Y-64214564D01*
X149495671Y-64214975D01*
X149607968Y-64215698D01*
X149720280Y-64216736D01*
X149832603Y-64218086D01*
X149944938Y-64219750D01*
X150057283Y-64221729D01*
X150169636Y-64224021D01*
X150281997Y-64226627D01*
X150394363Y-64229548D01*
X150506734Y-64232783D01*
X150619109Y-64236334D01*
X150731485Y-64240199D01*
X150843862Y-64244379D01*
X150956239Y-64248875D01*
X151068614Y-64253686D01*
X151180985Y-64258812D01*
X151293352Y-64264255D01*
X151405713Y-64270014D01*
X151518067Y-64276089D01*
X151630412Y-64282480D01*
X151742748Y-64289188D01*
X151855073Y-64296213D01*
X151967385Y-64303554D01*
X152079684Y-64311213D01*
X152191968Y-64319189D01*
X152304235Y-64327483D01*
X152416485Y-64336094D01*
X152528716Y-64345023D01*
X152640927Y-64354271D01*
X152753116Y-64363836D01*
X152865283Y-64373720D01*
X152977425Y-64383922D01*
X153089542Y-64394444D01*
X153201633Y-64405284D01*
X153313695Y-64416443D01*
X153425728Y-64427922D01*
X153537730Y-64439720D01*
X153649701Y-64451838D01*
X153761638Y-64464276D01*
X153873541Y-64477034D01*
X153985407Y-64490112D01*
X154097237Y-64503510D01*
X154209028Y-64517229D01*
X154320780Y-64531269D01*
X154432490Y-64545630D01*
X154544158Y-64560312D01*
X154655782Y-64575315D01*
X154767361Y-64590640D01*
X154878894Y-64606287D01*
X154990380Y-64622255D01*
X155101816Y-64638545D01*
X155213202Y-64655158D01*
X155324537Y-64672093D01*
X155435819Y-64689351D01*
X155547047Y-64706931D01*
X155658219Y-64724835D01*
X155769334Y-64743062D01*
X155880392Y-64761612D01*
X155991390Y-64780485D01*
X156102328Y-64799682D01*
X156213203Y-64819203D01*
X156324015Y-64839048D01*
X156434763Y-64859218D01*
X156545445Y-64879712D01*
X156656059Y-64900530D01*
X156766605Y-64921673D01*
X156877082Y-64943141D01*
X156987487Y-64964935D01*
X157097820Y-64987053D01*
X157208079Y-65009498D01*
X157318263Y-65032268D01*
X157428370Y-65055363D01*
X157538400Y-65078785D01*
X157648352Y-65102533D01*
X157758222Y-65126608D01*
X157868012Y-65151009D01*
X157977718Y-65175737D01*
X158087340Y-65200792D01*
X158196877Y-65226174D01*
X158306327Y-65251883D01*
X158415689Y-65277920D01*
X158524962Y-65304285D01*
X158634144Y-65330978D01*
X158752621Y-65360343D01*
X158870885Y-65390078D01*
X158988936Y-65420179D01*
X159106771Y-65450647D01*
X159224390Y-65481481D01*
X159341790Y-65512679D01*
X159458972Y-65544241D01*
X159575933Y-65576166D01*
X159692673Y-65608453D01*
X159809190Y-65641101D01*
X159925482Y-65674110D01*
X160041550Y-65707477D01*
X160157390Y-65741203D01*
X160273003Y-65775286D01*
X160388387Y-65809726D01*
X160503540Y-65844521D01*
X160618462Y-65879671D01*
X160733151Y-65915175D01*
X160847605Y-65951031D01*
X160961825Y-65987240D01*
X161075807Y-66023800D01*
X161189552Y-66060710D01*
X161303058Y-66097969D01*
X161416323Y-66135577D01*
X161529346Y-66173532D01*
X161642127Y-66211833D01*
X161754663Y-66250480D01*
X161866954Y-66289472D01*
X161978999Y-66328808D01*
X162090795Y-66368486D01*
X162202342Y-66408507D01*
X162313639Y-66448868D01*
X162424684Y-66489570D01*
X162535476Y-66530611D01*
X162646014Y-66571991D01*
X162756297Y-66613708D01*
X162866323Y-66655761D01*
X162976091Y-66698150D01*
X163085599Y-66740874D01*
X163194847Y-66783932D01*
X163303834Y-66827322D01*
X163412557Y-66871045D01*
X163521017Y-66915099D01*
X163629210Y-66959483D01*
X163737137Y-67004196D01*
X163844796Y-67049237D01*
X163952186Y-67094606D01*
X164059305Y-67140302D01*
X164166153Y-67186323D01*
X164272728Y-67232669D01*
X164379028Y-67279339D01*
X164485053Y-67326332D01*
X164590801Y-67373646D01*
X164696271Y-67421282D01*
X164801461Y-67469238D01*
X164906371Y-67517514D01*
X165011000Y-67566107D01*
X165115345Y-67615019D01*
X165219406Y-67664247D01*
X165323182Y-67713790D01*
X165426671Y-67763648D01*
X165529871Y-67813820D01*
X165632783Y-67864306D01*
X165735404Y-67915103D01*
X165837733Y-67966211D01*
X165939769Y-68017629D01*
X166041510Y-68069357D01*
X166142956Y-68121393D01*
X166244106Y-68173737D01*
X166344957Y-68226387D01*
X166445509Y-68279343D01*
X166545760Y-68332604D01*
X166645709Y-68386168D01*
X166745356Y-68440036D01*
X166844698Y-68494206D01*
X166943734Y-68548676D01*
X167042463Y-68603447D01*
X167140885Y-68658518D01*
X167238997Y-68713886D01*
X167336798Y-68769552D01*
X167434288Y-68825515D01*
X167531464Y-68881774D01*
X167628326Y-68938327D01*
X167724873Y-68995174D01*
X167821102Y-69052315D01*
X167917014Y-69109747D01*
X168012606Y-69167470D01*
X168107877Y-69225484D01*
X168202827Y-69283787D01*
X168297453Y-69342378D01*
X168391755Y-69401257D01*
X168485731Y-69460423D01*
X168579380Y-69519874D01*
X168672702Y-69579610D01*
X168765693Y-69639630D01*
X168858354Y-69699933D01*
X168950683Y-69760518D01*
X169042679Y-69821384D01*
X169134341Y-69882531D01*
X169225667Y-69943957D01*
X169316656Y-70005661D01*
X169407306Y-70067643D01*
X169497618Y-70129901D01*
X169587588Y-70192435D01*
X169677217Y-70255244D01*
X169766502Y-70318327D01*
X169855443Y-70381683D01*
X169944038Y-70445311D01*
X170032286Y-70509210D01*
X170120186Y-70573380D01*
X170207737Y-70637818D01*
X170294936Y-70702526D01*
X170381784Y-70767501D01*
X170468279Y-70832742D01*
X170554419Y-70898249D01*
X170640203Y-70964021D01*
X170725630Y-71030057D01*
X170810699Y-71096356D01*
X170895409Y-71162917D01*
X170979757Y-71229740D01*
X171063744Y-71296822D01*
X171147367Y-71364164D01*
X171230626Y-71431765D01*
X171313520Y-71499623D01*
X171396046Y-71567737D01*
X171478203Y-71636108D01*
X171559992Y-71704733D01*
X171641409Y-71773612D01*
X171722455Y-71842745D01*
X171803127Y-71912129D01*
X171883424Y-71981764D01*
X171963346Y-72051650D01*
X172042891Y-72121786D01*
X172122057Y-72192169D01*
X172200844Y-72262801D01*
X172279250Y-72333679D01*
X172357274Y-72404803D01*
X172434914Y-72476171D01*
X172512170Y-72547784D01*
X172589040Y-72619639D01*
X172665523Y-72691737D01*
X172741618Y-72764076D01*
X172817323Y-72836656D01*
X172892637Y-72909474D01*
X172967559Y-72982532D01*
X173042088Y-73055826D01*
X173116222Y-73129358D01*
X173189961Y-73203125D01*
X173263302Y-73277127D01*
X173336244Y-73351364D01*
X173408788Y-73425833D01*
X173480930Y-73500534D01*
X173552670Y-73575467D01*
X173624007Y-73650630D01*
X173694939Y-73726022D01*
X173765465Y-73801643D01*
X173835584Y-73877491D01*
X173905295Y-73953567D01*
X173974596Y-74029868D01*
X174043486Y-74106393D01*
X174111963Y-74183143D01*
X174180028Y-74260116D01*
X174247678Y-74337311D01*
X174314911Y-74414728D01*
X174381728Y-74492364D01*
X174448126Y-74570220D01*
X174514105Y-74648295D01*
X174579662Y-74726587D01*
X174644798Y-74805096D01*
X174709510Y-74883821D01*
X174773797Y-74962761D01*
X174837658Y-75041915D01*
X174901092Y-75121281D01*
X174964098Y-75200860D01*
X175026674Y-75280651D01*
X175088819Y-75360651D01*
X175150531Y-75440861D01*
X175211811Y-75521280D01*
X175272655Y-75601906D01*
X175333063Y-75682739D01*
X175393035Y-75763778D01*
X175452567Y-75845022D01*
X175511660Y-75926469D01*
X175570312Y-76008120D01*
X175628522Y-76089973D01*
X175686288Y-76172027D01*
X175743610Y-76254282D01*
X175800485Y-76336736D01*
X175856913Y-76419389D01*
X175912893Y-76502239D01*
X175968423Y-76585286D01*
X176023501Y-76668529D01*
X176078128Y-76751967D01*
X176132301Y-76835599D01*
X176186019Y-76919424D01*
X176239281Y-77003441D01*
X176292086Y-77087650D01*
X176344432Y-77172049D01*
X176396319Y-77256637D01*
X176447744Y-77341414D01*
X176498707Y-77426378D01*
X176549207Y-77511530D01*
X176599241Y-77596867D01*
X176648810Y-77682389D01*
X176697911Y-77768095D01*
X176746544Y-77853985D01*
X176794706Y-77940056D01*
X176842398Y-78026309D01*
X176889618Y-78112742D01*
X176936363Y-78199355D01*
X176982634Y-78286146D01*
X177028429Y-78373115D01*
X177073747Y-78460261D01*
X177118585Y-78547583D01*
X177162944Y-78635080D01*
X177206822Y-78722750D01*
X177250218Y-78810594D01*
X177300999Y-78914889D01*
X177351116Y-79019476D01*
X177400567Y-79124344D01*
X177449348Y-79229485D01*
X177497459Y-79334890D01*
X177544896Y-79440548D01*
X177591658Y-79546451D01*
X177637741Y-79652588D01*
X177683143Y-79758952D01*
X177727862Y-79865532D01*
X177771896Y-79972320D01*
X177815243Y-80079305D01*
X177857899Y-80186479D01*
X177899863Y-80293832D01*
X177941131Y-80401355D01*
X177981703Y-80509038D01*
X178021575Y-80616872D01*
X178060745Y-80724848D01*
X178099211Y-80832957D01*
X178136970Y-80941188D01*
X178174021Y-81049534D01*
X178210359Y-81157983D01*
X178245984Y-81266528D01*
X178280893Y-81375159D01*
X178315083Y-81483866D01*
X178348553Y-81592640D01*
X178381299Y-81701471D01*
X178413319Y-81810351D01*
X178444612Y-81919270D01*
X178475174Y-82028219D01*
X178505004Y-82137188D01*
X178534098Y-82246168D01*
X178562455Y-82355150D01*
X178590072Y-82464124D01*
X178616947Y-82573080D01*
X178643077Y-82682011D01*
X178668461Y-82790906D01*
X178693095Y-82899755D01*
X178716978Y-83008551D01*
X178740106Y-83117282D01*
X178762478Y-83225941D01*
X178784091Y-83334517D01*
X178804944Y-83443001D01*
X178825032Y-83551384D01*
X178844355Y-83659657D01*
X178862910Y-83767810D01*
X178880694Y-83875833D01*
X178897705Y-83983719D01*
X178913940Y-84091456D01*
X178929398Y-84199036D01*
X178944076Y-84306450D01*
X178957972Y-84413688D01*
X178971082Y-84520740D01*
X178983406Y-84627598D01*
X178994940Y-84734252D01*
X179005682Y-84840693D01*
X179015630Y-84946912D01*
X179024781Y-85052898D01*
X179033133Y-85158643D01*
X179040683Y-85264138D01*
X179047430Y-85369373D01*
X179053371Y-85474338D01*
X179058504Y-85579025D01*
X179062825Y-85683423D01*
X179066333Y-85787525D01*
X179069026Y-85891320D01*
X179070901Y-85994799D01*
X179073300Y-86181506D01*
X179074755Y-86349344D01*
X179075018Y-86500035D01*
X179073841Y-86635304D01*
X179070979Y-86756873D01*
X179066182Y-86866467D01*
X179059205Y-86965807D01*
X179049799Y-87056619D01*
X179037718Y-87140625D01*
X179022714Y-87219548D01*
X179004540Y-87295113D01*
X178982948Y-87369042D01*
X178957692Y-87443059D01*
X178928524Y-87518887D01*
X178895197Y-87598250D01*
X178857463Y-87682872D01*
X178815075Y-87774475D01*
X178771400Y-87864648D01*
X178722837Y-87959437D01*
X178670326Y-88057282D01*
X178614805Y-88156622D01*
X178557210Y-88255899D01*
X178498480Y-88353553D01*
X178439553Y-88448025D01*
X178381366Y-88537754D01*
X178324858Y-88621182D01*
X178270967Y-88696750D01*
X178220630Y-88762897D01*
X178163488Y-88831225D01*
X178098784Y-88901728D01*
X178027209Y-88973939D01*
X177949454Y-89047388D01*
X177866211Y-89121607D01*
X177778169Y-89196126D01*
X177686020Y-89270477D01*
X177590455Y-89344191D01*
X177492164Y-89416799D01*
X177391839Y-89487833D01*
X177290170Y-89556823D01*
X177187849Y-89623301D01*
X177085565Y-89686797D01*
X176984010Y-89746844D01*
X176883875Y-89802973D01*
X176785851Y-89854713D01*
X176690628Y-89901598D01*
X176598897Y-89943157D01*
X176511350Y-89978923D01*
X176428677Y-90008426D01*
X176351568Y-90031197D01*
X176270065Y-90052282D01*
X176175063Y-90076708D01*
X176069997Y-90103600D01*
X175958303Y-90132084D01*
X175843417Y-90161286D01*
X175728773Y-90190329D01*
X175617809Y-90218341D01*
X175513958Y-90244445D01*
X175419891Y-90271127D01*
X175325241Y-90304085D01*
X175230294Y-90343158D01*
X175135338Y-90388182D01*
X175040659Y-90438994D01*
X174946543Y-90495432D01*
X174853278Y-90557333D01*
X174761151Y-90624534D01*
X174670447Y-90696871D01*
X174581454Y-90774183D01*
X174475293Y-90872468D01*
X174385937Y-90960715D01*
X174311727Y-91041807D01*
X174251003Y-91118629D01*
X174202107Y-91194065D01*
X174163382Y-91271000D01*
X174133167Y-91352318D01*
X174109805Y-91440902D01*
X174091637Y-91539639D01*
X174077004Y-91651411D01*
X174064683Y-91773965D01*
X174056728Y-91887098D01*
X174053549Y-91992079D01*
X174055555Y-92090179D01*
X174063154Y-92182665D01*
X174076757Y-92270809D01*
X174096772Y-92355880D01*
X174123609Y-92439146D01*
X174157677Y-92521879D01*
X174199385Y-92605347D01*
X174249142Y-92690819D01*
X174307358Y-92779567D01*
X174374441Y-92872858D01*
X174450802Y-92971963D01*
X174536849Y-93078151D01*
X174612845Y-93173177D01*
X174683344Y-93267695D01*
X174748348Y-93361744D01*
X174807858Y-93455366D01*
X174861877Y-93548600D01*
X174910407Y-93641487D01*
X174953450Y-93734067D01*
X174991008Y-93826381D01*
X175023082Y-93918468D01*
X175049676Y-94010369D01*
X175070791Y-94102125D01*
X175086429Y-94193776D01*
X175096592Y-94285361D01*
X175101283Y-94376922D01*
X175100502Y-94468498D01*
X175094254Y-94560130D01*
X175082539Y-94651859D01*
X175065359Y-94743724D01*
X175042717Y-94835766D01*
X175014615Y-94928025D01*
X174981054Y-95020542D01*
X174942038Y-95113356D01*
X174897567Y-95206508D01*
X174847644Y-95300039D01*
X174792271Y-95393989D01*
X174731450Y-95488397D01*
X174665184Y-95583305D01*
X174623671Y-95638409D01*
X174580077Y-95692071D01*
X174534414Y-95744287D01*
X174486692Y-95795059D01*
X174436924Y-95844384D01*
X174385121Y-95892261D01*
X174331294Y-95938691D01*
X174275456Y-95983671D01*
X174217619Y-96027202D01*
X174157793Y-96069281D01*
X174095990Y-96109908D01*
X174032222Y-96149082D01*
X173966501Y-96186802D01*
X173898839Y-96223068D01*
X173829246Y-96257877D01*
X173757735Y-96291229D01*
X173684317Y-96323124D01*
X173609004Y-96353560D01*
X173531808Y-96382536D01*
X173452740Y-96410052D01*
X173371812Y-96436105D01*
X173289036Y-96460696D01*
X173204423Y-96483824D01*
X173117984Y-96505487D01*
X173029733Y-96525685D01*
X172939679Y-96544416D01*
X172847835Y-96561679D01*
X172754213Y-96577475D01*
X172658823Y-96591801D01*
X172561679Y-96604656D01*
X172462791Y-96616041D01*
X172362171Y-96625953D01*
X172259830Y-96634392D01*
X172155781Y-96641357D01*
X172050035Y-96646846D01*
X171942604Y-96650860D01*
X171833499Y-96653396D01*
X171722732Y-96654455D01*
X171610315Y-96654035D01*
X171496259Y-96652134D01*
X171380575Y-96648753D01*
X171263277Y-96643890D01*
X171144375Y-96637544D01*
X171023880Y-96629715D01*
X170901805Y-96620401D01*
X170778162Y-96609601D01*
X170652961Y-96597314D01*
X170526214Y-96583540D01*
X170397934Y-96568277D01*
X170268132Y-96551525D01*
X170136819Y-96533282D01*
X170004007Y-96513548D01*
X169869708Y-96492321D01*
X169733933Y-96469602D01*
X169596694Y-96445387D01*
X169458003Y-96419678D01*
X169317871Y-96392472D01*
X169176311Y-96363769D01*
X169033333Y-96333568D01*
X168888949Y-96301867D01*
X168743171Y-96268667D01*
X168596011Y-96233966D01*
X168447480Y-96197762D01*
X168297590Y-96160056D01*
X168146353Y-96120845D01*
X167948841Y-96068882D01*
X167759600Y-96019109D01*
X167578343Y-95971477D01*
X167404782Y-95925941D01*
X167238629Y-95882452D01*
X167079597Y-95840964D01*
X166927399Y-95801430D01*
X166781747Y-95763803D01*
X166642354Y-95728035D01*
X166508932Y-95694079D01*
X166381193Y-95661888D01*
X166258851Y-95631416D01*
X166141618Y-95602615D01*
X166029205Y-95575437D01*
X165921327Y-95549836D01*
X165817694Y-95525765D01*
X165718021Y-95503177D01*
X165622019Y-95482023D01*
X165529400Y-95462259D01*
X165439878Y-95443835D01*
X165353165Y-95426705D01*
X165268973Y-95410822D01*
X165187015Y-95396139D01*
X165107004Y-95382609D01*
X165028651Y-95370184D01*
X164951670Y-95358818D01*
X164875773Y-95348463D01*
X164800672Y-95339073D01*
X164726081Y-95330599D01*
X164651710Y-95322996D01*
X164577274Y-95316215D01*
X164502485Y-95310210D01*
X164427054Y-95304934D01*
X164350695Y-95300339D01*
X164273121Y-95296379D01*
X164194042Y-95293006D01*
X164113173Y-95290173D01*
X164030226Y-95287834D01*
X163944913Y-95285940D01*
X163856946Y-95284445D01*
X163766039Y-95283302D01*
X163671904Y-95282463D01*
X163574253Y-95281882D01*
X163472798Y-95281511D01*
X163367253Y-95281303D01*
X163257330Y-95281212D01*
X163142741Y-95281190D01*
X163023198Y-95281189D01*
X162919806Y-95281411D01*
X162814471Y-95282081D01*
X162707353Y-95283189D01*
X162598610Y-95284729D01*
X162488403Y-95286691D01*
X162376890Y-95289066D01*
X162264230Y-95291848D01*
X162150584Y-95295027D01*
X162036110Y-95298595D01*
X161920967Y-95302544D01*
X161805315Y-95306866D01*
X161689313Y-95311551D01*
X161573121Y-95316593D01*
X161456897Y-95321981D01*
X161340802Y-95327709D01*
X161224993Y-95333768D01*
X161109631Y-95340149D01*
X160994875Y-95346844D01*
X160880884Y-95353845D01*
X160767818Y-95361143D01*
X160655835Y-95368730D01*
X160545095Y-95376599D01*
X160435758Y-95384739D01*
X160327982Y-95393144D01*
X160221927Y-95401805D01*
X160117752Y-95410713D01*
X160015616Y-95419860D01*
X159915679Y-95429238D01*
X159818100Y-95438838D01*
X159723038Y-95448653D01*
X159630653Y-95458673D01*
X159539444Y-95468897D01*
X159445810Y-95479550D01*
X159349830Y-95490620D01*
X159251580Y-95502096D01*
X159151137Y-95513967D01*
X159048578Y-95526222D01*
X158943980Y-95538849D01*
X158837420Y-95551838D01*
X158728974Y-95565178D01*
X158618721Y-95578857D01*
X158506736Y-95592865D01*
X158393096Y-95607190D01*
X158277879Y-95621820D01*
X158161162Y-95636746D01*
X158043021Y-95651956D01*
X157923533Y-95667439D01*
X157802775Y-95683183D01*
X157680825Y-95699178D01*
X157557759Y-95715413D01*
X157433653Y-95731876D01*
X157308586Y-95748556D01*
X157182634Y-95765442D01*
X157055873Y-95782523D01*
X156928381Y-95799789D01*
X156800235Y-95817227D01*
X156671512Y-95834827D01*
X156542288Y-95852578D01*
X156412641Y-95870468D01*
X156282647Y-95888487D01*
X156152383Y-95906623D01*
X156021927Y-95924865D01*
X155891355Y-95943203D01*
X155760744Y-95961624D01*
X155630171Y-95980119D01*
X155499713Y-95998675D01*
X155369447Y-96017282D01*
X155239450Y-96035928D01*
X155109799Y-96054603D01*
X154980570Y-96073296D01*
X154851841Y-96091995D01*
X154723689Y-96110689D01*
X154596190Y-96129367D01*
X154469422Y-96148018D01*
X154343461Y-96166631D01*
X154218385Y-96185195D01*
X154094269Y-96203698D01*
X153971192Y-96222130D01*
X153849230Y-96240480D01*
X153728460Y-96258735D01*
X153608959Y-96276887D01*
X153490804Y-96294922D01*
X153374072Y-96312830D01*
X153258840Y-96330600D01*
X153145184Y-96348221D01*
X153033182Y-96365682D01*
X152922911Y-96382972D01*
X152814447Y-96400079D01*
X152707867Y-96416992D01*
X152603249Y-96433701D01*
X152500670Y-96450194D01*
X152400205Y-96466460D01*
X152301933Y-96482488D01*
X152205929Y-96498267D01*
X152112272Y-96513785D01*
X152021038Y-96529033D01*
X151932303Y-96543998D01*
X151846146Y-96558669D01*
X151762642Y-96573036D01*
X151681868Y-96587087D01*
X151603903Y-96600811D01*
X151528822Y-96614198D01*
X151456702Y-96627235D01*
X151387621Y-96639912D01*
X151321655Y-96652218D01*
X151258882Y-96664141D01*
X151199378Y-96675671D01*
X151073962Y-96699838D01*
X150951468Y-96722613D01*
X150831726Y-96743996D01*
X150714565Y-96763987D01*
X150599814Y-96782585D01*
X150487304Y-96799790D01*
X150376862Y-96815601D01*
X150268319Y-96830019D01*
X150161504Y-96843042D01*
X150056247Y-96854670D01*
X149952377Y-96864902D01*
X149849723Y-96873739D01*
X149748116Y-96881180D01*
X149647383Y-96887225D01*
X149547356Y-96891872D01*
X149447862Y-96895122D01*
X149348733Y-96896974D01*
X149249796Y-96897428D01*
X149150882Y-96896484D01*
X149051820Y-96894140D01*
X148952439Y-96890397D01*
X148852569Y-96885253D01*
X148752040Y-96878710D01*
X148650680Y-96870765D01*
X148548319Y-96861420D01*
X148444787Y-96850673D01*
X148339913Y-96838524D01*
X148233526Y-96824972D01*
X148125456Y-96810017D01*
X148015533Y-96793660D01*
X147903585Y-96775898D01*
X147789443Y-96756732D01*
X147672935Y-96736162D01*
X147553892Y-96714187D01*
X147432141Y-96690806D01*
X147307514Y-96666019D01*
X147307514Y-96666022D01*
X147307514Y-96666017D01*
D12*
X126730000Y-75000000D03*
X129270000Y-75000000D03*
D13*
X157378400Y-94208600D03*
D14*
X139553000Y-82823000D03*
D15*
X139553000Y-85363000D03*
D14*
X160553000Y-82823000D03*
D15*
X160553000Y-85363000D03*
D16*
X133053000Y-83323000D03*
X167053000Y-83323000D03*
D13*
X165074600Y-93522800D03*
X153568400Y-94437200D03*
X161239200Y-93700600D03*
X142392400Y-93853000D03*
X146253200Y-94208600D03*
X168910000Y-93751400D03*
X130886200Y-94208600D03*
X134747000Y-93726000D03*
X172770800Y-94132400D03*
X127076200Y-94513400D03*
X150063200Y-94818200D03*
X138582400Y-93624400D03*
D17*
X134553640Y-79862360D03*
X132054280Y-74823000D03*
X137053000Y-74823000D03*
X165053640Y-79862360D03*
X162554280Y-74823000D03*
X167553000Y-74823000D03*
D18*
X145308000Y-81573000D03*
X154198000Y-81573000D03*
X164323000Y-69823000D03*
X161783000Y-69823000D03*
D19*
X141103000Y-76843000D03*
X141103000Y-78113000D03*
D20*
X141103000Y-75573000D03*
D19*
X157903000Y-77003000D03*
X157903000Y-75733000D03*
D20*
X157903000Y-78273000D03*
D18*
X153048000Y-84773000D03*
X144158000Y-84773000D03*
X135783000Y-69823000D03*
X138323000Y-69823000D03*
D21*
X150403000Y-69723000D03*
D22*
X148403000Y-69723000D03*
D12*
X170708000Y-75823000D03*
X173248000Y-75823000D03*
M02*
