G04 #@! TF.FileFunction,Copper,L1,Top,Signal*
%FSLAX46Y46*%
G04 Gerber Fmt 4.6, Leading zero omitted, Abs format (unit mm)*
G04 Created by KiCad (PCBNEW 4.0.3+e1-6302~38~ubuntu14.04.1-stable) date Fri Aug 26 23:53:00 2016*
%MOMM*%
%LPD*%
G01*
G04 APERTURE LIST*
%ADD10C,0.100000*%
G04 APERTURE END LIST*
D10*
G36*
X147559292Y-119889144D02*
X155156959Y-118635804D01*
X155371979Y-118588311D01*
X155530441Y-118541886D01*
X155634533Y-118490945D01*
X155686465Y-118429835D01*
X155688723Y-118352986D01*
X155642836Y-118254775D01*
X155551351Y-118129615D01*
X155416451Y-117971873D01*
X155322130Y-117855578D01*
X155229804Y-117723117D01*
X155141804Y-117579102D01*
X155060456Y-117428139D01*
X154988103Y-117274858D01*
X154927070Y-117123864D01*
X154879645Y-116979764D01*
X154848211Y-116847176D01*
X154809437Y-116704380D01*
X154747638Y-116576937D01*
X154663051Y-116465013D01*
X154555885Y-116368747D01*
X154426345Y-116288322D01*
X154274640Y-116223846D01*
X154100988Y-116175512D01*
X153905597Y-116143542D01*
X153670300Y-116122601D01*
X153482205Y-116122037D01*
X153336367Y-116145687D01*
X153227841Y-116197004D01*
X153151740Y-116279633D01*
X153103020Y-116397113D01*
X153076858Y-116553024D01*
X153068278Y-116750949D01*
X153062154Y-116900640D01*
X153046152Y-117056458D01*
X153021373Y-117213819D01*
X152988869Y-117368166D01*
X152949860Y-117514936D01*
X152905345Y-117649556D01*
X152856397Y-117767474D01*
X152804158Y-117864109D01*
X152653346Y-118026356D01*
X152458379Y-118127013D01*
X152236527Y-118169081D01*
X152005071Y-118155619D01*
X151781263Y-118089613D01*
X151582398Y-117974060D01*
X151425722Y-117811988D01*
X151328531Y-117606432D01*
X151296103Y-117481741D01*
X151277166Y-117391910D01*
X151272566Y-117336769D01*
X151283347Y-117316139D01*
X151310525Y-117329827D01*
X151355110Y-117377629D01*
X151418136Y-117459355D01*
X151500556Y-117574840D01*
X151668763Y-117744701D01*
X151865856Y-117833660D01*
X152076013Y-117848364D01*
X152283427Y-117795436D01*
X152472273Y-117681610D01*
X152626744Y-117513491D01*
X152731028Y-117297735D01*
X152769269Y-117041000D01*
X152735696Y-116781003D01*
X152643172Y-116568812D01*
X152503958Y-116409170D01*
X152330298Y-116306794D01*
X152134470Y-116266410D01*
X151928721Y-116292798D01*
X151725312Y-116390667D01*
X151536494Y-116564762D01*
X151426882Y-116689826D01*
X151332722Y-116777760D01*
X151248800Y-116828162D01*
X151169939Y-116840524D01*
X151090925Y-116814362D01*
X151006566Y-116749276D01*
X150911669Y-116644758D01*
X150801018Y-116500390D01*
X150720480Y-116402766D01*
X150633158Y-116319217D01*
X150541836Y-116251077D01*
X150449293Y-116199527D01*
X150358313Y-116165948D01*
X150271679Y-116151611D01*
X150192183Y-116157707D01*
X150122584Y-116185788D01*
X149989883Y-116347527D01*
X149860557Y-116642139D01*
X149742656Y-117027900D01*
X149644220Y-117463086D01*
X149573320Y-117905980D01*
X149537986Y-118314852D01*
X149546255Y-118648010D01*
X149606140Y-118863712D01*
X149825522Y-118935453D01*
X150324446Y-118972624D01*
X151030924Y-118977987D01*
X151872979Y-118954986D01*
X152778636Y-118906266D01*
X153675905Y-118834832D01*
X154492820Y-118743604D01*
X155156959Y-118635804D01*
X147559292Y-119889144D01*
X156374912Y-118474076D01*
X157031829Y-118459429D01*
X157688758Y-118444781D01*
X158345687Y-118430134D01*
X159002618Y-118415487D01*
X159659538Y-118400839D01*
X160316467Y-118386192D01*
X160973395Y-118371545D01*
X162031633Y-118345693D01*
X163023805Y-118317011D01*
X163927830Y-118286342D01*
X164721642Y-118254753D01*
X165383191Y-118223166D01*
X165890384Y-118192497D01*
X166221168Y-118163739D01*
X166353479Y-118137803D01*
X166353479Y-118137811D01*
X166353491Y-118137820D01*
X166353491Y-118137828D01*
X166353491Y-118137837D01*
X166353491Y-118137851D01*
X166353491Y-118137859D01*
X166353496Y-118137868D01*
X166353491Y-118138796D01*
X166368928Y-118104376D01*
X166365090Y-118051223D01*
X166342907Y-117982002D01*
X166304054Y-117899393D01*
X166249907Y-117806051D01*
X166181911Y-117704637D01*
X166101427Y-117597844D01*
X166009877Y-117488300D01*
X165911531Y-117367193D01*
X165811556Y-117227253D01*
X165712736Y-117073464D01*
X165617853Y-116910814D01*
X165529678Y-116744300D01*
X165450986Y-116578904D01*
X165384520Y-116419629D01*
X165333122Y-116271457D01*
X165205159Y-115963484D01*
X165043158Y-115753336D01*
X164853417Y-115640109D01*
X164642222Y-115622978D01*
X164415877Y-115700998D01*
X164180682Y-115873320D01*
X163942915Y-116139075D01*
X163708891Y-116497384D01*
X163468468Y-116864039D01*
X163221837Y-117131670D01*
X162970589Y-117300157D01*
X162716310Y-117369374D01*
X162460588Y-117339241D01*
X162205019Y-117209566D01*
X161951183Y-116980269D01*
X161700676Y-116651215D01*
X161454906Y-116322513D01*
X161213394Y-116093149D01*
X160976074Y-115963106D01*
X160742890Y-115932437D01*
X160513777Y-116001045D01*
X160288674Y-116169041D01*
X160067530Y-116436387D01*
X159850284Y-116803084D01*
X159746646Y-116986128D01*
X159632600Y-117156889D01*
X159511888Y-117311634D01*
X159388235Y-117446630D01*
X159265392Y-117558133D01*
X159147090Y-117642404D01*
X159037063Y-117695710D01*
X158939053Y-117714337D01*
X158841046Y-117695710D01*
X158731016Y-117642404D01*
X158612717Y-117558133D01*
X158489868Y-117446630D01*
X158366213Y-117311634D01*
X158245503Y-117156889D01*
X158131455Y-116986128D01*
X158027820Y-116803084D01*
X157824174Y-116460244D01*
X157612679Y-116200204D01*
X157396793Y-116023770D01*
X157179956Y-115931734D01*
X156965640Y-115924820D01*
X156757298Y-116003952D01*
X156558376Y-116169859D01*
X156372324Y-116423326D01*
X156271192Y-116587339D01*
X156188561Y-116704696D01*
X156118347Y-116775520D01*
X156054483Y-116799932D01*
X155990999Y-116778060D01*
X155921708Y-116709985D01*
X155840637Y-116595882D01*
X155741679Y-116435848D01*
X155568380Y-116220614D01*
X155374660Y-116098838D01*
X155173927Y-116064342D01*
X154979603Y-116111075D01*
X154805102Y-116232866D01*
X154663844Y-116423583D01*
X154569249Y-116677092D01*
X154534753Y-116987274D01*
X154542852Y-117166022D01*
X154567773Y-117317606D01*
X154610374Y-117443046D01*
X154671410Y-117543381D01*
X154751773Y-117619631D01*
X154852238Y-117672794D01*
X154973656Y-117703920D01*
X155116833Y-117714080D01*
X155237150Y-117706347D01*
X155355912Y-117684164D01*
X155470051Y-117649059D01*
X155576505Y-117602633D01*
X155672196Y-117546418D01*
X155754082Y-117481944D01*
X155819098Y-117410816D01*
X155864143Y-117334554D01*
X155894121Y-117273901D01*
X155915993Y-117247627D01*
X155929568Y-117253723D01*
X155934902Y-117291351D01*
X155931854Y-117358509D01*
X155920706Y-117453674D01*
X155901233Y-117575233D01*
X155873321Y-117721590D01*
X155853904Y-117817478D01*
X155834487Y-117913371D01*
X155815071Y-118009265D01*
X155795654Y-118105155D01*
X155776237Y-118201046D01*
X155756820Y-118296939D01*
X155737403Y-118392824D01*
X155717986Y-118488723D01*
X156374912Y-118474076D01*
X147559292Y-119889144D01*
X147496421Y-119847302D01*
X142119868Y-119717262D01*
X141970547Y-119741138D01*
X141913180Y-119735014D01*
X141852759Y-119718476D01*
X141791116Y-119692314D01*
X141730083Y-119657747D01*
X141671414Y-119615831D01*
X141616962Y-119567797D01*
X141568550Y-119514796D01*
X141527899Y-119458270D01*
X141479100Y-119323317D01*
X141493662Y-119195787D01*
X141560275Y-119082790D01*
X141667658Y-118991435D01*
X141804527Y-118928875D01*
X141959614Y-118902177D01*
X142121626Y-118918517D01*
X142279276Y-118984825D01*
X142380994Y-119077598D01*
X142434148Y-119191567D01*
X142443010Y-119316388D01*
X142411804Y-119441703D01*
X142344729Y-119557186D01*
X142246007Y-119652481D01*
X142119868Y-119717262D01*
X147496421Y-119847302D01*
X145953380Y-119554888D01*
X145935656Y-119611790D01*
X145907575Y-119663414D01*
X145870404Y-119708392D01*
X145825434Y-119745561D01*
X145773884Y-119773642D01*
X145716979Y-119791365D01*
X145655938Y-119797489D01*
X145594907Y-119791365D01*
X145538000Y-119773642D01*
X145486455Y-119745561D01*
X145441480Y-119708392D01*
X145404309Y-119663414D01*
X145376228Y-119611790D01*
X145358504Y-119554888D01*
X145352380Y-119493855D01*
X145358504Y-119432819D01*
X145376228Y-119375914D01*
X145404309Y-119324364D01*
X145441480Y-119279392D01*
X145486455Y-119242218D01*
X145538000Y-119214137D01*
X145594907Y-119196413D01*
X145655938Y-119190317D01*
X145716979Y-119196413D01*
X145773884Y-119214137D01*
X145825434Y-119242218D01*
X145870404Y-119279392D01*
X145907575Y-119324364D01*
X145935656Y-119375914D01*
X145953380Y-119432819D01*
X145959504Y-119493855D01*
X145953380Y-119554888D01*
X147496421Y-119847302D01*
X124013197Y-119527978D01*
X123817598Y-119500349D01*
X123593217Y-119421409D01*
X123345429Y-119291245D01*
X123079581Y-119109898D01*
X123079581Y-119109906D01*
X123079581Y-119109915D01*
X123079581Y-119109920D01*
X123079581Y-119109929D01*
X123079135Y-119110008D01*
X122926374Y-118980824D01*
X122808162Y-118846249D01*
X122722722Y-118697969D01*
X122668262Y-118527665D01*
X122642946Y-118327014D01*
X122645204Y-118087695D01*
X122672975Y-117801386D01*
X122724523Y-117459762D01*
X122784947Y-117073465D01*
X122814851Y-116767328D01*
X122806497Y-116523567D01*
X122752189Y-116324400D01*
X122644087Y-116152038D01*
X122474426Y-115988711D01*
X122235423Y-115816637D01*
X121919326Y-115618032D01*
X121722939Y-115494057D01*
X121553088Y-115378360D01*
X121412542Y-115273466D01*
X121304061Y-115181916D01*
X121230407Y-115106275D01*
X121194305Y-115049066D01*
X121198905Y-115012735D01*
X121246245Y-114999894D01*
X121330824Y-115012651D01*
X121441673Y-115049670D01*
X121574083Y-115108406D01*
X121723345Y-115186184D01*
X121884759Y-115280401D01*
X122053607Y-115388469D01*
X122225173Y-115507773D01*
X122394755Y-115635701D01*
X122616626Y-115821779D01*
X122793769Y-115999686D01*
X122929783Y-116178113D01*
X123028279Y-116365740D01*
X123092831Y-116571276D01*
X123127096Y-116803401D01*
X123134744Y-117070830D01*
X123119250Y-117382238D01*
X123094471Y-117742260D01*
X123089871Y-118013995D01*
X123116625Y-118209253D01*
X123185462Y-118339852D01*
X123307086Y-118417607D01*
X123492314Y-118454318D01*
X123751939Y-118461967D01*
X124096758Y-118452117D01*
X124302568Y-118446783D01*
X124479584Y-118447630D01*
X124625018Y-118453726D01*
X124736047Y-118465015D01*
X124809857Y-118481045D01*
X124843662Y-118501337D01*
X124834715Y-118525410D01*
X124780187Y-118552955D01*
X124703931Y-118590129D01*
X124632802Y-118641753D01*
X124568326Y-118705541D01*
X124512110Y-118779119D01*
X124465684Y-118860134D01*
X124430581Y-118946254D01*
X124408399Y-119035137D01*
X124400666Y-119124458D01*
X124373742Y-119302557D01*
X124296625Y-119429136D01*
X124174660Y-119504244D01*
X124013197Y-119527978D01*
X147496421Y-119847302D01*
X147391579Y-119802790D01*
X147250355Y-119756976D01*
X147078357Y-119711242D01*
X146881185Y-119666880D01*
X146664425Y-119625345D01*
X146433683Y-119587951D01*
X146194553Y-119556051D01*
X145887860Y-119518880D01*
X145463460Y-119466415D01*
X144940533Y-119401097D01*
X144338259Y-119325301D01*
X143675807Y-119241469D01*
X142972357Y-119152005D01*
X142247094Y-119059337D01*
X141519169Y-118965882D01*
X136712087Y-118316422D01*
X136901387Y-118181618D01*
X137049226Y-117989335D01*
X137137322Y-117743234D01*
X137152167Y-117623851D01*
X137153014Y-117499284D01*
X137140398Y-117373201D01*
X137115478Y-117249275D01*
X137079153Y-117131165D01*
X137032344Y-117022560D01*
X136975973Y-116927112D01*
X136911036Y-116848508D01*
X136718750Y-116737566D01*
X136502342Y-116738977D01*
X136281133Y-116833338D01*
X136074442Y-117000713D01*
X135901578Y-117221374D01*
X135781871Y-117475558D01*
X135734601Y-117743528D01*
X135779114Y-118005520D01*
X135903399Y-118210704D01*
X136076991Y-118340879D01*
X136281740Y-118399542D01*
X136499486Y-118390228D01*
X136712087Y-118316422D01*
X141519169Y-118965882D01*
X138390290Y-118643444D01*
X138447728Y-118652757D01*
X138501268Y-118679455D01*
X138549836Y-118721597D01*
X138592209Y-118777355D01*
X138627162Y-118844812D01*
X138653606Y-118922181D01*
X138670342Y-119007573D01*
X138676438Y-119099092D01*
X138660379Y-119259213D01*
X138615100Y-119386199D01*
X138544965Y-119478406D01*
X138454445Y-119534162D01*
X138347889Y-119551886D01*
X138229688Y-119529929D01*
X138104241Y-119466674D01*
X137975931Y-119360432D01*
X137975931Y-119360424D01*
X137975931Y-119360415D01*
X137975931Y-119360410D01*
X137975931Y-119360401D01*
X137975697Y-119360446D01*
X137908161Y-119259978D01*
X137884285Y-119146053D01*
X137899243Y-119026961D01*
X137948344Y-118910974D01*
X138026799Y-118806351D01*
X138129799Y-118721385D01*
X138252557Y-118664328D01*
X138390290Y-118643444D01*
X141519169Y-118965882D01*
X139917835Y-118776299D01*
X138436035Y-118636077D01*
X133770650Y-118210038D01*
X133728817Y-118242389D01*
X133669694Y-118240978D01*
X133590847Y-118206022D01*
X133489873Y-118138483D01*
X133364383Y-118039164D01*
X133146093Y-117899904D01*
X132916000Y-117824873D01*
X132686708Y-117809971D01*
X132470836Y-117851043D01*
X132280988Y-117943891D01*
X132129782Y-118084362D01*
X132029802Y-118268289D01*
X131993703Y-118491521D01*
X132033172Y-118716802D01*
X132140430Y-118904130D01*
X132298577Y-119047863D01*
X132490750Y-119142379D01*
X132700086Y-119182071D01*
X132909717Y-119161186D01*
X133102786Y-119074217D01*
X133262419Y-118915481D01*
X133344822Y-118799998D01*
X133407845Y-118718272D01*
X133452434Y-118670467D01*
X133479668Y-118656779D01*
X133490477Y-118677409D01*
X133485905Y-118732558D01*
X133466968Y-118822387D01*
X133434543Y-118947081D01*
X133343126Y-119157622D01*
X133204803Y-119317252D01*
X133030760Y-119424559D01*
X132832191Y-119478099D01*
X132620310Y-119476687D01*
X132406309Y-119418482D01*
X132201382Y-119302303D01*
X132016735Y-119126713D01*
X132016735Y-119126704D01*
X132016735Y-119126696D01*
X132017156Y-119126749D01*
X131822092Y-118836913D01*
X131719211Y-118556455D01*
X131704818Y-118292769D01*
X131775263Y-118053272D01*
X131926887Y-117845370D01*
X132155995Y-117676460D01*
X132458915Y-117553956D01*
X132831968Y-117485277D01*
X133092098Y-117465945D01*
X133305876Y-117463687D01*
X133476914Y-117480564D01*
X133608804Y-117517894D01*
X133705124Y-117577166D01*
X133769448Y-117659885D01*
X133805392Y-117767573D01*
X133816540Y-117901750D01*
X133811968Y-118040454D01*
X133797574Y-118142962D01*
X133770650Y-118210038D01*
X138436035Y-118636077D01*
X134598481Y-118824351D01*
X134664110Y-118825198D01*
X134728279Y-118839902D01*
X134789007Y-118868736D01*
X134923656Y-118962510D01*
X135011963Y-119047744D01*
X135054488Y-119123236D01*
X135051440Y-119187712D01*
X135003866Y-119240025D01*
X134912096Y-119278881D01*
X134776612Y-119303039D01*
X134597942Y-119311421D01*
X134506714Y-119305325D01*
X134429134Y-119287263D01*
X134366340Y-119258728D01*
X134319530Y-119220950D01*
X134289860Y-119175207D01*
X134278487Y-119122821D01*
X134286530Y-119064999D01*
X134315415Y-119002843D01*
X134359549Y-118944406D01*
X134411865Y-118896755D01*
X134470375Y-118860504D01*
X134533243Y-118836204D01*
X134598481Y-118824351D01*
X138436035Y-118636077D01*
X137062321Y-118545061D01*
X135785269Y-118503066D01*
X134593430Y-118509980D01*
X133475356Y-118565584D01*
X132419627Y-118669735D01*
X131414795Y-118822262D01*
X129828911Y-117398299D01*
X129842712Y-117283009D01*
X129841865Y-117161732D01*
X129826964Y-117038136D01*
X129799278Y-116915821D01*
X129759815Y-116798450D01*
X129709563Y-116689637D01*
X129649599Y-116593021D01*
X129580914Y-116512240D01*
X129373131Y-116392939D01*
X129156080Y-116405103D01*
X128948559Y-116522081D01*
X128769387Y-116717153D01*
X128637381Y-116963643D01*
X128571298Y-117234850D01*
X128590038Y-117504090D01*
X128712359Y-117744659D01*
X128879668Y-117909031D01*
X129051257Y-118010283D01*
X129221036Y-118050280D01*
X129382904Y-118031032D01*
X129530741Y-117954282D01*
X129658461Y-117821988D01*
X129759965Y-117636032D01*
X129828911Y-117398299D01*
X131414795Y-118822262D01*
X130825585Y-118649737D01*
X130885854Y-118667461D01*
X130940461Y-118695542D01*
X130988112Y-118732714D01*
X131027501Y-118777686D01*
X131057250Y-118829236D01*
X131076075Y-118886138D01*
X131082989Y-118947174D01*
X131079941Y-119008205D01*
X131072067Y-119065112D01*
X131059649Y-119116739D01*
X131043252Y-119161711D01*
X131023440Y-119198883D01*
X131000749Y-119226964D01*
X130975660Y-119244687D01*
X130948736Y-119250811D01*
X130917988Y-119244687D01*
X130881886Y-119226964D01*
X130841810Y-119198883D01*
X130798980Y-119161711D01*
X130754773Y-119116739D01*
X130710487Y-119065112D01*
X130667428Y-119008205D01*
X130627197Y-118947174D01*
X130596065Y-118886138D01*
X130579697Y-118829236D01*
X130577439Y-118777686D01*
X130588953Y-118732714D01*
X130613648Y-118695542D01*
X130650898Y-118667461D01*
X130700149Y-118649737D01*
X130760954Y-118643641D01*
X130825585Y-118649737D01*
X131414795Y-118822262D01*
X130995869Y-118893089D01*
X130597826Y-118951983D01*
X127493345Y-117754218D01*
X127464208Y-117918026D01*
X127454726Y-118105890D01*
X127426503Y-118390954D01*
X127347097Y-118609100D01*
X127224432Y-118758387D01*
X127066447Y-118836871D01*
X126881067Y-118842233D01*
X126676199Y-118773241D01*
X126459791Y-118627645D01*
X126239559Y-118401887D01*
X126142666Y-118310362D01*
X126011786Y-118224982D01*
X125852696Y-118147599D01*
X125671140Y-118080145D01*
X125472893Y-118024389D01*
X125263696Y-117982248D01*
X125049325Y-117955578D01*
X124835522Y-117946265D01*
X124543064Y-117940169D01*
X124310267Y-117919877D01*
X124130757Y-117880868D01*
X123998161Y-117818765D01*
X123906119Y-117729360D01*
X123848301Y-117608309D01*
X123818241Y-117451332D01*
X123809662Y-117254127D01*
X123774017Y-116875800D01*
X123669902Y-116511637D01*
X123501650Y-116166810D01*
X123273586Y-115846462D01*
X122990026Y-115555770D01*
X122655294Y-115299888D01*
X122273712Y-115083966D01*
X121849586Y-114913162D01*
X121363531Y-114697798D01*
X120865237Y-114380490D01*
X120378610Y-113987098D01*
X119927568Y-113543504D01*
X119536029Y-113075576D01*
X119227905Y-112609195D01*
X119027121Y-112170210D01*
X118957601Y-111784522D01*
X119018863Y-111060422D01*
X119177587Y-110138272D01*
X119417143Y-109076668D01*
X119720899Y-107934173D01*
X120072212Y-106769363D01*
X120454457Y-105640812D01*
X120851010Y-104607100D01*
X121245223Y-103726801D01*
X121768024Y-102796413D01*
X122442281Y-101793962D01*
X123233889Y-100757767D01*
X124108732Y-99726120D01*
X125032717Y-98737343D01*
X125971716Y-97829748D01*
X126891633Y-97041642D01*
X127758352Y-96411330D01*
X128075313Y-96206479D01*
X128298897Y-96065802D01*
X128427805Y-95991917D01*
X128460690Y-95987316D01*
X128396368Y-96054852D01*
X128233405Y-96197053D01*
X127970538Y-96416509D01*
X127606474Y-96715839D01*
X125173737Y-98981683D01*
X123265371Y-101332670D01*
X121894327Y-103713277D01*
X121073525Y-106067992D01*
X120815910Y-108341295D01*
X121134420Y-110477667D01*
X122041988Y-112421588D01*
X123551550Y-114117544D01*
X124419070Y-114757866D01*
X125381374Y-115266484D01*
X126456164Y-115646053D01*
X127661137Y-115899204D01*
X129014006Y-116028608D01*
X130532467Y-116036906D01*
X132234224Y-115926737D01*
X134136978Y-115700756D01*
X134945833Y-115589428D01*
X135907604Y-115461435D01*
X136986429Y-115321300D01*
X138146453Y-115173554D01*
X139351802Y-115022729D01*
X140566605Y-114873340D01*
X141755003Y-114729921D01*
X142881137Y-114596997D01*
X144008584Y-114461993D01*
X145200747Y-114312616D01*
X146421508Y-114153812D01*
X147634730Y-113990513D01*
X148804287Y-113827673D01*
X149894054Y-113670244D01*
X150867896Y-113523164D01*
X151689685Y-113391377D01*
X152487555Y-113261987D01*
X153392836Y-113121784D01*
X154374202Y-112975223D01*
X155400331Y-112826769D01*
X156439902Y-112680888D01*
X157461603Y-112542043D01*
X158434107Y-112414699D01*
X159326098Y-112303309D01*
X161400051Y-112026748D01*
X163129155Y-111733632D01*
X164557389Y-111406977D01*
X165728704Y-111029818D01*
X166687097Y-110585202D01*
X167476509Y-110056151D01*
X168140928Y-109425701D01*
X168724307Y-108676891D01*
X169325522Y-107445409D01*
X169597418Y-106034450D01*
X169554889Y-104494304D01*
X169212862Y-102875249D01*
X168586241Y-101227582D01*
X167689931Y-99601570D01*
X166538857Y-98047516D01*
X165147919Y-96615709D01*
X163586502Y-95352209D01*
X161880190Y-94242943D01*
X160018641Y-93284285D01*
X157991478Y-92472605D01*
X155788344Y-91804292D01*
X153398882Y-91275709D01*
X150812736Y-90883240D01*
X148019534Y-90623248D01*
X147594110Y-90594628D01*
X147168682Y-90566036D01*
X146743255Y-90537444D01*
X146317839Y-90508824D01*
X145892403Y-90480204D01*
X145466971Y-90451614D01*
X145041546Y-90422992D01*
X144616124Y-90394400D01*
X145014783Y-90389799D01*
X145413450Y-90385199D01*
X145812116Y-90380627D01*
X146210784Y-90376055D01*
X146609439Y-90371455D01*
X147008104Y-90366826D01*
X147406771Y-90362226D01*
X147805435Y-90357626D01*
X150566835Y-90424324D01*
X153276473Y-90690321D01*
X155921031Y-91151650D01*
X158487162Y-91804345D01*
X160961520Y-92644467D01*
X163330775Y-93668065D01*
X165581590Y-94871181D01*
X167700627Y-96249876D01*
X168493440Y-96838239D01*
X169225147Y-97428030D01*
X169907165Y-98030930D01*
X170550911Y-98658640D01*
X171167784Y-99322850D01*
X171769199Y-100035252D01*
X172366571Y-100807548D01*
X172971305Y-101651418D01*
X173552979Y-102542639D01*
X174039959Y-103406913D01*
X174437622Y-104261403D01*
X174751376Y-105123273D01*
X174986589Y-106009674D01*
X175148663Y-106937779D01*
X175242982Y-107924744D01*
X175274952Y-108987723D01*
X175270380Y-109710694D01*
X175248423Y-110313312D01*
X175202839Y-110824332D01*
X175127502Y-111272526D01*
X175016132Y-111686656D01*
X174862561Y-112095486D01*
X174660555Y-112527785D01*
X174403910Y-113012316D01*
X174037078Y-113647471D01*
X173728868Y-114122096D01*
X173490410Y-114431126D01*
X173332823Y-114569534D01*
X173267201Y-114532283D01*
X173304753Y-114314317D01*
X173456521Y-113910596D01*
X173733655Y-113316075D01*
X174141249Y-112250770D01*
X174397554Y-111044375D01*
X174507003Y-109753600D01*
X174474037Y-108435171D01*
X174303092Y-107145788D01*
X173998585Y-105942183D01*
X173564968Y-104881056D01*
X173006667Y-104019135D01*
X172699867Y-103699211D01*
X172423145Y-103512837D01*
X172176079Y-103460293D01*
X171958263Y-103541917D01*
X171769256Y-103757998D01*
X171608654Y-104108839D01*
X171476030Y-104594756D01*
X171370981Y-105216051D01*
X171249103Y-105978040D01*
X171092188Y-106682193D01*
X170897838Y-107334021D01*
X170663619Y-107939049D01*
X170387140Y-108502800D01*
X170065971Y-109030784D01*
X169697728Y-109528508D01*
X169279977Y-110001502D01*
X168580142Y-110667698D01*
X167843542Y-111223038D01*
X167024745Y-111682773D01*
X166078287Y-112062155D01*
X164958748Y-112376449D01*
X163620668Y-112640914D01*
X162018614Y-112870804D01*
X160107134Y-113081378D01*
X159324374Y-113162890D01*
X158378407Y-113268083D01*
X157305362Y-113392585D01*
X156141379Y-113531992D01*
X154922577Y-113681919D01*
X153685089Y-113837988D01*
X152465045Y-113995804D01*
X151298564Y-114150990D01*
X150122793Y-114306006D01*
X148876099Y-114463370D01*
X147596475Y-114618708D01*
X146321925Y-114767676D01*
X145090444Y-114905909D01*
X143940038Y-115029065D01*
X142908688Y-115132773D01*
X142034400Y-115212701D01*
X140617757Y-115354532D01*
X138850400Y-115563946D01*
X136861910Y-115822411D01*
X134781876Y-116111356D01*
X132739890Y-116412261D01*
X130865545Y-116706577D01*
X129288433Y-116975746D01*
X128138130Y-117201247D01*
X127969660Y-117248968D01*
X127826943Y-117312683D01*
X127708974Y-117393705D01*
X127614729Y-117493397D01*
X127543216Y-117613130D01*
X127493345Y-117754218D01*
X130597826Y-118951983D01*
X130229879Y-118998101D01*
X129901256Y-119030686D01*
X129621202Y-119049002D01*
X129398935Y-119052050D01*
X129243679Y-119039435D01*
X129164668Y-119010216D01*
X129121078Y-118978704D01*
X129067307Y-118959456D01*
X129005506Y-118952542D01*
X128937747Y-118957142D01*
X128866153Y-118972946D01*
X128792882Y-118999870D01*
X128719993Y-119037575D01*
X128649632Y-119085762D01*
X128390171Y-119238853D01*
X128054431Y-119366855D01*
X168082003Y-120986579D01*
X168092586Y-120865099D01*
X168125087Y-120765345D01*
X168180766Y-120686664D01*
X168260915Y-120628383D01*
X168366757Y-120589910D01*
X168499514Y-120570578D01*
X168660448Y-120569731D01*
X168850790Y-120586693D01*
X169005228Y-120612177D01*
X169149299Y-120647969D01*
X169279864Y-120692408D01*
X169393758Y-120743803D01*
X169487831Y-120800555D01*
X169558962Y-120861052D01*
X169603940Y-120923615D01*
X169619603Y-120986565D01*
X169603940Y-121049512D01*
X169558962Y-121112075D01*
X169487831Y-121172575D01*
X169393758Y-121229324D01*
X169279864Y-121280719D01*
X169149299Y-121325155D01*
X169005228Y-121360952D01*
X168850790Y-121386409D01*
X168660448Y-121403370D01*
X168499514Y-121402524D01*
X168366757Y-121383191D01*
X168260915Y-121344719D01*
X168180766Y-121286437D01*
X168125087Y-121207762D01*
X168092586Y-121108011D01*
X168082003Y-120986579D01*
X128054431Y-119366855D01*
X127673321Y-119465915D01*
X127277764Y-119532229D01*
X126898649Y-119561902D01*
X126566922Y-119551205D01*
X126313472Y-119496212D01*
X126169223Y-119393161D01*
X126089712Y-119192704D01*
X126095046Y-119008831D01*
X126170614Y-118851294D01*
X126301325Y-118729863D01*
X126472222Y-118654292D01*
X126668366Y-118634311D01*
X125398149Y-117256625D01*
X125410793Y-117165309D01*
X125446511Y-117078901D01*
X125502806Y-116999365D01*
X125577222Y-116928691D01*
X125667183Y-116868883D01*
X125770237Y-116821845D01*
X125883899Y-116789649D01*
X126005669Y-116774211D01*
X126406668Y-116747711D01*
X126680488Y-116709238D01*
X126821219Y-116649734D01*
X126822630Y-116560103D01*
X126679484Y-116431204D01*
X126385541Y-116253912D01*
X125934905Y-116019100D01*
X125321664Y-115717662D01*
X124553819Y-115296682D01*
X123833687Y-114804873D01*
X123168941Y-114250817D01*
X122567297Y-113643066D01*
X122036437Y-112990201D01*
X121584062Y-112300774D01*
X121217868Y-111583360D01*
X120945549Y-110846509D01*
X120794738Y-110414697D01*
X120643442Y-110109872D01*
X120498001Y-109931485D01*
X120364767Y-109879017D01*
X120250086Y-109951986D01*
X120160316Y-110149818D01*
X120101806Y-110471997D01*
X120080950Y-110918015D01*
X120074854Y-111105792D01*
X120058033Y-111270079D01*
X120031109Y-111408704D01*
X119995013Y-111519530D01*
X119950648Y-111600383D01*
X119898869Y-111649103D01*
X119840666Y-111663581D01*
X119776878Y-111641540D01*
X119715845Y-111614080D01*
X119658934Y-111607955D01*
X119607389Y-111622603D01*
X119562417Y-111656258D01*
X119525246Y-111707729D01*
X119497165Y-111775725D01*
X119479441Y-111858924D01*
X119473345Y-111956043D01*
X119530399Y-112315182D01*
X119692118Y-112706189D01*
X119944202Y-113113199D01*
X120272373Y-113520347D01*
X120662370Y-113911747D01*
X121099911Y-114271541D01*
X121570722Y-114583848D01*
X122060544Y-114832810D01*
X122550967Y-115071237D01*
X122992783Y-115342921D01*
X123380805Y-115642108D01*
X123709876Y-115963079D01*
X123974826Y-116300123D01*
X124170477Y-116647485D01*
X124291663Y-116999453D01*
X124333192Y-117350292D01*
X124341602Y-117479603D01*
X124366777Y-117588557D01*
X124408610Y-117677076D01*
X124467045Y-117745066D01*
X124542003Y-117792408D01*
X124633313Y-117819078D01*
X124740919Y-117825174D01*
X124864715Y-117810273D01*
X124971525Y-117780518D01*
X125071226Y-117734934D01*
X125161636Y-117675808D01*
X125240559Y-117605369D01*
X125305798Y-117525955D01*
X125355209Y-117439818D01*
X125386567Y-117349219D01*
X125398149Y-117256625D01*
X126668366Y-118634311D01*
X126874798Y-118679743D01*
X127076590Y-118800325D01*
X127175551Y-118871532D01*
X127282437Y-118928973D01*
X127393867Y-118972029D01*
X127506446Y-119000110D01*
X127616800Y-119012584D01*
X127721564Y-119008746D01*
X127817336Y-118988116D01*
X127900752Y-118950024D01*
X127981677Y-118891206D01*
X128031009Y-118833845D01*
X128048507Y-118777479D01*
X128033860Y-118721568D01*
X127986822Y-118665584D01*
X127907057Y-118608984D01*
X127794307Y-118551312D01*
X127648291Y-118492113D01*
X127505074Y-118423587D01*
X127373982Y-118329042D01*
X127255722Y-118209645D01*
X127151046Y-118066536D01*
X127060670Y-117900897D01*
X126985336Y-117713863D01*
X126925753Y-117506599D01*
X126882697Y-117280266D01*
X126841696Y-116987483D01*
X126817510Y-116770239D01*
X126812176Y-116625075D01*
X126828291Y-116548508D01*
X126867754Y-116537050D01*
X126932769Y-116587303D01*
X127025562Y-116695730D01*
X127148320Y-116858877D01*
X127230655Y-116976490D01*
X127307471Y-117095912D01*
X127377067Y-117213830D01*
X127437798Y-117326942D01*
X127487971Y-117431932D01*
X127525905Y-117525491D01*
X127549950Y-117604324D01*
X127558304Y-117665129D01*
X127570722Y-117714461D01*
X127606282Y-117760506D01*
X127662498Y-117802263D01*
X127736841Y-117838673D01*
X127826833Y-117868729D01*
X127930002Y-117891448D01*
X128043839Y-117905841D01*
X128165869Y-117911175D01*
X128287910Y-117902511D01*
X128401753Y-117877817D01*
X128504917Y-117838808D01*
X128594917Y-117787181D01*
X128669258Y-117724692D01*
X128725473Y-117653027D01*
X128761036Y-117573954D01*
X128773454Y-117489183D01*
X128785166Y-117389988D01*
X128818666Y-117269550D01*
X128871670Y-117132477D01*
X128941729Y-116983435D01*
X129026568Y-116827025D01*
X129123816Y-116667903D01*
X129231139Y-116510679D01*
X129346170Y-116359998D01*
X129515569Y-116158709D01*
X129660281Y-116008239D01*
X127520046Y-112868009D01*
X126873107Y-112601380D01*
X126284688Y-112297017D01*
X125750301Y-111950880D01*
X125265482Y-111558932D01*
X124825755Y-111117139D01*
X124426644Y-110621455D01*
X124063670Y-110067848D01*
X123732347Y-109452282D01*
X123503758Y-108967625D01*
X123326554Y-108542632D01*
X123196373Y-108152714D01*
X123108867Y-107773317D01*
X123059690Y-107379851D01*
X123044563Y-106947751D01*
X123059041Y-106452437D01*
X123098814Y-105869346D01*
X123231270Y-104800469D01*
X123459444Y-103796128D01*
X123796640Y-102832336D01*
X124256154Y-101885125D01*
X124851276Y-100930505D01*
X125595310Y-99944503D01*
X126501545Y-98903134D01*
X127583292Y-97782423D01*
X128373350Y-97008556D01*
X129066435Y-96363348D01*
X129701734Y-95818662D01*
X130318451Y-95346358D01*
X130955768Y-94918289D01*
X131652880Y-94506337D01*
X132448978Y-94082352D01*
X133383264Y-93618200D01*
X134756139Y-92979249D01*
X136071786Y-92426805D01*
X137354213Y-91953990D01*
X138627453Y-91553909D01*
X139915506Y-91219687D01*
X141242411Y-90944430D01*
X142632164Y-90721266D01*
X144108790Y-90543299D01*
X148239307Y-90397531D01*
X152235720Y-90790362D01*
X156004366Y-91677277D01*
X159451622Y-93013813D01*
X162483829Y-94755472D01*
X165007344Y-96857762D01*
X166928544Y-99276215D01*
X168153761Y-101966331D01*
X168364603Y-102925263D01*
X168408432Y-103835018D01*
X168288225Y-104689248D01*
X168007042Y-105481590D01*
X167567879Y-106205696D01*
X166973753Y-106855208D01*
X166227699Y-107423790D01*
X165332715Y-107905075D01*
X163303402Y-108465771D01*
X159490704Y-109235092D01*
X154458742Y-110124998D01*
X148771642Y-111047430D01*
X142993524Y-111914366D01*
X137688508Y-112637761D01*
X133420723Y-113129562D01*
X130754284Y-113301726D01*
X130307041Y-113289026D01*
X129845534Y-113260888D01*
X129383054Y-113219128D01*
X128932842Y-113165511D01*
X128508171Y-113101799D01*
X128122317Y-113029830D01*
X127788527Y-112951304D01*
X127520046Y-112868009D01*
X129660281Y-116008239D01*
X129787445Y-115906566D01*
X129904163Y-115851648D01*
X130017591Y-115841545D01*
X130134835Y-115874203D01*
X130263020Y-115947629D01*
X130409285Y-116059787D01*
X130507803Y-116158669D01*
X130599703Y-116284024D01*
X130682992Y-116430743D01*
X130755650Y-116593701D01*
X130815696Y-116767787D01*
X130861046Y-116947915D01*
X130889728Y-117128955D01*
X130899747Y-117305793D01*
X130899747Y-117410669D01*
X130899747Y-117515542D01*
X130899747Y-117620413D01*
X130899747Y-117725293D01*
X130899747Y-117830166D01*
X130899747Y-117935043D01*
X130899747Y-118039914D01*
X130899747Y-118144791D01*
X131326888Y-118145637D01*
X131754026Y-118146484D01*
X132181164Y-118147331D01*
X132608304Y-118148177D01*
X133035439Y-118149024D01*
X133462577Y-118149871D01*
X133889717Y-118150717D01*
X134316855Y-118151564D01*
X135055981Y-118160059D01*
X135847389Y-118180633D01*
X136666460Y-118211990D01*
X137488607Y-118252755D01*
X143577250Y-117724545D01*
X143678252Y-117870666D01*
X143824460Y-117983994D01*
X143983523Y-118050226D01*
X144148544Y-118071252D01*
X144312617Y-118048985D01*
X144468827Y-117985200D01*
X144610279Y-117881802D01*
X144730060Y-117740626D01*
X144821393Y-117563600D01*
X144863613Y-117329070D01*
X144828124Y-117085103D01*
X144729665Y-116848880D01*
X144582977Y-116637550D01*
X144402807Y-116468287D01*
X144203882Y-116358251D01*
X144000959Y-116324602D01*
X143808780Y-116384563D01*
X143684782Y-116500418D01*
X143588813Y-116667555D01*
X143522270Y-116870304D01*
X143486473Y-117093025D01*
X143482635Y-117320076D01*
X143512466Y-117535801D01*
X143577250Y-117724545D01*
X137488607Y-118252755D01*
X139886824Y-116409113D01*
X139701340Y-116552313D01*
X139579832Y-116747549D01*
X139536389Y-116979321D01*
X139584954Y-117232135D01*
X139739674Y-117490515D01*
X139921445Y-117689107D01*
X140088605Y-117826667D01*
X140244047Y-117902845D01*
X140390712Y-117917323D01*
X140531502Y-117869751D01*
X140669345Y-117759798D01*
X140807143Y-117587129D01*
X140947777Y-117351693D01*
X141028758Y-117186271D01*
X141079772Y-117044328D01*
X141099528Y-116921592D01*
X141086828Y-116813809D01*
X141040399Y-116716707D01*
X140959052Y-116626018D01*
X140841548Y-116537488D01*
X140686659Y-116446849D01*
X140393538Y-116341041D01*
X140122243Y-116333393D01*
X139886824Y-116409113D01*
X137488607Y-118252755D01*
X138289215Y-118301633D01*
X139043694Y-118357233D01*
X139727419Y-118418270D01*
X140315799Y-118483356D01*
X143128471Y-116182068D01*
X143979163Y-116216260D01*
X145034987Y-116241688D01*
X146261332Y-116257605D01*
X147623579Y-116263701D01*
X149087153Y-116259101D01*
X150617432Y-116242986D01*
X153036469Y-116210635D01*
X154869843Y-116194294D01*
X156195890Y-116198923D01*
X157092945Y-116230055D01*
X157639361Y-116292465D01*
X157913463Y-116391226D01*
X157993606Y-116531445D01*
X157958116Y-116718172D01*
X157928593Y-116844125D01*
X157915611Y-116979185D01*
X157918659Y-117119128D01*
X157936439Y-117259745D01*
X157968482Y-117396837D01*
X158014070Y-117526177D01*
X158072431Y-117643564D01*
X158142791Y-117744786D01*
X158352545Y-117926933D01*
X158568608Y-117995693D01*
X158776835Y-117964177D01*
X158963059Y-117845528D01*
X159113100Y-117652852D01*
X159212783Y-117399262D01*
X159247971Y-117097877D01*
X159204187Y-116761623D01*
X159156155Y-116545161D01*
X159139899Y-116377832D01*
X159164453Y-116253369D01*
X159238643Y-116165544D01*
X159371372Y-116108101D01*
X159571536Y-116074832D01*
X159848026Y-116059480D01*
X160209728Y-116055641D01*
X160571000Y-116060975D01*
X160854433Y-116082001D01*
X161071775Y-116126897D01*
X161234829Y-116203639D01*
X161355335Y-116320275D01*
X161445071Y-116484842D01*
X161515821Y-116705345D01*
X161579380Y-116989825D01*
X161633299Y-117222825D01*
X161694564Y-117415597D01*
X161764622Y-117569817D01*
X161844886Y-117687182D01*
X161936834Y-117769359D01*
X162041923Y-117818000D01*
X162161605Y-117834821D01*
X162297325Y-117821613D01*
X162536788Y-117731011D01*
X162723371Y-117572992D01*
X162854136Y-117365197D01*
X162926184Y-117125244D01*
X162936542Y-116870778D01*
X162882234Y-116619431D01*
X162760381Y-116388836D01*
X162568033Y-116196620D01*
X162460879Y-116097766D01*
X162438244Y-116013171D01*
X162509988Y-115940284D01*
X162686016Y-115876570D01*
X162976197Y-115819439D01*
X163390397Y-115766356D01*
X163938484Y-115714732D01*
X164630343Y-115661959D01*
X165668438Y-115567073D01*
X166590743Y-115434316D01*
X167411748Y-115258489D01*
X168145974Y-115034376D01*
X168807892Y-114756766D01*
X169412029Y-114420430D01*
X169972872Y-114020185D01*
X170504928Y-113550808D01*
X170872534Y-113154034D01*
X171160457Y-112762420D01*
X171364154Y-112395322D01*
X171479086Y-112072101D01*
X171500733Y-111812118D01*
X171424555Y-111634721D01*
X171246004Y-111559306D01*
X170960556Y-111605198D01*
X170809096Y-111656444D01*
X170581419Y-111734741D01*
X170288695Y-111836206D01*
X169942062Y-111956949D01*
X169552697Y-112093082D01*
X169131751Y-112240701D01*
X168690395Y-112395926D01*
X168239776Y-112554845D01*
X167602186Y-112765665D01*
X166959636Y-112945782D01*
X166283638Y-113099687D01*
X165545737Y-113231882D01*
X164717446Y-113346848D01*
X163770302Y-113449100D01*
X162675822Y-113543117D01*
X161405540Y-113633391D01*
X159257956Y-113796829D01*
X156554563Y-114035236D01*
X153534058Y-114323777D01*
X150435122Y-114637625D01*
X147496455Y-114951942D01*
X144956758Y-115241894D01*
X143054704Y-115482638D01*
X142028993Y-115649361D01*
X141934076Y-115672080D01*
X141839150Y-115694799D01*
X141744239Y-115717518D01*
X141649311Y-115740237D01*
X141554396Y-115762955D01*
X141459477Y-115785674D01*
X141364554Y-115808393D01*
X141269643Y-115831084D01*
X141383539Y-115863441D01*
X141497447Y-115895792D01*
X141611343Y-115928143D01*
X141725254Y-115960497D01*
X141839150Y-115992848D01*
X141953052Y-116025202D01*
X142066960Y-116057553D01*
X142180859Y-116089909D01*
X142517505Y-116139775D01*
X143128471Y-116182068D01*
X140315799Y-118483356D01*
X140888279Y-118552269D01*
X141526451Y-118624165D01*
X142208901Y-118696978D01*
X142914231Y-118768564D01*
X143621002Y-118836791D01*
X144307830Y-118899509D01*
X144953292Y-118954653D01*
X145535977Y-119000082D01*
X146370437Y-119058976D01*
X147005216Y-119094846D01*
X147465304Y-119103624D01*
X147775661Y-119081328D01*
X147961258Y-119023887D01*
X148047096Y-118927339D01*
X148058075Y-118787664D01*
X148019297Y-118600831D01*
X147985258Y-118442162D01*
X147975776Y-118313297D01*
X147993048Y-118211903D01*
X148039400Y-118135573D01*
X148117099Y-118082038D01*
X148228393Y-118048911D01*
X148375532Y-118033953D01*
X148560786Y-118034800D01*
X148852217Y-118002901D01*
X149086823Y-117896184D01*
X149258349Y-117734490D01*
X149360547Y-117537666D01*
X149387132Y-117325571D01*
X149331910Y-117118041D01*
X149188600Y-116934930D01*
X148950952Y-116796088D01*
X148826281Y-116760446D01*
X148701860Y-116748762D01*
X148578696Y-116760615D01*
X148457817Y-116795645D01*
X148340212Y-116853390D01*
X148226908Y-116933431D01*
X148118927Y-117035367D01*
X148017265Y-117158777D01*
X147889354Y-117329846D01*
X147790980Y-117447716D01*
X147718324Y-117509974D01*
X147667462Y-117514574D01*
X147634645Y-117458511D01*
X147615990Y-117339769D01*
X147607580Y-117155924D01*
X147605322Y-116904605D01*
X147558897Y-116525998D01*
X147431282Y-116260865D01*
X147239870Y-116108233D01*
X147002044Y-116067162D01*
X146735212Y-116136611D01*
X146456783Y-116315624D01*
X146184151Y-116603240D01*
X145934714Y-116998464D01*
X145825946Y-117187293D01*
X145704153Y-117360772D01*
X145572787Y-117515872D01*
X145435308Y-117649570D01*
X145295182Y-117758826D01*
X145155871Y-117840614D01*
X145020828Y-117891936D01*
X144893523Y-117909660D01*
X144760193Y-117894166D01*
X144631096Y-117848274D01*
X144507311Y-117773166D01*
X144389912Y-117669983D01*
X144279989Y-117539808D01*
X144178626Y-117383748D01*
X144086906Y-117202911D01*
X144005903Y-116998416D01*
X143844407Y-116625143D01*
X143656616Y-116355669D01*
X143442934Y-116190019D01*
X143203771Y-116128218D01*
X142939506Y-116170286D01*
X142650570Y-116316186D01*
X142337337Y-116565978D01*
X142000226Y-116919670D01*
X141764895Y-117190019D01*
X141579001Y-117386500D01*
X141427289Y-117512012D01*
X141294540Y-117569450D01*
X141165472Y-117561717D01*
X141024857Y-117491658D01*
X140857435Y-117362240D01*
X140647955Y-117176317D01*
X140520148Y-117052312D01*
X140400918Y-116920514D01*
X140292866Y-116784946D01*
X140198618Y-116649663D01*
X140120761Y-116518680D01*
X140061952Y-116396058D01*
X140024701Y-116285813D01*
X140011719Y-116191988D01*
X139953209Y-115973997D01*
X139796185Y-115837204D01*
X139568345Y-115777085D01*
X139297434Y-115789023D01*
X139011142Y-115868536D01*
X138737192Y-116011050D01*
X138503306Y-116212009D01*
X138337201Y-116466870D01*
X138161185Y-116764126D01*
X137941870Y-116972688D01*
X137692586Y-117093099D01*
X137426617Y-117125910D01*
X137157278Y-117071607D01*
X136897856Y-116930762D01*
X136661668Y-116703894D01*
X136462018Y-116391559D01*
X136362317Y-116179819D01*
X136291496Y-115998618D01*
X136249507Y-115842386D01*
X136236525Y-115705550D01*
X136252527Y-115582552D01*
X136297649Y-115467835D01*
X136371918Y-115355829D01*
X136475412Y-115240962D01*
X136880472Y-115060352D01*
X137796954Y-114851392D01*
X139283597Y-114606581D01*
X141399138Y-114318438D01*
X144202307Y-113979466D01*
X147751864Y-113582193D01*
X152106535Y-113119115D01*
X157325053Y-112582754D01*
X160506718Y-112257355D01*
X162965170Y-111996330D01*
X164817953Y-111781588D01*
X166182580Y-111595053D01*
X167176597Y-111418622D01*
X167917521Y-111234232D01*
X168522873Y-111023779D01*
X169110195Y-110769185D01*
X169461581Y-110600425D01*
X169835040Y-110406835D01*
X170219114Y-110195250D01*
X170602388Y-109972481D01*
X170973409Y-109745357D01*
X171320748Y-109520699D01*
X171632959Y-109305324D01*
X171898615Y-109106056D01*
X172420210Y-108716513D01*
X172863586Y-108437449D01*
X173231424Y-108268835D01*
X173526380Y-108210630D01*
X173751136Y-108262793D01*
X173908370Y-108425341D01*
X174000759Y-108698225D01*
X174030970Y-109081392D01*
X173945926Y-109887676D01*
X171520118Y-117894929D01*
X171730958Y-117647225D01*
X171912128Y-117461799D01*
X172064116Y-117338519D01*
X172187393Y-117277251D01*
X172282449Y-117277816D01*
X172349753Y-117340150D01*
X172389752Y-117464128D01*
X172402960Y-117649596D01*
X172388708Y-117743847D01*
X172347935Y-117857602D01*
X172283465Y-117986524D01*
X172198197Y-118126283D01*
X172094968Y-118272531D01*
X171976633Y-118420943D01*
X171846040Y-118567173D01*
X171706063Y-118706890D01*
X171618964Y-118788723D01*
X171531865Y-118870551D01*
X171444759Y-118952387D01*
X171357654Y-119034212D01*
X171270558Y-119116036D01*
X171183461Y-119197864D01*
X171096348Y-119279694D01*
X171009248Y-119361527D01*
X170942173Y-119283154D01*
X170875097Y-119204770D01*
X170808018Y-119126402D01*
X170740942Y-119048026D01*
X170673867Y-118969650D01*
X170606788Y-118891274D01*
X170539715Y-118812899D01*
X170472637Y-118734528D01*
X170472637Y-118734523D01*
X170472637Y-118734514D01*
X170472637Y-118734506D01*
X170472637Y-118734494D01*
X170472637Y-118734489D01*
X170472637Y-118734480D01*
X170472637Y-118734472D01*
X170472781Y-118734785D01*
X170343859Y-118597842D01*
X170211558Y-118483483D01*
X170077229Y-118392258D01*
X169942251Y-118324725D01*
X169807975Y-118281511D01*
X169675779Y-118263082D01*
X169547021Y-118269968D01*
X169423069Y-118302858D01*
X169294463Y-118349205D01*
X169197681Y-118377655D01*
X169132211Y-118387815D01*
X169097563Y-118379236D01*
X169092962Y-118351465D01*
X169118532Y-118303967D01*
X169173370Y-118236358D01*
X169257035Y-118148113D01*
X169355491Y-118061767D01*
X169456620Y-118000736D01*
X169563644Y-117965089D01*
X169679776Y-117954985D01*
X169808232Y-117970423D01*
X169952244Y-118011421D01*
X170115016Y-118078113D01*
X170299778Y-118170569D01*
X170506275Y-118274114D01*
X170680394Y-118342031D01*
X170830596Y-118372471D01*
X170965385Y-118363468D01*
X171093255Y-118313145D01*
X171222662Y-118219552D01*
X171362125Y-118080786D01*
X171520118Y-117894929D01*
X173945926Y-109887676D01*
X173121933Y-114331952D01*
X173147417Y-114241878D01*
X173181149Y-114156210D01*
X173221992Y-114077439D01*
X173268722Y-114008066D01*
X173320352Y-113950552D01*
X173375645Y-113907414D01*
X173427732Y-113885626D01*
X173470028Y-113889465D01*
X173502075Y-113916784D01*
X173523411Y-113965964D01*
X173533571Y-114035182D01*
X173532160Y-114122679D01*
X173518500Y-114226650D01*
X173492197Y-114345293D01*
X173422138Y-114582018D01*
X173352765Y-114759502D01*
X173286762Y-114876579D01*
X173226798Y-114932109D01*
X173175476Y-114925195D01*
X173135553Y-114854140D01*
X173109616Y-114718055D01*
X173100427Y-114515329D01*
X173105761Y-114423934D01*
X173121933Y-114331952D01*
X173945926Y-109887676D01*
X173699949Y-110694998D01*
X171720970Y-114709290D01*
X171803458Y-114661104D01*
X171886254Y-114626306D01*
X171966193Y-114606550D01*
X172034573Y-114603446D01*
X172090478Y-114616597D01*
X172133003Y-114644904D01*
X172161308Y-114687426D01*
X172174516Y-114743337D01*
X172171468Y-114811714D01*
X172151740Y-114891688D01*
X172116939Y-114974480D01*
X172068679Y-115056965D01*
X172009252Y-115136953D01*
X171940796Y-115212291D01*
X171865462Y-115280744D01*
X171785461Y-115340177D01*
X171702979Y-115388434D01*
X171620186Y-115423235D01*
X171540247Y-115442991D01*
X171471867Y-115446039D01*
X171415959Y-115432887D01*
X171373354Y-115404580D01*
X171345050Y-115362055D01*
X171331842Y-115306149D01*
X171334919Y-115237773D01*
X171354688Y-115157781D01*
X171389492Y-115074988D01*
X171437749Y-114992500D01*
X171497179Y-114912507D01*
X171565632Y-114837171D01*
X171640966Y-114768715D01*
X171720970Y-114709290D01*
X173699949Y-110694998D01*
X173306740Y-111486211D01*
X172780015Y-112244209D01*
X172133483Y-112951861D01*
X171380847Y-113592032D01*
X170535821Y-114147600D01*
X169612130Y-114601445D01*
X169082650Y-114824871D01*
X168679924Y-115011810D01*
X168386639Y-115181527D01*
X166222472Y-117009236D01*
X166068463Y-116999443D01*
X165862314Y-117037379D01*
X165691428Y-117141344D01*
X165560376Y-117296375D01*
X165473767Y-117487572D01*
X165436218Y-117700012D01*
X165452220Y-117918779D01*
X165526486Y-118128958D01*
X165663508Y-118315632D01*
X165839406Y-118453410D01*
X166016238Y-118523624D01*
X166186500Y-118530510D01*
X166342665Y-118478121D01*
X166477211Y-118370614D01*
X166582630Y-118212132D01*
X166651385Y-118006796D01*
X166675946Y-117758759D01*
X166668129Y-117566247D01*
X166643660Y-117405174D01*
X166601214Y-117273780D01*
X166539258Y-117170250D01*
X166456442Y-117092836D01*
X166351315Y-117039756D01*
X166222472Y-117009236D01*
X168386639Y-115181527D01*
X168185494Y-115353309D01*
X168059174Y-115546456D01*
X167990343Y-115780243D01*
X167552314Y-118522210D01*
X167578391Y-118436826D01*
X167619616Y-118359452D01*
X167674226Y-118291911D01*
X167740311Y-118236155D01*
X167816028Y-118194013D01*
X167899631Y-118167428D01*
X167989242Y-118158115D01*
X168083276Y-118166299D01*
X168161225Y-118190260D01*
X168222564Y-118229043D01*
X168266700Y-118281813D01*
X168293088Y-118347588D01*
X168301188Y-118425441D01*
X168290463Y-118514454D01*
X168260404Y-118613712D01*
X168219716Y-118705234D01*
X168171069Y-118790623D01*
X168116307Y-118867991D01*
X168057190Y-118935448D01*
X167995620Y-118991207D01*
X167933359Y-119033348D01*
X167872326Y-119060046D01*
X167814278Y-119069360D01*
X167759821Y-119060046D01*
X167708956Y-119033348D01*
X167662911Y-118991207D01*
X167622760Y-118935448D01*
X167589565Y-118867991D01*
X167564475Y-118790623D01*
X167548671Y-118705234D01*
X167543227Y-118613737D01*
X167552314Y-118522210D01*
X167990343Y-115780243D01*
X167961720Y-116073963D01*
X167956357Y-116446906D01*
X167960986Y-116791742D01*
X167979584Y-117061524D01*
X168017603Y-117265223D01*
X168080778Y-117411792D01*
X168174888Y-117510186D01*
X168305684Y-117569385D01*
X168478912Y-117598298D01*
X168700332Y-117605947D01*
X168856161Y-117595081D01*
X169013748Y-117564025D01*
X169168776Y-117514842D01*
X169316914Y-117449836D01*
X169453851Y-117371087D01*
X169575266Y-117280816D01*
X169676818Y-117181203D01*
X169754198Y-117074430D01*
X169847100Y-116919269D01*
X169919763Y-116811308D01*
X169974678Y-116751728D01*
X170014449Y-116741709D01*
X170041599Y-116782397D01*
X170058730Y-116874983D01*
X170068353Y-117020630D01*
X170072954Y-117220511D01*
X170064430Y-117388549D01*
X175584677Y-113204370D01*
X175448000Y-113302719D01*
X175312160Y-113391839D01*
X175181001Y-113469588D01*
X175058364Y-113533831D01*
X174948105Y-113582398D01*
X174854074Y-113613070D01*
X174780115Y-113623766D01*
X174733080Y-113612986D01*
X174716316Y-113582161D01*
X174728169Y-113533444D01*
X174767020Y-113468968D01*
X174831344Y-113390899D01*
X174919502Y-113301404D01*
X175029882Y-113202649D01*
X175161036Y-113096542D01*
X175500643Y-112749888D01*
X175836704Y-112251856D01*
X176156352Y-111636905D01*
X176446739Y-110939491D01*
X176694990Y-110194095D01*
X176888236Y-109435154D01*
X177013622Y-108697134D01*
X177058289Y-108014509D01*
X177077480Y-107363203D01*
X177128957Y-106931735D01*
X177203529Y-106711921D01*
X177292113Y-106695524D01*
X177385509Y-106874475D01*
X177474572Y-107240552D01*
X177550140Y-107785554D01*
X177603065Y-108501309D01*
X177618870Y-108929392D01*
X177621918Y-109294489D01*
X177612350Y-109596407D01*
X177590083Y-109834984D01*
X177555209Y-110010026D01*
X177507708Y-110121346D01*
X177447671Y-110168768D01*
X177375086Y-110152117D01*
X177311375Y-110122819D01*
X177251947Y-110114861D01*
X177198105Y-110127053D01*
X177151143Y-110158179D01*
X177112366Y-110207060D01*
X177083071Y-110272372D01*
X177064557Y-110353014D01*
X177058461Y-110447736D01*
X177064557Y-110552226D01*
X177083297Y-110637293D01*
X177113816Y-110702459D01*
X177155498Y-110747354D01*
X177207740Y-110771456D01*
X177269916Y-110774504D01*
X177341431Y-110755680D01*
X177421630Y-110714763D01*
X177533712Y-110696391D01*
X177486979Y-110860760D01*
X177314386Y-111161710D01*
X177048933Y-111553054D01*
X176723610Y-111988630D01*
X176371411Y-112422256D01*
X176025319Y-112807752D01*
X175718329Y-113098955D01*
X175584677Y-113204370D01*
X170064430Y-117388549D01*
X170033146Y-117537578D01*
X169978234Y-117668622D01*
X169898837Y-117782708D01*
X169794073Y-117880837D01*
X169663079Y-117964036D01*
X169504981Y-118033330D01*
X169318909Y-118089698D01*
X169160927Y-118136507D01*
X169004519Y-118196319D01*
X169554350Y-119837429D01*
X169638187Y-119809123D01*
X169723625Y-119789960D01*
X169808300Y-119779856D01*
X169889814Y-119778445D01*
X169965766Y-119786093D01*
X170033838Y-119802547D01*
X170091504Y-119827636D01*
X170136479Y-119861289D01*
X170161484Y-119897695D01*
X170161743Y-119930656D01*
X170139025Y-119959570D01*
X170094967Y-119983812D01*
X170031185Y-120002693D01*
X169949281Y-120015619D01*
X169850918Y-120021715D01*
X169737713Y-120020868D01*
X169618296Y-120012740D01*
X169525682Y-119999673D01*
X169460291Y-119981950D01*
X169422431Y-119959993D01*
X169412497Y-119934141D01*
X169430954Y-119904847D01*
X169478069Y-119872422D01*
X169554246Y-119837317D01*
X169554246Y-119837311D01*
X169554246Y-119837302D01*
X169554246Y-119837294D01*
X169554246Y-119837286D01*
X169554350Y-119837429D01*
X169004519Y-118196319D01*
X168853745Y-118266685D01*
X168712693Y-118345070D01*
X168585417Y-118429062D01*
X168475979Y-118516181D01*
X168388476Y-118603986D01*
X168326983Y-118689990D01*
X168244512Y-118797610D01*
X168126585Y-118877809D01*
X167963469Y-118931124D01*
X167745413Y-118958104D01*
X167462661Y-118959515D01*
X167105458Y-118935555D01*
X166664065Y-118886911D01*
X166128720Y-118814176D01*
X164986214Y-118678377D01*
X163763916Y-118588345D01*
X162474010Y-118543915D01*
X161128711Y-118544761D01*
X159740161Y-118590803D01*
X158320566Y-118681747D01*
X156882122Y-118817422D01*
X155436986Y-118997612D01*
X154723666Y-119096147D01*
X154010268Y-119192055D01*
X153315829Y-119282976D01*
X152659380Y-119366494D01*
X152059983Y-119440224D01*
X151536669Y-119501797D01*
X151108479Y-119548832D01*
X150794459Y-119578968D01*
X150531755Y-119603352D01*
X150250645Y-119634100D01*
X149959840Y-119669894D01*
X149668087Y-119709512D01*
X149384113Y-119751657D01*
X149116648Y-119795178D01*
X148874416Y-119838770D01*
X148666151Y-119881216D01*
X148478718Y-119917702D01*
X148296205Y-119944005D01*
X148123152Y-119960261D01*
X147964097Y-119966385D01*
X147823587Y-119962547D01*
X147706169Y-119948295D01*
X147616374Y-119923854D01*
X147558784Y-119889209D01*
X147558790Y-119889150D01*
X147558798Y-119889085D01*
X147558798Y-119889025D01*
X147558807Y-119888963D01*
X147558815Y-119888901D01*
X147558815Y-119888845D01*
X147558821Y-119888783D01*
X147559292Y-119889144D01*
X147559292Y-119889144D01*
G37*
M02*
