G04 #@! TF.FileFunction,Legend,Top*
%FSLAX46Y46*%
G04 Gerber Fmt 4.6, Leading zero omitted, Abs format (unit mm)*
G04 Created by KiCad (PCBNEW 4.0.7-e2-6376~58~ubuntu16.04.1) date Tue Nov 28 22:20:31 2017*
%MOMM*%
%LPD*%
G01*
G04 APERTURE LIST*
%ADD10C,0.100000*%
%ADD11C,0.150000*%
%ADD12C,0.120000*%
%ADD13C,0.800000*%
%ADD14C,1.400000*%
%ADD15C,3.000000*%
%ADD16R,2.000000X1.900000*%
%ADD17C,1.900000*%
%ADD18C,4.000000*%
%ADD19C,2.499360*%
%ADD20C,2.000000*%
%ADD21O,1.500000X0.900000*%
%ADD22R,1.500000X0.900000*%
%ADD23R,1.200000X1.700000*%
%ADD24O,1.200000X1.700000*%
%ADD25R,1.200000X2.500000*%
G04 APERTURE END LIST*
D10*
G36*
X150479258Y-83829448D02*
X150560116Y-83837928D01*
X150650115Y-83862071D01*
X150746035Y-83899923D01*
X150844654Y-83949535D01*
X150942754Y-84008957D01*
X151037113Y-84076236D01*
X151124510Y-84149423D01*
X151201726Y-84226566D01*
X151265539Y-84305715D01*
X151432663Y-84542824D01*
X152133541Y-84542824D01*
X152349067Y-84543399D01*
X152516621Y-84545775D01*
X152642963Y-84550929D01*
X152734856Y-84559839D01*
X152799059Y-84573481D01*
X152842336Y-84592833D01*
X152871448Y-84618871D01*
X152893156Y-84652573D01*
X152920974Y-84726809D01*
X152920974Y-84797839D01*
X152893156Y-84872074D01*
X152871351Y-84905852D01*
X152841866Y-84931933D01*
X152797656Y-84951309D01*
X152731681Y-84964969D01*
X152636896Y-84973902D01*
X152506260Y-84979100D01*
X152332730Y-84981552D01*
X152109262Y-84982248D01*
X151384100Y-84982666D01*
X151262297Y-85196008D01*
X151206445Y-85280404D01*
X151139275Y-85356816D01*
X151059169Y-85426656D01*
X150964510Y-85491335D01*
X150853679Y-85552264D01*
X150759945Y-85599141D01*
X150679131Y-85638553D01*
X150610279Y-85668941D01*
X150552434Y-85688748D01*
X150504638Y-85696413D01*
X150465934Y-85690377D01*
X150435366Y-85669083D01*
X150411977Y-85630970D01*
X150394811Y-85574481D01*
X150382910Y-85498055D01*
X150375319Y-85400134D01*
X150371080Y-85279160D01*
X150369236Y-85133572D01*
X150368832Y-84961813D01*
X150368910Y-84762322D01*
X150369131Y-84517994D01*
X150370189Y-84320482D01*
X150372669Y-84164815D01*
X150377161Y-84046026D01*
X150384251Y-83959145D01*
X150394528Y-83899203D01*
X150408579Y-83861232D01*
X150426993Y-83840261D01*
X150450356Y-83831323D01*
X150479258Y-83829448D01*
X150479258Y-83829448D01*
G37*
G36*
X149657177Y-83943730D02*
X149768548Y-83900226D01*
X149867748Y-83869542D01*
X149943975Y-83854493D01*
X149986424Y-83857896D01*
X149996907Y-83881522D01*
X150006307Y-83936037D01*
X150014596Y-84017320D01*
X150021747Y-84121251D01*
X150027731Y-84243710D01*
X150032521Y-84380577D01*
X150036089Y-84527733D01*
X150038409Y-84681056D01*
X150039452Y-84836427D01*
X150039190Y-84989727D01*
X150037596Y-85136834D01*
X150034642Y-85273628D01*
X150030301Y-85395991D01*
X150024545Y-85499801D01*
X150017346Y-85580939D01*
X150008677Y-85635284D01*
X149998511Y-85658717D01*
X149959803Y-85659094D01*
X149884832Y-85641727D01*
X149784402Y-85609658D01*
X149669315Y-85565929D01*
X149381273Y-85448253D01*
X149381219Y-84755359D01*
X149381165Y-84062462D01*
X149657177Y-83943730D01*
X149657177Y-83943730D01*
G37*
G36*
X148722671Y-84048949D02*
X148997048Y-84048949D01*
X148997048Y-84762322D01*
X148997048Y-85475699D01*
X148722671Y-85475699D01*
X148448302Y-85475699D01*
X148448302Y-84762322D01*
X148448302Y-84048949D01*
X148722671Y-84048949D01*
X148722671Y-84048949D01*
G37*
G36*
X144453411Y-84608670D02*
X144484918Y-84591092D01*
X144541648Y-84576267D01*
X144623813Y-84564179D01*
X144731628Y-84554809D01*
X144865305Y-84548139D01*
X145025057Y-84544150D01*
X145211098Y-84542824D01*
X145902926Y-84542824D01*
X146071160Y-84304147D01*
X146131746Y-84225172D01*
X146197048Y-84153396D01*
X146266984Y-84088839D01*
X146341472Y-84031517D01*
X146420429Y-83981449D01*
X146503775Y-83938653D01*
X146591426Y-83903145D01*
X146683301Y-83874945D01*
X146779317Y-83854070D01*
X146879392Y-83840538D01*
X146983444Y-83834366D01*
X147091392Y-83835574D01*
X147203152Y-83844178D01*
X147318644Y-83860196D01*
X147437784Y-83883646D01*
X147560490Y-83914546D01*
X147686682Y-83952915D01*
X148061732Y-84076394D01*
X148062948Y-84769812D01*
X148064173Y-85463242D01*
X147913209Y-85491690D01*
X147835140Y-85510043D01*
X147734126Y-85538983D01*
X147623208Y-85574538D01*
X147515428Y-85612734D01*
X147420063Y-85643363D01*
X147321220Y-85665459D01*
X147219807Y-85679297D01*
X147116732Y-85685156D01*
X147012902Y-85683313D01*
X146909225Y-85674046D01*
X146806609Y-85657631D01*
X146705961Y-85634346D01*
X146608190Y-85604469D01*
X146514203Y-85568276D01*
X146424908Y-85526046D01*
X146341212Y-85478056D01*
X146264023Y-85424582D01*
X146194250Y-85365903D01*
X146132799Y-85302296D01*
X146080579Y-85234038D01*
X146038498Y-85161407D01*
X145951492Y-84984319D01*
X145226339Y-84983070D01*
X145005346Y-84982090D01*
X144832959Y-84979395D01*
X144702481Y-84974064D01*
X144607216Y-84965178D01*
X144540469Y-84951815D01*
X144495542Y-84933058D01*
X144465739Y-84907985D01*
X144444365Y-84875678D01*
X144396240Y-84763535D01*
X144398957Y-84683307D01*
X144453411Y-84608670D01*
X144453411Y-84608670D01*
G37*
G36*
X151629258Y-80529448D02*
X151710116Y-80537928D01*
X151800115Y-80562071D01*
X151896035Y-80599923D01*
X151994654Y-80649535D01*
X152092754Y-80708957D01*
X152187113Y-80776236D01*
X152274510Y-80849423D01*
X152351726Y-80926566D01*
X152415539Y-81005715D01*
X152582663Y-81242824D01*
X153283541Y-81242824D01*
X153499067Y-81243399D01*
X153666621Y-81245775D01*
X153792963Y-81250929D01*
X153884856Y-81259839D01*
X153949059Y-81273481D01*
X153992336Y-81292833D01*
X154021448Y-81318871D01*
X154043156Y-81352573D01*
X154070974Y-81426809D01*
X154070974Y-81497839D01*
X154043156Y-81572074D01*
X154021351Y-81605852D01*
X153991866Y-81631933D01*
X153947656Y-81651309D01*
X153881681Y-81664969D01*
X153786896Y-81673902D01*
X153656260Y-81679100D01*
X153482730Y-81681552D01*
X153259262Y-81682248D01*
X152534100Y-81682666D01*
X152412297Y-81896008D01*
X152356445Y-81980404D01*
X152289275Y-82056816D01*
X152209169Y-82126656D01*
X152114510Y-82191335D01*
X152003679Y-82252264D01*
X151909945Y-82299141D01*
X151829131Y-82338553D01*
X151760279Y-82368941D01*
X151702434Y-82388748D01*
X151654638Y-82396413D01*
X151615934Y-82390377D01*
X151585366Y-82369083D01*
X151561977Y-82330970D01*
X151544811Y-82274481D01*
X151532910Y-82198055D01*
X151525319Y-82100134D01*
X151521080Y-81979160D01*
X151519236Y-81833572D01*
X151518832Y-81661813D01*
X151518910Y-81462322D01*
X151519131Y-81217994D01*
X151520189Y-81020482D01*
X151522669Y-80864815D01*
X151527161Y-80746026D01*
X151534251Y-80659145D01*
X151544528Y-80599203D01*
X151558579Y-80561232D01*
X151576993Y-80540261D01*
X151600356Y-80531323D01*
X151629258Y-80529448D01*
X151629258Y-80529448D01*
G37*
G36*
X150807177Y-80643730D02*
X150918548Y-80600226D01*
X151017748Y-80569542D01*
X151093975Y-80554493D01*
X151136424Y-80557896D01*
X151146907Y-80581522D01*
X151156307Y-80636037D01*
X151164596Y-80717320D01*
X151171747Y-80821251D01*
X151177731Y-80943710D01*
X151182521Y-81080577D01*
X151186089Y-81227733D01*
X151188409Y-81381056D01*
X151189452Y-81536427D01*
X151189190Y-81689727D01*
X151187596Y-81836834D01*
X151184642Y-81973628D01*
X151180301Y-82095991D01*
X151174545Y-82199801D01*
X151167346Y-82280939D01*
X151158677Y-82335284D01*
X151148511Y-82358717D01*
X151109803Y-82359094D01*
X151034832Y-82341727D01*
X150934402Y-82309658D01*
X150819315Y-82265929D01*
X150531273Y-82148253D01*
X150531219Y-81455359D01*
X150531165Y-80762462D01*
X150807177Y-80643730D01*
X150807177Y-80643730D01*
G37*
G36*
X149872671Y-80748949D02*
X150147048Y-80748949D01*
X150147048Y-81462322D01*
X150147048Y-82175699D01*
X149872671Y-82175699D01*
X149598302Y-82175699D01*
X149598302Y-81462322D01*
X149598302Y-80748949D01*
X149872671Y-80748949D01*
X149872671Y-80748949D01*
G37*
G36*
X145603411Y-81308670D02*
X145634918Y-81291092D01*
X145691648Y-81276267D01*
X145773813Y-81264179D01*
X145881628Y-81254809D01*
X146015305Y-81248139D01*
X146175057Y-81244150D01*
X146361098Y-81242824D01*
X147052926Y-81242824D01*
X147221160Y-81004147D01*
X147281746Y-80925172D01*
X147347048Y-80853396D01*
X147416984Y-80788839D01*
X147491472Y-80731517D01*
X147570429Y-80681449D01*
X147653775Y-80638653D01*
X147741426Y-80603145D01*
X147833301Y-80574945D01*
X147929317Y-80554070D01*
X148029392Y-80540538D01*
X148133444Y-80534366D01*
X148241392Y-80535574D01*
X148353152Y-80544178D01*
X148468644Y-80560196D01*
X148587784Y-80583646D01*
X148710490Y-80614546D01*
X148836682Y-80652915D01*
X149211732Y-80776394D01*
X149212948Y-81469812D01*
X149214173Y-82163242D01*
X149063209Y-82191690D01*
X148985140Y-82210043D01*
X148884126Y-82238983D01*
X148773208Y-82274538D01*
X148665428Y-82312734D01*
X148570063Y-82343363D01*
X148471220Y-82365459D01*
X148369807Y-82379297D01*
X148266732Y-82385156D01*
X148162902Y-82383313D01*
X148059225Y-82374046D01*
X147956609Y-82357631D01*
X147855961Y-82334346D01*
X147758190Y-82304469D01*
X147664203Y-82268276D01*
X147574908Y-82226046D01*
X147491212Y-82178056D01*
X147414023Y-82124582D01*
X147344250Y-82065903D01*
X147282799Y-82002296D01*
X147230579Y-81934038D01*
X147188498Y-81861407D01*
X147101492Y-81684319D01*
X146376339Y-81683070D01*
X146155346Y-81682090D01*
X145982959Y-81679395D01*
X145852481Y-81674064D01*
X145757216Y-81665178D01*
X145690469Y-81651815D01*
X145645542Y-81633058D01*
X145615739Y-81607985D01*
X145594365Y-81575678D01*
X145546240Y-81463535D01*
X145548957Y-81383307D01*
X145603411Y-81308670D01*
X145603411Y-81308670D01*
G37*
D11*
X138028096Y-81608112D02*
G75*
G03X141053000Y-81593000I1524904J-2484888D01*
G01*
X138053000Y-81593000D02*
X141053000Y-81593000D01*
X142070936Y-84093000D02*
G75*
G03X142070936Y-84093000I-2517936J0D01*
G01*
X159028096Y-81608112D02*
G75*
G03X162053000Y-81593000I1524904J-2484888D01*
G01*
X159053000Y-81593000D02*
X162053000Y-81593000D01*
X163070936Y-84093000D02*
G75*
G03X163070936Y-84093000I-2517936J0D01*
G01*
X134807640Y-77703360D02*
X134807640Y-78465360D01*
X134299640Y-77703360D02*
X134299640Y-78465360D01*
X134807640Y-75671360D02*
G75*
G03X132902640Y-77068360I-254000J-1651000D01*
G01*
X136204640Y-77195360D02*
G75*
G03X134426640Y-75671360I-1651000J-127000D01*
G01*
X133156640Y-76433360D02*
G75*
G03X133664640Y-78719360I1397000J-889000D01*
G01*
X135442640Y-78719360D02*
G75*
G03X135950640Y-76433360I-889000J1397000D01*
G01*
X137855640Y-73512360D02*
X137855640Y-73639360D01*
X137855640Y-77322360D02*
X137855640Y-75925360D01*
X131251640Y-73512360D02*
X131251640Y-73639360D01*
X131251640Y-77322360D02*
X131251640Y-75925360D01*
X135696640Y-74401360D02*
X135315640Y-74274360D01*
X135315640Y-74274360D02*
X134553640Y-74147360D01*
X134553640Y-74147360D02*
X133791640Y-74274360D01*
X133791640Y-74274360D02*
X133410640Y-74401360D01*
X135823640Y-75290360D02*
X133283640Y-75290360D01*
X131632640Y-76052360D02*
G75*
G03X133283640Y-80243360I2921000J-1270000D01*
G01*
X135823640Y-80243360D02*
G75*
G03X137474640Y-76052360I-1270000J2921000D01*
G01*
X132521640Y-80624360D02*
X133410640Y-80624360D01*
X135696640Y-80624360D02*
X136585640Y-80624360D01*
X132902640Y-77703360D02*
X132394640Y-77703360D01*
X132394640Y-77703360D02*
X132394640Y-76941360D01*
X132394640Y-76941360D02*
X132902640Y-76941360D01*
X136204640Y-77703360D02*
X136712640Y-77703360D01*
X136712640Y-77703360D02*
X136712640Y-76941360D01*
X136712640Y-76941360D02*
X136204640Y-76941360D01*
X134045640Y-77068360D02*
X132902640Y-77068360D01*
X134045640Y-77576360D02*
X132902640Y-77576360D01*
X135061640Y-77068360D02*
X136204640Y-77068360D01*
X135061640Y-77576360D02*
X136204640Y-77576360D01*
X134299640Y-76941360D02*
X134299640Y-75671360D01*
X134807640Y-76941360D02*
X134807640Y-75671360D01*
X135061640Y-77703360D02*
X135061640Y-76941360D01*
X135061640Y-76941360D02*
X134045640Y-76941360D01*
X134045640Y-76941360D02*
X134045640Y-77703360D01*
X134045640Y-77703360D02*
X135061640Y-77703360D01*
X136585640Y-80624360D02*
X137855640Y-79227360D01*
X137855640Y-79227360D02*
X137855640Y-77322360D01*
X132521640Y-80624360D02*
X131251640Y-79227360D01*
X131251640Y-79227360D02*
X131251640Y-77322360D01*
X131505640Y-73512360D02*
X131505640Y-73258360D01*
X131505640Y-73258360D02*
X132648640Y-73258360D01*
X132648640Y-73258360D02*
X132648640Y-73512360D01*
X137601640Y-73512360D02*
X137601640Y-73258360D01*
X137601640Y-73258360D02*
X136458640Y-73258360D01*
X136458640Y-73258360D02*
X136458640Y-73512360D01*
X137855640Y-73512360D02*
X131251640Y-73512360D01*
X165307640Y-77703360D02*
X165307640Y-78465360D01*
X164799640Y-77703360D02*
X164799640Y-78465360D01*
X165307640Y-75671360D02*
G75*
G03X163402640Y-77068360I-254000J-1651000D01*
G01*
X166704640Y-77195360D02*
G75*
G03X164926640Y-75671360I-1651000J-127000D01*
G01*
X163656640Y-76433360D02*
G75*
G03X164164640Y-78719360I1397000J-889000D01*
G01*
X165942640Y-78719360D02*
G75*
G03X166450640Y-76433360I-889000J1397000D01*
G01*
X168355640Y-73512360D02*
X168355640Y-73639360D01*
X168355640Y-77322360D02*
X168355640Y-75925360D01*
X161751640Y-73512360D02*
X161751640Y-73639360D01*
X161751640Y-77322360D02*
X161751640Y-75925360D01*
X166196640Y-74401360D02*
X165815640Y-74274360D01*
X165815640Y-74274360D02*
X165053640Y-74147360D01*
X165053640Y-74147360D02*
X164291640Y-74274360D01*
X164291640Y-74274360D02*
X163910640Y-74401360D01*
X166323640Y-75290360D02*
X163783640Y-75290360D01*
X162132640Y-76052360D02*
G75*
G03X163783640Y-80243360I2921000J-1270000D01*
G01*
X166323640Y-80243360D02*
G75*
G03X167974640Y-76052360I-1270000J2921000D01*
G01*
X163021640Y-80624360D02*
X163910640Y-80624360D01*
X166196640Y-80624360D02*
X167085640Y-80624360D01*
X163402640Y-77703360D02*
X162894640Y-77703360D01*
X162894640Y-77703360D02*
X162894640Y-76941360D01*
X162894640Y-76941360D02*
X163402640Y-76941360D01*
X166704640Y-77703360D02*
X167212640Y-77703360D01*
X167212640Y-77703360D02*
X167212640Y-76941360D01*
X167212640Y-76941360D02*
X166704640Y-76941360D01*
X164545640Y-77068360D02*
X163402640Y-77068360D01*
X164545640Y-77576360D02*
X163402640Y-77576360D01*
X165561640Y-77068360D02*
X166704640Y-77068360D01*
X165561640Y-77576360D02*
X166704640Y-77576360D01*
X164799640Y-76941360D02*
X164799640Y-75671360D01*
X165307640Y-76941360D02*
X165307640Y-75671360D01*
X165561640Y-77703360D02*
X165561640Y-76941360D01*
X165561640Y-76941360D02*
X164545640Y-76941360D01*
X164545640Y-76941360D02*
X164545640Y-77703360D01*
X164545640Y-77703360D02*
X165561640Y-77703360D01*
X167085640Y-80624360D02*
X168355640Y-79227360D01*
X168355640Y-79227360D02*
X168355640Y-77322360D01*
X163021640Y-80624360D02*
X161751640Y-79227360D01*
X161751640Y-79227360D02*
X161751640Y-77322360D01*
X162005640Y-73512360D02*
X162005640Y-73258360D01*
X162005640Y-73258360D02*
X163148640Y-73258360D01*
X163148640Y-73258360D02*
X163148640Y-73512360D01*
X168101640Y-73512360D02*
X168101640Y-73258360D01*
X168101640Y-73258360D02*
X166958640Y-73258360D01*
X166958640Y-73258360D02*
X166958640Y-73512360D01*
X168355640Y-73512360D02*
X161751640Y-73512360D01*
X154198000Y-81573000D02*
X153563000Y-81573000D01*
X145943000Y-81573000D02*
X145308000Y-81573000D01*
D12*
X139253000Y-75043000D02*
X139253000Y-78643000D01*
X139264522Y-75004522D02*
G75*
G02X143703000Y-76843000I1838478J-1838478D01*
G01*
X139264522Y-78681478D02*
G75*
G03X143703000Y-76843000I1838478J1838478D01*
G01*
X159753000Y-78803000D02*
X159753000Y-75203000D01*
X159741478Y-78841478D02*
G75*
G02X155303000Y-77003000I-1838478J1838478D01*
G01*
X159741478Y-75164522D02*
G75*
G03X155303000Y-77003000I-1838478J-1838478D01*
G01*
D11*
X144158000Y-84773000D02*
X144793000Y-84773000D01*
X152413000Y-84773000D02*
X153048000Y-84773000D01*
D12*
X149903000Y-63373000D02*
X149903000Y-67723000D01*
X149903000Y-67723000D02*
X148903000Y-67723000D01*
X148903000Y-67723000D02*
X148903000Y-63373000D01*
X151203000Y-69573000D02*
X151553000Y-69573000D01*
X151553000Y-69573000D02*
X151553000Y-71173000D01*
X151553000Y-71173000D02*
X152453000Y-71173000D01*
X152453000Y-71173000D02*
X152453000Y-63373000D01*
X152453000Y-63373000D02*
X146353000Y-63373000D01*
X146353000Y-63373000D02*
X146353000Y-71173000D01*
X146353000Y-71173000D02*
X147253000Y-71173000D01*
X147253000Y-71173000D02*
X147253000Y-69573000D01*
X147253000Y-69573000D02*
X147603000Y-69573000D01*
X152453000Y-69573000D02*
X151553000Y-69573000D01*
X146353000Y-69573000D02*
X147253000Y-69573000D01*
X151703000Y-67223000D02*
X151703000Y-65623000D01*
X151703000Y-65623000D02*
X150703000Y-65623000D01*
X150703000Y-65623000D02*
X150703000Y-67223000D01*
X150703000Y-67223000D02*
X151703000Y-67223000D01*
X147103000Y-67223000D02*
X147103000Y-65623000D01*
X147103000Y-65623000D02*
X148103000Y-65623000D01*
X148103000Y-65623000D02*
X148103000Y-67223000D01*
X148103000Y-67223000D02*
X147103000Y-67223000D01*
X150703000Y-65623000D02*
X150703000Y-63373000D01*
X151203000Y-65623000D02*
X151203000Y-63373000D01*
X151203000Y-69573000D02*
X151203000Y-70773000D01*
D10*
X144878000Y-77623000D02*
X145228000Y-77998000D01*
X145228000Y-77998000D02*
X146328000Y-77998000D01*
X146328000Y-77998000D02*
X146328000Y-79048000D01*
X145353000Y-74148000D02*
X144878000Y-74148000D01*
X144878000Y-74148000D02*
X144878000Y-74548000D01*
X154128000Y-77623000D02*
X154128000Y-77998000D01*
X154128000Y-77998000D02*
X153778000Y-77998000D01*
X153728000Y-74148000D02*
X154128000Y-74148000D01*
X154128000Y-74148000D02*
X154128000Y-74523000D01*
D11*
X156164114Y-95160981D02*
X156164114Y-94160981D01*
X156545067Y-94160981D01*
X156640305Y-94208600D01*
X156687924Y-94256219D01*
X156735543Y-94351457D01*
X156735543Y-94494314D01*
X156687924Y-94589552D01*
X156640305Y-94637171D01*
X156545067Y-94684790D01*
X156164114Y-94684790D01*
X157687924Y-95160981D02*
X157116495Y-95160981D01*
X157402209Y-95160981D02*
X157402209Y-94160981D01*
X157306971Y-94303838D01*
X157211733Y-94399076D01*
X157116495Y-94446695D01*
X158640305Y-95160981D02*
X158068876Y-95160981D01*
X158354590Y-95160981D02*
X158354590Y-94160981D01*
X158259352Y-94303838D01*
X158164114Y-94399076D01*
X158068876Y-94446695D01*
X138443953Y-81275381D02*
X137967762Y-81275381D01*
X137967762Y-80275381D01*
X138777286Y-80751571D02*
X139110620Y-80751571D01*
X139253477Y-81275381D02*
X138777286Y-81275381D01*
X138777286Y-80275381D01*
X139253477Y-80275381D01*
X139682048Y-81275381D02*
X139682048Y-80275381D01*
X139920143Y-80275381D01*
X140063001Y-80323000D01*
X140158239Y-80418238D01*
X140205858Y-80513476D01*
X140253477Y-80703952D01*
X140253477Y-80846810D01*
X140205858Y-81037286D01*
X140158239Y-81132524D01*
X140063001Y-81227762D01*
X139920143Y-81275381D01*
X139682048Y-81275381D01*
X141205858Y-81275381D02*
X140634429Y-81275381D01*
X140920143Y-81275381D02*
X140920143Y-80275381D01*
X140824905Y-80418238D01*
X140729667Y-80513476D01*
X140634429Y-80561095D01*
X159513953Y-81255381D02*
X159037762Y-81255381D01*
X159037762Y-80255381D01*
X159847286Y-80731571D02*
X160180620Y-80731571D01*
X160323477Y-81255381D02*
X159847286Y-81255381D01*
X159847286Y-80255381D01*
X160323477Y-80255381D01*
X160752048Y-81255381D02*
X160752048Y-80255381D01*
X160990143Y-80255381D01*
X161133001Y-80303000D01*
X161228239Y-80398238D01*
X161275858Y-80493476D01*
X161323477Y-80683952D01*
X161323477Y-80826810D01*
X161275858Y-81017286D01*
X161228239Y-81112524D01*
X161133001Y-81207762D01*
X160990143Y-81255381D01*
X160752048Y-81255381D01*
X161704429Y-80350619D02*
X161752048Y-80303000D01*
X161847286Y-80255381D01*
X162085382Y-80255381D01*
X162180620Y-80303000D01*
X162228239Y-80350619D01*
X162275858Y-80445857D01*
X162275858Y-80541095D01*
X162228239Y-80683952D01*
X161656810Y-81255381D01*
X162275858Y-81255381D01*
X132314905Y-84275381D02*
X132314905Y-83275381D01*
X132695858Y-83275381D01*
X132791096Y-83323000D01*
X132838715Y-83370619D01*
X132886334Y-83465857D01*
X132886334Y-83608714D01*
X132838715Y-83703952D01*
X132791096Y-83751571D01*
X132695858Y-83799190D01*
X132314905Y-83799190D01*
X133838715Y-84275381D02*
X133267286Y-84275381D01*
X133553000Y-84275381D02*
X133553000Y-83275381D01*
X133457762Y-83418238D01*
X133362524Y-83513476D01*
X133267286Y-83561095D01*
X166314905Y-84275381D02*
X166314905Y-83275381D01*
X166695858Y-83275381D01*
X166791096Y-83323000D01*
X166838715Y-83370619D01*
X166886334Y-83465857D01*
X166886334Y-83608714D01*
X166838715Y-83703952D01*
X166791096Y-83751571D01*
X166695858Y-83799190D01*
X166314905Y-83799190D01*
X167267286Y-83370619D02*
X167314905Y-83323000D01*
X167410143Y-83275381D01*
X167648239Y-83275381D01*
X167743477Y-83323000D01*
X167791096Y-83370619D01*
X167838715Y-83465857D01*
X167838715Y-83561095D01*
X167791096Y-83703952D01*
X167219667Y-84275381D01*
X167838715Y-84275381D01*
X163860314Y-94475181D02*
X163860314Y-93475181D01*
X164241267Y-93475181D01*
X164336505Y-93522800D01*
X164384124Y-93570419D01*
X164431743Y-93665657D01*
X164431743Y-93808514D01*
X164384124Y-93903752D01*
X164336505Y-93951371D01*
X164241267Y-93998990D01*
X163860314Y-93998990D01*
X165384124Y-94475181D02*
X164812695Y-94475181D01*
X165098409Y-94475181D02*
X165098409Y-93475181D01*
X165003171Y-93618038D01*
X164907933Y-93713276D01*
X164812695Y-93760895D01*
X165717457Y-93475181D02*
X166336505Y-93475181D01*
X166003171Y-93856133D01*
X166146029Y-93856133D01*
X166241267Y-93903752D01*
X166288886Y-93951371D01*
X166336505Y-94046610D01*
X166336505Y-94284705D01*
X166288886Y-94379943D01*
X166241267Y-94427562D01*
X166146029Y-94475181D01*
X165860314Y-94475181D01*
X165765076Y-94427562D01*
X165717457Y-94379943D01*
X152354114Y-95389581D02*
X152354114Y-94389581D01*
X152735067Y-94389581D01*
X152830305Y-94437200D01*
X152877924Y-94484819D01*
X152925543Y-94580057D01*
X152925543Y-94722914D01*
X152877924Y-94818152D01*
X152830305Y-94865771D01*
X152735067Y-94913390D01*
X152354114Y-94913390D01*
X153877924Y-95389581D02*
X153306495Y-95389581D01*
X153592209Y-95389581D02*
X153592209Y-94389581D01*
X153496971Y-94532438D01*
X153401733Y-94627676D01*
X153306495Y-94675295D01*
X154496971Y-94389581D02*
X154592210Y-94389581D01*
X154687448Y-94437200D01*
X154735067Y-94484819D01*
X154782686Y-94580057D01*
X154830305Y-94770533D01*
X154830305Y-95008629D01*
X154782686Y-95199105D01*
X154735067Y-95294343D01*
X154687448Y-95341962D01*
X154592210Y-95389581D01*
X154496971Y-95389581D01*
X154401733Y-95341962D01*
X154354114Y-95294343D01*
X154306495Y-95199105D01*
X154258876Y-95008629D01*
X154258876Y-94770533D01*
X154306495Y-94580057D01*
X154354114Y-94484819D01*
X154401733Y-94437200D01*
X154496971Y-94389581D01*
X160024914Y-94652981D02*
X160024914Y-93652981D01*
X160405867Y-93652981D01*
X160501105Y-93700600D01*
X160548724Y-93748219D01*
X160596343Y-93843457D01*
X160596343Y-93986314D01*
X160548724Y-94081552D01*
X160501105Y-94129171D01*
X160405867Y-94176790D01*
X160024914Y-94176790D01*
X161548724Y-94652981D02*
X160977295Y-94652981D01*
X161263009Y-94652981D02*
X161263009Y-93652981D01*
X161167771Y-93795838D01*
X161072533Y-93891076D01*
X160977295Y-93938695D01*
X161929676Y-93748219D02*
X161977295Y-93700600D01*
X162072533Y-93652981D01*
X162310629Y-93652981D01*
X162405867Y-93700600D01*
X162453486Y-93748219D01*
X162501105Y-93843457D01*
X162501105Y-93938695D01*
X162453486Y-94081552D01*
X161882057Y-94652981D01*
X162501105Y-94652981D01*
X141654305Y-94805381D02*
X141654305Y-93805381D01*
X142035258Y-93805381D01*
X142130496Y-93853000D01*
X142178115Y-93900619D01*
X142225734Y-93995857D01*
X142225734Y-94138714D01*
X142178115Y-94233952D01*
X142130496Y-94281571D01*
X142035258Y-94329190D01*
X141654305Y-94329190D01*
X142559067Y-93805381D02*
X143225734Y-93805381D01*
X142797162Y-94805381D01*
X145515105Y-95160981D02*
X145515105Y-94160981D01*
X145896058Y-94160981D01*
X145991296Y-94208600D01*
X146038915Y-94256219D01*
X146086534Y-94351457D01*
X146086534Y-94494314D01*
X146038915Y-94589552D01*
X145991296Y-94637171D01*
X145896058Y-94684790D01*
X145515105Y-94684790D01*
X146657962Y-94589552D02*
X146562724Y-94541933D01*
X146515105Y-94494314D01*
X146467486Y-94399076D01*
X146467486Y-94351457D01*
X146515105Y-94256219D01*
X146562724Y-94208600D01*
X146657962Y-94160981D01*
X146848439Y-94160981D01*
X146943677Y-94208600D01*
X146991296Y-94256219D01*
X147038915Y-94351457D01*
X147038915Y-94399076D01*
X146991296Y-94494314D01*
X146943677Y-94541933D01*
X146848439Y-94589552D01*
X146657962Y-94589552D01*
X146562724Y-94637171D01*
X146515105Y-94684790D01*
X146467486Y-94780029D01*
X146467486Y-94970505D01*
X146515105Y-95065743D01*
X146562724Y-95113362D01*
X146657962Y-95160981D01*
X146848439Y-95160981D01*
X146943677Y-95113362D01*
X146991296Y-95065743D01*
X147038915Y-94970505D01*
X147038915Y-94780029D01*
X146991296Y-94684790D01*
X146943677Y-94637171D01*
X146848439Y-94589552D01*
X167695714Y-94703781D02*
X167695714Y-93703781D01*
X168076667Y-93703781D01*
X168171905Y-93751400D01*
X168219524Y-93799019D01*
X168267143Y-93894257D01*
X168267143Y-94037114D01*
X168219524Y-94132352D01*
X168171905Y-94179971D01*
X168076667Y-94227590D01*
X167695714Y-94227590D01*
X169219524Y-94703781D02*
X168648095Y-94703781D01*
X168933809Y-94703781D02*
X168933809Y-93703781D01*
X168838571Y-93846638D01*
X168743333Y-93941876D01*
X168648095Y-93989495D01*
X170076667Y-94037114D02*
X170076667Y-94703781D01*
X169838571Y-93656162D02*
X169600476Y-94370448D01*
X170219524Y-94370448D01*
X130148105Y-95160981D02*
X130148105Y-94160981D01*
X130529058Y-94160981D01*
X130624296Y-94208600D01*
X130671915Y-94256219D01*
X130719534Y-94351457D01*
X130719534Y-94494314D01*
X130671915Y-94589552D01*
X130624296Y-94637171D01*
X130529058Y-94684790D01*
X130148105Y-94684790D01*
X131576677Y-94494314D02*
X131576677Y-95160981D01*
X131338581Y-94113362D02*
X131100486Y-94827648D01*
X131719534Y-94827648D01*
X134008905Y-94678381D02*
X134008905Y-93678381D01*
X134389858Y-93678381D01*
X134485096Y-93726000D01*
X134532715Y-93773619D01*
X134580334Y-93868857D01*
X134580334Y-94011714D01*
X134532715Y-94106952D01*
X134485096Y-94154571D01*
X134389858Y-94202190D01*
X134008905Y-94202190D01*
X135485096Y-93678381D02*
X135008905Y-93678381D01*
X134961286Y-94154571D01*
X135008905Y-94106952D01*
X135104143Y-94059333D01*
X135342239Y-94059333D01*
X135437477Y-94106952D01*
X135485096Y-94154571D01*
X135532715Y-94249810D01*
X135532715Y-94487905D01*
X135485096Y-94583143D01*
X135437477Y-94630762D01*
X135342239Y-94678381D01*
X135104143Y-94678381D01*
X135008905Y-94630762D01*
X134961286Y-94583143D01*
X171556514Y-95084781D02*
X171556514Y-94084781D01*
X171937467Y-94084781D01*
X172032705Y-94132400D01*
X172080324Y-94180019D01*
X172127943Y-94275257D01*
X172127943Y-94418114D01*
X172080324Y-94513352D01*
X172032705Y-94560971D01*
X171937467Y-94608590D01*
X171556514Y-94608590D01*
X173080324Y-95084781D02*
X172508895Y-95084781D01*
X172794609Y-95084781D02*
X172794609Y-94084781D01*
X172699371Y-94227638D01*
X172604133Y-94322876D01*
X172508895Y-94370495D01*
X173985086Y-94084781D02*
X173508895Y-94084781D01*
X173461276Y-94560971D01*
X173508895Y-94513352D01*
X173604133Y-94465733D01*
X173842229Y-94465733D01*
X173937467Y-94513352D01*
X173985086Y-94560971D01*
X174032705Y-94656210D01*
X174032705Y-94894305D01*
X173985086Y-94989543D01*
X173937467Y-95037162D01*
X173842229Y-95084781D01*
X173604133Y-95084781D01*
X173508895Y-95037162D01*
X173461276Y-94989543D01*
X126338105Y-95465781D02*
X126338105Y-94465781D01*
X126719058Y-94465781D01*
X126814296Y-94513400D01*
X126861915Y-94561019D01*
X126909534Y-94656257D01*
X126909534Y-94799114D01*
X126861915Y-94894352D01*
X126814296Y-94941971D01*
X126719058Y-94989590D01*
X126338105Y-94989590D01*
X127242867Y-94465781D02*
X127861915Y-94465781D01*
X127528581Y-94846733D01*
X127671439Y-94846733D01*
X127766677Y-94894352D01*
X127814296Y-94941971D01*
X127861915Y-95037210D01*
X127861915Y-95275305D01*
X127814296Y-95370543D01*
X127766677Y-95418162D01*
X127671439Y-95465781D01*
X127385724Y-95465781D01*
X127290486Y-95418162D01*
X127242867Y-95370543D01*
X149325105Y-95770581D02*
X149325105Y-94770581D01*
X149706058Y-94770581D01*
X149801296Y-94818200D01*
X149848915Y-94865819D01*
X149896534Y-94961057D01*
X149896534Y-95103914D01*
X149848915Y-95199152D01*
X149801296Y-95246771D01*
X149706058Y-95294390D01*
X149325105Y-95294390D01*
X150372724Y-95770581D02*
X150563200Y-95770581D01*
X150658439Y-95722962D01*
X150706058Y-95675343D01*
X150801296Y-95532486D01*
X150848915Y-95342010D01*
X150848915Y-94961057D01*
X150801296Y-94865819D01*
X150753677Y-94818200D01*
X150658439Y-94770581D01*
X150467962Y-94770581D01*
X150372724Y-94818200D01*
X150325105Y-94865819D01*
X150277486Y-94961057D01*
X150277486Y-95199152D01*
X150325105Y-95294390D01*
X150372724Y-95342010D01*
X150467962Y-95389629D01*
X150658439Y-95389629D01*
X150753677Y-95342010D01*
X150801296Y-95294390D01*
X150848915Y-95199152D01*
X137844305Y-94576781D02*
X137844305Y-93576781D01*
X138225258Y-93576781D01*
X138320496Y-93624400D01*
X138368115Y-93672019D01*
X138415734Y-93767257D01*
X138415734Y-93910114D01*
X138368115Y-94005352D01*
X138320496Y-94052971D01*
X138225258Y-94100590D01*
X137844305Y-94100590D01*
X139272877Y-93576781D02*
X139082400Y-93576781D01*
X138987162Y-93624400D01*
X138939543Y-93672019D01*
X138844305Y-93814876D01*
X138796686Y-94005352D01*
X138796686Y-94386305D01*
X138844305Y-94481543D01*
X138891924Y-94529162D01*
X138987162Y-94576781D01*
X139177639Y-94576781D01*
X139272877Y-94529162D01*
X139320496Y-94481543D01*
X139368115Y-94386305D01*
X139368115Y-94148210D01*
X139320496Y-94052971D01*
X139272877Y-94005352D01*
X139177639Y-93957733D01*
X138987162Y-93957733D01*
X138891924Y-94005352D01*
X138844305Y-94052971D01*
X138796686Y-94148210D01*
X128957762Y-78275381D02*
X128624428Y-77799190D01*
X128386333Y-78275381D02*
X128386333Y-77275381D01*
X128767286Y-77275381D01*
X128862524Y-77323000D01*
X128910143Y-77370619D01*
X128957762Y-77465857D01*
X128957762Y-77608714D01*
X128910143Y-77703952D01*
X128862524Y-77751571D01*
X128767286Y-77799190D01*
X128386333Y-77799190D01*
X129243476Y-77275381D02*
X129576809Y-78275381D01*
X129910143Y-77275381D01*
X130767286Y-78275381D02*
X130195857Y-78275381D01*
X130481571Y-78275381D02*
X130481571Y-77275381D01*
X130386333Y-77418238D01*
X130291095Y-77513476D01*
X130195857Y-77561095D01*
X159407762Y-73475381D02*
X159074428Y-72999190D01*
X158836333Y-73475381D02*
X158836333Y-72475381D01*
X159217286Y-72475381D01*
X159312524Y-72523000D01*
X159360143Y-72570619D01*
X159407762Y-72665857D01*
X159407762Y-72808714D01*
X159360143Y-72903952D01*
X159312524Y-72951571D01*
X159217286Y-72999190D01*
X158836333Y-72999190D01*
X159693476Y-72475381D02*
X160026809Y-73475381D01*
X160360143Y-72475381D01*
X160645857Y-72570619D02*
X160693476Y-72523000D01*
X160788714Y-72475381D01*
X161026810Y-72475381D01*
X161122048Y-72523000D01*
X161169667Y-72570619D01*
X161217286Y-72665857D01*
X161217286Y-72761095D01*
X161169667Y-72903952D01*
X160598238Y-73475381D01*
X161217286Y-73475381D01*
X156386334Y-81775381D02*
X156053000Y-81299190D01*
X155814905Y-81775381D02*
X155814905Y-80775381D01*
X156195858Y-80775381D01*
X156291096Y-80823000D01*
X156338715Y-80870619D01*
X156386334Y-80965857D01*
X156386334Y-81108714D01*
X156338715Y-81203952D01*
X156291096Y-81251571D01*
X156195858Y-81299190D01*
X155814905Y-81299190D01*
X156767286Y-80870619D02*
X156814905Y-80823000D01*
X156910143Y-80775381D01*
X157148239Y-80775381D01*
X157243477Y-80823000D01*
X157291096Y-80870619D01*
X157338715Y-80965857D01*
X157338715Y-81061095D01*
X157291096Y-81203952D01*
X156719667Y-81775381D01*
X157338715Y-81775381D01*
X148364905Y-83525381D02*
X147793476Y-83525381D01*
X148079190Y-83525381D02*
X148079190Y-82525381D01*
X147983952Y-82668238D01*
X147888714Y-82763476D01*
X147793476Y-82811095D01*
X148745857Y-82620619D02*
X148793476Y-82573000D01*
X148888714Y-82525381D01*
X149126810Y-82525381D01*
X149222048Y-82573000D01*
X149269667Y-82620619D01*
X149317286Y-82715857D01*
X149317286Y-82811095D01*
X149269667Y-82953952D01*
X148698238Y-83525381D01*
X149317286Y-83525381D01*
X149936333Y-82525381D02*
X150031572Y-82525381D01*
X150126810Y-82573000D01*
X150174429Y-82620619D01*
X150222048Y-82715857D01*
X150269667Y-82906333D01*
X150269667Y-83144429D01*
X150222048Y-83334905D01*
X150174429Y-83430143D01*
X150126810Y-83477762D01*
X150031572Y-83525381D01*
X149936333Y-83525381D01*
X149841095Y-83477762D01*
X149793476Y-83430143D01*
X149745857Y-83334905D01*
X149698238Y-83144429D01*
X149698238Y-82906333D01*
X149745857Y-82715857D01*
X149793476Y-82620619D01*
X149841095Y-82573000D01*
X149936333Y-82525381D01*
X150650619Y-83525381D02*
X150888714Y-83525381D01*
X150888714Y-83334905D01*
X150793476Y-83287286D01*
X150698238Y-83192048D01*
X150650619Y-83049190D01*
X150650619Y-82811095D01*
X150698238Y-82668238D01*
X150793476Y-82573000D01*
X150936333Y-82525381D01*
X151126810Y-82525381D01*
X151269667Y-82573000D01*
X151364905Y-82668238D01*
X151412524Y-82811095D01*
X151412524Y-83049190D01*
X151364905Y-83192048D01*
X151269667Y-83287286D01*
X151174429Y-83334905D01*
X151174429Y-83525381D01*
X151412524Y-83525381D01*
X139607762Y-73920619D02*
X139512524Y-73873000D01*
X139417286Y-73777762D01*
X139274429Y-73634905D01*
X139179190Y-73587286D01*
X139083952Y-73587286D01*
X139131571Y-73825381D02*
X139036333Y-73777762D01*
X138941095Y-73682524D01*
X138893476Y-73492048D01*
X138893476Y-73158714D01*
X138941095Y-72968238D01*
X139036333Y-72873000D01*
X139131571Y-72825381D01*
X139322048Y-72825381D01*
X139417286Y-72873000D01*
X139512524Y-72968238D01*
X139560143Y-73158714D01*
X139560143Y-73492048D01*
X139512524Y-73682524D01*
X139417286Y-73777762D01*
X139322048Y-73825381D01*
X139131571Y-73825381D01*
X140512524Y-73825381D02*
X139941095Y-73825381D01*
X140226809Y-73825381D02*
X140226809Y-72825381D01*
X140131571Y-72968238D01*
X140036333Y-73063476D01*
X139941095Y-73111095D01*
X155607762Y-74420619D02*
X155512524Y-74373000D01*
X155417286Y-74277762D01*
X155274429Y-74134905D01*
X155179190Y-74087286D01*
X155083952Y-74087286D01*
X155131571Y-74325381D02*
X155036333Y-74277762D01*
X154941095Y-74182524D01*
X154893476Y-73992048D01*
X154893476Y-73658714D01*
X154941095Y-73468238D01*
X155036333Y-73373000D01*
X155131571Y-73325381D01*
X155322048Y-73325381D01*
X155417286Y-73373000D01*
X155512524Y-73468238D01*
X155560143Y-73658714D01*
X155560143Y-73992048D01*
X155512524Y-74182524D01*
X155417286Y-74277762D01*
X155322048Y-74325381D01*
X155131571Y-74325381D01*
X155941095Y-73420619D02*
X155988714Y-73373000D01*
X156083952Y-73325381D01*
X156322048Y-73325381D01*
X156417286Y-73373000D01*
X156464905Y-73420619D01*
X156512524Y-73515857D01*
X156512524Y-73611095D01*
X156464905Y-73753952D01*
X155893476Y-74325381D01*
X156512524Y-74325381D01*
X154986334Y-84525381D02*
X154653000Y-84049190D01*
X154414905Y-84525381D02*
X154414905Y-83525381D01*
X154795858Y-83525381D01*
X154891096Y-83573000D01*
X154938715Y-83620619D01*
X154986334Y-83715857D01*
X154986334Y-83858714D01*
X154938715Y-83953952D01*
X154891096Y-84001571D01*
X154795858Y-84049190D01*
X154414905Y-84049190D01*
X155938715Y-84525381D02*
X155367286Y-84525381D01*
X155653000Y-84525381D02*
X155653000Y-83525381D01*
X155557762Y-83668238D01*
X155462524Y-83763476D01*
X155367286Y-83811095D01*
X142714905Y-87075381D02*
X142143476Y-87075381D01*
X142429190Y-87075381D02*
X142429190Y-86075381D01*
X142333952Y-86218238D01*
X142238714Y-86313476D01*
X142143476Y-86361095D01*
X143095857Y-86170619D02*
X143143476Y-86123000D01*
X143238714Y-86075381D01*
X143476810Y-86075381D01*
X143572048Y-86123000D01*
X143619667Y-86170619D01*
X143667286Y-86265857D01*
X143667286Y-86361095D01*
X143619667Y-86503952D01*
X143048238Y-87075381D01*
X143667286Y-87075381D01*
X144286333Y-86075381D02*
X144381572Y-86075381D01*
X144476810Y-86123000D01*
X144524429Y-86170619D01*
X144572048Y-86265857D01*
X144619667Y-86456333D01*
X144619667Y-86694429D01*
X144572048Y-86884905D01*
X144524429Y-86980143D01*
X144476810Y-87027762D01*
X144381572Y-87075381D01*
X144286333Y-87075381D01*
X144191095Y-87027762D01*
X144143476Y-86980143D01*
X144095857Y-86884905D01*
X144048238Y-86694429D01*
X144048238Y-86456333D01*
X144095857Y-86265857D01*
X144143476Y-86170619D01*
X144191095Y-86123000D01*
X144286333Y-86075381D01*
X145000619Y-87075381D02*
X145238714Y-87075381D01*
X145238714Y-86884905D01*
X145143476Y-86837286D01*
X145048238Y-86742048D01*
X145000619Y-86599190D01*
X145000619Y-86361095D01*
X145048238Y-86218238D01*
X145143476Y-86123000D01*
X145286333Y-86075381D01*
X145476810Y-86075381D01*
X145619667Y-86123000D01*
X145714905Y-86218238D01*
X145762524Y-86361095D01*
X145762524Y-86599190D01*
X145714905Y-86742048D01*
X145619667Y-86837286D01*
X145524429Y-86884905D01*
X145524429Y-87075381D01*
X145762524Y-87075381D01*
X148117286Y-72101571D02*
X148260143Y-72149190D01*
X148307762Y-72196810D01*
X148355381Y-72292048D01*
X148355381Y-72434905D01*
X148307762Y-72530143D01*
X148260143Y-72577762D01*
X148164905Y-72625381D01*
X147783952Y-72625381D01*
X147783952Y-71625381D01*
X148117286Y-71625381D01*
X148212524Y-71673000D01*
X148260143Y-71720619D01*
X148307762Y-71815857D01*
X148307762Y-71911095D01*
X148260143Y-72006333D01*
X148212524Y-72053952D01*
X148117286Y-72101571D01*
X147783952Y-72101571D01*
X148641095Y-71625381D02*
X149212524Y-71625381D01*
X148926809Y-72625381D02*
X148926809Y-71625381D01*
X150069667Y-72625381D02*
X149498238Y-72625381D01*
X149783952Y-72625381D02*
X149783952Y-71625381D01*
X149688714Y-71768238D01*
X149593476Y-71863476D01*
X149498238Y-71911095D01*
X143792524Y-70203762D02*
X143935381Y-70251381D01*
X144173477Y-70251381D01*
X144268715Y-70203762D01*
X144316334Y-70156143D01*
X144363953Y-70060905D01*
X144363953Y-69965667D01*
X144316334Y-69870429D01*
X144268715Y-69822810D01*
X144173477Y-69775190D01*
X143983000Y-69727571D01*
X143887762Y-69679952D01*
X143840143Y-69632333D01*
X143792524Y-69537095D01*
X143792524Y-69441857D01*
X143840143Y-69346619D01*
X143887762Y-69299000D01*
X143983000Y-69251381D01*
X144221096Y-69251381D01*
X144363953Y-69299000D01*
X144935381Y-70156143D02*
X144983000Y-70203762D01*
X144935381Y-70251381D01*
X144887762Y-70203762D01*
X144935381Y-70156143D01*
X144935381Y-70251381D01*
X144744905Y-69299000D02*
X144840143Y-69251381D01*
X145078239Y-69251381D01*
X145173477Y-69299000D01*
X145221096Y-69394238D01*
X145221096Y-69489476D01*
X145173477Y-69584714D01*
X145125858Y-69632333D01*
X145030619Y-69679952D01*
X144983000Y-69727571D01*
X144935381Y-69822810D01*
X144935381Y-69870429D01*
X146173477Y-70251381D02*
X145602048Y-70251381D01*
X145887762Y-70251381D02*
X145887762Y-69251381D01*
X145792524Y-69394238D01*
X145697286Y-69489476D01*
X145602048Y-69537095D01*
%LPC*%
D13*
G36*
X148044873Y-96693017D02*
X136062412Y-89056355D01*
X136161252Y-89045558D01*
X136260718Y-89034589D01*
X136360805Y-89023449D01*
X136461506Y-89012139D01*
X136562814Y-89000661D01*
X136664725Y-88989015D01*
X136767231Y-88977202D01*
X136870327Y-88965224D01*
X136974007Y-88953082D01*
X137078263Y-88940778D01*
X137183092Y-88928311D01*
X137288485Y-88915683D01*
X137394438Y-88902896D01*
X137500943Y-88889950D01*
X137607995Y-88876847D01*
X137715588Y-88863587D01*
X137823716Y-88850173D01*
X137932372Y-88836604D01*
X138041550Y-88822883D01*
X138151245Y-88809010D01*
X138261450Y-88794986D01*
X138372159Y-88780813D01*
X138483366Y-88766491D01*
X138595065Y-88752022D01*
X138707249Y-88737408D01*
X138819913Y-88722648D01*
X138933050Y-88707744D01*
X139046655Y-88692698D01*
X139160721Y-88677510D01*
X139275242Y-88662181D01*
X139390212Y-88646714D01*
X139505625Y-88631108D01*
X139621475Y-88615365D01*
X139737755Y-88599486D01*
X139854460Y-88583472D01*
X139971584Y-88567325D01*
X140089119Y-88551045D01*
X140207061Y-88534634D01*
X140325403Y-88518093D01*
X140444139Y-88501422D01*
X140563263Y-88484623D01*
X140682768Y-88467698D01*
X140802649Y-88450647D01*
X140922900Y-88433471D01*
X141043514Y-88416171D01*
X141164485Y-88398750D01*
X141285808Y-88381207D01*
X141407475Y-88363544D01*
X141529482Y-88345762D01*
X141651821Y-88327862D01*
X141774487Y-88309845D01*
X141897474Y-88291713D01*
X142020775Y-88273466D01*
X142144384Y-88255106D01*
X142268296Y-88236634D01*
X142392503Y-88218051D01*
X142517001Y-88199358D01*
X142641783Y-88180556D01*
X142766842Y-88161647D01*
X142892173Y-88142630D01*
X143017770Y-88123509D01*
X143143626Y-88104283D01*
X143269736Y-88084954D01*
X143396092Y-88065523D01*
X143522690Y-88045991D01*
X143649523Y-88026359D01*
X143776584Y-88006629D01*
X143903868Y-87986801D01*
X144031369Y-87966877D01*
X144159081Y-87946858D01*
X144286997Y-87926744D01*
X144415111Y-87906538D01*
X144543417Y-87886239D01*
X144671909Y-87865850D01*
X144800582Y-87845372D01*
X144929428Y-87824804D01*
X145058442Y-87804150D01*
X145187617Y-87783409D01*
X145316948Y-87762583D01*
X145446428Y-87741674D01*
X145576052Y-87720681D01*
X145705812Y-87699607D01*
X145835704Y-87678452D01*
X145965721Y-87657218D01*
X146095856Y-87635906D01*
X146226104Y-87614516D01*
X146356459Y-87593050D01*
X146486914Y-87571510D01*
X146617463Y-87549895D01*
X146748101Y-87528208D01*
X146878821Y-87506450D01*
X147009616Y-87484621D01*
X147140482Y-87462723D01*
X147271411Y-87440756D01*
X147402398Y-87418723D01*
X147533437Y-87396624D01*
X147664521Y-87374460D01*
X147795644Y-87352233D01*
X147926800Y-87329943D01*
X148057984Y-87307591D01*
X148189188Y-87285180D01*
X148320407Y-87262709D01*
X148451635Y-87240180D01*
X148582866Y-87217595D01*
X148714093Y-87194954D01*
X148845310Y-87172258D01*
X148976512Y-87149509D01*
X149107692Y-87126708D01*
X149238844Y-87103855D01*
X149369961Y-87080952D01*
X149501039Y-87058001D01*
X149632070Y-87035001D01*
X149763049Y-87011955D01*
X149893970Y-86988864D01*
X150024825Y-86965728D01*
X150155610Y-86942549D01*
X150286318Y-86919327D01*
X150416943Y-86896065D01*
X150547479Y-86872763D01*
X150677920Y-86849422D01*
X150808259Y-86826043D01*
X150938491Y-86802628D01*
X151068609Y-86779178D01*
X151198607Y-86755693D01*
X151328480Y-86732175D01*
X151458221Y-86708625D01*
X151587824Y-86685045D01*
X151717282Y-86661434D01*
X151846591Y-86637795D01*
X151975743Y-86614129D01*
X152104732Y-86590436D01*
X152233553Y-86566719D01*
X152362199Y-86542977D01*
X152490664Y-86519212D01*
X152618943Y-86495425D01*
X152747028Y-86471618D01*
X152874914Y-86447791D01*
X153002595Y-86423946D01*
X153130064Y-86400083D01*
X153257316Y-86376204D01*
X153384344Y-86352311D01*
X153511142Y-86328403D01*
X153637705Y-86304483D01*
X153764026Y-86280551D01*
X153890098Y-86256608D01*
X154015916Y-86232656D01*
X154141474Y-86208696D01*
X154266765Y-86184729D01*
X154391784Y-86160756D01*
X154516524Y-86136777D01*
X154640980Y-86112796D01*
X154765144Y-86088811D01*
X154889012Y-86064825D01*
X155012576Y-86040839D01*
X155135831Y-86016854D01*
X155258770Y-85992870D01*
X155381389Y-85968890D01*
X155503679Y-85944914D01*
X155625636Y-85920943D01*
X155747253Y-85896978D01*
X155868524Y-85873021D01*
X155989443Y-85849073D01*
X156110004Y-85825135D01*
X156230200Y-85801207D01*
X156350026Y-85777292D01*
X156469476Y-85753390D01*
X156588543Y-85729502D01*
X156707221Y-85705630D01*
X156825504Y-85681774D01*
X156943387Y-85657936D01*
X157060862Y-85634117D01*
X157177924Y-85610318D01*
X157294566Y-85586540D01*
X157410784Y-85562785D01*
X157526569Y-85539053D01*
X157641917Y-85515345D01*
X157756822Y-85491663D01*
X157871276Y-85468008D01*
X157985274Y-85444380D01*
X158098810Y-85420782D01*
X158211878Y-85397214D01*
X158324472Y-85373677D01*
X158436585Y-85350173D01*
X158548211Y-85326702D01*
X158659345Y-85303266D01*
X158769980Y-85279865D01*
X158880110Y-85256502D01*
X158989729Y-85233177D01*
X159098831Y-85209891D01*
X159207409Y-85186645D01*
X159315458Y-85163441D01*
X159422972Y-85140279D01*
X159529944Y-85117161D01*
X159636368Y-85094088D01*
X159742239Y-85071061D01*
X159847549Y-85048081D01*
X159952293Y-85025149D01*
X160056465Y-85002267D01*
X160160059Y-84979435D01*
X160263068Y-84956655D01*
X160365487Y-84933927D01*
X160467309Y-84911254D01*
X160568529Y-84888636D01*
X160669139Y-84866073D01*
X160769135Y-84843568D01*
X160868509Y-84821122D01*
X160967256Y-84798735D01*
X161065370Y-84776408D01*
X161162844Y-84754144D01*
X161259673Y-84731942D01*
X161355850Y-84709804D01*
X161451369Y-84687732D01*
X161546224Y-84665726D01*
X161640409Y-84643787D01*
X161733918Y-84621917D01*
X161826745Y-84600117D01*
X161918883Y-84578388D01*
X162010327Y-84556730D01*
X162101070Y-84535146D01*
X162191107Y-84513636D01*
X162280431Y-84492201D01*
X162369035Y-84470843D01*
X162456915Y-84449562D01*
X162544063Y-84428361D01*
X162630474Y-84407239D01*
X162716142Y-84386198D01*
X162801060Y-84365239D01*
X162885223Y-84344363D01*
X162968624Y-84323572D01*
X163051256Y-84302867D01*
X163133115Y-84282248D01*
X163214194Y-84261717D01*
X163294486Y-84241275D01*
X163373987Y-84220922D01*
X163452688Y-84200661D01*
X163530585Y-84180493D01*
X163607672Y-84160418D01*
X163683942Y-84140437D01*
X163759388Y-84120552D01*
X163834006Y-84100764D01*
X163907789Y-84081074D01*
X163980730Y-84061483D01*
X164052824Y-84041992D01*
X164124064Y-84022603D01*
X164194445Y-84003316D01*
X164263960Y-83984133D01*
X164332603Y-83965054D01*
X164400368Y-83946081D01*
X164467250Y-83927216D01*
X164533241Y-83908458D01*
X164598335Y-83889810D01*
X164662528Y-83871272D01*
X164725812Y-83852846D01*
X164788181Y-83834532D01*
X164849629Y-83816332D01*
X164910151Y-83798247D01*
X164969739Y-83780278D01*
X165028389Y-83762426D01*
X165086093Y-83744693D01*
X165142846Y-83727078D01*
X165198641Y-83709585D01*
X165253473Y-83692213D01*
X165307335Y-83674964D01*
X165360221Y-83657839D01*
X165412126Y-83640839D01*
X165463042Y-83623965D01*
X165623060Y-83570255D01*
X165772537Y-83519227D01*
X165912131Y-83470493D01*
X166042501Y-83423666D01*
X166164304Y-83378357D01*
X166278200Y-83334179D01*
X166384846Y-83290744D01*
X166484900Y-83247663D01*
X166579022Y-83204549D01*
X166667868Y-83161014D01*
X166752098Y-83116669D01*
X166832369Y-83071128D01*
X166909341Y-83024002D01*
X166983670Y-82974902D01*
X167056016Y-82923442D01*
X167127037Y-82869233D01*
X167197390Y-82811888D01*
X167267735Y-82751018D01*
X167338729Y-82686235D01*
X167411031Y-82617151D01*
X167485299Y-82543380D01*
X167562191Y-82464532D01*
X167642366Y-82380219D01*
X167726481Y-82290054D01*
X167771878Y-82202038D01*
X167816573Y-82116958D01*
X167860569Y-82034771D01*
X167903869Y-81955432D01*
X167946477Y-81878898D01*
X167988395Y-81805123D01*
X168029626Y-81734065D01*
X168070174Y-81665678D01*
X168110041Y-81599919D01*
X168149230Y-81536744D01*
X168187745Y-81476109D01*
X168225589Y-81417968D01*
X168262763Y-81362279D01*
X168299273Y-81308997D01*
X168335119Y-81258078D01*
X168370307Y-81209477D01*
X168404837Y-81163152D01*
X168438715Y-81119057D01*
X168471942Y-81077148D01*
X168504521Y-81037381D01*
X168536456Y-80999713D01*
X168567749Y-80964099D01*
X168598405Y-80930494D01*
X168628424Y-80898856D01*
X168657812Y-80869138D01*
X168686570Y-80841299D01*
X168714702Y-80815293D01*
X168742210Y-80791075D01*
X168769098Y-80768604D01*
X168795369Y-80747832D01*
X168821026Y-80728718D01*
X168846071Y-80711217D01*
X168870508Y-80695284D01*
X168894340Y-80680875D01*
X168917570Y-80667947D01*
X168940201Y-80656455D01*
X168962235Y-80646355D01*
X168983676Y-80637602D01*
X169004527Y-80630154D01*
X169024791Y-80623965D01*
X169044471Y-80618992D01*
X169063570Y-80615190D01*
X169082091Y-80612515D01*
X169100037Y-80610923D01*
X169117410Y-80610370D01*
X169134215Y-80610813D01*
X169150454Y-80612205D01*
X169166130Y-80614505D01*
X169181245Y-80617666D01*
X169195804Y-80621646D01*
X169209809Y-80626401D01*
X169223263Y-80631885D01*
X169236169Y-80638055D01*
X169248530Y-80644867D01*
X169260349Y-80652276D01*
X169271630Y-80660239D01*
X169282374Y-80668711D01*
X169292586Y-80677649D01*
X169302268Y-80687008D01*
X169311423Y-80696743D01*
X169320055Y-80706812D01*
X169328166Y-80717169D01*
X169335758Y-80727771D01*
X169342837Y-80738573D01*
X169349403Y-80749531D01*
X169355461Y-80760602D01*
X169361013Y-80771741D01*
X169366063Y-80782903D01*
X169370612Y-80794045D01*
X169374666Y-80805123D01*
X169378225Y-80816093D01*
X169381294Y-80826910D01*
X169383876Y-80837530D01*
X169385973Y-80847909D01*
X169387588Y-80858003D01*
X169388725Y-80867768D01*
X169389386Y-80877160D01*
X169389575Y-80886134D01*
X169389294Y-80894647D01*
X169388547Y-80902654D01*
X169387337Y-80910111D01*
X169385666Y-80916974D01*
X169383537Y-80923199D01*
X169380955Y-80928742D01*
X169377920Y-80933559D01*
X169374438Y-80937605D01*
X169370510Y-80940836D01*
X169366140Y-80943209D01*
X169361330Y-80944678D01*
X169356084Y-80945201D01*
X169350405Y-80944733D01*
X169344296Y-80943229D01*
X169337759Y-80940646D01*
X169330798Y-80936939D01*
X169323416Y-80932065D01*
X169315616Y-80925979D01*
X169307401Y-80918637D01*
X169298773Y-80909995D01*
X169289736Y-80900008D01*
X169280293Y-80888633D01*
X169270447Y-80875826D01*
X169260201Y-80861542D01*
X169249558Y-80845738D01*
X169238521Y-80828368D01*
X169227092Y-80809390D01*
X169215276Y-80788758D01*
X169203075Y-80766429D01*
X169190491Y-80742359D01*
X169177529Y-80716503D01*
X169164191Y-80688817D01*
X169150479Y-80659258D01*
X169136398Y-80627781D01*
X169121950Y-80594341D01*
X169107138Y-80558896D01*
X169091965Y-80521400D01*
X169076434Y-80481809D01*
X169060548Y-80440080D01*
X169044311Y-80396169D01*
X169027725Y-80350030D01*
X169010792Y-80301620D01*
X168993517Y-80250896D01*
X168975903Y-80197812D01*
X168957951Y-80142324D01*
X168939666Y-80084389D01*
X168921050Y-80023963D01*
X168902106Y-79961000D01*
X168882838Y-79895458D01*
X168863248Y-79827291D01*
X168843339Y-79756457D01*
X168823115Y-79682910D01*
X168802578Y-79606606D01*
X168781731Y-79527502D01*
X168760578Y-79445553D01*
X168739121Y-79360716D01*
X168717364Y-79272945D01*
X168695309Y-79182197D01*
X168672960Y-79088428D01*
X168650319Y-78991594D01*
X168627390Y-78891650D01*
X168604175Y-78788552D01*
X168580677Y-78682257D01*
X168556900Y-78572719D01*
X168532998Y-78490973D01*
X168508092Y-78409256D01*
X168482188Y-78327572D01*
X168455289Y-78245924D01*
X168427401Y-78164317D01*
X168398528Y-78082754D01*
X168368674Y-78001240D01*
X168337844Y-77919777D01*
X168306042Y-77838369D01*
X168273273Y-77757021D01*
X168239541Y-77675735D01*
X168204850Y-77594516D01*
X168169205Y-77513368D01*
X168132610Y-77432294D01*
X168095070Y-77351297D01*
X168056590Y-77270382D01*
X168017173Y-77189553D01*
X167976824Y-77108813D01*
X167935547Y-77028165D01*
X167893348Y-76947614D01*
X167850230Y-76867164D01*
X167806198Y-76786817D01*
X167761256Y-76706578D01*
X167715409Y-76626451D01*
X167668661Y-76546439D01*
X167621017Y-76466546D01*
X167572481Y-76386776D01*
X167523057Y-76307132D01*
X167472750Y-76227619D01*
X167421565Y-76148239D01*
X167369505Y-76068997D01*
X167316575Y-75989897D01*
X167262781Y-75910942D01*
X167208125Y-75832135D01*
X167152613Y-75753482D01*
X167096249Y-75674985D01*
X167039038Y-75596647D01*
X166980983Y-75518474D01*
X166922090Y-75440469D01*
X166862362Y-75362634D01*
X166801805Y-75284975D01*
X166740422Y-75207495D01*
X166678218Y-75130197D01*
X166615198Y-75053085D01*
X166551366Y-74976164D01*
X166486726Y-74899436D01*
X166421283Y-74822906D01*
X166355041Y-74746577D01*
X166288005Y-74670453D01*
X166220180Y-74594538D01*
X166151568Y-74518836D01*
X166082176Y-74443349D01*
X166012008Y-74368083D01*
X165941067Y-74293040D01*
X165869358Y-74218225D01*
X165796887Y-74143640D01*
X165723656Y-74069291D01*
X165649671Y-73995180D01*
X165574937Y-73921312D01*
X165499457Y-73847690D01*
X165423236Y-73774318D01*
X165346278Y-73701199D01*
X165268588Y-73628338D01*
X165190170Y-73555738D01*
X165111030Y-73483402D01*
X165031170Y-73411335D01*
X164950596Y-73339541D01*
X164869312Y-73268022D01*
X164787323Y-73196784D01*
X164704632Y-73125828D01*
X164621245Y-73055160D01*
X164537166Y-72984783D01*
X164452399Y-72914701D01*
X164366948Y-72844917D01*
X164280819Y-72775436D01*
X164194016Y-72706260D01*
X164106542Y-72637394D01*
X164018403Y-72568842D01*
X163929603Y-72500607D01*
X163840146Y-72432692D01*
X163750036Y-72365102D01*
X163659279Y-72297841D01*
X163567879Y-72230912D01*
X163475840Y-72164318D01*
X163383166Y-72098064D01*
X163289862Y-72032154D01*
X163195933Y-71966591D01*
X163101383Y-71901378D01*
X163006215Y-71836520D01*
X162910436Y-71772020D01*
X162814049Y-71707882D01*
X162717058Y-71644111D01*
X162619468Y-71580708D01*
X162521284Y-71517679D01*
X162422510Y-71455027D01*
X162323150Y-71392755D01*
X162223209Y-71330868D01*
X162122691Y-71269369D01*
X162021601Y-71208263D01*
X161919943Y-71147551D01*
X161817721Y-71087240D01*
X161714941Y-71027331D01*
X161611605Y-70967829D01*
X161507720Y-70908738D01*
X161403289Y-70850061D01*
X161298317Y-70791803D01*
X161192808Y-70733966D01*
X161086767Y-70676555D01*
X160980198Y-70619573D01*
X160873105Y-70563024D01*
X160765493Y-70506912D01*
X160657367Y-70451241D01*
X160548730Y-70396014D01*
X160439588Y-70341235D01*
X160329944Y-70286907D01*
X160219803Y-70233036D01*
X160109170Y-70179623D01*
X159998050Y-70126673D01*
X159886445Y-70074191D01*
X159774362Y-70022178D01*
X159661803Y-69970640D01*
X159548775Y-69919580D01*
X159435281Y-69869001D01*
X159321325Y-69818908D01*
X159206913Y-69769304D01*
X159092048Y-69720193D01*
X158976735Y-69671578D01*
X158860978Y-69623464D01*
X158744783Y-69575854D01*
X158628152Y-69528752D01*
X158511092Y-69482161D01*
X158393605Y-69436086D01*
X158275697Y-69390529D01*
X158157373Y-69345496D01*
X158038635Y-69300989D01*
X157919490Y-69257012D01*
X157799941Y-69213570D01*
X157679993Y-69170665D01*
X157559650Y-69128301D01*
X157438916Y-69086483D01*
X157317797Y-69045214D01*
X157196297Y-69004498D01*
X157078232Y-68965379D01*
X156963280Y-68927546D01*
X156851279Y-68890974D01*
X156742068Y-68855637D01*
X156635483Y-68821511D01*
X156531363Y-68788571D01*
X156429545Y-68756792D01*
X156329867Y-68726149D01*
X156232168Y-68696617D01*
X156136284Y-68668172D01*
X156042054Y-68640788D01*
X155949315Y-68614441D01*
X155857906Y-68589106D01*
X155767663Y-68564757D01*
X155678425Y-68541370D01*
X155590030Y-68518920D01*
X155502316Y-68497383D01*
X155415119Y-68476732D01*
X155328279Y-68456944D01*
X155241632Y-68437994D01*
X155155017Y-68419856D01*
X155068272Y-68402505D01*
X154981233Y-68385918D01*
X154893740Y-68370068D01*
X154805630Y-68354931D01*
X154716740Y-68340483D01*
X154626908Y-68326698D01*
X154535973Y-68313551D01*
X154443772Y-68301017D01*
X154350143Y-68289072D01*
X154254924Y-68277691D01*
X154157952Y-68266848D01*
X154059065Y-68256520D01*
X153958101Y-68246680D01*
X153854898Y-68237304D01*
X153749294Y-68228368D01*
X153641126Y-68219846D01*
X153530233Y-68211713D01*
X153416451Y-68203945D01*
X153299620Y-68196517D01*
X153179576Y-68189403D01*
X153056158Y-68182579D01*
X152929203Y-68176020D01*
X152798549Y-68169702D01*
X152664034Y-68163598D01*
X152525495Y-68157685D01*
X152382772Y-68151937D01*
X152235700Y-68146330D01*
X152084119Y-68140838D01*
X151927865Y-68135437D01*
X151766777Y-68130102D01*
X151600693Y-68124808D01*
X151429450Y-68119530D01*
X151315573Y-68116194D01*
X151200080Y-68113047D01*
X151083041Y-68110089D01*
X150964522Y-68107319D01*
X150844592Y-68104733D01*
X150723319Y-68102332D01*
X150600770Y-68100113D01*
X150477015Y-68098075D01*
X150352120Y-68096217D01*
X150226154Y-68094538D01*
X150099184Y-68093034D01*
X149971280Y-68091706D01*
X149842508Y-68090552D01*
X149712937Y-68089570D01*
X149582635Y-68088758D01*
X149451670Y-68088116D01*
X149320109Y-68087642D01*
X149188021Y-68087334D01*
X149055474Y-68087191D01*
X148922536Y-68087211D01*
X148789274Y-68087393D01*
X148655758Y-68087736D01*
X148522054Y-68088237D01*
X148388230Y-68088896D01*
X148254356Y-68089711D01*
X148120498Y-68090681D01*
X147986725Y-68091803D01*
X147853105Y-68093077D01*
X147719705Y-68094501D01*
X147586595Y-68096074D01*
X147453841Y-68097794D01*
X147321512Y-68099660D01*
X147189675Y-68101670D01*
X147058399Y-68103822D01*
X146927753Y-68106116D01*
X146797802Y-68108549D01*
X146668617Y-68111121D01*
X146540264Y-68113830D01*
X146412812Y-68116674D01*
X146286329Y-68119651D01*
X146160882Y-68122762D01*
X146036541Y-68126003D01*
X145913372Y-68129373D01*
X145791443Y-68132872D01*
X145670824Y-68136497D01*
X145551581Y-68140246D01*
X145433783Y-68144120D01*
X145317497Y-68148115D01*
X145202793Y-68152231D01*
X145089737Y-68156467D01*
X144978397Y-68160819D01*
X144868843Y-68165288D01*
X144761141Y-68169872D01*
X144655360Y-68174569D01*
X144551567Y-68179377D01*
X144449832Y-68184296D01*
X144350221Y-68189324D01*
X144252803Y-68194458D01*
X144157645Y-68199699D01*
X144064816Y-68205044D01*
X143974384Y-68210492D01*
X143886417Y-68216041D01*
X143800982Y-68221690D01*
X143718148Y-68227438D01*
X143637982Y-68233282D01*
X143560554Y-68239222D01*
X143485930Y-68245256D01*
X143414178Y-68251383D01*
X143345368Y-68257600D01*
X143279566Y-68263907D01*
X143216841Y-68270302D01*
X143157260Y-68276784D01*
X143100892Y-68283351D01*
X143047805Y-68290002D01*
X142998067Y-68296735D01*
X142951745Y-68303549D01*
X142855471Y-68318641D01*
X142758564Y-68334418D01*
X142661040Y-68350875D01*
X142562916Y-68368006D01*
X142464205Y-68385805D01*
X142364925Y-68404267D01*
X142265090Y-68423385D01*
X142164717Y-68443154D01*
X142063820Y-68463568D01*
X141962415Y-68484622D01*
X141860518Y-68506309D01*
X141758144Y-68528625D01*
X141655310Y-68551562D01*
X141552030Y-68575117D01*
X141448319Y-68599282D01*
X141344195Y-68624052D01*
X141239672Y-68649421D01*
X141134765Y-68675384D01*
X141029491Y-68701935D01*
X140923865Y-68729068D01*
X140817902Y-68756777D01*
X140711618Y-68785057D01*
X140605029Y-68813902D01*
X140498150Y-68843306D01*
X140390997Y-68873264D01*
X140283585Y-68903770D01*
X140175930Y-68934817D01*
X140068047Y-68966401D01*
X139959953Y-68998515D01*
X139851662Y-69031154D01*
X139743190Y-69064312D01*
X139634552Y-69097983D01*
X139525766Y-69132162D01*
X139416844Y-69166843D01*
X139307805Y-69202020D01*
X139198662Y-69237688D01*
X139089432Y-69273840D01*
X138980130Y-69310471D01*
X138870771Y-69347575D01*
X138761372Y-69385147D01*
X138651948Y-69423181D01*
X138542514Y-69461670D01*
X138433086Y-69500610D01*
X138323679Y-69539995D01*
X138214310Y-69579818D01*
X138104993Y-69620074D01*
X137995744Y-69660758D01*
X137886579Y-69701863D01*
X137777514Y-69743384D01*
X137668563Y-69785316D01*
X137559743Y-69827651D01*
X137451069Y-69870386D01*
X137342557Y-69913513D01*
X137234221Y-69957028D01*
X137126079Y-70000924D01*
X137018144Y-70045196D01*
X136910434Y-70089838D01*
X136802963Y-70134844D01*
X136695747Y-70180209D01*
X136588802Y-70225926D01*
X136482143Y-70271991D01*
X136375785Y-70318397D01*
X136269745Y-70365139D01*
X136164038Y-70412210D01*
X136058679Y-70459606D01*
X135953684Y-70507320D01*
X135849068Y-70555347D01*
X135744848Y-70603681D01*
X135641038Y-70652316D01*
X135537655Y-70701247D01*
X135434713Y-70750467D01*
X135332229Y-70799972D01*
X135230218Y-70849754D01*
X135128695Y-70899810D01*
X135027676Y-70950132D01*
X134927177Y-71000715D01*
X134827213Y-71051554D01*
X134727800Y-71102642D01*
X134628954Y-71153974D01*
X134530689Y-71205544D01*
X134433022Y-71257347D01*
X134335967Y-71309377D01*
X134239542Y-71361627D01*
X134143760Y-71414093D01*
X134048639Y-71466768D01*
X133954192Y-71519647D01*
X133860437Y-71572724D01*
X133767388Y-71625994D01*
X133675061Y-71679450D01*
X133583471Y-71733087D01*
X133492635Y-71786899D01*
X133391278Y-71847698D01*
X133290188Y-71909149D01*
X133189373Y-71971242D01*
X133088840Y-72033968D01*
X132988599Y-72097319D01*
X132888659Y-72161286D01*
X132789027Y-72225859D01*
X132689711Y-72291032D01*
X132590721Y-72356793D01*
X132492065Y-72423136D01*
X132393752Y-72490050D01*
X132295788Y-72557528D01*
X132198184Y-72625560D01*
X132100948Y-72694138D01*
X132004087Y-72763253D01*
X131907611Y-72832896D01*
X131811528Y-72903059D01*
X131715846Y-72973732D01*
X131620574Y-73044907D01*
X131525720Y-73116575D01*
X131431293Y-73188727D01*
X131337301Y-73261355D01*
X131243752Y-73334450D01*
X131150655Y-73408003D01*
X131058019Y-73482005D01*
X130965851Y-73556447D01*
X130874161Y-73631322D01*
X130782956Y-73706619D01*
X130692245Y-73782331D01*
X130602037Y-73858447D01*
X130512340Y-73934961D01*
X130423163Y-74011862D01*
X130334513Y-74089143D01*
X130246400Y-74166794D01*
X130158831Y-74244806D01*
X130071815Y-74323172D01*
X129985362Y-74401881D01*
X129899478Y-74480926D01*
X129814172Y-74560297D01*
X129729454Y-74639986D01*
X129645331Y-74719984D01*
X129561812Y-74800282D01*
X129478905Y-74880872D01*
X129396618Y-74961744D01*
X129314961Y-75042890D01*
X129233941Y-75124301D01*
X129153568Y-75205969D01*
X129073849Y-75287884D01*
X128994792Y-75370038D01*
X128916407Y-75452422D01*
X128838702Y-75535028D01*
X128761685Y-75617846D01*
X128685364Y-75700868D01*
X128609749Y-75784084D01*
X128534847Y-75867487D01*
X128460667Y-75951068D01*
X128387217Y-76034817D01*
X128314506Y-76118726D01*
X128242543Y-76202786D01*
X128171335Y-76286989D01*
X128100891Y-76371325D01*
X128031220Y-76455786D01*
X127962329Y-76540363D01*
X127894228Y-76625048D01*
X127826925Y-76709831D01*
X127760429Y-76794703D01*
X127694747Y-76879657D01*
X127629888Y-76964683D01*
X127565861Y-77049773D01*
X127502674Y-77134917D01*
X127440335Y-77220107D01*
X127378854Y-77305334D01*
X127318237Y-77390590D01*
X127258495Y-77475865D01*
X127199634Y-77561152D01*
X127141665Y-77646440D01*
X127084594Y-77731722D01*
X127028431Y-77816988D01*
X126973184Y-77902230D01*
X126918862Y-77987439D01*
X126865472Y-78072606D01*
X126813024Y-78157723D01*
X126761525Y-78242780D01*
X126710985Y-78327770D01*
X126661411Y-78412683D01*
X126612812Y-78497510D01*
X126565197Y-78582242D01*
X126518573Y-78666872D01*
X126472950Y-78751390D01*
X126428336Y-78835787D01*
X126384739Y-78920054D01*
X126342168Y-79004184D01*
X126300631Y-79088166D01*
X126260136Y-79171993D01*
X126220693Y-79255656D01*
X126182308Y-79339145D01*
X126144992Y-79422452D01*
X126093825Y-79539500D01*
X126044678Y-79654590D01*
X125997523Y-79767855D01*
X125952328Y-79879430D01*
X125909066Y-79989446D01*
X125867707Y-80098037D01*
X125828222Y-80205337D01*
X125790581Y-80311479D01*
X125754756Y-80416596D01*
X125720716Y-80520822D01*
X125688432Y-80624289D01*
X125657876Y-80727131D01*
X125629017Y-80829482D01*
X125601827Y-80931474D01*
X125576277Y-81033241D01*
X125552336Y-81134916D01*
X125529976Y-81236632D01*
X125509168Y-81338523D01*
X125489882Y-81440723D01*
X125472088Y-81543363D01*
X125455758Y-81646578D01*
X125440862Y-81750501D01*
X125427371Y-81855265D01*
X125415255Y-81961003D01*
X125404486Y-82067849D01*
X125395034Y-82175936D01*
X125386870Y-82285398D01*
X125379964Y-82396367D01*
X125374287Y-82508976D01*
X125369810Y-82623360D01*
X125366503Y-82739652D01*
X125364337Y-82857984D01*
X125363284Y-82978490D01*
X125363272Y-83118503D01*
X125364475Y-83253487D01*
X125366964Y-83383737D01*
X125370811Y-83509547D01*
X125376088Y-83631211D01*
X125382866Y-83749022D01*
X125391217Y-83863275D01*
X125401213Y-83974264D01*
X125412927Y-84082283D01*
X125426428Y-84187625D01*
X125441790Y-84290585D01*
X125459084Y-84391457D01*
X125478382Y-84490535D01*
X125499756Y-84588112D01*
X125523276Y-84684484D01*
X125549016Y-84779943D01*
X125577046Y-84874784D01*
X125607440Y-84969301D01*
X125640267Y-85063788D01*
X125675601Y-85158539D01*
X125713512Y-85253848D01*
X125754073Y-85350009D01*
X125797356Y-85447316D01*
X125843431Y-85546063D01*
X125892372Y-85646544D01*
X125944249Y-85749053D01*
X125999135Y-85853884D01*
X126057100Y-85961332D01*
X126118218Y-86071689D01*
X126158144Y-86139928D01*
X126203134Y-86211339D01*
X126252924Y-86285664D01*
X126307250Y-86362644D01*
X126365849Y-86442023D01*
X126428455Y-86523543D01*
X126494806Y-86606945D01*
X126564638Y-86691974D01*
X126637686Y-86778370D01*
X126713688Y-86865876D01*
X126792378Y-86954235D01*
X126873494Y-87043189D01*
X126956771Y-87132480D01*
X127041945Y-87221851D01*
X127128753Y-87311044D01*
X127216931Y-87399801D01*
X127306214Y-87487865D01*
X127396340Y-87574979D01*
X127487044Y-87660883D01*
X127578062Y-87745322D01*
X127669130Y-87828037D01*
X127759985Y-87908770D01*
X127850363Y-87987264D01*
X127940000Y-88063262D01*
X128028632Y-88136505D01*
X128115994Y-88206737D01*
X128201825Y-88273699D01*
X128285858Y-88337133D01*
X128367831Y-88396783D01*
X128447480Y-88452390D01*
X128524541Y-88503697D01*
X128598749Y-88550446D01*
X128669842Y-88592380D01*
X128737555Y-88629241D01*
X128816578Y-88668916D01*
X128900155Y-88708287D01*
X128987959Y-88747262D01*
X129079667Y-88785751D01*
X129174955Y-88823662D01*
X129273498Y-88860904D01*
X129374970Y-88897385D01*
X129479049Y-88933014D01*
X129585409Y-88967699D01*
X129693726Y-89001351D01*
X129803676Y-89033876D01*
X129914933Y-89065184D01*
X130027174Y-89095184D01*
X130140074Y-89123784D01*
X130253308Y-89150893D01*
X130366553Y-89176420D01*
X130479483Y-89200272D01*
X130591774Y-89222360D01*
X130703102Y-89242592D01*
X130813142Y-89260876D01*
X130921569Y-89277120D01*
X131028060Y-89291235D01*
X131132290Y-89303128D01*
X131183727Y-89307946D01*
X131239985Y-89312179D01*
X131300922Y-89315834D01*
X131366394Y-89318918D01*
X131436258Y-89321439D01*
X131510371Y-89323403D01*
X131588591Y-89324817D01*
X131670774Y-89325689D01*
X131756777Y-89326027D01*
X131846458Y-89325836D01*
X131939673Y-89325124D01*
X132036278Y-89323899D01*
X132136133Y-89322168D01*
X132239092Y-89319937D01*
X132345013Y-89317214D01*
X132453754Y-89314006D01*
X132565170Y-89310321D01*
X132679120Y-89306164D01*
X132795460Y-89301544D01*
X132914047Y-89296468D01*
X133034737Y-89290943D01*
X133157389Y-89284976D01*
X133281859Y-89278574D01*
X133408004Y-89271744D01*
X133535681Y-89264493D01*
X133664747Y-89256830D01*
X133795059Y-89248760D01*
X133926474Y-89240290D01*
X134058849Y-89231430D01*
X134192040Y-89222184D01*
X134325906Y-89212561D01*
X134460302Y-89202567D01*
X134595087Y-89192210D01*
X134730116Y-89181497D01*
X134865247Y-89170435D01*
X135000337Y-89159031D01*
X135135243Y-89147292D01*
X135269821Y-89135226D01*
X135403929Y-89122840D01*
X135537424Y-89110141D01*
X135670163Y-89097135D01*
X135802003Y-89083831D01*
X135932800Y-89070235D01*
X136062412Y-89056355D01*
X148044873Y-96693017D01*
X147932088Y-96667739D01*
X147818984Y-96642694D01*
X147705567Y-96617883D01*
X147591846Y-96593307D01*
X147477826Y-96568966D01*
X147363515Y-96544862D01*
X147248921Y-96520996D01*
X147134050Y-96497369D01*
X147018909Y-96473981D01*
X146903506Y-96450835D01*
X146787848Y-96427930D01*
X146671942Y-96405268D01*
X146555795Y-96382850D01*
X146439413Y-96360677D01*
X146322805Y-96338750D01*
X146205978Y-96317070D01*
X146088938Y-96295637D01*
X145971692Y-96274454D01*
X145854248Y-96253520D01*
X145736613Y-96232838D01*
X145618795Y-96212408D01*
X145500799Y-96192230D01*
X145382633Y-96172307D01*
X145264305Y-96152639D01*
X145145822Y-96133227D01*
X145027190Y-96114072D01*
X144908416Y-96095175D01*
X144789509Y-96076537D01*
X144670475Y-96058159D01*
X144551320Y-96040043D01*
X144432053Y-96022188D01*
X144312681Y-96004597D01*
X144193210Y-95987270D01*
X144073647Y-95970209D01*
X143954000Y-95953413D01*
X143834277Y-95936885D01*
X143714483Y-95920625D01*
X143594626Y-95904635D01*
X143474714Y-95888914D01*
X143354753Y-95873465D01*
X143234750Y-95858289D01*
X143114713Y-95843385D01*
X142994649Y-95828756D01*
X142874565Y-95814403D01*
X142754468Y-95800326D01*
X142634365Y-95786526D01*
X142514263Y-95773005D01*
X142394169Y-95759763D01*
X142274092Y-95746802D01*
X142154036Y-95734122D01*
X142034011Y-95721725D01*
X141914022Y-95709611D01*
X141794078Y-95697781D01*
X141674184Y-95686238D01*
X141554349Y-95674981D01*
X141434580Y-95664011D01*
X141314882Y-95653330D01*
X141195265Y-95642939D01*
X141075734Y-95632838D01*
X140956297Y-95623029D01*
X140836961Y-95613513D01*
X140717734Y-95604290D01*
X140598621Y-95595362D01*
X140479631Y-95586730D01*
X140360771Y-95578394D01*
X140242047Y-95570356D01*
X140123467Y-95562617D01*
X140005038Y-95555178D01*
X139886767Y-95548039D01*
X139768661Y-95541203D01*
X139650727Y-95534669D01*
X139532973Y-95528439D01*
X139415406Y-95522514D01*
X139298032Y-95516895D01*
X139180858Y-95511582D01*
X139063893Y-95506578D01*
X138947143Y-95501882D01*
X138830615Y-95497497D01*
X138714316Y-95493422D01*
X138598254Y-95489660D01*
X138482435Y-95486210D01*
X138366867Y-95483074D01*
X138251556Y-95480254D01*
X138136511Y-95477749D01*
X138021738Y-95475562D01*
X137907243Y-95473693D01*
X137793036Y-95472142D01*
X137679121Y-95470912D01*
X137565507Y-95470003D01*
X137452201Y-95469416D01*
X137339209Y-95469152D01*
X137226540Y-95469213D01*
X137114200Y-95469598D01*
X137002195Y-95470310D01*
X136890534Y-95471349D01*
X136779224Y-95472716D01*
X136668271Y-95474413D01*
X136557683Y-95476440D01*
X136447466Y-95478798D01*
X136337629Y-95481488D01*
X136228177Y-95484512D01*
X136119119Y-95487870D01*
X136010461Y-95491563D01*
X135902210Y-95495593D01*
X135794374Y-95499960D01*
X135686960Y-95504666D01*
X135579975Y-95509711D01*
X135473425Y-95515096D01*
X135367319Y-95520823D01*
X135261662Y-95526892D01*
X135156463Y-95533305D01*
X135051729Y-95540063D01*
X134947466Y-95547165D01*
X134843682Y-95554615D01*
X134740383Y-95562412D01*
X134637578Y-95570557D01*
X134535273Y-95579052D01*
X134433474Y-95587898D01*
X134332191Y-95597095D01*
X134231428Y-95606645D01*
X134131194Y-95616549D01*
X134031496Y-95626807D01*
X133932341Y-95637421D01*
X133833736Y-95648391D01*
X133735687Y-95659720D01*
X133638203Y-95671407D01*
X133541291Y-95683453D01*
X133444957Y-95695861D01*
X133349208Y-95708630D01*
X133254052Y-95721762D01*
X133159496Y-95735258D01*
X133065547Y-95749119D01*
X132972212Y-95763346D01*
X132879498Y-95777939D01*
X132787412Y-95792901D01*
X132695962Y-95808231D01*
X132605155Y-95823931D01*
X132514997Y-95840002D01*
X132425496Y-95856445D01*
X132336659Y-95873261D01*
X132248493Y-95890451D01*
X132161006Y-95908016D01*
X132074204Y-95925957D01*
X131988094Y-95944275D01*
X131902684Y-95962971D01*
X131817980Y-95982046D01*
X131733991Y-96001501D01*
X131650722Y-96021337D01*
X131568181Y-96041555D01*
X131486376Y-96062157D01*
X131335092Y-96100656D01*
X131187281Y-96137749D01*
X131042830Y-96173447D01*
X130901629Y-96207766D01*
X130763567Y-96240718D01*
X130628532Y-96272317D01*
X130496412Y-96302575D01*
X130367097Y-96331508D01*
X130240476Y-96359127D01*
X130116436Y-96385446D01*
X129994867Y-96410479D01*
X129875658Y-96434240D01*
X129758697Y-96456741D01*
X129643873Y-96477995D01*
X129531074Y-96498018D01*
X129420190Y-96516821D01*
X129311109Y-96534418D01*
X129203720Y-96550823D01*
X129097911Y-96566049D01*
X128993572Y-96580110D01*
X128890590Y-96593018D01*
X128788856Y-96604788D01*
X128688257Y-96615432D01*
X128588682Y-96624965D01*
X128490020Y-96633399D01*
X128392159Y-96640748D01*
X128294989Y-96647026D01*
X128198398Y-96652245D01*
X128102275Y-96656419D01*
X128006508Y-96659562D01*
X127910987Y-96661687D01*
X127815600Y-96662808D01*
X127720235Y-96662937D01*
X127624782Y-96662089D01*
X127529129Y-96660276D01*
X127433165Y-96657513D01*
X127336778Y-96653811D01*
X127239858Y-96649186D01*
X127142293Y-96643651D01*
X127043971Y-96637217D01*
X126944783Y-96629901D01*
X126844615Y-96621713D01*
X126699590Y-96608060D01*
X126560895Y-96592411D01*
X126428273Y-96574659D01*
X126301470Y-96554701D01*
X126180228Y-96532431D01*
X126064293Y-96507744D01*
X125953409Y-96480534D01*
X125847319Y-96450697D01*
X125745769Y-96418126D01*
X125648502Y-96382718D01*
X125555262Y-96344367D01*
X125465795Y-96302967D01*
X125379843Y-96258414D01*
X125297152Y-96210601D01*
X125217466Y-96159425D01*
X125140528Y-96104780D01*
X125066084Y-96046560D01*
X124993877Y-95984661D01*
X124923652Y-95918977D01*
X124855152Y-95849403D01*
X124788123Y-95775834D01*
X124712327Y-95686621D01*
X124641786Y-95597601D01*
X124576502Y-95508743D01*
X124516476Y-95420015D01*
X124461709Y-95331386D01*
X124412203Y-95242825D01*
X124367957Y-95154300D01*
X124328975Y-95065781D01*
X124295255Y-94977234D01*
X124266801Y-94888630D01*
X124243612Y-94799937D01*
X124225690Y-94711124D01*
X124213035Y-94622158D01*
X124205650Y-94533009D01*
X124203535Y-94443645D01*
X124206692Y-94354035D01*
X124215121Y-94264148D01*
X124228823Y-94173951D01*
X124247799Y-94083415D01*
X124272052Y-93992507D01*
X124301581Y-93901196D01*
X124336388Y-93809450D01*
X124376474Y-93717239D01*
X124421841Y-93624531D01*
X124472488Y-93531294D01*
X124528418Y-93437497D01*
X124589631Y-93343109D01*
X124656129Y-93248098D01*
X124727912Y-93152434D01*
X124804982Y-93056084D01*
X124887340Y-92959017D01*
X124953726Y-92876139D01*
X125014889Y-92786189D01*
X125070561Y-92690236D01*
X125120473Y-92589352D01*
X125164354Y-92484604D01*
X125201937Y-92377063D01*
X125232951Y-92267798D01*
X125257127Y-92157879D01*
X125274195Y-92048376D01*
X125283887Y-91940358D01*
X125285934Y-91834895D01*
X125280065Y-91733056D01*
X125266011Y-91635912D01*
X125243504Y-91544532D01*
X125213306Y-91459157D01*
X125174814Y-91373328D01*
X125128556Y-91287439D01*
X125075062Y-91201885D01*
X125014860Y-91117058D01*
X124948481Y-91033353D01*
X124876453Y-90951164D01*
X124799306Y-90870884D01*
X124717570Y-90792908D01*
X124631773Y-90717629D01*
X124542445Y-90645442D01*
X124450115Y-90576739D01*
X124355312Y-90511915D01*
X124258567Y-90451364D01*
X124160407Y-90395480D01*
X124061363Y-90344656D01*
X123961964Y-90299287D01*
X123862739Y-90259765D01*
X123764218Y-90226486D01*
X123666929Y-90199843D01*
X123571402Y-90180230D01*
X123478167Y-90168041D01*
X123387752Y-90163669D01*
X123336380Y-90158926D01*
X123269733Y-90145488D01*
X123189826Y-90124092D01*
X123098674Y-90095473D01*
X122998290Y-90060368D01*
X122890690Y-90019514D01*
X122777889Y-89973646D01*
X122661901Y-89923502D01*
X122544739Y-89869817D01*
X122428421Y-89813328D01*
X122328979Y-89761893D01*
X122230974Y-89707824D01*
X122134469Y-89651188D01*
X122039531Y-89592051D01*
X121946225Y-89530479D01*
X121854616Y-89466537D01*
X121764770Y-89400293D01*
X121676752Y-89331813D01*
X121590628Y-89261161D01*
X121506463Y-89188406D01*
X121424323Y-89113612D01*
X121344273Y-89036845D01*
X121266379Y-88958173D01*
X121190706Y-88877661D01*
X121117319Y-88795374D01*
X121046285Y-88711381D01*
X120977668Y-88625745D01*
X120911534Y-88538534D01*
X120847948Y-88449814D01*
X120786977Y-88359650D01*
X120728685Y-88268110D01*
X120673137Y-88175258D01*
X120620401Y-88081162D01*
X120570540Y-87985887D01*
X120523620Y-87889499D01*
X120484049Y-87804071D01*
X120448584Y-87724646D01*
X120417009Y-87649634D01*
X120389107Y-87577442D01*
X120364662Y-87506481D01*
X120343459Y-87435158D01*
X120325281Y-87361882D01*
X120309912Y-87285063D01*
X120297136Y-87203110D01*
X120286736Y-87114430D01*
X120278498Y-87017432D01*
X120272203Y-86910527D01*
X120267638Y-86792121D01*
X120264585Y-86660625D01*
X120262828Y-86514447D01*
X120262151Y-86351996D01*
X120262338Y-86171680D01*
X120263173Y-85971908D01*
X120264088Y-85863335D01*
X120265710Y-85755252D01*
X120268045Y-85647632D01*
X120271098Y-85540452D01*
X120274875Y-85433686D01*
X120279380Y-85327308D01*
X120284620Y-85221294D01*
X120290600Y-85115618D01*
X120297325Y-85010255D01*
X120304800Y-84905180D01*
X120313031Y-84800367D01*
X120322023Y-84695792D01*
X120331782Y-84591429D01*
X120342314Y-84487253D01*
X120353622Y-84383239D01*
X120365714Y-84279362D01*
X120378594Y-84175596D01*
X120392267Y-84071916D01*
X120406740Y-83968297D01*
X120422017Y-83864714D01*
X120438104Y-83761142D01*
X120455006Y-83657555D01*
X120472729Y-83553928D01*
X120491277Y-83450236D01*
X120510658Y-83346454D01*
X120530875Y-83242557D01*
X120551934Y-83138519D01*
X120573841Y-83034315D01*
X120596601Y-82929920D01*
X120620220Y-82825309D01*
X120644702Y-82720456D01*
X120670054Y-82615337D01*
X120696280Y-82509926D01*
X120723386Y-82404197D01*
X120751378Y-82298127D01*
X120780260Y-82191689D01*
X120810039Y-82084859D01*
X120840719Y-81977610D01*
X120872306Y-81869919D01*
X120904806Y-81761759D01*
X120938223Y-81653106D01*
X120972564Y-81543934D01*
X121007833Y-81434218D01*
X121044037Y-81323934D01*
X121081179Y-81213054D01*
X121119267Y-81101556D01*
X121158304Y-80989413D01*
X121198297Y-80876599D01*
X121239252Y-80763091D01*
X121281172Y-80648862D01*
X121324064Y-80533888D01*
X121367934Y-80418144D01*
X121412786Y-80301603D01*
X121458626Y-80184241D01*
X121505459Y-80066033D01*
X121553291Y-79946953D01*
X121590766Y-79855100D01*
X121628878Y-79763306D01*
X121667627Y-79671573D01*
X121707008Y-79579903D01*
X121747022Y-79488298D01*
X121787664Y-79396762D01*
X121828933Y-79305297D01*
X121870827Y-79213905D01*
X121913343Y-79122588D01*
X121956480Y-79031349D01*
X122000236Y-78940190D01*
X122044607Y-78849115D01*
X122089592Y-78758124D01*
X122135189Y-78667222D01*
X122181395Y-78576409D01*
X122228209Y-78485689D01*
X122275627Y-78395064D01*
X122323649Y-78304537D01*
X122372272Y-78214109D01*
X122421493Y-78123783D01*
X122471310Y-78033563D01*
X122521722Y-77943449D01*
X122572726Y-77853445D01*
X122624320Y-77763553D01*
X122676501Y-77673776D01*
X122729268Y-77584115D01*
X122782618Y-77494574D01*
X122836549Y-77405154D01*
X122891060Y-77315859D01*
X122946147Y-77226690D01*
X123001808Y-77137651D01*
X123058042Y-77048743D01*
X123114847Y-76959968D01*
X123172219Y-76871330D01*
X123230157Y-76782831D01*
X123288659Y-76694474D01*
X123347723Y-76606259D01*
X123407345Y-76518191D01*
X123467525Y-76430272D01*
X123528260Y-76342503D01*
X123589548Y-76254888D01*
X123651386Y-76167429D01*
X123713773Y-76080128D01*
X123776706Y-75992987D01*
X123840183Y-75906010D01*
X123904202Y-75819198D01*
X123968760Y-75732554D01*
X124033856Y-75646081D01*
X124099488Y-75559781D01*
X124165652Y-75473656D01*
X124232348Y-75387708D01*
X124299572Y-75301941D01*
X124367323Y-75216356D01*
X124435598Y-75130957D01*
X124504396Y-75045745D01*
X124573713Y-74960722D01*
X124643549Y-74875892D01*
X124713900Y-74791257D01*
X124784764Y-74706819D01*
X124856140Y-74622581D01*
X124928026Y-74538545D01*
X125000418Y-74454713D01*
X125073315Y-74371088D01*
X125146714Y-74287673D01*
X125220614Y-74204469D01*
X125295012Y-74121480D01*
X125369907Y-74038707D01*
X125445295Y-73956153D01*
X125521175Y-73873821D01*
X125597544Y-73791713D01*
X125674401Y-73709831D01*
X125751742Y-73628178D01*
X125829567Y-73546756D01*
X125907873Y-73465569D01*
X125986657Y-73384617D01*
X126065918Y-73303903D01*
X126145653Y-73223431D01*
X126225859Y-73143202D01*
X126306536Y-73063219D01*
X126387681Y-72983485D01*
X126469291Y-72904001D01*
X126551364Y-72824770D01*
X126633899Y-72745795D01*
X126716892Y-72667078D01*
X126800343Y-72588621D01*
X126884247Y-72510427D01*
X126968605Y-72432499D01*
X127053412Y-72354838D01*
X127138668Y-72277448D01*
X127224370Y-72200330D01*
X127310515Y-72123487D01*
X127397102Y-72046922D01*
X127484128Y-71970637D01*
X127571591Y-71894634D01*
X127659489Y-71818916D01*
X127747820Y-71743485D01*
X127836582Y-71668344D01*
X127925772Y-71593495D01*
X128015388Y-71518940D01*
X128105429Y-71444683D01*
X128195891Y-71370725D01*
X128286773Y-71297068D01*
X128378072Y-71223716D01*
X128469787Y-71150671D01*
X128561915Y-71077935D01*
X128654454Y-71005510D01*
X128747402Y-70933399D01*
X128840756Y-70861605D01*
X128934515Y-70790130D01*
X129028676Y-70718976D01*
X129123237Y-70648146D01*
X129218196Y-70577641D01*
X129313551Y-70507466D01*
X129409299Y-70437621D01*
X129505439Y-70368111D01*
X129601968Y-70298935D01*
X129698883Y-70230099D01*
X129796184Y-70161603D01*
X129893867Y-70093450D01*
X129991931Y-70025643D01*
X130090373Y-69958184D01*
X130189191Y-69891075D01*
X130288382Y-69824320D01*
X130387946Y-69757920D01*
X130487879Y-69691877D01*
X130588179Y-69626195D01*
X130688845Y-69560876D01*
X130789874Y-69495921D01*
X130891263Y-69431335D01*
X130993011Y-69367118D01*
X131095115Y-69303273D01*
X131182401Y-69249168D01*
X131269943Y-69195343D01*
X131357738Y-69141797D01*
X131445787Y-69088532D01*
X131534086Y-69035546D01*
X131622636Y-68982841D01*
X131711434Y-68930417D01*
X131800480Y-68878273D01*
X131889773Y-68826410D01*
X131979310Y-68774828D01*
X132069090Y-68723527D01*
X132159113Y-68672508D01*
X132249377Y-68621770D01*
X132339881Y-68571314D01*
X132430622Y-68521141D01*
X132521601Y-68471249D01*
X132612816Y-68421640D01*
X132704265Y-68372313D01*
X132795947Y-68323269D01*
X132887861Y-68274507D01*
X132980006Y-68226029D01*
X133072380Y-68177834D01*
X133164981Y-68129923D01*
X133257810Y-68082295D01*
X133350863Y-68034951D01*
X133444141Y-67987891D01*
X133537641Y-67941115D01*
X133631362Y-67894623D01*
X133725304Y-67848416D01*
X133819464Y-67802494D01*
X133913842Y-67756857D01*
X134008436Y-67711504D01*
X134103245Y-67666437D01*
X134198268Y-67621656D01*
X134293502Y-67577160D01*
X134388948Y-67532950D01*
X134484603Y-67489025D01*
X134580466Y-67445387D01*
X134676537Y-67402036D01*
X134772813Y-67358970D01*
X134869294Y-67316192D01*
X134965978Y-67273700D01*
X135062863Y-67231496D01*
X135159949Y-67189579D01*
X135257234Y-67147949D01*
X135354717Y-67106607D01*
X135452397Y-67065552D01*
X135550272Y-67024786D01*
X135648341Y-66984308D01*
X135746602Y-66944118D01*
X135845055Y-66904217D01*
X135943698Y-66864604D01*
X136042529Y-66825281D01*
X136141548Y-66786246D01*
X136240753Y-66747501D01*
X136340143Y-66709045D01*
X136439717Y-66670879D01*
X136539473Y-66633002D01*
X136639409Y-66595416D01*
X136739525Y-66558120D01*
X136839820Y-66521114D01*
X136940291Y-66484399D01*
X137040938Y-66447974D01*
X137141760Y-66411840D01*
X137242754Y-66375998D01*
X137343920Y-66340446D01*
X137445257Y-66305186D01*
X137546763Y-66270218D01*
X137648437Y-66235542D01*
X137750277Y-66201157D01*
X137852282Y-66167065D01*
X137954452Y-66133265D01*
X138056784Y-66099758D01*
X138159277Y-66066543D01*
X138261930Y-66033622D01*
X138364742Y-66000993D01*
X138467712Y-65968658D01*
X138570837Y-65936616D01*
X138674118Y-65904868D01*
X138777551Y-65873413D01*
X138881137Y-65842253D01*
X138984874Y-65811386D01*
X139088761Y-65780815D01*
X139192795Y-65750537D01*
X139296977Y-65720555D01*
X139401304Y-65690867D01*
X139505775Y-65661474D01*
X139610390Y-65632377D01*
X139715146Y-65603575D01*
X139820043Y-65575069D01*
X139925079Y-65546859D01*
X140030253Y-65518944D01*
X140135563Y-65491326D01*
X140241008Y-65464005D01*
X140346587Y-65436979D01*
X140452299Y-65410251D01*
X140558142Y-65383819D01*
X140664115Y-65357685D01*
X140770217Y-65331848D01*
X140876446Y-65306308D01*
X140982801Y-65281066D01*
X141089281Y-65256121D01*
X141195885Y-65231475D01*
X141302610Y-65207127D01*
X141409456Y-65183077D01*
X141516422Y-65159326D01*
X141623506Y-65135874D01*
X141730707Y-65112720D01*
X141838024Y-65089866D01*
X141945455Y-65067311D01*
X142052999Y-65045055D01*
X142160654Y-65023100D01*
X142268420Y-65001443D01*
X142376295Y-64980087D01*
X142484278Y-64959031D01*
X142592368Y-64938276D01*
X142700562Y-64917821D01*
X142808860Y-64897667D01*
X142917261Y-64877813D01*
X143025763Y-64858261D01*
X143134365Y-64839010D01*
X143243066Y-64820061D01*
X143351864Y-64801413D01*
X143460758Y-64783067D01*
X143569747Y-64765023D01*
X143678829Y-64747282D01*
X143788004Y-64729842D01*
X143897269Y-64712706D01*
X144006623Y-64695872D01*
X144116066Y-64679340D01*
X144225596Y-64663113D01*
X144335211Y-64647188D01*
X144444911Y-64631567D01*
X144554693Y-64616249D01*
X144664557Y-64601235D01*
X144774502Y-64586526D01*
X144884526Y-64572120D01*
X144994627Y-64558019D01*
X145104805Y-64544223D01*
X145215058Y-64530731D01*
X145325384Y-64517544D01*
X145435783Y-64504662D01*
X145546254Y-64492086D01*
X145656794Y-64479815D01*
X145767403Y-64467850D01*
X145878080Y-64456190D01*
X145988822Y-64444837D01*
X146099629Y-64433790D01*
X146210499Y-64423049D01*
X146321432Y-64412615D01*
X146432425Y-64402487D01*
X146543477Y-64392667D01*
X146654588Y-64383154D01*
X146765756Y-64373947D01*
X146876979Y-64365049D01*
X146988257Y-64356458D01*
X147099587Y-64348175D01*
X147210969Y-64340200D01*
X147322401Y-64332533D01*
X147433883Y-64325174D01*
X147545412Y-64318125D01*
X147656987Y-64311383D01*
X147768608Y-64304951D01*
X147880272Y-64298828D01*
X147991979Y-64293014D01*
X148103727Y-64287510D01*
X148215515Y-64282316D01*
X148327341Y-64277431D01*
X148439205Y-64272856D01*
X148551105Y-64268592D01*
X148663039Y-64264638D01*
X148775007Y-64260994D01*
X148887007Y-64257661D01*
X148999037Y-64254640D01*
X149111097Y-64251929D01*
X149223185Y-64249530D01*
X149335300Y-64247442D01*
X149447441Y-64245666D01*
X149559605Y-64244201D01*
X149671793Y-64243049D01*
X149784002Y-64242209D01*
X149896231Y-64241681D01*
X150008480Y-64241466D01*
X150120746Y-64241564D01*
X150233028Y-64241975D01*
X150345326Y-64242698D01*
X150457637Y-64243736D01*
X150569961Y-64245086D01*
X150682296Y-64246750D01*
X150794641Y-64248729D01*
X150906994Y-64251021D01*
X151019355Y-64253627D01*
X151131721Y-64256548D01*
X151244092Y-64259783D01*
X151356466Y-64263334D01*
X151468843Y-64267199D01*
X151581220Y-64271379D01*
X151693597Y-64275875D01*
X151805971Y-64280686D01*
X151918343Y-64285812D01*
X152030709Y-64291255D01*
X152143071Y-64297014D01*
X152255425Y-64303089D01*
X152367770Y-64309480D01*
X152480106Y-64316188D01*
X152592431Y-64323213D01*
X152704743Y-64330554D01*
X152817042Y-64338213D01*
X152929325Y-64346189D01*
X153041593Y-64354483D01*
X153153843Y-64363094D01*
X153266074Y-64372023D01*
X153378285Y-64381271D01*
X153490474Y-64390836D01*
X153602641Y-64400720D01*
X153714783Y-64410922D01*
X153826900Y-64421444D01*
X153938991Y-64432284D01*
X154051053Y-64443443D01*
X154163086Y-64454922D01*
X154275088Y-64466720D01*
X154387059Y-64478838D01*
X154498996Y-64491276D01*
X154610898Y-64504034D01*
X154722765Y-64517112D01*
X154834595Y-64530510D01*
X154946386Y-64544229D01*
X155058137Y-64558269D01*
X155169848Y-64572630D01*
X155281516Y-64587312D01*
X155393140Y-64602315D01*
X155504719Y-64617640D01*
X155616252Y-64633287D01*
X155727738Y-64649255D01*
X155839174Y-64665545D01*
X155950560Y-64682158D01*
X156061895Y-64699093D01*
X156173177Y-64716351D01*
X156284405Y-64733931D01*
X156395577Y-64751835D01*
X156506692Y-64770062D01*
X156617750Y-64788612D01*
X156728748Y-64807485D01*
X156839686Y-64826682D01*
X156950561Y-64846203D01*
X157061373Y-64866048D01*
X157172121Y-64886218D01*
X157282803Y-64906712D01*
X157393417Y-64927530D01*
X157503963Y-64948673D01*
X157614440Y-64970141D01*
X157724845Y-64991935D01*
X157835178Y-65014053D01*
X157945437Y-65036498D01*
X158055621Y-65059268D01*
X158165728Y-65082363D01*
X158275758Y-65105785D01*
X158385710Y-65129533D01*
X158495580Y-65153608D01*
X158605370Y-65178009D01*
X158715076Y-65202737D01*
X158824698Y-65227792D01*
X158934235Y-65253174D01*
X159043685Y-65278883D01*
X159153047Y-65304920D01*
X159262320Y-65331285D01*
X159371502Y-65357978D01*
X159489979Y-65387343D01*
X159608244Y-65417078D01*
X159726294Y-65447179D01*
X159844129Y-65477647D01*
X159961748Y-65508481D01*
X160079148Y-65539679D01*
X160196330Y-65571241D01*
X160313291Y-65603166D01*
X160430031Y-65635453D01*
X160546548Y-65668101D01*
X160662840Y-65701110D01*
X160778908Y-65734477D01*
X160894748Y-65768203D01*
X161010361Y-65802286D01*
X161125745Y-65836726D01*
X161240898Y-65871521D01*
X161355820Y-65906671D01*
X161470509Y-65942175D01*
X161584963Y-65978031D01*
X161699183Y-66014240D01*
X161813165Y-66050800D01*
X161926910Y-66087710D01*
X162040416Y-66124969D01*
X162153681Y-66162577D01*
X162266704Y-66200532D01*
X162379485Y-66238833D01*
X162492022Y-66277480D01*
X162604313Y-66316472D01*
X162716357Y-66355808D01*
X162828153Y-66395486D01*
X162939701Y-66435507D01*
X163050997Y-66475868D01*
X163162042Y-66516570D01*
X163272835Y-66557611D01*
X163383373Y-66598991D01*
X163493655Y-66640708D01*
X163603681Y-66682761D01*
X163713449Y-66725150D01*
X163822957Y-66767874D01*
X163932206Y-66810932D01*
X164041192Y-66854322D01*
X164149915Y-66898045D01*
X164258375Y-66942099D01*
X164366568Y-66986483D01*
X164474495Y-67031196D01*
X164582154Y-67076237D01*
X164689544Y-67121606D01*
X164796664Y-67167302D01*
X164903511Y-67213323D01*
X165010086Y-67259669D01*
X165116386Y-67306339D01*
X165222411Y-67353332D01*
X165328159Y-67400646D01*
X165433629Y-67448282D01*
X165538819Y-67496238D01*
X165643730Y-67544514D01*
X165748358Y-67593107D01*
X165852703Y-67642019D01*
X165956764Y-67691247D01*
X166060540Y-67740790D01*
X166164029Y-67790648D01*
X166267229Y-67840820D01*
X166370141Y-67891306D01*
X166472762Y-67942103D01*
X166575091Y-67993211D01*
X166677127Y-68044629D01*
X166778868Y-68096357D01*
X166880314Y-68148393D01*
X166981464Y-68200737D01*
X167082315Y-68253387D01*
X167182867Y-68306343D01*
X167283118Y-68359604D01*
X167383067Y-68413168D01*
X167482714Y-68467036D01*
X167582056Y-68521206D01*
X167681092Y-68575676D01*
X167779822Y-68630447D01*
X167878243Y-68685518D01*
X167976355Y-68740886D01*
X168074156Y-68796552D01*
X168171646Y-68852515D01*
X168268822Y-68908774D01*
X168365684Y-68965327D01*
X168462231Y-69022174D01*
X168558460Y-69079315D01*
X168654372Y-69136747D01*
X168749964Y-69194470D01*
X168845235Y-69252484D01*
X168940185Y-69310787D01*
X169034811Y-69369378D01*
X169129113Y-69428257D01*
X169223089Y-69487423D01*
X169316738Y-69546874D01*
X169410060Y-69606610D01*
X169503051Y-69666630D01*
X169595712Y-69726933D01*
X169688042Y-69787518D01*
X169780038Y-69848384D01*
X169871699Y-69909531D01*
X169963025Y-69970957D01*
X170054014Y-70032661D01*
X170144664Y-70094643D01*
X170234976Y-70156901D01*
X170324946Y-70219435D01*
X170414575Y-70282244D01*
X170503860Y-70345327D01*
X170592801Y-70408683D01*
X170681396Y-70472311D01*
X170769644Y-70536210D01*
X170857544Y-70600380D01*
X170945095Y-70664818D01*
X171032294Y-70729526D01*
X171119142Y-70794501D01*
X171205637Y-70859742D01*
X171291777Y-70925249D01*
X171377561Y-70991021D01*
X171462988Y-71057057D01*
X171548057Y-71123356D01*
X171632767Y-71189917D01*
X171717115Y-71256740D01*
X171801102Y-71323822D01*
X171884726Y-71391164D01*
X171967984Y-71458765D01*
X172050878Y-71526623D01*
X172133404Y-71594737D01*
X172215561Y-71663108D01*
X172297350Y-71731733D01*
X172378767Y-71800612D01*
X172459813Y-71869745D01*
X172540485Y-71939129D01*
X172620782Y-72008764D01*
X172700704Y-72078650D01*
X172780249Y-72148786D01*
X172859415Y-72219169D01*
X172938202Y-72289801D01*
X173016608Y-72360679D01*
X173094632Y-72431803D01*
X173172272Y-72503171D01*
X173249528Y-72574784D01*
X173326398Y-72646639D01*
X173402881Y-72718737D01*
X173478976Y-72791076D01*
X173554681Y-72863656D01*
X173629995Y-72936474D01*
X173704917Y-73009532D01*
X173779446Y-73082826D01*
X173853580Y-73156358D01*
X173927319Y-73230125D01*
X174000660Y-73304127D01*
X174073603Y-73378364D01*
X174146146Y-73452833D01*
X174218288Y-73527534D01*
X174290028Y-73602467D01*
X174361365Y-73677630D01*
X174432297Y-73753022D01*
X174502823Y-73828643D01*
X174572942Y-73904491D01*
X174642653Y-73980567D01*
X174711954Y-74056868D01*
X174780844Y-74133393D01*
X174849322Y-74210143D01*
X174917386Y-74287116D01*
X174985036Y-74364311D01*
X175052270Y-74441728D01*
X175119086Y-74519364D01*
X175185484Y-74597220D01*
X175251463Y-74675295D01*
X175317021Y-74753587D01*
X175382156Y-74832096D01*
X175446868Y-74910821D01*
X175511155Y-74989761D01*
X175575016Y-75068915D01*
X175638450Y-75148281D01*
X175701456Y-75227860D01*
X175764032Y-75307651D01*
X175826177Y-75387651D01*
X175887889Y-75467861D01*
X175949169Y-75548280D01*
X176010013Y-75628906D01*
X176070421Y-75709739D01*
X176130393Y-75790778D01*
X176189925Y-75872022D01*
X176249018Y-75953469D01*
X176307670Y-76035120D01*
X176365880Y-76116973D01*
X176423646Y-76199027D01*
X176480968Y-76281282D01*
X176537843Y-76363736D01*
X176594271Y-76446389D01*
X176650251Y-76529239D01*
X176705781Y-76612286D01*
X176760859Y-76695529D01*
X176815486Y-76778967D01*
X176869659Y-76862599D01*
X176923377Y-76946424D01*
X176976639Y-77030441D01*
X177029444Y-77114650D01*
X177081790Y-77199049D01*
X177133677Y-77283637D01*
X177185102Y-77368414D01*
X177236065Y-77453378D01*
X177286565Y-77538530D01*
X177336599Y-77623867D01*
X177386168Y-77709389D01*
X177435269Y-77795095D01*
X177483902Y-77880985D01*
X177532065Y-77967056D01*
X177579756Y-78053309D01*
X177626976Y-78139742D01*
X177673721Y-78226355D01*
X177719992Y-78313146D01*
X177765787Y-78400115D01*
X177811105Y-78487261D01*
X177855943Y-78574583D01*
X177900302Y-78662080D01*
X177944180Y-78749750D01*
X177987576Y-78837594D01*
X178038357Y-78941889D01*
X178088474Y-79046476D01*
X178137925Y-79151344D01*
X178186706Y-79256485D01*
X178234817Y-79361890D01*
X178282254Y-79467548D01*
X178329016Y-79573451D01*
X178375099Y-79679588D01*
X178420501Y-79785952D01*
X178465220Y-79892532D01*
X178509254Y-79999320D01*
X178552601Y-80106305D01*
X178595257Y-80213479D01*
X178637221Y-80320832D01*
X178678489Y-80428355D01*
X178719061Y-80536038D01*
X178758933Y-80643872D01*
X178798103Y-80751848D01*
X178836569Y-80859957D01*
X178874328Y-80968188D01*
X178911379Y-81076534D01*
X178947717Y-81184983D01*
X178983342Y-81293528D01*
X179018251Y-81402159D01*
X179052441Y-81510866D01*
X179085911Y-81619640D01*
X179118657Y-81728471D01*
X179150677Y-81837351D01*
X179181970Y-81946270D01*
X179212532Y-82055219D01*
X179242362Y-82164188D01*
X179271456Y-82273168D01*
X179299813Y-82382150D01*
X179327430Y-82491124D01*
X179354305Y-82600080D01*
X179380435Y-82709011D01*
X179405819Y-82817906D01*
X179430453Y-82926755D01*
X179454336Y-83035551D01*
X179477464Y-83144282D01*
X179499836Y-83252941D01*
X179521449Y-83361517D01*
X179542302Y-83470001D01*
X179562390Y-83578384D01*
X179581713Y-83686657D01*
X179600268Y-83794810D01*
X179618052Y-83902833D01*
X179635063Y-84010719D01*
X179651298Y-84118456D01*
X179666756Y-84226036D01*
X179681434Y-84333450D01*
X179695330Y-84440688D01*
X179708440Y-84547740D01*
X179720764Y-84654598D01*
X179732298Y-84761252D01*
X179743040Y-84867693D01*
X179752988Y-84973912D01*
X179762139Y-85079898D01*
X179770491Y-85185643D01*
X179778041Y-85291138D01*
X179784788Y-85396373D01*
X179790729Y-85501338D01*
X179795862Y-85606025D01*
X179800183Y-85710423D01*
X179803691Y-85814525D01*
X179806384Y-85918320D01*
X179808259Y-86021799D01*
X179810658Y-86208506D01*
X179812113Y-86376344D01*
X179812376Y-86527035D01*
X179811199Y-86662304D01*
X179808337Y-86783873D01*
X179803540Y-86893467D01*
X179796563Y-86992807D01*
X179787157Y-87083619D01*
X179775076Y-87167625D01*
X179760072Y-87246548D01*
X179741898Y-87322113D01*
X179720306Y-87396042D01*
X179695050Y-87470059D01*
X179665882Y-87545887D01*
X179632555Y-87625250D01*
X179594821Y-87709872D01*
X179552433Y-87801475D01*
X179508758Y-87891648D01*
X179460195Y-87986437D01*
X179407684Y-88084282D01*
X179352163Y-88183622D01*
X179294568Y-88282899D01*
X179235838Y-88380553D01*
X179176911Y-88475025D01*
X179118724Y-88564754D01*
X179062216Y-88648182D01*
X179008325Y-88723750D01*
X178957988Y-88789897D01*
X178900846Y-88858225D01*
X178836142Y-88928728D01*
X178764567Y-89000939D01*
X178686812Y-89074388D01*
X178603569Y-89148607D01*
X178515527Y-89223126D01*
X178423378Y-89297477D01*
X178327813Y-89371191D01*
X178229522Y-89443799D01*
X178129197Y-89514833D01*
X178027528Y-89583823D01*
X177925207Y-89650301D01*
X177822923Y-89713797D01*
X177721368Y-89773844D01*
X177621233Y-89829973D01*
X177523209Y-89881713D01*
X177427986Y-89928598D01*
X177336255Y-89970157D01*
X177248708Y-90005923D01*
X177166035Y-90035426D01*
X177088927Y-90058197D01*
X177007424Y-90079282D01*
X176912421Y-90103708D01*
X176807355Y-90130600D01*
X176695661Y-90159084D01*
X176580775Y-90188286D01*
X176466131Y-90217329D01*
X176355167Y-90245341D01*
X176251316Y-90271445D01*
X176157249Y-90298127D01*
X176062599Y-90331085D01*
X175967652Y-90370158D01*
X175872696Y-90415182D01*
X175778017Y-90465994D01*
X175683901Y-90522432D01*
X175590637Y-90584333D01*
X175498509Y-90651534D01*
X175407805Y-90723871D01*
X175318812Y-90801183D01*
X175212652Y-90899468D01*
X175123295Y-90987715D01*
X175049085Y-91068807D01*
X174988361Y-91145629D01*
X174939465Y-91221065D01*
X174900740Y-91298000D01*
X174870525Y-91379318D01*
X174847163Y-91467902D01*
X174828995Y-91566639D01*
X174814362Y-91678411D01*
X174802041Y-91800965D01*
X174794086Y-91914098D01*
X174790907Y-92019079D01*
X174792913Y-92117179D01*
X174800512Y-92209665D01*
X174814115Y-92297809D01*
X174834130Y-92382880D01*
X174860967Y-92466146D01*
X174895035Y-92548879D01*
X174936743Y-92632347D01*
X174986500Y-92717819D01*
X175044716Y-92806567D01*
X175111799Y-92899858D01*
X175188160Y-92998963D01*
X175274207Y-93105151D01*
X175350203Y-93200177D01*
X175420702Y-93294695D01*
X175485706Y-93388744D01*
X175545216Y-93482366D01*
X175599235Y-93575600D01*
X175647765Y-93668487D01*
X175690808Y-93761067D01*
X175728366Y-93853381D01*
X175760440Y-93945468D01*
X175787034Y-94037369D01*
X175808149Y-94129125D01*
X175823787Y-94220776D01*
X175833950Y-94312361D01*
X175838641Y-94403922D01*
X175837861Y-94495498D01*
X175831612Y-94587130D01*
X175819897Y-94678859D01*
X175802717Y-94770724D01*
X175780075Y-94862766D01*
X175751973Y-94955025D01*
X175718412Y-95047542D01*
X175679396Y-95140356D01*
X175634925Y-95233508D01*
X175585002Y-95327039D01*
X175529629Y-95420989D01*
X175468808Y-95515397D01*
X175402542Y-95610305D01*
X175361029Y-95665409D01*
X175317436Y-95719071D01*
X175271772Y-95771287D01*
X175224050Y-95822059D01*
X175174282Y-95871384D01*
X175122479Y-95919261D01*
X175068652Y-95965691D01*
X175012815Y-96010671D01*
X174954977Y-96054202D01*
X174895151Y-96096281D01*
X174833348Y-96136908D01*
X174769580Y-96176082D01*
X174703859Y-96213802D01*
X174636197Y-96250068D01*
X174566604Y-96284877D01*
X174495093Y-96318229D01*
X174421675Y-96350124D01*
X174346363Y-96380560D01*
X174269166Y-96409536D01*
X174190099Y-96437052D01*
X174109171Y-96463105D01*
X174026394Y-96487696D01*
X173941781Y-96510824D01*
X173855343Y-96532487D01*
X173767091Y-96552685D01*
X173677037Y-96571416D01*
X173585193Y-96588679D01*
X173491571Y-96604475D01*
X173396181Y-96618801D01*
X173299037Y-96631656D01*
X173200149Y-96643041D01*
X173099529Y-96652953D01*
X172997188Y-96661392D01*
X172893139Y-96668357D01*
X172787393Y-96673846D01*
X172679962Y-96677860D01*
X172570857Y-96680396D01*
X172460090Y-96681455D01*
X172347673Y-96681035D01*
X172233617Y-96679134D01*
X172117934Y-96675753D01*
X172000635Y-96670890D01*
X171881733Y-96664544D01*
X171761238Y-96656715D01*
X171639163Y-96647401D01*
X171515520Y-96636601D01*
X171390319Y-96624314D01*
X171263572Y-96610540D01*
X171135292Y-96595277D01*
X171005490Y-96578525D01*
X170874177Y-96560282D01*
X170741365Y-96540548D01*
X170607066Y-96519321D01*
X170471291Y-96496602D01*
X170334052Y-96472387D01*
X170195361Y-96446678D01*
X170055229Y-96419472D01*
X169913669Y-96390769D01*
X169770691Y-96360568D01*
X169626307Y-96328867D01*
X169480529Y-96295667D01*
X169333369Y-96260966D01*
X169184838Y-96224762D01*
X169034948Y-96187056D01*
X168883711Y-96147845D01*
X168686199Y-96095882D01*
X168496958Y-96046109D01*
X168315701Y-95998477D01*
X168142140Y-95952941D01*
X167975987Y-95909452D01*
X167816955Y-95867964D01*
X167664757Y-95828430D01*
X167519105Y-95790803D01*
X167379712Y-95755035D01*
X167246290Y-95721079D01*
X167118552Y-95688888D01*
X166996209Y-95658416D01*
X166878976Y-95629615D01*
X166766563Y-95602437D01*
X166658685Y-95576836D01*
X166555053Y-95552765D01*
X166455379Y-95530177D01*
X166359377Y-95509023D01*
X166266758Y-95489259D01*
X166177236Y-95470835D01*
X166090523Y-95453705D01*
X166006331Y-95437822D01*
X165924373Y-95423139D01*
X165844362Y-95409609D01*
X165766009Y-95397184D01*
X165689028Y-95385818D01*
X165613131Y-95375463D01*
X165538030Y-95366073D01*
X165463439Y-95357599D01*
X165389068Y-95349996D01*
X165314632Y-95343215D01*
X165239843Y-95337210D01*
X165164412Y-95331934D01*
X165088053Y-95327339D01*
X165010479Y-95323379D01*
X164931400Y-95320006D01*
X164850531Y-95317173D01*
X164767584Y-95314834D01*
X164682271Y-95312940D01*
X164594305Y-95311445D01*
X164503397Y-95310302D01*
X164409262Y-95309463D01*
X164311611Y-95308882D01*
X164210156Y-95308511D01*
X164104611Y-95308303D01*
X163994688Y-95308212D01*
X163880099Y-95308190D01*
X163760557Y-95308189D01*
X163657164Y-95308411D01*
X163551829Y-95309081D01*
X163444711Y-95310189D01*
X163335968Y-95311729D01*
X163225761Y-95313691D01*
X163114248Y-95316066D01*
X163001588Y-95318848D01*
X162887942Y-95322027D01*
X162773468Y-95325595D01*
X162658325Y-95329544D01*
X162542673Y-95333866D01*
X162426671Y-95338551D01*
X162310479Y-95343593D01*
X162194255Y-95348981D01*
X162078160Y-95354709D01*
X161962351Y-95360768D01*
X161846989Y-95367149D01*
X161732233Y-95373844D01*
X161618243Y-95380845D01*
X161505176Y-95388143D01*
X161393193Y-95395730D01*
X161282453Y-95403599D01*
X161173116Y-95411739D01*
X161065340Y-95420144D01*
X160959285Y-95428805D01*
X160855110Y-95437713D01*
X160752974Y-95446860D01*
X160653037Y-95456238D01*
X160555458Y-95465838D01*
X160460396Y-95475653D01*
X160368011Y-95485673D01*
X160276802Y-95495897D01*
X160183168Y-95506550D01*
X160087188Y-95517620D01*
X159988938Y-95529096D01*
X159888495Y-95540967D01*
X159785936Y-95553222D01*
X159681338Y-95565849D01*
X159574778Y-95578838D01*
X159466332Y-95592178D01*
X159356079Y-95605857D01*
X159244094Y-95619865D01*
X159130454Y-95634190D01*
X159015237Y-95648820D01*
X158898520Y-95663746D01*
X158780379Y-95678956D01*
X158660891Y-95694439D01*
X158540133Y-95710183D01*
X158418183Y-95726178D01*
X158295117Y-95742413D01*
X158171011Y-95758876D01*
X158045944Y-95775556D01*
X157919992Y-95792442D01*
X157793231Y-95809523D01*
X157665740Y-95826789D01*
X157537593Y-95844227D01*
X157408870Y-95861827D01*
X157279646Y-95879578D01*
X157149999Y-95897468D01*
X157020005Y-95915487D01*
X156889741Y-95933623D01*
X156759285Y-95951865D01*
X156628713Y-95970203D01*
X156498102Y-95988624D01*
X156367529Y-96007119D01*
X156237071Y-96025675D01*
X156106805Y-96044282D01*
X155976808Y-96062928D01*
X155847157Y-96081603D01*
X155717928Y-96100296D01*
X155589199Y-96118995D01*
X155461047Y-96137689D01*
X155333548Y-96156367D01*
X155206780Y-96175018D01*
X155080819Y-96193631D01*
X154955743Y-96212195D01*
X154831627Y-96230698D01*
X154708550Y-96249130D01*
X154586588Y-96267480D01*
X154465818Y-96285735D01*
X154346318Y-96303887D01*
X154228163Y-96321922D01*
X154111430Y-96339830D01*
X153996198Y-96357600D01*
X153882542Y-96375221D01*
X153770540Y-96392682D01*
X153660269Y-96409972D01*
X153551805Y-96427079D01*
X153445226Y-96443992D01*
X153340607Y-96460701D01*
X153238028Y-96477194D01*
X153137563Y-96493460D01*
X153039291Y-96509488D01*
X152943287Y-96525267D01*
X152849630Y-96540785D01*
X152758396Y-96556033D01*
X152669661Y-96570998D01*
X152583504Y-96585669D01*
X152500000Y-96600036D01*
X152419227Y-96614087D01*
X152341261Y-96627811D01*
X152266180Y-96641198D01*
X152194060Y-96654235D01*
X152124979Y-96666912D01*
X152059014Y-96679218D01*
X151996240Y-96691141D01*
X151936736Y-96702671D01*
X151811320Y-96726838D01*
X151688826Y-96749613D01*
X151569084Y-96770996D01*
X151451923Y-96790987D01*
X151337172Y-96809585D01*
X151224661Y-96826790D01*
X151114220Y-96842601D01*
X151005677Y-96857019D01*
X150898862Y-96870042D01*
X150793605Y-96881670D01*
X150689735Y-96891902D01*
X150587081Y-96900739D01*
X150485473Y-96908180D01*
X150384741Y-96914225D01*
X150284713Y-96918872D01*
X150185220Y-96922122D01*
X150086090Y-96923974D01*
X149987154Y-96924428D01*
X149888240Y-96923484D01*
X149789178Y-96921140D01*
X149689797Y-96917397D01*
X149589927Y-96912253D01*
X149489397Y-96905710D01*
X149388038Y-96897765D01*
X149285677Y-96888420D01*
X149182145Y-96877673D01*
X149077271Y-96865524D01*
X148970884Y-96851972D01*
X148862815Y-96837017D01*
X148752891Y-96820660D01*
X148640944Y-96802898D01*
X148526801Y-96783732D01*
X148410294Y-96763162D01*
X148291250Y-96741187D01*
X148169500Y-96717806D01*
X148044873Y-96693019D01*
X148044873Y-96693022D01*
X148044873Y-96693017D01*
X148044873Y-96693017D01*
G37*
X148044873Y-96693017D02*
X136062412Y-89056355D01*
X136161252Y-89045558D01*
X136260718Y-89034589D01*
X136360805Y-89023449D01*
X136461506Y-89012139D01*
X136562814Y-89000661D01*
X136664725Y-88989015D01*
X136767231Y-88977202D01*
X136870327Y-88965224D01*
X136974007Y-88953082D01*
X137078263Y-88940778D01*
X137183092Y-88928311D01*
X137288485Y-88915683D01*
X137394438Y-88902896D01*
X137500943Y-88889950D01*
X137607995Y-88876847D01*
X137715588Y-88863587D01*
X137823716Y-88850173D01*
X137932372Y-88836604D01*
X138041550Y-88822883D01*
X138151245Y-88809010D01*
X138261450Y-88794986D01*
X138372159Y-88780813D01*
X138483366Y-88766491D01*
X138595065Y-88752022D01*
X138707249Y-88737408D01*
X138819913Y-88722648D01*
X138933050Y-88707744D01*
X139046655Y-88692698D01*
X139160721Y-88677510D01*
X139275242Y-88662181D01*
X139390212Y-88646714D01*
X139505625Y-88631108D01*
X139621475Y-88615365D01*
X139737755Y-88599486D01*
X139854460Y-88583472D01*
X139971584Y-88567325D01*
X140089119Y-88551045D01*
X140207061Y-88534634D01*
X140325403Y-88518093D01*
X140444139Y-88501422D01*
X140563263Y-88484623D01*
X140682768Y-88467698D01*
X140802649Y-88450647D01*
X140922900Y-88433471D01*
X141043514Y-88416171D01*
X141164485Y-88398750D01*
X141285808Y-88381207D01*
X141407475Y-88363544D01*
X141529482Y-88345762D01*
X141651821Y-88327862D01*
X141774487Y-88309845D01*
X141897474Y-88291713D01*
X142020775Y-88273466D01*
X142144384Y-88255106D01*
X142268296Y-88236634D01*
X142392503Y-88218051D01*
X142517001Y-88199358D01*
X142641783Y-88180556D01*
X142766842Y-88161647D01*
X142892173Y-88142630D01*
X143017770Y-88123509D01*
X143143626Y-88104283D01*
X143269736Y-88084954D01*
X143396092Y-88065523D01*
X143522690Y-88045991D01*
X143649523Y-88026359D01*
X143776584Y-88006629D01*
X143903868Y-87986801D01*
X144031369Y-87966877D01*
X144159081Y-87946858D01*
X144286997Y-87926744D01*
X144415111Y-87906538D01*
X144543417Y-87886239D01*
X144671909Y-87865850D01*
X144800582Y-87845372D01*
X144929428Y-87824804D01*
X145058442Y-87804150D01*
X145187617Y-87783409D01*
X145316948Y-87762583D01*
X145446428Y-87741674D01*
X145576052Y-87720681D01*
X145705812Y-87699607D01*
X145835704Y-87678452D01*
X145965721Y-87657218D01*
X146095856Y-87635906D01*
X146226104Y-87614516D01*
X146356459Y-87593050D01*
X146486914Y-87571510D01*
X146617463Y-87549895D01*
X146748101Y-87528208D01*
X146878821Y-87506450D01*
X147009616Y-87484621D01*
X147140482Y-87462723D01*
X147271411Y-87440756D01*
X147402398Y-87418723D01*
X147533437Y-87396624D01*
X147664521Y-87374460D01*
X147795644Y-87352233D01*
X147926800Y-87329943D01*
X148057984Y-87307591D01*
X148189188Y-87285180D01*
X148320407Y-87262709D01*
X148451635Y-87240180D01*
X148582866Y-87217595D01*
X148714093Y-87194954D01*
X148845310Y-87172258D01*
X148976512Y-87149509D01*
X149107692Y-87126708D01*
X149238844Y-87103855D01*
X149369961Y-87080952D01*
X149501039Y-87058001D01*
X149632070Y-87035001D01*
X149763049Y-87011955D01*
X149893970Y-86988864D01*
X150024825Y-86965728D01*
X150155610Y-86942549D01*
X150286318Y-86919327D01*
X150416943Y-86896065D01*
X150547479Y-86872763D01*
X150677920Y-86849422D01*
X150808259Y-86826043D01*
X150938491Y-86802628D01*
X151068609Y-86779178D01*
X151198607Y-86755693D01*
X151328480Y-86732175D01*
X151458221Y-86708625D01*
X151587824Y-86685045D01*
X151717282Y-86661434D01*
X151846591Y-86637795D01*
X151975743Y-86614129D01*
X152104732Y-86590436D01*
X152233553Y-86566719D01*
X152362199Y-86542977D01*
X152490664Y-86519212D01*
X152618943Y-86495425D01*
X152747028Y-86471618D01*
X152874914Y-86447791D01*
X153002595Y-86423946D01*
X153130064Y-86400083D01*
X153257316Y-86376204D01*
X153384344Y-86352311D01*
X153511142Y-86328403D01*
X153637705Y-86304483D01*
X153764026Y-86280551D01*
X153890098Y-86256608D01*
X154015916Y-86232656D01*
X154141474Y-86208696D01*
X154266765Y-86184729D01*
X154391784Y-86160756D01*
X154516524Y-86136777D01*
X154640980Y-86112796D01*
X154765144Y-86088811D01*
X154889012Y-86064825D01*
X155012576Y-86040839D01*
X155135831Y-86016854D01*
X155258770Y-85992870D01*
X155381389Y-85968890D01*
X155503679Y-85944914D01*
X155625636Y-85920943D01*
X155747253Y-85896978D01*
X155868524Y-85873021D01*
X155989443Y-85849073D01*
X156110004Y-85825135D01*
X156230200Y-85801207D01*
X156350026Y-85777292D01*
X156469476Y-85753390D01*
X156588543Y-85729502D01*
X156707221Y-85705630D01*
X156825504Y-85681774D01*
X156943387Y-85657936D01*
X157060862Y-85634117D01*
X157177924Y-85610318D01*
X157294566Y-85586540D01*
X157410784Y-85562785D01*
X157526569Y-85539053D01*
X157641917Y-85515345D01*
X157756822Y-85491663D01*
X157871276Y-85468008D01*
X157985274Y-85444380D01*
X158098810Y-85420782D01*
X158211878Y-85397214D01*
X158324472Y-85373677D01*
X158436585Y-85350173D01*
X158548211Y-85326702D01*
X158659345Y-85303266D01*
X158769980Y-85279865D01*
X158880110Y-85256502D01*
X158989729Y-85233177D01*
X159098831Y-85209891D01*
X159207409Y-85186645D01*
X159315458Y-85163441D01*
X159422972Y-85140279D01*
X159529944Y-85117161D01*
X159636368Y-85094088D01*
X159742239Y-85071061D01*
X159847549Y-85048081D01*
X159952293Y-85025149D01*
X160056465Y-85002267D01*
X160160059Y-84979435D01*
X160263068Y-84956655D01*
X160365487Y-84933927D01*
X160467309Y-84911254D01*
X160568529Y-84888636D01*
X160669139Y-84866073D01*
X160769135Y-84843568D01*
X160868509Y-84821122D01*
X160967256Y-84798735D01*
X161065370Y-84776408D01*
X161162844Y-84754144D01*
X161259673Y-84731942D01*
X161355850Y-84709804D01*
X161451369Y-84687732D01*
X161546224Y-84665726D01*
X161640409Y-84643787D01*
X161733918Y-84621917D01*
X161826745Y-84600117D01*
X161918883Y-84578388D01*
X162010327Y-84556730D01*
X162101070Y-84535146D01*
X162191107Y-84513636D01*
X162280431Y-84492201D01*
X162369035Y-84470843D01*
X162456915Y-84449562D01*
X162544063Y-84428361D01*
X162630474Y-84407239D01*
X162716142Y-84386198D01*
X162801060Y-84365239D01*
X162885223Y-84344363D01*
X162968624Y-84323572D01*
X163051256Y-84302867D01*
X163133115Y-84282248D01*
X163214194Y-84261717D01*
X163294486Y-84241275D01*
X163373987Y-84220922D01*
X163452688Y-84200661D01*
X163530585Y-84180493D01*
X163607672Y-84160418D01*
X163683942Y-84140437D01*
X163759388Y-84120552D01*
X163834006Y-84100764D01*
X163907789Y-84081074D01*
X163980730Y-84061483D01*
X164052824Y-84041992D01*
X164124064Y-84022603D01*
X164194445Y-84003316D01*
X164263960Y-83984133D01*
X164332603Y-83965054D01*
X164400368Y-83946081D01*
X164467250Y-83927216D01*
X164533241Y-83908458D01*
X164598335Y-83889810D01*
X164662528Y-83871272D01*
X164725812Y-83852846D01*
X164788181Y-83834532D01*
X164849629Y-83816332D01*
X164910151Y-83798247D01*
X164969739Y-83780278D01*
X165028389Y-83762426D01*
X165086093Y-83744693D01*
X165142846Y-83727078D01*
X165198641Y-83709585D01*
X165253473Y-83692213D01*
X165307335Y-83674964D01*
X165360221Y-83657839D01*
X165412126Y-83640839D01*
X165463042Y-83623965D01*
X165623060Y-83570255D01*
X165772537Y-83519227D01*
X165912131Y-83470493D01*
X166042501Y-83423666D01*
X166164304Y-83378357D01*
X166278200Y-83334179D01*
X166384846Y-83290744D01*
X166484900Y-83247663D01*
X166579022Y-83204549D01*
X166667868Y-83161014D01*
X166752098Y-83116669D01*
X166832369Y-83071128D01*
X166909341Y-83024002D01*
X166983670Y-82974902D01*
X167056016Y-82923442D01*
X167127037Y-82869233D01*
X167197390Y-82811888D01*
X167267735Y-82751018D01*
X167338729Y-82686235D01*
X167411031Y-82617151D01*
X167485299Y-82543380D01*
X167562191Y-82464532D01*
X167642366Y-82380219D01*
X167726481Y-82290054D01*
X167771878Y-82202038D01*
X167816573Y-82116958D01*
X167860569Y-82034771D01*
X167903869Y-81955432D01*
X167946477Y-81878898D01*
X167988395Y-81805123D01*
X168029626Y-81734065D01*
X168070174Y-81665678D01*
X168110041Y-81599919D01*
X168149230Y-81536744D01*
X168187745Y-81476109D01*
X168225589Y-81417968D01*
X168262763Y-81362279D01*
X168299273Y-81308997D01*
X168335119Y-81258078D01*
X168370307Y-81209477D01*
X168404837Y-81163152D01*
X168438715Y-81119057D01*
X168471942Y-81077148D01*
X168504521Y-81037381D01*
X168536456Y-80999713D01*
X168567749Y-80964099D01*
X168598405Y-80930494D01*
X168628424Y-80898856D01*
X168657812Y-80869138D01*
X168686570Y-80841299D01*
X168714702Y-80815293D01*
X168742210Y-80791075D01*
X168769098Y-80768604D01*
X168795369Y-80747832D01*
X168821026Y-80728718D01*
X168846071Y-80711217D01*
X168870508Y-80695284D01*
X168894340Y-80680875D01*
X168917570Y-80667947D01*
X168940201Y-80656455D01*
X168962235Y-80646355D01*
X168983676Y-80637602D01*
X169004527Y-80630154D01*
X169024791Y-80623965D01*
X169044471Y-80618992D01*
X169063570Y-80615190D01*
X169082091Y-80612515D01*
X169100037Y-80610923D01*
X169117410Y-80610370D01*
X169134215Y-80610813D01*
X169150454Y-80612205D01*
X169166130Y-80614505D01*
X169181245Y-80617666D01*
X169195804Y-80621646D01*
X169209809Y-80626401D01*
X169223263Y-80631885D01*
X169236169Y-80638055D01*
X169248530Y-80644867D01*
X169260349Y-80652276D01*
X169271630Y-80660239D01*
X169282374Y-80668711D01*
X169292586Y-80677649D01*
X169302268Y-80687008D01*
X169311423Y-80696743D01*
X169320055Y-80706812D01*
X169328166Y-80717169D01*
X169335758Y-80727771D01*
X169342837Y-80738573D01*
X169349403Y-80749531D01*
X169355461Y-80760602D01*
X169361013Y-80771741D01*
X169366063Y-80782903D01*
X169370612Y-80794045D01*
X169374666Y-80805123D01*
X169378225Y-80816093D01*
X169381294Y-80826910D01*
X169383876Y-80837530D01*
X169385973Y-80847909D01*
X169387588Y-80858003D01*
X169388725Y-80867768D01*
X169389386Y-80877160D01*
X169389575Y-80886134D01*
X169389294Y-80894647D01*
X169388547Y-80902654D01*
X169387337Y-80910111D01*
X169385666Y-80916974D01*
X169383537Y-80923199D01*
X169380955Y-80928742D01*
X169377920Y-80933559D01*
X169374438Y-80937605D01*
X169370510Y-80940836D01*
X169366140Y-80943209D01*
X169361330Y-80944678D01*
X169356084Y-80945201D01*
X169350405Y-80944733D01*
X169344296Y-80943229D01*
X169337759Y-80940646D01*
X169330798Y-80936939D01*
X169323416Y-80932065D01*
X169315616Y-80925979D01*
X169307401Y-80918637D01*
X169298773Y-80909995D01*
X169289736Y-80900008D01*
X169280293Y-80888633D01*
X169270447Y-80875826D01*
X169260201Y-80861542D01*
X169249558Y-80845738D01*
X169238521Y-80828368D01*
X169227092Y-80809390D01*
X169215276Y-80788758D01*
X169203075Y-80766429D01*
X169190491Y-80742359D01*
X169177529Y-80716503D01*
X169164191Y-80688817D01*
X169150479Y-80659258D01*
X169136398Y-80627781D01*
X169121950Y-80594341D01*
X169107138Y-80558896D01*
X169091965Y-80521400D01*
X169076434Y-80481809D01*
X169060548Y-80440080D01*
X169044311Y-80396169D01*
X169027725Y-80350030D01*
X169010792Y-80301620D01*
X168993517Y-80250896D01*
X168975903Y-80197812D01*
X168957951Y-80142324D01*
X168939666Y-80084389D01*
X168921050Y-80023963D01*
X168902106Y-79961000D01*
X168882838Y-79895458D01*
X168863248Y-79827291D01*
X168843339Y-79756457D01*
X168823115Y-79682910D01*
X168802578Y-79606606D01*
X168781731Y-79527502D01*
X168760578Y-79445553D01*
X168739121Y-79360716D01*
X168717364Y-79272945D01*
X168695309Y-79182197D01*
X168672960Y-79088428D01*
X168650319Y-78991594D01*
X168627390Y-78891650D01*
X168604175Y-78788552D01*
X168580677Y-78682257D01*
X168556900Y-78572719D01*
X168532998Y-78490973D01*
X168508092Y-78409256D01*
X168482188Y-78327572D01*
X168455289Y-78245924D01*
X168427401Y-78164317D01*
X168398528Y-78082754D01*
X168368674Y-78001240D01*
X168337844Y-77919777D01*
X168306042Y-77838369D01*
X168273273Y-77757021D01*
X168239541Y-77675735D01*
X168204850Y-77594516D01*
X168169205Y-77513368D01*
X168132610Y-77432294D01*
X168095070Y-77351297D01*
X168056590Y-77270382D01*
X168017173Y-77189553D01*
X167976824Y-77108813D01*
X167935547Y-77028165D01*
X167893348Y-76947614D01*
X167850230Y-76867164D01*
X167806198Y-76786817D01*
X167761256Y-76706578D01*
X167715409Y-76626451D01*
X167668661Y-76546439D01*
X167621017Y-76466546D01*
X167572481Y-76386776D01*
X167523057Y-76307132D01*
X167472750Y-76227619D01*
X167421565Y-76148239D01*
X167369505Y-76068997D01*
X167316575Y-75989897D01*
X167262781Y-75910942D01*
X167208125Y-75832135D01*
X167152613Y-75753482D01*
X167096249Y-75674985D01*
X167039038Y-75596647D01*
X166980983Y-75518474D01*
X166922090Y-75440469D01*
X166862362Y-75362634D01*
X166801805Y-75284975D01*
X166740422Y-75207495D01*
X166678218Y-75130197D01*
X166615198Y-75053085D01*
X166551366Y-74976164D01*
X166486726Y-74899436D01*
X166421283Y-74822906D01*
X166355041Y-74746577D01*
X166288005Y-74670453D01*
X166220180Y-74594538D01*
X166151568Y-74518836D01*
X166082176Y-74443349D01*
X166012008Y-74368083D01*
X165941067Y-74293040D01*
X165869358Y-74218225D01*
X165796887Y-74143640D01*
X165723656Y-74069291D01*
X165649671Y-73995180D01*
X165574937Y-73921312D01*
X165499457Y-73847690D01*
X165423236Y-73774318D01*
X165346278Y-73701199D01*
X165268588Y-73628338D01*
X165190170Y-73555738D01*
X165111030Y-73483402D01*
X165031170Y-73411335D01*
X164950596Y-73339541D01*
X164869312Y-73268022D01*
X164787323Y-73196784D01*
X164704632Y-73125828D01*
X164621245Y-73055160D01*
X164537166Y-72984783D01*
X164452399Y-72914701D01*
X164366948Y-72844917D01*
X164280819Y-72775436D01*
X164194016Y-72706260D01*
X164106542Y-72637394D01*
X164018403Y-72568842D01*
X163929603Y-72500607D01*
X163840146Y-72432692D01*
X163750036Y-72365102D01*
X163659279Y-72297841D01*
X163567879Y-72230912D01*
X163475840Y-72164318D01*
X163383166Y-72098064D01*
X163289862Y-72032154D01*
X163195933Y-71966591D01*
X163101383Y-71901378D01*
X163006215Y-71836520D01*
X162910436Y-71772020D01*
X162814049Y-71707882D01*
X162717058Y-71644111D01*
X162619468Y-71580708D01*
X162521284Y-71517679D01*
X162422510Y-71455027D01*
X162323150Y-71392755D01*
X162223209Y-71330868D01*
X162122691Y-71269369D01*
X162021601Y-71208263D01*
X161919943Y-71147551D01*
X161817721Y-71087240D01*
X161714941Y-71027331D01*
X161611605Y-70967829D01*
X161507720Y-70908738D01*
X161403289Y-70850061D01*
X161298317Y-70791803D01*
X161192808Y-70733966D01*
X161086767Y-70676555D01*
X160980198Y-70619573D01*
X160873105Y-70563024D01*
X160765493Y-70506912D01*
X160657367Y-70451241D01*
X160548730Y-70396014D01*
X160439588Y-70341235D01*
X160329944Y-70286907D01*
X160219803Y-70233036D01*
X160109170Y-70179623D01*
X159998050Y-70126673D01*
X159886445Y-70074191D01*
X159774362Y-70022178D01*
X159661803Y-69970640D01*
X159548775Y-69919580D01*
X159435281Y-69869001D01*
X159321325Y-69818908D01*
X159206913Y-69769304D01*
X159092048Y-69720193D01*
X158976735Y-69671578D01*
X158860978Y-69623464D01*
X158744783Y-69575854D01*
X158628152Y-69528752D01*
X158511092Y-69482161D01*
X158393605Y-69436086D01*
X158275697Y-69390529D01*
X158157373Y-69345496D01*
X158038635Y-69300989D01*
X157919490Y-69257012D01*
X157799941Y-69213570D01*
X157679993Y-69170665D01*
X157559650Y-69128301D01*
X157438916Y-69086483D01*
X157317797Y-69045214D01*
X157196297Y-69004498D01*
X157078232Y-68965379D01*
X156963280Y-68927546D01*
X156851279Y-68890974D01*
X156742068Y-68855637D01*
X156635483Y-68821511D01*
X156531363Y-68788571D01*
X156429545Y-68756792D01*
X156329867Y-68726149D01*
X156232168Y-68696617D01*
X156136284Y-68668172D01*
X156042054Y-68640788D01*
X155949315Y-68614441D01*
X155857906Y-68589106D01*
X155767663Y-68564757D01*
X155678425Y-68541370D01*
X155590030Y-68518920D01*
X155502316Y-68497383D01*
X155415119Y-68476732D01*
X155328279Y-68456944D01*
X155241632Y-68437994D01*
X155155017Y-68419856D01*
X155068272Y-68402505D01*
X154981233Y-68385918D01*
X154893740Y-68370068D01*
X154805630Y-68354931D01*
X154716740Y-68340483D01*
X154626908Y-68326698D01*
X154535973Y-68313551D01*
X154443772Y-68301017D01*
X154350143Y-68289072D01*
X154254924Y-68277691D01*
X154157952Y-68266848D01*
X154059065Y-68256520D01*
X153958101Y-68246680D01*
X153854898Y-68237304D01*
X153749294Y-68228368D01*
X153641126Y-68219846D01*
X153530233Y-68211713D01*
X153416451Y-68203945D01*
X153299620Y-68196517D01*
X153179576Y-68189403D01*
X153056158Y-68182579D01*
X152929203Y-68176020D01*
X152798549Y-68169702D01*
X152664034Y-68163598D01*
X152525495Y-68157685D01*
X152382772Y-68151937D01*
X152235700Y-68146330D01*
X152084119Y-68140838D01*
X151927865Y-68135437D01*
X151766777Y-68130102D01*
X151600693Y-68124808D01*
X151429450Y-68119530D01*
X151315573Y-68116194D01*
X151200080Y-68113047D01*
X151083041Y-68110089D01*
X150964522Y-68107319D01*
X150844592Y-68104733D01*
X150723319Y-68102332D01*
X150600770Y-68100113D01*
X150477015Y-68098075D01*
X150352120Y-68096217D01*
X150226154Y-68094538D01*
X150099184Y-68093034D01*
X149971280Y-68091706D01*
X149842508Y-68090552D01*
X149712937Y-68089570D01*
X149582635Y-68088758D01*
X149451670Y-68088116D01*
X149320109Y-68087642D01*
X149188021Y-68087334D01*
X149055474Y-68087191D01*
X148922536Y-68087211D01*
X148789274Y-68087393D01*
X148655758Y-68087736D01*
X148522054Y-68088237D01*
X148388230Y-68088896D01*
X148254356Y-68089711D01*
X148120498Y-68090681D01*
X147986725Y-68091803D01*
X147853105Y-68093077D01*
X147719705Y-68094501D01*
X147586595Y-68096074D01*
X147453841Y-68097794D01*
X147321512Y-68099660D01*
X147189675Y-68101670D01*
X147058399Y-68103822D01*
X146927753Y-68106116D01*
X146797802Y-68108549D01*
X146668617Y-68111121D01*
X146540264Y-68113830D01*
X146412812Y-68116674D01*
X146286329Y-68119651D01*
X146160882Y-68122762D01*
X146036541Y-68126003D01*
X145913372Y-68129373D01*
X145791443Y-68132872D01*
X145670824Y-68136497D01*
X145551581Y-68140246D01*
X145433783Y-68144120D01*
X145317497Y-68148115D01*
X145202793Y-68152231D01*
X145089737Y-68156467D01*
X144978397Y-68160819D01*
X144868843Y-68165288D01*
X144761141Y-68169872D01*
X144655360Y-68174569D01*
X144551567Y-68179377D01*
X144449832Y-68184296D01*
X144350221Y-68189324D01*
X144252803Y-68194458D01*
X144157645Y-68199699D01*
X144064816Y-68205044D01*
X143974384Y-68210492D01*
X143886417Y-68216041D01*
X143800982Y-68221690D01*
X143718148Y-68227438D01*
X143637982Y-68233282D01*
X143560554Y-68239222D01*
X143485930Y-68245256D01*
X143414178Y-68251383D01*
X143345368Y-68257600D01*
X143279566Y-68263907D01*
X143216841Y-68270302D01*
X143157260Y-68276784D01*
X143100892Y-68283351D01*
X143047805Y-68290002D01*
X142998067Y-68296735D01*
X142951745Y-68303549D01*
X142855471Y-68318641D01*
X142758564Y-68334418D01*
X142661040Y-68350875D01*
X142562916Y-68368006D01*
X142464205Y-68385805D01*
X142364925Y-68404267D01*
X142265090Y-68423385D01*
X142164717Y-68443154D01*
X142063820Y-68463568D01*
X141962415Y-68484622D01*
X141860518Y-68506309D01*
X141758144Y-68528625D01*
X141655310Y-68551562D01*
X141552030Y-68575117D01*
X141448319Y-68599282D01*
X141344195Y-68624052D01*
X141239672Y-68649421D01*
X141134765Y-68675384D01*
X141029491Y-68701935D01*
X140923865Y-68729068D01*
X140817902Y-68756777D01*
X140711618Y-68785057D01*
X140605029Y-68813902D01*
X140498150Y-68843306D01*
X140390997Y-68873264D01*
X140283585Y-68903770D01*
X140175930Y-68934817D01*
X140068047Y-68966401D01*
X139959953Y-68998515D01*
X139851662Y-69031154D01*
X139743190Y-69064312D01*
X139634552Y-69097983D01*
X139525766Y-69132162D01*
X139416844Y-69166843D01*
X139307805Y-69202020D01*
X139198662Y-69237688D01*
X139089432Y-69273840D01*
X138980130Y-69310471D01*
X138870771Y-69347575D01*
X138761372Y-69385147D01*
X138651948Y-69423181D01*
X138542514Y-69461670D01*
X138433086Y-69500610D01*
X138323679Y-69539995D01*
X138214310Y-69579818D01*
X138104993Y-69620074D01*
X137995744Y-69660758D01*
X137886579Y-69701863D01*
X137777514Y-69743384D01*
X137668563Y-69785316D01*
X137559743Y-69827651D01*
X137451069Y-69870386D01*
X137342557Y-69913513D01*
X137234221Y-69957028D01*
X137126079Y-70000924D01*
X137018144Y-70045196D01*
X136910434Y-70089838D01*
X136802963Y-70134844D01*
X136695747Y-70180209D01*
X136588802Y-70225926D01*
X136482143Y-70271991D01*
X136375785Y-70318397D01*
X136269745Y-70365139D01*
X136164038Y-70412210D01*
X136058679Y-70459606D01*
X135953684Y-70507320D01*
X135849068Y-70555347D01*
X135744848Y-70603681D01*
X135641038Y-70652316D01*
X135537655Y-70701247D01*
X135434713Y-70750467D01*
X135332229Y-70799972D01*
X135230218Y-70849754D01*
X135128695Y-70899810D01*
X135027676Y-70950132D01*
X134927177Y-71000715D01*
X134827213Y-71051554D01*
X134727800Y-71102642D01*
X134628954Y-71153974D01*
X134530689Y-71205544D01*
X134433022Y-71257347D01*
X134335967Y-71309377D01*
X134239542Y-71361627D01*
X134143760Y-71414093D01*
X134048639Y-71466768D01*
X133954192Y-71519647D01*
X133860437Y-71572724D01*
X133767388Y-71625994D01*
X133675061Y-71679450D01*
X133583471Y-71733087D01*
X133492635Y-71786899D01*
X133391278Y-71847698D01*
X133290188Y-71909149D01*
X133189373Y-71971242D01*
X133088840Y-72033968D01*
X132988599Y-72097319D01*
X132888659Y-72161286D01*
X132789027Y-72225859D01*
X132689711Y-72291032D01*
X132590721Y-72356793D01*
X132492065Y-72423136D01*
X132393752Y-72490050D01*
X132295788Y-72557528D01*
X132198184Y-72625560D01*
X132100948Y-72694138D01*
X132004087Y-72763253D01*
X131907611Y-72832896D01*
X131811528Y-72903059D01*
X131715846Y-72973732D01*
X131620574Y-73044907D01*
X131525720Y-73116575D01*
X131431293Y-73188727D01*
X131337301Y-73261355D01*
X131243752Y-73334450D01*
X131150655Y-73408003D01*
X131058019Y-73482005D01*
X130965851Y-73556447D01*
X130874161Y-73631322D01*
X130782956Y-73706619D01*
X130692245Y-73782331D01*
X130602037Y-73858447D01*
X130512340Y-73934961D01*
X130423163Y-74011862D01*
X130334513Y-74089143D01*
X130246400Y-74166794D01*
X130158831Y-74244806D01*
X130071815Y-74323172D01*
X129985362Y-74401881D01*
X129899478Y-74480926D01*
X129814172Y-74560297D01*
X129729454Y-74639986D01*
X129645331Y-74719984D01*
X129561812Y-74800282D01*
X129478905Y-74880872D01*
X129396618Y-74961744D01*
X129314961Y-75042890D01*
X129233941Y-75124301D01*
X129153568Y-75205969D01*
X129073849Y-75287884D01*
X128994792Y-75370038D01*
X128916407Y-75452422D01*
X128838702Y-75535028D01*
X128761685Y-75617846D01*
X128685364Y-75700868D01*
X128609749Y-75784084D01*
X128534847Y-75867487D01*
X128460667Y-75951068D01*
X128387217Y-76034817D01*
X128314506Y-76118726D01*
X128242543Y-76202786D01*
X128171335Y-76286989D01*
X128100891Y-76371325D01*
X128031220Y-76455786D01*
X127962329Y-76540363D01*
X127894228Y-76625048D01*
X127826925Y-76709831D01*
X127760429Y-76794703D01*
X127694747Y-76879657D01*
X127629888Y-76964683D01*
X127565861Y-77049773D01*
X127502674Y-77134917D01*
X127440335Y-77220107D01*
X127378854Y-77305334D01*
X127318237Y-77390590D01*
X127258495Y-77475865D01*
X127199634Y-77561152D01*
X127141665Y-77646440D01*
X127084594Y-77731722D01*
X127028431Y-77816988D01*
X126973184Y-77902230D01*
X126918862Y-77987439D01*
X126865472Y-78072606D01*
X126813024Y-78157723D01*
X126761525Y-78242780D01*
X126710985Y-78327770D01*
X126661411Y-78412683D01*
X126612812Y-78497510D01*
X126565197Y-78582242D01*
X126518573Y-78666872D01*
X126472950Y-78751390D01*
X126428336Y-78835787D01*
X126384739Y-78920054D01*
X126342168Y-79004184D01*
X126300631Y-79088166D01*
X126260136Y-79171993D01*
X126220693Y-79255656D01*
X126182308Y-79339145D01*
X126144992Y-79422452D01*
X126093825Y-79539500D01*
X126044678Y-79654590D01*
X125997523Y-79767855D01*
X125952328Y-79879430D01*
X125909066Y-79989446D01*
X125867707Y-80098037D01*
X125828222Y-80205337D01*
X125790581Y-80311479D01*
X125754756Y-80416596D01*
X125720716Y-80520822D01*
X125688432Y-80624289D01*
X125657876Y-80727131D01*
X125629017Y-80829482D01*
X125601827Y-80931474D01*
X125576277Y-81033241D01*
X125552336Y-81134916D01*
X125529976Y-81236632D01*
X125509168Y-81338523D01*
X125489882Y-81440723D01*
X125472088Y-81543363D01*
X125455758Y-81646578D01*
X125440862Y-81750501D01*
X125427371Y-81855265D01*
X125415255Y-81961003D01*
X125404486Y-82067849D01*
X125395034Y-82175936D01*
X125386870Y-82285398D01*
X125379964Y-82396367D01*
X125374287Y-82508976D01*
X125369810Y-82623360D01*
X125366503Y-82739652D01*
X125364337Y-82857984D01*
X125363284Y-82978490D01*
X125363272Y-83118503D01*
X125364475Y-83253487D01*
X125366964Y-83383737D01*
X125370811Y-83509547D01*
X125376088Y-83631211D01*
X125382866Y-83749022D01*
X125391217Y-83863275D01*
X125401213Y-83974264D01*
X125412927Y-84082283D01*
X125426428Y-84187625D01*
X125441790Y-84290585D01*
X125459084Y-84391457D01*
X125478382Y-84490535D01*
X125499756Y-84588112D01*
X125523276Y-84684484D01*
X125549016Y-84779943D01*
X125577046Y-84874784D01*
X125607440Y-84969301D01*
X125640267Y-85063788D01*
X125675601Y-85158539D01*
X125713512Y-85253848D01*
X125754073Y-85350009D01*
X125797356Y-85447316D01*
X125843431Y-85546063D01*
X125892372Y-85646544D01*
X125944249Y-85749053D01*
X125999135Y-85853884D01*
X126057100Y-85961332D01*
X126118218Y-86071689D01*
X126158144Y-86139928D01*
X126203134Y-86211339D01*
X126252924Y-86285664D01*
X126307250Y-86362644D01*
X126365849Y-86442023D01*
X126428455Y-86523543D01*
X126494806Y-86606945D01*
X126564638Y-86691974D01*
X126637686Y-86778370D01*
X126713688Y-86865876D01*
X126792378Y-86954235D01*
X126873494Y-87043189D01*
X126956771Y-87132480D01*
X127041945Y-87221851D01*
X127128753Y-87311044D01*
X127216931Y-87399801D01*
X127306214Y-87487865D01*
X127396340Y-87574979D01*
X127487044Y-87660883D01*
X127578062Y-87745322D01*
X127669130Y-87828037D01*
X127759985Y-87908770D01*
X127850363Y-87987264D01*
X127940000Y-88063262D01*
X128028632Y-88136505D01*
X128115994Y-88206737D01*
X128201825Y-88273699D01*
X128285858Y-88337133D01*
X128367831Y-88396783D01*
X128447480Y-88452390D01*
X128524541Y-88503697D01*
X128598749Y-88550446D01*
X128669842Y-88592380D01*
X128737555Y-88629241D01*
X128816578Y-88668916D01*
X128900155Y-88708287D01*
X128987959Y-88747262D01*
X129079667Y-88785751D01*
X129174955Y-88823662D01*
X129273498Y-88860904D01*
X129374970Y-88897385D01*
X129479049Y-88933014D01*
X129585409Y-88967699D01*
X129693726Y-89001351D01*
X129803676Y-89033876D01*
X129914933Y-89065184D01*
X130027174Y-89095184D01*
X130140074Y-89123784D01*
X130253308Y-89150893D01*
X130366553Y-89176420D01*
X130479483Y-89200272D01*
X130591774Y-89222360D01*
X130703102Y-89242592D01*
X130813142Y-89260876D01*
X130921569Y-89277120D01*
X131028060Y-89291235D01*
X131132290Y-89303128D01*
X131183727Y-89307946D01*
X131239985Y-89312179D01*
X131300922Y-89315834D01*
X131366394Y-89318918D01*
X131436258Y-89321439D01*
X131510371Y-89323403D01*
X131588591Y-89324817D01*
X131670774Y-89325689D01*
X131756777Y-89326027D01*
X131846458Y-89325836D01*
X131939673Y-89325124D01*
X132036278Y-89323899D01*
X132136133Y-89322168D01*
X132239092Y-89319937D01*
X132345013Y-89317214D01*
X132453754Y-89314006D01*
X132565170Y-89310321D01*
X132679120Y-89306164D01*
X132795460Y-89301544D01*
X132914047Y-89296468D01*
X133034737Y-89290943D01*
X133157389Y-89284976D01*
X133281859Y-89278574D01*
X133408004Y-89271744D01*
X133535681Y-89264493D01*
X133664747Y-89256830D01*
X133795059Y-89248760D01*
X133926474Y-89240290D01*
X134058849Y-89231430D01*
X134192040Y-89222184D01*
X134325906Y-89212561D01*
X134460302Y-89202567D01*
X134595087Y-89192210D01*
X134730116Y-89181497D01*
X134865247Y-89170435D01*
X135000337Y-89159031D01*
X135135243Y-89147292D01*
X135269821Y-89135226D01*
X135403929Y-89122840D01*
X135537424Y-89110141D01*
X135670163Y-89097135D01*
X135802003Y-89083831D01*
X135932800Y-89070235D01*
X136062412Y-89056355D01*
X148044873Y-96693017D01*
X147932088Y-96667739D01*
X147818984Y-96642694D01*
X147705567Y-96617883D01*
X147591846Y-96593307D01*
X147477826Y-96568966D01*
X147363515Y-96544862D01*
X147248921Y-96520996D01*
X147134050Y-96497369D01*
X147018909Y-96473981D01*
X146903506Y-96450835D01*
X146787848Y-96427930D01*
X146671942Y-96405268D01*
X146555795Y-96382850D01*
X146439413Y-96360677D01*
X146322805Y-96338750D01*
X146205978Y-96317070D01*
X146088938Y-96295637D01*
X145971692Y-96274454D01*
X145854248Y-96253520D01*
X145736613Y-96232838D01*
X145618795Y-96212408D01*
X145500799Y-96192230D01*
X145382633Y-96172307D01*
X145264305Y-96152639D01*
X145145822Y-96133227D01*
X145027190Y-96114072D01*
X144908416Y-96095175D01*
X144789509Y-96076537D01*
X144670475Y-96058159D01*
X144551320Y-96040043D01*
X144432053Y-96022188D01*
X144312681Y-96004597D01*
X144193210Y-95987270D01*
X144073647Y-95970209D01*
X143954000Y-95953413D01*
X143834277Y-95936885D01*
X143714483Y-95920625D01*
X143594626Y-95904635D01*
X143474714Y-95888914D01*
X143354753Y-95873465D01*
X143234750Y-95858289D01*
X143114713Y-95843385D01*
X142994649Y-95828756D01*
X142874565Y-95814403D01*
X142754468Y-95800326D01*
X142634365Y-95786526D01*
X142514263Y-95773005D01*
X142394169Y-95759763D01*
X142274092Y-95746802D01*
X142154036Y-95734122D01*
X142034011Y-95721725D01*
X141914022Y-95709611D01*
X141794078Y-95697781D01*
X141674184Y-95686238D01*
X141554349Y-95674981D01*
X141434580Y-95664011D01*
X141314882Y-95653330D01*
X141195265Y-95642939D01*
X141075734Y-95632838D01*
X140956297Y-95623029D01*
X140836961Y-95613513D01*
X140717734Y-95604290D01*
X140598621Y-95595362D01*
X140479631Y-95586730D01*
X140360771Y-95578394D01*
X140242047Y-95570356D01*
X140123467Y-95562617D01*
X140005038Y-95555178D01*
X139886767Y-95548039D01*
X139768661Y-95541203D01*
X139650727Y-95534669D01*
X139532973Y-95528439D01*
X139415406Y-95522514D01*
X139298032Y-95516895D01*
X139180858Y-95511582D01*
X139063893Y-95506578D01*
X138947143Y-95501882D01*
X138830615Y-95497497D01*
X138714316Y-95493422D01*
X138598254Y-95489660D01*
X138482435Y-95486210D01*
X138366867Y-95483074D01*
X138251556Y-95480254D01*
X138136511Y-95477749D01*
X138021738Y-95475562D01*
X137907243Y-95473693D01*
X137793036Y-95472142D01*
X137679121Y-95470912D01*
X137565507Y-95470003D01*
X137452201Y-95469416D01*
X137339209Y-95469152D01*
X137226540Y-95469213D01*
X137114200Y-95469598D01*
X137002195Y-95470310D01*
X136890534Y-95471349D01*
X136779224Y-95472716D01*
X136668271Y-95474413D01*
X136557683Y-95476440D01*
X136447466Y-95478798D01*
X136337629Y-95481488D01*
X136228177Y-95484512D01*
X136119119Y-95487870D01*
X136010461Y-95491563D01*
X135902210Y-95495593D01*
X135794374Y-95499960D01*
X135686960Y-95504666D01*
X135579975Y-95509711D01*
X135473425Y-95515096D01*
X135367319Y-95520823D01*
X135261662Y-95526892D01*
X135156463Y-95533305D01*
X135051729Y-95540063D01*
X134947466Y-95547165D01*
X134843682Y-95554615D01*
X134740383Y-95562412D01*
X134637578Y-95570557D01*
X134535273Y-95579052D01*
X134433474Y-95587898D01*
X134332191Y-95597095D01*
X134231428Y-95606645D01*
X134131194Y-95616549D01*
X134031496Y-95626807D01*
X133932341Y-95637421D01*
X133833736Y-95648391D01*
X133735687Y-95659720D01*
X133638203Y-95671407D01*
X133541291Y-95683453D01*
X133444957Y-95695861D01*
X133349208Y-95708630D01*
X133254052Y-95721762D01*
X133159496Y-95735258D01*
X133065547Y-95749119D01*
X132972212Y-95763346D01*
X132879498Y-95777939D01*
X132787412Y-95792901D01*
X132695962Y-95808231D01*
X132605155Y-95823931D01*
X132514997Y-95840002D01*
X132425496Y-95856445D01*
X132336659Y-95873261D01*
X132248493Y-95890451D01*
X132161006Y-95908016D01*
X132074204Y-95925957D01*
X131988094Y-95944275D01*
X131902684Y-95962971D01*
X131817980Y-95982046D01*
X131733991Y-96001501D01*
X131650722Y-96021337D01*
X131568181Y-96041555D01*
X131486376Y-96062157D01*
X131335092Y-96100656D01*
X131187281Y-96137749D01*
X131042830Y-96173447D01*
X130901629Y-96207766D01*
X130763567Y-96240718D01*
X130628532Y-96272317D01*
X130496412Y-96302575D01*
X130367097Y-96331508D01*
X130240476Y-96359127D01*
X130116436Y-96385446D01*
X129994867Y-96410479D01*
X129875658Y-96434240D01*
X129758697Y-96456741D01*
X129643873Y-96477995D01*
X129531074Y-96498018D01*
X129420190Y-96516821D01*
X129311109Y-96534418D01*
X129203720Y-96550823D01*
X129097911Y-96566049D01*
X128993572Y-96580110D01*
X128890590Y-96593018D01*
X128788856Y-96604788D01*
X128688257Y-96615432D01*
X128588682Y-96624965D01*
X128490020Y-96633399D01*
X128392159Y-96640748D01*
X128294989Y-96647026D01*
X128198398Y-96652245D01*
X128102275Y-96656419D01*
X128006508Y-96659562D01*
X127910987Y-96661687D01*
X127815600Y-96662808D01*
X127720235Y-96662937D01*
X127624782Y-96662089D01*
X127529129Y-96660276D01*
X127433165Y-96657513D01*
X127336778Y-96653811D01*
X127239858Y-96649186D01*
X127142293Y-96643651D01*
X127043971Y-96637217D01*
X126944783Y-96629901D01*
X126844615Y-96621713D01*
X126699590Y-96608060D01*
X126560895Y-96592411D01*
X126428273Y-96574659D01*
X126301470Y-96554701D01*
X126180228Y-96532431D01*
X126064293Y-96507744D01*
X125953409Y-96480534D01*
X125847319Y-96450697D01*
X125745769Y-96418126D01*
X125648502Y-96382718D01*
X125555262Y-96344367D01*
X125465795Y-96302967D01*
X125379843Y-96258414D01*
X125297152Y-96210601D01*
X125217466Y-96159425D01*
X125140528Y-96104780D01*
X125066084Y-96046560D01*
X124993877Y-95984661D01*
X124923652Y-95918977D01*
X124855152Y-95849403D01*
X124788123Y-95775834D01*
X124712327Y-95686621D01*
X124641786Y-95597601D01*
X124576502Y-95508743D01*
X124516476Y-95420015D01*
X124461709Y-95331386D01*
X124412203Y-95242825D01*
X124367957Y-95154300D01*
X124328975Y-95065781D01*
X124295255Y-94977234D01*
X124266801Y-94888630D01*
X124243612Y-94799937D01*
X124225690Y-94711124D01*
X124213035Y-94622158D01*
X124205650Y-94533009D01*
X124203535Y-94443645D01*
X124206692Y-94354035D01*
X124215121Y-94264148D01*
X124228823Y-94173951D01*
X124247799Y-94083415D01*
X124272052Y-93992507D01*
X124301581Y-93901196D01*
X124336388Y-93809450D01*
X124376474Y-93717239D01*
X124421841Y-93624531D01*
X124472488Y-93531294D01*
X124528418Y-93437497D01*
X124589631Y-93343109D01*
X124656129Y-93248098D01*
X124727912Y-93152434D01*
X124804982Y-93056084D01*
X124887340Y-92959017D01*
X124953726Y-92876139D01*
X125014889Y-92786189D01*
X125070561Y-92690236D01*
X125120473Y-92589352D01*
X125164354Y-92484604D01*
X125201937Y-92377063D01*
X125232951Y-92267798D01*
X125257127Y-92157879D01*
X125274195Y-92048376D01*
X125283887Y-91940358D01*
X125285934Y-91834895D01*
X125280065Y-91733056D01*
X125266011Y-91635912D01*
X125243504Y-91544532D01*
X125213306Y-91459157D01*
X125174814Y-91373328D01*
X125128556Y-91287439D01*
X125075062Y-91201885D01*
X125014860Y-91117058D01*
X124948481Y-91033353D01*
X124876453Y-90951164D01*
X124799306Y-90870884D01*
X124717570Y-90792908D01*
X124631773Y-90717629D01*
X124542445Y-90645442D01*
X124450115Y-90576739D01*
X124355312Y-90511915D01*
X124258567Y-90451364D01*
X124160407Y-90395480D01*
X124061363Y-90344656D01*
X123961964Y-90299287D01*
X123862739Y-90259765D01*
X123764218Y-90226486D01*
X123666929Y-90199843D01*
X123571402Y-90180230D01*
X123478167Y-90168041D01*
X123387752Y-90163669D01*
X123336380Y-90158926D01*
X123269733Y-90145488D01*
X123189826Y-90124092D01*
X123098674Y-90095473D01*
X122998290Y-90060368D01*
X122890690Y-90019514D01*
X122777889Y-89973646D01*
X122661901Y-89923502D01*
X122544739Y-89869817D01*
X122428421Y-89813328D01*
X122328979Y-89761893D01*
X122230974Y-89707824D01*
X122134469Y-89651188D01*
X122039531Y-89592051D01*
X121946225Y-89530479D01*
X121854616Y-89466537D01*
X121764770Y-89400293D01*
X121676752Y-89331813D01*
X121590628Y-89261161D01*
X121506463Y-89188406D01*
X121424323Y-89113612D01*
X121344273Y-89036845D01*
X121266379Y-88958173D01*
X121190706Y-88877661D01*
X121117319Y-88795374D01*
X121046285Y-88711381D01*
X120977668Y-88625745D01*
X120911534Y-88538534D01*
X120847948Y-88449814D01*
X120786977Y-88359650D01*
X120728685Y-88268110D01*
X120673137Y-88175258D01*
X120620401Y-88081162D01*
X120570540Y-87985887D01*
X120523620Y-87889499D01*
X120484049Y-87804071D01*
X120448584Y-87724646D01*
X120417009Y-87649634D01*
X120389107Y-87577442D01*
X120364662Y-87506481D01*
X120343459Y-87435158D01*
X120325281Y-87361882D01*
X120309912Y-87285063D01*
X120297136Y-87203110D01*
X120286736Y-87114430D01*
X120278498Y-87017432D01*
X120272203Y-86910527D01*
X120267638Y-86792121D01*
X120264585Y-86660625D01*
X120262828Y-86514447D01*
X120262151Y-86351996D01*
X120262338Y-86171680D01*
X120263173Y-85971908D01*
X120264088Y-85863335D01*
X120265710Y-85755252D01*
X120268045Y-85647632D01*
X120271098Y-85540452D01*
X120274875Y-85433686D01*
X120279380Y-85327308D01*
X120284620Y-85221294D01*
X120290600Y-85115618D01*
X120297325Y-85010255D01*
X120304800Y-84905180D01*
X120313031Y-84800367D01*
X120322023Y-84695792D01*
X120331782Y-84591429D01*
X120342314Y-84487253D01*
X120353622Y-84383239D01*
X120365714Y-84279362D01*
X120378594Y-84175596D01*
X120392267Y-84071916D01*
X120406740Y-83968297D01*
X120422017Y-83864714D01*
X120438104Y-83761142D01*
X120455006Y-83657555D01*
X120472729Y-83553928D01*
X120491277Y-83450236D01*
X120510658Y-83346454D01*
X120530875Y-83242557D01*
X120551934Y-83138519D01*
X120573841Y-83034315D01*
X120596601Y-82929920D01*
X120620220Y-82825309D01*
X120644702Y-82720456D01*
X120670054Y-82615337D01*
X120696280Y-82509926D01*
X120723386Y-82404197D01*
X120751378Y-82298127D01*
X120780260Y-82191689D01*
X120810039Y-82084859D01*
X120840719Y-81977610D01*
X120872306Y-81869919D01*
X120904806Y-81761759D01*
X120938223Y-81653106D01*
X120972564Y-81543934D01*
X121007833Y-81434218D01*
X121044037Y-81323934D01*
X121081179Y-81213054D01*
X121119267Y-81101556D01*
X121158304Y-80989413D01*
X121198297Y-80876599D01*
X121239252Y-80763091D01*
X121281172Y-80648862D01*
X121324064Y-80533888D01*
X121367934Y-80418144D01*
X121412786Y-80301603D01*
X121458626Y-80184241D01*
X121505459Y-80066033D01*
X121553291Y-79946953D01*
X121590766Y-79855100D01*
X121628878Y-79763306D01*
X121667627Y-79671573D01*
X121707008Y-79579903D01*
X121747022Y-79488298D01*
X121787664Y-79396762D01*
X121828933Y-79305297D01*
X121870827Y-79213905D01*
X121913343Y-79122588D01*
X121956480Y-79031349D01*
X122000236Y-78940190D01*
X122044607Y-78849115D01*
X122089592Y-78758124D01*
X122135189Y-78667222D01*
X122181395Y-78576409D01*
X122228209Y-78485689D01*
X122275627Y-78395064D01*
X122323649Y-78304537D01*
X122372272Y-78214109D01*
X122421493Y-78123783D01*
X122471310Y-78033563D01*
X122521722Y-77943449D01*
X122572726Y-77853445D01*
X122624320Y-77763553D01*
X122676501Y-77673776D01*
X122729268Y-77584115D01*
X122782618Y-77494574D01*
X122836549Y-77405154D01*
X122891060Y-77315859D01*
X122946147Y-77226690D01*
X123001808Y-77137651D01*
X123058042Y-77048743D01*
X123114847Y-76959968D01*
X123172219Y-76871330D01*
X123230157Y-76782831D01*
X123288659Y-76694474D01*
X123347723Y-76606259D01*
X123407345Y-76518191D01*
X123467525Y-76430272D01*
X123528260Y-76342503D01*
X123589548Y-76254888D01*
X123651386Y-76167429D01*
X123713773Y-76080128D01*
X123776706Y-75992987D01*
X123840183Y-75906010D01*
X123904202Y-75819198D01*
X123968760Y-75732554D01*
X124033856Y-75646081D01*
X124099488Y-75559781D01*
X124165652Y-75473656D01*
X124232348Y-75387708D01*
X124299572Y-75301941D01*
X124367323Y-75216356D01*
X124435598Y-75130957D01*
X124504396Y-75045745D01*
X124573713Y-74960722D01*
X124643549Y-74875892D01*
X124713900Y-74791257D01*
X124784764Y-74706819D01*
X124856140Y-74622581D01*
X124928026Y-74538545D01*
X125000418Y-74454713D01*
X125073315Y-74371088D01*
X125146714Y-74287673D01*
X125220614Y-74204469D01*
X125295012Y-74121480D01*
X125369907Y-74038707D01*
X125445295Y-73956153D01*
X125521175Y-73873821D01*
X125597544Y-73791713D01*
X125674401Y-73709831D01*
X125751742Y-73628178D01*
X125829567Y-73546756D01*
X125907873Y-73465569D01*
X125986657Y-73384617D01*
X126065918Y-73303903D01*
X126145653Y-73223431D01*
X126225859Y-73143202D01*
X126306536Y-73063219D01*
X126387681Y-72983485D01*
X126469291Y-72904001D01*
X126551364Y-72824770D01*
X126633899Y-72745795D01*
X126716892Y-72667078D01*
X126800343Y-72588621D01*
X126884247Y-72510427D01*
X126968605Y-72432499D01*
X127053412Y-72354838D01*
X127138668Y-72277448D01*
X127224370Y-72200330D01*
X127310515Y-72123487D01*
X127397102Y-72046922D01*
X127484128Y-71970637D01*
X127571591Y-71894634D01*
X127659489Y-71818916D01*
X127747820Y-71743485D01*
X127836582Y-71668344D01*
X127925772Y-71593495D01*
X128015388Y-71518940D01*
X128105429Y-71444683D01*
X128195891Y-71370725D01*
X128286773Y-71297068D01*
X128378072Y-71223716D01*
X128469787Y-71150671D01*
X128561915Y-71077935D01*
X128654454Y-71005510D01*
X128747402Y-70933399D01*
X128840756Y-70861605D01*
X128934515Y-70790130D01*
X129028676Y-70718976D01*
X129123237Y-70648146D01*
X129218196Y-70577641D01*
X129313551Y-70507466D01*
X129409299Y-70437621D01*
X129505439Y-70368111D01*
X129601968Y-70298935D01*
X129698883Y-70230099D01*
X129796184Y-70161603D01*
X129893867Y-70093450D01*
X129991931Y-70025643D01*
X130090373Y-69958184D01*
X130189191Y-69891075D01*
X130288382Y-69824320D01*
X130387946Y-69757920D01*
X130487879Y-69691877D01*
X130588179Y-69626195D01*
X130688845Y-69560876D01*
X130789874Y-69495921D01*
X130891263Y-69431335D01*
X130993011Y-69367118D01*
X131095115Y-69303273D01*
X131182401Y-69249168D01*
X131269943Y-69195343D01*
X131357738Y-69141797D01*
X131445787Y-69088532D01*
X131534086Y-69035546D01*
X131622636Y-68982841D01*
X131711434Y-68930417D01*
X131800480Y-68878273D01*
X131889773Y-68826410D01*
X131979310Y-68774828D01*
X132069090Y-68723527D01*
X132159113Y-68672508D01*
X132249377Y-68621770D01*
X132339881Y-68571314D01*
X132430622Y-68521141D01*
X132521601Y-68471249D01*
X132612816Y-68421640D01*
X132704265Y-68372313D01*
X132795947Y-68323269D01*
X132887861Y-68274507D01*
X132980006Y-68226029D01*
X133072380Y-68177834D01*
X133164981Y-68129923D01*
X133257810Y-68082295D01*
X133350863Y-68034951D01*
X133444141Y-67987891D01*
X133537641Y-67941115D01*
X133631362Y-67894623D01*
X133725304Y-67848416D01*
X133819464Y-67802494D01*
X133913842Y-67756857D01*
X134008436Y-67711504D01*
X134103245Y-67666437D01*
X134198268Y-67621656D01*
X134293502Y-67577160D01*
X134388948Y-67532950D01*
X134484603Y-67489025D01*
X134580466Y-67445387D01*
X134676537Y-67402036D01*
X134772813Y-67358970D01*
X134869294Y-67316192D01*
X134965978Y-67273700D01*
X135062863Y-67231496D01*
X135159949Y-67189579D01*
X135257234Y-67147949D01*
X135354717Y-67106607D01*
X135452397Y-67065552D01*
X135550272Y-67024786D01*
X135648341Y-66984308D01*
X135746602Y-66944118D01*
X135845055Y-66904217D01*
X135943698Y-66864604D01*
X136042529Y-66825281D01*
X136141548Y-66786246D01*
X136240753Y-66747501D01*
X136340143Y-66709045D01*
X136439717Y-66670879D01*
X136539473Y-66633002D01*
X136639409Y-66595416D01*
X136739525Y-66558120D01*
X136839820Y-66521114D01*
X136940291Y-66484399D01*
X137040938Y-66447974D01*
X137141760Y-66411840D01*
X137242754Y-66375998D01*
X137343920Y-66340446D01*
X137445257Y-66305186D01*
X137546763Y-66270218D01*
X137648437Y-66235542D01*
X137750277Y-66201157D01*
X137852282Y-66167065D01*
X137954452Y-66133265D01*
X138056784Y-66099758D01*
X138159277Y-66066543D01*
X138261930Y-66033622D01*
X138364742Y-66000993D01*
X138467712Y-65968658D01*
X138570837Y-65936616D01*
X138674118Y-65904868D01*
X138777551Y-65873413D01*
X138881137Y-65842253D01*
X138984874Y-65811386D01*
X139088761Y-65780815D01*
X139192795Y-65750537D01*
X139296977Y-65720555D01*
X139401304Y-65690867D01*
X139505775Y-65661474D01*
X139610390Y-65632377D01*
X139715146Y-65603575D01*
X139820043Y-65575069D01*
X139925079Y-65546859D01*
X140030253Y-65518944D01*
X140135563Y-65491326D01*
X140241008Y-65464005D01*
X140346587Y-65436979D01*
X140452299Y-65410251D01*
X140558142Y-65383819D01*
X140664115Y-65357685D01*
X140770217Y-65331848D01*
X140876446Y-65306308D01*
X140982801Y-65281066D01*
X141089281Y-65256121D01*
X141195885Y-65231475D01*
X141302610Y-65207127D01*
X141409456Y-65183077D01*
X141516422Y-65159326D01*
X141623506Y-65135874D01*
X141730707Y-65112720D01*
X141838024Y-65089866D01*
X141945455Y-65067311D01*
X142052999Y-65045055D01*
X142160654Y-65023100D01*
X142268420Y-65001443D01*
X142376295Y-64980087D01*
X142484278Y-64959031D01*
X142592368Y-64938276D01*
X142700562Y-64917821D01*
X142808860Y-64897667D01*
X142917261Y-64877813D01*
X143025763Y-64858261D01*
X143134365Y-64839010D01*
X143243066Y-64820061D01*
X143351864Y-64801413D01*
X143460758Y-64783067D01*
X143569747Y-64765023D01*
X143678829Y-64747282D01*
X143788004Y-64729842D01*
X143897269Y-64712706D01*
X144006623Y-64695872D01*
X144116066Y-64679340D01*
X144225596Y-64663113D01*
X144335211Y-64647188D01*
X144444911Y-64631567D01*
X144554693Y-64616249D01*
X144664557Y-64601235D01*
X144774502Y-64586526D01*
X144884526Y-64572120D01*
X144994627Y-64558019D01*
X145104805Y-64544223D01*
X145215058Y-64530731D01*
X145325384Y-64517544D01*
X145435783Y-64504662D01*
X145546254Y-64492086D01*
X145656794Y-64479815D01*
X145767403Y-64467850D01*
X145878080Y-64456190D01*
X145988822Y-64444837D01*
X146099629Y-64433790D01*
X146210499Y-64423049D01*
X146321432Y-64412615D01*
X146432425Y-64402487D01*
X146543477Y-64392667D01*
X146654588Y-64383154D01*
X146765756Y-64373947D01*
X146876979Y-64365049D01*
X146988257Y-64356458D01*
X147099587Y-64348175D01*
X147210969Y-64340200D01*
X147322401Y-64332533D01*
X147433883Y-64325174D01*
X147545412Y-64318125D01*
X147656987Y-64311383D01*
X147768608Y-64304951D01*
X147880272Y-64298828D01*
X147991979Y-64293014D01*
X148103727Y-64287510D01*
X148215515Y-64282316D01*
X148327341Y-64277431D01*
X148439205Y-64272856D01*
X148551105Y-64268592D01*
X148663039Y-64264638D01*
X148775007Y-64260994D01*
X148887007Y-64257661D01*
X148999037Y-64254640D01*
X149111097Y-64251929D01*
X149223185Y-64249530D01*
X149335300Y-64247442D01*
X149447441Y-64245666D01*
X149559605Y-64244201D01*
X149671793Y-64243049D01*
X149784002Y-64242209D01*
X149896231Y-64241681D01*
X150008480Y-64241466D01*
X150120746Y-64241564D01*
X150233028Y-64241975D01*
X150345326Y-64242698D01*
X150457637Y-64243736D01*
X150569961Y-64245086D01*
X150682296Y-64246750D01*
X150794641Y-64248729D01*
X150906994Y-64251021D01*
X151019355Y-64253627D01*
X151131721Y-64256548D01*
X151244092Y-64259783D01*
X151356466Y-64263334D01*
X151468843Y-64267199D01*
X151581220Y-64271379D01*
X151693597Y-64275875D01*
X151805971Y-64280686D01*
X151918343Y-64285812D01*
X152030709Y-64291255D01*
X152143071Y-64297014D01*
X152255425Y-64303089D01*
X152367770Y-64309480D01*
X152480106Y-64316188D01*
X152592431Y-64323213D01*
X152704743Y-64330554D01*
X152817042Y-64338213D01*
X152929325Y-64346189D01*
X153041593Y-64354483D01*
X153153843Y-64363094D01*
X153266074Y-64372023D01*
X153378285Y-64381271D01*
X153490474Y-64390836D01*
X153602641Y-64400720D01*
X153714783Y-64410922D01*
X153826900Y-64421444D01*
X153938991Y-64432284D01*
X154051053Y-64443443D01*
X154163086Y-64454922D01*
X154275088Y-64466720D01*
X154387059Y-64478838D01*
X154498996Y-64491276D01*
X154610898Y-64504034D01*
X154722765Y-64517112D01*
X154834595Y-64530510D01*
X154946386Y-64544229D01*
X155058137Y-64558269D01*
X155169848Y-64572630D01*
X155281516Y-64587312D01*
X155393140Y-64602315D01*
X155504719Y-64617640D01*
X155616252Y-64633287D01*
X155727738Y-64649255D01*
X155839174Y-64665545D01*
X155950560Y-64682158D01*
X156061895Y-64699093D01*
X156173177Y-64716351D01*
X156284405Y-64733931D01*
X156395577Y-64751835D01*
X156506692Y-64770062D01*
X156617750Y-64788612D01*
X156728748Y-64807485D01*
X156839686Y-64826682D01*
X156950561Y-64846203D01*
X157061373Y-64866048D01*
X157172121Y-64886218D01*
X157282803Y-64906712D01*
X157393417Y-64927530D01*
X157503963Y-64948673D01*
X157614440Y-64970141D01*
X157724845Y-64991935D01*
X157835178Y-65014053D01*
X157945437Y-65036498D01*
X158055621Y-65059268D01*
X158165728Y-65082363D01*
X158275758Y-65105785D01*
X158385710Y-65129533D01*
X158495580Y-65153608D01*
X158605370Y-65178009D01*
X158715076Y-65202737D01*
X158824698Y-65227792D01*
X158934235Y-65253174D01*
X159043685Y-65278883D01*
X159153047Y-65304920D01*
X159262320Y-65331285D01*
X159371502Y-65357978D01*
X159489979Y-65387343D01*
X159608244Y-65417078D01*
X159726294Y-65447179D01*
X159844129Y-65477647D01*
X159961748Y-65508481D01*
X160079148Y-65539679D01*
X160196330Y-65571241D01*
X160313291Y-65603166D01*
X160430031Y-65635453D01*
X160546548Y-65668101D01*
X160662840Y-65701110D01*
X160778908Y-65734477D01*
X160894748Y-65768203D01*
X161010361Y-65802286D01*
X161125745Y-65836726D01*
X161240898Y-65871521D01*
X161355820Y-65906671D01*
X161470509Y-65942175D01*
X161584963Y-65978031D01*
X161699183Y-66014240D01*
X161813165Y-66050800D01*
X161926910Y-66087710D01*
X162040416Y-66124969D01*
X162153681Y-66162577D01*
X162266704Y-66200532D01*
X162379485Y-66238833D01*
X162492022Y-66277480D01*
X162604313Y-66316472D01*
X162716357Y-66355808D01*
X162828153Y-66395486D01*
X162939701Y-66435507D01*
X163050997Y-66475868D01*
X163162042Y-66516570D01*
X163272835Y-66557611D01*
X163383373Y-66598991D01*
X163493655Y-66640708D01*
X163603681Y-66682761D01*
X163713449Y-66725150D01*
X163822957Y-66767874D01*
X163932206Y-66810932D01*
X164041192Y-66854322D01*
X164149915Y-66898045D01*
X164258375Y-66942099D01*
X164366568Y-66986483D01*
X164474495Y-67031196D01*
X164582154Y-67076237D01*
X164689544Y-67121606D01*
X164796664Y-67167302D01*
X164903511Y-67213323D01*
X165010086Y-67259669D01*
X165116386Y-67306339D01*
X165222411Y-67353332D01*
X165328159Y-67400646D01*
X165433629Y-67448282D01*
X165538819Y-67496238D01*
X165643730Y-67544514D01*
X165748358Y-67593107D01*
X165852703Y-67642019D01*
X165956764Y-67691247D01*
X166060540Y-67740790D01*
X166164029Y-67790648D01*
X166267229Y-67840820D01*
X166370141Y-67891306D01*
X166472762Y-67942103D01*
X166575091Y-67993211D01*
X166677127Y-68044629D01*
X166778868Y-68096357D01*
X166880314Y-68148393D01*
X166981464Y-68200737D01*
X167082315Y-68253387D01*
X167182867Y-68306343D01*
X167283118Y-68359604D01*
X167383067Y-68413168D01*
X167482714Y-68467036D01*
X167582056Y-68521206D01*
X167681092Y-68575676D01*
X167779822Y-68630447D01*
X167878243Y-68685518D01*
X167976355Y-68740886D01*
X168074156Y-68796552D01*
X168171646Y-68852515D01*
X168268822Y-68908774D01*
X168365684Y-68965327D01*
X168462231Y-69022174D01*
X168558460Y-69079315D01*
X168654372Y-69136747D01*
X168749964Y-69194470D01*
X168845235Y-69252484D01*
X168940185Y-69310787D01*
X169034811Y-69369378D01*
X169129113Y-69428257D01*
X169223089Y-69487423D01*
X169316738Y-69546874D01*
X169410060Y-69606610D01*
X169503051Y-69666630D01*
X169595712Y-69726933D01*
X169688042Y-69787518D01*
X169780038Y-69848384D01*
X169871699Y-69909531D01*
X169963025Y-69970957D01*
X170054014Y-70032661D01*
X170144664Y-70094643D01*
X170234976Y-70156901D01*
X170324946Y-70219435D01*
X170414575Y-70282244D01*
X170503860Y-70345327D01*
X170592801Y-70408683D01*
X170681396Y-70472311D01*
X170769644Y-70536210D01*
X170857544Y-70600380D01*
X170945095Y-70664818D01*
X171032294Y-70729526D01*
X171119142Y-70794501D01*
X171205637Y-70859742D01*
X171291777Y-70925249D01*
X171377561Y-70991021D01*
X171462988Y-71057057D01*
X171548057Y-71123356D01*
X171632767Y-71189917D01*
X171717115Y-71256740D01*
X171801102Y-71323822D01*
X171884726Y-71391164D01*
X171967984Y-71458765D01*
X172050878Y-71526623D01*
X172133404Y-71594737D01*
X172215561Y-71663108D01*
X172297350Y-71731733D01*
X172378767Y-71800612D01*
X172459813Y-71869745D01*
X172540485Y-71939129D01*
X172620782Y-72008764D01*
X172700704Y-72078650D01*
X172780249Y-72148786D01*
X172859415Y-72219169D01*
X172938202Y-72289801D01*
X173016608Y-72360679D01*
X173094632Y-72431803D01*
X173172272Y-72503171D01*
X173249528Y-72574784D01*
X173326398Y-72646639D01*
X173402881Y-72718737D01*
X173478976Y-72791076D01*
X173554681Y-72863656D01*
X173629995Y-72936474D01*
X173704917Y-73009532D01*
X173779446Y-73082826D01*
X173853580Y-73156358D01*
X173927319Y-73230125D01*
X174000660Y-73304127D01*
X174073603Y-73378364D01*
X174146146Y-73452833D01*
X174218288Y-73527534D01*
X174290028Y-73602467D01*
X174361365Y-73677630D01*
X174432297Y-73753022D01*
X174502823Y-73828643D01*
X174572942Y-73904491D01*
X174642653Y-73980567D01*
X174711954Y-74056868D01*
X174780844Y-74133393D01*
X174849322Y-74210143D01*
X174917386Y-74287116D01*
X174985036Y-74364311D01*
X175052270Y-74441728D01*
X175119086Y-74519364D01*
X175185484Y-74597220D01*
X175251463Y-74675295D01*
X175317021Y-74753587D01*
X175382156Y-74832096D01*
X175446868Y-74910821D01*
X175511155Y-74989761D01*
X175575016Y-75068915D01*
X175638450Y-75148281D01*
X175701456Y-75227860D01*
X175764032Y-75307651D01*
X175826177Y-75387651D01*
X175887889Y-75467861D01*
X175949169Y-75548280D01*
X176010013Y-75628906D01*
X176070421Y-75709739D01*
X176130393Y-75790778D01*
X176189925Y-75872022D01*
X176249018Y-75953469D01*
X176307670Y-76035120D01*
X176365880Y-76116973D01*
X176423646Y-76199027D01*
X176480968Y-76281282D01*
X176537843Y-76363736D01*
X176594271Y-76446389D01*
X176650251Y-76529239D01*
X176705781Y-76612286D01*
X176760859Y-76695529D01*
X176815486Y-76778967D01*
X176869659Y-76862599D01*
X176923377Y-76946424D01*
X176976639Y-77030441D01*
X177029444Y-77114650D01*
X177081790Y-77199049D01*
X177133677Y-77283637D01*
X177185102Y-77368414D01*
X177236065Y-77453378D01*
X177286565Y-77538530D01*
X177336599Y-77623867D01*
X177386168Y-77709389D01*
X177435269Y-77795095D01*
X177483902Y-77880985D01*
X177532065Y-77967056D01*
X177579756Y-78053309D01*
X177626976Y-78139742D01*
X177673721Y-78226355D01*
X177719992Y-78313146D01*
X177765787Y-78400115D01*
X177811105Y-78487261D01*
X177855943Y-78574583D01*
X177900302Y-78662080D01*
X177944180Y-78749750D01*
X177987576Y-78837594D01*
X178038357Y-78941889D01*
X178088474Y-79046476D01*
X178137925Y-79151344D01*
X178186706Y-79256485D01*
X178234817Y-79361890D01*
X178282254Y-79467548D01*
X178329016Y-79573451D01*
X178375099Y-79679588D01*
X178420501Y-79785952D01*
X178465220Y-79892532D01*
X178509254Y-79999320D01*
X178552601Y-80106305D01*
X178595257Y-80213479D01*
X178637221Y-80320832D01*
X178678489Y-80428355D01*
X178719061Y-80536038D01*
X178758933Y-80643872D01*
X178798103Y-80751848D01*
X178836569Y-80859957D01*
X178874328Y-80968188D01*
X178911379Y-81076534D01*
X178947717Y-81184983D01*
X178983342Y-81293528D01*
X179018251Y-81402159D01*
X179052441Y-81510866D01*
X179085911Y-81619640D01*
X179118657Y-81728471D01*
X179150677Y-81837351D01*
X179181970Y-81946270D01*
X179212532Y-82055219D01*
X179242362Y-82164188D01*
X179271456Y-82273168D01*
X179299813Y-82382150D01*
X179327430Y-82491124D01*
X179354305Y-82600080D01*
X179380435Y-82709011D01*
X179405819Y-82817906D01*
X179430453Y-82926755D01*
X179454336Y-83035551D01*
X179477464Y-83144282D01*
X179499836Y-83252941D01*
X179521449Y-83361517D01*
X179542302Y-83470001D01*
X179562390Y-83578384D01*
X179581713Y-83686657D01*
X179600268Y-83794810D01*
X179618052Y-83902833D01*
X179635063Y-84010719D01*
X179651298Y-84118456D01*
X179666756Y-84226036D01*
X179681434Y-84333450D01*
X179695330Y-84440688D01*
X179708440Y-84547740D01*
X179720764Y-84654598D01*
X179732298Y-84761252D01*
X179743040Y-84867693D01*
X179752988Y-84973912D01*
X179762139Y-85079898D01*
X179770491Y-85185643D01*
X179778041Y-85291138D01*
X179784788Y-85396373D01*
X179790729Y-85501338D01*
X179795862Y-85606025D01*
X179800183Y-85710423D01*
X179803691Y-85814525D01*
X179806384Y-85918320D01*
X179808259Y-86021799D01*
X179810658Y-86208506D01*
X179812113Y-86376344D01*
X179812376Y-86527035D01*
X179811199Y-86662304D01*
X179808337Y-86783873D01*
X179803540Y-86893467D01*
X179796563Y-86992807D01*
X179787157Y-87083619D01*
X179775076Y-87167625D01*
X179760072Y-87246548D01*
X179741898Y-87322113D01*
X179720306Y-87396042D01*
X179695050Y-87470059D01*
X179665882Y-87545887D01*
X179632555Y-87625250D01*
X179594821Y-87709872D01*
X179552433Y-87801475D01*
X179508758Y-87891648D01*
X179460195Y-87986437D01*
X179407684Y-88084282D01*
X179352163Y-88183622D01*
X179294568Y-88282899D01*
X179235838Y-88380553D01*
X179176911Y-88475025D01*
X179118724Y-88564754D01*
X179062216Y-88648182D01*
X179008325Y-88723750D01*
X178957988Y-88789897D01*
X178900846Y-88858225D01*
X178836142Y-88928728D01*
X178764567Y-89000939D01*
X178686812Y-89074388D01*
X178603569Y-89148607D01*
X178515527Y-89223126D01*
X178423378Y-89297477D01*
X178327813Y-89371191D01*
X178229522Y-89443799D01*
X178129197Y-89514833D01*
X178027528Y-89583823D01*
X177925207Y-89650301D01*
X177822923Y-89713797D01*
X177721368Y-89773844D01*
X177621233Y-89829973D01*
X177523209Y-89881713D01*
X177427986Y-89928598D01*
X177336255Y-89970157D01*
X177248708Y-90005923D01*
X177166035Y-90035426D01*
X177088927Y-90058197D01*
X177007424Y-90079282D01*
X176912421Y-90103708D01*
X176807355Y-90130600D01*
X176695661Y-90159084D01*
X176580775Y-90188286D01*
X176466131Y-90217329D01*
X176355167Y-90245341D01*
X176251316Y-90271445D01*
X176157249Y-90298127D01*
X176062599Y-90331085D01*
X175967652Y-90370158D01*
X175872696Y-90415182D01*
X175778017Y-90465994D01*
X175683901Y-90522432D01*
X175590637Y-90584333D01*
X175498509Y-90651534D01*
X175407805Y-90723871D01*
X175318812Y-90801183D01*
X175212652Y-90899468D01*
X175123295Y-90987715D01*
X175049085Y-91068807D01*
X174988361Y-91145629D01*
X174939465Y-91221065D01*
X174900740Y-91298000D01*
X174870525Y-91379318D01*
X174847163Y-91467902D01*
X174828995Y-91566639D01*
X174814362Y-91678411D01*
X174802041Y-91800965D01*
X174794086Y-91914098D01*
X174790907Y-92019079D01*
X174792913Y-92117179D01*
X174800512Y-92209665D01*
X174814115Y-92297809D01*
X174834130Y-92382880D01*
X174860967Y-92466146D01*
X174895035Y-92548879D01*
X174936743Y-92632347D01*
X174986500Y-92717819D01*
X175044716Y-92806567D01*
X175111799Y-92899858D01*
X175188160Y-92998963D01*
X175274207Y-93105151D01*
X175350203Y-93200177D01*
X175420702Y-93294695D01*
X175485706Y-93388744D01*
X175545216Y-93482366D01*
X175599235Y-93575600D01*
X175647765Y-93668487D01*
X175690808Y-93761067D01*
X175728366Y-93853381D01*
X175760440Y-93945468D01*
X175787034Y-94037369D01*
X175808149Y-94129125D01*
X175823787Y-94220776D01*
X175833950Y-94312361D01*
X175838641Y-94403922D01*
X175837861Y-94495498D01*
X175831612Y-94587130D01*
X175819897Y-94678859D01*
X175802717Y-94770724D01*
X175780075Y-94862766D01*
X175751973Y-94955025D01*
X175718412Y-95047542D01*
X175679396Y-95140356D01*
X175634925Y-95233508D01*
X175585002Y-95327039D01*
X175529629Y-95420989D01*
X175468808Y-95515397D01*
X175402542Y-95610305D01*
X175361029Y-95665409D01*
X175317436Y-95719071D01*
X175271772Y-95771287D01*
X175224050Y-95822059D01*
X175174282Y-95871384D01*
X175122479Y-95919261D01*
X175068652Y-95965691D01*
X175012815Y-96010671D01*
X174954977Y-96054202D01*
X174895151Y-96096281D01*
X174833348Y-96136908D01*
X174769580Y-96176082D01*
X174703859Y-96213802D01*
X174636197Y-96250068D01*
X174566604Y-96284877D01*
X174495093Y-96318229D01*
X174421675Y-96350124D01*
X174346363Y-96380560D01*
X174269166Y-96409536D01*
X174190099Y-96437052D01*
X174109171Y-96463105D01*
X174026394Y-96487696D01*
X173941781Y-96510824D01*
X173855343Y-96532487D01*
X173767091Y-96552685D01*
X173677037Y-96571416D01*
X173585193Y-96588679D01*
X173491571Y-96604475D01*
X173396181Y-96618801D01*
X173299037Y-96631656D01*
X173200149Y-96643041D01*
X173099529Y-96652953D01*
X172997188Y-96661392D01*
X172893139Y-96668357D01*
X172787393Y-96673846D01*
X172679962Y-96677860D01*
X172570857Y-96680396D01*
X172460090Y-96681455D01*
X172347673Y-96681035D01*
X172233617Y-96679134D01*
X172117934Y-96675753D01*
X172000635Y-96670890D01*
X171881733Y-96664544D01*
X171761238Y-96656715D01*
X171639163Y-96647401D01*
X171515520Y-96636601D01*
X171390319Y-96624314D01*
X171263572Y-96610540D01*
X171135292Y-96595277D01*
X171005490Y-96578525D01*
X170874177Y-96560282D01*
X170741365Y-96540548D01*
X170607066Y-96519321D01*
X170471291Y-96496602D01*
X170334052Y-96472387D01*
X170195361Y-96446678D01*
X170055229Y-96419472D01*
X169913669Y-96390769D01*
X169770691Y-96360568D01*
X169626307Y-96328867D01*
X169480529Y-96295667D01*
X169333369Y-96260966D01*
X169184838Y-96224762D01*
X169034948Y-96187056D01*
X168883711Y-96147845D01*
X168686199Y-96095882D01*
X168496958Y-96046109D01*
X168315701Y-95998477D01*
X168142140Y-95952941D01*
X167975987Y-95909452D01*
X167816955Y-95867964D01*
X167664757Y-95828430D01*
X167519105Y-95790803D01*
X167379712Y-95755035D01*
X167246290Y-95721079D01*
X167118552Y-95688888D01*
X166996209Y-95658416D01*
X166878976Y-95629615D01*
X166766563Y-95602437D01*
X166658685Y-95576836D01*
X166555053Y-95552765D01*
X166455379Y-95530177D01*
X166359377Y-95509023D01*
X166266758Y-95489259D01*
X166177236Y-95470835D01*
X166090523Y-95453705D01*
X166006331Y-95437822D01*
X165924373Y-95423139D01*
X165844362Y-95409609D01*
X165766009Y-95397184D01*
X165689028Y-95385818D01*
X165613131Y-95375463D01*
X165538030Y-95366073D01*
X165463439Y-95357599D01*
X165389068Y-95349996D01*
X165314632Y-95343215D01*
X165239843Y-95337210D01*
X165164412Y-95331934D01*
X165088053Y-95327339D01*
X165010479Y-95323379D01*
X164931400Y-95320006D01*
X164850531Y-95317173D01*
X164767584Y-95314834D01*
X164682271Y-95312940D01*
X164594305Y-95311445D01*
X164503397Y-95310302D01*
X164409262Y-95309463D01*
X164311611Y-95308882D01*
X164210156Y-95308511D01*
X164104611Y-95308303D01*
X163994688Y-95308212D01*
X163880099Y-95308190D01*
X163760557Y-95308189D01*
X163657164Y-95308411D01*
X163551829Y-95309081D01*
X163444711Y-95310189D01*
X163335968Y-95311729D01*
X163225761Y-95313691D01*
X163114248Y-95316066D01*
X163001588Y-95318848D01*
X162887942Y-95322027D01*
X162773468Y-95325595D01*
X162658325Y-95329544D01*
X162542673Y-95333866D01*
X162426671Y-95338551D01*
X162310479Y-95343593D01*
X162194255Y-95348981D01*
X162078160Y-95354709D01*
X161962351Y-95360768D01*
X161846989Y-95367149D01*
X161732233Y-95373844D01*
X161618243Y-95380845D01*
X161505176Y-95388143D01*
X161393193Y-95395730D01*
X161282453Y-95403599D01*
X161173116Y-95411739D01*
X161065340Y-95420144D01*
X160959285Y-95428805D01*
X160855110Y-95437713D01*
X160752974Y-95446860D01*
X160653037Y-95456238D01*
X160555458Y-95465838D01*
X160460396Y-95475653D01*
X160368011Y-95485673D01*
X160276802Y-95495897D01*
X160183168Y-95506550D01*
X160087188Y-95517620D01*
X159988938Y-95529096D01*
X159888495Y-95540967D01*
X159785936Y-95553222D01*
X159681338Y-95565849D01*
X159574778Y-95578838D01*
X159466332Y-95592178D01*
X159356079Y-95605857D01*
X159244094Y-95619865D01*
X159130454Y-95634190D01*
X159015237Y-95648820D01*
X158898520Y-95663746D01*
X158780379Y-95678956D01*
X158660891Y-95694439D01*
X158540133Y-95710183D01*
X158418183Y-95726178D01*
X158295117Y-95742413D01*
X158171011Y-95758876D01*
X158045944Y-95775556D01*
X157919992Y-95792442D01*
X157793231Y-95809523D01*
X157665740Y-95826789D01*
X157537593Y-95844227D01*
X157408870Y-95861827D01*
X157279646Y-95879578D01*
X157149999Y-95897468D01*
X157020005Y-95915487D01*
X156889741Y-95933623D01*
X156759285Y-95951865D01*
X156628713Y-95970203D01*
X156498102Y-95988624D01*
X156367529Y-96007119D01*
X156237071Y-96025675D01*
X156106805Y-96044282D01*
X155976808Y-96062928D01*
X155847157Y-96081603D01*
X155717928Y-96100296D01*
X155589199Y-96118995D01*
X155461047Y-96137689D01*
X155333548Y-96156367D01*
X155206780Y-96175018D01*
X155080819Y-96193631D01*
X154955743Y-96212195D01*
X154831627Y-96230698D01*
X154708550Y-96249130D01*
X154586588Y-96267480D01*
X154465818Y-96285735D01*
X154346318Y-96303887D01*
X154228163Y-96321922D01*
X154111430Y-96339830D01*
X153996198Y-96357600D01*
X153882542Y-96375221D01*
X153770540Y-96392682D01*
X153660269Y-96409972D01*
X153551805Y-96427079D01*
X153445226Y-96443992D01*
X153340607Y-96460701D01*
X153238028Y-96477194D01*
X153137563Y-96493460D01*
X153039291Y-96509488D01*
X152943287Y-96525267D01*
X152849630Y-96540785D01*
X152758396Y-96556033D01*
X152669661Y-96570998D01*
X152583504Y-96585669D01*
X152500000Y-96600036D01*
X152419227Y-96614087D01*
X152341261Y-96627811D01*
X152266180Y-96641198D01*
X152194060Y-96654235D01*
X152124979Y-96666912D01*
X152059014Y-96679218D01*
X151996240Y-96691141D01*
X151936736Y-96702671D01*
X151811320Y-96726838D01*
X151688826Y-96749613D01*
X151569084Y-96770996D01*
X151451923Y-96790987D01*
X151337172Y-96809585D01*
X151224661Y-96826790D01*
X151114220Y-96842601D01*
X151005677Y-96857019D01*
X150898862Y-96870042D01*
X150793605Y-96881670D01*
X150689735Y-96891902D01*
X150587081Y-96900739D01*
X150485473Y-96908180D01*
X150384741Y-96914225D01*
X150284713Y-96918872D01*
X150185220Y-96922122D01*
X150086090Y-96923974D01*
X149987154Y-96924428D01*
X149888240Y-96923484D01*
X149789178Y-96921140D01*
X149689797Y-96917397D01*
X149589927Y-96912253D01*
X149489397Y-96905710D01*
X149388038Y-96897765D01*
X149285677Y-96888420D01*
X149182145Y-96877673D01*
X149077271Y-96865524D01*
X148970884Y-96851972D01*
X148862815Y-96837017D01*
X148752891Y-96820660D01*
X148640944Y-96802898D01*
X148526801Y-96783732D01*
X148410294Y-96763162D01*
X148291250Y-96741187D01*
X148169500Y-96717806D01*
X148044873Y-96693019D01*
X148044873Y-96693022D01*
X148044873Y-96693017D01*
D14*
X126730000Y-75000000D03*
X129270000Y-75000000D03*
D15*
X157378400Y-94208600D03*
D16*
X139553000Y-82823000D03*
D17*
X139553000Y-85363000D03*
D16*
X160553000Y-82823000D03*
D17*
X160553000Y-85363000D03*
D18*
X133053000Y-83323000D03*
X167053000Y-83323000D03*
D15*
X165074600Y-93522800D03*
X153568400Y-94437200D03*
X161239200Y-93700600D03*
X142392400Y-93853000D03*
X146253200Y-94208600D03*
X168910000Y-93751400D03*
X130886200Y-94208600D03*
X134747000Y-93726000D03*
X172770800Y-94132400D03*
X127076200Y-94513400D03*
X150063200Y-94818200D03*
X138582400Y-93624400D03*
D19*
X134553640Y-79862360D03*
X132054280Y-74823000D03*
X137053000Y-74823000D03*
X165053640Y-79862360D03*
X162554280Y-74823000D03*
X167553000Y-74823000D03*
D20*
X145308000Y-81573000D03*
X154198000Y-81573000D03*
X164323000Y-69823000D03*
X161783000Y-69823000D03*
D21*
X141103000Y-76843000D03*
X141103000Y-78113000D03*
D22*
X141103000Y-75573000D03*
D21*
X157903000Y-77003000D03*
X157903000Y-75733000D03*
D22*
X157903000Y-78273000D03*
D20*
X153048000Y-84773000D03*
X144158000Y-84773000D03*
X135783000Y-69823000D03*
X138323000Y-69823000D03*
D23*
X150403000Y-69723000D03*
D24*
X148403000Y-69723000D03*
D25*
X152003000Y-78823000D03*
X149503000Y-78823000D03*
X147003000Y-78823000D03*
X147003000Y-73323000D03*
X149503000Y-73323000D03*
X152003000Y-73323000D03*
D14*
X170708000Y-75823000D03*
X173248000Y-75823000D03*
M02*
