G04 #@! TF.FileFunction,Copper,L2,Bot,Signal*
%FSLAX46Y46*%
G04 Gerber Fmt 4.6, Leading zero omitted, Abs format (unit mm)*
G04 Created by KiCad (PCBNEW no-vcs-found-undefined) date Sun Oct 16 00:00:33 2016*
%MOMM*%
%LPD*%
G01*
G04 APERTURE LIST*
%ADD10C,0.100000*%
%ADD11O,1.998980X2.999740*%
%ADD12O,2.999740X1.998980*%
%ADD13C,1.397000*%
%ADD14O,2.032000X2.032000*%
%ADD15C,2.032000*%
%ADD16C,1.000000*%
%ADD17C,3.000000*%
%ADD18R,2.000000X1.900000*%
%ADD19C,1.900000*%
%ADD20C,4.000000*%
%ADD21C,2.499360*%
%ADD22C,0.700000*%
%ADD23C,0.250000*%
G04 APERTURE END LIST*
D10*
D11*
X150093000Y-73283000D03*
D12*
X147553000Y-75823000D03*
X152633000Y-75823000D03*
D13*
X148998000Y-71823000D03*
X140108000Y-71823000D03*
D14*
X150053000Y-69363000D03*
D15*
X150053000Y-66823000D03*
D14*
X139816800Y-81869000D03*
D15*
X137276800Y-81869000D03*
D13*
X135783000Y-69823000D03*
X138323000Y-69823000D03*
X164323000Y-69823000D03*
X161783000Y-69823000D03*
D16*
X126730000Y-75000000D03*
X129270000Y-75000000D03*
X170730000Y-75000000D03*
X173270000Y-75000000D03*
D13*
X153998000Y-84823000D03*
X145108000Y-84823000D03*
X159998000Y-71823000D03*
X151108000Y-71823000D03*
X145108000Y-81823000D03*
X153998000Y-81823000D03*
D17*
X157378400Y-94208600D03*
D18*
X134500000Y-87500000D03*
D19*
X134500000Y-90040000D03*
D18*
X160750000Y-83210000D03*
D19*
X160750000Y-85750000D03*
D11*
X157093000Y-75783000D03*
D12*
X154553000Y-78323000D03*
X159633000Y-78323000D03*
D20*
X133053000Y-83323000D03*
X167053000Y-83323000D03*
D17*
X165074600Y-93522800D03*
X153568400Y-94437200D03*
X161239200Y-93700600D03*
X142392400Y-93853000D03*
X146253200Y-94208600D03*
X168910000Y-93751400D03*
X130886200Y-94208600D03*
X134747000Y-93726000D03*
X172770800Y-94132400D03*
X127076200Y-94513400D03*
X150063200Y-94818200D03*
X138582400Y-93624400D03*
D11*
X142593000Y-75783000D03*
D12*
X140053000Y-78323000D03*
X145133000Y-78323000D03*
D21*
X134553640Y-79862360D03*
X132054280Y-74823000D03*
X137053000Y-74823000D03*
X165053640Y-79862360D03*
X162554280Y-74823000D03*
X167553000Y-74823000D03*
D22*
X152653000Y-73523000D03*
X154253000Y-69772994D03*
X147253000Y-69573000D03*
X140985200Y-73918800D03*
X129153000Y-85893000D03*
X128503000Y-80703000D03*
X142098000Y-87061000D03*
X138826000Y-86675000D03*
X137302000Y-86289000D03*
X154953000Y-74423000D03*
D23*
X135449999Y-89090001D02*
X134500000Y-90040000D01*
X137575998Y-86964002D02*
X135449999Y-89090001D01*
X137626002Y-86964002D02*
X137575998Y-86964002D01*
X137977002Y-86613002D02*
X137626002Y-86964002D01*
X126730000Y-75000000D02*
X126730000Y-82270000D01*
X126730000Y-82270000D02*
X134500000Y-90040000D01*
X142490989Y-82049011D02*
X137977002Y-86562998D01*
X142656479Y-82049011D02*
X142490989Y-82049011D01*
X145133000Y-79572490D02*
X142656479Y-82049011D01*
X145133000Y-78323000D02*
X145133000Y-79572490D01*
X137977002Y-86562998D02*
X137977002Y-86613002D01*
X159633380Y-78323000D02*
X161502980Y-80192600D01*
X161502980Y-80192600D02*
X162473600Y-81163220D01*
X170730000Y-75000000D02*
X167942321Y-77787679D01*
X167942321Y-77787679D02*
X163907901Y-77787679D01*
X163907901Y-77787679D02*
X161502980Y-80192600D01*
X162473600Y-81163220D02*
X162473600Y-84026400D01*
X162473600Y-84026400D02*
X160750000Y-85750000D01*
X159133000Y-78323000D02*
X159633380Y-78323000D01*
X149593000Y-73283000D02*
X149593000Y-72838000D01*
X149593000Y-72838000D02*
X150608000Y-71823000D01*
X149593000Y-73283000D02*
X149593000Y-72988600D01*
X149593000Y-72988600D02*
X148427400Y-71823000D01*
X152653000Y-73028026D02*
X152653000Y-73523000D01*
X152653000Y-71223000D02*
X152653000Y-73028026D01*
X152703000Y-71173000D02*
X152653000Y-71223000D01*
X153903001Y-70122993D02*
X154253000Y-69772994D01*
X152852994Y-71173000D02*
X153903001Y-70122993D01*
X152703000Y-71173000D02*
X152852994Y-71173000D01*
X153053000Y-70823000D02*
X152703000Y-71173000D01*
X143779200Y-69575400D02*
X147250600Y-69575400D01*
X147250600Y-69575400D02*
X147253000Y-69573000D01*
X140985200Y-73918800D02*
X140985200Y-72369400D01*
X140985200Y-72369400D02*
X143779200Y-69575400D01*
X140053000Y-78323000D02*
X140053000Y-74851000D01*
X140053000Y-74851000D02*
X140985200Y-73918800D01*
X128997974Y-80703000D02*
X128503000Y-80703000D01*
X133673000Y-80703000D02*
X128997974Y-80703000D01*
X134553000Y-79823000D02*
X133673000Y-80703000D01*
X142592974Y-87061000D02*
X142098000Y-87061000D01*
X144384782Y-87061000D02*
X142592974Y-87061000D01*
X146132991Y-85312791D02*
X144384782Y-87061000D01*
X146132991Y-84362773D02*
X146132991Y-85312791D01*
X144084499Y-81331719D02*
X144084499Y-82314281D01*
X144616719Y-80799499D02*
X144084499Y-81331719D01*
X144084499Y-82314281D02*
X146132991Y-84362773D01*
X145599281Y-80799499D02*
X144616719Y-80799499D01*
X133053000Y-83323000D02*
X135113000Y-83323000D01*
X135113000Y-83323000D02*
X137073600Y-85283600D01*
X138826000Y-86675000D02*
X141712000Y-86675000D01*
X141712000Y-86675000D02*
X142098000Y-87061000D01*
X137073600Y-86060600D02*
X137302000Y-86289000D01*
X137073600Y-84840800D02*
X137073600Y-85283600D01*
X137073600Y-85283600D02*
X137073600Y-86060600D01*
X137073600Y-84840800D02*
X136960200Y-84840800D01*
X136960200Y-84840800D02*
X136738000Y-85063000D01*
X147053000Y-79345780D02*
X145599281Y-80799499D01*
X147053000Y-75823000D02*
X147053000Y-79345780D01*
X155302999Y-74073001D02*
X154953000Y-74423000D01*
X159553000Y-69823000D02*
X155302999Y-74073001D01*
X161783000Y-69823000D02*
X159553000Y-69823000D01*
X152133000Y-72593996D02*
X151977998Y-72748998D01*
X151297600Y-69118200D02*
X152133000Y-69953600D01*
X151977998Y-72748998D02*
X151977998Y-75667998D01*
X149570400Y-69118200D02*
X151297600Y-69118200D01*
X152133000Y-69953600D02*
X152133000Y-72593996D01*
X151977998Y-75667998D02*
X152133000Y-75823000D01*
X146495000Y-83210000D02*
X145108000Y-81823000D01*
X160750000Y-83210000D02*
X146495000Y-83210000D01*
M02*
