G04 #@! TF.FileFunction,Soldermask,Bot*
%FSLAX46Y46*%
G04 Gerber Fmt 4.6, Leading zero omitted, Abs format (unit mm)*
G04 Created by KiCad (PCBNEW 201610040836+7277~55~ubuntu14.04.1-) date Sun Oct 16 19:01:02 2016*
%MOMM*%
%LPD*%
G01*
G04 APERTURE LIST*
%ADD10C,0.100000*%
%ADD11C,1.000000*%
%ADD12C,2.032000*%
%ADD13O,2.032000X2.032000*%
%ADD14O,1.998980X2.999740*%
%ADD15O,2.999740X1.998980*%
%ADD16C,1.397000*%
%ADD17C,3.000000*%
%ADD18R,2.000000X1.900000*%
%ADD19C,1.900000*%
%ADD20C,4.000000*%
%ADD21C,2.499360*%
G04 APERTURE END LIST*
D10*
G36*
X177041140Y-89140602D02*
X177162408Y-89140602D01*
X177162408Y-88511528D01*
X177162408Y-88448138D01*
X177161025Y-88381303D01*
X177158965Y-88317224D01*
X177156904Y-88262792D01*
X177177574Y-88284151D01*
X177196178Y-88301377D01*
X177215471Y-88319291D01*
X177240276Y-88340651D01*
X177342250Y-88424022D01*
X177408396Y-88339273D01*
X177144502Y-88133256D01*
X177041149Y-88133256D01*
X177041149Y-89140602D01*
X177041140Y-89140602D01*
X177041140Y-89140602D01*
G37*
G36*
X177960981Y-89140602D02*
X178247613Y-88384059D01*
X178114632Y-88384059D01*
X177954091Y-88829854D01*
X177915161Y-88947160D01*
X177893457Y-89030359D01*
X177887945Y-89030359D01*
X177883122Y-89010377D01*
X177875541Y-88985573D01*
X177860727Y-88939753D01*
X177824554Y-88829854D01*
X177663324Y-88384059D01*
X177531032Y-88384059D01*
X177818353Y-89140602D01*
X177960980Y-89140602D01*
X177960981Y-89140602D01*
X177960981Y-89140602D01*
G37*
G36*
X171543803Y-88752240D02*
X171325421Y-88677209D01*
X171382762Y-88714420D01*
X171419972Y-88766270D01*
X171432782Y-88824831D01*
X171421801Y-88906572D01*
X171388250Y-88979163D01*
X171332129Y-89032234D01*
X171254048Y-89052364D01*
X171254051Y-89052364D01*
X171187561Y-89040164D01*
X171135100Y-89002343D01*
X171101549Y-88938292D01*
X171089349Y-88846181D01*
X171099718Y-88769930D01*
X171129608Y-88711979D01*
X171180239Y-88675379D01*
X171250390Y-88662569D01*
X171325421Y-88677209D01*
X171543803Y-88752240D01*
X171542279Y-88688342D01*
X171537705Y-88624748D01*
X171528707Y-88562680D01*
X171515135Y-88503357D01*
X171495767Y-88446931D01*
X171470605Y-88394775D01*
X171438731Y-88348110D01*
X171399234Y-88308154D01*
X171351653Y-88275061D01*
X171295532Y-88250203D01*
X171229956Y-88234191D01*
X171154011Y-88228853D01*
X171128390Y-88229463D01*
X171100329Y-88231904D01*
X171072877Y-88235564D01*
X171049086Y-88240444D01*
X171049086Y-88334995D01*
X171097277Y-88324015D01*
X171150347Y-88320355D01*
X171247339Y-88333775D01*
X171319320Y-88370376D01*
X171370560Y-88427107D01*
X171403501Y-88500308D01*
X171422412Y-88585099D01*
X171430343Y-88679040D01*
X171423022Y-88679040D01*
X171393742Y-88638169D01*
X171352871Y-88605229D01*
X171301020Y-88583269D01*
X171235750Y-88575338D01*
X171130828Y-88593639D01*
X171050917Y-88646099D01*
X171000287Y-88731500D01*
X170986562Y-88785181D01*
X170981987Y-88846182D01*
X170986715Y-88912215D01*
X171000899Y-88971233D01*
X171055190Y-89065785D01*
X171140591Y-89124955D01*
X171193662Y-89140511D01*
X171252832Y-89145696D01*
X171312003Y-89139748D01*
X171367514Y-89121904D01*
X171417077Y-89091861D01*
X171459625Y-89049314D01*
X171494548Y-88994260D01*
X171521236Y-88926702D01*
X171538163Y-88846181D01*
X171543805Y-88752240D01*
X171543803Y-88752240D01*
X171543803Y-88752240D01*
G37*
G36*
X171867108Y-89133495D02*
X171974469Y-89133495D01*
X171974469Y-88576558D01*
X171974469Y-88520437D01*
X171973255Y-88461266D01*
X171971421Y-88404535D01*
X171969586Y-88356345D01*
X171987886Y-88375255D01*
X172004356Y-88390505D01*
X172021436Y-88406366D01*
X172043396Y-88425276D01*
X172133677Y-88499087D01*
X172192238Y-88424056D01*
X171958605Y-88241664D01*
X171867104Y-88241664D01*
X171867104Y-89133495D01*
X171867108Y-89133495D01*
X171867108Y-89133495D01*
G37*
G36*
X172359384Y-88686359D02*
X172511886Y-88960863D01*
X172493586Y-88909927D01*
X172481386Y-88847401D01*
X172474067Y-88772675D01*
X172471627Y-88686359D01*
X172474067Y-88600653D01*
X172481386Y-88526537D01*
X172493586Y-88464011D01*
X172511886Y-88413076D01*
X172565567Y-88345365D01*
X172645478Y-88322795D01*
X172725389Y-88345365D01*
X172777850Y-88413076D01*
X172795236Y-88464011D01*
X172807130Y-88526537D01*
X172813993Y-88600653D01*
X172816280Y-88686359D01*
X172813993Y-88772065D01*
X172807130Y-88846181D01*
X172795235Y-88908859D01*
X172777850Y-88960253D01*
X172725389Y-89028574D01*
X172645478Y-89051144D01*
X172565567Y-89028574D01*
X172511886Y-88960863D01*
X172359384Y-88686359D01*
X172363349Y-88788688D01*
X172375245Y-88879732D01*
X172395376Y-88958575D01*
X172425265Y-89024303D01*
X172464458Y-89076459D01*
X172513717Y-89114585D01*
X172573802Y-89137918D01*
X172645478Y-89145695D01*
X172712884Y-89137918D01*
X172771140Y-89114585D01*
X172819788Y-89076459D01*
X172859591Y-89024303D01*
X172890091Y-88958575D01*
X172912052Y-88879732D01*
X172924862Y-88788688D01*
X172929132Y-88686359D01*
X172925319Y-88584030D01*
X172913881Y-88492987D01*
X172893597Y-88414296D01*
X172864470Y-88349025D01*
X172825429Y-88296869D01*
X172776629Y-88258744D01*
X172716696Y-88235411D01*
X172645477Y-88227633D01*
X172577614Y-88235411D01*
X172519205Y-88258744D01*
X172470100Y-88296412D01*
X172430144Y-88348415D01*
X172399186Y-88413686D01*
X172377074Y-88492377D01*
X172363806Y-88583573D01*
X172359384Y-88686359D01*
X172359384Y-88686359D01*
G37*
G36*
X173062113Y-89133495D02*
X173618440Y-89133495D01*
X173618440Y-89038334D01*
X173404937Y-88805921D01*
X173361627Y-88758645D01*
X173323196Y-88715639D01*
X173262196Y-88635728D01*
X173223155Y-88557647D01*
X173209736Y-88471636D01*
X173220104Y-88408195D01*
X173249995Y-88361835D01*
X173295135Y-88332555D01*
X173353696Y-88322794D01*
X173458618Y-88346585D01*
X173547069Y-88406365D01*
X173609290Y-88333774D01*
X173556829Y-88292904D01*
X173496438Y-88259354D01*
X173428117Y-88237393D01*
X173352476Y-88228853D01*
X173246945Y-88245323D01*
X173166424Y-88292904D01*
X173115793Y-88367935D01*
X173097494Y-88467366D01*
X173113964Y-88566188D01*
X173158495Y-88658909D01*
X173189453Y-88704202D01*
X173226206Y-88749800D01*
X173266924Y-88796466D01*
X173310997Y-88844961D01*
X173482409Y-89027354D01*
X173482409Y-89032234D01*
X173062114Y-89032234D01*
X173062114Y-89133495D01*
X173062113Y-89133495D01*
X173062113Y-89133495D01*
G37*
G36*
X174607921Y-88350379D02*
X174585470Y-88282167D01*
X174518087Y-88259416D01*
X174450713Y-88282152D01*
X174428272Y-88350379D01*
X174450728Y-88417738D01*
X174518087Y-88440194D01*
X174585455Y-88417738D01*
X174607921Y-88350379D01*
X174607921Y-88350379D01*
G37*
G36*
X174344201Y-88516184D02*
X174344201Y-88779865D01*
X174417874Y-88779865D01*
X174417874Y-89093057D01*
X174618259Y-89093057D01*
X174618259Y-88779885D01*
X174691932Y-88779885D01*
X174691932Y-88516184D01*
X174679862Y-88486824D01*
X174650501Y-88474733D01*
X174385632Y-88474733D01*
X174356856Y-88486824D01*
X174344201Y-88516184D01*
X174344201Y-88516184D01*
G37*
G36*
X174519355Y-88031419D02*
X174517069Y-88147721D01*
X174411662Y-88157384D01*
X174314262Y-88186355D01*
X174224925Y-88234611D01*
X174143707Y-88302127D01*
X174076243Y-88383388D01*
X174028084Y-88472837D01*
X173999206Y-88570485D01*
X173989586Y-88676342D01*
X173999061Y-88783182D01*
X174027506Y-88880325D01*
X174074953Y-88967822D01*
X174141432Y-89045723D01*
X174224955Y-89114768D01*
X174315437Y-89164086D01*
X174412826Y-89193677D01*
X174517069Y-89203541D01*
X174621567Y-89193789D01*
X174718578Y-89164502D01*
X174808103Y-89115636D01*
X174890146Y-89047145D01*
X174958620Y-88965267D01*
X175007489Y-88876162D01*
X175036785Y-88779847D01*
X175046543Y-88676342D01*
X175036676Y-88573078D01*
X175007080Y-88476290D01*
X174957761Y-88385975D01*
X174888725Y-88302127D01*
X174808519Y-88234611D01*
X174719877Y-88186355D01*
X174622745Y-88157384D01*
X174517069Y-88147721D01*
X174519355Y-88031419D01*
X174622981Y-88038877D01*
X174720132Y-88061255D01*
X174810824Y-88098558D01*
X174895076Y-88150790D01*
X174972906Y-88217958D01*
X175041294Y-88298205D01*
X175094482Y-88384178D01*
X175132469Y-88475866D01*
X175155260Y-88573258D01*
X175162857Y-88676342D01*
X175155260Y-88779271D01*
X175132469Y-88876188D01*
X175094482Y-88967109D01*
X175041294Y-89052051D01*
X174972906Y-89131030D01*
X174893246Y-89199427D01*
X174808076Y-89252615D01*
X174717381Y-89290600D01*
X174621146Y-89313387D01*
X174519355Y-89320981D01*
X174415768Y-89313299D01*
X174317788Y-89290246D01*
X174225421Y-89251811D01*
X174138675Y-89197985D01*
X174057558Y-89128755D01*
X173991223Y-89052824D01*
X173939629Y-88969628D01*
X173902776Y-88879156D01*
X173880665Y-88781398D01*
X173873294Y-88676342D01*
X173880803Y-88571412D01*
X173903327Y-88473101D01*
X173940865Y-88381416D01*
X173993414Y-88296365D01*
X174060970Y-88217958D01*
X174139014Y-88150798D01*
X174223889Y-88098566D01*
X174315579Y-88061261D01*
X174414073Y-88038879D01*
X174519355Y-88031419D01*
X174519355Y-88031419D01*
G37*
G36*
X175617560Y-88569191D02*
X175702781Y-88614109D01*
X175736758Y-88573806D01*
X175775328Y-88562299D01*
X175840113Y-88590793D01*
X175861718Y-88676297D01*
X175839835Y-88759180D01*
X175775329Y-88790295D01*
X175695912Y-88735019D01*
X175615305Y-88775322D01*
X175686662Y-88849601D01*
X175784539Y-88876665D01*
X175863271Y-88863430D01*
X175924411Y-88823686D01*
X175963747Y-88760362D01*
X175976846Y-88676317D01*
X175963463Y-88593698D01*
X175923283Y-88530076D01*
X175862709Y-88489486D01*
X175788005Y-88475949D01*
X175685501Y-88499234D01*
X175617562Y-88569191D01*
X175617560Y-88569191D01*
X175617560Y-88569191D01*
G37*
G36*
X175989499Y-88569191D02*
X176075889Y-88614109D01*
X176109845Y-88573806D01*
X176147287Y-88562299D01*
X176212055Y-88590793D01*
X176233657Y-88676297D01*
X176211793Y-88759180D01*
X176147288Y-88790295D01*
X176067810Y-88735019D01*
X175988372Y-88775322D01*
X176058621Y-88849601D01*
X176157646Y-88876665D01*
X176235671Y-88863430D01*
X176296995Y-88823686D01*
X176336713Y-88760362D01*
X176349953Y-88676317D01*
X176336565Y-88593698D01*
X176296410Y-88530076D01*
X176235817Y-88489486D01*
X176161092Y-88475949D01*
X176058308Y-88499234D01*
X175989501Y-88569191D01*
X175989499Y-88569191D01*
X175989499Y-88569191D01*
G37*
G36*
X175983797Y-88031419D02*
X175981511Y-88147721D01*
X175876045Y-88157451D01*
X175778453Y-88186628D01*
X175688765Y-88235238D01*
X175607012Y-88303265D01*
X175541216Y-88383261D01*
X175493269Y-88473595D01*
X175463862Y-88572090D01*
X175454028Y-88676342D01*
X175463435Y-88782804D01*
X175491674Y-88879901D01*
X175538767Y-88967634D01*
X175604737Y-89046007D01*
X175687866Y-89113068D01*
X175780470Y-89162310D01*
X175879442Y-89192437D01*
X175981511Y-89202404D01*
X176083918Y-89192571D01*
X176181700Y-89162878D01*
X176272487Y-89114213D01*
X176353451Y-89047713D01*
X176420668Y-88967037D01*
X176470323Y-88875961D01*
X176501028Y-88778041D01*
X176511270Y-88676342D01*
X176501028Y-88573660D01*
X176470323Y-88475301D01*
X176420675Y-88383969D01*
X176353451Y-88302127D01*
X176273631Y-88234610D01*
X176185036Y-88186354D01*
X176087663Y-88157383D01*
X175981511Y-88147721D01*
X175983797Y-88031419D01*
X176087742Y-88038927D01*
X176184944Y-88061452D01*
X176275414Y-88098989D01*
X176359166Y-88151538D01*
X176436211Y-88219095D01*
X176493452Y-88284023D01*
X176540843Y-88354442D01*
X176578389Y-88430373D01*
X176605570Y-88510179D01*
X176621869Y-88592183D01*
X176627299Y-88676342D01*
X176621931Y-88760875D01*
X176605821Y-88842554D01*
X176578958Y-88921459D01*
X176541796Y-88996378D01*
X176494787Y-89066048D01*
X176437917Y-89130462D01*
X176373427Y-89187390D01*
X176303569Y-89234597D01*
X176228345Y-89272072D01*
X176149243Y-89299270D01*
X176067749Y-89315560D01*
X175983797Y-89320981D01*
X175899456Y-89315489D01*
X175816876Y-89299001D01*
X175736122Y-89271503D01*
X175659100Y-89233639D01*
X175587737Y-89186059D01*
X175522000Y-89128755D01*
X175466288Y-89066623D01*
X175420402Y-88998459D01*
X175384371Y-88924302D01*
X175358479Y-88845359D01*
X175342926Y-88762728D01*
X175337737Y-88676342D01*
X175342984Y-88590402D01*
X175358721Y-88507643D01*
X175384940Y-88428098D01*
X175421288Y-88353057D01*
X175467363Y-88283760D01*
X175523138Y-88220232D01*
X175602365Y-88152255D01*
X175688055Y-88099387D01*
X175780198Y-88061626D01*
X175878783Y-88038970D01*
X175983797Y-88031419D01*
X175983797Y-88031419D01*
G37*
D11*
X173270000Y-75000000D03*
X170730000Y-75000000D03*
D12*
X150053000Y-66823000D03*
D13*
X150053000Y-69363000D03*
D12*
X134553000Y-86823000D03*
D13*
X132013000Y-86823000D03*
D14*
X150093000Y-73283000D03*
D15*
X147553000Y-75823000D03*
X152633000Y-75823000D03*
D16*
X148998000Y-71823000D03*
X140108000Y-71823000D03*
X135783000Y-69823000D03*
X138323000Y-69823000D03*
X164323000Y-69823000D03*
X161783000Y-69823000D03*
D11*
X126730000Y-75000000D03*
X129270000Y-75000000D03*
D16*
X154498000Y-84323000D03*
X145608000Y-84323000D03*
X159998000Y-71823000D03*
X151108000Y-71823000D03*
X145608000Y-80823000D03*
X154498000Y-80823000D03*
D17*
X157378400Y-94208600D03*
D18*
X139553000Y-82823000D03*
D19*
X139553000Y-85363000D03*
D18*
X160553000Y-82823000D03*
D19*
X160553000Y-85363000D03*
D14*
X157093000Y-75783000D03*
D15*
X154553000Y-78323000D03*
X159633000Y-78323000D03*
D20*
X133053000Y-83323000D03*
X167053000Y-83323000D03*
D17*
X165074600Y-93522800D03*
X153568400Y-94437200D03*
X161239200Y-93700600D03*
X142392400Y-93853000D03*
X146253200Y-94208600D03*
X168910000Y-93751400D03*
X130886200Y-94208600D03*
X134747000Y-93726000D03*
X172770800Y-94132400D03*
X127076200Y-94513400D03*
X150063200Y-94818200D03*
X138582400Y-93624400D03*
D14*
X142593000Y-75783000D03*
D15*
X140053000Y-78323000D03*
X145133000Y-78323000D03*
D21*
X134553640Y-79862360D03*
X132054280Y-74823000D03*
X137053000Y-74823000D03*
X165053640Y-79862360D03*
X162554280Y-74823000D03*
X167553000Y-74823000D03*
M02*
