M48
;DRILL file {KiCad 201610040836+7277~55~ubuntu14.04.1-} date Sat Oct  8 18:31:44 2016
;FORMAT={-:-/ absolute / metric / decimal}
FMAT,2
METRIC,TZ
T1C0.400
T2C0.600
T3C0.813
T4C1.000
T5C1.001
T6C1.016
T7C1.199
T8C2.000
T9C3.000
%
G90
G05
M71
T1
X126.507Y-84.333
X127.828Y-82.174
X137.074Y-84.841
X140.985Y-73.919
X142.382Y-86.847
X142.941Y-83.164
X143.627Y-81.234
X143.779Y-69.575
X153.203Y-72.522
X154.142Y-70.033
X154.676Y-73.893
T2
X126.73Y-75.
X129.27Y-75.
X170.73Y-75.
X173.27Y-75.
T3
X135.783Y-69.823
X138.323Y-69.823
X139.537Y-71.823
X145.108Y-81.823
X145.108Y-84.823
X148.427Y-71.823
X150.608Y-71.823
X153.998Y-81.823
X153.998Y-84.823
X159.498Y-71.823
X161.783Y-69.823
X164.323Y-69.823
T4
X140.053Y-78.323
X142.593Y-75.783
X145.133Y-78.323
X147.053Y-75.823
X149.593Y-73.283
X152.133Y-75.823
X154.053Y-78.323
X156.593Y-75.783
X159.133Y-78.323
T5
X134.5Y-87.5
X134.5Y-90.04
X160.75Y-83.21
X160.75Y-85.75
T6
X137.277Y-81.869
X139.817Y-81.869
X149.57Y-66.578
X149.57Y-69.118
T7
X132.054Y-74.784
X134.553Y-79.823
X137.052Y-74.784
X162.054Y-74.823
X164.554Y-79.862
X167.053Y-74.823
T8
X127.076Y-94.513
X130.886Y-94.209
X134.747Y-93.726
X138.582Y-93.624
X142.392Y-93.853
X146.253Y-94.209
X150.063Y-94.818
X153.568Y-94.437
X157.378Y-94.209
X161.239Y-93.701
X165.075Y-93.523
X168.91Y-93.751
X172.771Y-94.132
T9
X133.Y-83.
X167.Y-83.
T0
M30
