G04 #@! TF.FileFunction,Legend,Top*
%FSLAX46Y46*%
G04 Gerber Fmt 4.6, Leading zero omitted, Abs format (unit mm)*
G04 Created by KiCad (PCBNEW 4.1.0-alpha+201608271546+7097~46~ubuntu14.04.1-product) date Sun Aug 28 15:48:59 2016*
%MOMM*%
%LPD*%
G01*
G04 APERTURE LIST*
%ADD10C,0.100000*%
%ADD11C,0.150000*%
%ADD12C,0.381000*%
%ADD13C,0.200660*%
G04 APERTURE END LIST*
D10*
D11*
X158926896Y-82249512D02*
G75*
G03X161951800Y-82234400I1524904J-2484888D01*
G01*
X158951800Y-82234400D02*
X161951800Y-82234400D01*
X162969736Y-84734400D02*
G75*
G03X162969736Y-84734400I-2517936J0D01*
G01*
X137311496Y-85932512D02*
G75*
G03X140336400Y-85917400I1524904J-2484888D01*
G01*
X137336400Y-85917400D02*
X140336400Y-85917400D01*
X141354336Y-88417400D02*
G75*
G03X141354336Y-88417400I-2517936J0D01*
G01*
X191063333Y-118295000D02*
X191063333Y-119845000D01*
X187963333Y-119845000D02*
X187963333Y-118295000D01*
X187963333Y-118295000D02*
X191063333Y-118295000D01*
X188243333Y-121115000D02*
X190783333Y-121115000D01*
X151423333Y-131755000D02*
X151423333Y-133305000D01*
X148323333Y-133305000D02*
X148323333Y-131755000D01*
X148323333Y-131755000D02*
X151423333Y-131755000D01*
X148603333Y-134575000D02*
X151143333Y-134575000D01*
X212173333Y-87915000D02*
X212173333Y-89465000D01*
X209073333Y-89465000D02*
X209073333Y-87915000D01*
X209073333Y-87915000D02*
X212173333Y-87915000D01*
X209353333Y-90735000D02*
X211893333Y-90735000D01*
X161483333Y-131755000D02*
X161483333Y-133305000D01*
X158383333Y-133305000D02*
X158383333Y-131755000D01*
X158383333Y-131755000D02*
X161483333Y-131755000D01*
X158663333Y-134575000D02*
X161203333Y-134575000D01*
X141363333Y-131755000D02*
X141363333Y-133305000D01*
X138263333Y-133305000D02*
X138263333Y-131755000D01*
X138263333Y-131755000D02*
X141363333Y-131755000D01*
X138543333Y-134575000D02*
X141083333Y-134575000D01*
X201493333Y-91005000D02*
X201493333Y-92555000D01*
X198393333Y-92555000D02*
X198393333Y-91005000D01*
X198393333Y-91005000D02*
X201493333Y-91005000D01*
X198673333Y-93825000D02*
X201213333Y-93825000D01*
X201493333Y-99055000D02*
X201493333Y-100605000D01*
X198393333Y-100605000D02*
X198393333Y-99055000D01*
X198393333Y-99055000D02*
X201493333Y-99055000D01*
X198673333Y-101875000D02*
X201213333Y-101875000D01*
X171543333Y-131755000D02*
X171543333Y-133305000D01*
X168443333Y-133305000D02*
X168443333Y-131755000D01*
X168443333Y-131755000D02*
X171543333Y-131755000D01*
X168723333Y-134575000D02*
X171263333Y-134575000D01*
X137540000Y-70000000D02*
X140080000Y-70000000D01*
X138959903Y-70000000D02*
G75*
G03X138959903Y-70000000I-1419903J0D01*
G01*
X154051000Y-74142600D02*
X154051000Y-76047600D01*
X154051000Y-76047600D02*
X161671000Y-76047600D01*
X161671000Y-76047600D02*
X161671000Y-73507600D01*
X161671000Y-73507600D02*
X154051000Y-73507600D01*
X154051000Y-73507600D02*
X154051000Y-74142600D01*
X153416000Y-74777600D02*
X154051000Y-74777600D01*
X161671000Y-74777600D02*
X162306000Y-74777600D01*
X154051000Y-74142600D02*
X154686000Y-73507600D01*
X160000000Y-70000000D02*
X157460000Y-70000000D01*
X161419903Y-70000000D02*
G75*
G03X161419903Y-70000000I-1419903J0D01*
G01*
X134010400Y-74295000D02*
X134010400Y-76200000D01*
X134010400Y-76200000D02*
X141630400Y-76200000D01*
X141630400Y-76200000D02*
X141630400Y-73660000D01*
X141630400Y-73660000D02*
X134010400Y-73660000D01*
X134010400Y-73660000D02*
X134010400Y-74295000D01*
X133375400Y-74930000D02*
X134010400Y-74930000D01*
X141630400Y-74930000D02*
X142265400Y-74930000D01*
X134010400Y-74295000D02*
X134645400Y-73660000D01*
X151290001Y-80450000D02*
G75*
G03X150490000Y-81250000I1249999J-2050000D01*
G01*
X153789999Y-80450000D02*
G75*
G02X154590000Y-81250000I-1249999J-2050000D01*
G01*
X150501274Y-83774203D02*
G75*
G03X150840000Y-84200000I2038726J1274203D01*
G01*
X154578726Y-83774203D02*
G75*
G02X154240000Y-84200000I-2038726J1274203D01*
G01*
X150840000Y-84200000D02*
X154240000Y-84200000D01*
X143709999Y-82050000D02*
G75*
G03X144510000Y-81250000I-1249999J2050000D01*
G01*
X141210001Y-82050000D02*
G75*
G02X140410000Y-81250000I1249999J2050000D01*
G01*
X144498726Y-78725797D02*
G75*
G03X144160000Y-78300000I-2038726J-1274203D01*
G01*
X140421274Y-78725797D02*
G75*
G02X140760000Y-78300000I2038726J-1274203D01*
G01*
X144160000Y-78300000D02*
X140760000Y-78300000D01*
D12*
X152991927Y-51552637D02*
X152991927Y-48052637D01*
X152991927Y-48052637D02*
X152491927Y-48052637D01*
X140491927Y-48052637D02*
X139991927Y-48052637D01*
X139991927Y-48052637D02*
X139991927Y-51552637D01*
X152491927Y-36052637D02*
X152491927Y-48052637D01*
X140491927Y-36052637D02*
X140491927Y-48052637D01*
X139991927Y-51552637D02*
X152991927Y-51552637D01*
X140491927Y-36052637D02*
X152491927Y-36052637D01*
X143890967Y-40551497D02*
X149092887Y-40551497D01*
X149491667Y-42052637D02*
G75*
G03X149491667Y-42052637I-2999740J0D01*
G01*
X149892987Y-42052637D02*
G75*
G03X149892987Y-42052637I-3401060J0D01*
G01*
D11*
X172286000Y-89224000D02*
X167587000Y-89224000D01*
X167587000Y-89224000D02*
X167587000Y-77540000D01*
X167587000Y-77540000D02*
X172286000Y-77540000D01*
X172286000Y-77540000D02*
X172286000Y-89224000D01*
X132286000Y-89224000D02*
X127587000Y-89224000D01*
X127587000Y-89224000D02*
X127587000Y-77540000D01*
X127587000Y-77540000D02*
X132286000Y-77540000D01*
X132286000Y-77540000D02*
X132286000Y-89224000D01*
X148852000Y-69365800D02*
X148852000Y-73615800D01*
X148852000Y-73615800D02*
X147852000Y-73615800D01*
X147852000Y-73615800D02*
X147852000Y-69365800D01*
X150252000Y-75365800D02*
X150602000Y-75365800D01*
X150602000Y-75365800D02*
X150602000Y-76965800D01*
X150602000Y-76965800D02*
X151302000Y-76965800D01*
X151302000Y-76965800D02*
X151302000Y-69365800D01*
X151302000Y-69365800D02*
X145402000Y-69365800D01*
X145402000Y-69365800D02*
X145402000Y-76965800D01*
X145402000Y-76965800D02*
X146102000Y-76965800D01*
X146102000Y-76965800D02*
X146102000Y-75365800D01*
X146102000Y-75365800D02*
X146452000Y-75365800D01*
X149352000Y-76815800D02*
X149752000Y-77215800D01*
X149752000Y-77215800D02*
X148952000Y-77215800D01*
X148952000Y-77215800D02*
X149352000Y-76815800D01*
X151302000Y-75365800D02*
X150602000Y-75365800D01*
X145402000Y-75365800D02*
X146102000Y-75365800D01*
X150652000Y-73115800D02*
X150652000Y-71515800D01*
X150652000Y-71515800D02*
X149652000Y-71515800D01*
X149652000Y-71515800D02*
X149652000Y-73115800D01*
X149652000Y-73115800D02*
X150652000Y-73115800D01*
X146052000Y-73115800D02*
X146052000Y-71515800D01*
X146052000Y-71515800D02*
X147052000Y-71515800D01*
X147052000Y-71515800D02*
X147052000Y-73115800D01*
X147052000Y-73115800D02*
X146052000Y-73115800D01*
X149652000Y-71515800D02*
X149652000Y-69365800D01*
X150152000Y-71515800D02*
X150152000Y-69365800D01*
X148452000Y-75365800D02*
X148252000Y-75365800D01*
X156840180Y-85726495D02*
X155840180Y-85726495D01*
X155840180Y-85488400D01*
X155887800Y-85345542D01*
X155983038Y-85250304D01*
X156078276Y-85202685D01*
X156268752Y-85155066D01*
X156411609Y-85155066D01*
X156602085Y-85202685D01*
X156697323Y-85250304D01*
X156792561Y-85345542D01*
X156840180Y-85488400D01*
X156840180Y-85726495D01*
X156840180Y-84202685D02*
X156840180Y-84774114D01*
X156840180Y-84488400D02*
X155840180Y-84488400D01*
X155983038Y-84583638D01*
X156078276Y-84678876D01*
X156125895Y-84774114D01*
X158999180Y-81821304D02*
X157999180Y-81821304D01*
X158999180Y-81249876D02*
X158427752Y-81678447D01*
X157999180Y-81249876D02*
X158570609Y-81821304D01*
X135224780Y-89409495D02*
X134224780Y-89409495D01*
X134224780Y-89171400D01*
X134272400Y-89028542D01*
X134367638Y-88933304D01*
X134462876Y-88885685D01*
X134653352Y-88838066D01*
X134796209Y-88838066D01*
X134986685Y-88885685D01*
X135081923Y-88933304D01*
X135177161Y-89028542D01*
X135224780Y-89171400D01*
X135224780Y-89409495D01*
X134320019Y-88457114D02*
X134272400Y-88409495D01*
X134224780Y-88314257D01*
X134224780Y-88076161D01*
X134272400Y-87980923D01*
X134320019Y-87933304D01*
X134415257Y-87885685D01*
X134510495Y-87885685D01*
X134653352Y-87933304D01*
X135224780Y-88504733D01*
X135224780Y-87885685D01*
X137383780Y-85504304D02*
X136383780Y-85504304D01*
X137383780Y-84932876D02*
X136812352Y-85361447D01*
X136383780Y-84932876D02*
X136955209Y-85504304D01*
X188775237Y-115197380D02*
X188775237Y-114197380D01*
X189156190Y-114197380D01*
X189251428Y-114245000D01*
X189299047Y-114292619D01*
X189346666Y-114387857D01*
X189346666Y-114530714D01*
X189299047Y-114625952D01*
X189251428Y-114673571D01*
X189156190Y-114721190D01*
X188775237Y-114721190D01*
X190299047Y-115197380D02*
X189727618Y-115197380D01*
X190013333Y-115197380D02*
X190013333Y-114197380D01*
X189918094Y-114340238D01*
X189822856Y-114435476D01*
X189727618Y-114483095D01*
X149135237Y-128657380D02*
X149135237Y-127657380D01*
X149516190Y-127657380D01*
X149611428Y-127705000D01*
X149659047Y-127752619D01*
X149706666Y-127847857D01*
X149706666Y-127990714D01*
X149659047Y-128085952D01*
X149611428Y-128133571D01*
X149516190Y-128181190D01*
X149135237Y-128181190D01*
X150087618Y-127752619D02*
X150135237Y-127705000D01*
X150230475Y-127657380D01*
X150468571Y-127657380D01*
X150563809Y-127705000D01*
X150611428Y-127752619D01*
X150659047Y-127847857D01*
X150659047Y-127943095D01*
X150611428Y-128085952D01*
X150039999Y-128657380D01*
X150659047Y-128657380D01*
X209885237Y-84817380D02*
X209885237Y-83817380D01*
X210266190Y-83817380D01*
X210361428Y-83865000D01*
X210409047Y-83912619D01*
X210456666Y-84007857D01*
X210456666Y-84150714D01*
X210409047Y-84245952D01*
X210361428Y-84293571D01*
X210266190Y-84341190D01*
X209885237Y-84341190D01*
X210789999Y-83817380D02*
X211409047Y-83817380D01*
X211075713Y-84198333D01*
X211218571Y-84198333D01*
X211313809Y-84245952D01*
X211361428Y-84293571D01*
X211409047Y-84388809D01*
X211409047Y-84626904D01*
X211361428Y-84722142D01*
X211313809Y-84769761D01*
X211218571Y-84817380D01*
X210932856Y-84817380D01*
X210837618Y-84769761D01*
X210789999Y-84722142D01*
X159195237Y-128657380D02*
X159195237Y-127657380D01*
X159576190Y-127657380D01*
X159671428Y-127705000D01*
X159719047Y-127752619D01*
X159766666Y-127847857D01*
X159766666Y-127990714D01*
X159719047Y-128085952D01*
X159671428Y-128133571D01*
X159576190Y-128181190D01*
X159195237Y-128181190D01*
X160623809Y-127990714D02*
X160623809Y-128657380D01*
X160385713Y-127609761D02*
X160147618Y-128324047D01*
X160766666Y-128324047D01*
X139075237Y-128657380D02*
X139075237Y-127657380D01*
X139456190Y-127657380D01*
X139551428Y-127705000D01*
X139599047Y-127752619D01*
X139646666Y-127847857D01*
X139646666Y-127990714D01*
X139599047Y-128085952D01*
X139551428Y-128133571D01*
X139456190Y-128181190D01*
X139075237Y-128181190D01*
X140551428Y-127657380D02*
X140075237Y-127657380D01*
X140027618Y-128133571D01*
X140075237Y-128085952D01*
X140170475Y-128038333D01*
X140408571Y-128038333D01*
X140503809Y-128085952D01*
X140551428Y-128133571D01*
X140599047Y-128228809D01*
X140599047Y-128466904D01*
X140551428Y-128562142D01*
X140503809Y-128609761D01*
X140408571Y-128657380D01*
X140170475Y-128657380D01*
X140075237Y-128609761D01*
X140027618Y-128562142D01*
X199205237Y-87907380D02*
X199205237Y-86907380D01*
X199586190Y-86907380D01*
X199681428Y-86955000D01*
X199729047Y-87002619D01*
X199776666Y-87097857D01*
X199776666Y-87240714D01*
X199729047Y-87335952D01*
X199681428Y-87383571D01*
X199586190Y-87431190D01*
X199205237Y-87431190D01*
X200633809Y-86907380D02*
X200443333Y-86907380D01*
X200348094Y-86955000D01*
X200300475Y-87002619D01*
X200205237Y-87145476D01*
X200157618Y-87335952D01*
X200157618Y-87716904D01*
X200205237Y-87812142D01*
X200252856Y-87859761D01*
X200348094Y-87907380D01*
X200538571Y-87907380D01*
X200633809Y-87859761D01*
X200681428Y-87812142D01*
X200729047Y-87716904D01*
X200729047Y-87478809D01*
X200681428Y-87383571D01*
X200633809Y-87335952D01*
X200538571Y-87288333D01*
X200348094Y-87288333D01*
X200252856Y-87335952D01*
X200205237Y-87383571D01*
X200157618Y-87478809D01*
X199205237Y-95957380D02*
X199205237Y-94957380D01*
X199586190Y-94957380D01*
X199681428Y-95005000D01*
X199729047Y-95052619D01*
X199776666Y-95147857D01*
X199776666Y-95290714D01*
X199729047Y-95385952D01*
X199681428Y-95433571D01*
X199586190Y-95481190D01*
X199205237Y-95481190D01*
X200109999Y-94957380D02*
X200776666Y-94957380D01*
X200348094Y-95957380D01*
X169255237Y-128657380D02*
X169255237Y-127657380D01*
X169636190Y-127657380D01*
X169731428Y-127705000D01*
X169779047Y-127752619D01*
X169826666Y-127847857D01*
X169826666Y-127990714D01*
X169779047Y-128085952D01*
X169731428Y-128133571D01*
X169636190Y-128181190D01*
X169255237Y-128181190D01*
X170398094Y-128085952D02*
X170302856Y-128038333D01*
X170255237Y-127990714D01*
X170207618Y-127895476D01*
X170207618Y-127847857D01*
X170255237Y-127752619D01*
X170302856Y-127705000D01*
X170398094Y-127657380D01*
X170588571Y-127657380D01*
X170683809Y-127705000D01*
X170731428Y-127752619D01*
X170779047Y-127847857D01*
X170779047Y-127895476D01*
X170731428Y-127990714D01*
X170683809Y-128038333D01*
X170588571Y-128085952D01*
X170398094Y-128085952D01*
X170302856Y-128133571D01*
X170255237Y-128181190D01*
X170207618Y-128276428D01*
X170207618Y-128466904D01*
X170255237Y-128562142D01*
X170302856Y-128609761D01*
X170398094Y-128657380D01*
X170588571Y-128657380D01*
X170683809Y-128609761D01*
X170731428Y-128562142D01*
X170779047Y-128466904D01*
X170779047Y-128276428D01*
X170731428Y-128181190D01*
X170683809Y-128133571D01*
X170588571Y-128085952D01*
X137627333Y-72992380D02*
X137294000Y-72516190D01*
X137055904Y-72992380D02*
X137055904Y-71992380D01*
X137436857Y-71992380D01*
X137532095Y-72040000D01*
X137579714Y-72087619D01*
X137627333Y-72182857D01*
X137627333Y-72325714D01*
X137579714Y-72420952D01*
X137532095Y-72468571D01*
X137436857Y-72516190D01*
X137055904Y-72516190D01*
X138579714Y-72992380D02*
X138008285Y-72992380D01*
X138294000Y-72992380D02*
X138294000Y-71992380D01*
X138198761Y-72135238D01*
X138103523Y-72230476D01*
X138008285Y-72278095D01*
X157694333Y-75229980D02*
X157361000Y-74753790D01*
X157122904Y-75229980D02*
X157122904Y-74229980D01*
X157503857Y-74229980D01*
X157599095Y-74277600D01*
X157646714Y-74325219D01*
X157694333Y-74420457D01*
X157694333Y-74563314D01*
X157646714Y-74658552D01*
X157599095Y-74706171D01*
X157503857Y-74753790D01*
X157122904Y-74753790D01*
X158075285Y-74325219D02*
X158122904Y-74277600D01*
X158218142Y-74229980D01*
X158456238Y-74229980D01*
X158551476Y-74277600D01*
X158599095Y-74325219D01*
X158646714Y-74420457D01*
X158646714Y-74515695D01*
X158599095Y-74658552D01*
X158027666Y-75229980D01*
X158646714Y-75229980D01*
X159579333Y-67912380D02*
X159246000Y-67436190D01*
X159007904Y-67912380D02*
X159007904Y-66912380D01*
X159388857Y-66912380D01*
X159484095Y-66960000D01*
X159531714Y-67007619D01*
X159579333Y-67102857D01*
X159579333Y-67245714D01*
X159531714Y-67340952D01*
X159484095Y-67388571D01*
X159388857Y-67436190D01*
X159007904Y-67436190D01*
X159912666Y-66912380D02*
X160531714Y-66912380D01*
X160198380Y-67293333D01*
X160341238Y-67293333D01*
X160436476Y-67340952D01*
X160484095Y-67388571D01*
X160531714Y-67483809D01*
X160531714Y-67721904D01*
X160484095Y-67817142D01*
X160436476Y-67864761D01*
X160341238Y-67912380D01*
X160055523Y-67912380D01*
X159960285Y-67864761D01*
X159912666Y-67817142D01*
X137653733Y-75382380D02*
X137320400Y-74906190D01*
X137082304Y-75382380D02*
X137082304Y-74382380D01*
X137463257Y-74382380D01*
X137558495Y-74430000D01*
X137606114Y-74477619D01*
X137653733Y-74572857D01*
X137653733Y-74715714D01*
X137606114Y-74810952D01*
X137558495Y-74858571D01*
X137463257Y-74906190D01*
X137082304Y-74906190D01*
X138510876Y-74715714D02*
X138510876Y-75382380D01*
X138272780Y-74334761D02*
X138034685Y-75049047D01*
X138653733Y-75049047D01*
X134261904Y-83452380D02*
X134261904Y-82452380D01*
X134642857Y-82452380D01*
X134738095Y-82500000D01*
X134785714Y-82547619D01*
X134833333Y-82642857D01*
X134833333Y-82785714D01*
X134785714Y-82880952D01*
X134738095Y-82928571D01*
X134642857Y-82976190D01*
X134261904Y-82976190D01*
X135309523Y-83452380D02*
X135500000Y-83452380D01*
X135595238Y-83404761D01*
X135642857Y-83357142D01*
X135738095Y-83214285D01*
X135785714Y-83023809D01*
X135785714Y-82642857D01*
X135738095Y-82547619D01*
X135690476Y-82500000D01*
X135595238Y-82452380D01*
X135404761Y-82452380D01*
X135309523Y-82500000D01*
X135261904Y-82547619D01*
X135214285Y-82642857D01*
X135214285Y-82880952D01*
X135261904Y-82976190D01*
X135309523Y-83023809D01*
X135404761Y-83071428D01*
X135595238Y-83071428D01*
X135690476Y-83023809D01*
X135738095Y-82976190D01*
X135785714Y-82880952D01*
X163785714Y-83452380D02*
X163785714Y-82452380D01*
X164166666Y-82452380D01*
X164261904Y-82500000D01*
X164309523Y-82547619D01*
X164357142Y-82642857D01*
X164357142Y-82785714D01*
X164309523Y-82880952D01*
X164261904Y-82928571D01*
X164166666Y-82976190D01*
X163785714Y-82976190D01*
X165309523Y-83452380D02*
X164738095Y-83452380D01*
X165023809Y-83452380D02*
X165023809Y-82452380D01*
X164928571Y-82595238D01*
X164833333Y-82690476D01*
X164738095Y-82738095D01*
X165928571Y-82452380D02*
X166023809Y-82452380D01*
X166119047Y-82500000D01*
X166166666Y-82547619D01*
X166214285Y-82642857D01*
X166261904Y-82833333D01*
X166261904Y-83071428D01*
X166214285Y-83261904D01*
X166166666Y-83357142D01*
X166119047Y-83404761D01*
X166023809Y-83452380D01*
X165928571Y-83452380D01*
X165833333Y-83404761D01*
X165785714Y-83357142D01*
X165738095Y-83261904D01*
X165690476Y-83071428D01*
X165690476Y-82833333D01*
X165738095Y-82642857D01*
X165785714Y-82547619D01*
X165833333Y-82500000D01*
X165928571Y-82452380D01*
X149904761Y-77047619D02*
X149809523Y-77000000D01*
X149714285Y-76904761D01*
X149571428Y-76761904D01*
X149476190Y-76714285D01*
X149380952Y-76714285D01*
X149428571Y-76952380D02*
X149333333Y-76904761D01*
X149238095Y-76809523D01*
X149190476Y-76619047D01*
X149190476Y-76285714D01*
X149238095Y-76095238D01*
X149333333Y-76000000D01*
X149428571Y-75952380D01*
X149619047Y-75952380D01*
X149714285Y-76000000D01*
X149809523Y-76095238D01*
X149857142Y-76285714D01*
X149857142Y-76619047D01*
X149809523Y-76809523D01*
X149714285Y-76904761D01*
X149619047Y-76952380D01*
X149428571Y-76952380D01*
X150809523Y-76952380D02*
X150238095Y-76952380D01*
X150523809Y-76952380D02*
X150523809Y-75952380D01*
X150428571Y-76095238D01*
X150333333Y-76190476D01*
X150238095Y-76238095D01*
X144904761Y-86547619D02*
X144809523Y-86500000D01*
X144714285Y-86404761D01*
X144571428Y-86261904D01*
X144476190Y-86214285D01*
X144380952Y-86214285D01*
X144428571Y-86452380D02*
X144333333Y-86404761D01*
X144238095Y-86309523D01*
X144190476Y-86119047D01*
X144190476Y-85785714D01*
X144238095Y-85595238D01*
X144333333Y-85500000D01*
X144428571Y-85452380D01*
X144619047Y-85452380D01*
X144714285Y-85500000D01*
X144809523Y-85595238D01*
X144857142Y-85785714D01*
X144857142Y-86119047D01*
X144809523Y-86309523D01*
X144714285Y-86404761D01*
X144619047Y-86452380D01*
X144428571Y-86452380D01*
X145238095Y-85547619D02*
X145285714Y-85500000D01*
X145380952Y-85452380D01*
X145619047Y-85452380D01*
X145714285Y-85500000D01*
X145761904Y-85547619D01*
X145809523Y-85642857D01*
X145809523Y-85738095D01*
X145761904Y-85880952D01*
X145190476Y-86452380D01*
X145809523Y-86452380D01*
D13*
X145598391Y-56031724D02*
X145098011Y-55316895D01*
X144740597Y-56031724D02*
X144740597Y-54530584D01*
X145312459Y-54530584D01*
X145455425Y-54602067D01*
X145526908Y-54673549D01*
X145598391Y-54816515D01*
X145598391Y-55030964D01*
X145526908Y-55173929D01*
X145455425Y-55245412D01*
X145312459Y-55316895D01*
X144740597Y-55316895D01*
X146027288Y-54530584D02*
X146527668Y-56031724D01*
X147028048Y-54530584D01*
X148314739Y-56031724D02*
X147456945Y-56031724D01*
X147885842Y-56031724D02*
X147885842Y-54530584D01*
X147742877Y-54745032D01*
X147599911Y-54887998D01*
X147456945Y-54959481D01*
X141380902Y-34931384D02*
X141380902Y-33430244D01*
X141738317Y-33430244D01*
X141952765Y-33501727D01*
X142095731Y-33644692D01*
X142167214Y-33787658D01*
X142238697Y-34073589D01*
X142238697Y-34288038D01*
X142167214Y-34573969D01*
X142095731Y-34716935D01*
X141952765Y-34859901D01*
X141738317Y-34931384D01*
X141380902Y-34931384D01*
X142882042Y-33430244D02*
X142882042Y-34645452D01*
X142953525Y-34788418D01*
X143025008Y-34859901D01*
X143167974Y-34931384D01*
X143453905Y-34931384D01*
X143596871Y-34859901D01*
X143668354Y-34788418D01*
X143739837Y-34645452D01*
X143739837Y-33430244D01*
X144383182Y-34502487D02*
X145098011Y-34502487D01*
X144240217Y-34931384D02*
X144740597Y-33430244D01*
X145240977Y-34931384D01*
X146456185Y-34931384D02*
X145741357Y-34931384D01*
X145741357Y-33430244D01*
X146599151Y-35074349D02*
X147742877Y-35074349D01*
X148100291Y-34931384D02*
X148100291Y-33430244D01*
X148672154Y-33430244D01*
X148815119Y-33501727D01*
X148886602Y-33573209D01*
X148958085Y-33716175D01*
X148958085Y-33930624D01*
X148886602Y-34073589D01*
X148815119Y-34145072D01*
X148672154Y-34216555D01*
X148100291Y-34216555D01*
X149887362Y-33430244D02*
X150173294Y-33430244D01*
X150316259Y-33501727D01*
X150459225Y-33644692D01*
X150530708Y-33930624D01*
X150530708Y-34431004D01*
X150459225Y-34716935D01*
X150316259Y-34859901D01*
X150173294Y-34931384D01*
X149887362Y-34931384D01*
X149744397Y-34859901D01*
X149601431Y-34716935D01*
X149529948Y-34431004D01*
X149529948Y-33930624D01*
X149601431Y-33644692D01*
X149744397Y-33501727D01*
X149887362Y-33430244D01*
X150959605Y-33430244D02*
X151817399Y-33430244D01*
X151388502Y-34931384D02*
X151388502Y-33430244D01*
D11*
X174516380Y-82159523D02*
X173516380Y-82159523D01*
X174230666Y-81826190D01*
X173516380Y-81492857D01*
X174516380Y-81492857D01*
X174516380Y-80492857D02*
X174516380Y-81064285D01*
X174516380Y-80778571D02*
X173516380Y-80778571D01*
X173659238Y-80873809D01*
X173754476Y-80969047D01*
X173802095Y-81064285D01*
X166134380Y-87643809D02*
X165134380Y-87643809D01*
X165134380Y-87262857D01*
X165182000Y-87167619D01*
X165229619Y-87120000D01*
X165324857Y-87072380D01*
X165467714Y-87072380D01*
X165562952Y-87120000D01*
X165610571Y-87167619D01*
X165658190Y-87262857D01*
X165658190Y-87643809D01*
X165848666Y-86691428D02*
X165848666Y-86215238D01*
X166134380Y-86786666D02*
X165134380Y-86453333D01*
X166134380Y-86120000D01*
X165182000Y-85262857D02*
X165134380Y-85358095D01*
X165134380Y-85500952D01*
X165182000Y-85643809D01*
X165277238Y-85739047D01*
X165372476Y-85786666D01*
X165562952Y-85834285D01*
X165705809Y-85834285D01*
X165896285Y-85786666D01*
X165991523Y-85739047D01*
X166086761Y-85643809D01*
X166134380Y-85500952D01*
X166134380Y-85405714D01*
X166086761Y-85262857D01*
X166039142Y-85215238D01*
X165705809Y-85215238D01*
X165705809Y-85405714D01*
X165610571Y-84786666D02*
X165610571Y-84453333D01*
X166134380Y-84310476D02*
X166134380Y-84786666D01*
X165134380Y-84786666D01*
X165134380Y-84310476D01*
X166134380Y-83310476D02*
X165658190Y-83643809D01*
X166134380Y-83881904D02*
X165134380Y-83881904D01*
X165134380Y-83500952D01*
X165182000Y-83405714D01*
X165229619Y-83358095D01*
X165324857Y-83310476D01*
X165467714Y-83310476D01*
X165562952Y-83358095D01*
X165610571Y-83405714D01*
X165658190Y-83500952D01*
X165658190Y-83881904D01*
X166229619Y-83120000D02*
X166229619Y-82358095D01*
X166134380Y-82120000D02*
X165134380Y-82120000D01*
X165848666Y-81786666D01*
X165134380Y-81453333D01*
X166134380Y-81453333D01*
X165134380Y-80786666D02*
X165134380Y-80596190D01*
X165182000Y-80500952D01*
X165277238Y-80405714D01*
X165467714Y-80358095D01*
X165801047Y-80358095D01*
X165991523Y-80405714D01*
X166086761Y-80500952D01*
X166134380Y-80596190D01*
X166134380Y-80786666D01*
X166086761Y-80881904D01*
X165991523Y-80977142D01*
X165801047Y-81024761D01*
X165467714Y-81024761D01*
X165277238Y-80977142D01*
X165182000Y-80881904D01*
X165134380Y-80786666D01*
X165134380Y-80072380D02*
X165134380Y-79500952D01*
X166134380Y-79786666D02*
X165134380Y-79786666D01*
X165134380Y-78977142D02*
X165134380Y-78786666D01*
X165182000Y-78691428D01*
X165277238Y-78596190D01*
X165467714Y-78548571D01*
X165801047Y-78548571D01*
X165991523Y-78596190D01*
X166086761Y-78691428D01*
X166134380Y-78786666D01*
X166134380Y-78977142D01*
X166086761Y-79072380D01*
X165991523Y-79167619D01*
X165801047Y-79215238D01*
X165467714Y-79215238D01*
X165277238Y-79167619D01*
X165182000Y-79072380D01*
X165134380Y-78977142D01*
X166134380Y-77548571D02*
X165658190Y-77881904D01*
X166134380Y-78120000D02*
X165134380Y-78120000D01*
X165134380Y-77739047D01*
X165182000Y-77643809D01*
X165229619Y-77596190D01*
X165324857Y-77548571D01*
X165467714Y-77548571D01*
X165562952Y-77596190D01*
X165610571Y-77643809D01*
X165658190Y-77739047D01*
X165658190Y-78120000D01*
X134516380Y-82159523D02*
X133516380Y-82159523D01*
X134230666Y-81826190D01*
X133516380Y-81492857D01*
X134516380Y-81492857D01*
X133611619Y-81064285D02*
X133564000Y-81016666D01*
X133516380Y-80921428D01*
X133516380Y-80683333D01*
X133564000Y-80588095D01*
X133611619Y-80540476D01*
X133706857Y-80492857D01*
X133802095Y-80492857D01*
X133944952Y-80540476D01*
X134516380Y-81111904D01*
X134516380Y-80492857D01*
X126134380Y-87643809D02*
X125134380Y-87643809D01*
X125134380Y-87262857D01*
X125182000Y-87167619D01*
X125229619Y-87120000D01*
X125324857Y-87072380D01*
X125467714Y-87072380D01*
X125562952Y-87120000D01*
X125610571Y-87167619D01*
X125658190Y-87262857D01*
X125658190Y-87643809D01*
X125848666Y-86691428D02*
X125848666Y-86215238D01*
X126134380Y-86786666D02*
X125134380Y-86453333D01*
X126134380Y-86120000D01*
X125182000Y-85262857D02*
X125134380Y-85358095D01*
X125134380Y-85500952D01*
X125182000Y-85643809D01*
X125277238Y-85739047D01*
X125372476Y-85786666D01*
X125562952Y-85834285D01*
X125705809Y-85834285D01*
X125896285Y-85786666D01*
X125991523Y-85739047D01*
X126086761Y-85643809D01*
X126134380Y-85500952D01*
X126134380Y-85405714D01*
X126086761Y-85262857D01*
X126039142Y-85215238D01*
X125705809Y-85215238D01*
X125705809Y-85405714D01*
X125610571Y-84786666D02*
X125610571Y-84453333D01*
X126134380Y-84310476D02*
X126134380Y-84786666D01*
X125134380Y-84786666D01*
X125134380Y-84310476D01*
X126134380Y-83310476D02*
X125658190Y-83643809D01*
X126134380Y-83881904D02*
X125134380Y-83881904D01*
X125134380Y-83500952D01*
X125182000Y-83405714D01*
X125229619Y-83358095D01*
X125324857Y-83310476D01*
X125467714Y-83310476D01*
X125562952Y-83358095D01*
X125610571Y-83405714D01*
X125658190Y-83500952D01*
X125658190Y-83881904D01*
X126229619Y-83120000D02*
X126229619Y-82358095D01*
X126134380Y-82120000D02*
X125134380Y-82120000D01*
X125848666Y-81786666D01*
X125134380Y-81453333D01*
X126134380Y-81453333D01*
X125134380Y-80786666D02*
X125134380Y-80596190D01*
X125182000Y-80500952D01*
X125277238Y-80405714D01*
X125467714Y-80358095D01*
X125801047Y-80358095D01*
X125991523Y-80405714D01*
X126086761Y-80500952D01*
X126134380Y-80596190D01*
X126134380Y-80786666D01*
X126086761Y-80881904D01*
X125991523Y-80977142D01*
X125801047Y-81024761D01*
X125467714Y-81024761D01*
X125277238Y-80977142D01*
X125182000Y-80881904D01*
X125134380Y-80786666D01*
X125134380Y-80072380D02*
X125134380Y-79500952D01*
X126134380Y-79786666D02*
X125134380Y-79786666D01*
X125134380Y-78977142D02*
X125134380Y-78786666D01*
X125182000Y-78691428D01*
X125277238Y-78596190D01*
X125467714Y-78548571D01*
X125801047Y-78548571D01*
X125991523Y-78596190D01*
X126086761Y-78691428D01*
X126134380Y-78786666D01*
X126134380Y-78977142D01*
X126086761Y-79072380D01*
X125991523Y-79167619D01*
X125801047Y-79215238D01*
X125467714Y-79215238D01*
X125277238Y-79167619D01*
X125182000Y-79072380D01*
X125134380Y-78977142D01*
X126134380Y-77548571D02*
X125658190Y-77881904D01*
X126134380Y-78120000D02*
X125134380Y-78120000D01*
X125134380Y-77739047D01*
X125182000Y-77643809D01*
X125229619Y-77596190D01*
X125324857Y-77548571D01*
X125467714Y-77548571D01*
X125562952Y-77596190D01*
X125610571Y-77643809D01*
X125658190Y-77739047D01*
X125658190Y-78120000D01*
X148566285Y-78044371D02*
X148709142Y-78091990D01*
X148756761Y-78139609D01*
X148804380Y-78234847D01*
X148804380Y-78377704D01*
X148756761Y-78472942D01*
X148709142Y-78520561D01*
X148613904Y-78568180D01*
X148232952Y-78568180D01*
X148232952Y-77568180D01*
X148566285Y-77568180D01*
X148661523Y-77615800D01*
X148709142Y-77663419D01*
X148756761Y-77758657D01*
X148756761Y-77853895D01*
X148709142Y-77949133D01*
X148661523Y-77996752D01*
X148566285Y-78044371D01*
X148232952Y-78044371D01*
X149090095Y-77568180D02*
X149661523Y-77568180D01*
X149375809Y-78568180D02*
X149375809Y-77568180D01*
X150518666Y-78568180D02*
X149947238Y-78568180D01*
X150232952Y-78568180D02*
X150232952Y-77568180D01*
X150137714Y-77711038D01*
X150042476Y-77806276D01*
X149947238Y-77853895D01*
M02*
