M48
;DRILL file {KiCad 4.0.3+e1-6302~38~ubuntu14.04.1-stable} date Sun Aug 28 00:02:11 2016
;FORMAT={-:-/ absolute / metric / decimal}
FMAT,2
METRIC,TZ
T1C0.600
T2C0.813
T3C1.001
T4C1.016
%
G90
G05
M71
T1
X128.73Y-75.
X131.27Y-75.
X168.73Y-75.
X171.27Y-75.
T2
X125.795Y-132.015
X128.335Y-132.015
X130.925Y-132.015
X133.465Y-132.015
X140.555Y-80.
X145.555Y-75.
X149.445Y-80.
X154.445Y-75.
T3
X135.Y-75.
X137.54Y-75.
X160.Y-75.
X162.54Y-75.
T4
X139.813Y-133.305
X149.873Y-133.305
X159.933Y-133.305
X169.993Y-133.305
X189.513Y-119.845
X199.943Y-92.555
X199.943Y-100.605
X210.623Y-89.465
T0
M30
