M48
;DRILL file {KiCad no-vcs-found-undefined} date Sat Oct 15 21:32:35 2016
;FORMAT={-:-/ absolute / metric / decimal}
FMAT,2
METRIC,TZ
T1C0.400
T2C0.600
T3C0.813
T4C1.000
T5C1.001
T6C1.016
T7C1.199
T8C2.000
T9C3.000
%
G90
G05
M71
T1
X126.507Y-84.333
X127.828Y-82.174
X137.074Y-84.841
X137.302Y-86.289
X138.826Y-86.675
X140.985Y-73.919
X142.098Y-87.061
X142.643Y-69.593
X153.203Y-72.522
X154.142Y-70.033
X154.676Y-73.893
T2
X126.73Y-75.
X129.27Y-75.
X170.73Y-75.
X173.27Y-75.
T3
X135.783Y-69.823
X138.323Y-69.823
X140.108Y-71.823
X145.108Y-81.823
X145.108Y-84.823
X148.998Y-71.823
X151.108Y-71.823
X153.998Y-81.823
X153.998Y-84.823
X159.998Y-71.823
X161.783Y-69.823
X164.323Y-69.823
T4
X140.053Y-78.323
X142.593Y-75.783
X145.133Y-78.323
X147.553Y-75.823
X150.093Y-73.283
X152.633Y-75.823
X154.553Y-78.323
X157.093Y-75.783
X159.633Y-78.323
T5
X134.5Y-87.5
X134.5Y-90.04
X160.75Y-83.21
X160.75Y-85.75
T6
X137.277Y-81.869
X139.817Y-81.869
X150.053Y-66.823
X150.053Y-69.363
T7
X132.054Y-74.823
X134.554Y-79.862
X137.053Y-74.823
X162.554Y-74.823
X165.054Y-79.862
X167.553Y-74.823
T8
X127.076Y-94.513
X130.886Y-94.209
X134.747Y-93.726
X138.582Y-93.624
X142.392Y-93.853
X146.253Y-94.209
X150.063Y-94.818
X153.568Y-94.437
X157.378Y-94.209
X161.239Y-93.701
X165.075Y-93.523
X168.91Y-93.751
X172.771Y-94.132
T9
X133.053Y-83.323
X167.053Y-83.323
T0
M30
