G04 #@! TF.FileFunction,Copper,L2,Bot,Signal*
%FSLAX46Y46*%
G04 Gerber Fmt 4.6, Leading zero omitted, Abs format (unit mm)*
G04 Created by KiCad (PCBNEW 4.1.0-alpha+201608271546+7097~46~ubuntu14.04.1-product) date Sun Aug 28 15:48:59 2016*
%MOMM*%
%LPD*%
G01*
G04 APERTURE LIST*
%ADD10C,0.100000*%
%ADD11R,2.000000X1.900000*%
%ADD12C,1.900000*%
%ADD13R,2.235200X2.235200*%
%ADD14C,1.397000*%
%ADD15C,4.000000*%
%ADD16O,1.998980X2.999740*%
%ADD17O,2.999740X1.998980*%
%ADD18O,1.500000X1.500000*%
%ADD19C,3.500000*%
%ADD20C,1.000000*%
%ADD21R,1.200000X1.700000*%
%ADD22O,1.200000X1.700000*%
G04 APERTURE END LIST*
D10*
D11*
X160451800Y-83464400D03*
D12*
X160451800Y-86004400D03*
D11*
X138836400Y-87147400D03*
D12*
X138836400Y-89687400D03*
D13*
X189513333Y-119845000D03*
X149873333Y-133305000D03*
X210623333Y-89465000D03*
X159933333Y-133305000D03*
X139813333Y-133305000D03*
X199943333Y-92555000D03*
X199943333Y-100605000D03*
X169993333Y-133305000D03*
D14*
X137540000Y-70000000D03*
X140080000Y-70000000D03*
X153416000Y-74777600D03*
X162306000Y-74777600D03*
X160000000Y-70000000D03*
X157460000Y-70000000D03*
X133375400Y-74930000D03*
X142265400Y-74930000D03*
D15*
X135000000Y-82500000D03*
X165000000Y-82500000D03*
D16*
X152540000Y-79960000D03*
D17*
X150000000Y-82500000D03*
X155080000Y-82500000D03*
D16*
X142460000Y-82540000D03*
D17*
X145000000Y-80000000D03*
X139920000Y-80000000D03*
D18*
X145491927Y-53052637D03*
X147491927Y-53052637D03*
X149491927Y-53052637D03*
D19*
X140591927Y-42052637D03*
X152391927Y-42052637D03*
D18*
X141491927Y-53052637D03*
X151491927Y-53052637D03*
X143491927Y-53052637D03*
D20*
X171270000Y-75000000D03*
X168730000Y-75000000D03*
X131270000Y-75000000D03*
X128730000Y-75000000D03*
D21*
X149352000Y-75615800D03*
D22*
X147352000Y-75615800D03*
M02*
