M48
;DRILL file {KiCad 201610040836+7277~55~ubuntu14.04.1-} date Sun Oct 16 19:06:14 2016
;FORMAT={-:-/ absolute / metric / decimal}
FMAT,2
METRIC,TZ
T1C0.600
T2C0.813
T3C1.000
T4C1.001
T5C1.016
T6C1.199
T7C2.000
T8C3.000
%
G90
G05
M71
T1
X126.73Y-75.
X129.27Y-75.
X170.73Y-75.
X173.27Y-75.
T2
X135.783Y-69.823
X138.323Y-69.823
X140.108Y-71.823
X145.608Y-80.823
X145.608Y-84.323
X148.998Y-71.823
X151.108Y-71.823
X154.498Y-80.823
X154.498Y-84.323
X159.998Y-71.823
X161.783Y-69.823
X164.323Y-69.823
T3
X140.053Y-78.323
X142.593Y-75.783
X145.133Y-78.323
X147.553Y-75.823
X150.093Y-73.283
X152.633Y-75.823
X154.553Y-78.323
X157.093Y-75.783
X159.633Y-78.323
T4
X139.553Y-82.823
X139.553Y-85.363
X160.553Y-82.823
X160.553Y-85.363
T5
X132.013Y-86.823
X134.553Y-86.823
X150.053Y-66.823
X150.053Y-69.363
T6
X132.054Y-74.823
X134.554Y-79.862
X137.053Y-74.823
X162.554Y-74.823
X165.054Y-79.862
X167.553Y-74.823
T7
X127.076Y-94.513
X130.886Y-94.209
X134.747Y-93.726
X138.582Y-93.624
X142.392Y-93.853
X146.253Y-94.209
X150.063Y-94.818
X153.568Y-94.437
X157.378Y-94.209
X161.239Y-93.701
X165.075Y-93.523
X168.91Y-93.751
X172.771Y-94.132
T8
X133.053Y-83.323
X167.053Y-83.323
T0
M30
