G04 #@! TF.FileFunction,Copper,L1,Top,Signal*
%FSLAX46Y46*%
G04 Gerber Fmt 4.6, Leading zero omitted, Abs format (unit mm)*
G04 Created by KiCad (PCBNEW 4.1.0-alpha+201608271546+7097~46~ubuntu14.04.1-product) date Sun Aug 28 19:44:21 2016*
%MOMM*%
%LPD*%
G01*
G04 APERTURE LIST*
%ADD10C,0.100000*%
%ADD11R,2.000000X1.900000*%
%ADD12C,1.900000*%
%ADD13C,1.397000*%
%ADD14O,1.998980X2.999740*%
%ADD15O,2.999740X1.998980*%
%ADD16R,1.200000X1.700000*%
%ADD17O,1.200000X1.700000*%
%ADD18C,1.000000*%
%ADD19C,4.000000*%
%ADD20C,3.000000*%
G04 APERTURE END LIST*
D10*
G36*
X167506894Y-82890938D02*
X167311723Y-82964361D01*
X167116550Y-83037784D01*
X166969300Y-83130395D01*
X166822051Y-83223006D01*
X166717722Y-83332953D01*
X166613393Y-83442900D01*
X166546983Y-83568334D01*
X166480573Y-83693767D01*
X166447082Y-83832836D01*
X166413588Y-83971905D01*
X166408000Y-84122759D01*
X166402440Y-84273612D01*
X166419769Y-84434399D01*
X166437097Y-84595187D01*
X166472349Y-84764057D01*
X166507599Y-84932928D01*
X166555763Y-85108031D01*
X166603924Y-85283133D01*
X166659996Y-85462618D01*
X166716068Y-85642102D01*
X166775050Y-85824117D01*
X166834028Y-86006133D01*
X166890916Y-86188828D01*
X166947803Y-86371524D01*
X166997596Y-86553049D01*
X167047388Y-86734574D01*
X167085085Y-86913077D01*
X167122781Y-87091581D01*
X167143383Y-87265213D01*
X167163986Y-87438844D01*
X167162575Y-87605753D01*
X167161163Y-87772662D01*
X167199199Y-88011354D01*
X167237231Y-88250046D01*
X167268840Y-88489185D01*
X167300449Y-88728324D01*
X167326018Y-88967858D01*
X167351587Y-89207393D01*
X167371512Y-89447272D01*
X167391437Y-89687151D01*
X167406084Y-89927323D01*
X167420732Y-90167496D01*
X167430497Y-90407911D01*
X167440261Y-90648326D01*
X167445539Y-90888932D01*
X167450817Y-91129539D01*
X167451945Y-91370286D01*
X167453074Y-91611033D01*
X167450534Y-91851869D01*
X167447994Y-92092706D01*
X167442124Y-92333580D01*
X167436254Y-92574455D01*
X167427420Y-92815318D01*
X167418587Y-93056180D01*
X167407213Y-93296978D01*
X167395811Y-93537775D01*
X167382265Y-93778460D01*
X167368690Y-94019145D01*
X167353337Y-94259663D01*
X167337984Y-94500181D01*
X167321220Y-94740482D01*
X167304456Y-94980783D01*
X167286676Y-95220816D01*
X167268896Y-95460849D01*
X167410391Y-95501997D01*
X167551886Y-95543147D01*
X167700626Y-95589649D01*
X167849365Y-95636154D01*
X168002775Y-95684795D01*
X168156186Y-95733439D01*
X168311690Y-95781007D01*
X168467195Y-95828576D01*
X168622217Y-95871854D01*
X168777241Y-95915133D01*
X168929209Y-95950911D01*
X169081178Y-95986685D01*
X169227515Y-96011746D01*
X169373853Y-96036808D01*
X169511984Y-96047927D01*
X169650115Y-96059047D01*
X169777468Y-96053007D01*
X169904818Y-96046996D01*
X170018813Y-96020608D01*
X170132805Y-95994220D01*
X170230869Y-95944261D01*
X170328933Y-95894300D01*
X170408491Y-95817549D01*
X170488047Y-95740799D01*
X170546523Y-95634046D01*
X170604997Y-95527289D01*
X170639817Y-95387316D01*
X170674635Y-95247342D01*
X170683243Y-95070933D01*
X170691823Y-94894525D01*
X170671615Y-94678469D01*
X170651380Y-94462411D01*
X170655416Y-94083788D01*
X170659480Y-93705164D01*
X170641418Y-93328172D01*
X170623355Y-92951176D01*
X170585018Y-92575948D01*
X170546679Y-92200719D01*
X170489864Y-91827394D01*
X170433053Y-91454069D01*
X170359576Y-91082784D01*
X170286100Y-90711500D01*
X170197773Y-90342392D01*
X170109449Y-89973285D01*
X170008086Y-89606492D01*
X169906723Y-89239699D01*
X169794133Y-88875357D01*
X169681546Y-88511015D01*
X169559547Y-88149261D01*
X169437548Y-87787508D01*
X169307949Y-87428479D01*
X169178350Y-87069451D01*
X169042962Y-86713285D01*
X168907577Y-86357119D01*
X168768216Y-86003953D01*
X168628857Y-85650786D01*
X168487334Y-85300755D01*
X168345814Y-84950725D01*
X168203943Y-84603968D01*
X168062073Y-84257211D01*
X167921668Y-83913864D01*
X167781262Y-83570517D01*
X167644164Y-83230727D01*
X167506894Y-82890938D01*
X167506894Y-82890938D01*
G37*
G36*
X165423301Y-83894149D02*
X165222624Y-83906638D01*
X165021947Y-83919126D01*
X164849546Y-83947938D01*
X164677148Y-83976749D01*
X164531276Y-84021024D01*
X164385401Y-84065299D01*
X164264296Y-84124179D01*
X164143195Y-84183057D01*
X164045106Y-84255681D01*
X163947019Y-84328305D01*
X163870193Y-84413814D01*
X163793366Y-84499322D01*
X163736047Y-84596857D01*
X163678731Y-84694392D01*
X163639163Y-84803093D01*
X163599598Y-84911795D01*
X163576033Y-85030803D01*
X163552467Y-85149812D01*
X163543126Y-85278268D01*
X163533784Y-85406724D01*
X163536945Y-85543769D01*
X163540106Y-85680813D01*
X163554019Y-85825587D01*
X163567933Y-85970360D01*
X163590821Y-86122004D01*
X163613709Y-86273647D01*
X163643820Y-86431300D01*
X163673930Y-86588953D01*
X163709512Y-86751758D01*
X163745095Y-86914562D01*
X163784394Y-87081658D01*
X163823697Y-87248754D01*
X163837695Y-87493026D01*
X163851693Y-87737299D01*
X163860668Y-87981760D01*
X163869614Y-88226221D01*
X163873763Y-88470817D01*
X163877912Y-88715412D01*
X163877629Y-88960090D01*
X163877065Y-89204767D01*
X163872324Y-89449472D01*
X163867554Y-89694177D01*
X163858692Y-89938856D01*
X163849831Y-90183535D01*
X163837102Y-90428135D01*
X163824374Y-90672735D01*
X163808033Y-90917203D01*
X163791693Y-91161670D01*
X163771965Y-91405951D01*
X163752238Y-91650232D01*
X163729378Y-91894273D01*
X163706518Y-92138315D01*
X163680723Y-92382064D01*
X163654956Y-92625811D01*
X163626500Y-92869214D01*
X163598043Y-93112613D01*
X163567148Y-93355615D01*
X163536253Y-93598617D01*
X163503154Y-93841164D01*
X163470058Y-94083709D01*
X163434995Y-94325748D01*
X163399932Y-94567788D01*
X163363138Y-94809265D01*
X163326345Y-95050746D01*
X163492436Y-95052439D01*
X163658529Y-95054133D01*
X163830490Y-95065704D01*
X164002451Y-95077275D01*
X164177513Y-95095111D01*
X164352578Y-95112948D01*
X164527977Y-95133437D01*
X164703378Y-95153926D01*
X164876346Y-95173484D01*
X165049314Y-95193042D01*
X165217084Y-95208057D01*
X165384857Y-95223071D01*
X165544662Y-95229957D01*
X165704471Y-95236843D01*
X165853543Y-95231989D01*
X166002619Y-95227135D01*
X166138195Y-95206984D01*
X166273775Y-95186833D01*
X166393084Y-95147774D01*
X166512397Y-95108717D01*
X166612676Y-95047153D01*
X166712958Y-94985589D01*
X166791438Y-94897928D01*
X166869921Y-94810267D01*
X166923837Y-94692914D01*
X166977753Y-94575563D01*
X167004338Y-94424924D01*
X167030924Y-94274285D01*
X167027396Y-94086765D01*
X167023868Y-93899248D01*
X166987487Y-93671255D01*
X166951105Y-93443262D01*
X166959826Y-93138589D01*
X166968519Y-92833919D01*
X166972103Y-92528377D01*
X166975687Y-92222832D01*
X166973994Y-91916701D01*
X166972300Y-91610571D01*
X166964878Y-91304139D01*
X166957455Y-90997708D01*
X166944163Y-90691261D01*
X166930870Y-90384814D01*
X166911453Y-90078638D01*
X166892036Y-89772462D01*
X166866269Y-89466842D01*
X166840503Y-89161222D01*
X166808123Y-88856445D01*
X166775744Y-88551668D01*
X166736507Y-88248019D01*
X166697272Y-87944370D01*
X166650934Y-87642135D01*
X166604596Y-87339900D01*
X166550909Y-87039366D01*
X166497222Y-86738831D01*
X166435937Y-86440282D01*
X166374653Y-86141733D01*
X166305525Y-85845456D01*
X166236397Y-85549179D01*
X166159181Y-85255459D01*
X166081965Y-84961740D01*
X165996413Y-84670863D01*
X165910860Y-84379987D01*
X165816725Y-84092240D01*
X165722589Y-83804494D01*
X165713220Y-83807288D01*
X165703878Y-83810082D01*
X165694508Y-83812876D01*
X165685138Y-83815670D01*
X165675769Y-83818464D01*
X165666399Y-83821258D01*
X165657057Y-83824052D01*
X165647688Y-83826846D01*
X165638318Y-83829640D01*
X165628948Y-83832434D01*
X165619606Y-83835228D01*
X165610237Y-83838022D01*
X165600867Y-83840816D01*
X165591497Y-83843610D01*
X165582127Y-83846404D01*
X165572786Y-83849198D01*
X165563416Y-83851992D01*
X165554046Y-83854786D01*
X165544677Y-83857580D01*
X165535335Y-83860374D01*
X165525965Y-83863168D01*
X165516595Y-83865962D01*
X165507226Y-83868756D01*
X165497856Y-83871550D01*
X165488514Y-83874344D01*
X165479145Y-83877138D01*
X165469775Y-83879932D01*
X165460405Y-83882726D01*
X165451063Y-83885520D01*
X165441694Y-83888314D01*
X165432437Y-83891136D01*
X165423301Y-83894149D01*
X165423301Y-83894149D01*
G37*
G36*
X162854639Y-84637188D02*
X162670410Y-84675290D01*
X162486184Y-84713393D01*
X162295063Y-84747137D01*
X162103942Y-84780881D01*
X161909426Y-84812746D01*
X161714913Y-84844611D01*
X161520507Y-84877076D01*
X161326098Y-84909541D01*
X161135296Y-84945086D01*
X160944497Y-84980631D01*
X160760804Y-85021735D01*
X160577108Y-85062840D01*
X160404022Y-85111984D01*
X160230935Y-85161129D01*
X160071956Y-85220792D01*
X159912975Y-85280455D01*
X159771604Y-85353117D01*
X159630230Y-85425778D01*
X159509964Y-85513918D01*
X159389698Y-85602058D01*
X159294039Y-85708156D01*
X159198380Y-85814254D01*
X159130827Y-85940790D01*
X159063274Y-86067325D01*
X159027330Y-86216778D01*
X158991384Y-86366231D01*
X158990537Y-86541080D01*
X158989690Y-86715930D01*
X159027460Y-86918656D01*
X159065227Y-87121382D01*
X159145102Y-87354464D01*
X159224976Y-87587547D01*
X159242389Y-87822884D01*
X159259802Y-88058221D01*
X159275833Y-88293637D01*
X159291863Y-88529052D01*
X159306595Y-88764540D01*
X159321327Y-89000027D01*
X159334902Y-89235579D01*
X159348448Y-89471132D01*
X159360951Y-89706742D01*
X159373453Y-89942353D01*
X159384996Y-90178014D01*
X159396539Y-90413676D01*
X159407235Y-90649383D01*
X159417932Y-90885089D01*
X159427894Y-91120834D01*
X159437828Y-91356578D01*
X159447142Y-91592354D01*
X159456455Y-91828129D01*
X159465232Y-92063929D01*
X159474009Y-92299729D01*
X159482391Y-92535548D01*
X159490773Y-92771364D01*
X159498845Y-93007195D01*
X159506916Y-93243022D01*
X159514790Y-93478856D01*
X159522664Y-93714686D01*
X159530425Y-93950517D01*
X159538215Y-94186347D01*
X159546004Y-94422169D01*
X159553793Y-94657989D01*
X159561724Y-94893794D01*
X159569654Y-95129596D01*
X159747948Y-95163480D01*
X159926242Y-95197363D01*
X160105097Y-95222086D01*
X160283953Y-95246809D01*
X160461414Y-95261343D01*
X160638878Y-95275877D01*
X160812995Y-95279179D01*
X160987112Y-95282481D01*
X161155932Y-95273535D01*
X161324749Y-95264560D01*
X161486315Y-95242293D01*
X161647879Y-95220026D01*
X161800240Y-95183430D01*
X161952597Y-95146837D01*
X162093796Y-95094871D01*
X162234995Y-95042906D01*
X162363081Y-94974532D01*
X162491165Y-94906161D01*
X162604181Y-94820343D01*
X162717197Y-94734527D01*
X162813194Y-94630229D01*
X162909190Y-94525934D01*
X162986211Y-94402120D01*
X163063232Y-94278309D01*
X163119327Y-94133944D01*
X163175418Y-93989582D01*
X163208630Y-93823633D01*
X163241842Y-93657683D01*
X163250224Y-93469108D01*
X163258606Y-93280535D01*
X163240205Y-93068302D01*
X163221804Y-92856070D01*
X163249462Y-92600752D01*
X163277120Y-92345437D01*
X163301391Y-92088409D01*
X163325662Y-91831380D01*
X163346151Y-91572962D01*
X163366641Y-91314545D01*
X163382953Y-91055063D01*
X163399266Y-90795580D01*
X163411034Y-90535356D01*
X163422803Y-90275131D01*
X163429604Y-90014488D01*
X163436406Y-89753844D01*
X163437817Y-89493105D01*
X163439228Y-89232366D01*
X163434938Y-88971855D01*
X163430649Y-88711344D01*
X163420235Y-88451384D01*
X163409792Y-88191424D01*
X163392859Y-87932338D01*
X163375926Y-87673252D01*
X163352050Y-87415364D01*
X163328174Y-87157476D01*
X163297002Y-86901108D01*
X163265831Y-86644741D01*
X163226963Y-86390217D01*
X163188093Y-86135694D01*
X163141134Y-85883338D01*
X163094172Y-85630982D01*
X163038730Y-85381116D01*
X162983284Y-85131251D01*
X162918971Y-84884207D01*
X162854639Y-84637188D01*
X162854639Y-84637188D01*
G37*
G36*
X158502242Y-85580868D02*
X158332886Y-85593529D01*
X158163530Y-85606189D01*
X158001052Y-85624031D01*
X157838574Y-85641873D01*
X157683986Y-85665811D01*
X157529399Y-85689749D01*
X157383716Y-85720697D01*
X157238033Y-85751643D01*
X157102264Y-85790513D01*
X156966496Y-85829382D01*
X156841652Y-85877087D01*
X156716811Y-85924791D01*
X156603908Y-85982245D01*
X156491005Y-86039698D01*
X156391053Y-86107814D01*
X156291104Y-86175930D01*
X156205114Y-86255622D01*
X156119126Y-86335314D01*
X156048116Y-86427494D01*
X155977104Y-86519674D01*
X155922079Y-86625257D01*
X155867054Y-86730840D01*
X155829030Y-86850739D01*
X155791006Y-86970637D01*
X155770997Y-87105765D01*
X155750987Y-87240893D01*
X155749858Y-87392163D01*
X155748730Y-87543433D01*
X155767780Y-87711759D01*
X155786830Y-87880084D01*
X155826928Y-88066380D01*
X155867023Y-88252674D01*
X155859459Y-88491469D01*
X155851896Y-88730264D01*
X155843091Y-88969009D01*
X155834285Y-89207753D01*
X155824407Y-89446455D01*
X155814530Y-89685156D01*
X155803805Y-89923823D01*
X155793081Y-90162490D01*
X155781679Y-90401129D01*
X155770277Y-90639769D01*
X155758424Y-90878390D01*
X155746571Y-91117010D01*
X155734463Y-91355620D01*
X155722328Y-91594229D01*
X155710136Y-91832836D01*
X155697944Y-92071442D01*
X155685893Y-92310053D01*
X155673842Y-92548663D01*
X155662101Y-92787287D01*
X155650361Y-93025909D01*
X155639157Y-93264553D01*
X155627953Y-93503195D01*
X155617454Y-93741867D01*
X155606955Y-93980540D01*
X155597360Y-94219249D01*
X155587764Y-94457955D01*
X155579297Y-94696707D01*
X155570831Y-94935458D01*
X155563662Y-95174263D01*
X155556522Y-95413066D01*
X155550878Y-95651930D01*
X155545233Y-95890794D01*
X155683649Y-95832857D01*
X155822065Y-95774917D01*
X155975357Y-95737714D01*
X156128646Y-95700512D01*
X156292795Y-95679345D01*
X156456941Y-95658178D01*
X156627928Y-95648357D01*
X156798915Y-95638536D01*
X156972724Y-95635347D01*
X157146531Y-95632158D01*
X157319141Y-95631029D01*
X157491751Y-95629618D01*
X157659145Y-95625610D01*
X157826537Y-95621602D01*
X157984697Y-95610172D01*
X158142854Y-95598742D01*
X158287761Y-95575149D01*
X158432666Y-95551555D01*
X158560301Y-95511104D01*
X158687936Y-95470653D01*
X158794280Y-95408657D01*
X158900624Y-95346659D01*
X158981661Y-95258416D01*
X159062696Y-95170174D01*
X159114404Y-95050989D01*
X159166113Y-94931801D01*
X159184486Y-94776973D01*
X159202858Y-94622146D01*
X159183865Y-94426978D01*
X159164871Y-94231810D01*
X159104490Y-93991606D01*
X159044108Y-93751401D01*
X159035303Y-93496111D01*
X159026498Y-93240818D01*
X159017834Y-92984925D01*
X159009198Y-92729028D01*
X159000449Y-92472657D01*
X158991700Y-92216290D01*
X158982556Y-91959572D01*
X158973440Y-91702854D01*
X158963675Y-91445918D01*
X158953910Y-91188981D01*
X158943214Y-90931953D01*
X158932546Y-90674926D01*
X158920693Y-90417936D01*
X158908839Y-90160946D01*
X158895547Y-89904122D01*
X158882254Y-89647298D01*
X158867268Y-89390768D01*
X158852282Y-89134238D01*
X158835320Y-88878131D01*
X158818359Y-88622023D01*
X158799140Y-88366467D01*
X158779920Y-88110910D01*
X158758217Y-87856032D01*
X158736514Y-87601154D01*
X158712018Y-87347084D01*
X158687521Y-87093014D01*
X158660004Y-86839879D01*
X158632487Y-86586744D01*
X158601655Y-86334673D01*
X158570822Y-86082602D01*
X158536439Y-85831741D01*
X158502242Y-85580868D01*
X158502242Y-85580868D01*
G37*
G36*
X155108963Y-86266580D02*
X154897801Y-86287913D01*
X154686637Y-86309246D01*
X154475625Y-86332843D01*
X154264610Y-86356439D01*
X154056415Y-86384145D01*
X153848217Y-86411851D01*
X153645508Y-86445514D01*
X153442796Y-86479177D01*
X153248244Y-86520644D01*
X153053688Y-86562111D01*
X152869959Y-86613229D01*
X152686226Y-86664347D01*
X152515987Y-86726962D01*
X152345751Y-86789578D01*
X152191671Y-86865538D01*
X152037595Y-86941499D01*
X151902346Y-87032651D01*
X151767099Y-87123804D01*
X151653349Y-87231995D01*
X151539600Y-87340186D01*
X151450017Y-87467263D01*
X151360437Y-87594340D01*
X151297690Y-87742150D01*
X151234944Y-87889960D01*
X151201701Y-88060350D01*
X151168458Y-88230740D01*
X151167329Y-88425557D01*
X151166200Y-88620374D01*
X151199974Y-88841465D01*
X151233747Y-89062556D01*
X151305028Y-89311767D01*
X151376312Y-89560979D01*
X151412196Y-89764212D01*
X151448084Y-89967445D01*
X151477807Y-90186383D01*
X151507531Y-90405321D01*
X151532592Y-90636873D01*
X151557654Y-90868424D01*
X151579582Y-91109499D01*
X151601511Y-91350574D01*
X151621803Y-91598082D01*
X151642094Y-91845590D01*
X151662273Y-92096440D01*
X151682452Y-92347292D01*
X151704014Y-92598393D01*
X151725576Y-92849495D01*
X151750016Y-93097757D01*
X151774457Y-93346019D01*
X151803308Y-93588352D01*
X151832157Y-93830685D01*
X151866921Y-94063998D01*
X151901682Y-94297314D01*
X151943869Y-94518514D01*
X151933145Y-94713259D01*
X152037180Y-94945720D01*
X152088296Y-95151722D01*
X152149857Y-95339431D01*
X152211416Y-95527140D01*
X152284926Y-95693467D01*
X152358436Y-95859795D01*
X152445409Y-96001648D01*
X152532378Y-96143505D01*
X152634320Y-96257796D01*
X152736261Y-96372088D01*
X152917197Y-96351852D01*
X153098130Y-96331617D01*
X153269475Y-96308447D01*
X153440818Y-96285276D01*
X153601752Y-96257788D01*
X153762684Y-96230299D01*
X153912386Y-96197133D01*
X154062085Y-96163969D01*
X154199730Y-96123758D01*
X154337376Y-96083547D01*
X154462143Y-96034922D01*
X154586911Y-95986298D01*
X154697982Y-95927893D01*
X154809051Y-95869489D01*
X154905599Y-95799933D01*
X155002147Y-95730379D01*
X155083354Y-95648306D01*
X155164561Y-95566233D01*
X155229602Y-95470275D01*
X155294642Y-95374317D01*
X155342699Y-95263104D01*
X155390753Y-95151892D01*
X155421002Y-95024056D01*
X155451248Y-94896224D01*
X155462875Y-94750399D01*
X155474503Y-94604575D01*
X155466685Y-94439391D01*
X155458868Y-94274209D01*
X155430758Y-94088298D01*
X155402649Y-93902389D01*
X155353443Y-93694386D01*
X155304238Y-93486380D01*
X155307935Y-93268818D01*
X155311604Y-93051255D01*
X155315724Y-92833696D01*
X155319845Y-92616139D01*
X155324332Y-92398588D01*
X155328820Y-92181037D01*
X155333561Y-91963491D01*
X155338302Y-91745945D01*
X155343241Y-91528402D01*
X155348180Y-91310859D01*
X155353232Y-91093318D01*
X155358284Y-90875777D01*
X155363364Y-90658237D01*
X155368444Y-90440696D01*
X155373467Y-90223155D01*
X155378491Y-90005614D01*
X155383373Y-89788071D01*
X155388256Y-89570528D01*
X155392912Y-89352981D01*
X155397569Y-89135434D01*
X155401943Y-88917883D01*
X155406318Y-88700331D01*
X155410297Y-88482773D01*
X155414276Y-88265216D01*
X155417804Y-88047650D01*
X155421332Y-87830085D01*
X155424295Y-87612511D01*
X155427259Y-87394937D01*
X155429516Y-87177352D01*
X155431774Y-86959768D01*
X155433468Y-86742172D01*
X155435161Y-86524575D01*
X155430081Y-86520545D01*
X155424973Y-86516515D01*
X155419864Y-86512482D01*
X155414756Y-86508449D01*
X155409648Y-86504419D01*
X155404540Y-86500389D01*
X155399460Y-86496356D01*
X155394352Y-86492323D01*
X155389243Y-86488293D01*
X155384135Y-86484263D01*
X155379027Y-86480230D01*
X155373919Y-86476197D01*
X155368839Y-86472167D01*
X155363730Y-86468137D01*
X155358622Y-86464104D01*
X155353514Y-86460071D01*
X155348406Y-86456041D01*
X155343298Y-86452010D01*
X155338218Y-86447977D01*
X155333109Y-86443945D01*
X155328001Y-86439914D01*
X155322893Y-86435884D01*
X155317785Y-86431851D01*
X155312676Y-86427818D01*
X155307596Y-86423788D01*
X155302488Y-86419758D01*
X155297380Y-86415725D01*
X155292272Y-86411692D01*
X155287164Y-86407662D01*
X155282055Y-86403632D01*
X155276947Y-86399599D01*
X155271867Y-86395569D01*
X155266759Y-86391539D01*
X155261651Y-86387509D01*
X155256542Y-86383476D01*
X155251434Y-86379445D01*
X155246326Y-86375415D01*
X155241246Y-86371385D01*
X155236138Y-86367355D01*
X155231030Y-86363322D01*
X155225921Y-86359292D01*
X155220813Y-86355262D01*
X155215705Y-86351229D01*
X155210625Y-86347196D01*
X155205517Y-86343166D01*
X155200408Y-86339136D01*
X155195300Y-86335106D01*
X155190192Y-86331075D01*
X155185084Y-86327042D01*
X155180004Y-86323010D01*
X155174896Y-86318979D01*
X155169787Y-86314949D01*
X155164679Y-86310916D01*
X155159571Y-86306883D01*
X155154463Y-86302853D01*
X155149383Y-86298823D01*
X155144274Y-86294790D01*
X155139166Y-86290757D01*
X155134058Y-86286727D01*
X155128950Y-86282697D01*
X155123842Y-86278664D01*
X155118762Y-86274631D01*
X155113569Y-86270601D01*
X155108963Y-86266580D01*
X155108963Y-86266580D01*
G37*
G36*
X150738927Y-87082378D02*
X150498228Y-87068487D01*
X150257526Y-87054596D01*
X150057340Y-87078416D01*
X149857155Y-87102235D01*
X149693692Y-87160164D01*
X149530228Y-87218092D01*
X149399701Y-87306523D01*
X149269173Y-87394955D01*
X149167793Y-87510285D01*
X149066410Y-87625615D01*
X148990385Y-87764240D01*
X148914360Y-87902866D01*
X148859906Y-88061181D01*
X148805448Y-88219497D01*
X148768770Y-88393899D01*
X148732093Y-88568301D01*
X148709402Y-88755184D01*
X148686711Y-88942068D01*
X148674209Y-89137830D01*
X148661735Y-89333592D01*
X148655667Y-89534627D01*
X148649599Y-89735662D01*
X148646156Y-89938366D01*
X148642713Y-90141071D01*
X148638085Y-90341840D01*
X148633484Y-90542610D01*
X148623917Y-90737840D01*
X148614350Y-90933070D01*
X148596033Y-91119157D01*
X148577717Y-91305244D01*
X148546873Y-91478583D01*
X148516029Y-91651922D01*
X148535502Y-91805625D01*
X148554976Y-91959327D01*
X148554694Y-92126579D01*
X148554129Y-92293830D01*
X148537760Y-92471743D01*
X148521391Y-92649659D01*
X148493155Y-92835350D01*
X148464916Y-93021041D01*
X148428831Y-93211620D01*
X148392743Y-93402201D01*
X148352843Y-93594787D01*
X148312939Y-93787373D01*
X148273247Y-93979072D01*
X148233557Y-94170774D01*
X148198108Y-94358706D01*
X148162659Y-94546638D01*
X148135481Y-94727912D01*
X148108303Y-94909189D01*
X148093427Y-95080924D01*
X148078551Y-95252659D01*
X148080019Y-95411962D01*
X148081458Y-95571268D01*
X148103271Y-95715258D01*
X148125084Y-95859248D01*
X148171286Y-95985034D01*
X148217488Y-96110823D01*
X148292108Y-96215522D01*
X148366728Y-96320221D01*
X148473797Y-96400945D01*
X148580867Y-96481672D01*
X148724416Y-96535534D01*
X148867963Y-96589399D01*
X149024627Y-96614742D01*
X149181292Y-96640086D01*
X149343869Y-96659954D01*
X149506446Y-96679823D01*
X149671599Y-96692890D01*
X149836750Y-96705957D01*
X150001147Y-96710895D01*
X150165542Y-96715834D01*
X150325847Y-96711319D01*
X150486149Y-96706803D01*
X150639026Y-96691535D01*
X150791900Y-96676267D01*
X150934016Y-96648919D01*
X151076129Y-96621572D01*
X150966023Y-96572017D01*
X151094039Y-96531281D01*
X151204625Y-96475821D01*
X151315208Y-96420362D01*
X151405028Y-96348861D01*
X151494845Y-96277360D01*
X151560563Y-96188497D01*
X151626279Y-96099633D01*
X151664559Y-95992087D01*
X151702840Y-95884540D01*
X151710347Y-95756990D01*
X151717854Y-95629443D01*
X151691269Y-95480570D01*
X151664683Y-95331698D01*
X151600647Y-95160180D01*
X151536611Y-94988663D01*
X151431799Y-94793181D01*
X151565113Y-94606520D01*
X151507768Y-94375998D01*
X151450423Y-94145476D01*
X151400185Y-93912894D01*
X151349944Y-93680314D01*
X151306188Y-93445985D01*
X151262432Y-93211656D01*
X151224538Y-92975885D01*
X151186644Y-92740114D01*
X151153991Y-92503214D01*
X151121335Y-92266312D01*
X151093310Y-92028590D01*
X151065286Y-91790868D01*
X151041240Y-91552634D01*
X151017195Y-91314400D01*
X150996536Y-91075964D01*
X150975878Y-90837528D01*
X150957957Y-90599199D01*
X150940036Y-90360871D01*
X150924259Y-90122959D01*
X150908483Y-89885047D01*
X150894203Y-89647862D01*
X150879922Y-89410676D01*
X150866545Y-89174527D01*
X150853168Y-88938377D01*
X150840044Y-88703573D01*
X150826921Y-88468769D01*
X150813459Y-88235620D01*
X150799969Y-88002471D01*
X150785519Y-87771286D01*
X150771069Y-87540101D01*
X150754983Y-87311203D01*
X150738927Y-87082378D01*
X150738927Y-87082378D01*
G37*
G36*
X148344449Y-87503507D02*
X148190927Y-87535567D01*
X148037404Y-87567627D01*
X147876185Y-87592691D01*
X147714967Y-87617755D01*
X147549127Y-87638499D01*
X147383287Y-87659242D01*
X147215899Y-87678337D01*
X147048510Y-87697432D01*
X146882647Y-87717558D01*
X146716784Y-87737683D01*
X146555520Y-87761511D01*
X146394256Y-87785339D01*
X146240664Y-87815545D01*
X146087072Y-87845752D01*
X145944226Y-87885012D01*
X145801380Y-87924272D01*
X145672354Y-87975260D01*
X145543328Y-88026248D01*
X145431195Y-88091640D01*
X145319062Y-88157032D01*
X145226895Y-88239503D01*
X145134729Y-88321974D01*
X145065603Y-88424198D01*
X144996477Y-88526422D01*
X144953465Y-88651074D01*
X144910454Y-88775727D01*
X144896627Y-88925483D01*
X144882801Y-89075240D01*
X144901239Y-89252774D01*
X144919677Y-89430309D01*
X144973447Y-89638297D01*
X145027219Y-89846286D01*
X145051467Y-90032190D01*
X145075716Y-90218095D01*
X145080186Y-90413260D01*
X145084654Y-90608426D01*
X145072388Y-90810928D01*
X145060126Y-91013431D01*
X145034175Y-91221345D01*
X145008225Y-91429260D01*
X144971636Y-91640662D01*
X144935047Y-91852065D01*
X144890866Y-92065030D01*
X144846685Y-92277996D01*
X144797960Y-92490601D01*
X144749235Y-92703205D01*
X144699013Y-92913522D01*
X144648791Y-93123840D01*
X144600119Y-93329947D01*
X144551447Y-93536057D01*
X144507372Y-93736028D01*
X144463297Y-93936002D01*
X144426867Y-94127916D01*
X144390437Y-94319830D01*
X144364698Y-94501759D01*
X144338959Y-94683688D01*
X144326962Y-94853707D01*
X144314962Y-95023729D01*
X144319749Y-95179916D01*
X144324535Y-95336106D01*
X144349156Y-95476535D01*
X144373777Y-95616966D01*
X144421278Y-95739712D01*
X144468780Y-95862462D01*
X144666860Y-95926834D01*
X144864940Y-95991203D01*
X145055279Y-96043776D01*
X145245617Y-96096345D01*
X145427223Y-96136020D01*
X145608828Y-96175695D01*
X145780710Y-96201377D01*
X145952591Y-96227059D01*
X146113758Y-96237643D01*
X146274925Y-96248226D01*
X146424385Y-96242610D01*
X146573846Y-96236994D01*
X146710610Y-96214077D01*
X146847374Y-96191161D01*
X146970450Y-96149857D01*
X147093526Y-96108551D01*
X147201923Y-96047752D01*
X147310320Y-95986953D01*
X147403047Y-95905560D01*
X147495774Y-95824167D01*
X147571841Y-95721083D01*
X147647907Y-95617996D01*
X147706321Y-95492119D01*
X147764735Y-95366239D01*
X147804507Y-95216470D01*
X147844278Y-95066697D01*
X147864415Y-94891937D01*
X147884551Y-94717173D01*
X147884043Y-94516322D01*
X147883535Y-94315470D01*
X147861432Y-94087428D01*
X147839328Y-93859384D01*
X147859261Y-93660542D01*
X147879195Y-93461702D01*
X147898143Y-93262775D01*
X147917091Y-93063845D01*
X147935207Y-92864839D01*
X147953323Y-92665833D01*
X147970753Y-92466765D01*
X147988183Y-92267698D01*
X148005077Y-92068582D01*
X148021974Y-91869466D01*
X148038484Y-91670315D01*
X148054994Y-91471164D01*
X148071267Y-91271992D01*
X148087540Y-91072820D01*
X148103722Y-90873640D01*
X148119905Y-90674459D01*
X148136149Y-90475285D01*
X148152394Y-90276111D01*
X148168851Y-90076956D01*
X148185307Y-89877801D01*
X148202122Y-89678679D01*
X148218937Y-89479557D01*
X148236262Y-89280482D01*
X148253588Y-89081407D01*
X148271565Y-88882392D01*
X148289543Y-88683377D01*
X148308339Y-88484436D01*
X148327135Y-88285494D01*
X148346890Y-88086641D01*
X148366646Y-87887787D01*
X148387502Y-87689034D01*
X148408358Y-87490281D01*
X148406383Y-87490676D01*
X148404407Y-87491099D01*
X148402432Y-87491523D01*
X148400456Y-87491918D01*
X148398481Y-87492341D01*
X148396505Y-87492736D01*
X148394530Y-87493159D01*
X148392554Y-87493583D01*
X148390578Y-87493978D01*
X148388603Y-87494401D01*
X148386627Y-87494796D01*
X148384652Y-87495220D01*
X148382676Y-87495643D01*
X148380701Y-87496038D01*
X148378725Y-87496461D01*
X148376750Y-87496857D01*
X148374774Y-87497280D01*
X148372798Y-87497703D01*
X148370823Y-87498098D01*
X148368847Y-87498522D01*
X148366872Y-87498945D01*
X148364896Y-87499340D01*
X148362921Y-87499763D01*
X148360945Y-87500159D01*
X148358970Y-87500582D01*
X148356994Y-87501005D01*
X148355018Y-87501400D01*
X148353043Y-87501824D01*
X148351067Y-87502219D01*
X148349092Y-87502642D01*
X148347116Y-87503122D01*
X148344449Y-87503507D01*
X148344449Y-87503507D01*
G37*
G36*
X143914883Y-88231111D02*
X143792530Y-88269687D01*
X143670178Y-88308262D01*
X143531893Y-88335381D01*
X143393609Y-88362500D01*
X143243895Y-88380937D01*
X143094180Y-88399375D01*
X142937538Y-88411914D01*
X142780896Y-88424450D01*
X142621827Y-88433868D01*
X142462758Y-88443286D01*
X142305764Y-88452359D01*
X142148770Y-88461433D01*
X141998354Y-88472942D01*
X141847937Y-88484451D01*
X141708599Y-88501178D01*
X141569261Y-88517905D01*
X141445504Y-88542625D01*
X141321746Y-88567345D01*
X141218071Y-88602840D01*
X141114396Y-88638335D01*
X141035304Y-88687382D01*
X140956213Y-88736430D01*
X140906207Y-88801810D01*
X140856201Y-88867189D01*
X140839781Y-88951680D01*
X140823362Y-89036170D01*
X140845034Y-89142550D01*
X140866705Y-89248930D01*
X140930967Y-89379980D01*
X140995228Y-89511029D01*
X141106581Y-89669526D01*
X141217935Y-89828024D01*
X141251730Y-90002924D01*
X141285525Y-90177825D01*
X141293085Y-90364247D01*
X141300649Y-90550668D01*
X141286907Y-90746258D01*
X141273169Y-90941848D01*
X141243057Y-91144254D01*
X141212946Y-91346660D01*
X141171393Y-91553531D01*
X141129841Y-91760401D01*
X141081778Y-91969384D01*
X141033716Y-92178366D01*
X140984074Y-92387107D01*
X140934432Y-92595850D01*
X140888141Y-92802002D01*
X140841851Y-93008151D01*
X140803842Y-93209359D01*
X140765833Y-93410564D01*
X140741037Y-93604473D01*
X140716241Y-93798382D01*
X140709586Y-93982642D01*
X140702934Y-94166902D01*
X140719354Y-94339162D01*
X140735774Y-94511422D01*
X140780199Y-94669331D01*
X140824625Y-94827237D01*
X140901986Y-94968439D01*
X140979347Y-95109640D01*
X141094574Y-95231786D01*
X141209801Y-95353932D01*
X141367825Y-95454668D01*
X141525848Y-95555402D01*
X141813151Y-95629158D01*
X142100453Y-95702911D01*
X142345365Y-95713635D01*
X142590276Y-95724360D01*
X142796367Y-95678369D01*
X143002458Y-95632378D01*
X143173299Y-95535987D01*
X143344141Y-95439595D01*
X143483304Y-95299121D01*
X143622467Y-95158645D01*
X143733523Y-94980402D01*
X143844579Y-94802156D01*
X143931099Y-94592459D01*
X144017618Y-94382763D01*
X144083173Y-94147928D01*
X144148728Y-93913094D01*
X144196888Y-93659438D01*
X144245048Y-93405780D01*
X144279386Y-93139616D01*
X144313723Y-92873450D01*
X144337808Y-92601094D01*
X144361893Y-92328740D01*
X144379297Y-92056509D01*
X144396702Y-91784278D01*
X144410997Y-91518486D01*
X144425291Y-91252695D01*
X144440046Y-90999659D01*
X144454800Y-90746623D01*
X144473588Y-90512658D01*
X144492375Y-90278693D01*
X144518766Y-90070114D01*
X144545157Y-89861535D01*
X144532612Y-89808121D01*
X144520067Y-89754708D01*
X144515933Y-89689738D01*
X144511795Y-89624769D01*
X144514053Y-89550790D01*
X144516311Y-89476812D01*
X144522974Y-89396371D01*
X144529637Y-89315930D01*
X144538688Y-89231573D01*
X144547742Y-89147216D01*
X144557176Y-89061489D01*
X144566611Y-88975763D01*
X144574426Y-88891213D01*
X144582241Y-88806664D01*
X144586426Y-88725839D01*
X144590611Y-88645014D01*
X144589172Y-88570459D01*
X144587733Y-88495904D01*
X144578642Y-88430166D01*
X144569555Y-88364428D01*
X144550818Y-88310054D01*
X144532081Y-88255680D01*
X144501692Y-88215217D01*
X144471302Y-88174753D01*
X144427253Y-88150747D01*
X144383204Y-88126741D01*
X144323489Y-88121737D01*
X144263775Y-88116734D01*
X144186389Y-88133280D01*
X144109003Y-88149827D01*
X144011940Y-88190471D01*
X143914883Y-88231111D01*
X143914883Y-88231111D01*
G37*
G36*
X140102679Y-88799965D02*
X139929480Y-88801602D01*
X139756280Y-88803239D01*
X139587863Y-88809899D01*
X139419446Y-88816559D01*
X139257068Y-88829398D01*
X139094689Y-88842236D01*
X138939604Y-88862418D01*
X138784518Y-88882599D01*
X138637983Y-88911287D01*
X138491448Y-88939975D01*
X138354718Y-88978335D01*
X138217988Y-89016694D01*
X138092320Y-89065889D01*
X137966651Y-89115083D01*
X137853300Y-89176278D01*
X137739949Y-89237473D01*
X137640171Y-89311831D01*
X137540393Y-89386190D01*
X137455443Y-89474877D01*
X137370494Y-89563563D01*
X137301630Y-89667742D01*
X137232765Y-89771921D01*
X137181241Y-89892757D01*
X137129717Y-90013592D01*
X137096789Y-90152249D01*
X137063862Y-90290905D01*
X137050787Y-90448546D01*
X137037711Y-90606187D01*
X137045743Y-90783977D01*
X137053775Y-90961767D01*
X137084172Y-91160871D01*
X137114568Y-91359974D01*
X137107143Y-91532917D01*
X137099718Y-91705860D01*
X137084444Y-91886581D01*
X137069173Y-92067303D01*
X137049542Y-92252634D01*
X137029910Y-92437967D01*
X137009407Y-92624739D01*
X136988903Y-92811513D01*
X136971013Y-92996561D01*
X136953126Y-93181608D01*
X136941340Y-93361762D01*
X136929555Y-93541916D01*
X136927354Y-93714003D01*
X136925152Y-93886094D01*
X136936040Y-94046955D01*
X136946928Y-94207813D01*
X136974386Y-94354272D01*
X137001843Y-94500732D01*
X137049357Y-94629622D01*
X137096872Y-94758516D01*
X137167931Y-94866672D01*
X137238990Y-94974828D01*
X137337083Y-95059080D01*
X137435175Y-95143332D01*
X137563789Y-95200513D01*
X137692403Y-95257694D01*
X137855026Y-95284618D01*
X138017649Y-95311570D01*
X138217770Y-95305079D01*
X138417891Y-95298616D01*
X138658998Y-95255569D01*
X138900105Y-95212524D01*
X139101595Y-95231038D01*
X139303084Y-95249552D01*
X139469707Y-95223446D01*
X139636329Y-95197341D01*
X139771191Y-95131318D01*
X139906053Y-95065294D01*
X140012263Y-94964039D01*
X140118472Y-94862786D01*
X140199136Y-94730988D01*
X140279801Y-94599190D01*
X140338027Y-94441541D01*
X140396253Y-94283889D01*
X140435148Y-94105073D01*
X140474044Y-93926254D01*
X140496715Y-93730959D01*
X140519389Y-93535667D01*
X140528945Y-93328587D01*
X140538501Y-93121506D01*
X140538049Y-92907325D01*
X140537598Y-92693146D01*
X140530246Y-92476555D01*
X140522894Y-92259964D01*
X140511746Y-92045652D01*
X140500598Y-91831341D01*
X140488765Y-91623996D01*
X140476931Y-91416652D01*
X140467519Y-91220964D01*
X140458107Y-91025275D01*
X140454224Y-90845932D01*
X140450340Y-90666589D01*
X140455093Y-90508279D01*
X140459845Y-90349969D01*
X140450340Y-90301517D01*
X140440835Y-90253065D01*
X140432041Y-90203918D01*
X140423247Y-90154772D01*
X140414964Y-90105079D01*
X140406683Y-90055387D01*
X140398713Y-90005299D01*
X140390743Y-89955211D01*
X140382886Y-89904876D01*
X140375029Y-89854541D01*
X140367085Y-89804108D01*
X140359140Y-89753675D01*
X140350908Y-89703294D01*
X140342675Y-89652913D01*
X140333955Y-89602733D01*
X140325234Y-89552552D01*
X140315827Y-89502722D01*
X140306421Y-89452892D01*
X140296125Y-89403561D01*
X140285833Y-89354231D01*
X140274454Y-89305548D01*
X140263072Y-89256866D01*
X140250405Y-89208982D01*
X140237737Y-89161098D01*
X140223583Y-89114161D01*
X140209427Y-89067224D01*
X140193586Y-89021383D01*
X140177745Y-88975542D01*
X140160015Y-88930947D01*
X140142286Y-88886352D01*
X140122471Y-88843158D01*
X140102679Y-88799965D01*
X140102679Y-88799965D01*
G37*
G36*
X136757905Y-89227708D02*
X136570869Y-89227341D01*
X136383832Y-89226974D01*
X136194793Y-89229655D01*
X136005754Y-89232336D01*
X135817250Y-89239863D01*
X135628745Y-89247390D01*
X135443313Y-89261574D01*
X135257881Y-89275759D01*
X135078059Y-89298402D01*
X134898237Y-89321044D01*
X134726562Y-89353952D01*
X134554888Y-89386860D01*
X134393898Y-89431837D01*
X134232909Y-89476813D01*
X134085142Y-89535664D01*
X133937375Y-89594515D01*
X133805368Y-89669044D01*
X133673361Y-89743572D01*
X133559652Y-89835585D01*
X133445943Y-89927597D01*
X133353069Y-90038897D01*
X133260196Y-90150197D01*
X133190695Y-90282590D01*
X133121195Y-90414982D01*
X133077605Y-90570272D01*
X133034014Y-90725563D01*
X133018873Y-90905555D01*
X133003732Y-91085547D01*
X133019576Y-91292045D01*
X133035420Y-91498544D01*
X133084787Y-91733354D01*
X133134154Y-91968165D01*
X133155667Y-92100159D01*
X133177181Y-92232154D01*
X133190595Y-92377388D01*
X133204009Y-92522619D01*
X133211926Y-92677133D01*
X133219845Y-92831647D01*
X133224865Y-92991486D01*
X133229886Y-93151326D01*
X133234616Y-93312531D01*
X133239346Y-93473736D01*
X133246385Y-93632354D01*
X133253423Y-93790971D01*
X133265373Y-93943041D01*
X133277322Y-94095111D01*
X133296787Y-94236676D01*
X133316252Y-94378241D01*
X133345831Y-94505349D01*
X133375411Y-94632453D01*
X133417708Y-94741140D01*
X133460005Y-94849829D01*
X133517623Y-94936141D01*
X133575240Y-95022456D01*
X133650779Y-95082439D01*
X133726318Y-95142420D01*
X133822382Y-95172116D01*
X133918445Y-95201808D01*
X134037635Y-95197264D01*
X134156825Y-95192692D01*
X134301743Y-95149939D01*
X134446661Y-95107182D01*
X134619910Y-95022270D01*
X134793159Y-94937355D01*
X135035529Y-95045344D01*
X135277899Y-95153331D01*
X135473144Y-95195701D01*
X135668388Y-95238068D01*
X135821414Y-95221586D01*
X135974440Y-95205105D01*
X136090153Y-95136558D01*
X136205867Y-95068012D01*
X136289177Y-94954172D01*
X136372486Y-94840332D01*
X136428297Y-94687975D01*
X136484108Y-94535617D01*
X136517328Y-94351515D01*
X136550549Y-94167413D01*
X136566085Y-93958346D01*
X136581621Y-93749275D01*
X136584387Y-93522016D01*
X136587153Y-93294754D01*
X136582042Y-93056076D01*
X136576931Y-92817398D01*
X136568859Y-92574080D01*
X136560788Y-92330761D01*
X136554658Y-92089576D01*
X136548528Y-91848392D01*
X136549234Y-91616116D01*
X136549939Y-91383841D01*
X136562419Y-91167252D01*
X136574899Y-90950662D01*
X136604043Y-90756532D01*
X136633187Y-90562403D01*
X136683902Y-90397510D01*
X136734618Y-90232616D01*
X136728302Y-90211628D01*
X136721986Y-90190639D01*
X136720462Y-90163136D01*
X136718938Y-90135634D01*
X136721365Y-90102714D01*
X136723792Y-90069795D01*
X136729349Y-90032558D01*
X136734903Y-89995321D01*
X136742771Y-89954865D01*
X136750640Y-89914409D01*
X136759995Y-89871832D01*
X136769351Y-89829255D01*
X136779373Y-89785656D01*
X136789395Y-89742057D01*
X136799255Y-89698533D01*
X136809119Y-89655010D01*
X136818001Y-89612660D01*
X136826882Y-89570311D01*
X136833960Y-89530234D01*
X136841036Y-89490157D01*
X136845483Y-89453451D01*
X136849931Y-89416745D01*
X136850947Y-89384508D01*
X136851935Y-89352271D01*
X136848658Y-89325601D01*
X136845382Y-89298931D01*
X136837005Y-89278927D01*
X136828629Y-89258923D01*
X136814332Y-89246683D01*
X136800034Y-89234443D01*
X136778992Y-89231065D01*
X136757949Y-89227686D01*
X136757950Y-89227686D01*
X136757950Y-89227686D01*
X136757944Y-89227693D01*
X136757905Y-89227708D01*
X136757905Y-89227708D01*
G37*
G36*
X130540197Y-90076579D02*
X130458605Y-90242783D01*
X130377012Y-90408987D01*
X130292009Y-90593318D01*
X130207005Y-90777650D01*
X130120902Y-90976951D01*
X130034800Y-91176252D01*
X129949911Y-91387365D01*
X129865022Y-91598478D01*
X129783659Y-91818245D01*
X129702297Y-92038012D01*
X129626774Y-92263273D01*
X129551251Y-92488535D01*
X129483880Y-92716136D01*
X129416509Y-92943734D01*
X129359602Y-93170514D01*
X129302696Y-93397291D01*
X129258566Y-93620091D01*
X129214437Y-93842891D01*
X129185397Y-94058554D01*
X129156358Y-94274217D01*
X129144719Y-94479585D01*
X129133080Y-94684952D01*
X129141157Y-94876869D01*
X129149234Y-95068783D01*
X129179341Y-95244088D01*
X129209447Y-95419390D01*
X129263894Y-95574926D01*
X129318341Y-95730458D01*
X129399441Y-95863066D01*
X129480542Y-95995671D01*
X129590608Y-96102193D01*
X129700674Y-96208715D01*
X129860265Y-96172867D01*
X130019856Y-96137019D01*
X130187027Y-96105153D01*
X130354197Y-96073288D01*
X130525393Y-96043228D01*
X130696590Y-96013166D01*
X130868259Y-95982731D01*
X131039928Y-95952293D01*
X131208518Y-95919307D01*
X131377107Y-95886318D01*
X131539062Y-95848599D01*
X131701018Y-95810883D01*
X131852787Y-95766258D01*
X132004556Y-95721630D01*
X132142585Y-95667921D01*
X132280614Y-95614208D01*
X132401351Y-95549235D01*
X132522087Y-95484259D01*
X132621977Y-95405844D01*
X132721867Y-95327425D01*
X132797357Y-95233389D01*
X132872848Y-95139350D01*
X132920386Y-95027516D01*
X132967924Y-94915683D01*
X132983957Y-94783874D01*
X132999990Y-94652062D01*
X132980963Y-94498098D01*
X132961936Y-94344135D01*
X132904297Y-94165838D01*
X132846659Y-93987542D01*
X132746855Y-93782739D01*
X132647051Y-93577933D01*
X132576795Y-93427805D01*
X132506538Y-93277674D01*
X132469127Y-93111174D01*
X132431716Y-92944674D01*
X132420960Y-92766005D01*
X132410205Y-92587336D01*
X132419913Y-92400699D01*
X132429622Y-92214062D01*
X132453605Y-92023658D01*
X132477588Y-91833254D01*
X132509654Y-91643285D01*
X132541719Y-91453315D01*
X132575677Y-91267982D01*
X132609635Y-91082648D01*
X132639295Y-90906152D01*
X132668955Y-90729656D01*
X132688126Y-90566199D01*
X132707297Y-90402741D01*
X132709781Y-90256523D01*
X132712264Y-90110305D01*
X132691888Y-89985528D01*
X132671509Y-89860752D01*
X132622071Y-89761617D01*
X132572633Y-89662483D01*
X132487944Y-89593193D01*
X132403254Y-89523903D01*
X132277124Y-89488657D01*
X132150993Y-89453412D01*
X131977230Y-89456412D01*
X131803467Y-89459415D01*
X131575882Y-89504864D01*
X131348296Y-89550313D01*
X131298143Y-89523064D01*
X131247989Y-89495816D01*
X131203585Y-89478758D01*
X131159182Y-89461700D01*
X131120007Y-89453900D01*
X131080832Y-89446096D01*
X131046365Y-89446633D01*
X131011899Y-89447169D01*
X130981620Y-89455071D01*
X130951341Y-89462976D01*
X130924730Y-89477330D01*
X130898119Y-89491681D01*
X130874653Y-89511547D01*
X130851186Y-89531412D01*
X130830347Y-89555858D01*
X130809507Y-89580304D01*
X130790773Y-89608394D01*
X130772039Y-89636484D01*
X130754889Y-89667280D01*
X130737738Y-89698077D01*
X130721652Y-89730646D01*
X130705565Y-89763215D01*
X130690023Y-89796622D01*
X130674481Y-89830028D01*
X130658962Y-89863337D01*
X130643442Y-89896645D01*
X130627423Y-89928920D01*
X130611404Y-89961196D01*
X130594366Y-89991502D01*
X130577329Y-90021809D01*
X130558753Y-90049207D01*
X130540197Y-90076579D01*
X130540197Y-90076579D01*
G37*
G36*
X149484968Y-64138977D02*
X149389566Y-64121337D01*
X149294164Y-64103698D01*
X149188629Y-64094687D01*
X149083092Y-64085677D01*
X148971454Y-64084307D01*
X148859815Y-64082936D01*
X148746108Y-64088217D01*
X148632398Y-64093498D01*
X148520652Y-64104442D01*
X148408903Y-64115385D01*
X148303149Y-64131002D01*
X148197393Y-64146619D01*
X148101662Y-64165921D01*
X148005931Y-64185222D01*
X147924256Y-64207220D01*
X147842580Y-64229217D01*
X147778992Y-64252921D01*
X147715404Y-64276625D01*
X147673936Y-64301048D01*
X147632467Y-64325470D01*
X147617148Y-64349621D01*
X147601829Y-64373773D01*
X147616693Y-64396665D01*
X147631558Y-64419556D01*
X147680636Y-64440199D01*
X147729713Y-64460842D01*
X147817036Y-64478248D01*
X147904358Y-64495654D01*
X148033958Y-64508833D01*
X148163558Y-64522012D01*
X148339465Y-64529976D01*
X148515374Y-64537940D01*
X148614451Y-64549873D01*
X148713528Y-64561806D01*
X148848588Y-64570288D01*
X148983646Y-64578770D01*
X149146341Y-64583854D01*
X149309034Y-64588939D01*
X149491016Y-64590680D01*
X149672996Y-64592421D01*
X149865918Y-64590872D01*
X150058839Y-64589322D01*
X150254354Y-64584537D01*
X150449866Y-64579751D01*
X150639624Y-64571783D01*
X150829382Y-64563814D01*
X151005037Y-64552717D01*
X151180692Y-64541619D01*
X151333896Y-64527446D01*
X151487101Y-64513272D01*
X151609506Y-64496077D01*
X151731912Y-64478882D01*
X151815170Y-64458719D01*
X151898428Y-64438556D01*
X151934194Y-64415479D01*
X151969960Y-64392401D01*
X151949894Y-64366463D01*
X151929828Y-64340525D01*
X151845563Y-64311779D01*
X151761297Y-64283033D01*
X151604494Y-64251534D01*
X151447691Y-64220035D01*
X151210007Y-64185836D01*
X150972319Y-64151637D01*
X150925851Y-64150390D01*
X150879383Y-64149143D01*
X150832915Y-64148033D01*
X150786445Y-64146922D01*
X150739971Y-64145942D01*
X150693498Y-64144963D01*
X150647024Y-64144109D01*
X150600548Y-64143256D01*
X150554071Y-64142525D01*
X150507595Y-64141793D01*
X150461116Y-64141178D01*
X150414637Y-64140563D01*
X150368157Y-64140060D01*
X150321675Y-64139557D01*
X150275196Y-64139161D01*
X150228714Y-64138765D01*
X150182232Y-64138471D01*
X150135747Y-64138177D01*
X150089265Y-64137981D01*
X150042781Y-64137785D01*
X149996299Y-64137681D01*
X149949814Y-64137577D01*
X149903332Y-64137561D01*
X149856847Y-64137545D01*
X149810365Y-64137612D01*
X149763880Y-64137679D01*
X149717398Y-64137824D01*
X149670916Y-64137969D01*
X149624434Y-64138187D01*
X149577949Y-64138405D01*
X149531470Y-64138692D01*
X149484968Y-64138977D01*
X149484968Y-64138977D01*
G37*
G36*
X144660731Y-64430018D02*
X144480615Y-64454791D01*
X144300499Y-64479563D01*
X144183513Y-64507412D01*
X144066527Y-64535260D01*
X144004471Y-64564842D01*
X143942416Y-64594423D01*
X143927091Y-64624394D01*
X143911763Y-64654365D01*
X143934965Y-64683383D01*
X143958166Y-64712400D01*
X144011697Y-64739120D01*
X144065227Y-64765840D01*
X144140884Y-64788919D01*
X144216541Y-64811999D01*
X144306125Y-64830095D01*
X144395709Y-64848191D01*
X144491018Y-64859959D01*
X144586328Y-64871727D01*
X144679162Y-64875825D01*
X144771996Y-64879923D01*
X144854155Y-64875007D01*
X144936314Y-64870091D01*
X144999596Y-64854818D01*
X145062878Y-64839544D01*
X145099083Y-64812570D01*
X145135288Y-64785596D01*
X145136220Y-64745578D01*
X145137151Y-64705560D01*
X145094599Y-64651155D01*
X145052048Y-64596749D01*
X144957817Y-64526613D01*
X144863586Y-64456477D01*
X144857247Y-64455650D01*
X144850909Y-64454823D01*
X144844570Y-64453996D01*
X144838231Y-64453170D01*
X144831892Y-64452343D01*
X144825554Y-64451516D01*
X144819215Y-64450689D01*
X144812876Y-64449862D01*
X144806538Y-64449035D01*
X144800199Y-64448208D01*
X144793860Y-64447381D01*
X144787521Y-64446554D01*
X144781183Y-64445727D01*
X144774844Y-64444900D01*
X144768505Y-64444073D01*
X144762167Y-64443247D01*
X144755828Y-64442420D01*
X144749489Y-64441593D01*
X144743150Y-64440766D01*
X144736812Y-64439939D01*
X144730473Y-64439112D01*
X144724134Y-64438285D01*
X144717796Y-64437458D01*
X144711457Y-64436631D01*
X144705118Y-64435804D01*
X144698780Y-64434977D01*
X144692441Y-64434151D01*
X144686102Y-64433324D01*
X144679763Y-64432497D01*
X144673425Y-64431670D01*
X144667077Y-64430846D01*
X144660731Y-64430018D01*
X144660731Y-64430018D01*
G37*
G36*
X155138232Y-64447657D02*
X154998786Y-64515236D01*
X154859340Y-64582814D01*
X154778097Y-64636900D01*
X154696853Y-64690985D01*
X154665324Y-64732538D01*
X154633794Y-64774090D01*
X154643502Y-64804071D01*
X154653182Y-64834052D01*
X154695620Y-64853421D01*
X154738055Y-64872790D01*
X154804744Y-64882508D01*
X154871433Y-64892226D01*
X154953885Y-64893254D01*
X155036336Y-64894281D01*
X155126063Y-64887579D01*
X155215790Y-64880878D01*
X155304306Y-64867407D01*
X155392819Y-64853936D01*
X155471635Y-64834657D01*
X155550451Y-64815378D01*
X155611078Y-64791250D01*
X155671708Y-64767123D01*
X155705662Y-64739109D01*
X155739614Y-64711094D01*
X155738203Y-64680153D01*
X155737074Y-64649212D01*
X155692215Y-64616305D01*
X155647352Y-64583397D01*
X155550353Y-64549484D01*
X155453356Y-64515572D01*
X155295794Y-64481615D01*
X155138232Y-64447657D01*
X155138232Y-64447657D01*
G37*
G36*
X142570523Y-64738699D02*
X142394231Y-64781663D01*
X142217938Y-64824626D01*
X142110751Y-64863052D01*
X142003565Y-64901478D01*
X141955713Y-64935111D01*
X141907862Y-64968744D01*
X141909583Y-64997329D01*
X141911305Y-65025914D01*
X141952808Y-65049195D01*
X141994311Y-65072477D01*
X142065835Y-65090200D01*
X142137358Y-65107923D01*
X142229130Y-65119833D01*
X142320902Y-65131743D01*
X142423151Y-65137584D01*
X142525400Y-65143425D01*
X142628354Y-65142943D01*
X142731308Y-65142460D01*
X142825196Y-65135398D01*
X142919084Y-65128337D01*
X142994135Y-65114441D01*
X143069185Y-65100545D01*
X143115626Y-65079560D01*
X143162067Y-65058574D01*
X143170127Y-65030245D01*
X143178187Y-65001915D01*
X143138095Y-64965985D01*
X143098002Y-64930056D01*
X142999985Y-64886272D01*
X142901969Y-64842488D01*
X142736256Y-64790593D01*
X142570523Y-64738699D01*
X142570523Y-64738699D01*
G37*
G36*
X157025593Y-64747518D02*
X156860775Y-64795452D01*
X156695960Y-64843385D01*
X156595941Y-64885392D01*
X156495921Y-64927400D01*
X156451522Y-64963383D01*
X156407123Y-64999365D01*
X156409098Y-65029223D01*
X156411074Y-65059080D01*
X156450385Y-65082713D01*
X156489698Y-65106346D01*
X156557104Y-65123654D01*
X156624510Y-65140962D01*
X156710831Y-65151846D01*
X156797154Y-65162730D01*
X156893217Y-65167089D01*
X156989280Y-65171449D01*
X157085907Y-65169185D01*
X157182537Y-65166922D01*
X157270556Y-65157934D01*
X157358573Y-65148946D01*
X157428804Y-65133135D01*
X157499035Y-65117323D01*
X157542302Y-65094588D01*
X157585573Y-65071854D01*
X157592685Y-65042096D01*
X157599797Y-65012338D01*
X157561615Y-64975458D01*
X157523433Y-64938577D01*
X157430763Y-64894474D01*
X157338092Y-64850371D01*
X157181758Y-64798945D01*
X157025593Y-64747518D01*
X157025593Y-64747518D01*
G37*
G36*
X149467330Y-65056199D02*
X149380312Y-65046318D01*
X149293294Y-65036437D01*
X149186411Y-65031193D01*
X149079525Y-65025949D01*
X148958412Y-65024981D01*
X148837297Y-65024013D01*
X148707587Y-65026965D01*
X148577875Y-65029918D01*
X148445203Y-65036430D01*
X148312530Y-65042943D01*
X148182530Y-65052656D01*
X148052530Y-65062371D01*
X147930837Y-65074927D01*
X147809145Y-65087483D01*
X147701395Y-65102523D01*
X147593644Y-65117563D01*
X147505471Y-65134728D01*
X147417297Y-65151893D01*
X147354335Y-65170824D01*
X147291372Y-65189755D01*
X147259255Y-65210094D01*
X147227139Y-65230432D01*
X147231502Y-65251819D01*
X147235865Y-65273206D01*
X147282344Y-65295282D01*
X147328822Y-65317358D01*
X147423050Y-65339765D01*
X147517279Y-65362172D01*
X147664891Y-65384551D01*
X147812503Y-65406930D01*
X148019134Y-65428923D01*
X148225765Y-65450915D01*
X148574675Y-65474966D01*
X148923583Y-65499016D01*
X149272664Y-65524790D01*
X149621745Y-65550563D01*
X149970842Y-65578563D01*
X150319943Y-65606563D01*
X150668905Y-65637292D01*
X151017867Y-65668021D01*
X151366538Y-65701983D01*
X151715213Y-65735944D01*
X152063441Y-65773641D01*
X152411672Y-65811338D01*
X152759302Y-65853273D01*
X153106935Y-65895208D01*
X153453814Y-65941884D01*
X153800694Y-65988560D01*
X154146670Y-66040481D01*
X154492643Y-66092401D01*
X154837555Y-66150069D01*
X155182470Y-66207736D01*
X155526172Y-66271654D01*
X155869873Y-66335572D01*
X156212206Y-66406243D01*
X156554539Y-66476914D01*
X156895350Y-66554841D01*
X157236162Y-66632768D01*
X157575297Y-66718454D01*
X157914435Y-66804141D01*
X158251741Y-66898089D01*
X158589051Y-66992037D01*
X158924373Y-67094751D01*
X159259698Y-67197465D01*
X159437069Y-67242833D01*
X159614443Y-67288202D01*
X159789347Y-67340478D01*
X159964254Y-67392754D01*
X160136924Y-67451257D01*
X160309593Y-67509759D01*
X160480255Y-67573809D01*
X160650921Y-67637858D01*
X160819814Y-67706774D01*
X160988710Y-67775690D01*
X161156062Y-67848791D01*
X161323417Y-67921892D01*
X161489462Y-67998499D01*
X161655511Y-68075106D01*
X161820481Y-68154538D01*
X161985454Y-68233970D01*
X162149580Y-68315547D01*
X162313709Y-68397124D01*
X162477226Y-68480165D01*
X162640745Y-68563207D01*
X162803884Y-68647032D01*
X162967025Y-68730857D01*
X163130017Y-68814786D01*
X163293012Y-68898715D01*
X163456088Y-68982068D01*
X163619168Y-69065420D01*
X163782563Y-69147515D01*
X163945961Y-69229611D01*
X164109907Y-69309769D01*
X164273855Y-69389927D01*
X164438583Y-69467468D01*
X164603313Y-69545008D01*
X164736381Y-69639564D01*
X164869449Y-69734119D01*
X165002260Y-69828978D01*
X165135073Y-69923836D01*
X165267385Y-70019268D01*
X165399696Y-70114699D01*
X165531262Y-70210975D01*
X165662832Y-70307250D01*
X165793407Y-70404639D01*
X165923983Y-70502028D01*
X166053326Y-70600803D01*
X166182668Y-70699576D01*
X166310529Y-70800005D01*
X166438390Y-70900434D01*
X166564526Y-71002789D01*
X166690662Y-71105143D01*
X166814829Y-71209693D01*
X166938995Y-71314244D01*
X167060946Y-71421260D01*
X167182900Y-71528277D01*
X167302393Y-71638031D01*
X167421886Y-71747784D01*
X167538672Y-71860545D01*
X167655462Y-71973306D01*
X167769299Y-72089344D01*
X167883136Y-72205383D01*
X167993778Y-72324970D01*
X168104423Y-72444556D01*
X168211626Y-72567962D01*
X168318831Y-72691367D01*
X168422350Y-72818862D01*
X168525872Y-72946356D01*
X168621494Y-73043661D01*
X168717119Y-73140965D01*
X168807515Y-73242357D01*
X168897911Y-73343749D01*
X168983537Y-73448841D01*
X169069163Y-73553932D01*
X169150474Y-73662337D01*
X169231788Y-73770740D01*
X169309244Y-73882069D01*
X169386700Y-73993398D01*
X169460755Y-74107263D01*
X169534810Y-74221129D01*
X169605922Y-74337144D01*
X169677033Y-74453159D01*
X169745656Y-74570936D01*
X169814281Y-74688713D01*
X169880874Y-74807864D01*
X169947467Y-74927015D01*
X170012485Y-75047153D01*
X170077507Y-75167290D01*
X170141407Y-75288027D01*
X170205311Y-75408764D01*
X170268551Y-75529712D01*
X170331795Y-75650660D01*
X170394834Y-75771432D01*
X170457872Y-75892203D01*
X170521163Y-76012412D01*
X170584451Y-76132620D01*
X170648451Y-76251876D01*
X170712450Y-76371133D01*
X170777618Y-76489050D01*
X170842783Y-76606968D01*
X170875671Y-76747795D01*
X170908555Y-76888623D01*
X170943963Y-77029166D01*
X170979370Y-77169709D01*
X171016437Y-77310059D01*
X171053504Y-77450410D01*
X171091367Y-77590660D01*
X171129230Y-77730911D01*
X171167026Y-77871155D01*
X171204824Y-78011398D01*
X171241687Y-78151727D01*
X171278554Y-78292056D01*
X171313629Y-78432563D01*
X171348700Y-78573070D01*
X171381116Y-78713848D01*
X171413535Y-78854626D01*
X171442432Y-78995767D01*
X171471332Y-79136908D01*
X171495857Y-79278505D01*
X171520382Y-79420102D01*
X171539658Y-79562248D01*
X171558933Y-79704393D01*
X171572085Y-79847180D01*
X171585236Y-79989967D01*
X171591445Y-80133488D01*
X171597654Y-80277009D01*
X171595961Y-80421356D01*
X171594268Y-80565703D01*
X171583910Y-80710969D01*
X171573581Y-80856235D01*
X171553684Y-81002513D01*
X171533787Y-81148791D01*
X171511379Y-81240747D01*
X171488970Y-81332704D01*
X171464840Y-81424882D01*
X171440710Y-81517061D01*
X171414690Y-81609230D01*
X171388669Y-81701399D01*
X171360588Y-81793327D01*
X171332506Y-81885256D01*
X171302216Y-81976713D01*
X171271925Y-82068169D01*
X171239252Y-82158923D01*
X171206579Y-82249677D01*
X171171366Y-82339497D01*
X171136150Y-82429316D01*
X171098228Y-82517971D01*
X171060306Y-82606625D01*
X171019511Y-82693883D01*
X170978718Y-82781141D01*
X170934892Y-82866772D01*
X170891066Y-82952402D01*
X170844042Y-83036173D01*
X170797015Y-83119944D01*
X170746630Y-83201626D01*
X170696245Y-83283307D01*
X170642335Y-83362667D01*
X170588425Y-83442027D01*
X170530826Y-83518835D01*
X170473227Y-83595643D01*
X170411779Y-83669667D01*
X170350328Y-83743691D01*
X170284864Y-83814700D01*
X170219400Y-83885709D01*
X170167047Y-83778427D01*
X170114695Y-83671145D01*
X170063192Y-83564689D01*
X170011687Y-83458233D01*
X169961731Y-83352384D01*
X169911772Y-83246536D01*
X169864059Y-83141077D01*
X169816344Y-83035619D01*
X169771569Y-82930334D01*
X169726792Y-82825049D01*
X169685655Y-82719720D01*
X169644516Y-82614390D01*
X169607711Y-82508799D01*
X169570907Y-82403208D01*
X169539131Y-82297137D01*
X169507356Y-82191067D01*
X169481307Y-82084300D01*
X169455257Y-81977533D01*
X169435643Y-81869852D01*
X169416029Y-81762172D01*
X169403526Y-81653359D01*
X169391024Y-81544547D01*
X169386339Y-81434386D01*
X169381654Y-81324225D01*
X169385492Y-81212498D01*
X169389330Y-81100771D01*
X169402369Y-80987261D01*
X169415408Y-80873750D01*
X169438352Y-80758239D01*
X169461297Y-80642727D01*
X169494850Y-80524998D01*
X169528401Y-80407268D01*
X169552333Y-80204722D01*
X169576238Y-80002175D01*
X169582080Y-79801548D01*
X169587893Y-79600920D01*
X169576943Y-79402333D01*
X169565993Y-79203745D01*
X169539549Y-79007319D01*
X169513076Y-78810892D01*
X169472425Y-78616747D01*
X169431771Y-78422601D01*
X169378228Y-78230857D01*
X169324685Y-78039114D01*
X169259551Y-77849893D01*
X169194414Y-77660672D01*
X169118990Y-77474094D01*
X169043563Y-77287517D01*
X168959148Y-77103703D01*
X168874732Y-76919889D01*
X168782629Y-76738960D01*
X168690523Y-76558031D01*
X168592030Y-76380107D01*
X168493537Y-76202183D01*
X168389956Y-76027385D01*
X168286375Y-75852587D01*
X168179006Y-75681036D01*
X168071638Y-75509485D01*
X167961783Y-75341301D01*
X167851928Y-75173117D01*
X167740887Y-75008421D01*
X167629844Y-74843725D01*
X167518917Y-74682637D01*
X167407989Y-74521550D01*
X166992976Y-74036502D01*
X166577963Y-73551454D01*
X166131910Y-73102838D01*
X165685858Y-72654222D01*
X165211217Y-72241112D01*
X164736576Y-71828001D01*
X164235798Y-71449469D01*
X163735017Y-71070936D01*
X163210552Y-70726055D01*
X162686087Y-70381173D01*
X162140388Y-70069016D01*
X161594686Y-69756858D01*
X161030202Y-69476498D01*
X160465715Y-69196137D01*
X159884896Y-68946647D01*
X159304077Y-68697156D01*
X158709379Y-68477608D01*
X158114677Y-68258060D01*
X157508546Y-68067528D01*
X156902412Y-67876995D01*
X156287300Y-67714551D01*
X155672185Y-67552107D01*
X155050546Y-67416825D01*
X154428903Y-67281543D01*
X153803183Y-67172495D01*
X153177462Y-67063447D01*
X152550116Y-66979707D01*
X151922767Y-66895967D01*
X151296245Y-66836606D01*
X150669720Y-66777246D01*
X150046472Y-66741339D01*
X149423221Y-66705432D01*
X149084989Y-66704831D01*
X148746757Y-66704227D01*
X148408446Y-66709150D01*
X148070135Y-66714073D01*
X147731910Y-66724735D01*
X147393686Y-66735396D01*
X147055709Y-66752008D01*
X146717732Y-66768620D01*
X146380167Y-66791394D01*
X146042601Y-66814169D01*
X145705609Y-66843317D01*
X145368617Y-66872466D01*
X145032362Y-66908200D01*
X144696107Y-66943935D01*
X144360751Y-66986468D01*
X144025395Y-67029002D01*
X143691102Y-67078545D01*
X143356809Y-67128088D01*
X143023741Y-67184854D01*
X142690673Y-67241620D01*
X142358993Y-67305820D01*
X142027313Y-67370020D01*
X141697185Y-67441867D01*
X141367056Y-67513713D01*
X141038641Y-67593418D01*
X140710226Y-67673123D01*
X140383688Y-67760898D01*
X140057150Y-67848673D01*
X139732651Y-67944731D01*
X139408152Y-68040788D01*
X139085856Y-68145340D01*
X138763560Y-68249892D01*
X138429925Y-68367331D01*
X138096289Y-68484770D01*
X137763802Y-68608238D01*
X137431314Y-68731705D01*
X137100605Y-68861650D01*
X136769896Y-68991594D01*
X136441596Y-69128463D01*
X136113295Y-69265331D01*
X135788035Y-69409570D01*
X135462774Y-69553810D01*
X135141183Y-69705867D01*
X134819592Y-69857925D01*
X134502302Y-70018248D01*
X134185011Y-70178571D01*
X133872652Y-70347607D01*
X133560293Y-70516643D01*
X133253495Y-70694839D01*
X132946698Y-70873036D01*
X132646093Y-71060839D01*
X132345487Y-71248643D01*
X132051705Y-71446501D01*
X131757922Y-71644359D01*
X131471593Y-71852719D01*
X131185264Y-72061079D01*
X130907019Y-72280388D01*
X130628774Y-72499697D01*
X130359243Y-72730403D01*
X130089712Y-72961108D01*
X129829527Y-73203657D01*
X129569341Y-73446207D01*
X129319131Y-73701047D01*
X129068921Y-73955887D01*
X128850977Y-74169946D01*
X128633034Y-74384006D01*
X128418735Y-74605161D01*
X128204436Y-74826315D01*
X127995150Y-75054490D01*
X127785865Y-75282663D01*
X127582960Y-75517780D01*
X127380056Y-75752897D01*
X127184902Y-75994880D01*
X126989747Y-76236863D01*
X126803710Y-76485637D01*
X126617674Y-76734410D01*
X126442123Y-76989897D01*
X126266573Y-77245384D01*
X126102877Y-77507508D01*
X125939181Y-77769632D01*
X125788707Y-78038318D01*
X125638234Y-78307003D01*
X125502351Y-78582172D01*
X125366468Y-78857342D01*
X125246545Y-79138920D01*
X125126622Y-79420498D01*
X125024025Y-79708408D01*
X124921429Y-79996318D01*
X124837529Y-80290483D01*
X124753628Y-80584649D01*
X124689792Y-80884993D01*
X124625955Y-81185338D01*
X124583550Y-81491785D01*
X124541146Y-81798232D01*
X124521543Y-82110705D01*
X124501939Y-82423179D01*
X124489451Y-82578588D01*
X124476963Y-82733998D01*
X124474141Y-82889564D01*
X124471318Y-83045129D01*
X124477784Y-83200529D01*
X124484250Y-83355928D01*
X124499608Y-83510838D01*
X124514967Y-83665748D01*
X124538826Y-83819846D01*
X124562685Y-83973943D01*
X124594653Y-84126906D01*
X124626622Y-84279868D01*
X124666308Y-84431371D01*
X124705995Y-84582875D01*
X124753009Y-84732597D01*
X124800022Y-84882319D01*
X124853972Y-85029937D01*
X124907923Y-85177555D01*
X124968418Y-85322745D01*
X125028913Y-85467935D01*
X125095563Y-85610374D01*
X125162212Y-85752814D01*
X125234625Y-85892180D01*
X125307038Y-86031546D01*
X125384822Y-86167516D01*
X125462607Y-86303485D01*
X125545373Y-86435735D01*
X125628140Y-86567985D01*
X125715496Y-86696192D01*
X125802852Y-86824399D01*
X125894407Y-86948241D01*
X125985963Y-87072083D01*
X126091946Y-87138379D01*
X126197930Y-87204676D01*
X126295064Y-87287114D01*
X126392197Y-87369552D01*
X126479359Y-87463957D01*
X126566521Y-87558361D01*
X126642587Y-87660559D01*
X126718653Y-87762756D01*
X126782501Y-87868571D01*
X126846349Y-87974387D01*
X126896856Y-88079646D01*
X126947362Y-88184906D01*
X126983405Y-88285435D01*
X127019447Y-88385963D01*
X127039903Y-88477587D01*
X127060358Y-88569211D01*
X127064103Y-88647755D01*
X127067845Y-88726299D01*
X127053757Y-88787590D01*
X127039668Y-88848881D01*
X127006623Y-88888743D01*
X126973578Y-88928606D01*
X126920453Y-88942867D01*
X126867328Y-88957127D01*
X126793001Y-88941611D01*
X126718674Y-88926094D01*
X126622021Y-88876626D01*
X126525369Y-88827158D01*
X126405267Y-88739564D01*
X126285166Y-88651971D01*
X126140494Y-88522077D01*
X125995821Y-88392183D01*
X125735381Y-88139399D01*
X125474941Y-87886615D01*
X125248384Y-87613075D01*
X125021827Y-87339535D01*
X124828344Y-87047663D01*
X124634860Y-86755790D01*
X124473642Y-86448009D01*
X124312423Y-86140228D01*
X124182659Y-85818962D01*
X124052894Y-85497696D01*
X123953775Y-85165367D01*
X123854656Y-84833039D01*
X123785372Y-84492072D01*
X123716088Y-84151105D01*
X123675830Y-83803923D01*
X123635572Y-83456741D01*
X123623529Y-83105767D01*
X123611487Y-82754793D01*
X123626851Y-82402452D01*
X123642215Y-82050110D01*
X123684177Y-81698823D01*
X123726138Y-81347536D01*
X123793886Y-80999728D01*
X123861634Y-80651920D01*
X123954360Y-80310014D01*
X124047086Y-79968108D01*
X124163980Y-79634528D01*
X124280874Y-79300947D01*
X124421126Y-78978116D01*
X124561378Y-78655284D01*
X124724179Y-78345625D01*
X124886980Y-78035966D01*
X125024570Y-77774407D01*
X125162159Y-77512847D01*
X125309981Y-77258486D01*
X125457804Y-77004125D01*
X125615145Y-76756550D01*
X125772487Y-76508974D01*
X125938634Y-76267769D01*
X126104782Y-76026564D01*
X126279021Y-75791316D01*
X126453260Y-75556068D01*
X126634878Y-75326362D01*
X126816496Y-75096656D01*
X127004779Y-74872078D01*
X127193061Y-74647500D01*
X127387294Y-74427636D01*
X127581528Y-74207772D01*
X127780999Y-73992208D01*
X127980470Y-73776644D01*
X128184465Y-73564966D01*
X128388459Y-73353287D01*
X128596264Y-73145080D01*
X128804069Y-72936873D01*
X129014970Y-72731723D01*
X129225871Y-72526573D01*
X129439156Y-72324066D01*
X129652440Y-72121559D01*
X129867393Y-71921280D01*
X130082346Y-71721002D01*
X130298255Y-71522539D01*
X130514164Y-71324075D01*
X130730315Y-71127012D01*
X130946465Y-70929948D01*
X130786792Y-70961129D01*
X130627119Y-70992309D01*
X130467593Y-71047711D01*
X130308068Y-71103113D01*
X130148920Y-71180200D01*
X129989773Y-71257287D01*
X129831232Y-71353524D01*
X129672691Y-71449760D01*
X129514987Y-71562610D01*
X129357282Y-71675459D01*
X129200644Y-71802385D01*
X129044005Y-71929311D01*
X128888661Y-72067778D01*
X128733318Y-72206245D01*
X128579499Y-72353716D01*
X128425679Y-72501187D01*
X128273614Y-72655126D01*
X128121548Y-72809065D01*
X127971466Y-72966936D01*
X127821384Y-73124807D01*
X127673515Y-73284074D01*
X127525645Y-73443340D01*
X127380218Y-73601467D01*
X127234790Y-73759593D01*
X127092034Y-73914042D01*
X126949278Y-74068491D01*
X126809423Y-74216728D01*
X126669567Y-74364964D01*
X126532842Y-74504451D01*
X126396117Y-74643939D01*
X126262751Y-74772141D01*
X126129385Y-74900342D01*
X125883070Y-75195000D01*
X125636755Y-75489657D01*
X125405199Y-75794869D01*
X125173642Y-76100082D01*
X124956589Y-76415131D01*
X124739536Y-76730180D01*
X124536733Y-77054345D01*
X124333931Y-77378510D01*
X124145124Y-77711073D01*
X123956316Y-78043636D01*
X123781251Y-78383876D01*
X123606186Y-78724116D01*
X123444609Y-79071315D01*
X123283031Y-79418513D01*
X123134688Y-79771950D01*
X122986344Y-80125388D01*
X122850980Y-80484345D01*
X122715616Y-80843301D01*
X122592977Y-81207058D01*
X122470339Y-81570815D01*
X122360172Y-81938652D01*
X122250005Y-82306489D01*
X122152056Y-82677687D01*
X122054106Y-83048885D01*
X121968120Y-83422725D01*
X121882134Y-83796565D01*
X121807857Y-84172327D01*
X121733580Y-84548089D01*
X121670759Y-84925053D01*
X121607938Y-85302018D01*
X121556317Y-85679466D01*
X121504697Y-86056913D01*
X121491934Y-86187223D01*
X121479172Y-86317533D01*
X121483980Y-86444332D01*
X121488788Y-86571132D01*
X121509727Y-86694344D01*
X121530666Y-86817557D01*
X121566296Y-86937106D01*
X121601926Y-87056655D01*
X121650807Y-87172464D01*
X121699688Y-87288273D01*
X121760380Y-87400264D01*
X121821072Y-87512256D01*
X121892135Y-87620353D01*
X121963199Y-87728451D01*
X122043193Y-87832577D01*
X122123188Y-87936704D01*
X122210674Y-88036783D01*
X122298159Y-88136862D01*
X122391697Y-88232817D01*
X122485234Y-88328771D01*
X122583383Y-88420525D01*
X122681532Y-88512278D01*
X122782852Y-88599754D01*
X122884172Y-88687230D01*
X122987224Y-88770350D01*
X123090276Y-88853471D01*
X123193620Y-88932160D01*
X123296963Y-89010850D01*
X123399159Y-89085031D01*
X123501354Y-89159212D01*
X123600962Y-89228808D01*
X123700569Y-89298404D01*
X123812316Y-89342334D01*
X123924064Y-89386264D01*
X124033385Y-89438275D01*
X124142707Y-89490286D01*
X124247397Y-89547875D01*
X124352087Y-89605464D01*
X124449940Y-89666127D01*
X124547792Y-89726790D01*
X124636601Y-89788023D01*
X124725410Y-89849256D01*
X124802970Y-89908556D01*
X124880530Y-89967855D01*
X124944635Y-90022718D01*
X125008740Y-90077581D01*
X125057183Y-90125503D01*
X125105627Y-90173425D01*
X125136204Y-90211902D01*
X125166781Y-90250380D01*
X125177285Y-90276909D01*
X125187790Y-90303438D01*
X125176015Y-90315514D01*
X125164241Y-90327591D01*
X125127982Y-90322714D01*
X125091723Y-90317837D01*
X125028774Y-90293501D01*
X124965824Y-90269165D01*
X124873979Y-90222866D01*
X124782133Y-90176567D01*
X124659185Y-90105802D01*
X124536238Y-90035036D01*
X124379982Y-89937301D01*
X124223726Y-89839565D01*
X124101175Y-89851879D01*
X123978624Y-89864192D01*
X123920209Y-89893042D01*
X123861795Y-89921892D01*
X123858103Y-89966191D01*
X123854412Y-90010490D01*
X123896029Y-90069150D01*
X123937646Y-90127810D01*
X124015159Y-90199744D01*
X124092671Y-90271678D01*
X124196666Y-90355798D01*
X124300661Y-90439918D01*
X124421723Y-90535136D01*
X124542786Y-90630354D01*
X124671503Y-90735582D01*
X124800220Y-90840811D01*
X124927178Y-90954962D01*
X125054136Y-91069113D01*
X125169921Y-91191100D01*
X125285706Y-91313086D01*
X125380904Y-91441819D01*
X125476103Y-91570553D01*
X125541301Y-91704946D01*
X125606500Y-91839339D01*
X125632283Y-91978304D01*
X125658067Y-92117269D01*
X125635024Y-92259718D01*
X125611980Y-92402167D01*
X125530696Y-92547012D01*
X125449412Y-92691857D01*
X125300473Y-92838011D01*
X125151534Y-92984165D01*
X124984537Y-93195163D01*
X124817540Y-93406161D01*
X124712677Y-93610665D01*
X124607813Y-93815169D01*
X124559715Y-94011556D01*
X124511617Y-94207940D01*
X124514913Y-94394582D01*
X124518210Y-94581221D01*
X124567534Y-94756490D01*
X124616857Y-94931758D01*
X124706839Y-95094030D01*
X124796820Y-95256300D01*
X124922090Y-95403947D01*
X125047360Y-95551592D01*
X125202548Y-95682989D01*
X125357737Y-95814386D01*
X125537475Y-95927904D01*
X125717214Y-96041422D01*
X125916133Y-96135442D01*
X126115052Y-96229458D01*
X126327783Y-96302345D01*
X126540513Y-96375232D01*
X126761686Y-96425366D01*
X126982859Y-96475497D01*
X127207106Y-96501264D01*
X127431352Y-96527002D01*
X127653302Y-96526720D01*
X127875252Y-96526438D01*
X128089537Y-96498554D01*
X128303822Y-96470671D01*
X128505073Y-96413521D01*
X128706323Y-96356368D01*
X128668961Y-96129775D01*
X128631599Y-95903178D01*
X128616616Y-95671770D01*
X128601632Y-95440359D01*
X128606481Y-95205390D01*
X128611330Y-94970420D01*
X128633464Y-94733136D01*
X128655599Y-94495852D01*
X128692474Y-94257507D01*
X128729350Y-94019162D01*
X128778419Y-93781006D01*
X128827489Y-93542850D01*
X128886206Y-93306133D01*
X128944924Y-93069416D01*
X129010743Y-92835389D01*
X129076563Y-92601359D01*
X129146939Y-92371269D01*
X129217314Y-92141181D01*
X129289699Y-91916283D01*
X129362084Y-91691384D01*
X129433933Y-91472926D01*
X129505782Y-91254467D01*
X129574549Y-91043700D01*
X129643315Y-90832932D01*
X129706454Y-90631106D01*
X129769592Y-90429280D01*
X129824555Y-90237644D01*
X129879519Y-90046009D01*
X129923762Y-89865816D01*
X129968004Y-89685623D01*
X129998981Y-89518122D01*
X130029956Y-89350621D01*
X129856014Y-89324541D01*
X129682070Y-89298461D01*
X129520512Y-89255353D01*
X129358954Y-89212245D01*
X129208908Y-89153506D01*
X129058862Y-89094767D01*
X128919503Y-89021711D01*
X128780104Y-88948665D01*
X128650481Y-88862711D01*
X128520857Y-88776756D01*
X128400138Y-88679266D01*
X128279419Y-88581776D01*
X128166735Y-88474123D01*
X128054051Y-88366470D01*
X127948532Y-88250027D01*
X127843013Y-88133585D01*
X127743789Y-88009727D01*
X127644565Y-87885868D01*
X127550766Y-87755966D01*
X127456967Y-87626065D01*
X127367723Y-87491494D01*
X127278478Y-87356922D01*
X127192919Y-87219054D01*
X127107360Y-87081186D01*
X127024616Y-86941394D01*
X126941871Y-86801602D01*
X126861072Y-86661260D01*
X126780273Y-86520918D01*
X126700549Y-86381399D01*
X126620825Y-86241880D01*
X126541305Y-86104557D01*
X126461786Y-85967234D01*
X126390797Y-85864387D01*
X126319808Y-85761541D01*
X126254649Y-85655556D01*
X126189491Y-85549571D01*
X126130020Y-85440691D01*
X126070549Y-85331812D01*
X126016622Y-85220281D01*
X125962695Y-85108749D01*
X125914171Y-84994810D01*
X125865646Y-84880870D01*
X125822379Y-84764766D01*
X125779113Y-84648661D01*
X125740962Y-84530636D01*
X125702812Y-84412609D01*
X125669634Y-84292905D01*
X125636456Y-84173201D01*
X125608108Y-84052062D01*
X125579759Y-83930922D01*
X125556098Y-83808592D01*
X125532436Y-83686261D01*
X125513319Y-83562982D01*
X125494201Y-83439703D01*
X125479483Y-83315719D01*
X125464765Y-83191735D01*
X125454306Y-83067289D01*
X125443847Y-82942844D01*
X125437502Y-82818180D01*
X125431158Y-82693516D01*
X125428787Y-82568877D01*
X125426417Y-82444238D01*
X125427884Y-82319868D01*
X125429352Y-82195497D01*
X125445517Y-82014704D01*
X125461683Y-81833910D01*
X125485268Y-81653971D01*
X125508854Y-81474032D01*
X125539773Y-81295224D01*
X125570692Y-81116417D01*
X125608854Y-80939021D01*
X125647017Y-80761624D01*
X125692334Y-80585917D01*
X125737652Y-80410209D01*
X125790036Y-80236469D01*
X125842420Y-80062728D01*
X125901781Y-79891234D01*
X125961143Y-79719739D01*
X126027394Y-79550769D01*
X126093645Y-79381799D01*
X126166697Y-79215631D01*
X126239749Y-79049463D01*
X126319513Y-78886376D01*
X126399276Y-78723289D01*
X126485664Y-78563561D01*
X126572051Y-78403833D01*
X126664973Y-78247743D01*
X126757896Y-78091653D01*
X126857264Y-77939479D01*
X126956633Y-77787305D01*
X127062359Y-77639325D01*
X127168086Y-77491345D01*
X127280081Y-77347838D01*
X127392077Y-77204331D01*
X127510253Y-77065575D01*
X127628429Y-76926819D01*
X127710974Y-76813156D01*
X127793518Y-76699492D01*
X127876374Y-76586120D01*
X127959229Y-76472748D01*
X128042671Y-76359934D01*
X128126113Y-76247119D01*
X128210417Y-76135128D01*
X128294721Y-76023137D01*
X128380163Y-75912235D01*
X128465604Y-75801333D01*
X128552459Y-75691786D01*
X128639314Y-75582240D01*
X128727858Y-75474315D01*
X128816401Y-75366390D01*
X128906909Y-75260352D01*
X128997417Y-75154315D01*
X129090165Y-75050431D01*
X129182913Y-74946547D01*
X129278177Y-74845082D01*
X129373440Y-74743618D01*
X129471495Y-74644839D01*
X129569549Y-74546060D01*
X129670670Y-74450233D01*
X129771792Y-74354405D01*
X129876255Y-74261795D01*
X129980719Y-74169186D01*
X130088800Y-74080060D01*
X130196882Y-73990934D01*
X130308857Y-73905557D01*
X130420832Y-73820181D01*
X130536976Y-73738820D01*
X130653120Y-73657459D01*
X130767127Y-73556169D01*
X130881135Y-73454879D01*
X130996468Y-73355560D01*
X131111801Y-73256241D01*
X131228498Y-73158951D01*
X131345195Y-73061662D01*
X131463294Y-72966460D01*
X131581393Y-72871259D01*
X131700934Y-72778206D01*
X131820474Y-72685152D01*
X131941494Y-72594305D01*
X132062515Y-72503459D01*
X132185053Y-72414877D01*
X132307592Y-72326296D01*
X132431687Y-72240040D01*
X132555783Y-72153783D01*
X132681474Y-72069911D01*
X132807165Y-71986038D01*
X132934490Y-71904608D01*
X133061815Y-71823178D01*
X133190814Y-71744250D01*
X133319812Y-71665322D01*
X133450521Y-71588954D01*
X133581231Y-71512587D01*
X133713691Y-71438840D01*
X133846150Y-71365092D01*
X133980399Y-71294024D01*
X134114647Y-71222955D01*
X134250723Y-71154624D01*
X134386798Y-71086294D01*
X134524740Y-71020760D01*
X134662681Y-70955226D01*
X134862506Y-70839902D01*
X135062330Y-70724579D01*
X135265337Y-70615993D01*
X135468343Y-70507406D01*
X135674280Y-70405111D01*
X135880216Y-70302815D01*
X136088831Y-70206362D01*
X136297446Y-70109910D01*
X136508487Y-70018854D01*
X136719528Y-69927797D01*
X136932744Y-69841691D01*
X137145960Y-69755583D01*
X137361099Y-69673978D01*
X137576237Y-69592373D01*
X137793047Y-69514823D01*
X138009856Y-69437273D01*
X138228085Y-69363331D01*
X138446313Y-69289389D01*
X138665709Y-69218608D01*
X138885104Y-69147826D01*
X139105415Y-69079759D01*
X139325726Y-69011691D01*
X139546701Y-68945890D01*
X139767675Y-68880089D01*
X139989061Y-68816107D01*
X140210447Y-68752126D01*
X140431993Y-68689517D01*
X140653538Y-68626908D01*
X140874992Y-68565224D01*
X141096446Y-68503540D01*
X141317555Y-68442335D01*
X141538665Y-68381129D01*
X141957225Y-68313330D01*
X142375784Y-68245530D01*
X142796053Y-68186579D01*
X143216322Y-68127628D01*
X143638061Y-68077503D01*
X144059801Y-68027377D01*
X144482773Y-67986054D01*
X144905745Y-67944731D01*
X145329712Y-67912187D01*
X145753678Y-67879642D01*
X146178400Y-67855854D01*
X146603123Y-67832065D01*
X147028363Y-67817009D01*
X147453603Y-67801952D01*
X147879122Y-67795605D01*
X148304642Y-67789258D01*
X148730205Y-67791600D01*
X149155765Y-67793943D01*
X149581127Y-67804944D01*
X150006490Y-67815947D01*
X150431420Y-67835590D01*
X150856348Y-67855233D01*
X151280602Y-67883492D01*
X151704855Y-67911751D01*
X152128200Y-67948603D01*
X152551541Y-67985455D01*
X152973732Y-68030878D01*
X153395925Y-68076300D01*
X153816729Y-68130270D01*
X154237534Y-68184239D01*
X154656710Y-68246733D01*
X155075886Y-68309226D01*
X155533072Y-68429167D01*
X155990261Y-68549107D01*
X156445327Y-68687051D01*
X156900397Y-68824996D01*
X157351754Y-68981075D01*
X157803112Y-69137153D01*
X158249173Y-69311498D01*
X158695237Y-69485843D01*
X159134408Y-69678585D01*
X159573580Y-69871327D01*
X160004276Y-70082598D01*
X160434973Y-70293868D01*
X160855600Y-70523798D01*
X161276226Y-70753728D01*
X161685197Y-71002449D01*
X162094169Y-71251169D01*
X162489892Y-71518812D01*
X162885616Y-71786455D01*
X163266503Y-72073150D01*
X163647390Y-72359846D01*
X164011851Y-72665726D01*
X164376313Y-72971606D01*
X164722758Y-73296802D01*
X165069203Y-73621998D01*
X165396041Y-73966640D01*
X165722880Y-74311283D01*
X166028524Y-74675503D01*
X166334168Y-75039723D01*
X166617025Y-75423653D01*
X166899885Y-75807582D01*
X167158369Y-76211352D01*
X167416854Y-76615122D01*
X167534075Y-76793134D01*
X167651299Y-76971145D01*
X167741734Y-77153189D01*
X167832172Y-77335234D01*
X167898757Y-77520844D01*
X167965342Y-77706454D01*
X168011008Y-77895163D01*
X168056677Y-78083871D01*
X168084363Y-78275211D01*
X168112049Y-78466551D01*
X168124664Y-78660054D01*
X168137280Y-78853557D01*
X168137844Y-79048757D01*
X168138409Y-79243957D01*
X168129744Y-79440386D01*
X168121080Y-79636815D01*
X168106151Y-79834006D01*
X168091249Y-80031197D01*
X168073018Y-80228682D01*
X168054786Y-80426168D01*
X168036188Y-80623481D01*
X168017589Y-80820793D01*
X168001531Y-81017466D01*
X167985472Y-81214138D01*
X167974917Y-81409704D01*
X167964334Y-81605269D01*
X167962076Y-81799259D01*
X167959818Y-81993250D01*
X167969019Y-82185198D01*
X167978219Y-82377147D01*
X168001728Y-82566586D01*
X168025238Y-82756025D01*
X168179864Y-83159689D01*
X168334494Y-83563354D01*
X168494536Y-83969997D01*
X168654582Y-84376639D01*
X168816956Y-84786177D01*
X168979329Y-85195715D01*
X169140949Y-85608064D01*
X169302570Y-86020414D01*
X169460354Y-86435491D01*
X169618139Y-86850569D01*
X169769004Y-87268291D01*
X169919869Y-87686013D01*
X170060729Y-88106297D01*
X170201588Y-88526580D01*
X170329359Y-88949341D01*
X170457132Y-89372103D01*
X170568731Y-89797258D01*
X170680333Y-90222414D01*
X170772679Y-90649881D01*
X170865025Y-91077348D01*
X170935030Y-91507043D01*
X171005036Y-91936737D01*
X171049618Y-92368574D01*
X171094204Y-92800413D01*
X171110290Y-93234316D01*
X171126377Y-93668210D01*
X171110855Y-94104091D01*
X171095333Y-94539969D01*
X171045145Y-94977738D01*
X170994957Y-95415510D01*
X170907011Y-95855090D01*
X170819068Y-96294671D01*
X171012249Y-96351581D01*
X171205430Y-96408497D01*
X171418872Y-96443405D01*
X171632317Y-96478310D01*
X171859946Y-96491575D01*
X172087578Y-96504839D01*
X172323324Y-96496796D01*
X172559070Y-96488781D01*
X172796859Y-96459816D01*
X173034648Y-96430849D01*
X173268407Y-96381308D01*
X173502169Y-96331767D01*
X173725827Y-96262010D01*
X173949485Y-96192250D01*
X174156969Y-96102633D01*
X174364454Y-96013014D01*
X174549690Y-95903895D01*
X174734929Y-95794777D01*
X174891848Y-95666515D01*
X175048769Y-95538254D01*
X175171296Y-95391208D01*
X175293823Y-95244158D01*
X175375887Y-95078686D01*
X175457952Y-94913211D01*
X175493478Y-94729667D01*
X175529007Y-94546124D01*
X175511932Y-94344869D01*
X175494858Y-94143613D01*
X175419095Y-93925004D01*
X175343333Y-93706392D01*
X175202817Y-93470790D01*
X175062302Y-93235185D01*
X175018334Y-93077005D01*
X174974367Y-92918820D01*
X174906972Y-92765336D01*
X174839577Y-92611849D01*
X174754183Y-92462763D01*
X174668788Y-92313675D01*
X174570814Y-92168686D01*
X174472841Y-92023696D01*
X174367716Y-91882504D01*
X174262591Y-91741312D01*
X174155736Y-91603619D01*
X174048884Y-91465925D01*
X173945726Y-91331430D01*
X173842571Y-91196935D01*
X173748535Y-91065339D01*
X173654501Y-90933743D01*
X173575010Y-90804746D01*
X173495522Y-90675748D01*
X173436002Y-90549050D01*
X173376484Y-90422352D01*
X173342360Y-90297654D01*
X173308237Y-90172955D01*
X173304935Y-90049957D01*
X173301633Y-89926958D01*
X173334571Y-89805359D01*
X173367512Y-89683760D01*
X173442120Y-89563262D01*
X173516731Y-89442763D01*
X173638434Y-89323064D01*
X173760137Y-89203366D01*
X173934355Y-89084168D01*
X174108577Y-88964971D01*
X174231479Y-88842570D01*
X174354381Y-88720170D01*
X174464532Y-88566331D01*
X174574684Y-88412491D01*
X174670555Y-88234456D01*
X174766428Y-88056421D01*
X174846498Y-87861431D01*
X174926567Y-87666442D01*
X174989302Y-87461741D01*
X175052040Y-87257041D01*
X175095917Y-87049871D01*
X175139794Y-86842701D01*
X175163275Y-86640304D01*
X175186756Y-86437908D01*
X175188449Y-86247527D01*
X175190143Y-86057145D01*
X175168270Y-85886023D01*
X175146398Y-85714900D01*
X175099566Y-85570277D01*
X175052737Y-85425654D01*
X174979410Y-85314775D01*
X174906086Y-85203895D01*
X174804737Y-85134001D01*
X174703391Y-85064106D01*
X174572494Y-85042440D01*
X174441599Y-85020774D01*
X174279626Y-85054577D01*
X174117653Y-85088380D01*
X173923075Y-85184895D01*
X173728500Y-85281411D01*
X173499792Y-85447881D01*
X173271088Y-85614351D01*
X173172062Y-85728652D01*
X173073039Y-85842953D01*
X172966288Y-85941772D01*
X172859540Y-86040590D01*
X172747625Y-86123568D01*
X172635710Y-86206545D01*
X172521187Y-86273320D01*
X172406664Y-86340096D01*
X172292090Y-86390311D01*
X172177516Y-86440527D01*
X172065452Y-86473822D01*
X171953390Y-86507117D01*
X171846391Y-86523133D01*
X171739395Y-86539149D01*
X171640021Y-86537512D01*
X171540651Y-86535875D01*
X171451460Y-86516252D01*
X171362272Y-86496629D01*
X171285827Y-86458648D01*
X171209381Y-86420667D01*
X171148235Y-86363969D01*
X171087089Y-86307270D01*
X171043802Y-86231494D01*
X171000514Y-86155718D01*
X170977654Y-86060505D01*
X170954794Y-85965293D01*
X170954899Y-85850284D01*
X170955006Y-85735275D01*
X170980632Y-85600110D01*
X171006258Y-85464945D01*
X171059987Y-85309265D01*
X171113719Y-85153585D01*
X171282169Y-85000799D01*
X171450622Y-84848014D01*
X171603733Y-84684837D01*
X171756845Y-84521661D01*
X171895602Y-84348980D01*
X172034359Y-84176299D01*
X172159753Y-83994998D01*
X172285150Y-83813697D01*
X172398172Y-83624661D01*
X172511196Y-83435626D01*
X172612833Y-83239740D01*
X172714472Y-83043855D01*
X172805718Y-82842005D01*
X172896963Y-82640155D01*
X172978802Y-82433226D01*
X173060643Y-82226297D01*
X173134066Y-82015175D01*
X173207492Y-81804052D01*
X173273490Y-81589620D01*
X173339490Y-81375189D01*
X173399053Y-81158333D01*
X173458616Y-80941478D01*
X173512732Y-80723085D01*
X173566851Y-80504691D01*
X173616508Y-80285645D01*
X173666168Y-80066598D01*
X173712359Y-79847783D01*
X173758554Y-79628968D01*
X173802267Y-79411271D01*
X173845980Y-79193574D01*
X173888204Y-78977878D01*
X173930430Y-78762184D01*
X174025979Y-78685984D01*
X174121528Y-78609785D01*
X174212720Y-78569044D01*
X174303914Y-78528302D01*
X174390805Y-78519497D01*
X174477698Y-78510691D01*
X174560344Y-78530297D01*
X174642990Y-78549903D01*
X174721442Y-78594399D01*
X174799897Y-78638894D01*
X174874212Y-78704757D01*
X174948529Y-78770619D01*
X175018760Y-78854326D01*
X175088994Y-78938033D01*
X175155198Y-79036061D01*
X175221402Y-79134089D01*
X175283629Y-79242916D01*
X175345859Y-79351743D01*
X175404166Y-79467846D01*
X175462476Y-79583950D01*
X175516919Y-79703806D01*
X175571363Y-79823663D01*
X175621993Y-79943750D01*
X175672627Y-80063837D01*
X175719501Y-80180632D01*
X175766375Y-80297427D01*
X175809547Y-80407408D01*
X175852721Y-80517388D01*
X175892244Y-80617031D01*
X175931769Y-80716674D01*
X175967699Y-80802456D01*
X176003628Y-80888239D01*
X176073978Y-81133326D01*
X176144327Y-81378413D01*
X176201446Y-81626078D01*
X176258568Y-81873743D01*
X176302750Y-82123509D01*
X176346932Y-82373276D01*
X176378465Y-82624666D01*
X176410000Y-82876057D01*
X176429163Y-83128595D01*
X176448354Y-83381133D01*
X176455466Y-83634343D01*
X176462578Y-83887552D01*
X176457921Y-84140956D01*
X176453265Y-84394359D01*
X176437122Y-84647480D01*
X176420979Y-84900601D01*
X176393631Y-85152963D01*
X176366284Y-85405325D01*
X176328037Y-85656451D01*
X176289790Y-85907577D01*
X176240929Y-86156990D01*
X176192068Y-86406404D01*
X176132883Y-86653628D01*
X176073701Y-86900852D01*
X176004486Y-87145410D01*
X175935271Y-87389967D01*
X175856314Y-87631382D01*
X175777360Y-87872797D01*
X175688951Y-88110593D01*
X175600544Y-88348388D01*
X175502977Y-88582088D01*
X175405410Y-88815787D01*
X175446663Y-88883212D01*
X175487915Y-88950638D01*
X175540812Y-88977059D01*
X175593709Y-89003481D01*
X175656312Y-88993087D01*
X175718914Y-88982695D01*
X175789283Y-88939676D01*
X175859656Y-88896657D01*
X175935856Y-88825201D01*
X176012058Y-88753745D01*
X176092150Y-88658041D01*
X176172242Y-88562336D01*
X176254287Y-88446572D01*
X176336334Y-88330808D01*
X176418393Y-88199174D01*
X176500455Y-88067539D01*
X176580592Y-87924223D01*
X176660732Y-87780907D01*
X176737008Y-87630098D01*
X176813287Y-87479289D01*
X176883767Y-87325176D01*
X176954246Y-87171063D01*
X177016987Y-87017835D01*
X177079728Y-86864606D01*
X177132794Y-86716452D01*
X177185860Y-86568297D01*
X177227313Y-86429405D01*
X177268766Y-86290513D01*
X177296677Y-86165073D01*
X177324589Y-86039632D01*
X177337007Y-85931832D01*
X177349425Y-85824031D01*
X177378852Y-85605002D01*
X177408279Y-85385972D01*
X177431083Y-85166145D01*
X177453886Y-84946317D01*
X177470030Y-84725918D01*
X177486173Y-84505519D01*
X177495571Y-84284775D01*
X177504969Y-84064031D01*
X177507509Y-83843168D01*
X177510049Y-83622305D01*
X177505759Y-83401549D01*
X177501497Y-83180793D01*
X177490293Y-82960371D01*
X177479089Y-82739949D01*
X177460886Y-82520087D01*
X177442682Y-82300225D01*
X177417395Y-82081149D01*
X177392136Y-81862073D01*
X177359737Y-81644009D01*
X177327341Y-81425946D01*
X177287754Y-81209120D01*
X177248166Y-80992296D01*
X177201326Y-80776936D01*
X177154485Y-80561576D01*
X177100324Y-80347907D01*
X177046166Y-80134239D01*
X176984624Y-79922487D01*
X176923083Y-79710736D01*
X176854094Y-79501129D01*
X176785107Y-79291522D01*
X176708608Y-79084284D01*
X176632112Y-78877047D01*
X176402360Y-78412516D01*
X176172609Y-77947986D01*
X175917971Y-77499724D01*
X175663336Y-77051463D01*
X175385093Y-76619585D01*
X175106850Y-76187708D01*
X174806284Y-75772327D01*
X174505717Y-75356946D01*
X174184108Y-74958176D01*
X173862502Y-74559405D01*
X173521134Y-74177359D01*
X173179767Y-73795313D01*
X172819922Y-73430105D01*
X172460077Y-73064896D01*
X172083034Y-72716639D01*
X171705994Y-72368382D01*
X171313039Y-72037190D01*
X170920084Y-71705998D01*
X170512496Y-71391985D01*
X170104908Y-71077972D01*
X169683968Y-70781251D01*
X169263030Y-70484530D01*
X168830022Y-70205215D01*
X168397017Y-69925900D01*
X167953223Y-69664104D01*
X167509431Y-69402308D01*
X167056132Y-69158146D01*
X166602832Y-68913984D01*
X166141311Y-68687568D01*
X165679790Y-68461152D01*
X165211327Y-68252597D01*
X164742863Y-68044042D01*
X164563833Y-67956441D01*
X164384805Y-67868840D01*
X164203619Y-67786256D01*
X164022435Y-67703673D01*
X163839284Y-67625711D01*
X163656136Y-67547749D01*
X163471215Y-67474013D01*
X163286295Y-67400276D01*
X163099797Y-67330368D01*
X162913299Y-67260460D01*
X162725415Y-67193985D01*
X162537531Y-67127510D01*
X162348454Y-67064071D01*
X162159376Y-67000633D01*
X161969299Y-66939834D01*
X161779225Y-66879036D01*
X161588342Y-66820481D01*
X161397458Y-66761926D01*
X161205962Y-66705219D01*
X161014465Y-66648512D01*
X160822546Y-66593257D01*
X160630629Y-66538001D01*
X160438481Y-66483800D01*
X160246336Y-66429600D01*
X160054153Y-66376058D01*
X159861971Y-66322517D01*
X159669947Y-66269238D01*
X159477923Y-66215959D01*
X159286249Y-66162546D01*
X159094575Y-66109133D01*
X158903443Y-66055190D01*
X158712314Y-66001248D01*
X158498590Y-65961717D01*
X158284866Y-65922185D01*
X158071119Y-65882846D01*
X157857375Y-65843507D01*
X157643569Y-65804680D01*
X157429764Y-65765854D01*
X157215862Y-65727861D01*
X157001963Y-65689868D01*
X156787931Y-65653030D01*
X156573899Y-65616191D01*
X156359698Y-65580828D01*
X156145497Y-65545465D01*
X155931090Y-65511898D01*
X155716686Y-65478332D01*
X155502039Y-65446882D01*
X155287392Y-65415432D01*
X155072466Y-65386420D01*
X154857542Y-65357409D01*
X154642303Y-65331156D01*
X154427063Y-65304903D01*
X154211474Y-65281730D01*
X153995884Y-65258556D01*
X153779905Y-65238784D01*
X153563929Y-65219011D01*
X153347527Y-65202960D01*
X153131127Y-65186909D01*
X152914265Y-65174900D01*
X152697405Y-65162892D01*
X152480046Y-65155246D01*
X152262687Y-65147600D01*
X152044794Y-65144639D01*
X151826905Y-65141677D01*
X151753217Y-65137898D01*
X151679531Y-65134119D01*
X151605840Y-65130305D01*
X151532152Y-65126490D01*
X151458455Y-65122679D01*
X151384761Y-65118869D01*
X151311062Y-65115101D01*
X151237362Y-65111333D01*
X151163657Y-65107647D01*
X151089952Y-65103961D01*
X151016238Y-65100397D01*
X150942528Y-65096833D01*
X150868808Y-65093429D01*
X150795092Y-65090026D01*
X150721364Y-65086823D01*
X150647639Y-65083619D01*
X150573906Y-65080655D01*
X150500173Y-65077692D01*
X150426431Y-65075008D01*
X150352692Y-65072324D01*
X150278941Y-65069956D01*
X150205191Y-65067588D01*
X150131429Y-65065579D01*
X150057671Y-65063569D01*
X149983901Y-65061955D01*
X149910131Y-65060341D01*
X149836349Y-65059164D01*
X149762571Y-65057987D01*
X149688778Y-65057284D01*
X149614988Y-65056581D01*
X149541142Y-65056384D01*
X149467330Y-65056199D01*
X149467330Y-65056199D01*
G37*
G36*
X158736565Y-65056199D02*
X158604355Y-65108612D01*
X158472143Y-65161025D01*
X158390758Y-65205756D01*
X158309374Y-65250488D01*
X158271706Y-65287687D01*
X158234038Y-65324886D01*
X158232909Y-65354700D01*
X158231780Y-65384514D01*
X158260197Y-65407093D01*
X158288611Y-65429672D01*
X158339400Y-65445163D01*
X158390185Y-65460654D01*
X158456228Y-65469206D01*
X158522274Y-65477758D01*
X158596459Y-65479519D01*
X158670647Y-65481280D01*
X158745862Y-65476401D01*
X158821074Y-65471521D01*
X158890201Y-65460147D01*
X158959332Y-65448774D01*
X159015260Y-65431055D01*
X159071188Y-65413337D01*
X159106801Y-65389422D01*
X159142412Y-65365507D01*
X159150597Y-65335544D01*
X159158781Y-65305581D01*
X159132421Y-65269719D01*
X159106062Y-65233856D01*
X159038043Y-65192243D01*
X158970025Y-65150629D01*
X158853295Y-65103413D01*
X158736565Y-65056199D01*
X158736565Y-65056199D01*
G37*
G36*
X141353440Y-65065018D02*
X141188393Y-65112452D01*
X141023347Y-65159886D01*
X140917884Y-65203118D01*
X140812421Y-65246350D01*
X140758490Y-65284924D01*
X140704558Y-65323499D01*
X140694105Y-65356961D01*
X140683651Y-65390424D01*
X140708625Y-65418320D01*
X140733599Y-65446216D01*
X140785948Y-65468091D01*
X140838297Y-65489965D01*
X140909968Y-65505364D01*
X140981640Y-65520763D01*
X141064580Y-65529230D01*
X141147522Y-65537698D01*
X141233680Y-65538779D01*
X141319838Y-65539862D01*
X141401162Y-65533104D01*
X141482485Y-65526346D01*
X141550921Y-65511292D01*
X141619358Y-65496239D01*
X141666854Y-65472436D01*
X141714350Y-65448632D01*
X141732856Y-65415625D01*
X141751361Y-65382617D01*
X141732824Y-65339949D01*
X141714284Y-65297282D01*
X141650648Y-65244501D01*
X141587011Y-65191719D01*
X141470225Y-65128369D01*
X141353440Y-65065018D01*
X141353440Y-65065018D01*
G37*
G36*
X140074621Y-65356060D02*
X139917984Y-65427235D01*
X139761347Y-65498411D01*
X139664766Y-65556509D01*
X139568185Y-65614608D01*
X139523266Y-65660398D01*
X139478347Y-65706188D01*
X139476710Y-65740439D01*
X139475045Y-65774689D01*
X139508269Y-65798169D01*
X139541492Y-65821648D01*
X139601197Y-65835125D01*
X139660901Y-65848602D01*
X139738692Y-65852846D01*
X139816484Y-65857089D01*
X139903968Y-65852867D01*
X139991453Y-65848645D01*
X140080237Y-65836726D01*
X140169021Y-65824807D01*
X140250711Y-65805961D01*
X140332401Y-65787114D01*
X140398603Y-65762108D01*
X140464805Y-65737102D01*
X140507125Y-65706705D01*
X140549445Y-65676308D01*
X140559490Y-65641289D01*
X140569534Y-65606270D01*
X140538910Y-65567397D01*
X140508285Y-65528524D01*
X140428597Y-65486567D01*
X140348909Y-65444609D01*
X140211765Y-65400334D01*
X140074621Y-65356060D01*
X140074621Y-65356060D01*
G37*
G36*
X160862051Y-65664741D02*
X160705768Y-65733527D01*
X160549482Y-65802314D01*
X160452764Y-65858368D01*
X160356047Y-65914423D01*
X160310595Y-65958509D01*
X160265143Y-66002595D01*
X160262603Y-66035474D01*
X160260063Y-66068354D01*
X160292250Y-66090791D01*
X160324435Y-66113227D01*
X160382993Y-66125984D01*
X160441549Y-66138740D01*
X160518178Y-66142580D01*
X160594807Y-66146419D01*
X160681209Y-66142104D01*
X160767608Y-66137789D01*
X160855484Y-66126083D01*
X160943359Y-66114377D01*
X161024411Y-66096042D01*
X161105459Y-66077707D01*
X161171387Y-66053507D01*
X161237314Y-66029306D01*
X161279816Y-66000003D01*
X161322319Y-65970700D01*
X161333100Y-65937058D01*
X161343881Y-65903415D01*
X161314643Y-65866195D01*
X161285402Y-65828976D01*
X161207844Y-65788943D01*
X161130287Y-65748909D01*
X160996112Y-65706825D01*
X160862051Y-65664741D01*
X160862051Y-65664741D01*
G37*
G36*
X137243579Y-66264463D02*
X137062370Y-66330373D01*
X136881161Y-66396283D01*
X136700926Y-66464724D01*
X136520692Y-66533165D01*
X136341448Y-66604098D01*
X136162204Y-66675030D01*
X135983966Y-66748414D01*
X135805728Y-66821798D01*
X135628511Y-66897594D01*
X135451294Y-66973391D01*
X135275114Y-67051560D01*
X135098934Y-67129729D01*
X134923806Y-67210232D01*
X134748678Y-67290734D01*
X134574618Y-67373531D01*
X134400557Y-67456327D01*
X134227579Y-67541378D01*
X134054602Y-67626429D01*
X133882723Y-67713695D01*
X133710843Y-67800960D01*
X133540078Y-67890401D01*
X133369312Y-67979843D01*
X133199676Y-68071420D01*
X133030040Y-68162997D01*
X132861548Y-68256671D01*
X132693056Y-68350344D01*
X132525724Y-68446075D01*
X132358392Y-68541805D01*
X132192236Y-68639554D01*
X132026080Y-68737302D01*
X131861114Y-68837028D01*
X131696149Y-68936754D01*
X131884265Y-68914921D01*
X132072381Y-68893089D01*
X132258933Y-68858972D01*
X132445485Y-68824856D01*
X132630495Y-68779538D01*
X132815506Y-68734221D01*
X132999000Y-68678785D01*
X133182494Y-68623350D01*
X133364495Y-68558879D01*
X133546496Y-68494407D01*
X133727028Y-68421983D01*
X133907559Y-68349559D01*
X134086645Y-68270264D01*
X134265731Y-68190970D01*
X134443396Y-68105888D01*
X134621060Y-68020805D01*
X134797327Y-67931018D01*
X134973594Y-67841230D01*
X135148486Y-67747820D01*
X135323379Y-67654410D01*
X135496921Y-67558459D01*
X135670464Y-67462509D01*
X135842680Y-67365102D01*
X136014896Y-67267694D01*
X136185810Y-67169912D01*
X136356723Y-67072129D01*
X136526358Y-66975054D01*
X136695993Y-66877980D01*
X136864373Y-66782695D01*
X137032753Y-66687411D01*
X137199902Y-66595000D01*
X137367051Y-66502589D01*
X137365951Y-66498179D01*
X137364850Y-66493769D01*
X137363749Y-66489359D01*
X137362649Y-66484950D01*
X137361548Y-66480540D01*
X137360447Y-66476130D01*
X137359347Y-66471721D01*
X137358246Y-66467311D01*
X137357145Y-66462901D01*
X137356045Y-66458491D01*
X137354944Y-66454082D01*
X137353843Y-66449672D01*
X137352743Y-66445262D01*
X137351642Y-66440852D01*
X137350541Y-66436443D01*
X137349441Y-66432033D01*
X137348340Y-66427623D01*
X137347239Y-66423214D01*
X137346139Y-66418804D01*
X137345038Y-66414394D01*
X137343937Y-66409984D01*
X137342837Y-66405575D01*
X137341736Y-66401165D01*
X137340635Y-66396755D01*
X137339535Y-66392346D01*
X137338434Y-66387936D01*
X137337333Y-66383526D01*
X137336233Y-66379116D01*
X137335104Y-66374707D01*
X137333978Y-66370296D01*
X137332878Y-66365886D01*
X137331777Y-66361477D01*
X137329011Y-66358445D01*
X137326246Y-66355413D01*
X137323480Y-66352382D01*
X137320714Y-66349350D01*
X137317948Y-66346318D01*
X137315182Y-66343287D01*
X137312417Y-66340255D01*
X137309651Y-66337224D01*
X137306885Y-66334192D01*
X137304119Y-66331160D01*
X137301354Y-66328129D01*
X137298588Y-66325097D01*
X137295822Y-66322065D01*
X137293056Y-66319034D01*
X137290290Y-66316002D01*
X137287525Y-66312971D01*
X137284759Y-66309939D01*
X137281993Y-66306907D01*
X137279227Y-66303876D01*
X137276462Y-66300844D01*
X137273696Y-66297812D01*
X137270930Y-66294781D01*
X137268164Y-66291749D01*
X137265398Y-66288717D01*
X137262633Y-66285686D01*
X137259867Y-66282654D01*
X137257101Y-66279623D01*
X137254335Y-66276591D01*
X137251570Y-66273559D01*
X137248804Y-66270528D01*
X137246038Y-66267495D01*
X137243579Y-66264463D01*
X137243579Y-66264463D01*
G37*
G36*
X162608301Y-66273282D02*
X162629524Y-66381257D01*
X162650747Y-66489231D01*
X162700085Y-66583882D01*
X162749426Y-66678532D01*
X162820987Y-66759817D01*
X162892547Y-66841103D01*
X162980448Y-66908982D01*
X163068352Y-66976862D01*
X163166715Y-67031295D01*
X163265077Y-67085728D01*
X163368021Y-67126674D01*
X163470964Y-67167619D01*
X163572606Y-67195037D01*
X163674252Y-67222455D01*
X163768711Y-67236304D01*
X163863174Y-67250152D01*
X163944573Y-67250392D01*
X164025974Y-67250632D01*
X164088430Y-67237218D01*
X164150888Y-67223804D01*
X164188520Y-67196699D01*
X164226154Y-67169595D01*
X164233097Y-67128759D01*
X164240039Y-67087922D01*
X164210384Y-67033312D01*
X164180728Y-66978703D01*
X164108606Y-66910279D01*
X164036484Y-66841855D01*
X163916014Y-66759577D01*
X163795545Y-66677298D01*
X163620850Y-66581124D01*
X163446154Y-66484950D01*
X163422447Y-66470081D01*
X163398741Y-66455212D01*
X163374526Y-66441876D01*
X163350311Y-66428540D01*
X163325589Y-66416644D01*
X163300866Y-66404748D01*
X163275692Y-66394200D01*
X163250518Y-66383651D01*
X163224948Y-66374358D01*
X163199379Y-66365065D01*
X163173443Y-66356933D01*
X163147506Y-66348802D01*
X163121260Y-66341741D01*
X163095013Y-66334679D01*
X163068484Y-66328595D01*
X163041955Y-66322510D01*
X163015201Y-66317311D01*
X162988446Y-66312111D01*
X162961522Y-66307703D01*
X162934598Y-66303295D01*
X162907505Y-66299586D01*
X162880411Y-66295877D01*
X162853233Y-66292775D01*
X162826055Y-66289673D01*
X162798821Y-66287085D01*
X162771586Y-66284497D01*
X162744324Y-66282329D01*
X162717061Y-66280162D01*
X162689827Y-66278324D01*
X162662592Y-66276487D01*
X162635414Y-66274884D01*
X162608301Y-66273282D01*
X162608301Y-66273282D01*
G37*
G36*
X164804343Y-67190504D02*
X164804061Y-67255781D01*
X164803778Y-67321058D01*
X164846371Y-67398433D01*
X164888961Y-67475808D01*
X164967800Y-67562093D01*
X165046639Y-67648377D01*
X165155128Y-67740384D01*
X165263620Y-67832390D01*
X165395161Y-67926929D01*
X165526702Y-68021469D01*
X165674696Y-68115352D01*
X165822691Y-68209236D01*
X165980540Y-68299276D01*
X166138390Y-68389316D01*
X166299494Y-68472323D01*
X166460598Y-68555331D01*
X166618357Y-68628118D01*
X166776119Y-68700904D01*
X166923939Y-68760282D01*
X167071758Y-68819659D01*
X167203037Y-68862439D01*
X167334318Y-68905219D01*
X167442457Y-68928212D01*
X167550599Y-68951205D01*
X167629000Y-68951224D01*
X167707405Y-68951243D01*
X167749470Y-68925101D01*
X167791538Y-68898956D01*
X167790691Y-68843460D01*
X167789844Y-68787965D01*
X167739442Y-68699930D01*
X167689040Y-68611895D01*
X167607145Y-68554403D01*
X167525250Y-68496911D01*
X167441867Y-68440848D01*
X167358485Y-68384785D01*
X167273697Y-68330219D01*
X167188912Y-68275654D01*
X167102803Y-68222652D01*
X167016694Y-68169650D01*
X166929346Y-68118279D01*
X166841998Y-68066909D01*
X166753493Y-68017236D01*
X166664991Y-67967564D01*
X166575414Y-67919657D01*
X166485840Y-67871750D01*
X166395274Y-67825676D01*
X166304709Y-67779602D01*
X166213236Y-67735428D01*
X166121764Y-67691254D01*
X166029469Y-67649047D01*
X165937174Y-67606840D01*
X165844137Y-67566667D01*
X165751102Y-67526495D01*
X165657407Y-67488424D01*
X165563712Y-67450353D01*
X165469445Y-67414450D01*
X165375177Y-67378548D01*
X165280418Y-67344882D01*
X165185659Y-67311215D01*
X165090491Y-67279852D01*
X164995323Y-67248488D01*
X164899833Y-67219495D01*
X164804343Y-67190504D01*
X164804343Y-67190504D01*
G37*
G36*
X135947121Y-67772588D02*
X135685812Y-67855563D01*
X135424503Y-67938538D01*
X135248699Y-68009089D01*
X135072895Y-68079639D01*
X134971740Y-68138056D01*
X134870585Y-68196473D01*
X134833221Y-68243049D01*
X134795858Y-68289625D01*
X134811431Y-68324651D01*
X134827004Y-68359677D01*
X134884655Y-68383445D01*
X134942306Y-68407214D01*
X135031179Y-68420016D01*
X135120053Y-68432817D01*
X135229292Y-68434934D01*
X135338531Y-68437051D01*
X135457280Y-68428796D01*
X135576028Y-68420541D01*
X135693429Y-68402193D01*
X135810830Y-68383849D01*
X135916027Y-68355703D01*
X136021224Y-68327560D01*
X136103361Y-68289908D01*
X136185498Y-68252256D01*
X136233718Y-68205388D01*
X136281938Y-68158521D01*
X136285384Y-68102730D01*
X136288830Y-68046939D01*
X136236646Y-67982516D01*
X136184463Y-67918093D01*
X136065792Y-67845330D01*
X135947121Y-67772588D01*
X135947121Y-67772588D01*
G37*
G36*
X131599135Y-69033768D02*
X131310537Y-69208615D01*
X131021939Y-69383462D01*
X130739762Y-69568437D01*
X130457585Y-69753412D01*
X130181715Y-69947948D01*
X129905844Y-70142484D01*
X129636165Y-70346014D01*
X129366486Y-70549545D01*
X129102883Y-70761502D01*
X128839280Y-70973459D01*
X128581638Y-71193275D01*
X128323997Y-71413092D01*
X128072201Y-71640202D01*
X127820406Y-71867311D01*
X127574341Y-72101146D01*
X127328277Y-72334981D01*
X127087829Y-72574974D01*
X126847381Y-72814967D01*
X126612434Y-73060552D01*
X126377487Y-73306136D01*
X126147926Y-73556745D01*
X125918365Y-73807353D01*
X125694075Y-74062418D01*
X125469785Y-74317484D01*
X125250652Y-74576439D01*
X125031518Y-74835395D01*
X124817425Y-75097673D01*
X124603333Y-75359951D01*
X124394166Y-75624984D01*
X124184999Y-75890018D01*
X123980644Y-76157240D01*
X123776288Y-76424462D01*
X123643366Y-76633385D01*
X123510445Y-76842309D01*
X123381650Y-77054792D01*
X123252856Y-77267274D01*
X123128571Y-77483163D01*
X123004286Y-77699052D01*
X122884893Y-77918194D01*
X122765499Y-78137336D01*
X122651379Y-78359577D01*
X122537258Y-78581819D01*
X122428792Y-78807008D01*
X122320326Y-79032197D01*
X122217898Y-79260180D01*
X122115469Y-79488162D01*
X122019458Y-79718786D01*
X121923448Y-79949410D01*
X121834237Y-80182522D01*
X121745027Y-80415634D01*
X121662999Y-80651080D01*
X121580972Y-80886527D01*
X121506508Y-81124156D01*
X121432044Y-81361785D01*
X121365526Y-81601442D01*
X121299008Y-81841100D01*
X121240818Y-82082633D01*
X121182627Y-82324166D01*
X121133147Y-82567423D01*
X121083666Y-82810679D01*
X121043276Y-83055505D01*
X121002887Y-83300331D01*
X120971971Y-83546574D01*
X120941055Y-83792817D01*
X121014139Y-83742916D01*
X121087223Y-83693016D01*
X121153371Y-83627091D01*
X121219519Y-83561166D01*
X121279484Y-83480962D01*
X121339449Y-83400758D01*
X121393984Y-83308019D01*
X121448519Y-83215281D01*
X121498376Y-83111752D01*
X121548233Y-83008224D01*
X121594165Y-82895650D01*
X121640097Y-82783077D01*
X121682857Y-82663203D01*
X121725617Y-82543330D01*
X121765957Y-82417901D01*
X121806298Y-82292472D01*
X121844972Y-82163232D01*
X121883646Y-82033993D01*
X121921407Y-81902687D01*
X121959167Y-81771382D01*
X121996767Y-81639755D01*
X122034366Y-81508129D01*
X122072557Y-81377926D01*
X122110748Y-81247724D01*
X122150284Y-81120689D01*
X122189820Y-80993656D01*
X122231453Y-80871535D01*
X122273086Y-80749414D01*
X122317569Y-80633951D01*
X122362053Y-80518489D01*
X122410139Y-80411429D01*
X122458225Y-80304370D01*
X122515330Y-80154321D01*
X122572436Y-80004272D01*
X122634444Y-79856353D01*
X122696452Y-79708434D01*
X122762880Y-79562448D01*
X122829308Y-79416462D01*
X122899675Y-79272213D01*
X122970041Y-79127965D01*
X123043862Y-78985257D01*
X123117684Y-78842550D01*
X123194478Y-78701187D01*
X123271273Y-78559824D01*
X123350557Y-78419609D01*
X123429842Y-78279395D01*
X123511135Y-78140133D01*
X123592427Y-78000871D01*
X123675245Y-77862365D01*
X123758063Y-77723859D01*
X123841924Y-77585913D01*
X123925785Y-77447967D01*
X124010206Y-77310384D01*
X124094627Y-77172802D01*
X124179126Y-77035386D01*
X124263625Y-76897971D01*
X124347719Y-76760527D01*
X124431814Y-76623083D01*
X124515021Y-76485414D01*
X124598228Y-76347745D01*
X124680065Y-76209655D01*
X124761903Y-76071564D01*
X124841888Y-75932856D01*
X124921874Y-75794149D01*
X125048869Y-75650048D01*
X125175863Y-75505947D01*
X125301337Y-75360297D01*
X125426811Y-75214648D01*
X125551273Y-75067973D01*
X125675736Y-74921298D01*
X125799697Y-74774120D01*
X125923658Y-74626943D01*
X126047626Y-74479787D01*
X126171595Y-74332631D01*
X126296081Y-74186020D01*
X126420567Y-74039409D01*
X126546080Y-73893866D01*
X126671593Y-73748323D01*
X126798643Y-73604371D01*
X126925693Y-73460419D01*
X127054789Y-73318582D01*
X127183885Y-73176745D01*
X127315537Y-73037546D01*
X127447189Y-72898347D01*
X127581906Y-72762309D01*
X127716623Y-72626272D01*
X127854915Y-72493919D01*
X127993207Y-72361567D01*
X128135584Y-72233422D01*
X128277961Y-72105278D01*
X128424931Y-71981866D01*
X128571902Y-71858453D01*
X128723976Y-71740295D01*
X128876051Y-71622138D01*
X129033739Y-71509758D01*
X129191427Y-71397379D01*
X129254859Y-71324569D01*
X129318291Y-71251760D01*
X129394409Y-71180579D01*
X129470527Y-71109399D01*
X129556948Y-71039468D01*
X129643370Y-70969538D01*
X129737716Y-70900478D01*
X129832061Y-70831418D01*
X129931949Y-70762849D01*
X130031837Y-70694281D01*
X130134887Y-70625825D01*
X130237936Y-70557369D01*
X130341767Y-70488646D01*
X130445598Y-70419923D01*
X130547828Y-70350554D01*
X130650059Y-70281185D01*
X130748308Y-70210791D01*
X130846558Y-70140397D01*
X130938446Y-70068599D01*
X131030333Y-69996800D01*
X131113478Y-69923218D01*
X131196624Y-69849636D01*
X131268645Y-69773892D01*
X131340667Y-69698147D01*
X131399184Y-69619860D01*
X131457701Y-69541574D01*
X131500333Y-69460366D01*
X131542965Y-69379158D01*
X131567332Y-69294650D01*
X131591699Y-69210143D01*
X131595419Y-69121955D01*
X131599135Y-69033768D01*
X131599135Y-69033768D01*
G37*
G36*
X168155731Y-69104324D02*
X168216850Y-69215017D01*
X168277970Y-69325711D01*
X168367528Y-69436365D01*
X168457083Y-69547018D01*
X168568631Y-69655084D01*
X168680179Y-69763149D01*
X168807281Y-69866078D01*
X168934380Y-69969008D01*
X169070589Y-70064253D01*
X169206798Y-70159498D01*
X169345676Y-70244512D01*
X169484552Y-70329526D01*
X169619655Y-70401759D01*
X169754757Y-70473993D01*
X169879643Y-70530900D01*
X170004530Y-70587806D01*
X170112759Y-70626837D01*
X170220986Y-70665868D01*
X170306115Y-70684475D01*
X170391242Y-70703082D01*
X170446828Y-70698719D01*
X170502412Y-70694356D01*
X170522026Y-70664473D01*
X170541641Y-70634590D01*
X170518809Y-70576640D01*
X170495977Y-70518691D01*
X170424284Y-70430126D01*
X170352589Y-70341561D01*
X170225586Y-70219834D01*
X170098583Y-70098107D01*
X169909830Y-69940669D01*
X169721074Y-69783231D01*
X169675168Y-69757188D01*
X169629259Y-69731144D01*
X169583448Y-69703365D01*
X169537635Y-69675586D01*
X169491814Y-69646582D01*
X169445992Y-69617578D01*
X169400052Y-69587858D01*
X169354112Y-69558139D01*
X169307949Y-69528213D01*
X169261789Y-69498288D01*
X169215298Y-69468667D01*
X169168805Y-69439046D01*
X169121877Y-69410238D01*
X169074946Y-69381431D01*
X169027474Y-69353948D01*
X168980001Y-69326462D01*
X168931879Y-69300811D01*
X168883758Y-69275160D01*
X168834879Y-69251851D01*
X168785999Y-69228543D01*
X168736257Y-69208087D01*
X168686515Y-69187632D01*
X168635803Y-69170537D01*
X168585093Y-69153443D01*
X168533305Y-69140221D01*
X168481517Y-69126999D01*
X168428547Y-69118160D01*
X168375577Y-69109321D01*
X168321317Y-69105370D01*
X168267054Y-69101418D01*
X168211400Y-69102858D01*
X168155731Y-69104324D01*
X168155731Y-69104324D01*
G37*
G36*
X165871495Y-69166060D02*
X166147100Y-69298948D01*
X166422704Y-69431837D01*
X166693891Y-69573860D01*
X166965078Y-69715884D01*
X167231756Y-69866673D01*
X167498433Y-70017464D01*
X167760510Y-70176653D01*
X168022585Y-70335841D01*
X168279966Y-70503061D01*
X168537347Y-70670281D01*
X168789941Y-70845163D01*
X169042539Y-71020045D01*
X169290256Y-71202222D01*
X169537971Y-71384400D01*
X169780716Y-71573503D01*
X170023461Y-71762607D01*
X170261143Y-71958270D01*
X170498825Y-72153933D01*
X170731351Y-72355786D01*
X170963876Y-72557640D01*
X171191156Y-72765316D01*
X171418435Y-72972992D01*
X171640371Y-73186123D01*
X171862311Y-73399254D01*
X172078815Y-73617472D01*
X172295319Y-73835690D01*
X172506300Y-74058627D01*
X172717281Y-74281564D01*
X172922642Y-74508851D01*
X173128007Y-74736139D01*
X173327659Y-74967409D01*
X173527312Y-75198679D01*
X173366090Y-75056983D01*
X173204867Y-74915287D01*
X173074326Y-74834357D01*
X172943786Y-74753426D01*
X172841055Y-74726929D01*
X172738323Y-74700431D01*
X172660526Y-74722029D01*
X172582728Y-74743628D01*
X172526989Y-74806987D01*
X172471251Y-74870346D01*
X172434694Y-74969131D01*
X172398141Y-75067917D01*
X172377906Y-75195793D01*
X172357670Y-75323670D01*
X172350869Y-75474302D01*
X172344067Y-75624935D01*
X172347821Y-75791988D01*
X172351574Y-75959042D01*
X172363004Y-76136181D01*
X172374462Y-76313321D01*
X172390718Y-76494211D01*
X172406974Y-76675101D01*
X172425150Y-76853407D01*
X172443325Y-77031714D01*
X172460568Y-77201100D01*
X172477812Y-77370487D01*
X172491246Y-77524620D01*
X172504680Y-77678752D01*
X172511425Y-77811295D01*
X172518170Y-77943838D01*
X172515348Y-78048457D01*
X172512526Y-78153076D01*
X172447137Y-77982787D01*
X172381752Y-77812498D01*
X172312419Y-77637380D01*
X172243085Y-77462263D01*
X172169755Y-77283160D01*
X172096426Y-77104058D01*
X172019049Y-76921816D01*
X171941672Y-76739574D01*
X171860197Y-76555037D01*
X171778725Y-76370500D01*
X171693105Y-76184513D01*
X171607484Y-75998526D01*
X171517667Y-75811934D01*
X171427850Y-75625342D01*
X171333785Y-75438989D01*
X171239723Y-75252636D01*
X171141360Y-75067368D01*
X171043000Y-74882099D01*
X170940291Y-74698760D01*
X170837585Y-74515421D01*
X170730479Y-74334856D01*
X170623372Y-74154290D01*
X170511818Y-73977344D01*
X170400267Y-73800397D01*
X170284218Y-73627914D01*
X170168168Y-73455432D01*
X170047571Y-73288257D01*
X169926975Y-73121082D01*
X169801778Y-72960061D01*
X169676585Y-72799040D01*
X169546734Y-72645016D01*
X169416912Y-72490990D01*
X169324289Y-72368003D01*
X169231670Y-72245016D01*
X169135477Y-72125691D01*
X169039285Y-72006366D01*
X168939765Y-71890464D01*
X168840247Y-71774563D01*
X168737648Y-71661845D01*
X168635049Y-71549126D01*
X168529619Y-71439352D01*
X168424187Y-71329577D01*
X168316166Y-71222507D01*
X168208146Y-71115437D01*
X168097786Y-71010831D01*
X167987425Y-70906225D01*
X167874971Y-70803844D01*
X167762517Y-70701463D01*
X167648211Y-70601068D01*
X167533908Y-70500672D01*
X167418003Y-70402022D01*
X167302097Y-70303373D01*
X167184833Y-70206229D01*
X167067570Y-70109085D01*
X166949198Y-70013208D01*
X166830825Y-69917331D01*
X166711589Y-69822481D01*
X166592353Y-69727631D01*
X166472499Y-69633568D01*
X166352645Y-69539505D01*
X166232421Y-69445989D01*
X166112197Y-69352474D01*
X165991846Y-69259267D01*
X165871495Y-69166060D01*
X165871495Y-69166060D01*
G37*
G36*
X170951495Y-70638907D02*
X170974581Y-70746088D01*
X170997667Y-70853269D01*
X171040463Y-70961309D01*
X171083259Y-71069349D01*
X171143451Y-71178183D01*
X171203641Y-71287017D01*
X171278915Y-71396580D01*
X171354190Y-71506142D01*
X171442232Y-71616368D01*
X171530274Y-71726594D01*
X171628772Y-71837417D01*
X171727270Y-71948241D01*
X171833911Y-72059596D01*
X171940551Y-72170952D01*
X172053023Y-72282775D01*
X172165491Y-72394597D01*
X172281479Y-72506822D01*
X172397464Y-72619046D01*
X172514651Y-72731606D01*
X172631838Y-72844167D01*
X172747913Y-72956998D01*
X172863991Y-73069829D01*
X172976643Y-73182866D01*
X173089295Y-73295902D01*
X173196209Y-73409079D01*
X173303123Y-73522256D01*
X173401986Y-73635507D01*
X173500848Y-73748758D01*
X173589347Y-73862019D01*
X173677846Y-73975279D01*
X173753665Y-74088484D01*
X173829487Y-74201689D01*
X173992595Y-74377022D01*
X174155705Y-74552356D01*
X174310391Y-74733511D01*
X174465080Y-74914667D01*
X174612222Y-75101033D01*
X174759367Y-75287399D01*
X174899838Y-75478365D01*
X175040308Y-75669332D01*
X175174982Y-75864287D01*
X175309652Y-76059243D01*
X175439401Y-76257578D01*
X175569150Y-76455912D01*
X175694849Y-76657014D01*
X175820548Y-76858116D01*
X175943069Y-77061376D01*
X176065593Y-77264635D01*
X176185811Y-77469440D01*
X176306032Y-77674246D01*
X176424825Y-77879987D01*
X176543618Y-78085728D01*
X176661858Y-78291794D01*
X176780098Y-78497859D01*
X176898657Y-78703639D01*
X177017215Y-78909418D01*
X177136968Y-79114301D01*
X177256720Y-79319184D01*
X177378542Y-79522559D01*
X177500366Y-79725934D01*
X177625128Y-79927191D01*
X177749892Y-80128448D01*
X177878470Y-80326976D01*
X178007050Y-80525503D01*
X178021726Y-80444341D01*
X178036402Y-80363179D01*
X178038377Y-80277826D01*
X178040353Y-80192473D01*
X178030898Y-80103420D01*
X178021444Y-80014365D01*
X178001914Y-79922101D01*
X177982384Y-79829836D01*
X177954075Y-79734850D01*
X177925765Y-79639863D01*
X177889999Y-79542646D01*
X177854230Y-79445429D01*
X177812320Y-79346471D01*
X177770410Y-79247512D01*
X177723677Y-79147302D01*
X177676941Y-79047092D01*
X177626694Y-78946121D01*
X177576447Y-78845149D01*
X177524007Y-78743906D01*
X177471565Y-78642663D01*
X177418245Y-78541639D01*
X177364924Y-78440614D01*
X177312042Y-78340298D01*
X177259156Y-78239982D01*
X177208023Y-78140864D01*
X177156890Y-78041746D01*
X177108827Y-77944316D01*
X177060762Y-77846886D01*
X177017080Y-77751634D01*
X176973397Y-77656382D01*
X176935416Y-77563799D01*
X176897432Y-77471215D01*
X176737705Y-77236165D01*
X176577979Y-77001116D01*
X176413621Y-76769716D01*
X176249260Y-76538315D01*
X176080517Y-76310397D01*
X175911774Y-76082478D01*
X175738895Y-75857876D01*
X175566015Y-75633273D01*
X175389245Y-75411820D01*
X175212472Y-75190367D01*
X175032059Y-74971897D01*
X174851648Y-74753427D01*
X174667840Y-74537773D01*
X174484031Y-74322120D01*
X174297076Y-74109116D01*
X174110121Y-73896112D01*
X173920264Y-73685593D01*
X173730407Y-73475073D01*
X173537898Y-73266870D01*
X173345389Y-73058667D01*
X173150472Y-72852615D01*
X172955558Y-72646562D01*
X172758485Y-72442494D01*
X172561412Y-72238426D01*
X172362426Y-72036176D01*
X172163439Y-71833925D01*
X171962791Y-71633326D01*
X171762142Y-71432727D01*
X171560076Y-71233613D01*
X171358011Y-71034499D01*
X171154774Y-70836703D01*
X170951495Y-70638907D01*
X170951495Y-70638907D01*
G37*
G36*
X178368648Y-83259531D02*
X178309418Y-83451516D01*
X178250188Y-83643502D01*
X178198801Y-83842877D01*
X178147414Y-84042251D01*
X178101778Y-84247655D01*
X178056140Y-84453059D01*
X178014165Y-84663133D01*
X177972190Y-84873207D01*
X177931787Y-85086591D01*
X177891382Y-85299975D01*
X177850457Y-85515309D01*
X177809532Y-85730643D01*
X177765996Y-85946569D01*
X177722460Y-86162494D01*
X177674223Y-86377650D01*
X177625983Y-86592806D01*
X177570952Y-86805834D01*
X177515922Y-87018862D01*
X177452007Y-87228401D01*
X177388092Y-87437941D01*
X177313204Y-87642633D01*
X177238314Y-87847324D01*
X177150362Y-88045808D01*
X177062408Y-88244292D01*
X176959298Y-88435209D01*
X176856191Y-88626126D01*
X176735837Y-88808116D01*
X176615480Y-88990106D01*
X176475789Y-89161809D01*
X176336095Y-89333513D01*
X176174977Y-89493570D01*
X176013856Y-89653627D01*
X175943631Y-89790427D01*
X175873403Y-89927226D01*
X175847777Y-90017824D01*
X175822151Y-90108422D01*
X175835669Y-90157325D01*
X175849188Y-90206228D01*
X175896384Y-90217943D01*
X175943580Y-90229658D01*
X176018995Y-90208692D01*
X176094408Y-90187726D01*
X176192579Y-90138586D01*
X176290747Y-90089445D01*
X176406213Y-90016638D01*
X176521675Y-89943830D01*
X176648972Y-89851862D01*
X176776268Y-89759893D01*
X176909934Y-89653271D01*
X177043600Y-89546649D01*
X177178175Y-89429881D01*
X177312747Y-89313111D01*
X177442767Y-89190702D01*
X177572789Y-89068293D01*
X177692796Y-88944751D01*
X177812800Y-88821208D01*
X177917326Y-88701039D01*
X178021856Y-88580871D01*
X178105444Y-88468582D01*
X178189033Y-88356294D01*
X178246220Y-88256392D01*
X178303406Y-88156491D01*
X178328722Y-88073484D01*
X178354037Y-87990477D01*
X178390644Y-87870327D01*
X178427248Y-87750178D01*
X178462918Y-87626175D01*
X178498591Y-87502173D01*
X178532655Y-87374463D01*
X178566720Y-87246753D01*
X178598501Y-87115480D01*
X178630279Y-86984206D01*
X178659102Y-86849514D01*
X178687923Y-86714821D01*
X178713097Y-86576855D01*
X178738271Y-86438889D01*
X178759156Y-86297792D01*
X178780040Y-86156696D01*
X178795929Y-86012615D01*
X178811818Y-85868534D01*
X178822035Y-85721612D01*
X178832251Y-85574690D01*
X178836146Y-85425072D01*
X178840041Y-85275455D01*
X178836908Y-85123285D01*
X178833803Y-84971116D01*
X178822994Y-84816540D01*
X178812185Y-84661964D01*
X178804114Y-84489269D01*
X178796042Y-84316573D01*
X178786334Y-84131188D01*
X178776625Y-83945803D01*
X178742403Y-83779588D01*
X178708184Y-83613373D01*
X178626573Y-83498187D01*
X178544966Y-83383002D01*
X178539463Y-83379144D01*
X178533931Y-83375286D01*
X178528400Y-83371428D01*
X178522896Y-83367570D01*
X178517365Y-83363712D01*
X178511833Y-83359854D01*
X178506330Y-83355996D01*
X178500798Y-83352138D01*
X178495267Y-83348280D01*
X178489763Y-83344422D01*
X178484232Y-83340564D01*
X178478700Y-83336706D01*
X178473197Y-83332848D01*
X178467665Y-83328990D01*
X178462134Y-83325132D01*
X178456630Y-83321274D01*
X178451099Y-83317416D01*
X178445567Y-83313558D01*
X178440064Y-83309701D01*
X178434532Y-83305843D01*
X178429001Y-83301985D01*
X178423498Y-83298127D01*
X178417966Y-83294269D01*
X178412434Y-83290411D01*
X178406931Y-83286553D01*
X178401400Y-83282695D01*
X178395868Y-83278837D01*
X178390365Y-83274979D01*
X178384833Y-83271121D01*
X178379302Y-83267263D01*
X178373883Y-83263396D01*
X178368648Y-83259531D01*
X178368648Y-83259531D01*
G37*
G36*
X122744413Y-84600086D02*
X122795236Y-84783283D01*
X122846059Y-84966480D01*
X122918149Y-85149215D01*
X122990240Y-85331950D01*
X123080542Y-85513648D01*
X123170844Y-85695346D01*
X123276303Y-85875434D01*
X123381763Y-86055521D01*
X123499324Y-86233423D01*
X123616885Y-86411325D01*
X123743493Y-86586468D01*
X123870101Y-86761610D01*
X124002700Y-86933417D01*
X124135300Y-87105225D01*
X124270836Y-87273124D01*
X124406372Y-87441023D01*
X124541790Y-87604438D01*
X124677207Y-87767854D01*
X124809451Y-87926211D01*
X124941696Y-88084569D01*
X125067711Y-88237294D01*
X125193726Y-88390019D01*
X125310458Y-88536537D01*
X125427190Y-88683056D01*
X125531583Y-88822793D01*
X125635975Y-88962530D01*
X125724974Y-89094911D01*
X125813973Y-89227292D01*
X125884523Y-89351742D01*
X125955073Y-89476193D01*
X126004119Y-89592139D01*
X126053165Y-89708085D01*
X125929882Y-89695063D01*
X125806599Y-89682039D01*
X125660398Y-89647096D01*
X125514195Y-89612154D01*
X125350247Y-89557030D01*
X125186298Y-89501906D01*
X125009774Y-89428337D01*
X124833251Y-89354768D01*
X124649325Y-89264490D01*
X124465399Y-89174212D01*
X124279243Y-89068963D01*
X124093087Y-88963713D01*
X123909874Y-88845228D01*
X123726660Y-88726743D01*
X123551561Y-88596759D01*
X123376461Y-88466775D01*
X123214649Y-88327030D01*
X123052836Y-88187284D01*
X122909482Y-88039513D01*
X122766128Y-87891741D01*
X122646406Y-87737681D01*
X122526684Y-87583621D01*
X122435765Y-87425009D01*
X122344846Y-87266396D01*
X122287902Y-87104969D01*
X122230959Y-86943541D01*
X122213164Y-86781034D01*
X122195369Y-86618527D01*
X122221894Y-86456678D01*
X122248419Y-86294829D01*
X122324437Y-86135374D01*
X122400455Y-85975919D01*
X122432151Y-85942214D01*
X122463847Y-85908508D01*
X122487610Y-85871487D01*
X122511373Y-85834467D01*
X122528305Y-85794576D01*
X122545236Y-85754686D01*
X122556438Y-85712370D01*
X122567640Y-85670055D01*
X122574212Y-85625760D01*
X122580785Y-85581464D01*
X122583831Y-85535634D01*
X122586877Y-85489803D01*
X122587498Y-85442882D01*
X122588116Y-85395962D01*
X122587413Y-85348395D01*
X122586710Y-85300829D01*
X122585785Y-85253063D01*
X122584859Y-85205296D01*
X122584810Y-85157774D01*
X122584761Y-85110252D01*
X122586691Y-85063420D01*
X122588621Y-85016587D01*
X122593633Y-84970889D01*
X122598645Y-84925191D01*
X122607839Y-84881072D01*
X122617033Y-84836952D01*
X122631512Y-84794857D01*
X122645990Y-84752762D01*
X122666853Y-84713136D01*
X122687717Y-84673510D01*
X122716067Y-84636798D01*
X122744413Y-84600086D01*
X122744413Y-84600086D01*
G37*
G36*
X120724760Y-85420294D02*
X120665431Y-85564496D01*
X120606103Y-85708698D01*
X120572504Y-85832593D01*
X120538905Y-85956489D01*
X120527238Y-86060333D01*
X120515572Y-86164177D01*
X120522041Y-86248224D01*
X120528510Y-86332270D01*
X120549317Y-86396773D01*
X120570124Y-86461276D01*
X120601472Y-86506489D01*
X120632820Y-86551702D01*
X120670912Y-86577881D01*
X120709004Y-86604057D01*
X120750042Y-86611454D01*
X120791081Y-86618848D01*
X120831268Y-86607717D01*
X120871456Y-86596586D01*
X120906996Y-86567181D01*
X120942536Y-86537776D01*
X120969631Y-86490351D01*
X120996725Y-86442927D01*
X121011578Y-86377737D01*
X121026430Y-86312547D01*
X121025242Y-86229846D01*
X121024057Y-86147145D01*
X121003034Y-86047186D01*
X120982010Y-85947228D01*
X120937353Y-85830266D01*
X120892695Y-85713304D01*
X120820607Y-85579592D01*
X120748518Y-85445882D01*
X120747776Y-85445063D01*
X120747034Y-85444273D01*
X120746292Y-85443483D01*
X120745549Y-85442664D01*
X120744807Y-85441874D01*
X120744065Y-85441056D01*
X120743323Y-85440265D01*
X120742581Y-85439475D01*
X120741838Y-85438657D01*
X120741096Y-85437866D01*
X120740354Y-85437076D01*
X120739612Y-85436258D01*
X120738869Y-85435468D01*
X120738127Y-85434677D01*
X120737385Y-85433859D01*
X120736643Y-85433069D01*
X120735900Y-85432278D01*
X120735158Y-85431460D01*
X120734416Y-85430670D01*
X120733674Y-85429880D01*
X120732931Y-85429061D01*
X120732189Y-85428271D01*
X120731447Y-85427481D01*
X120730705Y-85426662D01*
X120729962Y-85425872D01*
X120729220Y-85425082D01*
X120728478Y-85424263D01*
X120727736Y-85423473D01*
X120726993Y-85422683D01*
X120726251Y-85421864D01*
X120725506Y-85421131D01*
X120724760Y-85420294D01*
X120724760Y-85420294D01*
G37*
G36*
X121095177Y-87034253D02*
X121021131Y-87128726D01*
X120947086Y-87223200D01*
X120921105Y-87334764D01*
X120895124Y-87446329D01*
X120910170Y-87570228D01*
X120925217Y-87694128D01*
X120974256Y-87825606D01*
X121023295Y-87957084D01*
X121099289Y-88091384D01*
X121175282Y-88225685D01*
X121271195Y-88358052D01*
X121367108Y-88490419D01*
X121475904Y-88616096D01*
X121584699Y-88741772D01*
X121699341Y-88856003D01*
X121813982Y-88970233D01*
X121927434Y-89068262D01*
X122040885Y-89166289D01*
X122146110Y-89243359D01*
X122251335Y-89320428D01*
X122341297Y-89371783D01*
X122431259Y-89423137D01*
X122498922Y-89444022D01*
X122566584Y-89464906D01*
X122604911Y-89450561D01*
X122643238Y-89436215D01*
X122645194Y-89381887D01*
X122647150Y-89327560D01*
X122605695Y-89228492D01*
X122564241Y-89129425D01*
X122472343Y-88980861D01*
X122380445Y-88832298D01*
X122338401Y-88777445D01*
X122296358Y-88722593D01*
X122254328Y-88667728D01*
X122212297Y-88612864D01*
X122170331Y-88557952D01*
X122128365Y-88503040D01*
X122086513Y-88448045D01*
X122044662Y-88393050D01*
X122002976Y-88337936D01*
X121961290Y-88282822D01*
X121919821Y-88227553D01*
X121878352Y-88172285D01*
X121837150Y-88116826D01*
X121795948Y-88061368D01*
X121755065Y-88005684D01*
X121714181Y-87950000D01*
X121673667Y-87894054D01*
X121633153Y-87838108D01*
X121593059Y-87781866D01*
X121552965Y-87725624D01*
X121513341Y-87669049D01*
X121473718Y-87612473D01*
X121434617Y-87555530D01*
X121395516Y-87498587D01*
X121356987Y-87441240D01*
X121318458Y-87383893D01*
X121280553Y-87326106D01*
X121242648Y-87268320D01*
X121205418Y-87210058D01*
X121168187Y-87151797D01*
X121131682Y-87093025D01*
X121095177Y-87034253D01*
X121095177Y-87034253D01*
G37*
G36*
X173306287Y-87660433D02*
X173356909Y-87769419D01*
X173407528Y-87878404D01*
X173422627Y-87978216D01*
X173437726Y-88078027D01*
X173422486Y-88167826D01*
X173407218Y-88257625D01*
X173366795Y-88336571D01*
X173326375Y-88415517D01*
X173265969Y-88482772D01*
X173205559Y-88550028D01*
X173130341Y-88604753D01*
X173055126Y-88659478D01*
X172970281Y-88700834D01*
X172885437Y-88742190D01*
X172796142Y-88769337D01*
X172706850Y-88796484D01*
X172618288Y-88808585D01*
X172529727Y-88820684D01*
X172447075Y-88816900D01*
X172364424Y-88813112D01*
X172292864Y-88792600D01*
X172221303Y-88772088D01*
X172166016Y-88734013D01*
X172110726Y-88695937D01*
X172076885Y-88639459D01*
X172043046Y-88582980D01*
X172035821Y-88507259D01*
X172028596Y-88431537D01*
X172053206Y-88335735D01*
X172077816Y-88239932D01*
X172139405Y-88123209D01*
X172200995Y-88006486D01*
X172235375Y-87995392D01*
X172269755Y-87984298D01*
X172303921Y-87972278D01*
X172338084Y-87960258D01*
X172372086Y-87947519D01*
X172406085Y-87934779D01*
X172439975Y-87921529D01*
X172473861Y-87908278D01*
X172507685Y-87894720D01*
X172541510Y-87881162D01*
X172575323Y-87867506D01*
X172609136Y-87853849D01*
X172642986Y-87840300D01*
X172676835Y-87826747D01*
X172710775Y-87813508D01*
X172744715Y-87800269D01*
X172778794Y-87787549D01*
X172812872Y-87774830D01*
X172847142Y-87762835D01*
X172881410Y-87750838D01*
X172915920Y-87739775D01*
X172950430Y-87728709D01*
X172985231Y-87718783D01*
X173020029Y-87708857D01*
X173055171Y-87700272D01*
X173090313Y-87691687D01*
X173125848Y-87684654D01*
X173161383Y-87677621D01*
X173197360Y-87672343D01*
X173233338Y-87667066D01*
X173269812Y-87663747D01*
X173306287Y-87660433D01*
X173306287Y-87660433D01*
G37*
G36*
X174620384Y-90562030D02*
X174622924Y-90571270D01*
X174625464Y-90580510D01*
X174629471Y-90587557D01*
X174633479Y-90594604D01*
X174638559Y-90599667D01*
X174643639Y-90604730D01*
X174649396Y-90608013D01*
X174655182Y-90611295D01*
X174661250Y-90613016D01*
X174667317Y-90614738D01*
X174673301Y-90615077D01*
X174679312Y-90615415D01*
X174684843Y-90614597D01*
X174690347Y-90613778D01*
X174695032Y-90612000D01*
X174699688Y-90610222D01*
X174703103Y-90607682D01*
X174706518Y-90605142D01*
X174708211Y-90602060D01*
X174709905Y-90598981D01*
X174709764Y-90595561D01*
X174709623Y-90592140D01*
X174707083Y-90588582D01*
X174704543Y-90585023D01*
X174699152Y-90581534D01*
X174693762Y-90578046D01*
X174685210Y-90574835D01*
X174676659Y-90571620D01*
X174664552Y-90568882D01*
X174652444Y-90566145D01*
X174636329Y-90564085D01*
X174620384Y-90562030D01*
X174620384Y-90562030D01*
G37*
G36*
X174884967Y-90694322D02*
X174895014Y-90719572D01*
X174905061Y-90744823D01*
X174918721Y-90765097D01*
X174932381Y-90785372D01*
X174948608Y-90801019D01*
X174964836Y-90816665D01*
X174982588Y-90828027D01*
X175000340Y-90839390D01*
X175018515Y-90846809D01*
X175036690Y-90854229D01*
X175054244Y-90858053D01*
X175071798Y-90861877D01*
X175087659Y-90862442D01*
X175103520Y-90863034D01*
X175116615Y-90860692D01*
X175129710Y-90858349D01*
X175138995Y-90853453D01*
X175148281Y-90848556D01*
X175152683Y-90841439D01*
X175157058Y-90834321D01*
X175155364Y-90825332D01*
X175153671Y-90816341D01*
X175145063Y-90805822D01*
X175136455Y-90795301D01*
X175119776Y-90783597D01*
X175103097Y-90771891D01*
X175077273Y-90759346D01*
X175051422Y-90746801D01*
X175015360Y-90733759D01*
X174979297Y-90720718D01*
X174931957Y-90707516D01*
X174884967Y-90694322D01*
X174884967Y-90694322D01*
G37*
G36*
X174884967Y-90694322D02*
X174895014Y-90719572D01*
X174905061Y-90744823D01*
X174918721Y-90765097D01*
X174932381Y-90785372D01*
X174948608Y-90801019D01*
X174964836Y-90816665D01*
X174982588Y-90828027D01*
X175000340Y-90839390D01*
X175018515Y-90846809D01*
X175036690Y-90854229D01*
X175054244Y-90858053D01*
X175071798Y-90861877D01*
X175087659Y-90862442D01*
X175103520Y-90863034D01*
X175116615Y-90860692D01*
X175129710Y-90858349D01*
X175138995Y-90853453D01*
X175148281Y-90848556D01*
X175152683Y-90841439D01*
X175157058Y-90834321D01*
X175155364Y-90825332D01*
X175153671Y-90816341D01*
X175145063Y-90805822D01*
X175136455Y-90795301D01*
X175119776Y-90783597D01*
X175103097Y-90771891D01*
X175077273Y-90759346D01*
X175051422Y-90746801D01*
X175015360Y-90733759D01*
X174979297Y-90720718D01*
X174931957Y-90707516D01*
X174884967Y-90694322D01*
X174884967Y-90694322D01*
G37*
G36*
X174884967Y-90694322D02*
X174895014Y-90719572D01*
X174905061Y-90744823D01*
X174918721Y-90765097D01*
X174932381Y-90785372D01*
X174948608Y-90801019D01*
X174964836Y-90816665D01*
X174982588Y-90828027D01*
X175000340Y-90839390D01*
X175018515Y-90846809D01*
X175036690Y-90854229D01*
X175054244Y-90858053D01*
X175071798Y-90861877D01*
X175087659Y-90862442D01*
X175103520Y-90863034D01*
X175116615Y-90860692D01*
X175129710Y-90858349D01*
X175138995Y-90853453D01*
X175148281Y-90848556D01*
X175152683Y-90841439D01*
X175157058Y-90834321D01*
X175155364Y-90825332D01*
X175153671Y-90816341D01*
X175145063Y-90805822D01*
X175136455Y-90795301D01*
X175119776Y-90783597D01*
X175103097Y-90771891D01*
X175077273Y-90759346D01*
X175051422Y-90746801D01*
X175015360Y-90733759D01*
X174979297Y-90720718D01*
X174931957Y-90707516D01*
X174884967Y-90694322D01*
X174884967Y-90694322D01*
G37*
G36*
X174884967Y-90694322D02*
X174895014Y-90719572D01*
X174905061Y-90744823D01*
X174918721Y-90765097D01*
X174932381Y-90785372D01*
X174948608Y-90801019D01*
X174964836Y-90816665D01*
X174982588Y-90828027D01*
X175000340Y-90839390D01*
X175018515Y-90846809D01*
X175036690Y-90854229D01*
X175054244Y-90858053D01*
X175071798Y-90861877D01*
X175087659Y-90862442D01*
X175103520Y-90863034D01*
X175116615Y-90860692D01*
X175129710Y-90858349D01*
X175138995Y-90853453D01*
X175148281Y-90848556D01*
X175152683Y-90841439D01*
X175157058Y-90834321D01*
X175155364Y-90825332D01*
X175153671Y-90816341D01*
X175145063Y-90805822D01*
X175136455Y-90795301D01*
X175119776Y-90783597D01*
X175103097Y-90771891D01*
X175077273Y-90759346D01*
X175051422Y-90746801D01*
X175015360Y-90733759D01*
X174979297Y-90720718D01*
X174931957Y-90707516D01*
X174884967Y-90694322D01*
X174884967Y-90694322D01*
G37*
D11*
X138750000Y-87250000D03*
D12*
X138750000Y-89790000D03*
D11*
X160750000Y-83210000D03*
D12*
X160750000Y-85750000D03*
D13*
X153416000Y-75750000D03*
X162306000Y-75750000D03*
X134086600Y-76022200D03*
X142976600Y-76022200D03*
D14*
X152540000Y-79960000D03*
D15*
X150000000Y-82500000D03*
X155080000Y-82500000D03*
D14*
X142460000Y-82540000D03*
D15*
X145000000Y-80000000D03*
X139920000Y-80000000D03*
D16*
X149352000Y-75615800D03*
D17*
X147352000Y-75615800D03*
D18*
X171270000Y-75000000D03*
X168730000Y-75000000D03*
X131270000Y-75000000D03*
X128730000Y-75000000D03*
D19*
X135000000Y-82500000D03*
X165000000Y-82500000D03*
D20*
X165074600Y-93522800D03*
X153568400Y-94437200D03*
X161239200Y-93700600D03*
X142392400Y-93853000D03*
X146253200Y-94208600D03*
X157378400Y-94208600D03*
X168910000Y-93751400D03*
X130886200Y-94208600D03*
X134747000Y-93726000D03*
X172770800Y-94132400D03*
X127076200Y-94513400D03*
X150063200Y-94818200D03*
X138582400Y-93624400D03*
D13*
X156730000Y-70000000D03*
X159270000Y-70000000D03*
X140540000Y-70000000D03*
X138000000Y-70000000D03*
M02*
