M48
;DRILL file {KiCad 4.1.0-alpha+201608271546+7097~46~ubuntu14.04.1-product} date Sun Aug 28 16:14:56 2016
;FORMAT={-:-/ absolute / metric / decimal}
FMAT,2
METRIC,TZ
T1C0.600
T2C0.700
T3C0.800
T4C0.813
T5C1.000
T6C1.001
T7C1.016
T8C2.200
T9C3.000
%
G90
G05
M71
T1
X128.73Y-75.
X131.27Y-75.
X168.73Y-75.
X171.27Y-75.
T2
X147.352Y-75.616
X149.352Y-75.616
T3
X141.492Y-53.053
X143.492Y-53.053
X145.492Y-53.053
X147.492Y-53.053
X149.492Y-53.053
X151.492Y-53.053
T4
X133.375Y-74.93
X137.54Y-70.
X140.08Y-70.
X142.265Y-74.93
X153.416Y-74.778
X157.46Y-70.
X160.Y-70.
X162.306Y-74.778
T5
X139.92Y-80.
X142.46Y-82.54
X145.Y-80.
X150.Y-82.5
X152.54Y-79.96
X155.08Y-82.5
T6
X138.836Y-87.147
X138.836Y-89.687
X160.452Y-83.464
X160.452Y-86.004
T7
X139.813Y-133.305
X149.873Y-133.305
X159.933Y-133.305
X169.993Y-133.305
X189.513Y-119.845
X199.943Y-92.555
X199.943Y-100.605
X210.623Y-89.465
T8
X140.592Y-42.053
X152.392Y-42.053
T9
X135.Y-82.5
X165.Y-82.5
T0
M30
