G04 #@! TF.FileFunction,Soldermask,Top*
%FSLAX46Y46*%
G04 Gerber Fmt 4.6, Leading zero omitted, Abs format (unit mm)*
G04 Created by KiCad (PCBNEW 4.1.0-alpha+201608271546+7097~46~ubuntu14.04.1-product) date Sun Aug 28 20:29:49 2016*
%MOMM*%
%LPD*%
G01*
G04 APERTURE LIST*
%ADD10C,0.100000*%
%ADD11C,0.800000*%
%ADD12R,2.000000X1.900000*%
%ADD13C,1.900000*%
%ADD14C,1.397000*%
%ADD15O,1.998980X2.999740*%
%ADD16O,2.999740X1.998980*%
%ADD17R,1.200000X1.700000*%
%ADD18O,1.200000X1.700000*%
%ADD19C,1.000000*%
%ADD20C,4.000000*%
%ADD21C,3.000000*%
G04 APERTURE END LIST*
D10*
D11*
G36*
X148044873Y-96697580D02*
X136062412Y-89060918D01*
X138615426Y-88753940D01*
X141451803Y-88361655D01*
X144485073Y-87900041D01*
X147628766Y-87385075D01*
X150796414Y-86832734D01*
X153901547Y-86258995D01*
X156857694Y-85679835D01*
X159578387Y-85111231D01*
X161977156Y-84569161D01*
X163967531Y-84069601D01*
X165463042Y-83628529D01*
X167726481Y-82294618D01*
X168702451Y-80273554D01*
X168556900Y-78577283D01*
X167730792Y-76657711D01*
X166399291Y-74802004D01*
X164621245Y-73059724D01*
X162455500Y-71480432D01*
X159960902Y-70113691D01*
X157196297Y-69009061D01*
X155444137Y-68488082D01*
X153819972Y-68238841D01*
X151429450Y-68124093D01*
X149055474Y-68091754D01*
X146540264Y-68118393D01*
X144350221Y-68193887D01*
X142951745Y-68308112D01*
X140631704Y-68811202D01*
X138159644Y-69604456D01*
X135718856Y-70620375D01*
X133492635Y-71791462D01*
X131127453Y-73431025D01*
X129034237Y-75333495D01*
X127333310Y-77373837D01*
X126144992Y-79427015D01*
X125540961Y-81190324D01*
X125363284Y-82983053D01*
X125511243Y-84640994D01*
X126118218Y-86076252D01*
X127306214Y-87492429D01*
X128737555Y-88633804D01*
X131132290Y-89307692D01*
X133157389Y-89289539D01*
X136062412Y-89060918D01*
X148044873Y-96697580D01*
X145145822Y-96137790D01*
X142154036Y-95738685D01*
X139180858Y-95516146D01*
X136337629Y-95486052D01*
X133735687Y-95664283D01*
X131486376Y-96066720D01*
X128890590Y-96597582D01*
X126844615Y-96626277D01*
X124788123Y-95780398D01*
X124204455Y-94403436D01*
X124887340Y-92963580D01*
X125243504Y-91549095D01*
X123387752Y-90168232D01*
X122428421Y-89817892D01*
X120523620Y-87894063D01*
X120263173Y-85976472D01*
X120401826Y-84007395D01*
X120820165Y-82053720D01*
X121553291Y-79951517D01*
X122513279Y-77963024D01*
X123755668Y-76026579D01*
X125257751Y-74167511D01*
X126996824Y-72411146D01*
X128950181Y-70782812D01*
X131095115Y-69307837D01*
X133283165Y-68073918D01*
X135603740Y-67007235D01*
X138038166Y-66110392D01*
X140567771Y-65385995D01*
X143173882Y-64836648D01*
X145837826Y-64464958D01*
X148540931Y-64273530D01*
X151264524Y-64264969D01*
X153989931Y-64441880D01*
X156698482Y-64806869D01*
X159371502Y-65362541D01*
X162166251Y-66171340D01*
X164820431Y-67182064D01*
X167316468Y-68381988D01*
X169636789Y-69758388D01*
X171763820Y-71298539D01*
X173679987Y-72989716D01*
X175367718Y-74819195D01*
X176809439Y-76774250D01*
X177987576Y-78842158D01*
X178959672Y-81225718D01*
X179575357Y-83655142D01*
X179808259Y-86026362D01*
X179552433Y-87806038D01*
X178957988Y-88794460D01*
X177088927Y-90062760D01*
X176251316Y-90276009D01*
X175318812Y-90805747D01*
X174814362Y-91682974D01*
X175274207Y-93109715D01*
X175836979Y-94362706D01*
X175402542Y-95614869D01*
X174054191Y-96484226D01*
X171841744Y-96666663D01*
X168883711Y-96152409D01*
X165844362Y-95414173D01*
X163760557Y-95312753D01*
X162020210Y-95362261D01*
X160368011Y-95490236D01*
X158295117Y-95746976D01*
X155847157Y-96086167D01*
X153551805Y-96431642D01*
X151936736Y-96707235D01*
X149987154Y-96928992D01*
X148044873Y-96697583D01*
X148044873Y-96697586D01*
X148044873Y-96697580D01*
X148044873Y-96697580D01*
G37*
X148044873Y-96697580D02*
X136062412Y-89060918D01*
X138615426Y-88753940D01*
X141451803Y-88361655D01*
X144485073Y-87900041D01*
X147628766Y-87385075D01*
X150796414Y-86832734D01*
X153901547Y-86258995D01*
X156857694Y-85679835D01*
X159578387Y-85111231D01*
X161977156Y-84569161D01*
X163967531Y-84069601D01*
X165463042Y-83628529D01*
X167726481Y-82294618D01*
X168702451Y-80273554D01*
X168556900Y-78577283D01*
X167730792Y-76657711D01*
X166399291Y-74802004D01*
X164621245Y-73059724D01*
X162455500Y-71480432D01*
X159960902Y-70113691D01*
X157196297Y-69009061D01*
X155444137Y-68488082D01*
X153819972Y-68238841D01*
X151429450Y-68124093D01*
X149055474Y-68091754D01*
X146540264Y-68118393D01*
X144350221Y-68193887D01*
X142951745Y-68308112D01*
X140631704Y-68811202D01*
X138159644Y-69604456D01*
X135718856Y-70620375D01*
X133492635Y-71791462D01*
X131127453Y-73431025D01*
X129034237Y-75333495D01*
X127333310Y-77373837D01*
X126144992Y-79427015D01*
X125540961Y-81190324D01*
X125363284Y-82983053D01*
X125511243Y-84640994D01*
X126118218Y-86076252D01*
X127306214Y-87492429D01*
X128737555Y-88633804D01*
X131132290Y-89307692D01*
X133157389Y-89289539D01*
X136062412Y-89060918D01*
X148044873Y-96697580D01*
X145145822Y-96137790D01*
X142154036Y-95738685D01*
X139180858Y-95516146D01*
X136337629Y-95486052D01*
X133735687Y-95664283D01*
X131486376Y-96066720D01*
X128890590Y-96597582D01*
X126844615Y-96626277D01*
X124788123Y-95780398D01*
X124204455Y-94403436D01*
X124887340Y-92963580D01*
X125243504Y-91549095D01*
X123387752Y-90168232D01*
X122428421Y-89817892D01*
X120523620Y-87894063D01*
X120263173Y-85976472D01*
X120401826Y-84007395D01*
X120820165Y-82053720D01*
X121553291Y-79951517D01*
X122513279Y-77963024D01*
X123755668Y-76026579D01*
X125257751Y-74167511D01*
X126996824Y-72411146D01*
X128950181Y-70782812D01*
X131095115Y-69307837D01*
X133283165Y-68073918D01*
X135603740Y-67007235D01*
X138038166Y-66110392D01*
X140567771Y-65385995D01*
X143173882Y-64836648D01*
X145837826Y-64464958D01*
X148540931Y-64273530D01*
X151264524Y-64264969D01*
X153989931Y-64441880D01*
X156698482Y-64806869D01*
X159371502Y-65362541D01*
X162166251Y-66171340D01*
X164820431Y-67182064D01*
X167316468Y-68381988D01*
X169636789Y-69758388D01*
X171763820Y-71298539D01*
X173679987Y-72989716D01*
X175367718Y-74819195D01*
X176809439Y-76774250D01*
X177987576Y-78842158D01*
X178959672Y-81225718D01*
X179575357Y-83655142D01*
X179808259Y-86026362D01*
X179552433Y-87806038D01*
X178957988Y-88794460D01*
X177088927Y-90062760D01*
X176251316Y-90276009D01*
X175318812Y-90805747D01*
X174814362Y-91682974D01*
X175274207Y-93109715D01*
X175836979Y-94362706D01*
X175402542Y-95614869D01*
X174054191Y-96484226D01*
X171841744Y-96666663D01*
X168883711Y-96152409D01*
X165844362Y-95414173D01*
X163760557Y-95312753D01*
X162020210Y-95362261D01*
X160368011Y-95490236D01*
X158295117Y-95746976D01*
X155847157Y-96086167D01*
X153551805Y-96431642D01*
X151936736Y-96707235D01*
X149987154Y-96928992D01*
X148044873Y-96697583D01*
X148044873Y-96697586D01*
X148044873Y-96697580D01*
D12*
X134500000Y-87500000D03*
D13*
X134500000Y-90040000D03*
D12*
X160750000Y-83210000D03*
D13*
X160750000Y-85750000D03*
D14*
X153416000Y-75750000D03*
X162306000Y-75750000D03*
X134086600Y-76022200D03*
X142976600Y-76022200D03*
D15*
X152540000Y-79960000D03*
D16*
X150000000Y-82500000D03*
X155080000Y-82500000D03*
D15*
X142460000Y-82540000D03*
D16*
X145000000Y-80000000D03*
X139920000Y-80000000D03*
D17*
X149352000Y-75615800D03*
D18*
X147352000Y-75615800D03*
D19*
X173270000Y-74000000D03*
X170730000Y-74000000D03*
X129270000Y-75000000D03*
X126730000Y-75000000D03*
D20*
X133000000Y-83000000D03*
X167000000Y-83000000D03*
D21*
X165074600Y-93522800D03*
X153568400Y-94437200D03*
X161239200Y-93700600D03*
X142392400Y-93853000D03*
X146253200Y-94208600D03*
X157378400Y-94208600D03*
X168910000Y-93751400D03*
X130886200Y-94208600D03*
X134747000Y-93726000D03*
X172770800Y-94132400D03*
X127076200Y-94513400D03*
X150063200Y-94818200D03*
X138582400Y-93624400D03*
D14*
X156730000Y-70000000D03*
X159270000Y-70000000D03*
X140540000Y-70000000D03*
X138000000Y-70000000D03*
M02*
