G04 #@! TF.FileFunction,Legend,Top*
%FSLAX46Y46*%
G04 Gerber Fmt 4.6, Leading zero omitted, Abs format (unit mm)*
G04 Created by KiCad (PCBNEW 4.0.3+e1-6302~38~ubuntu14.04.1-stable) date Sun Aug 28 01:37:35 2016*
%MOMM*%
%LPD*%
G01*
G04 APERTURE LIST*
%ADD10C,0.100000*%
%ADD11C,0.150000*%
G04 APERTURE END LIST*
D10*
D11*
X158926896Y-82249512D02*
G75*
G03X161951800Y-82234400I1524904J-2484888D01*
G01*
X158951800Y-82234400D02*
X161951800Y-82234400D01*
X162969736Y-84734400D02*
G75*
G03X162969736Y-84734400I-2517936J0D01*
G01*
X137311496Y-85932512D02*
G75*
G03X140336400Y-85917400I1524904J-2484888D01*
G01*
X137336400Y-85917400D02*
X140336400Y-85917400D01*
X141354336Y-88417400D02*
G75*
G03X141354336Y-88417400I-2517936J0D01*
G01*
X172286000Y-89224000D02*
X167587000Y-89224000D01*
X167587000Y-89224000D02*
X167587000Y-77540000D01*
X167587000Y-77540000D02*
X172286000Y-77540000D01*
X172286000Y-77540000D02*
X172286000Y-89224000D01*
X132286000Y-89224000D02*
X127587000Y-89224000D01*
X127587000Y-89224000D02*
X127587000Y-77540000D01*
X127587000Y-77540000D02*
X132286000Y-77540000D01*
X132286000Y-77540000D02*
X132286000Y-89224000D01*
X191063333Y-118295000D02*
X191063333Y-119845000D01*
X187963333Y-119845000D02*
X187963333Y-118295000D01*
X187963333Y-118295000D02*
X191063333Y-118295000D01*
X188243333Y-121115000D02*
X190783333Y-121115000D01*
X151423333Y-131755000D02*
X151423333Y-133305000D01*
X148323333Y-133305000D02*
X148323333Y-131755000D01*
X148323333Y-131755000D02*
X151423333Y-131755000D01*
X148603333Y-134575000D02*
X151143333Y-134575000D01*
X212173333Y-87915000D02*
X212173333Y-89465000D01*
X209073333Y-89465000D02*
X209073333Y-87915000D01*
X209073333Y-87915000D02*
X212173333Y-87915000D01*
X209353333Y-90735000D02*
X211893333Y-90735000D01*
X161483333Y-131755000D02*
X161483333Y-133305000D01*
X158383333Y-133305000D02*
X158383333Y-131755000D01*
X158383333Y-131755000D02*
X161483333Y-131755000D01*
X158663333Y-134575000D02*
X161203333Y-134575000D01*
X141363333Y-131755000D02*
X141363333Y-133305000D01*
X138263333Y-133305000D02*
X138263333Y-131755000D01*
X138263333Y-131755000D02*
X141363333Y-131755000D01*
X138543333Y-134575000D02*
X141083333Y-134575000D01*
X201493333Y-91005000D02*
X201493333Y-92555000D01*
X198393333Y-92555000D02*
X198393333Y-91005000D01*
X198393333Y-91005000D02*
X201493333Y-91005000D01*
X198673333Y-93825000D02*
X201213333Y-93825000D01*
X201493333Y-99055000D02*
X201493333Y-100605000D01*
X198393333Y-100605000D02*
X198393333Y-99055000D01*
X198393333Y-99055000D02*
X201493333Y-99055000D01*
X198673333Y-101875000D02*
X201213333Y-101875000D01*
X171543333Y-131755000D02*
X171543333Y-133305000D01*
X168443333Y-133305000D02*
X168443333Y-131755000D01*
X168443333Y-131755000D02*
X171543333Y-131755000D01*
X168723333Y-134575000D02*
X171263333Y-134575000D01*
X137540000Y-70000000D02*
X140080000Y-70000000D01*
X138959903Y-70000000D02*
G75*
G03X138959903Y-70000000I-1419903J0D01*
G01*
X154051000Y-74142600D02*
X154051000Y-76047600D01*
X154051000Y-76047600D02*
X161671000Y-76047600D01*
X161671000Y-76047600D02*
X161671000Y-73507600D01*
X161671000Y-73507600D02*
X154051000Y-73507600D01*
X154051000Y-73507600D02*
X154051000Y-74142600D01*
X153416000Y-74777600D02*
X154051000Y-74777600D01*
X161671000Y-74777600D02*
X162306000Y-74777600D01*
X154051000Y-74142600D02*
X154686000Y-73507600D01*
X160000000Y-70000000D02*
X157460000Y-70000000D01*
X161419903Y-70000000D02*
G75*
G03X161419903Y-70000000I-1419903J0D01*
G01*
X134010400Y-74295000D02*
X134010400Y-76200000D01*
X134010400Y-76200000D02*
X141630400Y-76200000D01*
X141630400Y-76200000D02*
X141630400Y-73660000D01*
X141630400Y-73660000D02*
X134010400Y-73660000D01*
X134010400Y-73660000D02*
X134010400Y-74295000D01*
X133375400Y-74930000D02*
X134010400Y-74930000D01*
X141630400Y-74930000D02*
X142265400Y-74930000D01*
X134010400Y-74295000D02*
X134645400Y-73660000D01*
X151290001Y-80450000D02*
G75*
G03X150490000Y-81250000I1249999J-2050000D01*
G01*
X153789999Y-80450000D02*
G75*
G02X154590000Y-81250000I-1249999J-2050000D01*
G01*
X150501274Y-83774203D02*
G75*
G03X150840000Y-84200000I2038726J1274203D01*
G01*
X154578726Y-83774203D02*
G75*
G02X154240000Y-84200000I-2038726J1274203D01*
G01*
X150840000Y-84200000D02*
X154240000Y-84200000D01*
X143709999Y-82050000D02*
G75*
G03X144510000Y-81250000I-1249999J2050000D01*
G01*
X141210001Y-82050000D02*
G75*
G02X140410000Y-81250000I1249999J2050000D01*
G01*
X144498726Y-78725797D02*
G75*
G03X144160000Y-78300000I-2038726J-1274203D01*
G01*
X140421274Y-78725797D02*
G75*
G02X140760000Y-78300000I2038726J-1274203D01*
G01*
X144160000Y-78300000D02*
X140760000Y-78300000D01*
X156840181Y-85726495D02*
X155840181Y-85726495D01*
X155840181Y-85488400D01*
X155887800Y-85345542D01*
X155983038Y-85250304D01*
X156078276Y-85202685D01*
X156268752Y-85155066D01*
X156411610Y-85155066D01*
X156602086Y-85202685D01*
X156697324Y-85250304D01*
X156792562Y-85345542D01*
X156840181Y-85488400D01*
X156840181Y-85726495D01*
X156840181Y-84202685D02*
X156840181Y-84774114D01*
X156840181Y-84488400D02*
X155840181Y-84488400D01*
X155983038Y-84583638D01*
X156078276Y-84678876D01*
X156125895Y-84774114D01*
X158999181Y-81821305D02*
X157999181Y-81821305D01*
X158999181Y-81249876D02*
X158427752Y-81678448D01*
X157999181Y-81249876D02*
X158570610Y-81821305D01*
X135224781Y-89409495D02*
X134224781Y-89409495D01*
X134224781Y-89171400D01*
X134272400Y-89028542D01*
X134367638Y-88933304D01*
X134462876Y-88885685D01*
X134653352Y-88838066D01*
X134796210Y-88838066D01*
X134986686Y-88885685D01*
X135081924Y-88933304D01*
X135177162Y-89028542D01*
X135224781Y-89171400D01*
X135224781Y-89409495D01*
X134320019Y-88457114D02*
X134272400Y-88409495D01*
X134224781Y-88314257D01*
X134224781Y-88076161D01*
X134272400Y-87980923D01*
X134320019Y-87933304D01*
X134415257Y-87885685D01*
X134510495Y-87885685D01*
X134653352Y-87933304D01*
X135224781Y-88504733D01*
X135224781Y-87885685D01*
X137383781Y-85504305D02*
X136383781Y-85504305D01*
X137383781Y-84932876D02*
X136812352Y-85361448D01*
X136383781Y-84932876D02*
X136955210Y-85504305D01*
X174516381Y-82159524D02*
X173516381Y-82159524D01*
X174230667Y-81826190D01*
X173516381Y-81492857D01*
X174516381Y-81492857D01*
X174516381Y-80492857D02*
X174516381Y-81064286D01*
X174516381Y-80778572D02*
X173516381Y-80778572D01*
X173659238Y-80873810D01*
X173754476Y-80969048D01*
X173802095Y-81064286D01*
X166134381Y-87643810D02*
X165134381Y-87643810D01*
X165134381Y-87262857D01*
X165182000Y-87167619D01*
X165229619Y-87120000D01*
X165324857Y-87072381D01*
X165467714Y-87072381D01*
X165562952Y-87120000D01*
X165610571Y-87167619D01*
X165658190Y-87262857D01*
X165658190Y-87643810D01*
X165848667Y-86691429D02*
X165848667Y-86215238D01*
X166134381Y-86786667D02*
X165134381Y-86453334D01*
X166134381Y-86120000D01*
X165182000Y-85262857D02*
X165134381Y-85358095D01*
X165134381Y-85500952D01*
X165182000Y-85643810D01*
X165277238Y-85739048D01*
X165372476Y-85786667D01*
X165562952Y-85834286D01*
X165705810Y-85834286D01*
X165896286Y-85786667D01*
X165991524Y-85739048D01*
X166086762Y-85643810D01*
X166134381Y-85500952D01*
X166134381Y-85405714D01*
X166086762Y-85262857D01*
X166039143Y-85215238D01*
X165705810Y-85215238D01*
X165705810Y-85405714D01*
X165610571Y-84786667D02*
X165610571Y-84453333D01*
X166134381Y-84310476D02*
X166134381Y-84786667D01*
X165134381Y-84786667D01*
X165134381Y-84310476D01*
X166134381Y-83310476D02*
X165658190Y-83643810D01*
X166134381Y-83881905D02*
X165134381Y-83881905D01*
X165134381Y-83500952D01*
X165182000Y-83405714D01*
X165229619Y-83358095D01*
X165324857Y-83310476D01*
X165467714Y-83310476D01*
X165562952Y-83358095D01*
X165610571Y-83405714D01*
X165658190Y-83500952D01*
X165658190Y-83881905D01*
X166229619Y-83120000D02*
X166229619Y-82358095D01*
X166134381Y-82120000D02*
X165134381Y-82120000D01*
X165848667Y-81786666D01*
X165134381Y-81453333D01*
X166134381Y-81453333D01*
X165134381Y-80786667D02*
X165134381Y-80596190D01*
X165182000Y-80500952D01*
X165277238Y-80405714D01*
X165467714Y-80358095D01*
X165801048Y-80358095D01*
X165991524Y-80405714D01*
X166086762Y-80500952D01*
X166134381Y-80596190D01*
X166134381Y-80786667D01*
X166086762Y-80881905D01*
X165991524Y-80977143D01*
X165801048Y-81024762D01*
X165467714Y-81024762D01*
X165277238Y-80977143D01*
X165182000Y-80881905D01*
X165134381Y-80786667D01*
X165134381Y-80072381D02*
X165134381Y-79500952D01*
X166134381Y-79786667D02*
X165134381Y-79786667D01*
X165134381Y-78977143D02*
X165134381Y-78786666D01*
X165182000Y-78691428D01*
X165277238Y-78596190D01*
X165467714Y-78548571D01*
X165801048Y-78548571D01*
X165991524Y-78596190D01*
X166086762Y-78691428D01*
X166134381Y-78786666D01*
X166134381Y-78977143D01*
X166086762Y-79072381D01*
X165991524Y-79167619D01*
X165801048Y-79215238D01*
X165467714Y-79215238D01*
X165277238Y-79167619D01*
X165182000Y-79072381D01*
X165134381Y-78977143D01*
X166134381Y-77548571D02*
X165658190Y-77881905D01*
X166134381Y-78120000D02*
X165134381Y-78120000D01*
X165134381Y-77739047D01*
X165182000Y-77643809D01*
X165229619Y-77596190D01*
X165324857Y-77548571D01*
X165467714Y-77548571D01*
X165562952Y-77596190D01*
X165610571Y-77643809D01*
X165658190Y-77739047D01*
X165658190Y-78120000D01*
X134516381Y-82159524D02*
X133516381Y-82159524D01*
X134230667Y-81826190D01*
X133516381Y-81492857D01*
X134516381Y-81492857D01*
X133611619Y-81064286D02*
X133564000Y-81016667D01*
X133516381Y-80921429D01*
X133516381Y-80683333D01*
X133564000Y-80588095D01*
X133611619Y-80540476D01*
X133706857Y-80492857D01*
X133802095Y-80492857D01*
X133944952Y-80540476D01*
X134516381Y-81111905D01*
X134516381Y-80492857D01*
X126134381Y-87643810D02*
X125134381Y-87643810D01*
X125134381Y-87262857D01*
X125182000Y-87167619D01*
X125229619Y-87120000D01*
X125324857Y-87072381D01*
X125467714Y-87072381D01*
X125562952Y-87120000D01*
X125610571Y-87167619D01*
X125658190Y-87262857D01*
X125658190Y-87643810D01*
X125848667Y-86691429D02*
X125848667Y-86215238D01*
X126134381Y-86786667D02*
X125134381Y-86453334D01*
X126134381Y-86120000D01*
X125182000Y-85262857D02*
X125134381Y-85358095D01*
X125134381Y-85500952D01*
X125182000Y-85643810D01*
X125277238Y-85739048D01*
X125372476Y-85786667D01*
X125562952Y-85834286D01*
X125705810Y-85834286D01*
X125896286Y-85786667D01*
X125991524Y-85739048D01*
X126086762Y-85643810D01*
X126134381Y-85500952D01*
X126134381Y-85405714D01*
X126086762Y-85262857D01*
X126039143Y-85215238D01*
X125705810Y-85215238D01*
X125705810Y-85405714D01*
X125610571Y-84786667D02*
X125610571Y-84453333D01*
X126134381Y-84310476D02*
X126134381Y-84786667D01*
X125134381Y-84786667D01*
X125134381Y-84310476D01*
X126134381Y-83310476D02*
X125658190Y-83643810D01*
X126134381Y-83881905D02*
X125134381Y-83881905D01*
X125134381Y-83500952D01*
X125182000Y-83405714D01*
X125229619Y-83358095D01*
X125324857Y-83310476D01*
X125467714Y-83310476D01*
X125562952Y-83358095D01*
X125610571Y-83405714D01*
X125658190Y-83500952D01*
X125658190Y-83881905D01*
X126229619Y-83120000D02*
X126229619Y-82358095D01*
X126134381Y-82120000D02*
X125134381Y-82120000D01*
X125848667Y-81786666D01*
X125134381Y-81453333D01*
X126134381Y-81453333D01*
X125134381Y-80786667D02*
X125134381Y-80596190D01*
X125182000Y-80500952D01*
X125277238Y-80405714D01*
X125467714Y-80358095D01*
X125801048Y-80358095D01*
X125991524Y-80405714D01*
X126086762Y-80500952D01*
X126134381Y-80596190D01*
X126134381Y-80786667D01*
X126086762Y-80881905D01*
X125991524Y-80977143D01*
X125801048Y-81024762D01*
X125467714Y-81024762D01*
X125277238Y-80977143D01*
X125182000Y-80881905D01*
X125134381Y-80786667D01*
X125134381Y-80072381D02*
X125134381Y-79500952D01*
X126134381Y-79786667D02*
X125134381Y-79786667D01*
X125134381Y-78977143D02*
X125134381Y-78786666D01*
X125182000Y-78691428D01*
X125277238Y-78596190D01*
X125467714Y-78548571D01*
X125801048Y-78548571D01*
X125991524Y-78596190D01*
X126086762Y-78691428D01*
X126134381Y-78786666D01*
X126134381Y-78977143D01*
X126086762Y-79072381D01*
X125991524Y-79167619D01*
X125801048Y-79215238D01*
X125467714Y-79215238D01*
X125277238Y-79167619D01*
X125182000Y-79072381D01*
X125134381Y-78977143D01*
X126134381Y-77548571D02*
X125658190Y-77881905D01*
X126134381Y-78120000D02*
X125134381Y-78120000D01*
X125134381Y-77739047D01*
X125182000Y-77643809D01*
X125229619Y-77596190D01*
X125324857Y-77548571D01*
X125467714Y-77548571D01*
X125562952Y-77596190D01*
X125610571Y-77643809D01*
X125658190Y-77739047D01*
X125658190Y-78120000D01*
X188775238Y-115197381D02*
X188775238Y-114197381D01*
X189156191Y-114197381D01*
X189251429Y-114245000D01*
X189299048Y-114292619D01*
X189346667Y-114387857D01*
X189346667Y-114530714D01*
X189299048Y-114625952D01*
X189251429Y-114673571D01*
X189156191Y-114721190D01*
X188775238Y-114721190D01*
X190299048Y-115197381D02*
X189727619Y-115197381D01*
X190013333Y-115197381D02*
X190013333Y-114197381D01*
X189918095Y-114340238D01*
X189822857Y-114435476D01*
X189727619Y-114483095D01*
X149135238Y-128657381D02*
X149135238Y-127657381D01*
X149516191Y-127657381D01*
X149611429Y-127705000D01*
X149659048Y-127752619D01*
X149706667Y-127847857D01*
X149706667Y-127990714D01*
X149659048Y-128085952D01*
X149611429Y-128133571D01*
X149516191Y-128181190D01*
X149135238Y-128181190D01*
X150087619Y-127752619D02*
X150135238Y-127705000D01*
X150230476Y-127657381D01*
X150468572Y-127657381D01*
X150563810Y-127705000D01*
X150611429Y-127752619D01*
X150659048Y-127847857D01*
X150659048Y-127943095D01*
X150611429Y-128085952D01*
X150040000Y-128657381D01*
X150659048Y-128657381D01*
X209885238Y-84817381D02*
X209885238Y-83817381D01*
X210266191Y-83817381D01*
X210361429Y-83865000D01*
X210409048Y-83912619D01*
X210456667Y-84007857D01*
X210456667Y-84150714D01*
X210409048Y-84245952D01*
X210361429Y-84293571D01*
X210266191Y-84341190D01*
X209885238Y-84341190D01*
X210790000Y-83817381D02*
X211409048Y-83817381D01*
X211075714Y-84198333D01*
X211218572Y-84198333D01*
X211313810Y-84245952D01*
X211361429Y-84293571D01*
X211409048Y-84388810D01*
X211409048Y-84626905D01*
X211361429Y-84722143D01*
X211313810Y-84769762D01*
X211218572Y-84817381D01*
X210932857Y-84817381D01*
X210837619Y-84769762D01*
X210790000Y-84722143D01*
X159195238Y-128657381D02*
X159195238Y-127657381D01*
X159576191Y-127657381D01*
X159671429Y-127705000D01*
X159719048Y-127752619D01*
X159766667Y-127847857D01*
X159766667Y-127990714D01*
X159719048Y-128085952D01*
X159671429Y-128133571D01*
X159576191Y-128181190D01*
X159195238Y-128181190D01*
X160623810Y-127990714D02*
X160623810Y-128657381D01*
X160385714Y-127609762D02*
X160147619Y-128324048D01*
X160766667Y-128324048D01*
X139075238Y-128657381D02*
X139075238Y-127657381D01*
X139456191Y-127657381D01*
X139551429Y-127705000D01*
X139599048Y-127752619D01*
X139646667Y-127847857D01*
X139646667Y-127990714D01*
X139599048Y-128085952D01*
X139551429Y-128133571D01*
X139456191Y-128181190D01*
X139075238Y-128181190D01*
X140551429Y-127657381D02*
X140075238Y-127657381D01*
X140027619Y-128133571D01*
X140075238Y-128085952D01*
X140170476Y-128038333D01*
X140408572Y-128038333D01*
X140503810Y-128085952D01*
X140551429Y-128133571D01*
X140599048Y-128228810D01*
X140599048Y-128466905D01*
X140551429Y-128562143D01*
X140503810Y-128609762D01*
X140408572Y-128657381D01*
X140170476Y-128657381D01*
X140075238Y-128609762D01*
X140027619Y-128562143D01*
X199205238Y-87907381D02*
X199205238Y-86907381D01*
X199586191Y-86907381D01*
X199681429Y-86955000D01*
X199729048Y-87002619D01*
X199776667Y-87097857D01*
X199776667Y-87240714D01*
X199729048Y-87335952D01*
X199681429Y-87383571D01*
X199586191Y-87431190D01*
X199205238Y-87431190D01*
X200633810Y-86907381D02*
X200443333Y-86907381D01*
X200348095Y-86955000D01*
X200300476Y-87002619D01*
X200205238Y-87145476D01*
X200157619Y-87335952D01*
X200157619Y-87716905D01*
X200205238Y-87812143D01*
X200252857Y-87859762D01*
X200348095Y-87907381D01*
X200538572Y-87907381D01*
X200633810Y-87859762D01*
X200681429Y-87812143D01*
X200729048Y-87716905D01*
X200729048Y-87478810D01*
X200681429Y-87383571D01*
X200633810Y-87335952D01*
X200538572Y-87288333D01*
X200348095Y-87288333D01*
X200252857Y-87335952D01*
X200205238Y-87383571D01*
X200157619Y-87478810D01*
X199205238Y-95957381D02*
X199205238Y-94957381D01*
X199586191Y-94957381D01*
X199681429Y-95005000D01*
X199729048Y-95052619D01*
X199776667Y-95147857D01*
X199776667Y-95290714D01*
X199729048Y-95385952D01*
X199681429Y-95433571D01*
X199586191Y-95481190D01*
X199205238Y-95481190D01*
X200110000Y-94957381D02*
X200776667Y-94957381D01*
X200348095Y-95957381D01*
X169255238Y-128657381D02*
X169255238Y-127657381D01*
X169636191Y-127657381D01*
X169731429Y-127705000D01*
X169779048Y-127752619D01*
X169826667Y-127847857D01*
X169826667Y-127990714D01*
X169779048Y-128085952D01*
X169731429Y-128133571D01*
X169636191Y-128181190D01*
X169255238Y-128181190D01*
X170398095Y-128085952D02*
X170302857Y-128038333D01*
X170255238Y-127990714D01*
X170207619Y-127895476D01*
X170207619Y-127847857D01*
X170255238Y-127752619D01*
X170302857Y-127705000D01*
X170398095Y-127657381D01*
X170588572Y-127657381D01*
X170683810Y-127705000D01*
X170731429Y-127752619D01*
X170779048Y-127847857D01*
X170779048Y-127895476D01*
X170731429Y-127990714D01*
X170683810Y-128038333D01*
X170588572Y-128085952D01*
X170398095Y-128085952D01*
X170302857Y-128133571D01*
X170255238Y-128181190D01*
X170207619Y-128276429D01*
X170207619Y-128466905D01*
X170255238Y-128562143D01*
X170302857Y-128609762D01*
X170398095Y-128657381D01*
X170588572Y-128657381D01*
X170683810Y-128609762D01*
X170731429Y-128562143D01*
X170779048Y-128466905D01*
X170779048Y-128276429D01*
X170731429Y-128181190D01*
X170683810Y-128133571D01*
X170588572Y-128085952D01*
X137627334Y-72992381D02*
X137294000Y-72516190D01*
X137055905Y-72992381D02*
X137055905Y-71992381D01*
X137436858Y-71992381D01*
X137532096Y-72040000D01*
X137579715Y-72087619D01*
X137627334Y-72182857D01*
X137627334Y-72325714D01*
X137579715Y-72420952D01*
X137532096Y-72468571D01*
X137436858Y-72516190D01*
X137055905Y-72516190D01*
X138579715Y-72992381D02*
X138008286Y-72992381D01*
X138294000Y-72992381D02*
X138294000Y-71992381D01*
X138198762Y-72135238D01*
X138103524Y-72230476D01*
X138008286Y-72278095D01*
X157694334Y-75229981D02*
X157361000Y-74753790D01*
X157122905Y-75229981D02*
X157122905Y-74229981D01*
X157503858Y-74229981D01*
X157599096Y-74277600D01*
X157646715Y-74325219D01*
X157694334Y-74420457D01*
X157694334Y-74563314D01*
X157646715Y-74658552D01*
X157599096Y-74706171D01*
X157503858Y-74753790D01*
X157122905Y-74753790D01*
X158075286Y-74325219D02*
X158122905Y-74277600D01*
X158218143Y-74229981D01*
X158456239Y-74229981D01*
X158551477Y-74277600D01*
X158599096Y-74325219D01*
X158646715Y-74420457D01*
X158646715Y-74515695D01*
X158599096Y-74658552D01*
X158027667Y-75229981D01*
X158646715Y-75229981D01*
X159579334Y-67912381D02*
X159246000Y-67436190D01*
X159007905Y-67912381D02*
X159007905Y-66912381D01*
X159388858Y-66912381D01*
X159484096Y-66960000D01*
X159531715Y-67007619D01*
X159579334Y-67102857D01*
X159579334Y-67245714D01*
X159531715Y-67340952D01*
X159484096Y-67388571D01*
X159388858Y-67436190D01*
X159007905Y-67436190D01*
X159912667Y-66912381D02*
X160531715Y-66912381D01*
X160198381Y-67293333D01*
X160341239Y-67293333D01*
X160436477Y-67340952D01*
X160484096Y-67388571D01*
X160531715Y-67483810D01*
X160531715Y-67721905D01*
X160484096Y-67817143D01*
X160436477Y-67864762D01*
X160341239Y-67912381D01*
X160055524Y-67912381D01*
X159960286Y-67864762D01*
X159912667Y-67817143D01*
X137653734Y-75382381D02*
X137320400Y-74906190D01*
X137082305Y-75382381D02*
X137082305Y-74382381D01*
X137463258Y-74382381D01*
X137558496Y-74430000D01*
X137606115Y-74477619D01*
X137653734Y-74572857D01*
X137653734Y-74715714D01*
X137606115Y-74810952D01*
X137558496Y-74858571D01*
X137463258Y-74906190D01*
X137082305Y-74906190D01*
X138510877Y-74715714D02*
X138510877Y-75382381D01*
X138272781Y-74334762D02*
X138034686Y-75049048D01*
X138653734Y-75049048D01*
X134261905Y-83452381D02*
X134261905Y-82452381D01*
X134642858Y-82452381D01*
X134738096Y-82500000D01*
X134785715Y-82547619D01*
X134833334Y-82642857D01*
X134833334Y-82785714D01*
X134785715Y-82880952D01*
X134738096Y-82928571D01*
X134642858Y-82976190D01*
X134261905Y-82976190D01*
X135309524Y-83452381D02*
X135500000Y-83452381D01*
X135595239Y-83404762D01*
X135642858Y-83357143D01*
X135738096Y-83214286D01*
X135785715Y-83023810D01*
X135785715Y-82642857D01*
X135738096Y-82547619D01*
X135690477Y-82500000D01*
X135595239Y-82452381D01*
X135404762Y-82452381D01*
X135309524Y-82500000D01*
X135261905Y-82547619D01*
X135214286Y-82642857D01*
X135214286Y-82880952D01*
X135261905Y-82976190D01*
X135309524Y-83023810D01*
X135404762Y-83071429D01*
X135595239Y-83071429D01*
X135690477Y-83023810D01*
X135738096Y-82976190D01*
X135785715Y-82880952D01*
X163785714Y-83452381D02*
X163785714Y-82452381D01*
X164166667Y-82452381D01*
X164261905Y-82500000D01*
X164309524Y-82547619D01*
X164357143Y-82642857D01*
X164357143Y-82785714D01*
X164309524Y-82880952D01*
X164261905Y-82928571D01*
X164166667Y-82976190D01*
X163785714Y-82976190D01*
X165309524Y-83452381D02*
X164738095Y-83452381D01*
X165023809Y-83452381D02*
X165023809Y-82452381D01*
X164928571Y-82595238D01*
X164833333Y-82690476D01*
X164738095Y-82738095D01*
X165928571Y-82452381D02*
X166023810Y-82452381D01*
X166119048Y-82500000D01*
X166166667Y-82547619D01*
X166214286Y-82642857D01*
X166261905Y-82833333D01*
X166261905Y-83071429D01*
X166214286Y-83261905D01*
X166166667Y-83357143D01*
X166119048Y-83404762D01*
X166023810Y-83452381D01*
X165928571Y-83452381D01*
X165833333Y-83404762D01*
X165785714Y-83357143D01*
X165738095Y-83261905D01*
X165690476Y-83071429D01*
X165690476Y-82833333D01*
X165738095Y-82642857D01*
X165785714Y-82547619D01*
X165833333Y-82500000D01*
X165928571Y-82452381D01*
X149904762Y-77047619D02*
X149809524Y-77000000D01*
X149714286Y-76904762D01*
X149571429Y-76761905D01*
X149476190Y-76714286D01*
X149380952Y-76714286D01*
X149428571Y-76952381D02*
X149333333Y-76904762D01*
X149238095Y-76809524D01*
X149190476Y-76619048D01*
X149190476Y-76285714D01*
X149238095Y-76095238D01*
X149333333Y-76000000D01*
X149428571Y-75952381D01*
X149619048Y-75952381D01*
X149714286Y-76000000D01*
X149809524Y-76095238D01*
X149857143Y-76285714D01*
X149857143Y-76619048D01*
X149809524Y-76809524D01*
X149714286Y-76904762D01*
X149619048Y-76952381D01*
X149428571Y-76952381D01*
X150809524Y-76952381D02*
X150238095Y-76952381D01*
X150523809Y-76952381D02*
X150523809Y-75952381D01*
X150428571Y-76095238D01*
X150333333Y-76190476D01*
X150238095Y-76238095D01*
X144904762Y-86547619D02*
X144809524Y-86500000D01*
X144714286Y-86404762D01*
X144571429Y-86261905D01*
X144476190Y-86214286D01*
X144380952Y-86214286D01*
X144428571Y-86452381D02*
X144333333Y-86404762D01*
X144238095Y-86309524D01*
X144190476Y-86119048D01*
X144190476Y-85785714D01*
X144238095Y-85595238D01*
X144333333Y-85500000D01*
X144428571Y-85452381D01*
X144619048Y-85452381D01*
X144714286Y-85500000D01*
X144809524Y-85595238D01*
X144857143Y-85785714D01*
X144857143Y-86119048D01*
X144809524Y-86309524D01*
X144714286Y-86404762D01*
X144619048Y-86452381D01*
X144428571Y-86452381D01*
X145238095Y-85547619D02*
X145285714Y-85500000D01*
X145380952Y-85452381D01*
X145619048Y-85452381D01*
X145714286Y-85500000D01*
X145761905Y-85547619D01*
X145809524Y-85642857D01*
X145809524Y-85738095D01*
X145761905Y-85880952D01*
X145190476Y-86452381D01*
X145809524Y-86452381D01*
M02*
