G04 #@! TF.FileFunction,Soldermask,Bot*
%FSLAX46Y46*%
G04 Gerber Fmt 4.6, Leading zero omitted, Abs format (unit mm)*
G04 Created by KiCad (PCBNEW 201610040836+7277~55~ubuntu14.04.1-) date Sun Oct 16 19:06:11 2016*
%MOMM*%
%LPD*%
G01*
G04 APERTURE LIST*
%ADD10C,0.100000*%
%ADD11C,1.000000*%
%ADD12C,2.032000*%
%ADD13O,2.032000X2.032000*%
%ADD14O,1.998980X2.999740*%
%ADD15O,2.999740X1.998980*%
%ADD16C,1.397000*%
%ADD17C,3.000000*%
%ADD18R,2.000000X1.900000*%
%ADD19C,1.900000*%
%ADD20C,4.000000*%
%ADD21C,2.499360*%
G04 APERTURE END LIST*
D10*
G36*
X176909340Y-89037402D02*
X177030608Y-89037402D01*
X177030608Y-88408328D01*
X177030608Y-88344938D01*
X177029225Y-88278103D01*
X177027165Y-88214024D01*
X177025104Y-88159592D01*
X177045774Y-88180951D01*
X177064378Y-88198177D01*
X177083671Y-88216091D01*
X177108476Y-88237451D01*
X177210450Y-88320822D01*
X177276596Y-88236073D01*
X177012702Y-88030056D01*
X176909349Y-88030056D01*
X176909349Y-89037402D01*
X176909340Y-89037402D01*
X176909340Y-89037402D01*
G37*
G36*
X177829181Y-89037402D02*
X178115813Y-88280859D01*
X177982832Y-88280859D01*
X177822291Y-88726654D01*
X177783361Y-88843960D01*
X177761657Y-88927159D01*
X177756145Y-88927159D01*
X177751322Y-88907177D01*
X177743741Y-88882373D01*
X177728927Y-88836553D01*
X177692754Y-88726654D01*
X177531524Y-88280859D01*
X177399232Y-88280859D01*
X177686553Y-89037402D01*
X177829180Y-89037402D01*
X177829181Y-89037402D01*
X177829181Y-89037402D01*
G37*
G36*
X171412003Y-88649040D02*
X171193621Y-88574009D01*
X171250962Y-88611220D01*
X171288172Y-88663070D01*
X171300982Y-88721631D01*
X171290001Y-88803372D01*
X171256450Y-88875963D01*
X171200329Y-88929034D01*
X171122248Y-88949164D01*
X171122251Y-88949164D01*
X171055761Y-88936964D01*
X171003300Y-88899143D01*
X170969749Y-88835092D01*
X170957549Y-88742981D01*
X170967918Y-88666730D01*
X170997808Y-88608779D01*
X171048439Y-88572179D01*
X171118590Y-88559369D01*
X171193621Y-88574009D01*
X171412003Y-88649040D01*
X171410479Y-88585142D01*
X171405905Y-88521548D01*
X171396907Y-88459480D01*
X171383335Y-88400157D01*
X171363967Y-88343731D01*
X171338805Y-88291575D01*
X171306931Y-88244910D01*
X171267434Y-88204954D01*
X171219853Y-88171861D01*
X171163732Y-88147003D01*
X171098156Y-88130991D01*
X171022211Y-88125653D01*
X170996590Y-88126263D01*
X170968529Y-88128704D01*
X170941077Y-88132364D01*
X170917286Y-88137244D01*
X170917286Y-88231795D01*
X170965477Y-88220815D01*
X171018547Y-88217155D01*
X171115539Y-88230575D01*
X171187520Y-88267176D01*
X171238760Y-88323907D01*
X171271701Y-88397108D01*
X171290612Y-88481899D01*
X171298543Y-88575840D01*
X171291222Y-88575840D01*
X171261942Y-88534969D01*
X171221071Y-88502029D01*
X171169220Y-88480069D01*
X171103950Y-88472138D01*
X170999028Y-88490439D01*
X170919117Y-88542899D01*
X170868487Y-88628300D01*
X170854762Y-88681981D01*
X170850187Y-88742982D01*
X170854915Y-88809015D01*
X170869099Y-88868033D01*
X170923390Y-88962585D01*
X171008791Y-89021755D01*
X171061862Y-89037311D01*
X171121032Y-89042496D01*
X171180203Y-89036548D01*
X171235714Y-89018704D01*
X171285277Y-88988661D01*
X171327825Y-88946114D01*
X171362748Y-88891060D01*
X171389436Y-88823502D01*
X171406363Y-88742981D01*
X171412005Y-88649040D01*
X171412003Y-88649040D01*
X171412003Y-88649040D01*
G37*
G36*
X171735308Y-89030295D02*
X171842669Y-89030295D01*
X171842669Y-88473358D01*
X171842669Y-88417237D01*
X171841455Y-88358066D01*
X171839621Y-88301335D01*
X171837786Y-88253145D01*
X171856086Y-88272055D01*
X171872556Y-88287305D01*
X171889636Y-88303166D01*
X171911596Y-88322076D01*
X172001877Y-88395887D01*
X172060438Y-88320856D01*
X171826805Y-88138464D01*
X171735304Y-88138464D01*
X171735304Y-89030295D01*
X171735308Y-89030295D01*
X171735308Y-89030295D01*
G37*
G36*
X172227584Y-88583159D02*
X172380086Y-88857663D01*
X172361786Y-88806727D01*
X172349586Y-88744201D01*
X172342267Y-88669475D01*
X172339827Y-88583159D01*
X172342267Y-88497453D01*
X172349586Y-88423337D01*
X172361786Y-88360811D01*
X172380086Y-88309876D01*
X172433767Y-88242165D01*
X172513678Y-88219595D01*
X172593589Y-88242165D01*
X172646050Y-88309876D01*
X172663436Y-88360811D01*
X172675330Y-88423337D01*
X172682193Y-88497453D01*
X172684480Y-88583159D01*
X172682193Y-88668865D01*
X172675330Y-88742981D01*
X172663435Y-88805659D01*
X172646050Y-88857053D01*
X172593589Y-88925374D01*
X172513678Y-88947944D01*
X172433767Y-88925374D01*
X172380086Y-88857663D01*
X172227584Y-88583159D01*
X172231549Y-88685488D01*
X172243445Y-88776532D01*
X172263576Y-88855375D01*
X172293465Y-88921103D01*
X172332658Y-88973259D01*
X172381917Y-89011385D01*
X172442002Y-89034718D01*
X172513678Y-89042495D01*
X172581084Y-89034718D01*
X172639340Y-89011385D01*
X172687988Y-88973259D01*
X172727791Y-88921103D01*
X172758291Y-88855375D01*
X172780252Y-88776532D01*
X172793062Y-88685488D01*
X172797332Y-88583159D01*
X172793519Y-88480830D01*
X172782081Y-88389787D01*
X172761797Y-88311096D01*
X172732670Y-88245825D01*
X172693629Y-88193669D01*
X172644829Y-88155544D01*
X172584896Y-88132211D01*
X172513677Y-88124433D01*
X172445814Y-88132211D01*
X172387405Y-88155544D01*
X172338300Y-88193212D01*
X172298344Y-88245215D01*
X172267386Y-88310486D01*
X172245274Y-88389177D01*
X172232006Y-88480373D01*
X172227584Y-88583159D01*
X172227584Y-88583159D01*
G37*
G36*
X172930313Y-89030295D02*
X173486640Y-89030295D01*
X173486640Y-88935134D01*
X173273137Y-88702721D01*
X173229827Y-88655445D01*
X173191396Y-88612439D01*
X173130396Y-88532528D01*
X173091355Y-88454447D01*
X173077936Y-88368436D01*
X173088304Y-88304995D01*
X173118195Y-88258635D01*
X173163335Y-88229355D01*
X173221896Y-88219594D01*
X173326818Y-88243385D01*
X173415269Y-88303165D01*
X173477490Y-88230574D01*
X173425029Y-88189704D01*
X173364638Y-88156154D01*
X173296317Y-88134193D01*
X173220676Y-88125653D01*
X173115145Y-88142123D01*
X173034624Y-88189704D01*
X172983993Y-88264735D01*
X172965694Y-88364166D01*
X172982164Y-88462988D01*
X173026695Y-88555709D01*
X173057653Y-88601002D01*
X173094406Y-88646600D01*
X173135124Y-88693266D01*
X173179197Y-88741761D01*
X173350609Y-88924154D01*
X173350609Y-88929034D01*
X172930314Y-88929034D01*
X172930314Y-89030295D01*
X172930313Y-89030295D01*
X172930313Y-89030295D01*
G37*
G36*
X174476121Y-88247179D02*
X174453670Y-88178967D01*
X174386287Y-88156216D01*
X174318913Y-88178952D01*
X174296472Y-88247179D01*
X174318928Y-88314538D01*
X174386287Y-88336994D01*
X174453655Y-88314538D01*
X174476121Y-88247179D01*
X174476121Y-88247179D01*
G37*
G36*
X174212401Y-88412984D02*
X174212401Y-88676665D01*
X174286074Y-88676665D01*
X174286074Y-88989857D01*
X174486459Y-88989857D01*
X174486459Y-88676685D01*
X174560132Y-88676685D01*
X174560132Y-88412984D01*
X174548062Y-88383624D01*
X174518701Y-88371533D01*
X174253832Y-88371533D01*
X174225056Y-88383624D01*
X174212401Y-88412984D01*
X174212401Y-88412984D01*
G37*
G36*
X174387555Y-87928219D02*
X174385269Y-88044521D01*
X174279862Y-88054184D01*
X174182462Y-88083155D01*
X174093125Y-88131411D01*
X174011907Y-88198927D01*
X173944443Y-88280188D01*
X173896284Y-88369637D01*
X173867406Y-88467285D01*
X173857786Y-88573142D01*
X173867261Y-88679982D01*
X173895706Y-88777125D01*
X173943153Y-88864622D01*
X174009632Y-88942523D01*
X174093155Y-89011568D01*
X174183637Y-89060886D01*
X174281026Y-89090477D01*
X174385269Y-89100341D01*
X174489767Y-89090589D01*
X174586778Y-89061302D01*
X174676303Y-89012436D01*
X174758346Y-88943945D01*
X174826820Y-88862067D01*
X174875689Y-88772962D01*
X174904985Y-88676647D01*
X174914743Y-88573142D01*
X174904876Y-88469878D01*
X174875280Y-88373090D01*
X174825961Y-88282775D01*
X174756925Y-88198927D01*
X174676719Y-88131411D01*
X174588077Y-88083155D01*
X174490945Y-88054184D01*
X174385269Y-88044521D01*
X174387555Y-87928219D01*
X174491181Y-87935677D01*
X174588332Y-87958055D01*
X174679024Y-87995358D01*
X174763276Y-88047590D01*
X174841106Y-88114758D01*
X174909494Y-88195005D01*
X174962682Y-88280978D01*
X175000669Y-88372666D01*
X175023460Y-88470058D01*
X175031057Y-88573142D01*
X175023460Y-88676071D01*
X175000669Y-88772988D01*
X174962682Y-88863909D01*
X174909494Y-88948851D01*
X174841106Y-89027830D01*
X174761446Y-89096227D01*
X174676276Y-89149415D01*
X174585581Y-89187400D01*
X174489346Y-89210187D01*
X174387555Y-89217781D01*
X174283968Y-89210099D01*
X174185988Y-89187046D01*
X174093621Y-89148611D01*
X174006875Y-89094785D01*
X173925758Y-89025555D01*
X173859423Y-88949624D01*
X173807829Y-88866428D01*
X173770976Y-88775956D01*
X173748865Y-88678198D01*
X173741494Y-88573142D01*
X173749003Y-88468212D01*
X173771527Y-88369901D01*
X173809065Y-88278216D01*
X173861614Y-88193165D01*
X173929170Y-88114758D01*
X174007214Y-88047598D01*
X174092089Y-87995366D01*
X174183779Y-87958061D01*
X174282273Y-87935679D01*
X174387555Y-87928219D01*
X174387555Y-87928219D01*
G37*
G36*
X175485760Y-88465991D02*
X175570981Y-88510909D01*
X175604958Y-88470606D01*
X175643528Y-88459099D01*
X175708313Y-88487593D01*
X175729918Y-88573097D01*
X175708035Y-88655980D01*
X175643529Y-88687095D01*
X175564112Y-88631819D01*
X175483505Y-88672122D01*
X175554862Y-88746401D01*
X175652739Y-88773465D01*
X175731471Y-88760230D01*
X175792611Y-88720486D01*
X175831947Y-88657162D01*
X175845046Y-88573117D01*
X175831663Y-88490498D01*
X175791483Y-88426876D01*
X175730909Y-88386286D01*
X175656205Y-88372749D01*
X175553701Y-88396034D01*
X175485762Y-88465991D01*
X175485760Y-88465991D01*
X175485760Y-88465991D01*
G37*
G36*
X175857699Y-88465991D02*
X175944089Y-88510909D01*
X175978045Y-88470606D01*
X176015487Y-88459099D01*
X176080255Y-88487593D01*
X176101857Y-88573097D01*
X176079993Y-88655980D01*
X176015488Y-88687095D01*
X175936010Y-88631819D01*
X175856572Y-88672122D01*
X175926821Y-88746401D01*
X176025846Y-88773465D01*
X176103871Y-88760230D01*
X176165195Y-88720486D01*
X176204913Y-88657162D01*
X176218153Y-88573117D01*
X176204765Y-88490498D01*
X176164610Y-88426876D01*
X176104017Y-88386286D01*
X176029292Y-88372749D01*
X175926508Y-88396034D01*
X175857701Y-88465991D01*
X175857699Y-88465991D01*
X175857699Y-88465991D01*
G37*
G36*
X175851997Y-87928219D02*
X175849711Y-88044521D01*
X175744245Y-88054251D01*
X175646653Y-88083428D01*
X175556965Y-88132038D01*
X175475212Y-88200065D01*
X175409416Y-88280061D01*
X175361469Y-88370395D01*
X175332062Y-88468890D01*
X175322228Y-88573142D01*
X175331635Y-88679604D01*
X175359874Y-88776701D01*
X175406967Y-88864434D01*
X175472937Y-88942807D01*
X175556066Y-89009868D01*
X175648670Y-89059110D01*
X175747642Y-89089237D01*
X175849711Y-89099204D01*
X175952118Y-89089371D01*
X176049900Y-89059678D01*
X176140687Y-89011013D01*
X176221651Y-88944513D01*
X176288868Y-88863837D01*
X176338523Y-88772761D01*
X176369228Y-88674841D01*
X176379470Y-88573142D01*
X176369228Y-88470460D01*
X176338523Y-88372101D01*
X176288875Y-88280769D01*
X176221651Y-88198927D01*
X176141831Y-88131410D01*
X176053236Y-88083154D01*
X175955863Y-88054183D01*
X175849711Y-88044521D01*
X175851997Y-87928219D01*
X175955942Y-87935727D01*
X176053144Y-87958252D01*
X176143614Y-87995789D01*
X176227366Y-88048338D01*
X176304411Y-88115895D01*
X176361652Y-88180823D01*
X176409043Y-88251242D01*
X176446589Y-88327173D01*
X176473770Y-88406979D01*
X176490069Y-88488983D01*
X176495499Y-88573142D01*
X176490131Y-88657675D01*
X176474021Y-88739354D01*
X176447158Y-88818259D01*
X176409996Y-88893178D01*
X176362987Y-88962848D01*
X176306117Y-89027262D01*
X176241627Y-89084190D01*
X176171769Y-89131397D01*
X176096545Y-89168872D01*
X176017443Y-89196070D01*
X175935949Y-89212360D01*
X175851997Y-89217781D01*
X175767656Y-89212289D01*
X175685076Y-89195801D01*
X175604322Y-89168303D01*
X175527300Y-89130439D01*
X175455937Y-89082859D01*
X175390200Y-89025555D01*
X175334488Y-88963423D01*
X175288602Y-88895259D01*
X175252571Y-88821102D01*
X175226679Y-88742159D01*
X175211126Y-88659528D01*
X175205937Y-88573142D01*
X175211184Y-88487202D01*
X175226921Y-88404443D01*
X175253140Y-88324898D01*
X175289488Y-88249857D01*
X175335563Y-88180560D01*
X175391338Y-88117032D01*
X175470565Y-88049055D01*
X175556255Y-87996187D01*
X175648398Y-87958426D01*
X175746983Y-87935770D01*
X175851997Y-87928219D01*
X175851997Y-87928219D01*
G37*
D11*
X173270000Y-75000000D03*
X170730000Y-75000000D03*
D12*
X150053000Y-66823000D03*
D13*
X150053000Y-69363000D03*
D12*
X134553000Y-86823000D03*
D13*
X132013000Y-86823000D03*
D14*
X150093000Y-73283000D03*
D15*
X147553000Y-75823000D03*
X152633000Y-75823000D03*
D16*
X148998000Y-71823000D03*
X140108000Y-71823000D03*
X135783000Y-69823000D03*
X138323000Y-69823000D03*
X164323000Y-69823000D03*
X161783000Y-69823000D03*
D11*
X126730000Y-75000000D03*
X129270000Y-75000000D03*
D16*
X154498000Y-84323000D03*
X145608000Y-84323000D03*
X159998000Y-71823000D03*
X151108000Y-71823000D03*
X145608000Y-80823000D03*
X154498000Y-80823000D03*
D17*
X157378400Y-94208600D03*
D18*
X139553000Y-82823000D03*
D19*
X139553000Y-85363000D03*
D18*
X160553000Y-82823000D03*
D19*
X160553000Y-85363000D03*
D14*
X157093000Y-75783000D03*
D15*
X154553000Y-78323000D03*
X159633000Y-78323000D03*
D20*
X133053000Y-83323000D03*
X167053000Y-83323000D03*
D17*
X165074600Y-93522800D03*
X153568400Y-94437200D03*
X161239200Y-93700600D03*
X142392400Y-93853000D03*
X146253200Y-94208600D03*
X168910000Y-93751400D03*
X130886200Y-94208600D03*
X134747000Y-93726000D03*
X172770800Y-94132400D03*
X127076200Y-94513400D03*
X150063200Y-94818200D03*
X138582400Y-93624400D03*
D14*
X142593000Y-75783000D03*
D15*
X140053000Y-78323000D03*
X145133000Y-78323000D03*
D21*
X134553640Y-79862360D03*
X132054280Y-74823000D03*
X137053000Y-74823000D03*
X165053640Y-79862360D03*
X162554280Y-74823000D03*
X167553000Y-74823000D03*
M02*
