M48
;DRILL file {KiCad 4.1.0-alpha+201608271546+7097~46~ubuntu14.04.1-product} date Sun Aug 28 20:18:06 2016
;FORMAT={-:-/ absolute / metric / decimal}
FMAT,2
METRIC,TZ
T1C0.600
T2C0.700
T3C0.813
T4C1.000
T5C1.001
T6C2.000
T7C3.000
%
G90
G05
M71
T1
X126.73Y-75.
X129.27Y-75.
X170.73Y-74.
X173.27Y-74.
T2
X147.352Y-75.616
X149.352Y-75.616
T3
X134.087Y-76.022
X138.Y-70.
X140.54Y-70.
X142.977Y-76.022
X153.416Y-75.75
X156.73Y-70.
X159.27Y-70.
X162.306Y-75.75
T4
X139.92Y-80.
X142.46Y-82.54
X145.Y-80.
X150.Y-82.5
X152.54Y-79.96
X155.08Y-82.5
T5
X138.75Y-87.25
X138.75Y-89.79
X160.75Y-83.21
X160.75Y-85.75
T6
X127.076Y-94.513
X130.886Y-94.209
X134.747Y-93.726
X138.582Y-93.624
X142.392Y-93.853
X146.253Y-94.209
X150.063Y-94.818
X153.568Y-94.437
X157.378Y-94.209
X161.239Y-93.701
X165.075Y-93.523
X168.91Y-93.751
X172.771Y-94.132
T7
X133.Y-83.
X167.Y-83.
T0
M30
