M48
;DRILL file {KiCad 4.0.7-e2-6376~58~ubuntu16.04.1} date Thu Nov 30 13:22:30 2017
;FORMAT={-:-/ absolute / metric / decimal}
FMAT,2
METRIC,TZ
T1C0.400
T2C0.600
T3C0.750
T4C0.813
T5C1.001
T6C1.199
T7C2.000
T8C3.000
%
G90
G05
M71
T1
X143.027Y-80.117
X155.128Y-76.048
X156.078Y-79.959
X164.958Y-76.119
T2
X126.891Y-74.991
X129.431Y-74.991
X141.103Y-75.573
X141.103Y-76.843
X141.103Y-78.113
X157.903Y-75.733
X157.903Y-77.003
X157.903Y-78.273
X170.708Y-75.823
X173.248Y-75.823
T3
X148.403Y-69.723
X150.403Y-69.723
T4
X135.783Y-69.823
X138.323Y-69.823
X144.158Y-84.773
X145.308Y-81.573
X153.048Y-84.773
X154.198Y-81.573
X161.783Y-69.823
X164.323Y-69.823
T5
X139.553Y-82.823
X139.553Y-85.363
X160.553Y-82.823
X160.553Y-85.363
T6
X132.054Y-74.823
X134.554Y-79.862
X137.053Y-74.823
X162.554Y-74.823
X165.054Y-79.862
X167.553Y-74.823
T7
X127.076Y-94.513
X130.886Y-94.209
X134.747Y-93.726
X138.582Y-93.624
X142.392Y-93.853
X146.253Y-94.209
X150.063Y-94.818
X153.568Y-94.437
X157.378Y-94.209
X161.239Y-93.701
X165.075Y-93.523
X168.91Y-93.751
X172.771Y-94.132
T8
X133.053Y-83.323
X167.053Y-83.323
T0
M30
