G04 #@! TF.FileFunction,Soldermask,Bot*
%FSLAX46Y46*%
G04 Gerber Fmt 4.6, Leading zero omitted, Abs format (unit mm)*
G04 Created by KiCad (PCBNEW 201610040836+7277~55~ubuntu14.04.1-) date Sun Oct 16 17:20:28 2016*
%MOMM*%
%LPD*%
G01*
G04 APERTURE LIST*
%ADD10C,0.100000*%
%ADD11O,2.032000X2.032000*%
%ADD12C,2.032000*%
%ADD13O,2.999740X1.998980*%
%ADD14O,1.998980X2.999740*%
%ADD15C,1.397000*%
%ADD16C,1.000000*%
%ADD17C,3.000000*%
%ADD18C,1.900000*%
%ADD19R,2.000000X1.900000*%
%ADD20C,4.000000*%
%ADD21C,2.499360*%
G04 APERTURE END LIST*
D10*
D11*
X150053000Y-69363000D03*
D12*
X150053000Y-66823000D03*
D11*
X132013000Y-86823000D03*
D12*
X134553000Y-86823000D03*
D13*
X152633000Y-75823000D03*
X147553000Y-75823000D03*
D14*
X150093000Y-73283000D03*
D15*
X140108000Y-71823000D03*
X148998000Y-71823000D03*
X138323000Y-69823000D03*
X135783000Y-69823000D03*
X161783000Y-69823000D03*
X164323000Y-69823000D03*
D16*
X129270000Y-75000000D03*
X126730000Y-75000000D03*
X173270000Y-75000000D03*
X170730000Y-75000000D03*
D15*
X145608000Y-84323000D03*
X154498000Y-84323000D03*
X151108000Y-71823000D03*
X159998000Y-71823000D03*
X154498000Y-80823000D03*
X145608000Y-80823000D03*
D17*
X157378400Y-94208600D03*
D18*
X139553000Y-85363000D03*
D19*
X139553000Y-82823000D03*
D18*
X160553000Y-85363000D03*
D19*
X160553000Y-82823000D03*
D13*
X159633000Y-78323000D03*
X154553000Y-78323000D03*
D14*
X157093000Y-75783000D03*
D20*
X133053000Y-83323000D03*
X167053000Y-83323000D03*
D17*
X165074600Y-93522800D03*
X153568400Y-94437200D03*
X161239200Y-93700600D03*
X142392400Y-93853000D03*
X146253200Y-94208600D03*
X168910000Y-93751400D03*
X130886200Y-94208600D03*
X134747000Y-93726000D03*
X172770800Y-94132400D03*
X127076200Y-94513400D03*
X150063200Y-94818200D03*
X138582400Y-93624400D03*
D13*
X145133000Y-78323000D03*
X140053000Y-78323000D03*
D14*
X142593000Y-75783000D03*
D21*
X137053000Y-74823000D03*
X132054280Y-74823000D03*
X134553640Y-79862360D03*
X167553000Y-74823000D03*
X162554280Y-74823000D03*
X165053640Y-79862360D03*
M02*
