G04 #@! TF.FileFunction,Legend,Top*
%FSLAX46Y46*%
G04 Gerber Fmt 4.6, Leading zero omitted, Abs format (unit mm)*
G04 Created by KiCad (PCBNEW no-vcs-found-undefined) date Sat Oct 15 18:51:38 2016*
%MOMM*%
%LPD*%
G01*
G04 APERTURE LIST*
%ADD10C,0.100000*%
%ADD11C,0.150000*%
G04 APERTURE END LIST*
D10*
D11*
X174286000Y-77540000D02*
X174286000Y-89224000D01*
X169587000Y-77540000D02*
X174286000Y-77540000D01*
X169587000Y-89224000D02*
X169587000Y-77540000D01*
X174286000Y-89224000D02*
X169587000Y-89224000D01*
X132975096Y-86285112D02*
G75*
G03X136000000Y-86270000I1524904J-2484888D01*
G01*
X133000000Y-86270000D02*
X136000000Y-86270000D01*
X137017936Y-88770000D02*
G75*
G03X137017936Y-88770000I-2517936J0D01*
G01*
X159225096Y-81995112D02*
G75*
G03X162250000Y-81980000I1524904J-2484888D01*
G01*
X159250000Y-81980000D02*
X162250000Y-81980000D01*
X163267936Y-84480000D02*
G75*
G03X163267936Y-84480000I-2517936J0D01*
G01*
X145743000Y-84188000D02*
X145743000Y-86093000D01*
X145743000Y-86093000D02*
X153363000Y-86093000D01*
X153363000Y-86093000D02*
X153363000Y-83553000D01*
X153363000Y-83553000D02*
X145743000Y-83553000D01*
X145743000Y-83553000D02*
X145743000Y-84188000D01*
X145108000Y-84823000D02*
X145743000Y-84823000D01*
X153363000Y-84823000D02*
X153998000Y-84823000D01*
X145743000Y-84188000D02*
X146378000Y-83553000D01*
X153363000Y-82458000D02*
X153363000Y-80553000D01*
X153363000Y-80553000D02*
X145743000Y-80553000D01*
X145743000Y-80553000D02*
X145743000Y-83093000D01*
X145743000Y-83093000D02*
X153363000Y-83093000D01*
X153363000Y-83093000D02*
X153363000Y-82458000D01*
X153998000Y-81823000D02*
X153363000Y-81823000D01*
X145743000Y-81823000D02*
X145108000Y-81823000D01*
X153363000Y-82458000D02*
X152728000Y-83093000D01*
X155343001Y-76273000D02*
G75*
G03X154543000Y-77073000I1249999J-2050000D01*
G01*
X157842999Y-76273000D02*
G75*
G02X158643000Y-77073000I-1249999J-2050000D01*
G01*
X154554274Y-79597203D02*
G75*
G03X154893000Y-80023000I2038726J1274203D01*
G01*
X158631726Y-79597203D02*
G75*
G02X158293000Y-80023000I-2038726J1274203D01*
G01*
X154893000Y-80023000D02*
X158293000Y-80023000D01*
X130286000Y-89224000D02*
X125587000Y-89224000D01*
X125587000Y-89224000D02*
X125587000Y-77540000D01*
X125587000Y-77540000D02*
X130286000Y-77540000D01*
X130286000Y-77540000D02*
X130286000Y-89224000D01*
X148343001Y-73773000D02*
G75*
G03X147543000Y-74573000I1249999J-2050000D01*
G01*
X150842999Y-73773000D02*
G75*
G02X151643000Y-74573000I-1249999J-2050000D01*
G01*
X147554274Y-77097203D02*
G75*
G03X147893000Y-77523000I2038726J1274203D01*
G01*
X151631726Y-77097203D02*
G75*
G02X151293000Y-77523000I-2038726J1274203D01*
G01*
X147893000Y-77523000D02*
X151293000Y-77523000D01*
X141343001Y-76273000D02*
G75*
G03X140543000Y-77073000I1249999J-2050000D01*
G01*
X143842999Y-76273000D02*
G75*
G02X144643000Y-77073000I-1249999J-2050000D01*
G01*
X140554274Y-79597203D02*
G75*
G03X140893000Y-80023000I2038726J1274203D01*
G01*
X144631726Y-79597203D02*
G75*
G02X144293000Y-80023000I-2038726J1274203D01*
G01*
X140893000Y-80023000D02*
X144293000Y-80023000D01*
X134807000Y-77664000D02*
X134807000Y-78426000D01*
X134299000Y-77664000D02*
X134299000Y-78426000D01*
X134807000Y-75632000D02*
G75*
G03X132902000Y-77029000I-254000J-1651000D01*
G01*
X136204000Y-77156000D02*
G75*
G03X134426000Y-75632000I-1651000J-127000D01*
G01*
X133156000Y-76394000D02*
G75*
G03X133664000Y-78680000I1397000J-889000D01*
G01*
X135442000Y-78680000D02*
G75*
G03X135950000Y-76394000I-889000J1397000D01*
G01*
X137855000Y-73473000D02*
X137855000Y-73600000D01*
X137855000Y-77283000D02*
X137855000Y-75886000D01*
X131251000Y-73473000D02*
X131251000Y-73600000D01*
X131251000Y-77283000D02*
X131251000Y-75886000D01*
X135696000Y-74362000D02*
X135315000Y-74235000D01*
X135315000Y-74235000D02*
X134553000Y-74108000D01*
X134553000Y-74108000D02*
X133791000Y-74235000D01*
X133791000Y-74235000D02*
X133410000Y-74362000D01*
X135823000Y-75251000D02*
X133283000Y-75251000D01*
X131632000Y-76013000D02*
G75*
G03X133283000Y-80204000I2921000J-1270000D01*
G01*
X135823000Y-80204000D02*
G75*
G03X137474000Y-76013000I-1270000J2921000D01*
G01*
X132521000Y-80585000D02*
X133410000Y-80585000D01*
X135696000Y-80585000D02*
X136585000Y-80585000D01*
X132902000Y-77664000D02*
X132394000Y-77664000D01*
X132394000Y-77664000D02*
X132394000Y-76902000D01*
X132394000Y-76902000D02*
X132902000Y-76902000D01*
X136204000Y-77664000D02*
X136712000Y-77664000D01*
X136712000Y-77664000D02*
X136712000Y-76902000D01*
X136712000Y-76902000D02*
X136204000Y-76902000D01*
X134045000Y-77029000D02*
X132902000Y-77029000D01*
X134045000Y-77537000D02*
X132902000Y-77537000D01*
X135061000Y-77029000D02*
X136204000Y-77029000D01*
X135061000Y-77537000D02*
X136204000Y-77537000D01*
X134299000Y-76902000D02*
X134299000Y-75632000D01*
X134807000Y-76902000D02*
X134807000Y-75632000D01*
X135061000Y-77664000D02*
X135061000Y-76902000D01*
X135061000Y-76902000D02*
X134045000Y-76902000D01*
X134045000Y-76902000D02*
X134045000Y-77664000D01*
X134045000Y-77664000D02*
X135061000Y-77664000D01*
X136585000Y-80585000D02*
X137855000Y-79188000D01*
X137855000Y-79188000D02*
X137855000Y-77283000D01*
X132521000Y-80585000D02*
X131251000Y-79188000D01*
X131251000Y-79188000D02*
X131251000Y-77283000D01*
X131505000Y-73473000D02*
X131505000Y-73219000D01*
X131505000Y-73219000D02*
X132648000Y-73219000D01*
X132648000Y-73219000D02*
X132648000Y-73473000D01*
X137601000Y-73473000D02*
X137601000Y-73219000D01*
X137601000Y-73219000D02*
X136458000Y-73219000D01*
X136458000Y-73219000D02*
X136458000Y-73473000D01*
X137855000Y-73473000D02*
X131251000Y-73473000D01*
X164807640Y-77703360D02*
X164807640Y-78465360D01*
X164299640Y-77703360D02*
X164299640Y-78465360D01*
X164807640Y-75671360D02*
G75*
G03X162902640Y-77068360I-254000J-1651000D01*
G01*
X166204640Y-77195360D02*
G75*
G03X164426640Y-75671360I-1651000J-127000D01*
G01*
X163156640Y-76433360D02*
G75*
G03X163664640Y-78719360I1397000J-889000D01*
G01*
X165442640Y-78719360D02*
G75*
G03X165950640Y-76433360I-889000J1397000D01*
G01*
X167855640Y-73512360D02*
X167855640Y-73639360D01*
X167855640Y-77322360D02*
X167855640Y-75925360D01*
X161251640Y-73512360D02*
X161251640Y-73639360D01*
X161251640Y-77322360D02*
X161251640Y-75925360D01*
X165696640Y-74401360D02*
X165315640Y-74274360D01*
X165315640Y-74274360D02*
X164553640Y-74147360D01*
X164553640Y-74147360D02*
X163791640Y-74274360D01*
X163791640Y-74274360D02*
X163410640Y-74401360D01*
X165823640Y-75290360D02*
X163283640Y-75290360D01*
X161632640Y-76052360D02*
G75*
G03X163283640Y-80243360I2921000J-1270000D01*
G01*
X165823640Y-80243360D02*
G75*
G03X167474640Y-76052360I-1270000J2921000D01*
G01*
X162521640Y-80624360D02*
X163410640Y-80624360D01*
X165696640Y-80624360D02*
X166585640Y-80624360D01*
X162902640Y-77703360D02*
X162394640Y-77703360D01*
X162394640Y-77703360D02*
X162394640Y-76941360D01*
X162394640Y-76941360D02*
X162902640Y-76941360D01*
X166204640Y-77703360D02*
X166712640Y-77703360D01*
X166712640Y-77703360D02*
X166712640Y-76941360D01*
X166712640Y-76941360D02*
X166204640Y-76941360D01*
X164045640Y-77068360D02*
X162902640Y-77068360D01*
X164045640Y-77576360D02*
X162902640Y-77576360D01*
X165061640Y-77068360D02*
X166204640Y-77068360D01*
X165061640Y-77576360D02*
X166204640Y-77576360D01*
X164299640Y-76941360D02*
X164299640Y-75671360D01*
X164807640Y-76941360D02*
X164807640Y-75671360D01*
X165061640Y-77703360D02*
X165061640Y-76941360D01*
X165061640Y-76941360D02*
X164045640Y-76941360D01*
X164045640Y-76941360D02*
X164045640Y-77703360D01*
X164045640Y-77703360D02*
X165061640Y-77703360D01*
X166585640Y-80624360D02*
X167855640Y-79227360D01*
X167855640Y-79227360D02*
X167855640Y-77322360D01*
X162521640Y-80624360D02*
X161251640Y-79227360D01*
X161251640Y-79227360D02*
X161251640Y-77322360D01*
X161505640Y-73512360D02*
X161505640Y-73258360D01*
X161505640Y-73258360D02*
X162648640Y-73258360D01*
X162648640Y-73258360D02*
X162648640Y-73512360D01*
X167601640Y-73512360D02*
X167601640Y-73258360D01*
X167601640Y-73258360D02*
X166458640Y-73258360D01*
X166458640Y-73258360D02*
X166458640Y-73512360D01*
X167855640Y-73512360D02*
X161251640Y-73512360D01*
X151243000Y-71188000D02*
X151243000Y-73093000D01*
X151243000Y-73093000D02*
X158863000Y-73093000D01*
X158863000Y-73093000D02*
X158863000Y-70553000D01*
X158863000Y-70553000D02*
X151243000Y-70553000D01*
X151243000Y-70553000D02*
X151243000Y-71188000D01*
X150608000Y-71823000D02*
X151243000Y-71823000D01*
X158863000Y-71823000D02*
X159498000Y-71823000D01*
X151243000Y-71188000D02*
X151878000Y-70553000D01*
X140243000Y-71188000D02*
X140243000Y-73093000D01*
X140243000Y-73093000D02*
X147863000Y-73093000D01*
X147863000Y-73093000D02*
X147863000Y-70553000D01*
X147863000Y-70553000D02*
X140243000Y-70553000D01*
X140243000Y-70553000D02*
X140243000Y-71188000D01*
X139608000Y-71823000D02*
X140243000Y-71823000D01*
X147863000Y-71823000D02*
X148498000Y-71823000D01*
X140243000Y-71188000D02*
X140878000Y-70553000D01*
X176516380Y-82159523D02*
X175516380Y-82159523D01*
X176230666Y-81826190D01*
X175516380Y-81492857D01*
X176516380Y-81492857D01*
X176516380Y-80492857D02*
X176516380Y-81064285D01*
X176516380Y-80778571D02*
X175516380Y-80778571D01*
X175659238Y-80873809D01*
X175754476Y-80969047D01*
X175802095Y-81064285D01*
X156164114Y-95160980D02*
X156164114Y-94160980D01*
X156545066Y-94160980D01*
X156640304Y-94208600D01*
X156687923Y-94256219D01*
X156735542Y-94351457D01*
X156735542Y-94494314D01*
X156687923Y-94589552D01*
X156640304Y-94637171D01*
X156545066Y-94684790D01*
X156164114Y-94684790D01*
X157687923Y-95160980D02*
X157116495Y-95160980D01*
X157402209Y-95160980D02*
X157402209Y-94160980D01*
X157306971Y-94303838D01*
X157211733Y-94399076D01*
X157116495Y-94446695D01*
X158640304Y-95160980D02*
X158068876Y-95160980D01*
X158354590Y-95160980D02*
X158354590Y-94160980D01*
X158259352Y-94303838D01*
X158164114Y-94399076D01*
X158068876Y-94446695D01*
X133871704Y-85851980D02*
X133871704Y-84851980D01*
X134109800Y-84851980D01*
X134252657Y-84899600D01*
X134347895Y-84994838D01*
X134395514Y-85090076D01*
X134443133Y-85280552D01*
X134443133Y-85423409D01*
X134395514Y-85613885D01*
X134347895Y-85709123D01*
X134252657Y-85804361D01*
X134109800Y-85851980D01*
X133871704Y-85851980D01*
X135395514Y-85851980D02*
X134824085Y-85851980D01*
X135109800Y-85851980D02*
X135109800Y-84851980D01*
X135014561Y-84994838D01*
X134919323Y-85090076D01*
X134824085Y-85137695D01*
X159881304Y-81635580D02*
X159881304Y-80635580D01*
X160119400Y-80635580D01*
X160262257Y-80683200D01*
X160357495Y-80778438D01*
X160405114Y-80873676D01*
X160452733Y-81064152D01*
X160452733Y-81207009D01*
X160405114Y-81397485D01*
X160357495Y-81492723D01*
X160262257Y-81587961D01*
X160119400Y-81635580D01*
X159881304Y-81635580D01*
X160833685Y-80730819D02*
X160881304Y-80683200D01*
X160976542Y-80635580D01*
X161214638Y-80635580D01*
X161309876Y-80683200D01*
X161357495Y-80730819D01*
X161405114Y-80826057D01*
X161405114Y-80921295D01*
X161357495Y-81064152D01*
X160786066Y-81635580D01*
X161405114Y-81635580D01*
X149386333Y-85275380D02*
X149053000Y-84799190D01*
X148814904Y-85275380D02*
X148814904Y-84275380D01*
X149195857Y-84275380D01*
X149291095Y-84323000D01*
X149338714Y-84370619D01*
X149386333Y-84465857D01*
X149386333Y-84608714D01*
X149338714Y-84703952D01*
X149291095Y-84751571D01*
X149195857Y-84799190D01*
X148814904Y-84799190D01*
X149767285Y-84370619D02*
X149814904Y-84323000D01*
X149910142Y-84275380D01*
X150148238Y-84275380D01*
X150243476Y-84323000D01*
X150291095Y-84370619D01*
X150338714Y-84465857D01*
X150338714Y-84561095D01*
X150291095Y-84703952D01*
X149719666Y-85275380D01*
X150338714Y-85275380D01*
X149386333Y-82275380D02*
X149053000Y-81799190D01*
X148814904Y-82275380D02*
X148814904Y-81275380D01*
X149195857Y-81275380D01*
X149291095Y-81323000D01*
X149338714Y-81370619D01*
X149386333Y-81465857D01*
X149386333Y-81608714D01*
X149338714Y-81703952D01*
X149291095Y-81751571D01*
X149195857Y-81799190D01*
X148814904Y-81799190D01*
X150243476Y-81608714D02*
X150243476Y-82275380D01*
X150005380Y-81227761D02*
X149767285Y-81942047D01*
X150386333Y-81942047D01*
X156457761Y-79370619D02*
X156362523Y-79323000D01*
X156267285Y-79227761D01*
X156124428Y-79084904D01*
X156029190Y-79037285D01*
X155933952Y-79037285D01*
X155981571Y-79275380D02*
X155886333Y-79227761D01*
X155791095Y-79132523D01*
X155743476Y-78942047D01*
X155743476Y-78608714D01*
X155791095Y-78418238D01*
X155886333Y-78323000D01*
X155981571Y-78275380D01*
X156172047Y-78275380D01*
X156267285Y-78323000D01*
X156362523Y-78418238D01*
X156410142Y-78608714D01*
X156410142Y-78942047D01*
X156362523Y-79132523D01*
X156267285Y-79227761D01*
X156172047Y-79275380D01*
X155981571Y-79275380D01*
X156791095Y-78370619D02*
X156838714Y-78323000D01*
X156933952Y-78275380D01*
X157172047Y-78275380D01*
X157267285Y-78323000D01*
X157314904Y-78370619D01*
X157362523Y-78465857D01*
X157362523Y-78561095D01*
X157314904Y-78703952D01*
X156743476Y-79275380D01*
X157362523Y-79275380D01*
X128505380Y-84632523D02*
X127505380Y-84632523D01*
X128219666Y-84299190D01*
X127505380Y-83965857D01*
X128505380Y-83965857D01*
X127600619Y-83537285D02*
X127553000Y-83489666D01*
X127505380Y-83394428D01*
X127505380Y-83156333D01*
X127553000Y-83061095D01*
X127600619Y-83013476D01*
X127695857Y-82965857D01*
X127791095Y-82965857D01*
X127933952Y-83013476D01*
X128505380Y-83584904D01*
X128505380Y-82965857D01*
X132261904Y-83952380D02*
X132261904Y-82952380D01*
X132642857Y-82952380D01*
X132738095Y-83000000D01*
X132785714Y-83047619D01*
X132833333Y-83142857D01*
X132833333Y-83285714D01*
X132785714Y-83380952D01*
X132738095Y-83428571D01*
X132642857Y-83476190D01*
X132261904Y-83476190D01*
X133785714Y-83952380D02*
X133214285Y-83952380D01*
X133500000Y-83952380D02*
X133500000Y-82952380D01*
X133404761Y-83095238D01*
X133309523Y-83190476D01*
X133214285Y-83238095D01*
X166261904Y-83952380D02*
X166261904Y-82952380D01*
X166642857Y-82952380D01*
X166738095Y-83000000D01*
X166785714Y-83047619D01*
X166833333Y-83142857D01*
X166833333Y-83285714D01*
X166785714Y-83380952D01*
X166738095Y-83428571D01*
X166642857Y-83476190D01*
X166261904Y-83476190D01*
X167214285Y-83047619D02*
X167261904Y-83000000D01*
X167357142Y-82952380D01*
X167595238Y-82952380D01*
X167690476Y-83000000D01*
X167738095Y-83047619D01*
X167785714Y-83142857D01*
X167785714Y-83238095D01*
X167738095Y-83380952D01*
X167166666Y-83952380D01*
X167785714Y-83952380D01*
X163860314Y-94475180D02*
X163860314Y-93475180D01*
X164241266Y-93475180D01*
X164336504Y-93522800D01*
X164384123Y-93570419D01*
X164431742Y-93665657D01*
X164431742Y-93808514D01*
X164384123Y-93903752D01*
X164336504Y-93951371D01*
X164241266Y-93998990D01*
X163860314Y-93998990D01*
X165384123Y-94475180D02*
X164812695Y-94475180D01*
X165098409Y-94475180D02*
X165098409Y-93475180D01*
X165003171Y-93618038D01*
X164907933Y-93713276D01*
X164812695Y-93760895D01*
X165717457Y-93475180D02*
X166336504Y-93475180D01*
X166003171Y-93856133D01*
X166146028Y-93856133D01*
X166241266Y-93903752D01*
X166288885Y-93951371D01*
X166336504Y-94046609D01*
X166336504Y-94284704D01*
X166288885Y-94379942D01*
X166241266Y-94427561D01*
X166146028Y-94475180D01*
X165860314Y-94475180D01*
X165765076Y-94427561D01*
X165717457Y-94379942D01*
X152354114Y-95389580D02*
X152354114Y-94389580D01*
X152735066Y-94389580D01*
X152830304Y-94437200D01*
X152877923Y-94484819D01*
X152925542Y-94580057D01*
X152925542Y-94722914D01*
X152877923Y-94818152D01*
X152830304Y-94865771D01*
X152735066Y-94913390D01*
X152354114Y-94913390D01*
X153877923Y-95389580D02*
X153306495Y-95389580D01*
X153592209Y-95389580D02*
X153592209Y-94389580D01*
X153496971Y-94532438D01*
X153401733Y-94627676D01*
X153306495Y-94675295D01*
X154496971Y-94389580D02*
X154592209Y-94389580D01*
X154687447Y-94437200D01*
X154735066Y-94484819D01*
X154782685Y-94580057D01*
X154830304Y-94770533D01*
X154830304Y-95008628D01*
X154782685Y-95199104D01*
X154735066Y-95294342D01*
X154687447Y-95341961D01*
X154592209Y-95389580D01*
X154496971Y-95389580D01*
X154401733Y-95341961D01*
X154354114Y-95294342D01*
X154306495Y-95199104D01*
X154258876Y-95008628D01*
X154258876Y-94770533D01*
X154306495Y-94580057D01*
X154354114Y-94484819D01*
X154401733Y-94437200D01*
X154496971Y-94389580D01*
X160024914Y-94652980D02*
X160024914Y-93652980D01*
X160405866Y-93652980D01*
X160501104Y-93700600D01*
X160548723Y-93748219D01*
X160596342Y-93843457D01*
X160596342Y-93986314D01*
X160548723Y-94081552D01*
X160501104Y-94129171D01*
X160405866Y-94176790D01*
X160024914Y-94176790D01*
X161548723Y-94652980D02*
X160977295Y-94652980D01*
X161263009Y-94652980D02*
X161263009Y-93652980D01*
X161167771Y-93795838D01*
X161072533Y-93891076D01*
X160977295Y-93938695D01*
X161929676Y-93748219D02*
X161977295Y-93700600D01*
X162072533Y-93652980D01*
X162310628Y-93652980D01*
X162405866Y-93700600D01*
X162453485Y-93748219D01*
X162501104Y-93843457D01*
X162501104Y-93938695D01*
X162453485Y-94081552D01*
X161882057Y-94652980D01*
X162501104Y-94652980D01*
X141654304Y-94805380D02*
X141654304Y-93805380D01*
X142035257Y-93805380D01*
X142130495Y-93853000D01*
X142178114Y-93900619D01*
X142225733Y-93995857D01*
X142225733Y-94138714D01*
X142178114Y-94233952D01*
X142130495Y-94281571D01*
X142035257Y-94329190D01*
X141654304Y-94329190D01*
X142559066Y-93805380D02*
X143225733Y-93805380D01*
X142797161Y-94805380D01*
X145515104Y-95160980D02*
X145515104Y-94160980D01*
X145896057Y-94160980D01*
X145991295Y-94208600D01*
X146038914Y-94256219D01*
X146086533Y-94351457D01*
X146086533Y-94494314D01*
X146038914Y-94589552D01*
X145991295Y-94637171D01*
X145896057Y-94684790D01*
X145515104Y-94684790D01*
X146657961Y-94589552D02*
X146562723Y-94541933D01*
X146515104Y-94494314D01*
X146467485Y-94399076D01*
X146467485Y-94351457D01*
X146515104Y-94256219D01*
X146562723Y-94208600D01*
X146657961Y-94160980D01*
X146848438Y-94160980D01*
X146943676Y-94208600D01*
X146991295Y-94256219D01*
X147038914Y-94351457D01*
X147038914Y-94399076D01*
X146991295Y-94494314D01*
X146943676Y-94541933D01*
X146848438Y-94589552D01*
X146657961Y-94589552D01*
X146562723Y-94637171D01*
X146515104Y-94684790D01*
X146467485Y-94780028D01*
X146467485Y-94970504D01*
X146515104Y-95065742D01*
X146562723Y-95113361D01*
X146657961Y-95160980D01*
X146848438Y-95160980D01*
X146943676Y-95113361D01*
X146991295Y-95065742D01*
X147038914Y-94970504D01*
X147038914Y-94780028D01*
X146991295Y-94684790D01*
X146943676Y-94637171D01*
X146848438Y-94589552D01*
X167695714Y-94703780D02*
X167695714Y-93703780D01*
X168076666Y-93703780D01*
X168171904Y-93751400D01*
X168219523Y-93799019D01*
X168267142Y-93894257D01*
X168267142Y-94037114D01*
X168219523Y-94132352D01*
X168171904Y-94179971D01*
X168076666Y-94227590D01*
X167695714Y-94227590D01*
X169219523Y-94703780D02*
X168648095Y-94703780D01*
X168933809Y-94703780D02*
X168933809Y-93703780D01*
X168838571Y-93846638D01*
X168743333Y-93941876D01*
X168648095Y-93989495D01*
X170076666Y-94037114D02*
X170076666Y-94703780D01*
X169838571Y-93656161D02*
X169600476Y-94370447D01*
X170219523Y-94370447D01*
X130148104Y-95160980D02*
X130148104Y-94160980D01*
X130529057Y-94160980D01*
X130624295Y-94208600D01*
X130671914Y-94256219D01*
X130719533Y-94351457D01*
X130719533Y-94494314D01*
X130671914Y-94589552D01*
X130624295Y-94637171D01*
X130529057Y-94684790D01*
X130148104Y-94684790D01*
X131576676Y-94494314D02*
X131576676Y-95160980D01*
X131338580Y-94113361D02*
X131100485Y-94827647D01*
X131719533Y-94827647D01*
X134008904Y-94678380D02*
X134008904Y-93678380D01*
X134389857Y-93678380D01*
X134485095Y-93726000D01*
X134532714Y-93773619D01*
X134580333Y-93868857D01*
X134580333Y-94011714D01*
X134532714Y-94106952D01*
X134485095Y-94154571D01*
X134389857Y-94202190D01*
X134008904Y-94202190D01*
X135485095Y-93678380D02*
X135008904Y-93678380D01*
X134961285Y-94154571D01*
X135008904Y-94106952D01*
X135104142Y-94059333D01*
X135342238Y-94059333D01*
X135437476Y-94106952D01*
X135485095Y-94154571D01*
X135532714Y-94249809D01*
X135532714Y-94487904D01*
X135485095Y-94583142D01*
X135437476Y-94630761D01*
X135342238Y-94678380D01*
X135104142Y-94678380D01*
X135008904Y-94630761D01*
X134961285Y-94583142D01*
X171556514Y-95084780D02*
X171556514Y-94084780D01*
X171937466Y-94084780D01*
X172032704Y-94132400D01*
X172080323Y-94180019D01*
X172127942Y-94275257D01*
X172127942Y-94418114D01*
X172080323Y-94513352D01*
X172032704Y-94560971D01*
X171937466Y-94608590D01*
X171556514Y-94608590D01*
X173080323Y-95084780D02*
X172508895Y-95084780D01*
X172794609Y-95084780D02*
X172794609Y-94084780D01*
X172699371Y-94227638D01*
X172604133Y-94322876D01*
X172508895Y-94370495D01*
X173985085Y-94084780D02*
X173508895Y-94084780D01*
X173461276Y-94560971D01*
X173508895Y-94513352D01*
X173604133Y-94465733D01*
X173842228Y-94465733D01*
X173937466Y-94513352D01*
X173985085Y-94560971D01*
X174032704Y-94656209D01*
X174032704Y-94894304D01*
X173985085Y-94989542D01*
X173937466Y-95037161D01*
X173842228Y-95084780D01*
X173604133Y-95084780D01*
X173508895Y-95037161D01*
X173461276Y-94989542D01*
X126338104Y-95465780D02*
X126338104Y-94465780D01*
X126719057Y-94465780D01*
X126814295Y-94513400D01*
X126861914Y-94561019D01*
X126909533Y-94656257D01*
X126909533Y-94799114D01*
X126861914Y-94894352D01*
X126814295Y-94941971D01*
X126719057Y-94989590D01*
X126338104Y-94989590D01*
X127242866Y-94465780D02*
X127861914Y-94465780D01*
X127528580Y-94846733D01*
X127671438Y-94846733D01*
X127766676Y-94894352D01*
X127814295Y-94941971D01*
X127861914Y-95037209D01*
X127861914Y-95275304D01*
X127814295Y-95370542D01*
X127766676Y-95418161D01*
X127671438Y-95465780D01*
X127385723Y-95465780D01*
X127290485Y-95418161D01*
X127242866Y-95370542D01*
X149325104Y-95770580D02*
X149325104Y-94770580D01*
X149706057Y-94770580D01*
X149801295Y-94818200D01*
X149848914Y-94865819D01*
X149896533Y-94961057D01*
X149896533Y-95103914D01*
X149848914Y-95199152D01*
X149801295Y-95246771D01*
X149706057Y-95294390D01*
X149325104Y-95294390D01*
X150372723Y-95770580D02*
X150563200Y-95770580D01*
X150658438Y-95722961D01*
X150706057Y-95675342D01*
X150801295Y-95532485D01*
X150848914Y-95342009D01*
X150848914Y-94961057D01*
X150801295Y-94865819D01*
X150753676Y-94818200D01*
X150658438Y-94770580D01*
X150467961Y-94770580D01*
X150372723Y-94818200D01*
X150325104Y-94865819D01*
X150277485Y-94961057D01*
X150277485Y-95199152D01*
X150325104Y-95294390D01*
X150372723Y-95342009D01*
X150467961Y-95389628D01*
X150658438Y-95389628D01*
X150753676Y-95342009D01*
X150801295Y-95294390D01*
X150848914Y-95199152D01*
X137844304Y-94576780D02*
X137844304Y-93576780D01*
X138225257Y-93576780D01*
X138320495Y-93624400D01*
X138368114Y-93672019D01*
X138415733Y-93767257D01*
X138415733Y-93910114D01*
X138368114Y-94005352D01*
X138320495Y-94052971D01*
X138225257Y-94100590D01*
X137844304Y-94100590D01*
X139272876Y-93576780D02*
X139082400Y-93576780D01*
X138987161Y-93624400D01*
X138939542Y-93672019D01*
X138844304Y-93814876D01*
X138796685Y-94005352D01*
X138796685Y-94386304D01*
X138844304Y-94481542D01*
X138891923Y-94529161D01*
X138987161Y-94576780D01*
X139177638Y-94576780D01*
X139272876Y-94529161D01*
X139320495Y-94481542D01*
X139368114Y-94386304D01*
X139368114Y-94148209D01*
X139320495Y-94052971D01*
X139272876Y-94005352D01*
X139177638Y-93957733D01*
X138987161Y-93957733D01*
X138891923Y-94005352D01*
X138844304Y-94052971D01*
X138796685Y-94148209D01*
X149457761Y-76870619D02*
X149362523Y-76823000D01*
X149267285Y-76727761D01*
X149124428Y-76584904D01*
X149029190Y-76537285D01*
X148933952Y-76537285D01*
X148981571Y-76775380D02*
X148886333Y-76727761D01*
X148791095Y-76632523D01*
X148743476Y-76442047D01*
X148743476Y-76108714D01*
X148791095Y-75918238D01*
X148886333Y-75823000D01*
X148981571Y-75775380D01*
X149172047Y-75775380D01*
X149267285Y-75823000D01*
X149362523Y-75918238D01*
X149410142Y-76108714D01*
X149410142Y-76442047D01*
X149362523Y-76632523D01*
X149267285Y-76727761D01*
X149172047Y-76775380D01*
X148981571Y-76775380D01*
X150362523Y-76775380D02*
X149791095Y-76775380D01*
X150076809Y-76775380D02*
X150076809Y-75775380D01*
X149981571Y-75918238D01*
X149886333Y-76013476D01*
X149791095Y-76061095D01*
X142457761Y-79370619D02*
X142362523Y-79323000D01*
X142267285Y-79227761D01*
X142124428Y-79084904D01*
X142029190Y-79037285D01*
X141933952Y-79037285D01*
X141981571Y-79275380D02*
X141886333Y-79227761D01*
X141791095Y-79132523D01*
X141743476Y-78942047D01*
X141743476Y-78608714D01*
X141791095Y-78418238D01*
X141886333Y-78323000D01*
X141981571Y-78275380D01*
X142172047Y-78275380D01*
X142267285Y-78323000D01*
X142362523Y-78418238D01*
X142410142Y-78608714D01*
X142410142Y-78942047D01*
X142362523Y-79132523D01*
X142267285Y-79227761D01*
X142172047Y-79275380D01*
X141981571Y-79275380D01*
X142743476Y-78275380D02*
X143362523Y-78275380D01*
X143029190Y-78656333D01*
X143172047Y-78656333D01*
X143267285Y-78703952D01*
X143314904Y-78751571D01*
X143362523Y-78846809D01*
X143362523Y-79084904D01*
X143314904Y-79180142D01*
X143267285Y-79227761D01*
X143172047Y-79275380D01*
X142886333Y-79275380D01*
X142791095Y-79227761D01*
X142743476Y-79180142D01*
X154886333Y-72275380D02*
X154553000Y-71799190D01*
X154314904Y-72275380D02*
X154314904Y-71275380D01*
X154695857Y-71275380D01*
X154791095Y-71323000D01*
X154838714Y-71370619D01*
X154886333Y-71465857D01*
X154886333Y-71608714D01*
X154838714Y-71703952D01*
X154791095Y-71751571D01*
X154695857Y-71799190D01*
X154314904Y-71799190D01*
X155219666Y-71275380D02*
X155838714Y-71275380D01*
X155505380Y-71656333D01*
X155648238Y-71656333D01*
X155743476Y-71703952D01*
X155791095Y-71751571D01*
X155838714Y-71846809D01*
X155838714Y-72084904D01*
X155791095Y-72180142D01*
X155743476Y-72227761D01*
X155648238Y-72275380D01*
X155362523Y-72275380D01*
X155267285Y-72227761D01*
X155219666Y-72180142D01*
X143886333Y-72275380D02*
X143553000Y-71799190D01*
X143314904Y-72275380D02*
X143314904Y-71275380D01*
X143695857Y-71275380D01*
X143791095Y-71323000D01*
X143838714Y-71370619D01*
X143886333Y-71465857D01*
X143886333Y-71608714D01*
X143838714Y-71703952D01*
X143791095Y-71751571D01*
X143695857Y-71799190D01*
X143314904Y-71799190D01*
X144838714Y-72275380D02*
X144267285Y-72275380D01*
X144553000Y-72275380D02*
X144553000Y-71275380D01*
X144457761Y-71418238D01*
X144362523Y-71513476D01*
X144267285Y-71561095D01*
M02*
