G04 #@! TF.FileFunction,Legend,Top*
%FSLAX46Y46*%
G04 Gerber Fmt 4.6, Leading zero omitted, Abs format (unit mm)*
G04 Created by KiCad (PCBNEW no-vcs-found-undefined) date Sat Oct 15 21:15:06 2016*
%MOMM*%
%LPD*%
G01*
G04 APERTURE LIST*
%ADD10C,0.100000*%
%ADD11C,0.150000*%
G04 APERTURE END LIST*
D10*
G36*
X146419258Y-70929448D02*
X146500116Y-70937928D01*
X146590115Y-70962071D01*
X146686035Y-70999923D01*
X146784654Y-71049535D01*
X146882754Y-71108957D01*
X146977113Y-71176236D01*
X147064510Y-71249423D01*
X147141726Y-71326566D01*
X147205539Y-71405715D01*
X147372663Y-71642824D01*
X148073541Y-71642824D01*
X148289067Y-71643399D01*
X148456621Y-71645775D01*
X148582963Y-71650929D01*
X148674856Y-71659839D01*
X148739059Y-71673481D01*
X148782336Y-71692833D01*
X148811448Y-71718871D01*
X148833156Y-71752573D01*
X148860974Y-71826809D01*
X148860974Y-71897839D01*
X148833156Y-71972074D01*
X148811351Y-72005852D01*
X148781866Y-72031933D01*
X148737656Y-72051309D01*
X148671681Y-72064969D01*
X148576896Y-72073902D01*
X148446260Y-72079100D01*
X148272730Y-72081552D01*
X148049262Y-72082248D01*
X147324100Y-72082666D01*
X147202297Y-72296008D01*
X147146445Y-72380404D01*
X147079275Y-72456816D01*
X146999169Y-72526656D01*
X146904510Y-72591335D01*
X146793679Y-72652264D01*
X146699945Y-72699141D01*
X146619131Y-72738553D01*
X146550279Y-72768941D01*
X146492434Y-72788748D01*
X146444638Y-72796413D01*
X146405934Y-72790377D01*
X146375366Y-72769083D01*
X146351977Y-72730970D01*
X146334811Y-72674481D01*
X146322910Y-72598055D01*
X146315319Y-72500134D01*
X146311080Y-72379160D01*
X146309236Y-72233572D01*
X146308832Y-72061813D01*
X146308910Y-71862322D01*
X146309131Y-71617994D01*
X146310189Y-71420482D01*
X146312669Y-71264815D01*
X146317161Y-71146026D01*
X146324251Y-71059145D01*
X146334528Y-70999203D01*
X146348579Y-70961232D01*
X146366993Y-70940261D01*
X146390356Y-70931323D01*
X146419258Y-70929448D01*
X146419258Y-70929448D01*
G37*
G36*
X145597177Y-71043730D02*
X145708548Y-71000226D01*
X145807748Y-70969542D01*
X145883975Y-70954493D01*
X145926424Y-70957896D01*
X145936907Y-70981522D01*
X145946307Y-71036037D01*
X145954596Y-71117320D01*
X145961747Y-71221251D01*
X145967731Y-71343710D01*
X145972521Y-71480577D01*
X145976089Y-71627733D01*
X145978409Y-71781056D01*
X145979452Y-71936427D01*
X145979190Y-72089727D01*
X145977596Y-72236834D01*
X145974642Y-72373628D01*
X145970301Y-72495991D01*
X145964545Y-72599801D01*
X145957346Y-72680939D01*
X145948677Y-72735284D01*
X145938511Y-72758717D01*
X145899803Y-72759094D01*
X145824832Y-72741727D01*
X145724402Y-72709658D01*
X145609315Y-72665929D01*
X145321273Y-72548253D01*
X145321219Y-71855359D01*
X145321165Y-71162462D01*
X145597177Y-71043730D01*
X145597177Y-71043730D01*
G37*
G36*
X144662671Y-71148949D02*
X144937048Y-71148949D01*
X144937048Y-71862322D01*
X144937048Y-72575699D01*
X144662671Y-72575699D01*
X144388302Y-72575699D01*
X144388302Y-71862322D01*
X144388302Y-71148949D01*
X144662671Y-71148949D01*
X144662671Y-71148949D01*
G37*
G36*
X140393411Y-71708670D02*
X140424918Y-71691092D01*
X140481648Y-71676267D01*
X140563813Y-71664179D01*
X140671628Y-71654809D01*
X140805305Y-71648139D01*
X140965057Y-71644150D01*
X141151098Y-71642824D01*
X141842926Y-71642824D01*
X142011160Y-71404147D01*
X142071746Y-71325172D01*
X142137048Y-71253396D01*
X142206984Y-71188839D01*
X142281472Y-71131517D01*
X142360429Y-71081449D01*
X142443775Y-71038653D01*
X142531426Y-71003145D01*
X142623301Y-70974945D01*
X142719317Y-70954070D01*
X142819392Y-70940538D01*
X142923444Y-70934366D01*
X143031392Y-70935574D01*
X143143152Y-70944178D01*
X143258644Y-70960196D01*
X143377784Y-70983646D01*
X143500490Y-71014546D01*
X143626682Y-71052915D01*
X144001732Y-71176394D01*
X144002948Y-71869812D01*
X144004173Y-72563242D01*
X143853209Y-72591690D01*
X143775140Y-72610043D01*
X143674126Y-72638983D01*
X143563208Y-72674538D01*
X143455428Y-72712734D01*
X143360063Y-72743363D01*
X143261220Y-72765459D01*
X143159807Y-72779297D01*
X143056732Y-72785156D01*
X142952902Y-72783313D01*
X142849225Y-72774046D01*
X142746609Y-72757631D01*
X142645961Y-72734346D01*
X142548190Y-72704469D01*
X142454203Y-72668276D01*
X142364908Y-72626046D01*
X142281212Y-72578056D01*
X142204023Y-72524582D01*
X142134250Y-72465903D01*
X142072799Y-72402296D01*
X142020579Y-72334038D01*
X141978498Y-72261407D01*
X141891492Y-72084319D01*
X141166339Y-72083070D01*
X140945346Y-72082090D01*
X140772959Y-72079395D01*
X140642481Y-72074064D01*
X140547216Y-72065178D01*
X140480469Y-72051815D01*
X140435542Y-72033058D01*
X140405739Y-72007985D01*
X140384365Y-71975678D01*
X140336240Y-71863535D01*
X140338957Y-71783307D01*
X140393411Y-71708670D01*
X140393411Y-71708670D01*
G37*
G36*
X157549258Y-70909448D02*
X157630116Y-70917928D01*
X157720115Y-70942071D01*
X157816035Y-70979923D01*
X157914654Y-71029535D01*
X158012754Y-71088957D01*
X158107113Y-71156236D01*
X158194510Y-71229423D01*
X158271726Y-71306566D01*
X158335539Y-71385715D01*
X158502663Y-71622824D01*
X159203541Y-71622824D01*
X159419067Y-71623399D01*
X159586621Y-71625775D01*
X159712963Y-71630929D01*
X159804856Y-71639839D01*
X159869059Y-71653481D01*
X159912336Y-71672833D01*
X159941448Y-71698871D01*
X159963156Y-71732573D01*
X159990974Y-71806809D01*
X159990974Y-71877839D01*
X159963156Y-71952074D01*
X159941351Y-71985852D01*
X159911866Y-72011933D01*
X159867656Y-72031309D01*
X159801681Y-72044969D01*
X159706896Y-72053902D01*
X159576260Y-72059100D01*
X159402730Y-72061552D01*
X159179262Y-72062248D01*
X158454100Y-72062666D01*
X158332297Y-72276008D01*
X158276445Y-72360404D01*
X158209275Y-72436816D01*
X158129169Y-72506656D01*
X158034510Y-72571335D01*
X157923679Y-72632264D01*
X157829945Y-72679141D01*
X157749131Y-72718553D01*
X157680279Y-72748941D01*
X157622434Y-72768748D01*
X157574638Y-72776413D01*
X157535934Y-72770377D01*
X157505366Y-72749083D01*
X157481977Y-72710970D01*
X157464811Y-72654481D01*
X157452910Y-72578055D01*
X157445319Y-72480134D01*
X157441080Y-72359160D01*
X157439236Y-72213572D01*
X157438832Y-72041813D01*
X157438910Y-71842322D01*
X157439131Y-71597994D01*
X157440189Y-71400482D01*
X157442669Y-71244815D01*
X157447161Y-71126026D01*
X157454251Y-71039145D01*
X157464528Y-70979203D01*
X157478579Y-70941232D01*
X157496993Y-70920261D01*
X157520356Y-70911323D01*
X157549258Y-70909448D01*
X157549258Y-70909448D01*
G37*
G36*
X156727177Y-71023730D02*
X156838548Y-70980226D01*
X156937748Y-70949542D01*
X157013975Y-70934493D01*
X157056424Y-70937896D01*
X157066907Y-70961522D01*
X157076307Y-71016037D01*
X157084596Y-71097320D01*
X157091747Y-71201251D01*
X157097731Y-71323710D01*
X157102521Y-71460577D01*
X157106089Y-71607733D01*
X157108409Y-71761056D01*
X157109452Y-71916427D01*
X157109190Y-72069727D01*
X157107596Y-72216834D01*
X157104642Y-72353628D01*
X157100301Y-72475991D01*
X157094545Y-72579801D01*
X157087346Y-72660939D01*
X157078677Y-72715284D01*
X157068511Y-72738717D01*
X157029803Y-72739094D01*
X156954832Y-72721727D01*
X156854402Y-72689658D01*
X156739315Y-72645929D01*
X156451273Y-72528253D01*
X156451219Y-71835359D01*
X156451165Y-71142462D01*
X156727177Y-71023730D01*
X156727177Y-71023730D01*
G37*
G36*
X155792671Y-71128949D02*
X156067048Y-71128949D01*
X156067048Y-71842322D01*
X156067048Y-72555699D01*
X155792671Y-72555699D01*
X155518302Y-72555699D01*
X155518302Y-71842322D01*
X155518302Y-71128949D01*
X155792671Y-71128949D01*
X155792671Y-71128949D01*
G37*
G36*
X151523411Y-71688670D02*
X151554918Y-71671092D01*
X151611648Y-71656267D01*
X151693813Y-71644179D01*
X151801628Y-71634809D01*
X151935305Y-71628139D01*
X152095057Y-71624150D01*
X152281098Y-71622824D01*
X152972926Y-71622824D01*
X153141160Y-71384147D01*
X153201746Y-71305172D01*
X153267048Y-71233396D01*
X153336984Y-71168839D01*
X153411472Y-71111517D01*
X153490429Y-71061449D01*
X153573775Y-71018653D01*
X153661426Y-70983145D01*
X153753301Y-70954945D01*
X153849317Y-70934070D01*
X153949392Y-70920538D01*
X154053444Y-70914366D01*
X154161392Y-70915574D01*
X154273152Y-70924178D01*
X154388644Y-70940196D01*
X154507784Y-70963646D01*
X154630490Y-70994546D01*
X154756682Y-71032915D01*
X155131732Y-71156394D01*
X155132948Y-71849812D01*
X155134173Y-72543242D01*
X154983209Y-72571690D01*
X154905140Y-72590043D01*
X154804126Y-72618983D01*
X154693208Y-72654538D01*
X154585428Y-72692734D01*
X154490063Y-72723363D01*
X154391220Y-72745459D01*
X154289807Y-72759297D01*
X154186732Y-72765156D01*
X154082902Y-72763313D01*
X153979225Y-72754046D01*
X153876609Y-72737631D01*
X153775961Y-72714346D01*
X153678190Y-72684469D01*
X153584203Y-72648276D01*
X153494908Y-72606046D01*
X153411212Y-72558056D01*
X153334023Y-72504582D01*
X153264250Y-72445903D01*
X153202799Y-72382296D01*
X153150579Y-72314038D01*
X153108498Y-72241407D01*
X153021492Y-72064319D01*
X152296339Y-72063070D01*
X152075346Y-72062090D01*
X151902959Y-72059395D01*
X151772481Y-72054064D01*
X151677216Y-72045178D01*
X151610469Y-72031815D01*
X151565542Y-72013058D01*
X151535739Y-71987985D01*
X151514365Y-71955678D01*
X151466240Y-71843535D01*
X151468957Y-71763307D01*
X151523411Y-71688670D01*
X151523411Y-71688670D01*
G37*
G36*
X151469258Y-83939448D02*
X151550116Y-83947928D01*
X151640115Y-83972071D01*
X151736035Y-84009923D01*
X151834654Y-84059535D01*
X151932754Y-84118957D01*
X152027113Y-84186236D01*
X152114510Y-84259423D01*
X152191726Y-84336566D01*
X152255539Y-84415715D01*
X152422663Y-84652824D01*
X153123541Y-84652824D01*
X153339067Y-84653399D01*
X153506621Y-84655775D01*
X153632963Y-84660929D01*
X153724856Y-84669839D01*
X153789059Y-84683481D01*
X153832336Y-84702833D01*
X153861448Y-84728871D01*
X153883156Y-84762573D01*
X153910974Y-84836809D01*
X153910974Y-84907839D01*
X153883156Y-84982074D01*
X153861351Y-85015852D01*
X153831866Y-85041933D01*
X153787656Y-85061309D01*
X153721681Y-85074969D01*
X153626896Y-85083902D01*
X153496260Y-85089100D01*
X153322730Y-85091552D01*
X153099262Y-85092248D01*
X152374100Y-85092666D01*
X152252297Y-85306008D01*
X152196445Y-85390404D01*
X152129275Y-85466816D01*
X152049169Y-85536656D01*
X151954510Y-85601335D01*
X151843679Y-85662264D01*
X151749945Y-85709141D01*
X151669131Y-85748553D01*
X151600279Y-85778941D01*
X151542434Y-85798748D01*
X151494638Y-85806413D01*
X151455934Y-85800377D01*
X151425366Y-85779083D01*
X151401977Y-85740970D01*
X151384811Y-85684481D01*
X151372910Y-85608055D01*
X151365319Y-85510134D01*
X151361080Y-85389160D01*
X151359236Y-85243572D01*
X151358832Y-85071813D01*
X151358910Y-84872322D01*
X151359131Y-84627994D01*
X151360189Y-84430482D01*
X151362669Y-84274815D01*
X151367161Y-84156026D01*
X151374251Y-84069145D01*
X151384528Y-84009203D01*
X151398579Y-83971232D01*
X151416993Y-83950261D01*
X151440356Y-83941323D01*
X151469258Y-83939448D01*
X151469258Y-83939448D01*
G37*
G36*
X150647177Y-84053730D02*
X150758548Y-84010226D01*
X150857748Y-83979542D01*
X150933975Y-83964493D01*
X150976424Y-83967896D01*
X150986907Y-83991522D01*
X150996307Y-84046037D01*
X151004596Y-84127320D01*
X151011747Y-84231251D01*
X151017731Y-84353710D01*
X151022521Y-84490577D01*
X151026089Y-84637733D01*
X151028409Y-84791056D01*
X151029452Y-84946427D01*
X151029190Y-85099727D01*
X151027596Y-85246834D01*
X151024642Y-85383628D01*
X151020301Y-85505991D01*
X151014545Y-85609801D01*
X151007346Y-85690939D01*
X150998677Y-85745284D01*
X150988511Y-85768717D01*
X150949803Y-85769094D01*
X150874832Y-85751727D01*
X150774402Y-85719658D01*
X150659315Y-85675929D01*
X150371273Y-85558253D01*
X150371219Y-84865359D01*
X150371165Y-84172462D01*
X150647177Y-84053730D01*
X150647177Y-84053730D01*
G37*
G36*
X149712671Y-84158949D02*
X149987048Y-84158949D01*
X149987048Y-84872322D01*
X149987048Y-85585699D01*
X149712671Y-85585699D01*
X149438302Y-85585699D01*
X149438302Y-84872322D01*
X149438302Y-84158949D01*
X149712671Y-84158949D01*
X149712671Y-84158949D01*
G37*
G36*
X145443411Y-84718670D02*
X145474918Y-84701092D01*
X145531648Y-84686267D01*
X145613813Y-84674179D01*
X145721628Y-84664809D01*
X145855305Y-84658139D01*
X146015057Y-84654150D01*
X146201098Y-84652824D01*
X146892926Y-84652824D01*
X147061160Y-84414147D01*
X147121746Y-84335172D01*
X147187048Y-84263396D01*
X147256984Y-84198839D01*
X147331472Y-84141517D01*
X147410429Y-84091449D01*
X147493775Y-84048653D01*
X147581426Y-84013145D01*
X147673301Y-83984945D01*
X147769317Y-83964070D01*
X147869392Y-83950538D01*
X147973444Y-83944366D01*
X148081392Y-83945574D01*
X148193152Y-83954178D01*
X148308644Y-83970196D01*
X148427784Y-83993646D01*
X148550490Y-84024546D01*
X148676682Y-84062915D01*
X149051732Y-84186394D01*
X149052948Y-84879812D01*
X149054173Y-85573242D01*
X148903209Y-85601690D01*
X148825140Y-85620043D01*
X148724126Y-85648983D01*
X148613208Y-85684538D01*
X148505428Y-85722734D01*
X148410063Y-85753363D01*
X148311220Y-85775459D01*
X148209807Y-85789297D01*
X148106732Y-85795156D01*
X148002902Y-85793313D01*
X147899225Y-85784046D01*
X147796609Y-85767631D01*
X147695961Y-85744346D01*
X147598190Y-85714469D01*
X147504203Y-85678276D01*
X147414908Y-85636046D01*
X147331212Y-85588056D01*
X147254023Y-85534582D01*
X147184250Y-85475903D01*
X147122799Y-85412296D01*
X147070579Y-85344038D01*
X147028498Y-85271407D01*
X146941492Y-85094319D01*
X146216339Y-85093070D01*
X145995346Y-85092090D01*
X145822959Y-85089395D01*
X145692481Y-85084064D01*
X145597216Y-85075178D01*
X145530469Y-85061815D01*
X145485542Y-85043058D01*
X145455739Y-85017985D01*
X145434365Y-84985678D01*
X145386240Y-84873535D01*
X145388957Y-84793307D01*
X145443411Y-84718670D01*
X145443411Y-84718670D01*
G37*
G36*
X151259258Y-80909448D02*
X151340116Y-80917928D01*
X151430115Y-80942071D01*
X151526035Y-80979923D01*
X151624654Y-81029535D01*
X151722754Y-81088957D01*
X151817113Y-81156236D01*
X151904510Y-81229423D01*
X151981726Y-81306566D01*
X152045539Y-81385715D01*
X152212663Y-81622824D01*
X152913541Y-81622824D01*
X153129067Y-81623399D01*
X153296621Y-81625775D01*
X153422963Y-81630929D01*
X153514856Y-81639839D01*
X153579059Y-81653481D01*
X153622336Y-81672833D01*
X153651448Y-81698871D01*
X153673156Y-81732573D01*
X153700974Y-81806809D01*
X153700974Y-81877839D01*
X153673156Y-81952074D01*
X153651351Y-81985852D01*
X153621866Y-82011933D01*
X153577656Y-82031309D01*
X153511681Y-82044969D01*
X153416896Y-82053902D01*
X153286260Y-82059100D01*
X153112730Y-82061552D01*
X152889262Y-82062248D01*
X152164100Y-82062666D01*
X152042297Y-82276008D01*
X151986445Y-82360404D01*
X151919275Y-82436816D01*
X151839169Y-82506656D01*
X151744510Y-82571335D01*
X151633679Y-82632264D01*
X151539945Y-82679141D01*
X151459131Y-82718553D01*
X151390279Y-82748941D01*
X151332434Y-82768748D01*
X151284638Y-82776413D01*
X151245934Y-82770377D01*
X151215366Y-82749083D01*
X151191977Y-82710970D01*
X151174811Y-82654481D01*
X151162910Y-82578055D01*
X151155319Y-82480134D01*
X151151080Y-82359160D01*
X151149236Y-82213572D01*
X151148832Y-82041813D01*
X151148910Y-81842322D01*
X151149131Y-81597994D01*
X151150189Y-81400482D01*
X151152669Y-81244815D01*
X151157161Y-81126026D01*
X151164251Y-81039145D01*
X151174528Y-80979203D01*
X151188579Y-80941232D01*
X151206993Y-80920261D01*
X151230356Y-80911323D01*
X151259258Y-80909448D01*
X151259258Y-80909448D01*
G37*
G36*
X150437177Y-81023730D02*
X150548548Y-80980226D01*
X150647748Y-80949542D01*
X150723975Y-80934493D01*
X150766424Y-80937896D01*
X150776907Y-80961522D01*
X150786307Y-81016037D01*
X150794596Y-81097320D01*
X150801747Y-81201251D01*
X150807731Y-81323710D01*
X150812521Y-81460577D01*
X150816089Y-81607733D01*
X150818409Y-81761056D01*
X150819452Y-81916427D01*
X150819190Y-82069727D01*
X150817596Y-82216834D01*
X150814642Y-82353628D01*
X150810301Y-82475991D01*
X150804545Y-82579801D01*
X150797346Y-82660939D01*
X150788677Y-82715284D01*
X150778511Y-82738717D01*
X150739803Y-82739094D01*
X150664832Y-82721727D01*
X150564402Y-82689658D01*
X150449315Y-82645929D01*
X150161273Y-82528253D01*
X150161219Y-81835359D01*
X150161165Y-81142462D01*
X150437177Y-81023730D01*
X150437177Y-81023730D01*
G37*
G36*
X149502671Y-81128949D02*
X149777048Y-81128949D01*
X149777048Y-81842322D01*
X149777048Y-82555699D01*
X149502671Y-82555699D01*
X149228302Y-82555699D01*
X149228302Y-81842322D01*
X149228302Y-81128949D01*
X149502671Y-81128949D01*
X149502671Y-81128949D01*
G37*
G36*
X145233411Y-81688670D02*
X145264918Y-81671092D01*
X145321648Y-81656267D01*
X145403813Y-81644179D01*
X145511628Y-81634809D01*
X145645305Y-81628139D01*
X145805057Y-81624150D01*
X145991098Y-81622824D01*
X146682926Y-81622824D01*
X146851160Y-81384147D01*
X146911746Y-81305172D01*
X146977048Y-81233396D01*
X147046984Y-81168839D01*
X147121472Y-81111517D01*
X147200429Y-81061449D01*
X147283775Y-81018653D01*
X147371426Y-80983145D01*
X147463301Y-80954945D01*
X147559317Y-80934070D01*
X147659392Y-80920538D01*
X147763444Y-80914366D01*
X147871392Y-80915574D01*
X147983152Y-80924178D01*
X148098644Y-80940196D01*
X148217784Y-80963646D01*
X148340490Y-80994546D01*
X148466682Y-81032915D01*
X148841732Y-81156394D01*
X148842948Y-81849812D01*
X148844173Y-82543242D01*
X148693209Y-82571690D01*
X148615140Y-82590043D01*
X148514126Y-82618983D01*
X148403208Y-82654538D01*
X148295428Y-82692734D01*
X148200063Y-82723363D01*
X148101220Y-82745459D01*
X147999807Y-82759297D01*
X147896732Y-82765156D01*
X147792902Y-82763313D01*
X147689225Y-82754046D01*
X147586609Y-82737631D01*
X147485961Y-82714346D01*
X147388190Y-82684469D01*
X147294203Y-82648276D01*
X147204908Y-82606046D01*
X147121212Y-82558056D01*
X147044023Y-82504582D01*
X146974250Y-82445903D01*
X146912799Y-82382296D01*
X146860579Y-82314038D01*
X146818498Y-82241407D01*
X146731492Y-82064319D01*
X146006339Y-82063070D01*
X145785346Y-82062090D01*
X145612959Y-82059395D01*
X145482481Y-82054064D01*
X145387216Y-82045178D01*
X145320469Y-82031815D01*
X145275542Y-82013058D01*
X145245739Y-81987985D01*
X145224365Y-81955678D01*
X145176240Y-81843535D01*
X145178957Y-81763307D01*
X145233411Y-81688670D01*
X145233411Y-81688670D01*
G37*
D11*
X140108000Y-71823000D02*
X140743000Y-71823000D01*
X148363000Y-71823000D02*
X148998000Y-71823000D01*
X145108000Y-84823000D02*
X145743000Y-84823000D01*
X153363000Y-84823000D02*
X153998000Y-84823000D01*
X151108000Y-71823000D02*
X151743000Y-71823000D01*
X159363000Y-71823000D02*
X159998000Y-71823000D01*
X153363000Y-81823000D02*
X153998000Y-81823000D01*
X145108000Y-81823000D02*
X145743000Y-81823000D01*
X174286000Y-77540000D02*
X174286000Y-89224000D01*
X169587000Y-77540000D02*
X174286000Y-77540000D01*
X169587000Y-89224000D02*
X169587000Y-77540000D01*
X174286000Y-89224000D02*
X169587000Y-89224000D01*
X132975096Y-86285112D02*
G75*
G03X136000000Y-86270000I1524904J-2484888D01*
G01*
X133000000Y-86270000D02*
X136000000Y-86270000D01*
X137017936Y-88770000D02*
G75*
G03X137017936Y-88770000I-2517936J0D01*
G01*
X159225096Y-81995112D02*
G75*
G03X162250000Y-81980000I1524904J-2484888D01*
G01*
X159250000Y-81980000D02*
X162250000Y-81980000D01*
X163267936Y-84480000D02*
G75*
G03X163267936Y-84480000I-2517936J0D01*
G01*
X155343001Y-76273000D02*
G75*
G03X154543000Y-77073000I1249999J-2050000D01*
G01*
X157842999Y-76273000D02*
G75*
G02X158643000Y-77073000I-1249999J-2050000D01*
G01*
X154554274Y-79597203D02*
G75*
G03X154893000Y-80023000I2038726J1274203D01*
G01*
X158631726Y-79597203D02*
G75*
G02X158293000Y-80023000I-2038726J1274203D01*
G01*
X154893000Y-80023000D02*
X158293000Y-80023000D01*
X130286000Y-89224000D02*
X125587000Y-89224000D01*
X125587000Y-89224000D02*
X125587000Y-77540000D01*
X125587000Y-77540000D02*
X130286000Y-77540000D01*
X130286000Y-77540000D02*
X130286000Y-89224000D01*
X148843001Y-73773000D02*
G75*
G03X148043000Y-74573000I1249999J-2050000D01*
G01*
X151342999Y-73773000D02*
G75*
G02X152143000Y-74573000I-1249999J-2050000D01*
G01*
X148054274Y-77097203D02*
G75*
G03X148393000Y-77523000I2038726J1274203D01*
G01*
X152131726Y-77097203D02*
G75*
G02X151793000Y-77523000I-2038726J1274203D01*
G01*
X148393000Y-77523000D02*
X151793000Y-77523000D01*
X141343001Y-76273000D02*
G75*
G03X140543000Y-77073000I1249999J-2050000D01*
G01*
X143842999Y-76273000D02*
G75*
G02X144643000Y-77073000I-1249999J-2050000D01*
G01*
X140554274Y-79597203D02*
G75*
G03X140893000Y-80023000I2038726J1274203D01*
G01*
X144631726Y-79597203D02*
G75*
G02X144293000Y-80023000I-2038726J1274203D01*
G01*
X140893000Y-80023000D02*
X144293000Y-80023000D01*
X134807000Y-77664000D02*
X134807000Y-78426000D01*
X134299000Y-77664000D02*
X134299000Y-78426000D01*
X134807000Y-75632000D02*
G75*
G03X132902000Y-77029000I-254000J-1651000D01*
G01*
X136204000Y-77156000D02*
G75*
G03X134426000Y-75632000I-1651000J-127000D01*
G01*
X133156000Y-76394000D02*
G75*
G03X133664000Y-78680000I1397000J-889000D01*
G01*
X135442000Y-78680000D02*
G75*
G03X135950000Y-76394000I-889000J1397000D01*
G01*
X137855000Y-73473000D02*
X137855000Y-73600000D01*
X137855000Y-77283000D02*
X137855000Y-75886000D01*
X131251000Y-73473000D02*
X131251000Y-73600000D01*
X131251000Y-77283000D02*
X131251000Y-75886000D01*
X135696000Y-74362000D02*
X135315000Y-74235000D01*
X135315000Y-74235000D02*
X134553000Y-74108000D01*
X134553000Y-74108000D02*
X133791000Y-74235000D01*
X133791000Y-74235000D02*
X133410000Y-74362000D01*
X135823000Y-75251000D02*
X133283000Y-75251000D01*
X131632000Y-76013000D02*
G75*
G03X133283000Y-80204000I2921000J-1270000D01*
G01*
X135823000Y-80204000D02*
G75*
G03X137474000Y-76013000I-1270000J2921000D01*
G01*
X132521000Y-80585000D02*
X133410000Y-80585000D01*
X135696000Y-80585000D02*
X136585000Y-80585000D01*
X132902000Y-77664000D02*
X132394000Y-77664000D01*
X132394000Y-77664000D02*
X132394000Y-76902000D01*
X132394000Y-76902000D02*
X132902000Y-76902000D01*
X136204000Y-77664000D02*
X136712000Y-77664000D01*
X136712000Y-77664000D02*
X136712000Y-76902000D01*
X136712000Y-76902000D02*
X136204000Y-76902000D01*
X134045000Y-77029000D02*
X132902000Y-77029000D01*
X134045000Y-77537000D02*
X132902000Y-77537000D01*
X135061000Y-77029000D02*
X136204000Y-77029000D01*
X135061000Y-77537000D02*
X136204000Y-77537000D01*
X134299000Y-76902000D02*
X134299000Y-75632000D01*
X134807000Y-76902000D02*
X134807000Y-75632000D01*
X135061000Y-77664000D02*
X135061000Y-76902000D01*
X135061000Y-76902000D02*
X134045000Y-76902000D01*
X134045000Y-76902000D02*
X134045000Y-77664000D01*
X134045000Y-77664000D02*
X135061000Y-77664000D01*
X136585000Y-80585000D02*
X137855000Y-79188000D01*
X137855000Y-79188000D02*
X137855000Y-77283000D01*
X132521000Y-80585000D02*
X131251000Y-79188000D01*
X131251000Y-79188000D02*
X131251000Y-77283000D01*
X131505000Y-73473000D02*
X131505000Y-73219000D01*
X131505000Y-73219000D02*
X132648000Y-73219000D01*
X132648000Y-73219000D02*
X132648000Y-73473000D01*
X137601000Y-73473000D02*
X137601000Y-73219000D01*
X137601000Y-73219000D02*
X136458000Y-73219000D01*
X136458000Y-73219000D02*
X136458000Y-73473000D01*
X137855000Y-73473000D02*
X131251000Y-73473000D01*
X164807640Y-77703360D02*
X164807640Y-78465360D01*
X164299640Y-77703360D02*
X164299640Y-78465360D01*
X164807640Y-75671360D02*
G75*
G03X162902640Y-77068360I-254000J-1651000D01*
G01*
X166204640Y-77195360D02*
G75*
G03X164426640Y-75671360I-1651000J-127000D01*
G01*
X163156640Y-76433360D02*
G75*
G03X163664640Y-78719360I1397000J-889000D01*
G01*
X165442640Y-78719360D02*
G75*
G03X165950640Y-76433360I-889000J1397000D01*
G01*
X167855640Y-73512360D02*
X167855640Y-73639360D01*
X167855640Y-77322360D02*
X167855640Y-75925360D01*
X161251640Y-73512360D02*
X161251640Y-73639360D01*
X161251640Y-77322360D02*
X161251640Y-75925360D01*
X165696640Y-74401360D02*
X165315640Y-74274360D01*
X165315640Y-74274360D02*
X164553640Y-74147360D01*
X164553640Y-74147360D02*
X163791640Y-74274360D01*
X163791640Y-74274360D02*
X163410640Y-74401360D01*
X165823640Y-75290360D02*
X163283640Y-75290360D01*
X161632640Y-76052360D02*
G75*
G03X163283640Y-80243360I2921000J-1270000D01*
G01*
X165823640Y-80243360D02*
G75*
G03X167474640Y-76052360I-1270000J2921000D01*
G01*
X162521640Y-80624360D02*
X163410640Y-80624360D01*
X165696640Y-80624360D02*
X166585640Y-80624360D01*
X162902640Y-77703360D02*
X162394640Y-77703360D01*
X162394640Y-77703360D02*
X162394640Y-76941360D01*
X162394640Y-76941360D02*
X162902640Y-76941360D01*
X166204640Y-77703360D02*
X166712640Y-77703360D01*
X166712640Y-77703360D02*
X166712640Y-76941360D01*
X166712640Y-76941360D02*
X166204640Y-76941360D01*
X164045640Y-77068360D02*
X162902640Y-77068360D01*
X164045640Y-77576360D02*
X162902640Y-77576360D01*
X165061640Y-77068360D02*
X166204640Y-77068360D01*
X165061640Y-77576360D02*
X166204640Y-77576360D01*
X164299640Y-76941360D02*
X164299640Y-75671360D01*
X164807640Y-76941360D02*
X164807640Y-75671360D01*
X165061640Y-77703360D02*
X165061640Y-76941360D01*
X165061640Y-76941360D02*
X164045640Y-76941360D01*
X164045640Y-76941360D02*
X164045640Y-77703360D01*
X164045640Y-77703360D02*
X165061640Y-77703360D01*
X166585640Y-80624360D02*
X167855640Y-79227360D01*
X167855640Y-79227360D02*
X167855640Y-77322360D01*
X162521640Y-80624360D02*
X161251640Y-79227360D01*
X161251640Y-79227360D02*
X161251640Y-77322360D01*
X161505640Y-73512360D02*
X161505640Y-73258360D01*
X161505640Y-73258360D02*
X162648640Y-73258360D01*
X162648640Y-73258360D02*
X162648640Y-73512360D01*
X167601640Y-73512360D02*
X167601640Y-73258360D01*
X167601640Y-73258360D02*
X166458640Y-73258360D01*
X166458640Y-73258360D02*
X166458640Y-73512360D01*
X167855640Y-73512360D02*
X161251640Y-73512360D01*
X144626333Y-70705380D02*
X144293000Y-70229190D01*
X144054904Y-70705380D02*
X144054904Y-69705380D01*
X144435857Y-69705380D01*
X144531095Y-69753000D01*
X144578714Y-69800619D01*
X144626333Y-69895857D01*
X144626333Y-70038714D01*
X144578714Y-70133952D01*
X144531095Y-70181571D01*
X144435857Y-70229190D01*
X144054904Y-70229190D01*
X145578714Y-70705380D02*
X145007285Y-70705380D01*
X145293000Y-70705380D02*
X145293000Y-69705380D01*
X145197761Y-69848238D01*
X145102523Y-69943476D01*
X145007285Y-69991095D01*
X142886333Y-85275380D02*
X142553000Y-84799190D01*
X142314904Y-85275380D02*
X142314904Y-84275380D01*
X142695857Y-84275380D01*
X142791095Y-84323000D01*
X142838714Y-84370619D01*
X142886333Y-84465857D01*
X142886333Y-84608714D01*
X142838714Y-84703952D01*
X142791095Y-84751571D01*
X142695857Y-84799190D01*
X142314904Y-84799190D01*
X143267285Y-84370619D02*
X143314904Y-84323000D01*
X143410142Y-84275380D01*
X143648238Y-84275380D01*
X143743476Y-84323000D01*
X143791095Y-84370619D01*
X143838714Y-84465857D01*
X143838714Y-84561095D01*
X143791095Y-84703952D01*
X143219666Y-85275380D01*
X143838714Y-85275380D01*
X155686333Y-70775380D02*
X155353000Y-70299190D01*
X155114904Y-70775380D02*
X155114904Y-69775380D01*
X155495857Y-69775380D01*
X155591095Y-69823000D01*
X155638714Y-69870619D01*
X155686333Y-69965857D01*
X155686333Y-70108714D01*
X155638714Y-70203952D01*
X155591095Y-70251571D01*
X155495857Y-70299190D01*
X155114904Y-70299190D01*
X156019666Y-69775380D02*
X156638714Y-69775380D01*
X156305380Y-70156333D01*
X156448238Y-70156333D01*
X156543476Y-70203952D01*
X156591095Y-70251571D01*
X156638714Y-70346809D01*
X156638714Y-70584904D01*
X156591095Y-70680142D01*
X156543476Y-70727761D01*
X156448238Y-70775380D01*
X156162523Y-70775380D01*
X156067285Y-70727761D01*
X156019666Y-70680142D01*
X142886333Y-82275380D02*
X142553000Y-81799190D01*
X142314904Y-82275380D02*
X142314904Y-81275380D01*
X142695857Y-81275380D01*
X142791095Y-81323000D01*
X142838714Y-81370619D01*
X142886333Y-81465857D01*
X142886333Y-81608714D01*
X142838714Y-81703952D01*
X142791095Y-81751571D01*
X142695857Y-81799190D01*
X142314904Y-81799190D01*
X143743476Y-81608714D02*
X143743476Y-82275380D01*
X143505380Y-81227761D02*
X143267285Y-81942047D01*
X143886333Y-81942047D01*
X176516380Y-82159523D02*
X175516380Y-82159523D01*
X176230666Y-81826190D01*
X175516380Y-81492857D01*
X176516380Y-81492857D01*
X176516380Y-80492857D02*
X176516380Y-81064285D01*
X176516380Y-80778571D02*
X175516380Y-80778571D01*
X175659238Y-80873809D01*
X175754476Y-80969047D01*
X175802095Y-81064285D01*
X156164114Y-95160980D02*
X156164114Y-94160980D01*
X156545066Y-94160980D01*
X156640304Y-94208600D01*
X156687923Y-94256219D01*
X156735542Y-94351457D01*
X156735542Y-94494314D01*
X156687923Y-94589552D01*
X156640304Y-94637171D01*
X156545066Y-94684790D01*
X156164114Y-94684790D01*
X157687923Y-95160980D02*
X157116495Y-95160980D01*
X157402209Y-95160980D02*
X157402209Y-94160980D01*
X157306971Y-94303838D01*
X157211733Y-94399076D01*
X157116495Y-94446695D01*
X158640304Y-95160980D02*
X158068876Y-95160980D01*
X158354590Y-95160980D02*
X158354590Y-94160980D01*
X158259352Y-94303838D01*
X158164114Y-94399076D01*
X158068876Y-94446695D01*
X133871704Y-85851980D02*
X133871704Y-84851980D01*
X134109800Y-84851980D01*
X134252657Y-84899600D01*
X134347895Y-84994838D01*
X134395514Y-85090076D01*
X134443133Y-85280552D01*
X134443133Y-85423409D01*
X134395514Y-85613885D01*
X134347895Y-85709123D01*
X134252657Y-85804361D01*
X134109800Y-85851980D01*
X133871704Y-85851980D01*
X135395514Y-85851980D02*
X134824085Y-85851980D01*
X135109800Y-85851980D02*
X135109800Y-84851980D01*
X135014561Y-84994838D01*
X134919323Y-85090076D01*
X134824085Y-85137695D01*
X159881304Y-81635580D02*
X159881304Y-80635580D01*
X160119400Y-80635580D01*
X160262257Y-80683200D01*
X160357495Y-80778438D01*
X160405114Y-80873676D01*
X160452733Y-81064152D01*
X160452733Y-81207009D01*
X160405114Y-81397485D01*
X160357495Y-81492723D01*
X160262257Y-81587961D01*
X160119400Y-81635580D01*
X159881304Y-81635580D01*
X160833685Y-80730819D02*
X160881304Y-80683200D01*
X160976542Y-80635580D01*
X161214638Y-80635580D01*
X161309876Y-80683200D01*
X161357495Y-80730819D01*
X161405114Y-80826057D01*
X161405114Y-80921295D01*
X161357495Y-81064152D01*
X160786066Y-81635580D01*
X161405114Y-81635580D01*
X156457761Y-79370619D02*
X156362523Y-79323000D01*
X156267285Y-79227761D01*
X156124428Y-79084904D01*
X156029190Y-79037285D01*
X155933952Y-79037285D01*
X155981571Y-79275380D02*
X155886333Y-79227761D01*
X155791095Y-79132523D01*
X155743476Y-78942047D01*
X155743476Y-78608714D01*
X155791095Y-78418238D01*
X155886333Y-78323000D01*
X155981571Y-78275380D01*
X156172047Y-78275380D01*
X156267285Y-78323000D01*
X156362523Y-78418238D01*
X156410142Y-78608714D01*
X156410142Y-78942047D01*
X156362523Y-79132523D01*
X156267285Y-79227761D01*
X156172047Y-79275380D01*
X155981571Y-79275380D01*
X156791095Y-78370619D02*
X156838714Y-78323000D01*
X156933952Y-78275380D01*
X157172047Y-78275380D01*
X157267285Y-78323000D01*
X157314904Y-78370619D01*
X157362523Y-78465857D01*
X157362523Y-78561095D01*
X157314904Y-78703952D01*
X156743476Y-79275380D01*
X157362523Y-79275380D01*
X128505380Y-84632523D02*
X127505380Y-84632523D01*
X128219666Y-84299190D01*
X127505380Y-83965857D01*
X128505380Y-83965857D01*
X127600619Y-83537285D02*
X127553000Y-83489666D01*
X127505380Y-83394428D01*
X127505380Y-83156333D01*
X127553000Y-83061095D01*
X127600619Y-83013476D01*
X127695857Y-82965857D01*
X127791095Y-82965857D01*
X127933952Y-83013476D01*
X128505380Y-83584904D01*
X128505380Y-82965857D01*
X132261904Y-83952380D02*
X132261904Y-82952380D01*
X132642857Y-82952380D01*
X132738095Y-83000000D01*
X132785714Y-83047619D01*
X132833333Y-83142857D01*
X132833333Y-83285714D01*
X132785714Y-83380952D01*
X132738095Y-83428571D01*
X132642857Y-83476190D01*
X132261904Y-83476190D01*
X133785714Y-83952380D02*
X133214285Y-83952380D01*
X133500000Y-83952380D02*
X133500000Y-82952380D01*
X133404761Y-83095238D01*
X133309523Y-83190476D01*
X133214285Y-83238095D01*
X166261904Y-83952380D02*
X166261904Y-82952380D01*
X166642857Y-82952380D01*
X166738095Y-83000000D01*
X166785714Y-83047619D01*
X166833333Y-83142857D01*
X166833333Y-83285714D01*
X166785714Y-83380952D01*
X166738095Y-83428571D01*
X166642857Y-83476190D01*
X166261904Y-83476190D01*
X167214285Y-83047619D02*
X167261904Y-83000000D01*
X167357142Y-82952380D01*
X167595238Y-82952380D01*
X167690476Y-83000000D01*
X167738095Y-83047619D01*
X167785714Y-83142857D01*
X167785714Y-83238095D01*
X167738095Y-83380952D01*
X167166666Y-83952380D01*
X167785714Y-83952380D01*
X163860314Y-94475180D02*
X163860314Y-93475180D01*
X164241266Y-93475180D01*
X164336504Y-93522800D01*
X164384123Y-93570419D01*
X164431742Y-93665657D01*
X164431742Y-93808514D01*
X164384123Y-93903752D01*
X164336504Y-93951371D01*
X164241266Y-93998990D01*
X163860314Y-93998990D01*
X165384123Y-94475180D02*
X164812695Y-94475180D01*
X165098409Y-94475180D02*
X165098409Y-93475180D01*
X165003171Y-93618038D01*
X164907933Y-93713276D01*
X164812695Y-93760895D01*
X165717457Y-93475180D02*
X166336504Y-93475180D01*
X166003171Y-93856133D01*
X166146028Y-93856133D01*
X166241266Y-93903752D01*
X166288885Y-93951371D01*
X166336504Y-94046609D01*
X166336504Y-94284704D01*
X166288885Y-94379942D01*
X166241266Y-94427561D01*
X166146028Y-94475180D01*
X165860314Y-94475180D01*
X165765076Y-94427561D01*
X165717457Y-94379942D01*
X152354114Y-95389580D02*
X152354114Y-94389580D01*
X152735066Y-94389580D01*
X152830304Y-94437200D01*
X152877923Y-94484819D01*
X152925542Y-94580057D01*
X152925542Y-94722914D01*
X152877923Y-94818152D01*
X152830304Y-94865771D01*
X152735066Y-94913390D01*
X152354114Y-94913390D01*
X153877923Y-95389580D02*
X153306495Y-95389580D01*
X153592209Y-95389580D02*
X153592209Y-94389580D01*
X153496971Y-94532438D01*
X153401733Y-94627676D01*
X153306495Y-94675295D01*
X154496971Y-94389580D02*
X154592209Y-94389580D01*
X154687447Y-94437200D01*
X154735066Y-94484819D01*
X154782685Y-94580057D01*
X154830304Y-94770533D01*
X154830304Y-95008628D01*
X154782685Y-95199104D01*
X154735066Y-95294342D01*
X154687447Y-95341961D01*
X154592209Y-95389580D01*
X154496971Y-95389580D01*
X154401733Y-95341961D01*
X154354114Y-95294342D01*
X154306495Y-95199104D01*
X154258876Y-95008628D01*
X154258876Y-94770533D01*
X154306495Y-94580057D01*
X154354114Y-94484819D01*
X154401733Y-94437200D01*
X154496971Y-94389580D01*
X160024914Y-94652980D02*
X160024914Y-93652980D01*
X160405866Y-93652980D01*
X160501104Y-93700600D01*
X160548723Y-93748219D01*
X160596342Y-93843457D01*
X160596342Y-93986314D01*
X160548723Y-94081552D01*
X160501104Y-94129171D01*
X160405866Y-94176790D01*
X160024914Y-94176790D01*
X161548723Y-94652980D02*
X160977295Y-94652980D01*
X161263009Y-94652980D02*
X161263009Y-93652980D01*
X161167771Y-93795838D01*
X161072533Y-93891076D01*
X160977295Y-93938695D01*
X161929676Y-93748219D02*
X161977295Y-93700600D01*
X162072533Y-93652980D01*
X162310628Y-93652980D01*
X162405866Y-93700600D01*
X162453485Y-93748219D01*
X162501104Y-93843457D01*
X162501104Y-93938695D01*
X162453485Y-94081552D01*
X161882057Y-94652980D01*
X162501104Y-94652980D01*
X141654304Y-94805380D02*
X141654304Y-93805380D01*
X142035257Y-93805380D01*
X142130495Y-93853000D01*
X142178114Y-93900619D01*
X142225733Y-93995857D01*
X142225733Y-94138714D01*
X142178114Y-94233952D01*
X142130495Y-94281571D01*
X142035257Y-94329190D01*
X141654304Y-94329190D01*
X142559066Y-93805380D02*
X143225733Y-93805380D01*
X142797161Y-94805380D01*
X145515104Y-95160980D02*
X145515104Y-94160980D01*
X145896057Y-94160980D01*
X145991295Y-94208600D01*
X146038914Y-94256219D01*
X146086533Y-94351457D01*
X146086533Y-94494314D01*
X146038914Y-94589552D01*
X145991295Y-94637171D01*
X145896057Y-94684790D01*
X145515104Y-94684790D01*
X146657961Y-94589552D02*
X146562723Y-94541933D01*
X146515104Y-94494314D01*
X146467485Y-94399076D01*
X146467485Y-94351457D01*
X146515104Y-94256219D01*
X146562723Y-94208600D01*
X146657961Y-94160980D01*
X146848438Y-94160980D01*
X146943676Y-94208600D01*
X146991295Y-94256219D01*
X147038914Y-94351457D01*
X147038914Y-94399076D01*
X146991295Y-94494314D01*
X146943676Y-94541933D01*
X146848438Y-94589552D01*
X146657961Y-94589552D01*
X146562723Y-94637171D01*
X146515104Y-94684790D01*
X146467485Y-94780028D01*
X146467485Y-94970504D01*
X146515104Y-95065742D01*
X146562723Y-95113361D01*
X146657961Y-95160980D01*
X146848438Y-95160980D01*
X146943676Y-95113361D01*
X146991295Y-95065742D01*
X147038914Y-94970504D01*
X147038914Y-94780028D01*
X146991295Y-94684790D01*
X146943676Y-94637171D01*
X146848438Y-94589552D01*
X167695714Y-94703780D02*
X167695714Y-93703780D01*
X168076666Y-93703780D01*
X168171904Y-93751400D01*
X168219523Y-93799019D01*
X168267142Y-93894257D01*
X168267142Y-94037114D01*
X168219523Y-94132352D01*
X168171904Y-94179971D01*
X168076666Y-94227590D01*
X167695714Y-94227590D01*
X169219523Y-94703780D02*
X168648095Y-94703780D01*
X168933809Y-94703780D02*
X168933809Y-93703780D01*
X168838571Y-93846638D01*
X168743333Y-93941876D01*
X168648095Y-93989495D01*
X170076666Y-94037114D02*
X170076666Y-94703780D01*
X169838571Y-93656161D02*
X169600476Y-94370447D01*
X170219523Y-94370447D01*
X130148104Y-95160980D02*
X130148104Y-94160980D01*
X130529057Y-94160980D01*
X130624295Y-94208600D01*
X130671914Y-94256219D01*
X130719533Y-94351457D01*
X130719533Y-94494314D01*
X130671914Y-94589552D01*
X130624295Y-94637171D01*
X130529057Y-94684790D01*
X130148104Y-94684790D01*
X131576676Y-94494314D02*
X131576676Y-95160980D01*
X131338580Y-94113361D02*
X131100485Y-94827647D01*
X131719533Y-94827647D01*
X134008904Y-94678380D02*
X134008904Y-93678380D01*
X134389857Y-93678380D01*
X134485095Y-93726000D01*
X134532714Y-93773619D01*
X134580333Y-93868857D01*
X134580333Y-94011714D01*
X134532714Y-94106952D01*
X134485095Y-94154571D01*
X134389857Y-94202190D01*
X134008904Y-94202190D01*
X135485095Y-93678380D02*
X135008904Y-93678380D01*
X134961285Y-94154571D01*
X135008904Y-94106952D01*
X135104142Y-94059333D01*
X135342238Y-94059333D01*
X135437476Y-94106952D01*
X135485095Y-94154571D01*
X135532714Y-94249809D01*
X135532714Y-94487904D01*
X135485095Y-94583142D01*
X135437476Y-94630761D01*
X135342238Y-94678380D01*
X135104142Y-94678380D01*
X135008904Y-94630761D01*
X134961285Y-94583142D01*
X171556514Y-95084780D02*
X171556514Y-94084780D01*
X171937466Y-94084780D01*
X172032704Y-94132400D01*
X172080323Y-94180019D01*
X172127942Y-94275257D01*
X172127942Y-94418114D01*
X172080323Y-94513352D01*
X172032704Y-94560971D01*
X171937466Y-94608590D01*
X171556514Y-94608590D01*
X173080323Y-95084780D02*
X172508895Y-95084780D01*
X172794609Y-95084780D02*
X172794609Y-94084780D01*
X172699371Y-94227638D01*
X172604133Y-94322876D01*
X172508895Y-94370495D01*
X173985085Y-94084780D02*
X173508895Y-94084780D01*
X173461276Y-94560971D01*
X173508895Y-94513352D01*
X173604133Y-94465733D01*
X173842228Y-94465733D01*
X173937466Y-94513352D01*
X173985085Y-94560971D01*
X174032704Y-94656209D01*
X174032704Y-94894304D01*
X173985085Y-94989542D01*
X173937466Y-95037161D01*
X173842228Y-95084780D01*
X173604133Y-95084780D01*
X173508895Y-95037161D01*
X173461276Y-94989542D01*
X126338104Y-95465780D02*
X126338104Y-94465780D01*
X126719057Y-94465780D01*
X126814295Y-94513400D01*
X126861914Y-94561019D01*
X126909533Y-94656257D01*
X126909533Y-94799114D01*
X126861914Y-94894352D01*
X126814295Y-94941971D01*
X126719057Y-94989590D01*
X126338104Y-94989590D01*
X127242866Y-94465780D02*
X127861914Y-94465780D01*
X127528580Y-94846733D01*
X127671438Y-94846733D01*
X127766676Y-94894352D01*
X127814295Y-94941971D01*
X127861914Y-95037209D01*
X127861914Y-95275304D01*
X127814295Y-95370542D01*
X127766676Y-95418161D01*
X127671438Y-95465780D01*
X127385723Y-95465780D01*
X127290485Y-95418161D01*
X127242866Y-95370542D01*
X149325104Y-95770580D02*
X149325104Y-94770580D01*
X149706057Y-94770580D01*
X149801295Y-94818200D01*
X149848914Y-94865819D01*
X149896533Y-94961057D01*
X149896533Y-95103914D01*
X149848914Y-95199152D01*
X149801295Y-95246771D01*
X149706057Y-95294390D01*
X149325104Y-95294390D01*
X150372723Y-95770580D02*
X150563200Y-95770580D01*
X150658438Y-95722961D01*
X150706057Y-95675342D01*
X150801295Y-95532485D01*
X150848914Y-95342009D01*
X150848914Y-94961057D01*
X150801295Y-94865819D01*
X150753676Y-94818200D01*
X150658438Y-94770580D01*
X150467961Y-94770580D01*
X150372723Y-94818200D01*
X150325104Y-94865819D01*
X150277485Y-94961057D01*
X150277485Y-95199152D01*
X150325104Y-95294390D01*
X150372723Y-95342009D01*
X150467961Y-95389628D01*
X150658438Y-95389628D01*
X150753676Y-95342009D01*
X150801295Y-95294390D01*
X150848914Y-95199152D01*
X137844304Y-94576780D02*
X137844304Y-93576780D01*
X138225257Y-93576780D01*
X138320495Y-93624400D01*
X138368114Y-93672019D01*
X138415733Y-93767257D01*
X138415733Y-93910114D01*
X138368114Y-94005352D01*
X138320495Y-94052971D01*
X138225257Y-94100590D01*
X137844304Y-94100590D01*
X139272876Y-93576780D02*
X139082400Y-93576780D01*
X138987161Y-93624400D01*
X138939542Y-93672019D01*
X138844304Y-93814876D01*
X138796685Y-94005352D01*
X138796685Y-94386304D01*
X138844304Y-94481542D01*
X138891923Y-94529161D01*
X138987161Y-94576780D01*
X139177638Y-94576780D01*
X139272876Y-94529161D01*
X139320495Y-94481542D01*
X139368114Y-94386304D01*
X139368114Y-94148209D01*
X139320495Y-94052971D01*
X139272876Y-94005352D01*
X139177638Y-93957733D01*
X138987161Y-93957733D01*
X138891923Y-94005352D01*
X138844304Y-94052971D01*
X138796685Y-94148209D01*
X149957761Y-76870619D02*
X149862523Y-76823000D01*
X149767285Y-76727761D01*
X149624428Y-76584904D01*
X149529190Y-76537285D01*
X149433952Y-76537285D01*
X149481571Y-76775380D02*
X149386333Y-76727761D01*
X149291095Y-76632523D01*
X149243476Y-76442047D01*
X149243476Y-76108714D01*
X149291095Y-75918238D01*
X149386333Y-75823000D01*
X149481571Y-75775380D01*
X149672047Y-75775380D01*
X149767285Y-75823000D01*
X149862523Y-75918238D01*
X149910142Y-76108714D01*
X149910142Y-76442047D01*
X149862523Y-76632523D01*
X149767285Y-76727761D01*
X149672047Y-76775380D01*
X149481571Y-76775380D01*
X150862523Y-76775380D02*
X150291095Y-76775380D01*
X150576809Y-76775380D02*
X150576809Y-75775380D01*
X150481571Y-75918238D01*
X150386333Y-76013476D01*
X150291095Y-76061095D01*
X142457761Y-79370619D02*
X142362523Y-79323000D01*
X142267285Y-79227761D01*
X142124428Y-79084904D01*
X142029190Y-79037285D01*
X141933952Y-79037285D01*
X141981571Y-79275380D02*
X141886333Y-79227761D01*
X141791095Y-79132523D01*
X141743476Y-78942047D01*
X141743476Y-78608714D01*
X141791095Y-78418238D01*
X141886333Y-78323000D01*
X141981571Y-78275380D01*
X142172047Y-78275380D01*
X142267285Y-78323000D01*
X142362523Y-78418238D01*
X142410142Y-78608714D01*
X142410142Y-78942047D01*
X142362523Y-79132523D01*
X142267285Y-79227761D01*
X142172047Y-79275380D01*
X141981571Y-79275380D01*
X142743476Y-78275380D02*
X143362523Y-78275380D01*
X143029190Y-78656333D01*
X143172047Y-78656333D01*
X143267285Y-78703952D01*
X143314904Y-78751571D01*
X143362523Y-78846809D01*
X143362523Y-79084904D01*
X143314904Y-79180142D01*
X143267285Y-79227761D01*
X143172047Y-79275380D01*
X142886333Y-79275380D01*
X142791095Y-79227761D01*
X142743476Y-79180142D01*
M02*
